<?xml version="1.0" encoding="UTF-8" standalone="no"?>
<!DOCTYPE svg PUBLIC "-//W3C//DTD SVG 1.1//EN"
 "http://www.w3.org/Graphics/SVG/1.1/DTD/svg11.dtd">
<!-- Generated by graphviz version 2.43.0 (0)
 -->
<!-- Title: bzero Pages: 1 -->
<svg width="540pt" height="141pt"
 viewBox="0.00 0.00 540.00 141.00" xmlns="http://www.w3.org/2000/svg" xmlns:xlink="http://www.w3.org/1999/xlink">
<g id="graph0" class="graph" transform="scale(1 1) rotate(0) translate(4 137)">
<title>bzero</title>
<!-- Node1 -->
<g id="Node000001" class="node">
<title>Node1</title>
<g id="a_Node000001"><a xlink:title=" ">
<polygon fill="#999999" stroke="#666666" points="532,-76 488,-76 488,-57 532,-57 532,-76"/>
<text text-anchor="middle" x="510" y="-64" font-family="Helvetica,sans-Serif" font-size="10.00">bzero</text>
</a>
</g>
</g>
<!-- Node2 -->
<g id="Node000002" class="node">
<title>Node2</title>
<g id="a_Node000002"><a xlink:href="____osViInit_8c.html#a88e1c1713b33b8f41ca47f5e7ad61e1a" target="_top" xlink:title=" ">
<polygon fill="white" stroke="#666666" points="441,-132 377,-132 377,-113 441,-113 441,-132"/>
<text text-anchor="middle" x="409" y="-120" font-family="Helvetica,sans-Serif" font-size="10.00">__osViInit</text>
</a>
</g>
</g>
<!-- Node1&#45;&gt;Node2 -->
<g id="edge1_Node000001_Node000002" class="edge">
<title>Node1&#45;&gt;Node2</title>
<g id="a_edge1_Node000001_Node000002"><a xlink:title=" ">
<path fill="none" stroke="#63b8ff" d="M487.39,-82.27C476.97,-89.51 464.13,-97.93 452,-104.5 446.42,-107.52 440.23,-110.41 434.35,-112.96"/>
<polygon fill="#63b8ff" stroke="#63b8ff" points="489.71,-84.92 495.84,-76.28 485.66,-79.2 489.71,-84.92"/>
</a>
</g>
</g>
<!-- Node6 -->
<g id="Node000006" class="node">
<title>Node6</title>
<g id="a_Node000006"><a xlink:href="osCartRomInit_8c.html#abca2961a4035af042c871e81a9647571" target="_top" xlink:title=" ">
<polygon fill="white" stroke="#666666" points="452,-95 366,-95 366,-76 452,-76 452,-95"/>
<text text-anchor="middle" x="409" y="-83" font-family="Helvetica,sans-Serif" font-size="10.00">osCartRomInit</text>
</a>
</g>
</g>
<!-- Node1&#45;&gt;Node6 -->
<g id="edge5_Node000001_Node000006" class="edge">
<title>Node1&#45;&gt;Node6</title>
<g id="a_edge5_Node000001_Node000006"><a xlink:title=" ">
<path fill="none" stroke="#63b8ff" d="M477.47,-72.55C469.43,-74.09 460.67,-75.78 452.2,-77.4"/>
<polygon fill="#63b8ff" stroke="#63b8ff" points="478.36,-75.94 487.52,-70.62 477.04,-69.07 478.36,-75.94"/>
</a>
</g>
</g>
<!-- Node8 -->
<g id="Node000008" class="node">
<title>Node8</title>
<g id="a_Node000008"><a xlink:href="osInitialize_8c.html#acfb0fdf45b4ccc5ad77f155cf184c910" target="_top" xlink:title=" ">
<polygon fill="white" stroke="#666666" points="177.5,-57 107.5,-57 107.5,-38 177.5,-38 177.5,-57"/>
<text text-anchor="middle" x="142.5" y="-45" font-family="Helvetica,sans-Serif" font-size="10.00">osInitialize</text>
</a>
</g>
</g>
<!-- Node1&#45;&gt;Node8 -->
<g id="edge8_Node000001_Node000008" class="edge">
<title>Node1&#45;&gt;Node8</title>
<g id="a_edge8_Node000001_Node000008"><a xlink:title=" ">
<path fill="none" stroke="#63b8ff" d="M477.65,-64.87C409.45,-61.33 248.09,-52.94 177.52,-49.27"/>
<polygon fill="#63b8ff" stroke="#63b8ff" points="477.6,-68.37 487.77,-65.4 477.96,-61.38 477.6,-68.37"/>
</a>
</g>
</g>
<!-- Node9 -->
<g id="Node000009" class="node">
<title>Node9</title>
<g id="a_Node000009"><a xlink:href="osLeoDiskInit_8c.html#afaa21882532ed51d7333383c0b90a514" target="_top" xlink:title=" ">
<polygon fill="white" stroke="#666666" points="450.5,-19 367.5,-19 367.5,0 450.5,0 450.5,-19"/>
<text text-anchor="middle" x="409" y="-7" font-family="Helvetica,sans-Serif" font-size="10.00">osLeoDiskInit</text>
</a>
</g>
</g>
<!-- Node1&#45;&gt;Node9 -->
<g id="edge10_Node000001_Node000009" class="edge">
<title>Node1&#45;&gt;Node9</title>
<g id="a_edge10_Node000001_Node000009"><a xlink:title=" ">
<path fill="none" stroke="#63b8ff" d="M483.64,-51.78C473.77,-46.06 462.37,-39.46 452,-33.5 443.7,-28.73 434.46,-23.45 426.77,-19.05"/>
<polygon fill="#63b8ff" stroke="#63b8ff" points="482.15,-54.96 492.55,-56.94 485.66,-48.9 482.15,-54.96"/>
</a>
</g>
</g>
<!-- Node3 -->
<g id="Node000003" class="node">
<title>Node3</title>
<g id="a_Node000003"><a xlink:href="osCreateViManager_8c.html#a0b32162ed7cfeee6f51f2187052268e2" target="_top" xlink:title=" ">
<polygon fill="white" stroke="#666666" points="330,-132 217,-132 217,-113 330,-113 330,-132"/>
<text text-anchor="middle" x="273.5" y="-120" font-family="Helvetica,sans-Serif" font-size="10.00">osCreateViManager</text>
</a>
</g>
</g>
<!-- Node2&#45;&gt;Node3 -->
<g id="edge2_Node000002_Node000003" class="edge">
<title>Node2&#45;&gt;Node3</title>
<g id="a_edge2_Node000002_Node000003"><a xlink:title=" ">
<path fill="none" stroke="#63b8ff" d="M366.52,-122.5C355.02,-122.5 342.35,-122.5 330.19,-122.5"/>
<polygon fill="#63b8ff" stroke="#63b8ff" points="366.7,-126 376.7,-122.5 366.7,-119 366.7,-126"/>
</a>
</g>
</g>
<!-- Node4 -->
<g id="Node000004" class="node">
<title>Node4</title>
<g id="a_Node000004"><a xlink:href="main_8c.html#a1e35d2b842121e6aea373f09381616e5" target="_top" xlink:title=" ">
<polygon fill="white" stroke="#666666" points="181,-133 104,-133 104,-114 181,-114 181,-133"/>
<text text-anchor="middle" x="142.5" y="-121" font-family="Helvetica,sans-Serif" font-size="10.00">thread1_idle</text>
</a>
</g>
</g>
<!-- Node3&#45;&gt;Node4 -->
<g id="edge3_Node000003_Node000004" class="edge">
<title>Node3&#45;&gt;Node4</title>
<g id="a_edge3_Node000003_Node000004"><a xlink:title=" ">
<path fill="none" stroke="#63b8ff" d="M206.5,-123.01C197.82,-123.08 189.17,-123.15 181.19,-123.21"/>
<polygon fill="#63b8ff" stroke="#63b8ff" points="206.7,-126.51 216.67,-122.93 206.64,-119.51 206.7,-126.51"/>
</a>
</g>
</g>
<!-- Node5 -->
<g id="Node000005" class="node">
<title>Node5</title>
<g id="a_Node000005"><a xlink:href="main_8c.html#a4f87d43525fe95f60ea92bc8a3b70e62" target="_top" xlink:title=" ">
<polygon fill="white" stroke="#666666" points="68,-95 0,-95 0,-76 68,-76 68,-95"/>
<text text-anchor="middle" x="34" y="-83" font-family="Helvetica,sans-Serif" font-size="10.00">main_func</text>
</a>
</g>
</g>
<!-- Node4&#45;&gt;Node5 -->
<g id="edge4_Node000004_Node000005" class="edge">
<title>Node4&#45;&gt;Node5</title>
<g id="a_edge4_Node000004_Node000005"><a xlink:title=" ">
<path fill="none" stroke="#63b8ff" d="M105.14,-110.53C90.96,-105.47 74.98,-99.77 61.87,-95.09"/>
<polygon fill="#63b8ff" stroke="#63b8ff" points="104.03,-113.85 114.63,-113.91 106.38,-107.25 104.03,-113.85"/>
</a>
</g>
</g>
<!-- Node7 -->
<g id="Node000007" class="node">
<title>Node7</title>
<g id="a_Node000007"><a xlink:href="is__debug_8c.html#ab1c0785a38b03aa8b3d9b97320e414e9" target="_top" xlink:title=" ">
<polygon fill="white" stroke="#666666" points="307,-95 240,-95 240,-76 307,-76 307,-95"/>
<text text-anchor="middle" x="273.5" y="-83" font-family="Helvetica,sans-Serif" font-size="10.00">isPrintfInit</text>
</a>
</g>
</g>
<!-- Node6&#45;&gt;Node7 -->
<g id="edge6_Node000006_Node000007" class="edge">
<title>Node6&#45;&gt;Node7</title>
<g id="a_edge6_Node000006_Node000007"><a xlink:title=" ">
<path fill="none" stroke="#63b8ff" d="M355.76,-85.5C339.38,-85.5 321.78,-85.5 307.16,-85.5"/>
<polygon fill="#63b8ff" stroke="#63b8ff" points="355.76,-89 365.76,-85.5 355.76,-82 355.76,-89"/>
</a>
</g>
</g>
<!-- Node7&#45;&gt;Node5 -->
<g id="edge7_Node000007_Node000005" class="edge">
<title>Node7&#45;&gt;Node5</title>
<g id="a_edge7_Node000007_Node000005"><a xlink:title=" ">
<path fill="none" stroke="#63b8ff" d="M229.95,-85.5C183.65,-85.5 110.58,-85.5 68.28,-85.5"/>
<polygon fill="#63b8ff" stroke="#63b8ff" points="229.97,-89 239.97,-85.5 229.97,-82 229.97,-89"/>
</a>
</g>
</g>
<!-- Node8&#45;&gt;Node5 -->
<g id="edge9_Node000008_Node000005" class="edge">
<title>Node8&#45;&gt;Node5</title>
<g id="a_edge9_Node000008_Node000005"><a xlink:title=" ">
<path fill="none" stroke="#63b8ff" d="M105.14,-60.47C90.96,-65.53 74.98,-71.23 61.87,-75.91"/>
<polygon fill="#63b8ff" stroke="#63b8ff" points="106.38,-63.75 114.63,-57.09 104.03,-57.15 106.38,-63.75"/>
</a>
</g>
</g>
</g>
</svg>
