<?xml version="1.0" encoding="UTF-8" standalone="no"?>
<!DOCTYPE svg PUBLIC "-//W3C//DTD SVG 1.1//EN"
 "http://www.w3.org/Graphics/SVG/1.1/DTD/svg11.dtd">
<!-- Generated by graphviz version 2.43.0 (0)
 -->
<!-- Title: OHotAirBalloon Pages: 1 -->
<!--zoomable 610 -->

<svg id="main" version="1.1" xmlns="http://www.w3.org/2000/svg" xmlns:xlink="http://www.w3.org/1999/xlink" xml:space="preserve" onload="init(evt)">

<style type="text/css"><![CDATA[
.node, .edge {opacity: 0.7;}
.node.selected, .edge.selected {opacity: 1;}
.edge:hover path { stroke: red; }
.edge:hover polygon { stroke: red; fill: red; }
]]></style>

<defs>
  <circle id="rim" cx="0" cy="0" r="7"/>
  <circle id="rim2" cx="0" cy="0" r="3.5"/>
  <g id="zoomPlus">
    <use xlink:href="#rim" fill="#404040"><set attributeName="fill" to="#808080" begin="zoomplus.mouseover" end="zoomplus.mouseout"/></use>
    <path d="M-4,0h8M0,-4v8" fill="none" stroke="white" stroke-width="1.5" pointer-events="none"/>
  </g>
  <g id="zoomMin">
    <use xlink:href="#rim" fill="#404040"><set attributeName="fill" to="#808080" begin="zoomminus.mouseover" end="zoomminus.mouseout"/></use>
    <path d="M-4,0h8" fill="none" stroke="white" stroke-width="1.5" pointer-events="none"/>
  </g>
  <g id="arrowUp" transform="translate(30 24)">
    <use xlink:href="#rim"/>
    <path pointer-events="none" fill="none" stroke="white" stroke-width="1.5" d="M0,-3.0v7 M-2.5,-0.5L0,-3.0L2.5,-0.5"/>
  </g>
  <g id="arrowRight" transform="rotate(90) translate(36 -43)">
    <use xlink:href="#rim"/>
    <path pointer-events="none" fill="none" stroke="white" stroke-width="1.5" d="M0,-3.0v7 M-2.5,-0.5L0,-3.0L2.5,-0.5"/>
  </g>
  <g id="arrowDown" transform="rotate(180) translate(-30 -48)">
    <use xlink:href="#rim"/>
    <path pointer-events="none" fill="none" stroke="white" stroke-width="1.5" d="M0,-3.0v7 M-2.5,-0.5L0,-3.0L2.5,-0.5"/>
  </g>
  <g id="arrowLeft" transform="rotate(270) translate(-36 17)">
    <use xlink:href="#rim"/>
    <path pointer-events="none" fill="none" stroke="white" stroke-width="1.5" d="M0,-3.0v7 M-2.5,-0.5L0,-3.0L2.5,-0.5"/>
  </g>
  <g id="resetDef">
    <use xlink:href="#rim2" fill="#404040"><set attributeName="fill" to="#808080" begin="reset.mouseover" end="reset.mouseout"/></use>
  </g>
</defs>
<script type="application/ecmascript">
var viewWidth = 1154;
var viewHeight = 610;
var sectionId = 'dynsection-1';
</script>
<script type="application/ecmascript" xlink:href="svg.min.js"/>
<svg id="graph" class="graph">
<g id="viewport">
<title>OHotAirBalloon</title>
<!-- Node1 -->
<g id="Node000001" class="node">
<title>Node1</title>
<g id="a_Node000001"><a xlink:title=" ">
<polygon fill="#999999" stroke="#666666" points="1079.5,-19 987.5,-19 987.5,0 1079.5,0 1079.5,-19"/>
<text text-anchor="middle" x="1033.5" y="-7" font-family="Helvetica,sans-Serif" font-size="10.00">OHotAirBalloon</text>
</a>
</g>
</g>
<!-- Node2 -->
<g id="Node000002" class="node">
<title>Node2</title>
<g id="a_Node000002"><a xlink:href="classOObject.html" target="_top" xlink:title=" ">
<polygon fill="white" stroke="#666666" points="896.5,-85 840.5,-85 840.5,-66 896.5,-66 896.5,-85"/>
<text text-anchor="middle" x="868.5" y="-73" font-family="Helvetica,sans-Serif" font-size="10.00">OObject</text>
</a>
</g>
</g>
<!-- Node2&#45;&gt;Node1 -->
<g id="edge1_Node000001_Node000002" class="edge">
<title>Node2&#45;&gt;Node1</title>
<g id="a_edge1_Node000001_Node000002"><a xlink:title=" ">
<path fill="none" stroke="#63b8ff" d="M900.27,-62.18C932.88,-49.53 982.76,-30.18 1011.34,-19.1"/>
<polygon fill="#63b8ff" stroke="#63b8ff" points="898.81,-58.99 890.75,-65.87 901.34,-65.52 898.81,-58.99"/>
</a>
</g>
</g>
<!-- Node3 -->
<g id="Node000003" class="node">
<title>Node3</title>
<g id="a_Node000003"><a xlink:title=" ">
<polygon fill="white" stroke="#666666" points="862.5,-173 812.5,-173 812.5,-154 862.5,-154 862.5,-173"/>
<text text-anchor="middle" x="837.5" y="-161" font-family="Helvetica,sans-Serif" font-size="10.00">uint8_t</text>
</a>
</g>
</g>
<!-- Node3&#45;&gt;Node2 -->
<g id="edge2_Node000002_Node000003" class="edge">
<title>Node3&#45;&gt;Node2</title>
<g id="a_edge2_Node000002_Node000003"><a xlink:title=" ">
<path fill="none" stroke="#9a32cd" stroke-dasharray="5,2" d="M844.02,-144.42C850.59,-126.18 860.47,-98.78 865.43,-85.03"/>
<polygon fill="#9a32cd" stroke="#9a32cd" points="840.68,-143.35 840.59,-153.94 847.27,-145.72 840.68,-143.35"/>
</a>
</g>
<text text-anchor="middle" x="871" y="-117" font-family="Helvetica,sans-Serif" font-size="10.00" fill="grey"> uuid</text>
</g>
<!-- Node4 -->
<g id="Node000004" class="node">
<title>Node4</title>
<g id="a_Node000004"><a xlink:href="structObject.html" target="_top" xlink:title=" ">
<polygon fill="white" stroke="#666666" points="550.5,-173 502.5,-173 502.5,-154 550.5,-154 550.5,-173"/>
<text text-anchor="middle" x="526.5" y="-161" font-family="Helvetica,sans-Serif" font-size="10.00">Object</text>
</a>
</g>
</g>
<!-- Node4&#45;&gt;Node2 -->
<g id="edge3_Node000002_Node000004" class="edge">
<title>Node4&#45;&gt;Node2</title>
<g id="a_edge3_Node000002_Node000004"><a xlink:title=" ">
<path fill="none" stroke="#9a32cd" stroke-dasharray="5,2" d="M560.66,-153.91C628.22,-136.92 777.77,-99.32 840.23,-83.61"/>
<polygon fill="#9a32cd" stroke="#9a32cd" points="559.39,-150.62 550.55,-156.45 561.1,-157.41 559.39,-150.62"/>
</a>
</g>
<text text-anchor="middle" x="763.5" y="-117" font-family="Helvetica,sans-Serif" font-size="10.00" fill="grey"> o</text>
</g>
<!-- Node5 -->
<g id="Node000005" class="node">
<title>Node5</title>
<g id="a_Node000005"><a xlink:title=" ">
<polygon fill="white" stroke="#666666" points="810.5,-349 778.5,-349 778.5,-330 810.5,-330 810.5,-349"/>
<text text-anchor="middle" x="794.5" y="-337" font-family="Helvetica,sans-Serif" font-size="10.00">f32</text>
</a>
</g>
</g>
<!-- Node5&#45;&gt;Node4 -->
<g id="edge4_Node000004_Node000005" class="edge">
<title>Node5&#45;&gt;Node4</title>
<g id="a_edge4_Node000004_Node000005"><a xlink:title=" ">
<path fill="none" stroke="#9a32cd" stroke-dasharray="5,2" d="M769.19,-328.5C761.81,-324.42 754.42,-318.99 749.5,-312 718,-267.23 766.28,-228.61 726.5,-191 701.62,-167.48 598.1,-164.43 550.56,-164.3"/>
<polygon fill="#9a32cd" stroke="#9a32cd" points="767.82,-331.72 778.34,-332.95 770.88,-325.43 767.82,-331.72"/>
</a>
</g>
<text text-anchor="middle" x="784" y="-287.5" font-family="Helvetica,sans-Serif" font-size="10.00" fill="grey"> offset</text>
<text text-anchor="middle" x="784" y="-276.5" font-family="Helvetica,sans-Serif" font-size="10.00" fill="grey">origin_pos</text>
<text text-anchor="middle" x="784" y="-265.5" font-family="Helvetica,sans-Serif" font-size="10.00" fill="grey">pos</text>
<text text-anchor="middle" x="784" y="-254.5" font-family="Helvetica,sans-Serif" font-size="10.00" fill="grey">sizeScaling</text>
<text text-anchor="middle" x="784" y="-243.5" font-family="Helvetica,sans-Serif" font-size="10.00" fill="grey">surfaceHeight</text>
<text text-anchor="middle" x="784" y="-232.5" font-family="Helvetica,sans-Serif" font-size="10.00" fill="grey">unk_01C</text>
<text text-anchor="middle" x="784" y="-221.5" font-family="Helvetica,sans-Serif" font-size="10.00" fill="grey">unk_034</text>
<text text-anchor="middle" x="784" y="-210.5" font-family="Helvetica,sans-Serif" font-size="10.00" fill="grey">velocity</text>
</g>
<!-- Node6 -->
<g id="Node000006" class="node">
<title>Node6</title>
<g id="a_Node000006"><a xlink:title=" ">
<polygon fill="white" stroke="#666666" points="888.5,-349 854.5,-349 854.5,-330 888.5,-330 888.5,-349"/>
<text text-anchor="middle" x="871.5" y="-337" font-family="Helvetica,sans-Serif" font-size="10.00">s32</text>
</a>
</g>
</g>
<!-- Node6&#45;&gt;Node2 -->
<g id="edge21_Node000002_Node000006" class="edge">
<title>Node6&#45;&gt;Node2</title>
<g id="a_edge21_Node000002_Node000006"><a xlink:title=" ">
<path fill="none" stroke="#9a32cd" stroke-dasharray="5,2" d="M881.71,-320.4C882.86,-317.65 883.85,-314.8 884.5,-312 905.5,-221.52 909.42,-192.48 884.5,-103 882.71,-96.58 878.9,-90.16 875.45,-85.25"/>
<polygon fill="#9a32cd" stroke="#9a32cd" points="878.47,-319.05 877.16,-329.57 884.74,-322.16 878.47,-319.05"/>
</a>
</g>
<text text-anchor="middle" x="933.5" y="-161" font-family="Helvetica,sans-Serif" font-size="10.00" fill="grey"> _objectIndex</text>
</g>
<!-- Node6&#45;&gt;Node4 -->
<g id="edge5_Node000004_Node000006" class="edge">
<title>Node6&#45;&gt;Node4</title>
<g id="a_edge5_Node000004_Node000006"><a xlink:title=" ">
<path fill="none" stroke="#9a32cd" stroke-dasharray="5,2" d="M850.54,-323.29C847.07,-319.93 843.85,-316.12 841.5,-312 814.42,-264.43 859.04,-227.78 818.5,-191 798.85,-173.17 617.51,-166.81 550.9,-165.06"/>
<polygon fill="#9a32cd" stroke="#9a32cd" points="848.41,-326.07 858.28,-329.91 852.96,-320.75 848.41,-326.07"/>
</a>
</g>
<text text-anchor="middle" x="863" y="-276.5" font-family="Helvetica,sans-Serif" font-size="10.00" fill="grey"> status</text>
<text text-anchor="middle" x="863" y="-265.5" font-family="Helvetica,sans-Serif" font-size="10.00" fill="grey">timer</text>
<text text-anchor="middle" x="863" y="-254.5" font-family="Helvetica,sans-Serif" font-size="10.00" fill="grey">unk_048</text>
<text text-anchor="middle" x="863" y="-243.5" font-family="Helvetica,sans-Serif" font-size="10.00" fill="grey">unk_04C</text>
<text text-anchor="middle" x="863" y="-232.5" font-family="Helvetica,sans-Serif" font-size="10.00" fill="grey">unk_058</text>
<text text-anchor="middle" x="863" y="-221.5" font-family="Helvetica,sans-Serif" font-size="10.00" fill="grey">unk_05C</text>
</g>
<!-- Node7 -->
<g id="Node000007" class="node">
<title>Node7</title>
<g id="a_Node000007"><a xlink:title=" ">
<polygon fill="white" stroke="#666666" points="75,-349 0,-349 0,-330 75,-330 75,-349"/>
<text text-anchor="middle" x="37.5" y="-337" font-family="Helvetica,sans-Serif" font-size="10.00">const char *</text>
</a>
</g>
</g>
<!-- Node7&#45;&gt;Node2 -->
<g id="edge19_Node000002_Node000007" class="edge">
<title>Node7&#45;&gt;Node2</title>
<g id="a_edge19_Node000002_Node000007"><a xlink:title=" ">
<path fill="none" stroke="#9a32cd" stroke-dasharray="5,2" d="M30.29,-320.45C19.37,-289.81 3.05,-227.41 34.5,-191 88.66,-128.3 701.18,-86.84 840.45,-78.19"/>
<polygon fill="#9a32cd" stroke="#9a32cd" points="27.04,-321.74 33.84,-329.87 33.59,-319.28 27.04,-321.74"/>
</a>
</g>
<text text-anchor="middle" x="143" y="-161" font-family="Helvetica,sans-Serif" font-size="10.00" fill="grey"> Name</text>
</g>
<!-- Node7&#45;&gt;Node4 -->
<g id="edge6_Node000004_Node000007" class="edge">
<title>Node7&#45;&gt;Node4</title>
<g id="a_edge6_Node000004_Node000007"><a xlink:title=" ">
<path fill="none" stroke="#9a32cd" stroke-dasharray="5,2" d="M36.67,-319.76C35.53,-284.04 35.38,-208.2 53.5,-191 69.92,-175.41 408.2,-167.03 502.36,-164.99"/>
<polygon fill="#9a32cd" stroke="#9a32cd" points="33.18,-319.97 37.05,-329.83 40.17,-319.7 33.18,-319.97"/>
</a>
</g>
<text text-anchor="middle" x="87" y="-254.5" font-family="Helvetica,sans-Serif" font-size="10.00" fill="grey"> activeTLUT</text>
<text text-anchor="middle" x="87" y="-243.5" font-family="Helvetica,sans-Serif" font-size="10.00" fill="grey">activeTexture</text>
</g>
<!-- Node8 -->
<g id="Node000008" class="node">
<title>Node8</title>
<g id="a_Node000008"><a xlink:title=" ">
<polygon fill="white" stroke="#666666" points="158,-349 129,-349 129,-330 158,-330 158,-349"/>
<text text-anchor="middle" x="143.5" y="-337" font-family="Helvetica,sans-Serif" font-size="10.00">u8</text>
</a>
</g>
</g>
<!-- Node8&#45;&gt;Node4 -->
<g id="edge7_Node000004_Node000008" class="edge">
<title>Node8&#45;&gt;Node4</title>
<g id="a_edge7_Node000004_Node000008"><a xlink:title=" ">
<path fill="none" stroke="#9a32cd" stroke-dasharray="5,2" d="M136.67,-320.16C126.43,-289.09 111.56,-226.06 144.5,-191 168.99,-164.93 422.36,-163.96 502.41,-164.32"/>
<polygon fill="#9a32cd" stroke="#9a32cd" points="133.41,-321.44 140.02,-329.72 140.02,-319.13 133.41,-321.44"/>
</a>
</g>
<text text-anchor="middle" x="180" y="-304" font-family="Helvetica,sans-Serif" font-size="10.00" fill="grey"> textureHeight</text>
<text text-anchor="middle" x="180" y="-293" font-family="Helvetica,sans-Serif" font-size="10.00" fill="grey">textureWidth</text>
<text text-anchor="middle" x="180" y="-282" font-family="Helvetica,sans-Serif" font-size="10.00" fill="grey">tlutList</text>
<text text-anchor="middle" x="180" y="-271" font-family="Helvetica,sans-Serif" font-size="10.00" fill="grey">unk_0D5</text>
<text text-anchor="middle" x="180" y="-260" font-family="Helvetica,sans-Serif" font-size="10.00" fill="grey">unk_0D6</text>
<text text-anchor="middle" x="180" y="-249" font-family="Helvetica,sans-Serif" font-size="10.00" fill="grey">unk_0D7</text>
<text text-anchor="middle" x="180" y="-238" font-family="Helvetica,sans-Serif" font-size="10.00" fill="grey">unk_0D8</text>
<text text-anchor="middle" x="180" y="-227" font-family="Helvetica,sans-Serif" font-size="10.00" fill="grey">unk_0DB</text>
<text text-anchor="middle" x="180" y="-216" font-family="Helvetica,sans-Serif" font-size="10.00" fill="grey">unk_0DC</text>
<text text-anchor="middle" x="180" y="-205" font-family="Helvetica,sans-Serif" font-size="10.00" fill="grey">unk_0DD</text>
<text text-anchor="middle" x="180" y="-194" font-family="Helvetica,sans-Serif" font-size="10.00" fill="grey">...</text>
</g>
<!-- Node9 -->
<g id="Node000009" class="node">
<title>Node9</title>
<g id="a_Node000009"><a xlink:title=" ">
<polygon fill="white" stroke="#666666" points="277.5,-349 197.5,-349 197.5,-330 277.5,-330 277.5,-349"/>
<text text-anchor="middle" x="237.5" y="-337" font-family="Helvetica,sans-Serif" font-size="10.00">const char **</text>
</a>
</g>
</g>
<!-- Node9&#45;&gt;Node4 -->
<g id="edge8_Node000004_Node000009" class="edge">
<title>Node9&#45;&gt;Node4</title>
<g id="a_edge8_Node000004_Node000009"><a xlink:title=" ">
<path fill="none" stroke="#9a32cd" stroke-dasharray="5,2" d="M230.91,-320.22C221.04,-289.23 206.84,-226.33 239.5,-191 257.21,-171.85 436.45,-166.31 502.35,-164.92"/>
<polygon fill="#9a32cd" stroke="#9a32cd" points="227.61,-321.4 234.13,-329.75 234.24,-319.16 227.61,-321.4"/>
</a>
</g>
<text text-anchor="middle" x="267.5" y="-249" font-family="Helvetica,sans-Serif" font-size="10.00" fill="grey"> textureList</text>
</g>
<!-- Node10 -->
<g id="Node000010" class="node">
<title>Node10</title>
<g id="a_Node000010"><a xlink:title=" ">
<polygon fill="white" stroke="#666666" points="333.5,-349 299.5,-349 299.5,-330 333.5,-330 333.5,-349"/>
<text text-anchor="middle" x="316.5" y="-337" font-family="Helvetica,sans-Serif" font-size="10.00">Gfx</text>
</a>
</g>
</g>
<!-- Node10&#45;&gt;Node4 -->
<g id="edge9_Node000004_Node000010" class="edge">
<title>Node10&#45;&gt;Node4</title>
<g id="a_edge9_Node000004_Node000010"><a xlink:title=" ">
<path fill="none" stroke="#9a32cd" stroke-dasharray="5,2" d="M310.07,-319.91C300.65,-288.93 287.49,-226.64 319.5,-191 343.35,-164.45 453.07,-163.07 502.38,-163.84"/>
<polygon fill="#9a32cd" stroke="#9a32cd" points="306.86,-321.37 313.27,-329.8 313.52,-319.21 306.86,-321.37"/>
</a>
</g>
<text text-anchor="middle" x="336.5" y="-249" font-family="Helvetica,sans-Serif" font-size="10.00" fill="grey"> model</text>
</g>
<!-- Node11 -->
<g id="Node000011" class="node">
<title>Node11</title>
<g id="a_Node000011"><a xlink:title=" ">
<polygon fill="white" stroke="#666666" points="390,-349 357,-349 357,-330 390,-330 390,-349"/>
<text text-anchor="middle" x="373.5" y="-337" font-family="Helvetica,sans-Serif" font-size="10.00">Vtx</text>
</a>
</g>
</g>
<!-- Node11&#45;&gt;Node4 -->
<g id="edge10_Node000004_Node000011" class="edge">
<title>Node11&#45;&gt;Node4</title>
<g id="a_edge10_Node000004_Node000011"><a xlink:title=" ">
<path fill="none" stroke="#9a32cd" stroke-dasharray="5,2" d="M367.25,-320.07C358.11,-289.34 345.34,-227.39 376.5,-191 392.45,-172.37 464.05,-166.82 502.27,-165.18"/>
<polygon fill="#9a32cd" stroke="#9a32cd" points="364,-321.41 370.37,-329.88 370.68,-319.29 364,-321.41"/>
</a>
</g>
<text text-anchor="middle" x="394" y="-249" font-family="Helvetica,sans-Serif" font-size="10.00" fill="grey"> vertex</text>
</g>
<!-- Node12 -->
<g id="Node000012" class="node">
<title>Node12</title>
<g id="a_Node000012"><a xlink:title=" ">
<polygon fill="white" stroke="#666666" points="446,-349 417,-349 417,-330 446,-330 446,-349"/>
<text text-anchor="middle" x="431.5" y="-337" font-family="Helvetica,sans-Serif" font-size="10.00">s8</text>
</a>
</g>
</g>
<!-- Node12&#45;&gt;Node4 -->
<g id="edge11_Node000004_Node000012" class="edge">
<title>Node12&#45;&gt;Node4</title>
<g id="a_edge11_Node000004_Node000012"><a xlink:title=" ">
<path fill="none" stroke="#9a32cd" stroke-dasharray="5,2" d="M425.23,-320.01C416.2,-289.67 403.6,-228.91 432.5,-191 448.64,-169.83 480.34,-164.66 502.44,-163.83"/>
<polygon fill="#9a32cd" stroke="#9a32cd" points="421.94,-321.24 428.31,-329.71 428.62,-319.12 421.94,-321.24"/>
</a>
</g>
<text text-anchor="middle" x="472.5" y="-304" font-family="Helvetica,sans-Serif" font-size="10.00" fill="grey"> isTimerActive</text>
<text text-anchor="middle" x="472.5" y="-293" font-family="Helvetica,sans-Serif" font-size="10.00" fill="grey">textureListIndex</text>
<text text-anchor="middle" x="472.5" y="-282" font-family="Helvetica,sans-Serif" font-size="10.00" fill="grey">unk_078</text>
<text text-anchor="middle" x="472.5" y="-271" font-family="Helvetica,sans-Serif" font-size="10.00" fill="grey">unk_0CA</text>
<text text-anchor="middle" x="472.5" y="-260" font-family="Helvetica,sans-Serif" font-size="10.00" fill="grey">unk_0CC</text>
<text text-anchor="middle" x="472.5" y="-249" font-family="Helvetica,sans-Serif" font-size="10.00" fill="grey">unk_0CD</text>
<text text-anchor="middle" x="472.5" y="-238" font-family="Helvetica,sans-Serif" font-size="10.00" fill="grey">unk_0CE</text>
<text text-anchor="middle" x="472.5" y="-227" font-family="Helvetica,sans-Serif" font-size="10.00" fill="grey">unk_0CF</text>
<text text-anchor="middle" x="472.5" y="-216" font-family="Helvetica,sans-Serif" font-size="10.00" fill="grey">unk_0D0</text>
<text text-anchor="middle" x="472.5" y="-205" font-family="Helvetica,sans-Serif" font-size="10.00" fill="grey">unk_0D1</text>
<text text-anchor="middle" x="472.5" y="-194" font-family="Helvetica,sans-Serif" font-size="10.00" fill="grey">...</text>
</g>
<!-- Node13 -->
<g id="Node000013" class="node">
<title>Node13</title>
<g id="a_Node000013"><a xlink:href="structSplineControlPoint.html" target="_top" xlink:title=" ">
<polygon fill="white" stroke="#666666" points="633,-525 526,-525 526,-506 633,-506 633,-525"/>
<text text-anchor="middle" x="579.5" y="-513" font-family="Helvetica,sans-Serif" font-size="10.00">SplineControlPoint</text>
</a>
</g>
</g>
<!-- Node13&#45;&gt;Node4 -->
<g id="edge12_Node000004_Node000013" class="edge">
<title>Node13&#45;&gt;Node4</title>
<g id="a_edge12_Node000004_Node000013"><a xlink:title=" ">
<path fill="none" stroke="#9a32cd" stroke-dasharray="5,2" d="M576.61,-495.69C576.23,-493.11 575.85,-490.49 575.5,-488 570.91,-455.05 546.06,-223.15 537.5,-191 535.86,-184.84 533.11,-178.21 530.77,-173.13"/>
<polygon fill="#9a32cd" stroke="#9a32cd" points="573.16,-496.31 578.12,-505.67 580.08,-495.26 573.16,-496.31"/>
</a>
</g>
<text text-anchor="middle" x="593" y="-337" font-family="Helvetica,sans-Serif" font-size="10.00" fill="grey"> controlPoints</text>
</g>
<!-- Node15 -->
<g id="Node000015" class="node">
<title>Node15</title>
<g id="a_Node000015"><a xlink:href="structSplineData.html" target="_top" xlink:title=" ">
<polygon fill="white" stroke="#666666" points="706.5,-349 636.5,-349 636.5,-330 706.5,-330 706.5,-349"/>
<text text-anchor="middle" x="671.5" y="-337" font-family="Helvetica,sans-Serif" font-size="10.00">SplineData</text>
</a>
</g>
</g>
<!-- Node13&#45;&gt;Node15 -->
<g id="edge16_Node000015_Node000013" class="edge">
<title>Node13&#45;&gt;Node15</title>
<g id="a_edge16_Node000015_Node000013"><a xlink:title=" ">
<path fill="none" stroke="#9a32cd" stroke-dasharray="5,2" d="M578.97,-495.23C578.38,-459.85 579.13,-386.39 594.5,-367 600.03,-360.02 618.77,-353.49 636.38,-348.66"/>
<polygon fill="#9a32cd" stroke="#9a32cd" points="575.48,-495.71 579.2,-505.63 582.48,-495.56 575.48,-495.71"/>
</a>
</g>
<text text-anchor="middle" x="628" y="-425" font-family="Helvetica,sans-Serif" font-size="10.00" fill="grey"> controlPoints</text>
</g>
<!-- Node14 -->
<g id="Node000014" class="node">
<title>Node14</title>
<g id="a_Node000014"><a xlink:title=" ">
<polygon fill="white" stroke="#666666" points="596.5,-602 562.5,-602 562.5,-583 596.5,-583 596.5,-602"/>
<text text-anchor="middle" x="579.5" y="-590" font-family="Helvetica,sans-Serif" font-size="10.00">s16</text>
</a>
</g>
</g>
<!-- Node14&#45;&gt;Node4 -->
<g id="edge17_Node000004_Node000014" class="edge">
<title>Node14&#45;&gt;Node4</title>
<g id="a_edge17_Node000004_Node000014"><a xlink:title=" ">
<path fill="none" stroke="#9a32cd" stroke-dasharray="5,2" d="M561.01,-576.13C547.04,-563.64 528.31,-544.89 516.5,-525 507.67,-510.14 507.2,-505.08 504.5,-488 496.1,-434.88 500.62,-420.64 504.5,-367 506.28,-342.36 509.55,-336.53 512.5,-312 518.82,-259.39 524.03,-195.94 525.83,-173.16"/>
<polygon fill="#9a32cd" stroke="#9a32cd" points="558.75,-578.81 568.6,-582.73 563.34,-573.53 558.75,-578.81"/>
</a>
</g>
<text text-anchor="middle" x="531.5" y="-480" font-family="Helvetica,sans-Serif" font-size="10.00" fill="grey"> primAlpha</text>
<text text-anchor="middle" x="531.5" y="-469" font-family="Helvetica,sans-Serif" font-size="10.00" fill="grey">state</text>
<text text-anchor="middle" x="531.5" y="-458" font-family="Helvetica,sans-Serif" font-size="10.00" fill="grey">type</text>
<text text-anchor="middle" x="531.5" y="-447" font-family="Helvetica,sans-Serif" font-size="10.00" fill="grey">unk_084</text>
<text text-anchor="middle" x="531.5" y="-436" font-family="Helvetica,sans-Serif" font-size="10.00" fill="grey">unk_09C</text>
<text text-anchor="middle" x="531.5" y="-425" font-family="Helvetica,sans-Serif" font-size="10.00" fill="grey">unk_09E</text>
<text text-anchor="middle" x="531.5" y="-414" font-family="Helvetica,sans-Serif" font-size="10.00" fill="grey">unk_0A2</text>
<text text-anchor="middle" x="531.5" y="-403" font-family="Helvetica,sans-Serif" font-size="10.00" fill="grey">unk_0A8</text>
<text text-anchor="middle" x="531.5" y="-392" font-family="Helvetica,sans-Serif" font-size="10.00" fill="grey">unk_0AA</text>
<text text-anchor="middle" x="531.5" y="-381" font-family="Helvetica,sans-Serif" font-size="10.00" fill="grey">unk_0AC</text>
<text text-anchor="middle" x="531.5" y="-370" font-family="Helvetica,sans-Serif" font-size="10.00" fill="grey">...</text>
</g>
<!-- Node14&#45;&gt;Node13 -->
<g id="edge13_Node000013_Node000014" class="edge">
<title>Node14&#45;&gt;Node13</title>
<g id="a_edge13_Node000013_Node000014"><a xlink:title=" ">
<path fill="none" stroke="#9a32cd" stroke-dasharray="5,2" d="M579.5,-572.52C579.5,-557.24 579.5,-536.48 579.5,-525"/>
<polygon fill="#9a32cd" stroke="#9a32cd" points="576,-572.9 579.5,-582.9 583,-572.9 576,-572.9"/>
</a>
</g>
<text text-anchor="middle" x="599.5" y="-557" font-family="Helvetica,sans-Serif" font-size="10.00" fill="grey"> pos</text>
<text text-anchor="middle" x="599.5" y="-546" font-family="Helvetica,sans-Serif" font-size="10.00" fill="grey">velocity</text>
</g>
<!-- Node14&#45;&gt;Node15 -->
<g id="edge15_Node000015_Node000014" class="edge">
<title>Node14&#45;&gt;Node15</title>
<g id="a_edge15_Node000015_Node000014"><a xlink:title=" ">
<path fill="none" stroke="#9a32cd" stroke-dasharray="5,2" d="M605.69,-579.06C612.06,-575.18 618.47,-570.47 623.5,-565 649.33,-536.91 651.58,-524.85 661.5,-488 675.32,-436.7 673.33,-371.92 672.06,-349"/>
<polygon fill="#9a32cd" stroke="#9a32cd" points="603.61,-576.21 596.56,-584.12 607,-582.33 603.61,-576.21"/>
</a>
</g>
<text text-anchor="middle" x="702" y="-513" font-family="Helvetica,sans-Serif" font-size="10.00" fill="grey"> numControlPoints</text>
</g>
<!-- Node15&#45;&gt;Node4 -->
<g id="edge14_Node000004_Node000015" class="edge">
<title>Node15&#45;&gt;Node4</title>
<g id="a_edge14_Node000004_Node000015"><a xlink:title=" ">
<path fill="none" stroke="#9a32cd" stroke-dasharray="5,2" d="M626.51,-329.1C608.85,-324.52 591.39,-318.58 585.5,-312 549,-271.2 591.67,-237.32 562.5,-191 557.79,-183.51 550.13,-177.44 543.09,-173.01"/>
<polygon fill="#9a32cd" stroke="#9a32cd" points="625.73,-332.51 636.28,-331.5 627.4,-325.71 625.73,-332.51"/>
</a>
</g>
<text text-anchor="middle" x="602" y="-249" font-family="Helvetica,sans-Serif" font-size="10.00" fill="grey"> spline</text>
</g>
<!-- Node16 -->
<g id="Node000016" class="node">
<title>Node16</title>
<g id="a_Node000016"><a xlink:title=" ">
<polygon fill="white" stroke="#666666" points="760,-349 725,-349 725,-330 760,-330 760,-349"/>
<text text-anchor="middle" x="742.5" y="-337" font-family="Helvetica,sans-Serif" font-size="10.00">u16</text>
</a>
</g>
</g>
<!-- Node16&#45;&gt;Node4 -->
<g id="edge18_Node000004_Node000016" class="edge">
<title>Node16&#45;&gt;Node4</title>
<g id="a_edge18_Node000004_Node000016"><a xlink:title=" ">
<path fill="none" stroke="#9a32cd" stroke-dasharray="5,2" d="M714.98,-330.36C679.89,-323.21 662.91,-334.52 641.5,-312 603.79,-272.32 655.37,-231.46 618.5,-191 601.37,-172.2 571.85,-166.41 550.88,-164.79"/>
<polygon fill="#9a32cd" stroke="#9a32cd" points="714.29,-333.79 724.83,-332.75 715.94,-326.99 714.29,-333.79"/>
</a>
</g>
<text text-anchor="middle" x="684" y="-287.5" font-family="Helvetica,sans-Serif" font-size="10.00" fill="grey"> animationTimer</text>
<text text-anchor="middle" x="684" y="-276.5" font-family="Helvetica,sans-Serif" font-size="10.00" fill="grey">boundingBoxSize</text>
<text text-anchor="middle" x="684" y="-265.5" font-family="Helvetica,sans-Serif" font-size="10.00" fill="grey">direction_angle</text>
<text text-anchor="middle" x="684" y="-254.5" font-family="Helvetica,sans-Serif" font-size="10.00" fill="grey">orientation</text>
<text text-anchor="middle" x="684" y="-243.5" font-family="Helvetica,sans-Serif" font-size="10.00" fill="grey">unk_09A</text>
<text text-anchor="middle" x="684" y="-232.5" font-family="Helvetica,sans-Serif" font-size="10.00" fill="grey">unk_0B8</text>
<text text-anchor="middle" x="684" y="-221.5" font-family="Helvetica,sans-Serif" font-size="10.00" fill="grey">unk_0C4</text>
<text text-anchor="middle" x="684" y="-210.5" font-family="Helvetica,sans-Serif" font-size="10.00" fill="grey">unk_0C6</text>
</g>
<!-- Node17 -->
<g id="Node000017" class="node">
<title>Node17</title>
<g id="a_Node000017"><a xlink:title=" ">
<polygon fill="white" stroke="#666666" points="1036.5,-173 998.5,-173 998.5,-154 1036.5,-154 1036.5,-173"/>
<text text-anchor="middle" x="1017.5" y="-161" font-family="Helvetica,sans-Serif" font-size="10.00">bool</text>
</a>
</g>
</g>
<!-- Node17&#45;&gt;Node1 -->
<g id="edge24_Node000001_Node000017" class="edge">
<title>Node17&#45;&gt;Node1</title>
<g id="a_edge24_Node000001_Node000017"><a xlink:title=" ">
<path fill="none" stroke="#9a32cd" stroke-dasharray="5,2" d="M1019.48,-143.73C1022.97,-110.56 1030.1,-42.83 1032.6,-19.01"/>
<polygon fill="#9a32cd" stroke="#9a32cd" points="1015.97,-143.58 1018.41,-153.89 1022.93,-144.31 1015.97,-143.58"/>
</a>
</g>
<text text-anchor="middle" x="1048" y="-73" font-family="Helvetica,sans-Serif" font-size="10.00" fill="grey"> _visible</text>
</g>
<!-- Node17&#45;&gt;Node2 -->
<g id="edge20_Node000002_Node000017" class="edge">
<title>Node17&#45;&gt;Node2</title>
<g id="a_edge20_Node000002_Node000017"><a xlink:title=" ">
<path fill="none" stroke="#9a32cd" stroke-dasharray="5,2" d="M988.12,-158.26C970.66,-154.61 948.82,-147.95 932.5,-136 918.08,-125.44 922.36,-115.42 909.5,-103 902.18,-95.93 892.72,-89.67 884.73,-85.01"/>
<polygon fill="#9a32cd" stroke="#9a32cd" points="987.86,-161.77 998.33,-160.17 989.14,-154.89 987.86,-161.77"/>
</a>
</g>
<text text-anchor="middle" x="976" y="-117" font-family="Helvetica,sans-Serif" font-size="10.00" fill="grey"> bPendingDestroy</text>
</g>
<!-- Node18 -->
<g id="Node000018" class="node">
<title>Node18</title>
<g id="a_Node000018"><a xlink:href="structFVector.html" target="_top" xlink:title=" ">
<polygon fill="white" stroke="#666666" points="1146,-85 1093,-85 1093,-66 1146,-66 1146,-85"/>
<text text-anchor="middle" x="1119.5" y="-73" font-family="Helvetica,sans-Serif" font-size="10.00">FVector</text>
</a>
</g>
</g>
<!-- Node18&#45;&gt;Node1 -->
<g id="edge22_Node000001_Node000018" class="edge">
<title>Node18&#45;&gt;Node1</title>
<g id="a_edge22_Node000001_Node000018"><a xlink:title=" ">
<path fill="none" stroke="#9a32cd" stroke-dasharray="5,2" d="M1099.79,-59.83C1082.93,-47.28 1059.21,-29.63 1045.19,-19.2"/>
<polygon fill="#9a32cd" stroke="#9a32cd" points="1097.79,-62.71 1107.9,-65.87 1101.97,-57.09 1097.79,-62.71"/>
</a>
</g>
<text text-anchor="middle" x="1094.5" y="-40" font-family="Helvetica,sans-Serif" font-size="10.00" fill="grey"> _pos</text>
</g>
<!-- Node19 -->
<g id="Node000019" class="node">
<title>Node19</title>
<g id="a_Node000019"><a xlink:title=" ">
<polygon fill="white" stroke="#666666" points="1138.5,-173 1100.5,-173 1100.5,-154 1138.5,-154 1138.5,-173"/>
<text text-anchor="middle" x="1119.5" y="-161" font-family="Helvetica,sans-Serif" font-size="10.00">float</text>
</a>
</g>
</g>
<!-- Node19&#45;&gt;Node18 -->
<g id="edge23_Node000018_Node000019" class="edge">
<title>Node19&#45;&gt;Node18</title>
<g id="a_edge23_Node000018_Node000019"><a xlink:title=" ">
<path fill="none" stroke="#9a32cd" stroke-dasharray="5,2" d="M1119.5,-143.91C1119.5,-125.67 1119.5,-98.65 1119.5,-85.03"/>
<polygon fill="#9a32cd" stroke="#9a32cd" points="1116,-143.94 1119.5,-153.94 1123,-143.94 1116,-143.94"/>
</a>
</g>
<text text-anchor="middle" x="1124.5" y="-128" font-family="Helvetica,sans-Serif" font-size="10.00" fill="grey"> x</text>
<text text-anchor="middle" x="1124.5" y="-117" font-family="Helvetica,sans-Serif" font-size="10.00" fill="grey">y</text>
<text text-anchor="middle" x="1124.5" y="-106" font-family="Helvetica,sans-Serif" font-size="10.00" fill="grey">z</text>
</g>
</g>
</svg>

<g id="navigator" transform="translate(0 0)" fill="#404254">
  <rect fill="#f2f5e9" fill-opacity="0.5" stroke="#606060" stroke-width=".5" x="0" y="0" width="60" height="60"/>
  <use id="zoomplus" xlink:href="#zoomPlus" x="17" y="9" onmousedown="handleZoom(evt,'in')"/>
  <use id="zoomminus" xlink:href="#zoomMin" x="42" y="9" onmousedown="handleZoom(evt,'out')"/>
  <use id="reset" xlink:href="#resetDef" x="30" y="36" onmousedown="handleReset()"/>
   <use id="arrowup" xlink:href="#arrowUp" x="0" y="0" onmousedown="handlePan(0,-1)"/>
  <use id="arrowright" xlink:href="#arrowRight" x="0" y="0" onmousedown="handlePan(1,0)"/>
  <use id="arrowdown" xlink:href="#arrowDown" x="0" y="0" onmousedown="handlePan(0,1)"/>
  <use id="arrowleft" xlink:href="#arrowLeft" x="0" y="0" onmousedown="handlePan(-1,0)"/>
</g>
<svg viewBox="0 0 15 15" width="100%" height="30px" preserveAspectRatio="xMaxYMin meet">
 <g id="arrow_out" transform="scale(0.3 0.3)">
  <a xlink:href="classOHotAirBalloon__coll__graph_org.svg" target="_base">
   <rect id="button" ry="5" rx="5" y="6" x="6" height="38" width="38"
        fill="#f2f5e9" fill-opacity="0.5" stroke="#606060" stroke-width="1.0"/>
   <path id="arrow"
     d="M 11.500037,31.436501 C 11.940474,20.09759 22.043105,11.32322 32.158766,21.979434 L 37.068811,17.246167 C 37.068811,17.246167 37.088388,32 37.088388,32 L 22.160133,31.978069 C 22.160133,31.978069 26.997745,27.140456 26.997745,27.140456 C 18.528582,18.264221 13.291696,25.230495 11.500037,31.436501 z"
     style="fill:#404040;"/>
  </a>
 </g>
</svg>

<style type='text/css'>
<![CDATA[
[data-mouse-over-selected='false'] { opacity: 0.7; }
[data-mouse-over-selected='true']  { opacity: 1.0; }
]]>
</style>
<script type="application/ecmascript"><![CDATA[
document.addEventListener('DOMContentLoaded', (event) => {
  highlightEdges();
  highlightAdjacentNodes();
});
]]></script>
</svg>
