<?xml version="1.0" encoding="UTF-8" standalone="no"?>
<!DOCTYPE svg PUBLIC "-//W3C//DTD SVG 1.1//EN"
 "http://www.w3.org/Graphics/SVG/1.1/DTD/svg11.dtd">
<!-- Generated by graphviz version 2.43.0 (0)
 -->
<!-- Title: OMoleGroup Pages: 1 -->
<svg width="1003pt" height="599pt"
 viewBox="0.00 0.00 1003.00 599.00" xmlns="http://www.w3.org/2000/svg" xmlns:xlink="http://www.w3.org/1999/xlink">
<g id="graph0" class="graph" transform="scale(1 1) rotate(0) translate(4 595)">
<title>OMoleGroup</title>
<!-- Node1 -->
<g id="Node000001" class="node">
<title>Node1</title>
<g id="a_Node000001"><a xlink:title=" ">
<polygon fill="#999999" stroke="#666666" points="279.5,-19 202.5,-19 202.5,0 279.5,0 279.5,-19"/>
<text text-anchor="middle" x="241" y="-7" font-family="Helvetica,sans-Serif" font-size="10.00">OMoleGroup</text>
</a>
</g>
</g>
<!-- Node2 -->
<g id="Node000002" class="node">
<title>Node2</title>
<g id="a_Node000002"><a xlink:href="classOObject.html" target="_top" xlink:title=" ">
<polygon fill="white" stroke="#666666" points="216,-90.5 160,-90.5 160,-71.5 216,-71.5 216,-90.5"/>
<text text-anchor="middle" x="188" y="-78.5" font-family="Helvetica,sans-Serif" font-size="10.00">OObject</text>
</a>
</g>
</g>
<!-- Node2&#45;&gt;Node1 -->
<g id="edge1_Node000001_Node000002" class="edge">
<title>Node2&#45;&gt;Node1</title>
<g id="a_edge1_Node000001_Node000002"><a xlink:title=" ">
<path fill="none" stroke="#63b8ff" d="M200.78,-63.24C211.4,-49.31 226.08,-30.07 234.45,-19.09"/>
<polygon fill="#63b8ff" stroke="#63b8ff" points="197.78,-61.4 194.5,-71.48 203.35,-65.65 197.78,-61.4"/>
</a>
</g>
</g>
<!-- Node3 -->
<g id="Node000003" class="node">
<title>Node3</title>
<g id="a_Node000003"><a xlink:title=" ">
<polygon fill="white" stroke="#666666" points="50,-162 0,-162 0,-143 50,-143 50,-162"/>
<text text-anchor="middle" x="25" y="-150" font-family="Helvetica,sans-Serif" font-size="10.00">uint8_t</text>
</a>
</g>
</g>
<!-- Node3&#45;&gt;Node2 -->
<g id="edge2_Node000002_Node000003" class="edge">
<title>Node3&#45;&gt;Node2</title>
<g id="a_edge2_Node000002_Node000003"><a xlink:title=" ">
<path fill="none" stroke="#9a32cd" stroke-dasharray="5,2" d="M31.88,-133.38C35.4,-126.36 40.37,-118.85 47,-114 80.43,-89.54 129.34,-83.32 159.89,-81.98"/>
<polygon fill="#9a32cd" stroke="#9a32cd" points="28.49,-132.4 27.73,-142.97 34.91,-135.18 28.49,-132.4"/>
</a>
</g>
<text text-anchor="middle" x="59.5" y="-117" font-family="Helvetica,sans-Serif" font-size="10.00" fill="grey"> uuid</text>
</g>
<!-- Node4 -->
<g id="Node000004" class="node">
<title>Node4</title>
<g id="a_Node000004"><a xlink:href="structObject.html" target="_top" xlink:title=" ">
<polygon fill="white" stroke="#666666" points="500,-162 452,-162 452,-143 500,-143 500,-162"/>
<text text-anchor="middle" x="476" y="-150" font-family="Helvetica,sans-Serif" font-size="10.00">Object</text>
</a>
</g>
</g>
<!-- Node4&#45;&gt;Node2 -->
<g id="edge3_Node000002_Node000004" class="edge">
<title>Node4&#45;&gt;Node2</title>
<g id="a_edge3_Node000002_Node000004"><a xlink:title=" ">
<path fill="none" stroke="#9a32cd" stroke-dasharray="5,2" d="M441.83,-145.56C393.16,-136.74 301.3,-118.74 225,-96 219.73,-94.43 214.15,-92.47 208.95,-90.53"/>
<polygon fill="#9a32cd" stroke="#9a32cd" points="441.37,-149.03 451.83,-147.35 442.6,-142.14 441.37,-149.03"/>
</a>
</g>
<text text-anchor="middle" x="339" y="-117" font-family="Helvetica,sans-Serif" font-size="10.00" fill="grey"> o</text>
</g>
<!-- Node5 -->
<g id="Node000005" class="node">
<title>Node5</title>
<g id="a_Node000005"><a xlink:title=" ">
<polygon fill="white" stroke="#666666" points="748,-338 716,-338 716,-319 748,-319 748,-338"/>
<text text-anchor="middle" x="732" y="-326" font-family="Helvetica,sans-Serif" font-size="10.00">f32</text>
</a>
</g>
</g>
<!-- Node5&#45;&gt;Node4 -->
<g id="edge4_Node000004_Node000005" class="edge">
<title>Node5&#45;&gt;Node4</title>
<g id="a_edge4_Node000004_Node000005"><a xlink:title=" ">
<path fill="none" stroke="#9a32cd" stroke-dasharray="5,2" d="M706.56,-316.07C700.28,-312.13 694.17,-307.13 690,-301 659.19,-255.76 707.12,-217.24 667,-180 641.1,-155.96 543.75,-168.42 509,-162 506.09,-161.46 503.06,-160.81 500.06,-160.11"/>
<polygon fill="#9a32cd" stroke="#9a32cd" points="705.21,-319.33 715.66,-321.09 708.59,-313.2 705.21,-319.33"/>
</a>
</g>
<text text-anchor="middle" x="724.5" y="-276.5" font-family="Helvetica,sans-Serif" font-size="10.00" fill="grey"> offset</text>
<text text-anchor="middle" x="724.5" y="-265.5" font-family="Helvetica,sans-Serif" font-size="10.00" fill="grey">origin_pos</text>
<text text-anchor="middle" x="724.5" y="-254.5" font-family="Helvetica,sans-Serif" font-size="10.00" fill="grey">pos</text>
<text text-anchor="middle" x="724.5" y="-243.5" font-family="Helvetica,sans-Serif" font-size="10.00" fill="grey">sizeScaling</text>
<text text-anchor="middle" x="724.5" y="-232.5" font-family="Helvetica,sans-Serif" font-size="10.00" fill="grey">surfaceHeight</text>
<text text-anchor="middle" x="724.5" y="-221.5" font-family="Helvetica,sans-Serif" font-size="10.00" fill="grey">unk_01C</text>
<text text-anchor="middle" x="724.5" y="-210.5" font-family="Helvetica,sans-Serif" font-size="10.00" fill="grey">unk_034</text>
<text text-anchor="middle" x="724.5" y="-199.5" font-family="Helvetica,sans-Serif" font-size="10.00" fill="grey">velocity</text>
</g>
<!-- Node6 -->
<g id="Node000006" class="node">
<title>Node6</title>
<g id="a_Node000006"><a xlink:title=" ">
<polygon fill="white" stroke="#666666" points="123,-338 89,-338 89,-319 123,-319 123,-338"/>
<text text-anchor="middle" x="106" y="-326" font-family="Helvetica,sans-Serif" font-size="10.00">s32</text>
</a>
</g>
</g>
<!-- Node6&#45;&gt;Node2 -->
<g id="edge21_Node000002_Node000006" class="edge">
<title>Node6&#45;&gt;Node2</title>
<g id="a_edge21_Node000002_Node000006"><a xlink:title=" ">
<path fill="none" stroke="#9a32cd" stroke-dasharray="5,2" d="M99.74,-309C89.14,-274.2 71.43,-197.57 100,-143 113.62,-116.98 143.95,-99.84 165.17,-90.53"/>
<polygon fill="#9a32cd" stroke="#9a32cd" points="96.48,-310.3 102.87,-318.75 103.15,-308.16 96.48,-310.3"/>
</a>
</g>
<text text-anchor="middle" x="133" y="-150" font-family="Helvetica,sans-Serif" font-size="10.00" fill="grey"> _objectIndex</text>
</g>
<!-- Node6&#45;&gt;Node4 -->
<g id="edge5_Node000004_Node000006" class="edge">
<title>Node6&#45;&gt;Node4</title>
<g id="a_edge5_Node000004_Node000006"><a xlink:title=" ">
<path fill="none" stroke="#9a32cd" stroke-dasharray="5,2" d="M105.96,-308.41C107.02,-276.18 114.31,-211.39 154,-180 177.21,-161.65 380.91,-155.54 451.8,-153.97"/>
<polygon fill="#9a32cd" stroke="#9a32cd" points="102.45,-308.64 105.8,-318.7 109.45,-308.75 102.45,-308.64"/>
</a>
</g>
<text text-anchor="middle" x="175.5" y="-265.5" font-family="Helvetica,sans-Serif" font-size="10.00" fill="grey"> status</text>
<text text-anchor="middle" x="175.5" y="-254.5" font-family="Helvetica,sans-Serif" font-size="10.00" fill="grey">timer</text>
<text text-anchor="middle" x="175.5" y="-243.5" font-family="Helvetica,sans-Serif" font-size="10.00" fill="grey">unk_048</text>
<text text-anchor="middle" x="175.5" y="-232.5" font-family="Helvetica,sans-Serif" font-size="10.00" fill="grey">unk_04C</text>
<text text-anchor="middle" x="175.5" y="-221.5" font-family="Helvetica,sans-Serif" font-size="10.00" fill="grey">unk_058</text>
<text text-anchor="middle" x="175.5" y="-210.5" font-family="Helvetica,sans-Serif" font-size="10.00" fill="grey">unk_05C</text>
</g>
<!-- Node7 -->
<g id="Node000007" class="node">
<title>Node7</title>
<g id="a_Node000007"><a xlink:title=" ">
<polygon fill="white" stroke="#666666" points="323.5,-338 248.5,-338 248.5,-319 323.5,-319 323.5,-338"/>
<text text-anchor="middle" x="286" y="-326" font-family="Helvetica,sans-Serif" font-size="10.00">const char *</text>
</a>
</g>
</g>
<!-- Node7&#45;&gt;Node2 -->
<g id="edge19_Node000002_Node000007" class="edge">
<title>Node7&#45;&gt;Node2</title>
<g id="a_edge19_Node000002_Node000007"><a xlink:title=" ">
<path fill="none" stroke="#9a32cd" stroke-dasharray="5,2" d="M238.05,-317.34C222.02,-312.93 206.96,-307.33 202,-301 175.92,-267.71 184.54,-127.47 187.3,-90.8"/>
<polygon fill="#9a32cd" stroke="#9a32cd" points="237.51,-320.81 248.07,-319.92 239.26,-314.03 237.51,-320.81"/>
</a>
</g>
<text text-anchor="middle" x="201.5" y="-150" font-family="Helvetica,sans-Serif" font-size="10.00" fill="grey"> Name</text>
</g>
<!-- Node7&#45;&gt;Node4 -->
<g id="edge6_Node000004_Node000007" class="edge">
<title>Node7&#45;&gt;Node4</title>
<g id="a_edge6_Node000004_Node000007"><a xlink:title=" ">
<path fill="none" stroke="#9a32cd" stroke-dasharray="5,2" d="M278.22,-309.41C266.36,-278.72 248.32,-216.25 280,-180 302.03,-154.79 404.22,-152.61 451.67,-153"/>
<polygon fill="#9a32cd" stroke="#9a32cd" points="275.04,-310.91 282.06,-318.85 281.53,-308.27 275.04,-310.91"/>
</a>
</g>
<text text-anchor="middle" x="313.5" y="-243.5" font-family="Helvetica,sans-Serif" font-size="10.00" fill="grey"> activeTLUT</text>
<text text-anchor="middle" x="313.5" y="-232.5" font-family="Helvetica,sans-Serif" font-size="10.00" fill="grey">activeTexture</text>
</g>
<!-- Node8 -->
<g id="Node000008" class="node">
<title>Node8</title>
<g id="a_Node000008"><a xlink:title=" ">
<polygon fill="white" stroke="#666666" points="795.5,-338 766.5,-338 766.5,-319 795.5,-319 795.5,-338"/>
<text text-anchor="middle" x="781" y="-326" font-family="Helvetica,sans-Serif" font-size="10.00">u8</text>
</a>
</g>
</g>
<!-- Node8&#45;&gt;Node4 -->
<g id="edge7_Node000004_Node000008" class="edge">
<title>Node8&#45;&gt;Node4</title>
<g id="a_edge7_Node000004_Node000008"><a xlink:title=" ">
<path fill="none" stroke="#9a32cd" stroke-dasharray="5,2" d="M781,-308.74C780.56,-272.98 777.42,-197.07 759,-180 738.57,-161.07 536.49,-166.49 509,-162 506.08,-161.52 503.04,-160.91 500.04,-160.23"/>
<polygon fill="#9a32cd" stroke="#9a32cd" points="777.5,-308.84 781.06,-318.82 784.5,-308.8 777.5,-308.84"/>
</a>
</g>
<text text-anchor="middle" x="815.5" y="-293" font-family="Helvetica,sans-Serif" font-size="10.00" fill="grey"> textureHeight</text>
<text text-anchor="middle" x="815.5" y="-282" font-family="Helvetica,sans-Serif" font-size="10.00" fill="grey">textureWidth</text>
<text text-anchor="middle" x="815.5" y="-271" font-family="Helvetica,sans-Serif" font-size="10.00" fill="grey">tlutList</text>
<text text-anchor="middle" x="815.5" y="-260" font-family="Helvetica,sans-Serif" font-size="10.00" fill="grey">unk_0D5</text>
<text text-anchor="middle" x="815.5" y="-249" font-family="Helvetica,sans-Serif" font-size="10.00" fill="grey">unk_0D6</text>
<text text-anchor="middle" x="815.5" y="-238" font-family="Helvetica,sans-Serif" font-size="10.00" fill="grey">unk_0D7</text>
<text text-anchor="middle" x="815.5" y="-227" font-family="Helvetica,sans-Serif" font-size="10.00" fill="grey">unk_0D8</text>
<text text-anchor="middle" x="815.5" y="-216" font-family="Helvetica,sans-Serif" font-size="10.00" fill="grey">unk_0DB</text>
<text text-anchor="middle" x="815.5" y="-205" font-family="Helvetica,sans-Serif" font-size="10.00" fill="grey">unk_0DC</text>
<text text-anchor="middle" x="815.5" y="-194" font-family="Helvetica,sans-Serif" font-size="10.00" fill="grey">unk_0DD</text>
<text text-anchor="middle" x="815.5" y="-183" font-family="Helvetica,sans-Serif" font-size="10.00" fill="grey">...</text>
</g>
<!-- Node9 -->
<g id="Node000009" class="node">
<title>Node9</title>
<g id="a_Node000009"><a xlink:title=" ">
<polygon fill="white" stroke="#666666" points="915,-338 835,-338 835,-319 915,-319 915,-338"/>
<text text-anchor="middle" x="875" y="-326" font-family="Helvetica,sans-Serif" font-size="10.00">const char **</text>
</a>
</g>
</g>
<!-- Node9&#45;&gt;Node4 -->
<g id="edge8_Node000004_Node000009" class="edge">
<title>Node9&#45;&gt;Node4</title>
<g id="a_edge8_Node000004_Node000009"><a xlink:title=" ">
<path fill="none" stroke="#9a32cd" stroke-dasharray="5,2" d="M875.02,-308.71C874.64,-272.89 871.59,-196.89 853,-180 824.67,-154.26 546.83,-167.8 509,-162 506.08,-161.55 503.04,-160.95 500.04,-160.28"/>
<polygon fill="#9a32cd" stroke="#9a32cd" points="871.53,-308.82 875.07,-318.8 878.53,-308.79 871.53,-308.82"/>
</a>
</g>
<text text-anchor="middle" x="902" y="-238" font-family="Helvetica,sans-Serif" font-size="10.00" fill="grey"> textureList</text>
</g>
<!-- Node10 -->
<g id="Node000010" class="node">
<title>Node10</title>
<g id="a_Node000010"><a xlink:title=" ">
<polygon fill="white" stroke="#666666" points="971,-338 937,-338 937,-319 971,-319 971,-338"/>
<text text-anchor="middle" x="954" y="-326" font-family="Helvetica,sans-Serif" font-size="10.00">Gfx</text>
</a>
</g>
</g>
<!-- Node10&#45;&gt;Node4 -->
<g id="edge9_Node000004_Node000010" class="edge">
<title>Node10&#45;&gt;Node4</title>
<g id="a_edge9_Node000004_Node000010"><a xlink:title=" ">
<path fill="none" stroke="#9a32cd" stroke-dasharray="5,2" d="M957.83,-308.66C963.09,-276.79 968.17,-212.54 932,-180 914.51,-164.27 532.27,-165.45 509,-162 506.07,-161.57 503.03,-160.98 500.03,-160.31"/>
<polygon fill="#9a32cd" stroke="#9a32cd" points="954.33,-308.35 955.96,-318.82 961.22,-309.62 954.33,-308.35"/>
</a>
</g>
<text text-anchor="middle" x="978" y="-238" font-family="Helvetica,sans-Serif" font-size="10.00" fill="grey"> model</text>
</g>
<!-- Node11 -->
<g id="Node000011" class="node">
<title>Node11</title>
<g id="a_Node000011"><a xlink:title=" ">
<polygon fill="white" stroke="#666666" points="230.5,-338 197.5,-338 197.5,-319 230.5,-319 230.5,-338"/>
<text text-anchor="middle" x="214" y="-326" font-family="Helvetica,sans-Serif" font-size="10.00">Vtx</text>
</a>
</g>
</g>
<!-- Node11&#45;&gt;Node4 -->
<g id="edge10_Node000004_Node000011" class="edge">
<title>Node11&#45;&gt;Node4</title>
<g id="a_edge10_Node000004_Node000011"><a xlink:title=" ">
<path fill="none" stroke="#9a32cd" stroke-dasharray="5,2" d="M208.38,-308.7C200.32,-277.4 189.82,-214.66 223,-180 238.65,-163.65 391.47,-156.49 451.74,-154.29"/>
<polygon fill="#9a32cd" stroke="#9a32cd" points="205.11,-309.99 211.16,-318.69 211.85,-308.12 205.11,-309.99"/>
</a>
</g>
<text text-anchor="middle" x="240.5" y="-238" font-family="Helvetica,sans-Serif" font-size="10.00" fill="grey"> vertex</text>
</g>
<!-- Node12 -->
<g id="Node000012" class="node">
<title>Node12</title>
<g id="a_Node000012"><a xlink:title=" ">
<polygon fill="white" stroke="#666666" points="383.5,-338 354.5,-338 354.5,-319 383.5,-319 383.5,-338"/>
<text text-anchor="middle" x="369" y="-326" font-family="Helvetica,sans-Serif" font-size="10.00">s8</text>
</a>
</g>
</g>
<!-- Node12&#45;&gt;Node4 -->
<g id="edge11_Node000004_Node000012" class="edge">
<title>Node12&#45;&gt;Node4</title>
<g id="a_edge11_Node000004_Node000012"><a xlink:title=" ">
<path fill="none" stroke="#9a32cd" stroke-dasharray="5,2" d="M362.6,-308.91C353.39,-278.43 340.54,-217.47 370,-180 379.97,-167.32 423.44,-159.8 451.52,-156.17"/>
<polygon fill="#9a32cd" stroke="#9a32cd" points="359.34,-310.22 365.74,-318.66 366.01,-308.07 359.34,-310.22"/>
</a>
</g>
<text text-anchor="middle" x="410" y="-293" font-family="Helvetica,sans-Serif" font-size="10.00" fill="grey"> isTimerActive</text>
<text text-anchor="middle" x="410" y="-282" font-family="Helvetica,sans-Serif" font-size="10.00" fill="grey">textureListIndex</text>
<text text-anchor="middle" x="410" y="-271" font-family="Helvetica,sans-Serif" font-size="10.00" fill="grey">unk_078</text>
<text text-anchor="middle" x="410" y="-260" font-family="Helvetica,sans-Serif" font-size="10.00" fill="grey">unk_0CA</text>
<text text-anchor="middle" x="410" y="-249" font-family="Helvetica,sans-Serif" font-size="10.00" fill="grey">unk_0CC</text>
<text text-anchor="middle" x="410" y="-238" font-family="Helvetica,sans-Serif" font-size="10.00" fill="grey">unk_0CD</text>
<text text-anchor="middle" x="410" y="-227" font-family="Helvetica,sans-Serif" font-size="10.00" fill="grey">unk_0CE</text>
<text text-anchor="middle" x="410" y="-216" font-family="Helvetica,sans-Serif" font-size="10.00" fill="grey">unk_0CF</text>
<text text-anchor="middle" x="410" y="-205" font-family="Helvetica,sans-Serif" font-size="10.00" fill="grey">unk_0D0</text>
<text text-anchor="middle" x="410" y="-194" font-family="Helvetica,sans-Serif" font-size="10.00" fill="grey">unk_0D1</text>
<text text-anchor="middle" x="410" y="-183" font-family="Helvetica,sans-Serif" font-size="10.00" fill="grey">...</text>
</g>
<!-- Node13 -->
<g id="Node000013" class="node">
<title>Node13</title>
<g id="a_Node000013"><a xlink:href="structSplineControlPoint.html" target="_top" xlink:title=" ">
<polygon fill="white" stroke="#666666" points="570.5,-514 463.5,-514 463.5,-495 570.5,-495 570.5,-514"/>
<text text-anchor="middle" x="517" y="-502" font-family="Helvetica,sans-Serif" font-size="10.00">SplineControlPoint</text>
</a>
</g>
</g>
<!-- Node13&#45;&gt;Node4 -->
<g id="edge12_Node000004_Node000013" class="edge">
<title>Node13&#45;&gt;Node4</title>
<g id="a_edge12_Node000004_Node000013"><a xlink:title=" ">
<path fill="none" stroke="#9a32cd" stroke-dasharray="5,2" d="M513.27,-484.71C512.81,-482.12 512.37,-479.5 512,-477 493.34,-352.37 479.87,-199.4 476.71,-162.03"/>
<polygon fill="#9a32cd" stroke="#9a32cd" points="509.86,-485.52 515.17,-494.7 516.74,-484.22 509.86,-485.52"/>
</a>
</g>
<text text-anchor="middle" x="526.5" y="-326" font-family="Helvetica,sans-Serif" font-size="10.00" fill="grey"> controlPoints</text>
</g>
<!-- Node15 -->
<g id="Node000015" class="node">
<title>Node15</title>
<g id="a_Node000015"><a xlink:href="structSplineData.html" target="_top" xlink:title=" ">
<polygon fill="white" stroke="#666666" points="644,-338 574,-338 574,-319 644,-319 644,-338"/>
<text text-anchor="middle" x="609" y="-326" font-family="Helvetica,sans-Serif" font-size="10.00">SplineData</text>
</a>
</g>
</g>
<!-- Node13&#45;&gt;Node15 -->
<g id="edge16_Node000015_Node000013" class="edge">
<title>Node13&#45;&gt;Node15</title>
<g id="a_edge16_Node000015_Node000013"><a xlink:title=" ">
<path fill="none" stroke="#9a32cd" stroke-dasharray="5,2" d="M516.47,-484.23C515.88,-448.85 516.63,-375.39 532,-356 537.53,-349.02 556.27,-342.49 573.88,-337.66"/>
<polygon fill="#9a32cd" stroke="#9a32cd" points="512.98,-484.71 516.7,-494.63 519.98,-484.56 512.98,-484.71"/>
</a>
</g>
<text text-anchor="middle" x="565.5" y="-414" font-family="Helvetica,sans-Serif" font-size="10.00" fill="grey"> controlPoints</text>
</g>
<!-- Node14 -->
<g id="Node000014" class="node">
<title>Node14</title>
<g id="a_Node000014"><a xlink:title=" ">
<polygon fill="white" stroke="#666666" points="534,-591 500,-591 500,-572 534,-572 534,-591"/>
<text text-anchor="middle" x="517" y="-579" font-family="Helvetica,sans-Serif" font-size="10.00">s16</text>
</a>
</g>
</g>
<!-- Node14&#45;&gt;Node4 -->
<g id="edge17_Node000004_Node000014" class="edge">
<title>Node14&#45;&gt;Node4</title>
<g id="a_edge17_Node000004_Node000014"><a xlink:title=" ">
<path fill="none" stroke="#9a32cd" stroke-dasharray="5,2" d="M497.92,-565.04C477.22,-546.68 446.07,-513.88 438,-477 426.51,-424.46 432.23,-409.47 438,-356 440.68,-331.12 445.16,-325.55 450,-301 460.36,-248.45 470.88,-184.96 474.6,-162.17"/>
<polygon fill="#9a32cd" stroke="#9a32cd" points="495.91,-567.93 505.78,-571.78 500.46,-562.61 495.91,-567.93"/>
</a>
</g>
<text text-anchor="middle" x="465" y="-469" font-family="Helvetica,sans-Serif" font-size="10.00" fill="grey"> primAlpha</text>
<text text-anchor="middle" x="465" y="-458" font-family="Helvetica,sans-Serif" font-size="10.00" fill="grey">state</text>
<text text-anchor="middle" x="465" y="-447" font-family="Helvetica,sans-Serif" font-size="10.00" fill="grey">type</text>
<text text-anchor="middle" x="465" y="-436" font-family="Helvetica,sans-Serif" font-size="10.00" fill="grey">unk_084</text>
<text text-anchor="middle" x="465" y="-425" font-family="Helvetica,sans-Serif" font-size="10.00" fill="grey">unk_09C</text>
<text text-anchor="middle" x="465" y="-414" font-family="Helvetica,sans-Serif" font-size="10.00" fill="grey">unk_09E</text>
<text text-anchor="middle" x="465" y="-403" font-family="Helvetica,sans-Serif" font-size="10.00" fill="grey">unk_0A2</text>
<text text-anchor="middle" x="465" y="-392" font-family="Helvetica,sans-Serif" font-size="10.00" fill="grey">unk_0A8</text>
<text text-anchor="middle" x="465" y="-381" font-family="Helvetica,sans-Serif" font-size="10.00" fill="grey">unk_0AA</text>
<text text-anchor="middle" x="465" y="-370" font-family="Helvetica,sans-Serif" font-size="10.00" fill="grey">unk_0AC</text>
<text text-anchor="middle" x="465" y="-359" font-family="Helvetica,sans-Serif" font-size="10.00" fill="grey">...</text>
</g>
<!-- Node14&#45;&gt;Node13 -->
<g id="edge13_Node000013_Node000014" class="edge">
<title>Node14&#45;&gt;Node13</title>
<g id="a_edge13_Node000013_Node000014"><a xlink:title=" ">
<path fill="none" stroke="#9a32cd" stroke-dasharray="5,2" d="M517,-561.52C517,-546.24 517,-525.48 517,-514"/>
<polygon fill="#9a32cd" stroke="#9a32cd" points="513.5,-561.9 517,-571.9 520.5,-561.9 513.5,-561.9"/>
</a>
</g>
<text text-anchor="middle" x="537" y="-546" font-family="Helvetica,sans-Serif" font-size="10.00" fill="grey"> pos</text>
<text text-anchor="middle" x="537" y="-535" font-family="Helvetica,sans-Serif" font-size="10.00" fill="grey">velocity</text>
</g>
<!-- Node14&#45;&gt;Node15 -->
<g id="edge15_Node000015_Node000014" class="edge">
<title>Node14&#45;&gt;Node15</title>
<g id="a_edge15_Node000015_Node000014"><a xlink:title=" ">
<path fill="none" stroke="#9a32cd" stroke-dasharray="5,2" d="M543.19,-568.06C549.56,-564.18 555.97,-559.47 561,-554 586.83,-525.91 589.08,-513.85 599,-477 612.82,-425.7 610.83,-360.92 609.56,-338"/>
<polygon fill="#9a32cd" stroke="#9a32cd" points="541.11,-565.21 534.06,-573.12 544.5,-571.33 541.11,-565.21"/>
</a>
</g>
<text text-anchor="middle" x="638.5" y="-502" font-family="Helvetica,sans-Serif" font-size="10.00" fill="grey"> numControlPoints</text>
</g>
<!-- Node15&#45;&gt;Node4 -->
<g id="edge14_Node000004_Node000015" class="edge">
<title>Node15&#45;&gt;Node4</title>
<g id="a_edge14_Node000004_Node000015"><a xlink:title=" ">
<path fill="none" stroke="#9a32cd" stroke-dasharray="5,2" d="M563.99,-317.47C547.5,-312.92 531.52,-307.18 526,-301 489.49,-260.1 527.6,-228.48 502,-180 498.39,-173.16 492.45,-166.91 487.16,-162.2"/>
<polygon fill="#9a32cd" stroke="#9a32cd" points="563.12,-320.86 573.68,-320 564.89,-314.09 563.12,-320.86"/>
</a>
</g>
<text text-anchor="middle" x="542.5" y="-238" font-family="Helvetica,sans-Serif" font-size="10.00" fill="grey"> spline</text>
</g>
<!-- Node16 -->
<g id="Node000016" class="node">
<title>Node16</title>
<g id="a_Node000016"><a xlink:title=" ">
<polygon fill="white" stroke="#666666" points="697.5,-338 662.5,-338 662.5,-319 697.5,-319 697.5,-338"/>
<text text-anchor="middle" x="680" y="-326" font-family="Helvetica,sans-Serif" font-size="10.00">u16</text>
</a>
</g>
</g>
<!-- Node16&#45;&gt;Node4 -->
<g id="edge18_Node000004_Node000016" class="edge">
<title>Node16&#45;&gt;Node4</title>
<g id="a_edge18_Node000004_Node000016"><a xlink:title=" ">
<path fill="none" stroke="#9a32cd" stroke-dasharray="5,2" d="M652.34,-319.31C618.66,-312.33 602.4,-322.67 582,-301 544.48,-261.14 595.29,-220.98 559,-180 554.96,-175.44 523.18,-166.14 500.14,-159.86"/>
<polygon fill="#9a32cd" stroke="#9a32cd" points="651.78,-322.78 662.32,-321.78 653.46,-315.98 651.78,-322.78"/>
</a>
</g>
<text text-anchor="middle" x="624.5" y="-276.5" font-family="Helvetica,sans-Serif" font-size="10.00" fill="grey"> animationTimer</text>
<text text-anchor="middle" x="624.5" y="-265.5" font-family="Helvetica,sans-Serif" font-size="10.00" fill="grey">boundingBoxSize</text>
<text text-anchor="middle" x="624.5" y="-254.5" font-family="Helvetica,sans-Serif" font-size="10.00" fill="grey">direction_angle</text>
<text text-anchor="middle" x="624.5" y="-243.5" font-family="Helvetica,sans-Serif" font-size="10.00" fill="grey">orientation</text>
<text text-anchor="middle" x="624.5" y="-232.5" font-family="Helvetica,sans-Serif" font-size="10.00" fill="grey">unk_09A</text>
<text text-anchor="middle" x="624.5" y="-221.5" font-family="Helvetica,sans-Serif" font-size="10.00" fill="grey">unk_0B8</text>
<text text-anchor="middle" x="624.5" y="-210.5" font-family="Helvetica,sans-Serif" font-size="10.00" fill="grey">unk_0C4</text>
<text text-anchor="middle" x="624.5" y="-199.5" font-family="Helvetica,sans-Serif" font-size="10.00" fill="grey">unk_0C6</text>
</g>
<!-- Node17 -->
<g id="Node000017" class="node">
<title>Node17</title>
<g id="a_Node000017"><a xlink:title=" ">
<polygon fill="white" stroke="#666666" points="556,-162 518,-162 518,-143 556,-143 556,-162"/>
<text text-anchor="middle" x="537" y="-150" font-family="Helvetica,sans-Serif" font-size="10.00">bool</text>
</a>
</g>
</g>
<!-- Node17&#45;&gt;Node2 -->
<g id="edge20_Node000002_Node000017" class="edge">
<title>Node17&#45;&gt;Node2</title>
<g id="a_edge20_Node000002_Node000017"><a xlink:title=" ">
<path fill="none" stroke="#9a32cd" stroke-dasharray="5,2" d="M507.88,-142.95C436.62,-125.92 416.67,-125.21 348,-114 293.47,-105.1 278.48,-109.86 225,-96 219.42,-94.55 213.51,-92.55 208.1,-90.51"/>
<polygon fill="#9a32cd" stroke="#9a32cd" points="507.26,-146.4 517.8,-145.35 508.9,-139.6 507.26,-146.4"/>
</a>
</g>
<text text-anchor="middle" x="461.5" y="-117" font-family="Helvetica,sans-Serif" font-size="10.00" fill="grey"> bPendingDestroy</text>
</g>
<!-- Node18 -->
<g id="Node000018" class="node">
<title>Node18</title>
<g id="a_Node000018"><a xlink:title=" ">
<polygon fill="white" stroke="#666666" points="353.5,-96 234.5,-96 234.5,-66 353.5,-66 353.5,-96"/>
<text text-anchor="start" x="242.5" y="-84" font-family="Helvetica,sans-Serif" font-size="10.00">vector&lt; OMoleGroup</text>
<text text-anchor="middle" x="294" y="-73" font-family="Helvetica,sans-Serif" font-size="10.00">::MoleEntry &gt;</text>
</a>
</g>
</g>
<!-- Node18&#45;&gt;Node1 -->
<g id="edge22_Node000001_Node000018" class="edge">
<title>Node18&#45;&gt;Node1</title>
<g id="a_edge22_Node000001_Node000018"><a xlink:title=" ">
<path fill="none" stroke="#9a32cd" stroke-dasharray="5,2" d="M277.09,-57.83C267.11,-44.74 255.03,-28.9 247.69,-19.27"/>
<polygon fill="#9a32cd" stroke="#9a32cd" points="274.43,-60.11 283.27,-65.94 279.99,-55.86 274.43,-60.11"/>
</a>
</g>
<text text-anchor="middle" x="288.5" y="-40" font-family="Helvetica,sans-Serif" font-size="10.00" fill="grey"> _moles</text>
</g>
</g>
</svg>
