<?xml version="1.0" encoding="UTF-8" standalone="no"?>
<!DOCTYPE svg PUBLIC "-//W3C//DTD SVG 1.1//EN"
 "http://www.w3.org/Graphics/SVG/1.1/DTD/svg11.dtd">
<!-- Generated by graphviz version 2.43.0 (0)
 -->
<!-- Title: OCheepCheep Pages: 1 -->
<!--zoomable 610 -->

<svg id="main" version="1.1" xmlns="http://www.w3.org/2000/svg" xmlns:xlink="http://www.w3.org/1999/xlink" xml:space="preserve" onload="init(evt)">

<style type="text/css"><![CDATA[
.node, .edge {opacity: 0.7;}
.node.selected, .edge.selected {opacity: 1;}
.edge:hover path { stroke: red; }
.edge:hover polygon { stroke: red; fill: red; }
]]></style>

<defs>
  <circle id="rim" cx="0" cy="0" r="7"/>
  <circle id="rim2" cx="0" cy="0" r="3.5"/>
  <g id="zoomPlus">
    <use xlink:href="#rim" fill="#404040"><set attributeName="fill" to="#808080" begin="zoomplus.mouseover" end="zoomplus.mouseout"/></use>
    <path d="M-4,0h8M0,-4v8" fill="none" stroke="white" stroke-width="1.5" pointer-events="none"/>
  </g>
  <g id="zoomMin">
    <use xlink:href="#rim" fill="#404040"><set attributeName="fill" to="#808080" begin="zoomminus.mouseover" end="zoomminus.mouseout"/></use>
    <path d="M-4,0h8" fill="none" stroke="white" stroke-width="1.5" pointer-events="none"/>
  </g>
  <g id="arrowUp" transform="translate(30 24)">
    <use xlink:href="#rim"/>
    <path pointer-events="none" fill="none" stroke="white" stroke-width="1.5" d="M0,-3.0v7 M-2.5,-0.5L0,-3.0L2.5,-0.5"/>
  </g>
  <g id="arrowRight" transform="rotate(90) translate(36 -43)">
    <use xlink:href="#rim"/>
    <path pointer-events="none" fill="none" stroke="white" stroke-width="1.5" d="M0,-3.0v7 M-2.5,-0.5L0,-3.0L2.5,-0.5"/>
  </g>
  <g id="arrowDown" transform="rotate(180) translate(-30 -48)">
    <use xlink:href="#rim"/>
    <path pointer-events="none" fill="none" stroke="white" stroke-width="1.5" d="M0,-3.0v7 M-2.5,-0.5L0,-3.0L2.5,-0.5"/>
  </g>
  <g id="arrowLeft" transform="rotate(270) translate(-36 17)">
    <use xlink:href="#rim"/>
    <path pointer-events="none" fill="none" stroke="white" stroke-width="1.5" d="M0,-3.0v7 M-2.5,-0.5L0,-3.0L2.5,-0.5"/>
  </g>
  <g id="resetDef">
    <use xlink:href="#rim2" fill="#404040"><set attributeName="fill" to="#808080" begin="reset.mouseover" end="reset.mouseout"/></use>
  </g>
</defs>
<script type="application/ecmascript">
var viewWidth = 1344;
var viewHeight = 610;
var sectionId = 'dynsection-1';
</script>
<script type="application/ecmascript" xlink:href="svg.min.js"/>
<svg id="graph" class="graph">
<g id="viewport">
<title>OCheepCheep</title>
<!-- Node1 -->
<g id="Node000001" class="node">
<title>Node1</title>
<g id="a_Node000001"><a xlink:title=" ">
<polygon fill="#999999" stroke="#666666" points="1189.4,-19 1103.4,-19 1103.4,0 1189.4,0 1189.4,-19"/>
<text text-anchor="middle" x="1146.4" y="-7" font-family="Helvetica,sans-Serif" font-size="10.00">OCheepCheep</text>
</a>
</g>
</g>
<!-- Node2 -->
<g id="Node000002" class="node">
<title>Node2</title>
<g id="a_Node000002"><a xlink:href="classOObject.html" target="_top" xlink:title=" ">
<polygon fill="white" stroke="#666666" points="918.4,-85 862.4,-85 862.4,-66 918.4,-66 918.4,-85"/>
<text text-anchor="middle" x="890.4" y="-73" font-family="Helvetica,sans-Serif" font-size="10.00">OObject</text>
</a>
</g>
</g>
<!-- Node2&#45;&gt;Node1 -->
<g id="edge1_Node000001_Node000002" class="edge">
<title>Node2&#45;&gt;Node1</title>
<g id="a_edge1_Node000001_Node000002"><a xlink:title=" ">
<path fill="none" stroke="#63b8ff" d="M928.51,-64.97C978.23,-52.54 1064.51,-30.97 1112.21,-19.05"/>
<polygon fill="#63b8ff" stroke="#63b8ff" points="927.63,-61.59 918.77,-67.41 929.32,-68.38 927.63,-61.59"/>
</a>
</g>
</g>
<!-- Node3 -->
<g id="Node000003" class="node">
<title>Node3</title>
<g id="a_Node000003"><a xlink:title=" ">
<polygon fill="white" stroke="#666666" points="953.4,-173 903.4,-173 903.4,-154 953.4,-154 953.4,-173"/>
<text text-anchor="middle" x="928.4" y="-161" font-family="Helvetica,sans-Serif" font-size="10.00">uint8_t</text>
</a>
</g>
</g>
<!-- Node3&#45;&gt;Node2 -->
<g id="edge2_Node000002_Node000003" class="edge">
<title>Node3&#45;&gt;Node2</title>
<g id="a_edge2_Node000002_Node000003"><a xlink:title=" ">
<path fill="none" stroke="#9a32cd" stroke-dasharray="5,2" d="M920.53,-144.68C912.46,-126.43 900.27,-98.85 894.17,-85.03"/>
<polygon fill="#9a32cd" stroke="#9a32cd" points="917.37,-146.21 924.62,-153.94 923.78,-143.38 917.37,-146.21"/>
</a>
</g>
<text text-anchor="middle" x="928.9" y="-117" font-family="Helvetica,sans-Serif" font-size="10.00" fill="grey"> uuid</text>
</g>
<!-- Node4 -->
<g id="Node000004" class="node">
<title>Node4</title>
<g id="a_Node000004"><a xlink:href="structObject.html" target="_top" xlink:title=" ">
<polygon fill="white" stroke="#666666" points="519.4,-173 471.4,-173 471.4,-154 519.4,-154 519.4,-173"/>
<text text-anchor="middle" x="495.4" y="-161" font-family="Helvetica,sans-Serif" font-size="10.00">Object</text>
</a>
</g>
</g>
<!-- Node4&#45;&gt;Node2 -->
<g id="edge3_Node000002_Node000004" class="edge">
<title>Node4&#45;&gt;Node2</title>
<g id="a_edge3_Node000002_Node000004"><a xlink:title=" ">
<path fill="none" stroke="#9a32cd" stroke-dasharray="5,2" d="M529.25,-152.98C574.73,-140.4 658.21,-118.09 730.4,-103 776.29,-93.41 830.17,-85.08 862.23,-80.44"/>
<polygon fill="#9a32cd" stroke="#9a32cd" points="528.3,-149.61 519.6,-155.66 530.17,-156.35 528.3,-149.61"/>
</a>
</g>
<text text-anchor="middle" x="735.4" y="-117" font-family="Helvetica,sans-Serif" font-size="10.00" fill="grey"> o</text>
</g>
<!-- Node5 -->
<g id="Node000005" class="node">
<title>Node5</title>
<g id="a_Node000005"><a xlink:title=" ">
<polygon fill="white" stroke="#666666" points="36.4,-349 4.4,-349 4.4,-330 36.4,-330 36.4,-349"/>
<text text-anchor="middle" x="20.4" y="-337" font-family="Helvetica,sans-Serif" font-size="10.00">f32</text>
</a>
</g>
</g>
<!-- Node5&#45;&gt;Node4 -->
<g id="edge4_Node000004_Node000005" class="edge">
<title>Node5&#45;&gt;Node4</title>
<g id="a_edge4_Node000004_Node000005"><a xlink:title=" ">
<path fill="none" stroke="#9a32cd" stroke-dasharray="5,2" d="M13.37,-320.14C2.8,-289.03 -12.65,-225.95 20.4,-191 36.02,-174.48 376.36,-166.77 471.11,-164.94"/>
<polygon fill="#9a32cd" stroke="#9a32cd" points="10.14,-321.49 16.82,-329.71 16.72,-319.11 10.14,-321.49"/>
</a>
</g>
<text text-anchor="middle" x="54.9" y="-287.5" font-family="Helvetica,sans-Serif" font-size="10.00" fill="grey"> offset</text>
<text text-anchor="middle" x="54.9" y="-276.5" font-family="Helvetica,sans-Serif" font-size="10.00" fill="grey">origin_pos</text>
<text text-anchor="middle" x="54.9" y="-265.5" font-family="Helvetica,sans-Serif" font-size="10.00" fill="grey">pos</text>
<text text-anchor="middle" x="54.9" y="-254.5" font-family="Helvetica,sans-Serif" font-size="10.00" fill="grey">sizeScaling</text>
<text text-anchor="middle" x="54.9" y="-243.5" font-family="Helvetica,sans-Serif" font-size="10.00" fill="grey">surfaceHeight</text>
<text text-anchor="middle" x="54.9" y="-232.5" font-family="Helvetica,sans-Serif" font-size="10.00" fill="grey">unk_01C</text>
<text text-anchor="middle" x="54.9" y="-221.5" font-family="Helvetica,sans-Serif" font-size="10.00" fill="grey">unk_034</text>
<text text-anchor="middle" x="54.9" y="-210.5" font-family="Helvetica,sans-Serif" font-size="10.00" fill="grey">velocity</text>
</g>
<!-- Node6 -->
<g id="Node000006" class="node">
<title>Node6</title>
<g id="a_Node000006"><a xlink:title=" ">
<polygon fill="white" stroke="#666666" points="1006.4,-349 972.4,-349 972.4,-330 1006.4,-330 1006.4,-349"/>
<text text-anchor="middle" x="989.4" y="-337" font-family="Helvetica,sans-Serif" font-size="10.00">s32</text>
</a>
</g>
</g>
<!-- Node6&#45;&gt;Node1 -->
<g id="edge22_Node000001_Node000006" class="edge">
<title>Node6&#45;&gt;Node1</title>
<g id="a_edge22_Node000001_Node000006"><a xlink:title=" ">
<path fill="none" stroke="#9a32cd" stroke-dasharray="5,2" d="M1000.49,-321.06C1002.22,-318.08 1003.92,-314.99 1005.4,-312 1057.51,-206.66 1043.7,-167.82 1102.4,-66 1112.72,-48.1 1128.44,-29.79 1138.03,-19.32"/>
<polygon fill="#9a32cd" stroke="#9a32cd" points="997.33,-319.52 995.11,-329.87 1003.31,-323.16 997.33,-319.52"/>
</a>
</g>
<text text-anchor="middle" x="1095.4" y="-117" font-family="Helvetica,sans-Serif" font-size="10.00" fill="grey"> _idx</text>
</g>
<!-- Node6&#45;&gt;Node2 -->
<g id="edge21_Node000002_Node000006" class="edge">
<title>Node6&#45;&gt;Node2</title>
<g id="a_edge21_Node000002_Node000006"><a xlink:title=" ">
<path fill="none" stroke="#9a32cd" stroke-dasharray="5,2" d="M991.79,-319.85C996.31,-276.1 1001.11,-165.86 945.4,-103 938.3,-94.99 928.24,-89.17 918.66,-85.07"/>
<polygon fill="#9a32cd" stroke="#9a32cd" points="988.3,-319.57 990.63,-329.9 995.26,-320.37 988.3,-319.57"/>
</a>
</g>
<text text-anchor="middle" x="1015.4" y="-161" font-family="Helvetica,sans-Serif" font-size="10.00" fill="grey"> _objectIndex</text>
</g>
<!-- Node6&#45;&gt;Node4 -->
<g id="edge5_Node000004_Node000006" class="edge">
<title>Node6&#45;&gt;Node4</title>
<g id="a_edge5_Node000004_Node000006"><a xlink:title=" ">
<path fill="none" stroke="#9a32cd" stroke-dasharray="5,2" d="M962.58,-329.27C952.47,-324.99 941.29,-319.23 932.4,-312 880.42,-269.69 901.1,-223.35 842.4,-191 814.29,-175.51 593.75,-167.48 519.62,-165.19"/>
<polygon fill="#9a32cd" stroke="#9a32cd" points="961.61,-332.65 972.19,-333.05 964.17,-326.13 961.61,-332.65"/>
</a>
</g>
<text text-anchor="middle" x="953.9" y="-276.5" font-family="Helvetica,sans-Serif" font-size="10.00" fill="grey"> status</text>
<text text-anchor="middle" x="953.9" y="-265.5" font-family="Helvetica,sans-Serif" font-size="10.00" fill="grey">timer</text>
<text text-anchor="middle" x="953.9" y="-254.5" font-family="Helvetica,sans-Serif" font-size="10.00" fill="grey">unk_048</text>
<text text-anchor="middle" x="953.9" y="-243.5" font-family="Helvetica,sans-Serif" font-size="10.00" fill="grey">unk_04C</text>
<text text-anchor="middle" x="953.9" y="-232.5" font-family="Helvetica,sans-Serif" font-size="10.00" fill="grey">unk_058</text>
<text text-anchor="middle" x="953.9" y="-221.5" font-family="Helvetica,sans-Serif" font-size="10.00" fill="grey">unk_05C</text>
</g>
<!-- Node7 -->
<g id="Node000007" class="node">
<title>Node7</title>
<g id="a_Node000007"><a xlink:title=" ">
<polygon fill="white" stroke="#666666" points="848.9,-349 773.9,-349 773.9,-330 848.9,-330 848.9,-349"/>
<text text-anchor="middle" x="811.4" y="-337" font-family="Helvetica,sans-Serif" font-size="10.00">const char *</text>
</a>
</g>
</g>
<!-- Node7&#45;&gt;Node2 -->
<g id="edge19_Node000002_Node000007" class="edge">
<title>Node7&#45;&gt;Node2</title>
<g id="a_edge19_Node000002_Node000007"><a xlink:title=" ">
<path fill="none" stroke="#9a32cd" stroke-dasharray="5,2" d="M830.49,-322.99C833.57,-319.66 836.39,-315.95 838.4,-312 870.52,-248.72 843.75,-222.73 861.4,-154 867.97,-128.4 880.08,-99.56 886.37,-85.37"/>
<polygon fill="#9a32cd" stroke="#9a32cd" points="827.99,-320.54 823.14,-329.96 832.81,-325.62 827.99,-320.54"/>
</a>
</g>
<text text-anchor="middle" x="877.9" y="-161" font-family="Helvetica,sans-Serif" font-size="10.00" fill="grey"> Name</text>
</g>
<!-- Node7&#45;&gt;Node4 -->
<g id="edge6_Node000004_Node000007" class="edge">
<title>Node7&#45;&gt;Node4</title>
<g id="a_edge6_Node000004_Node000007"><a xlink:title=" ">
<path fill="none" stroke="#9a32cd" stroke-dasharray="5,2" d="M783.59,-324.36C778.92,-320.89 774.57,-316.77 771.4,-312 741.09,-266.42 788.69,-228.06 748.4,-191 731.74,-175.68 579.53,-167.9 519.54,-165.41"/>
<polygon fill="#9a32cd" stroke="#9a32cd" points="781.87,-327.41 792.16,-329.92 785.68,-321.54 781.87,-327.41"/>
</a>
</g>
<text text-anchor="middle" x="804.9" y="-254.5" font-family="Helvetica,sans-Serif" font-size="10.00" fill="grey"> activeTLUT</text>
<text text-anchor="middle" x="804.9" y="-243.5" font-family="Helvetica,sans-Serif" font-size="10.00" fill="grey">activeTexture</text>
</g>
<!-- Node8 -->
<g id="Node000008" class="node">
<title>Node8</title>
<g id="a_Node000008"><a xlink:title=" ">
<polygon fill="white" stroke="#666666" points="126.9,-349 97.9,-349 97.9,-330 126.9,-330 126.9,-349"/>
<text text-anchor="middle" x="112.4" y="-337" font-family="Helvetica,sans-Serif" font-size="10.00">u8</text>
</a>
</g>
</g>
<!-- Node8&#45;&gt;Node4 -->
<g id="edge7_Node000004_Node000008" class="edge">
<title>Node8&#45;&gt;Node4</title>
<g id="a_edge7_Node000004_Node000008"><a xlink:title=" ">
<path fill="none" stroke="#9a32cd" stroke-dasharray="5,2" d="M105.57,-320.16C95.33,-289.09 80.46,-226.06 113.4,-191 137.89,-164.93 391.26,-163.96 471.31,-164.32"/>
<polygon fill="#9a32cd" stroke="#9a32cd" points="102.31,-321.44 108.92,-329.72 108.92,-319.13 102.31,-321.44"/>
</a>
</g>
<text text-anchor="middle" x="148.9" y="-304" font-family="Helvetica,sans-Serif" font-size="10.00" fill="grey"> textureHeight</text>
<text text-anchor="middle" x="148.9" y="-293" font-family="Helvetica,sans-Serif" font-size="10.00" fill="grey">textureWidth</text>
<text text-anchor="middle" x="148.9" y="-282" font-family="Helvetica,sans-Serif" font-size="10.00" fill="grey">tlutList</text>
<text text-anchor="middle" x="148.9" y="-271" font-family="Helvetica,sans-Serif" font-size="10.00" fill="grey">unk_0D5</text>
<text text-anchor="middle" x="148.9" y="-260" font-family="Helvetica,sans-Serif" font-size="10.00" fill="grey">unk_0D6</text>
<text text-anchor="middle" x="148.9" y="-249" font-family="Helvetica,sans-Serif" font-size="10.00" fill="grey">unk_0D7</text>
<text text-anchor="middle" x="148.9" y="-238" font-family="Helvetica,sans-Serif" font-size="10.00" fill="grey">unk_0D8</text>
<text text-anchor="middle" x="148.9" y="-227" font-family="Helvetica,sans-Serif" font-size="10.00" fill="grey">unk_0DB</text>
<text text-anchor="middle" x="148.9" y="-216" font-family="Helvetica,sans-Serif" font-size="10.00" fill="grey">unk_0DC</text>
<text text-anchor="middle" x="148.9" y="-205" font-family="Helvetica,sans-Serif" font-size="10.00" fill="grey">unk_0DD</text>
<text text-anchor="middle" x="148.9" y="-194" font-family="Helvetica,sans-Serif" font-size="10.00" fill="grey">...</text>
</g>
<!-- Node9 -->
<g id="Node000009" class="node">
<title>Node9</title>
<g id="a_Node000009"><a xlink:title=" ">
<polygon fill="white" stroke="#666666" points="246.4,-349 166.4,-349 166.4,-330 246.4,-330 246.4,-349"/>
<text text-anchor="middle" x="206.4" y="-337" font-family="Helvetica,sans-Serif" font-size="10.00">const char **</text>
</a>
</g>
</g>
<!-- Node9&#45;&gt;Node4 -->
<g id="edge8_Node000004_Node000009" class="edge">
<title>Node9&#45;&gt;Node4</title>
<g id="a_edge8_Node000004_Node000009"><a xlink:title=" ">
<path fill="none" stroke="#9a32cd" stroke-dasharray="5,2" d="M199.66,-320.24C189.54,-289.29 174.86,-226.43 207.4,-191 225.1,-171.72 405.01,-166.27 471.16,-164.91"/>
<polygon fill="#9a32cd" stroke="#9a32cd" points="196.38,-321.46 202.96,-329.76 202.99,-319.17 196.38,-321.46"/>
</a>
</g>
<text text-anchor="middle" x="235.4" y="-249" font-family="Helvetica,sans-Serif" font-size="10.00" fill="grey"> textureList</text>
</g>
<!-- Node10 -->
<g id="Node000010" class="node">
<title>Node10</title>
<g id="a_Node000010"><a xlink:title=" ">
<polygon fill="white" stroke="#666666" points="302.4,-349 268.4,-349 268.4,-330 302.4,-330 302.4,-349"/>
<text text-anchor="middle" x="285.4" y="-337" font-family="Helvetica,sans-Serif" font-size="10.00">Gfx</text>
</a>
</g>
</g>
<!-- Node10&#45;&gt;Node4 -->
<g id="edge9_Node000004_Node000010" class="edge">
<title>Node10&#45;&gt;Node4</title>
<g id="a_edge9_Node000004_Node000010"><a xlink:title=" ">
<path fill="none" stroke="#9a32cd" stroke-dasharray="5,2" d="M278.79,-320.36C268.86,-289.58 254.47,-226.98 286.4,-191 310.31,-164.05 421.19,-162.89 471.02,-163.78"/>
<polygon fill="#9a32cd" stroke="#9a32cd" points="275.48,-321.49 282.03,-329.82 282.1,-319.23 275.48,-321.49"/>
</a>
</g>
<text text-anchor="middle" x="303.4" y="-249" font-family="Helvetica,sans-Serif" font-size="10.00" fill="grey"> model</text>
</g>
<!-- Node11 -->
<g id="Node000011" class="node">
<title>Node11</title>
<g id="a_Node000011"><a xlink:title=" ">
<polygon fill="white" stroke="#666666" points="358.9,-349 325.9,-349 325.9,-330 358.9,-330 358.9,-349"/>
<text text-anchor="middle" x="342.4" y="-337" font-family="Helvetica,sans-Serif" font-size="10.00">Vtx</text>
</a>
</g>
</g>
<!-- Node11&#45;&gt;Node4 -->
<g id="edge10_Node000004_Node000011" class="edge">
<title>Node11&#45;&gt;Node4</title>
<g id="a_edge10_Node000004_Node000011"><a xlink:title=" ">
<path fill="none" stroke="#9a32cd" stroke-dasharray="5,2" d="M335.84,-320.11C326.19,-289.43 312.45,-227.56 343.4,-191 359.5,-171.99 432.44,-166.61 471.13,-165.1"/>
<polygon fill="#9a32cd" stroke="#9a32cd" points="332.62,-321.53 339.12,-329.9 339.26,-319.31 332.62,-321.53"/>
</a>
</g>
<text text-anchor="middle" x="360.9" y="-249" font-family="Helvetica,sans-Serif" font-size="10.00" fill="grey"> vertex</text>
</g>
<!-- Node12 -->
<g id="Node000012" class="node">
<title>Node12</title>
<g id="a_Node000012"><a xlink:title=" ">
<polygon fill="white" stroke="#666666" points="409.9,-349 380.9,-349 380.9,-330 409.9,-330 409.9,-349"/>
<text text-anchor="middle" x="395.4" y="-337" font-family="Helvetica,sans-Serif" font-size="10.00">s8</text>
</a>
</g>
</g>
<!-- Node12&#45;&gt;Node4 -->
<g id="edge11_Node000004_Node000012" class="edge">
<title>Node12&#45;&gt;Node4</title>
<g id="a_edge11_Node000004_Node000012"><a xlink:title=" ">
<path fill="none" stroke="#9a32cd" stroke-dasharray="5,2" d="M389.89,-319.91C382.09,-289.42 371.84,-228.44 401.4,-191 417.79,-170.24 449.11,-164.94 471.08,-163.97"/>
<polygon fill="#9a32cd" stroke="#9a32cd" points="386.55,-320.95 392.58,-329.66 393.3,-319.09 386.55,-320.95"/>
</a>
</g>
<text text-anchor="middle" x="441.4" y="-304" font-family="Helvetica,sans-Serif" font-size="10.00" fill="grey"> isTimerActive</text>
<text text-anchor="middle" x="441.4" y="-293" font-family="Helvetica,sans-Serif" font-size="10.00" fill="grey">textureListIndex</text>
<text text-anchor="middle" x="441.4" y="-282" font-family="Helvetica,sans-Serif" font-size="10.00" fill="grey">unk_078</text>
<text text-anchor="middle" x="441.4" y="-271" font-family="Helvetica,sans-Serif" font-size="10.00" fill="grey">unk_0CA</text>
<text text-anchor="middle" x="441.4" y="-260" font-family="Helvetica,sans-Serif" font-size="10.00" fill="grey">unk_0CC</text>
<text text-anchor="middle" x="441.4" y="-249" font-family="Helvetica,sans-Serif" font-size="10.00" fill="grey">unk_0CD</text>
<text text-anchor="middle" x="441.4" y="-238" font-family="Helvetica,sans-Serif" font-size="10.00" fill="grey">unk_0CE</text>
<text text-anchor="middle" x="441.4" y="-227" font-family="Helvetica,sans-Serif" font-size="10.00" fill="grey">unk_0CF</text>
<text text-anchor="middle" x="441.4" y="-216" font-family="Helvetica,sans-Serif" font-size="10.00" fill="grey">unk_0D0</text>
<text text-anchor="middle" x="441.4" y="-205" font-family="Helvetica,sans-Serif" font-size="10.00" fill="grey">unk_0D1</text>
<text text-anchor="middle" x="441.4" y="-194" font-family="Helvetica,sans-Serif" font-size="10.00" fill="grey">...</text>
</g>
<!-- Node13 -->
<g id="Node000013" class="node">
<title>Node13</title>
<g id="a_Node000013"><a xlink:href="structSplineControlPoint.html" target="_top" xlink:title=" ">
<polygon fill="white" stroke="#666666" points="511.9,-525 404.9,-525 404.9,-506 511.9,-506 511.9,-525"/>
<text text-anchor="middle" x="458.4" y="-513" font-family="Helvetica,sans-Serif" font-size="10.00">SplineControlPoint</text>
</a>
</g>
</g>
<!-- Node13&#45;&gt;Node4 -->
<g id="edge12_Node000004_Node000013" class="edge">
<title>Node13&#45;&gt;Node4</title>
<g id="a_edge12_Node000004_Node000013"><a xlink:title=" ">
<path fill="none" stroke="#9a32cd" stroke-dasharray="5,2" d="M457.95,-495.8C457.24,-465.14 455.88,-402.26 455.4,-349 455.32,-340.56 451.48,-337.48 455.4,-330 461.92,-317.55 474.3,-324.13 481.4,-312 508.44,-265.84 500.78,-197.32 496.96,-173.24"/>
<polygon fill="#9a32cd" stroke="#9a32cd" points="454.45,-495.97 458.19,-505.89 461.45,-495.81 454.45,-495.97"/>
</a>
</g>
<text text-anchor="middle" x="488.9" y="-337" font-family="Helvetica,sans-Serif" font-size="10.00" fill="grey"> controlPoints</text>
</g>
<!-- Node15 -->
<g id="Node000015" class="node">
<title>Node15</title>
<g id="a_Node000015"><a xlink:href="structSplineData.html" target="_top" xlink:title=" ">
<polygon fill="white" stroke="#666666" points="601.4,-349 531.4,-349 531.4,-330 601.4,-330 601.4,-349"/>
<text text-anchor="middle" x="566.4" y="-337" font-family="Helvetica,sans-Serif" font-size="10.00">SplineData</text>
</a>
</g>
</g>
<!-- Node13&#45;&gt;Node15 -->
<g id="edge16_Node000015_Node000013" class="edge">
<title>Node13&#45;&gt;Node15</title>
<g id="a_edge16_Node000015_Node000013"><a xlink:title=" ">
<path fill="none" stroke="#9a32cd" stroke-dasharray="5,2" d="M458.78,-495.63C459.87,-460.29 464.1,-385.96 480.4,-367 487.22,-359.06 510.47,-352.17 531.07,-347.41"/>
<polygon fill="#9a32cd" stroke="#9a32cd" points="455.27,-495.9 458.52,-505.99 462.27,-496.08 455.27,-495.9"/>
</a>
</g>
<text text-anchor="middle" x="513.9" y="-425" font-family="Helvetica,sans-Serif" font-size="10.00" fill="grey"> controlPoints</text>
</g>
<!-- Node14 -->
<g id="Node000014" class="node">
<title>Node14</title>
<g id="a_Node000014"><a xlink:title=" ">
<polygon fill="white" stroke="#666666" points="565.4,-602 531.4,-602 531.4,-583 565.4,-583 565.4,-602"/>
<text text-anchor="middle" x="548.4" y="-590" font-family="Helvetica,sans-Serif" font-size="10.00">s16</text>
</a>
</g>
</g>
<!-- Node14&#45;&gt;Node4 -->
<g id="edge17_Node000004_Node000014" class="edge">
<title>Node14&#45;&gt;Node4</title>
<g id="a_edge17_Node000004_Node000014"><a xlink:title=" ">
<path fill="none" stroke="#9a32cd" stroke-dasharray="5,2" d="M575.12,-582.51C599.66,-572.66 634.56,-554.24 650.4,-525 654.42,-517.58 651.14,-514.41 650.4,-506 644.15,-435.18 642.48,-243.38 594.4,-191 575.39,-170.29 542.13,-165.05 519.46,-164.07"/>
<polygon fill="#9a32cd" stroke="#9a32cd" points="573.75,-579.28 565.64,-586.1 576.23,-585.83 573.75,-579.28"/>
</a>
</g>
<text text-anchor="middle" x="676.4" y="-480" font-family="Helvetica,sans-Serif" font-size="10.00" fill="grey"> primAlpha</text>
<text text-anchor="middle" x="676.4" y="-469" font-family="Helvetica,sans-Serif" font-size="10.00" fill="grey">state</text>
<text text-anchor="middle" x="676.4" y="-458" font-family="Helvetica,sans-Serif" font-size="10.00" fill="grey">type</text>
<text text-anchor="middle" x="676.4" y="-447" font-family="Helvetica,sans-Serif" font-size="10.00" fill="grey">unk_084</text>
<text text-anchor="middle" x="676.4" y="-436" font-family="Helvetica,sans-Serif" font-size="10.00" fill="grey">unk_09C</text>
<text text-anchor="middle" x="676.4" y="-425" font-family="Helvetica,sans-Serif" font-size="10.00" fill="grey">unk_09E</text>
<text text-anchor="middle" x="676.4" y="-414" font-family="Helvetica,sans-Serif" font-size="10.00" fill="grey">unk_0A2</text>
<text text-anchor="middle" x="676.4" y="-403" font-family="Helvetica,sans-Serif" font-size="10.00" fill="grey">unk_0A8</text>
<text text-anchor="middle" x="676.4" y="-392" font-family="Helvetica,sans-Serif" font-size="10.00" fill="grey">unk_0AA</text>
<text text-anchor="middle" x="676.4" y="-381" font-family="Helvetica,sans-Serif" font-size="10.00" fill="grey">unk_0AC</text>
<text text-anchor="middle" x="676.4" y="-370" font-family="Helvetica,sans-Serif" font-size="10.00" fill="grey">...</text>
</g>
<!-- Node14&#45;&gt;Node13 -->
<g id="edge13_Node000013_Node000014" class="edge">
<title>Node14&#45;&gt;Node13</title>
<g id="a_edge13_Node000013_Node000014"><a xlink:title=" ">
<path fill="none" stroke="#9a32cd" stroke-dasharray="5,2" d="M521.88,-581.53C512.61,-577.29 502.5,-571.74 494.4,-565 480.54,-553.46 469.05,-535.53 463.01,-525.01"/>
<polygon fill="#9a32cd" stroke="#9a32cd" points="520.55,-584.77 531.12,-585.48 523.3,-578.33 520.55,-584.77"/>
</a>
</g>
<text text-anchor="middle" x="514.4" y="-557" font-family="Helvetica,sans-Serif" font-size="10.00" fill="grey"> pos</text>
<text text-anchor="middle" x="514.4" y="-546" font-family="Helvetica,sans-Serif" font-size="10.00" fill="grey">velocity</text>
</g>
<!-- Node14&#45;&gt;Node15 -->
<g id="edge15_Node000015_Node000014" class="edge">
<title>Node14&#45;&gt;Node15</title>
<g id="a_edge15_Node000015_Node000014"><a xlink:title=" ">
<path fill="none" stroke="#9a32cd" stroke-dasharray="5,2" d="M549.75,-572.73C553.37,-522.23 563.22,-384.86 565.78,-349.1"/>
<polygon fill="#9a32cd" stroke="#9a32cd" points="546.24,-572.64 549.02,-582.86 553.23,-573.14 546.24,-572.64"/>
</a>
</g>
<text text-anchor="middle" x="600.9" y="-513" font-family="Helvetica,sans-Serif" font-size="10.00" fill="grey"> numControlPoints</text>
</g>
<!-- Node15&#45;&gt;Node4 -->
<g id="edge14_Node000004_Node000015" class="edge">
<title>Node15&#45;&gt;Node4</title>
<g id="a_edge14_Node000004_Node000015"><a xlink:title=" ">
<path fill="none" stroke="#9a32cd" stroke-dasharray="5,2" d="M560.03,-319.98C550.15,-291.75 530.09,-236.44 509.4,-191 506.64,-184.94 503.14,-178.31 500.33,-173.2"/>
<polygon fill="#9a32cd" stroke="#9a32cd" points="556.82,-321.41 563.41,-329.71 563.44,-319.11 556.82,-321.41"/>
</a>
</g>
<text text-anchor="middle" x="573.9" y="-249" font-family="Helvetica,sans-Serif" font-size="10.00" fill="grey"> spline</text>
</g>
<!-- Node16 -->
<g id="Node000016" class="node">
<title>Node16</title>
<g id="a_Node000016"><a xlink:title=" ">
<polygon fill="white" stroke="#666666" points="692.9,-349 657.9,-349 657.9,-330 692.9,-330 692.9,-349"/>
<text text-anchor="middle" x="675.4" y="-337" font-family="Helvetica,sans-Serif" font-size="10.00">u16</text>
</a>
</g>
</g>
<!-- Node16&#45;&gt;Node4 -->
<g id="edge18_Node000004_Node000016" class="edge">
<title>Node16&#45;&gt;Node4</title>
<g id="a_edge18_Node000004_Node000016"><a xlink:title=" ">
<path fill="none" stroke="#9a32cd" stroke-dasharray="5,2" d="M666.68,-320.77C665.46,-317.88 664.31,-314.89 663.4,-312 646.88,-259.81 679.24,-229.57 640.4,-191 623.74,-174.46 556.46,-168.01 519.69,-165.69"/>
<polygon fill="#9a32cd" stroke="#9a32cd" points="663.51,-322.25 670.86,-329.87 669.87,-319.32 663.51,-322.25"/>
</a>
</g>
<text text-anchor="middle" x="705.9" y="-287.5" font-family="Helvetica,sans-Serif" font-size="10.00" fill="grey"> animationTimer</text>
<text text-anchor="middle" x="705.9" y="-276.5" font-family="Helvetica,sans-Serif" font-size="10.00" fill="grey">boundingBoxSize</text>
<text text-anchor="middle" x="705.9" y="-265.5" font-family="Helvetica,sans-Serif" font-size="10.00" fill="grey">direction_angle</text>
<text text-anchor="middle" x="705.9" y="-254.5" font-family="Helvetica,sans-Serif" font-size="10.00" fill="grey">orientation</text>
<text text-anchor="middle" x="705.9" y="-243.5" font-family="Helvetica,sans-Serif" font-size="10.00" fill="grey">unk_09A</text>
<text text-anchor="middle" x="705.9" y="-232.5" font-family="Helvetica,sans-Serif" font-size="10.00" fill="grey">unk_0B8</text>
<text text-anchor="middle" x="705.9" y="-221.5" font-family="Helvetica,sans-Serif" font-size="10.00" fill="grey">unk_0C4</text>
<text text-anchor="middle" x="705.9" y="-210.5" font-family="Helvetica,sans-Serif" font-size="10.00" fill="grey">unk_0C6</text>
</g>
<!-- Node17 -->
<g id="Node000017" class="node">
<title>Node17</title>
<g id="a_Node000017"><a xlink:title=" ">
<polygon fill="white" stroke="#666666" points="769.4,-173 731.4,-173 731.4,-154 769.4,-154 769.4,-173"/>
<text text-anchor="middle" x="750.4" y="-161" font-family="Helvetica,sans-Serif" font-size="10.00">bool</text>
</a>
</g>
</g>
<!-- Node17&#45;&gt;Node2 -->
<g id="edge20_Node000002_Node000017" class="edge">
<title>Node17&#45;&gt;Node2</title>
<g id="a_edge20_Node000002_Node000017"><a xlink:title=" ">
<path fill="none" stroke="#9a32cd" stroke-dasharray="5,2" d="M745.13,-143.91C742.67,-130.97 742.04,-114.12 751.4,-103 765.32,-86.46 825.8,-80.14 862.24,-77.8"/>
<polygon fill="#9a32cd" stroke="#9a32cd" points="741.72,-144.73 747.45,-153.64 748.53,-143.1 741.72,-144.73"/>
</a>
</g>
<text text-anchor="middle" x="794.9" y="-117" font-family="Helvetica,sans-Serif" font-size="10.00" fill="grey"> bPendingDestroy</text>
</g>
<!-- Node18 -->
<g id="Node000018" class="node">
<title>Node18</title>
<g id="a_Node000018"><a xlink:title=" ">
<polygon fill="white" stroke="#666666" points="1181.4,-85 1111.4,-85 1111.4,-66 1181.4,-66 1181.4,-85"/>
<text text-anchor="middle" x="1146.4" y="-73" font-family="Helvetica,sans-Serif" font-size="10.00">CheepType</text>
</a>
</g>
</g>
<!-- Node18&#45;&gt;Node1 -->
<g id="edge23_Node000001_Node000018" class="edge">
<title>Node18&#45;&gt;Node1</title>
<g id="a_edge23_Node000001_Node000018"><a xlink:title=" ">
<path fill="none" stroke="#9a32cd" stroke-dasharray="5,2" d="M1146.4,-55.58C1146.4,-43.63 1146.4,-28.72 1146.4,-19.41"/>
<polygon fill="#9a32cd" stroke="#9a32cd" points="1142.9,-55.87 1146.4,-65.87 1149.9,-55.87 1142.9,-55.87"/>
</a>
</g>
<text text-anchor="middle" x="1161.9" y="-40" font-family="Helvetica,sans-Serif" font-size="10.00" fill="grey"> _type</text>
</g>
<!-- Node19 -->
<g id="Node000019" class="node">
<title>Node19</title>
<g id="a_Node000019"><a xlink:href="structFVector.html" target="_top" xlink:title=" ">
<polygon fill="white" stroke="#666666" points="1252.9,-85 1199.9,-85 1199.9,-66 1252.9,-66 1252.9,-85"/>
<text text-anchor="middle" x="1226.4" y="-73" font-family="Helvetica,sans-Serif" font-size="10.00">FVector</text>
</a>
</g>
</g>
<!-- Node19&#45;&gt;Node1 -->
<g id="edge24_Node000001_Node000019" class="edge">
<title>Node19&#45;&gt;Node1</title>
<g id="a_edge24_Node000001_Node000019"><a xlink:title=" ">
<path fill="none" stroke="#9a32cd" stroke-dasharray="5,2" d="M1208.34,-59.13C1200.19,-52.27 1190.38,-44.14 1181.4,-37 1173.76,-30.93 1165.01,-24.31 1158.17,-19.2"/>
<polygon fill="#9a32cd" stroke="#9a32cd" points="1206.25,-61.94 1216.15,-65.72 1210.77,-56.59 1206.25,-61.94"/>
</a>
</g>
<text text-anchor="middle" x="1223.4" y="-40" font-family="Helvetica,sans-Serif" font-size="10.00" fill="grey"> _spawnPos</text>
</g>
<!-- Node20 -->
<g id="Node000020" class="node">
<title>Node20</title>
<g id="a_Node000020"><a xlink:title=" ">
<polygon fill="white" stroke="#666666" points="1245.4,-173 1207.4,-173 1207.4,-154 1245.4,-154 1245.4,-173"/>
<text text-anchor="middle" x="1226.4" y="-161" font-family="Helvetica,sans-Serif" font-size="10.00">float</text>
</a>
</g>
</g>
<!-- Node20&#45;&gt;Node19 -->
<g id="edge25_Node000019_Node000020" class="edge">
<title>Node20&#45;&gt;Node19</title>
<g id="a_edge25_Node000019_Node000020"><a xlink:title=" ">
<path fill="none" stroke="#9a32cd" stroke-dasharray="5,2" d="M1226.4,-143.91C1226.4,-125.67 1226.4,-98.65 1226.4,-85.03"/>
<polygon fill="#9a32cd" stroke="#9a32cd" points="1222.9,-143.94 1226.4,-153.94 1229.9,-143.94 1222.9,-143.94"/>
</a>
</g>
<text text-anchor="middle" x="1231.4" y="-128" font-family="Helvetica,sans-Serif" font-size="10.00" fill="grey"> x</text>
<text text-anchor="middle" x="1231.4" y="-117" font-family="Helvetica,sans-Serif" font-size="10.00" fill="grey">y</text>
<text text-anchor="middle" x="1231.4" y="-106" font-family="Helvetica,sans-Serif" font-size="10.00" fill="grey">z</text>
</g>
<!-- Node21 -->
<g id="Node000021" class="node">
<title>Node21</title>
<g id="a_Node000021"><a xlink:href="structIPathSpan.html" target="_top" xlink:title=" ">
<polygon fill="white" stroke="#666666" points="1335.9,-85 1270.9,-85 1270.9,-66 1335.9,-66 1335.9,-85"/>
<text text-anchor="middle" x="1303.4" y="-73" font-family="Helvetica,sans-Serif" font-size="10.00">IPathSpan</text>
</a>
</g>
</g>
<!-- Node21&#45;&gt;Node1 -->
<g id="edge26_Node000001_Node000021" class="edge">
<title>Node21&#45;&gt;Node1</title>
<g id="a_edge26_Node000001_Node000021"><a xlink:title=" ">
<path fill="none" stroke="#9a32cd" stroke-dasharray="5,2" d="M1287.49,-58.89C1278.91,-51.27 1267.77,-42.56 1256.4,-37 1235.49,-26.77 1210.37,-20.33 1189.41,-16.37"/>
<polygon fill="#9a32cd" stroke="#9a32cd" points="1285.15,-61.49 1294.86,-65.73 1289.91,-56.36 1285.15,-61.49"/>
</a>
</g>
<text text-anchor="middle" x="1288.4" y="-40" font-family="Helvetica,sans-Serif" font-size="10.00" fill="grey"> _span</text>
</g>
<!-- Node22 -->
<g id="Node000022" class="node">
<title>Node22</title>
<g id="a_Node000022"><a xlink:title=" ">
<polygon fill="white" stroke="#666666" points="1317.9,-173 1288.9,-173 1288.9,-154 1317.9,-154 1317.9,-173"/>
<text text-anchor="middle" x="1303.4" y="-161" font-family="Helvetica,sans-Serif" font-size="10.00">int</text>
</a>
</g>
</g>
<!-- Node22&#45;&gt;Node21 -->
<g id="edge27_Node000021_Node000022" class="edge">
<title>Node22&#45;&gt;Node21</title>
<g id="a_edge27_Node000021_Node000022"><a xlink:title=" ">
<path fill="none" stroke="#9a32cd" stroke-dasharray="5,2" d="M1303.4,-143.91C1303.4,-125.67 1303.4,-98.65 1303.4,-85.03"/>
<polygon fill="#9a32cd" stroke="#9a32cd" points="1299.9,-143.94 1303.4,-153.94 1306.9,-143.94 1299.9,-143.94"/>
</a>
</g>
<text text-anchor="middle" x="1315.4" y="-122.5" font-family="Helvetica,sans-Serif" font-size="10.00" fill="grey"> End</text>
<text text-anchor="middle" x="1315.4" y="-111.5" font-family="Helvetica,sans-Serif" font-size="10.00" fill="grey">Start</text>
</g>
</g>
</svg>

<g id="navigator" transform="translate(0 0)" fill="#404254">
  <rect fill="#f2f5e9" fill-opacity="0.5" stroke="#606060" stroke-width=".5" x="0" y="0" width="60" height="60"/>
  <use id="zoomplus" xlink:href="#zoomPlus" x="17" y="9" onmousedown="handleZoom(evt,'in')"/>
  <use id="zoomminus" xlink:href="#zoomMin" x="42" y="9" onmousedown="handleZoom(evt,'out')"/>
  <use id="reset" xlink:href="#resetDef" x="30" y="36" onmousedown="handleReset()"/>
   <use id="arrowup" xlink:href="#arrowUp" x="0" y="0" onmousedown="handlePan(0,-1)"/>
  <use id="arrowright" xlink:href="#arrowRight" x="0" y="0" onmousedown="handlePan(1,0)"/>
  <use id="arrowdown" xlink:href="#arrowDown" x="0" y="0" onmousedown="handlePan(0,1)"/>
  <use id="arrowleft" xlink:href="#arrowLeft" x="0" y="0" onmousedown="handlePan(-1,0)"/>
</g>
<svg viewBox="0 0 15 15" width="100%" height="30px" preserveAspectRatio="xMaxYMin meet">
 <g id="arrow_out" transform="scale(0.3 0.3)">
  <a xlink:href="classOCheepCheep__coll__graph_org.svg" target="_base">
   <rect id="button" ry="5" rx="5" y="6" x="6" height="38" width="38"
        fill="#f2f5e9" fill-opacity="0.5" stroke="#606060" stroke-width="1.0"/>
   <path id="arrow"
     d="M 11.500037,31.436501 C 11.940474,20.09759 22.043105,11.32322 32.158766,21.979434 L 37.068811,17.246167 C 37.068811,17.246167 37.088388,32 37.088388,32 L 22.160133,31.978069 C 22.160133,31.978069 26.997745,27.140456 26.997745,27.140456 C 18.528582,18.264221 13.291696,25.230495 11.500037,31.436501 z"
     style="fill:#404040;"/>
  </a>
 </g>
</svg>

<style type='text/css'>
<![CDATA[
[data-mouse-over-selected='false'] { opacity: 0.7; }
[data-mouse-over-selected='true']  { opacity: 1.0; }
]]>
</style>
<script type="application/ecmascript"><![CDATA[
document.addEventListener('DOMContentLoaded', (event) => {
  highlightEdges();
  highlightAdjacentNodes();
});
]]></script>
</svg>
