<?xml version="1.0" encoding="UTF-8" standalone="no"?>
<!DOCTYPE svg PUBLIC "-//W3C//DTD SVG 1.1//EN"
 "http://www.w3.org/Graphics/SVG/1.1/DTD/svg11.dtd">
<!-- Generated by graphviz version 2.43.0 (0)
 -->
<!-- Title: OPenguin Pages: 1 -->
<svg width="1045pt" height="588pt"
 viewBox="0.00 0.00 1044.53 588.00" xmlns="http://www.w3.org/2000/svg" xmlns:xlink="http://www.w3.org/1999/xlink">
<g id="graph0" class="graph" transform="scale(1 1) rotate(0) translate(4 584)">
<title>OPenguin</title>
<!-- Node1 -->
<g id="Node000001" class="node">
<title>Node1</title>
<g id="a_Node000001"><a xlink:title=" ">
<polygon fill="#999999" stroke="#666666" points="436.03,-19 373.03,-19 373.03,0 436.03,0 436.03,-19"/>
<text text-anchor="middle" x="404.53" y="-7" font-family="Helvetica,sans-Serif" font-size="10.00">OPenguin</text>
</a>
</g>
</g>
<!-- Node2 -->
<g id="Node000002" class="node">
<title>Node2</title>
<g id="a_Node000002"><a xlink:href="classOObject.html" target="_top" xlink:title=" ">
<polygon fill="white" stroke="#666666" points="264.53,-85 208.53,-85 208.53,-66 264.53,-66 264.53,-85"/>
<text text-anchor="middle" x="236.53" y="-73" font-family="Helvetica,sans-Serif" font-size="10.00">OObject</text>
</a>
</g>
</g>
<!-- Node2&#45;&gt;Node1 -->
<g id="edge1_Node000001_Node000002" class="edge">
<title>Node2&#45;&gt;Node1</title>
<g id="a_edge1_Node000001_Node000002"><a xlink:title=" ">
<path fill="none" stroke="#63b8ff" d="M268.88,-62.18C302.08,-49.53 352.87,-30.18 381.96,-19.1"/>
<polygon fill="#63b8ff" stroke="#63b8ff" points="267.28,-59.04 259.18,-65.87 269.77,-65.58 267.28,-59.04"/>
</a>
</g>
</g>
<!-- Node3 -->
<g id="Node000003" class="node">
<title>Node3</title>
<g id="a_Node000003"><a xlink:title=" ">
<polygon fill="white" stroke="#666666" points="82.53,-151 32.53,-151 32.53,-132 82.53,-132 82.53,-151"/>
<text text-anchor="middle" x="57.53" y="-139" font-family="Helvetica,sans-Serif" font-size="10.00">uint8_t</text>
</a>
</g>
</g>
<!-- Node3&#45;&gt;Node2 -->
<g id="edge2_Node000002_Node000003" class="edge">
<title>Node3&#45;&gt;Node2</title>
<g id="a_edge2_Node000002_Node000003"><a xlink:title=" ">
<path fill="none" stroke="#9a32cd" stroke-dasharray="5,2" d="M64.27,-122.2C67.77,-115.14 72.76,-107.66 79.53,-103 99.95,-88.92 168.92,-81.55 208.32,-78.41"/>
<polygon fill="#9a32cd" stroke="#9a32cd" points="60.86,-121.28 60.17,-131.85 67.3,-124.01 60.86,-121.28"/>
</a>
</g>
<text text-anchor="middle" x="92.03" y="-106" font-family="Helvetica,sans-Serif" font-size="10.00" fill="grey"> uuid</text>
</g>
<!-- Node4 -->
<g id="Node000004" class="node">
<title>Node4</title>
<g id="a_Node000004"><a xlink:href="structObject.html" target="_top" xlink:title=" ">
<polygon fill="white" stroke="#666666" points="543.53,-151 495.53,-151 495.53,-132 543.53,-132 543.53,-151"/>
<text text-anchor="middle" x="519.53" y="-139" font-family="Helvetica,sans-Serif" font-size="10.00">Object</text>
</a>
</g>
</g>
<!-- Node4&#45;&gt;Node2 -->
<g id="edge3_Node000002_Node000004" class="edge">
<title>Node4&#45;&gt;Node2</title>
<g id="a_edge3_Node000002_Node000004"><a xlink:title=" ">
<path fill="none" stroke="#9a32cd" stroke-dasharray="5,2" d="M485.3,-141.13C422.27,-141.66 290.94,-139.53 254.53,-114 244.95,-107.28 240.28,-94.05 238.15,-85.24"/>
<polygon fill="#9a32cd" stroke="#9a32cd" points="485.56,-144.63 495.52,-141.02 485.48,-137.63 485.56,-144.63"/>
</a>
</g>
<text text-anchor="middle" x="259.53" y="-106" font-family="Helvetica,sans-Serif" font-size="10.00" fill="grey"> o</text>
</g>
<!-- Node5 -->
<g id="Node000005" class="node">
<title>Node5</title>
<g id="a_Node000005"><a xlink:title=" ">
<polygon fill="white" stroke="#666666" points="106.53,-327 74.53,-327 74.53,-308 106.53,-308 106.53,-327"/>
<text text-anchor="middle" x="90.53" y="-315" font-family="Helvetica,sans-Serif" font-size="10.00">f32</text>
</a>
</g>
</g>
<!-- Node5&#45;&gt;Node1 -->
<g id="edge22_Node000001_Node000005" class="edge">
<title>Node5&#45;&gt;Node1</title>
<g id="a_edge22_Node000001_Node000005"><a xlink:title=" ">
<path fill="none" stroke="#9a32cd" stroke-dasharray="5,2" d="M75.35,-300.16C41.69,-261.92 -32.52,-165.11 16.53,-103 61.05,-46.61 288.31,-20.86 372.82,-13.13"/>
<polygon fill="#9a32cd" stroke="#9a32cd" points="72.93,-302.71 82.22,-307.8 78.13,-298.02 72.93,-302.71"/>
</a>
</g>
<text text-anchor="middle" x="41.03" y="-106" font-family="Helvetica,sans-Serif" font-size="10.00" fill="grey"> Diameter</text>
</g>
<!-- Node5&#45;&gt;Node4 -->
<g id="edge4_Node000004_Node000005" class="edge">
<title>Node5&#45;&gt;Node4</title>
<g id="a_edge4_Node000004_Node000005"><a xlink:title=" ">
<path fill="none" stroke="#9a32cd" stroke-dasharray="5,2" d="M94.89,-297.94C103.62,-265.47 126.53,-198.95 173.53,-169 200.52,-151.8 421.1,-144.9 495.29,-143.05"/>
<polygon fill="#9a32cd" stroke="#9a32cd" points="91.44,-297.34 92.38,-307.89 98.22,-299.05 91.44,-297.34"/>
</a>
</g>
<text text-anchor="middle" x="208.03" y="-265.5" font-family="Helvetica,sans-Serif" font-size="10.00" fill="grey"> offset</text>
<text text-anchor="middle" x="208.03" y="-254.5" font-family="Helvetica,sans-Serif" font-size="10.00" fill="grey">origin_pos</text>
<text text-anchor="middle" x="208.03" y="-243.5" font-family="Helvetica,sans-Serif" font-size="10.00" fill="grey">pos</text>
<text text-anchor="middle" x="208.03" y="-232.5" font-family="Helvetica,sans-Serif" font-size="10.00" fill="grey">sizeScaling</text>
<text text-anchor="middle" x="208.03" y="-221.5" font-family="Helvetica,sans-Serif" font-size="10.00" fill="grey">surfaceHeight</text>
<text text-anchor="middle" x="208.03" y="-210.5" font-family="Helvetica,sans-Serif" font-size="10.00" fill="grey">unk_01C</text>
<text text-anchor="middle" x="208.03" y="-199.5" font-family="Helvetica,sans-Serif" font-size="10.00" fill="grey">unk_034</text>
<text text-anchor="middle" x="208.03" y="-188.5" font-family="Helvetica,sans-Serif" font-size="10.00" fill="grey">velocity</text>
</g>
<!-- Node6 -->
<g id="Node000006" class="node">
<title>Node6</title>
<g id="a_Node000006"><a xlink:title=" ">
<polygon fill="white" stroke="#666666" points="253.53,-327 219.53,-327 219.53,-308 253.53,-308 253.53,-327"/>
<text text-anchor="middle" x="236.53" y="-315" font-family="Helvetica,sans-Serif" font-size="10.00">s32</text>
</a>
</g>
</g>
<!-- Node6&#45;&gt;Node2 -->
<g id="edge21_Node000002_Node000006" class="edge">
<title>Node6&#45;&gt;Node2</title>
<g id="a_edge21_Node000002_Node000006"><a xlink:title=" ">
<path fill="none" stroke="#9a32cd" stroke-dasharray="5,2" d="M209.17,-313.32C181.61,-309.48 141.86,-302.01 132.53,-290 89.44,-234.55 96.4,-192.22 132.53,-132 148.84,-104.8 183.53,-90.19 208.35,-82.9"/>
<polygon fill="#9a32cd" stroke="#9a32cd" points="209.04,-316.83 219.4,-314.66 209.94,-309.89 209.04,-316.83"/>
</a>
</g>
<text text-anchor="middle" x="165.53" y="-139" font-family="Helvetica,sans-Serif" font-size="10.00" fill="grey"> _objectIndex</text>
</g>
<!-- Node6&#45;&gt;Node4 -->
<g id="edge5_Node000004_Node000006" class="edge">
<title>Node6&#45;&gt;Node4</title>
<g id="a_edge5_Node000004_Node000006"><a xlink:title=" ">
<path fill="none" stroke="#9a32cd" stroke-dasharray="5,2" d="M243.81,-298.39C244.8,-295.6 245.74,-292.74 246.53,-290 261.59,-237.28 230.06,-205.99 270.53,-169 286.93,-154.01 436.02,-146.06 495.34,-143.47"/>
<polygon fill="#9a32cd" stroke="#9a32cd" points="240.52,-297.2 240.23,-307.79 247.06,-299.69 240.52,-297.2"/>
</a>
</g>
<text text-anchor="middle" x="292.03" y="-254.5" font-family="Helvetica,sans-Serif" font-size="10.00" fill="grey"> status</text>
<text text-anchor="middle" x="292.03" y="-243.5" font-family="Helvetica,sans-Serif" font-size="10.00" fill="grey">timer</text>
<text text-anchor="middle" x="292.03" y="-232.5" font-family="Helvetica,sans-Serif" font-size="10.00" fill="grey">unk_048</text>
<text text-anchor="middle" x="292.03" y="-221.5" font-family="Helvetica,sans-Serif" font-size="10.00" fill="grey">unk_04C</text>
<text text-anchor="middle" x="292.03" y="-210.5" font-family="Helvetica,sans-Serif" font-size="10.00" fill="grey">unk_058</text>
<text text-anchor="middle" x="292.03" y="-199.5" font-family="Helvetica,sans-Serif" font-size="10.00" fill="grey">unk_05C</text>
</g>
<!-- Node7 -->
<g id="Node000007" class="node">
<title>Node7</title>
<g id="a_Node000007"><a xlink:title=" ">
<polygon fill="white" stroke="#666666" points="355.03,-327 280.03,-327 280.03,-308 355.03,-308 355.03,-327"/>
<text text-anchor="middle" x="317.53" y="-315" font-family="Helvetica,sans-Serif" font-size="10.00">const char *</text>
</a>
</g>
</g>
<!-- Node7&#45;&gt;Node2 -->
<g id="edge19_Node000002_Node000007" class="edge">
<title>Node7&#45;&gt;Node2</title>
<g id="a_edge19_Node000002_Node000007"><a xlink:title=" ">
<path fill="none" stroke="#9a32cd" stroke-dasharray="5,2" d="M269.92,-308.99C223.1,-301.54 158.45,-291.09 157.53,-290 122.74,-248.98 128.12,-214.03 157.53,-169 168.41,-152.34 184.05,-164.66 198.53,-151 218.59,-132.07 229.8,-100.2 234.25,-85.03"/>
<polygon fill="#9a32cd" stroke="#9a32cd" points="269.48,-312.46 279.91,-310.57 270.58,-305.55 269.48,-312.46"/>
</a>
</g>
<text text-anchor="middle" x="231.03" y="-139" font-family="Helvetica,sans-Serif" font-size="10.00" fill="grey"> Name</text>
</g>
<!-- Node7&#45;&gt;Node4 -->
<g id="edge6_Node000004_Node000007" class="edge">
<title>Node7&#45;&gt;Node4</title>
<g id="a_edge6_Node000004_Node000007"><a xlink:title=" ">
<path fill="none" stroke="#9a32cd" stroke-dasharray="5,2" d="M317.24,-297.88C317.1,-262.35 318.96,-186.85 336.53,-169 358.2,-146.98 450.75,-143.09 495.33,-142.52"/>
<polygon fill="#9a32cd" stroke="#9a32cd" points="313.74,-297.92 317.33,-307.88 320.74,-297.85 313.74,-297.92"/>
</a>
</g>
<text text-anchor="middle" x="370.03" y="-232.5" font-family="Helvetica,sans-Serif" font-size="10.00" fill="grey"> activeTLUT</text>
<text text-anchor="middle" x="370.03" y="-221.5" font-family="Helvetica,sans-Serif" font-size="10.00" fill="grey">activeTexture</text>
</g>
<!-- Node8 -->
<g id="Node000008" class="node">
<title>Node8</title>
<g id="a_Node000008"><a xlink:title=" ">
<polygon fill="white" stroke="#666666" points="800.03,-327 771.03,-327 771.03,-308 800.03,-308 800.03,-327"/>
<text text-anchor="middle" x="785.53" y="-315" font-family="Helvetica,sans-Serif" font-size="10.00">u8</text>
</a>
</g>
</g>
<!-- Node8&#45;&gt;Node4 -->
<g id="edge7_Node000004_Node000008" class="edge">
<title>Node8&#45;&gt;Node4</title>
<g id="a_edge7_Node000004_Node000008"><a xlink:title=" ">
<path fill="none" stroke="#9a32cd" stroke-dasharray="5,2" d="M771.17,-299.82C769.01,-296.71 767.02,-293.37 765.53,-290 743.35,-239.95 783,-205.86 742.53,-169 711.17,-140.44 594.3,-158.31 552.53,-151 549.61,-150.49 546.58,-149.85 543.58,-149.16"/>
<polygon fill="#9a32cd" stroke="#9a32cd" points="768.48,-302.07 777.37,-307.84 774.02,-297.79 768.48,-302.07"/>
</a>
</g>
<text text-anchor="middle" x="801.03" y="-282" font-family="Helvetica,sans-Serif" font-size="10.00" fill="grey"> textureHeight</text>
<text text-anchor="middle" x="801.03" y="-271" font-family="Helvetica,sans-Serif" font-size="10.00" fill="grey">textureWidth</text>
<text text-anchor="middle" x="801.03" y="-260" font-family="Helvetica,sans-Serif" font-size="10.00" fill="grey">tlutList</text>
<text text-anchor="middle" x="801.03" y="-249" font-family="Helvetica,sans-Serif" font-size="10.00" fill="grey">unk_0D5</text>
<text text-anchor="middle" x="801.03" y="-238" font-family="Helvetica,sans-Serif" font-size="10.00" fill="grey">unk_0D6</text>
<text text-anchor="middle" x="801.03" y="-227" font-family="Helvetica,sans-Serif" font-size="10.00" fill="grey">unk_0D7</text>
<text text-anchor="middle" x="801.03" y="-216" font-family="Helvetica,sans-Serif" font-size="10.00" fill="grey">unk_0D8</text>
<text text-anchor="middle" x="801.03" y="-205" font-family="Helvetica,sans-Serif" font-size="10.00" fill="grey">unk_0DB</text>
<text text-anchor="middle" x="801.03" y="-194" font-family="Helvetica,sans-Serif" font-size="10.00" fill="grey">unk_0DC</text>
<text text-anchor="middle" x="801.03" y="-183" font-family="Helvetica,sans-Serif" font-size="10.00" fill="grey">unk_0DD</text>
<text text-anchor="middle" x="801.03" y="-172" font-family="Helvetica,sans-Serif" font-size="10.00" fill="grey">...</text>
</g>
<!-- Node9 -->
<g id="Node000009" class="node">
<title>Node9</title>
<g id="a_Node000009"><a xlink:title=" ">
<polygon fill="white" stroke="#666666" points="898.53,-327 818.53,-327 818.53,-308 898.53,-308 898.53,-327"/>
<text text-anchor="middle" x="858.53" y="-315" font-family="Helvetica,sans-Serif" font-size="10.00">const char **</text>
</a>
</g>
</g>
<!-- Node9&#45;&gt;Node4 -->
<g id="edge8_Node000004_Node000009" class="edge">
<title>Node9&#45;&gt;Node4</title>
<g id="a_edge8_Node000004_Node000009"><a xlink:title=" ">
<path fill="none" stroke="#9a32cd" stroke-dasharray="5,2" d="M858.53,-297.73C858.12,-261.94 855.02,-185.99 836.53,-169 813.24,-147.61 583.75,-155.97 552.53,-151 549.6,-150.54 546.57,-149.93 543.57,-149.25"/>
<polygon fill="#9a32cd" stroke="#9a32cd" points="855.03,-297.83 858.59,-307.81 862.03,-297.79 855.03,-297.83"/>
</a>
</g>
<text text-anchor="middle" x="885.53" y="-227" font-family="Helvetica,sans-Serif" font-size="10.00" fill="grey"> textureList</text>
</g>
<!-- Node10 -->
<g id="Node000010" class="node">
<title>Node10</title>
<g id="a_Node000010"><a xlink:title=" ">
<polygon fill="white" stroke="#666666" points="954.53,-327 920.53,-327 920.53,-308 954.53,-308 954.53,-327"/>
<text text-anchor="middle" x="937.53" y="-315" font-family="Helvetica,sans-Serif" font-size="10.00">Gfx</text>
</a>
</g>
</g>
<!-- Node10&#45;&gt;Node4 -->
<g id="edge9_Node000004_Node000010" class="edge">
<title>Node10&#45;&gt;Node4</title>
<g id="a_edge9_Node000004_Node000010"><a xlink:title=" ">
<path fill="none" stroke="#9a32cd" stroke-dasharray="5,2" d="M937.55,-297.71C937.18,-261.88 934.14,-185.86 915.53,-169 885.6,-141.89 592.45,-157.07 552.53,-151 549.6,-150.56 546.56,-149.96 543.56,-149.29"/>
<polygon fill="#9a32cd" stroke="#9a32cd" points="934.06,-297.82 937.6,-307.8 941.06,-297.78 934.06,-297.82"/>
</a>
</g>
<text text-anchor="middle" x="953.53" y="-227" font-family="Helvetica,sans-Serif" font-size="10.00" fill="grey"> model</text>
</g>
<!-- Node11 -->
<g id="Node000011" class="node">
<title>Node11</title>
<g id="a_Node000011"><a xlink:title=" ">
<polygon fill="white" stroke="#666666" points="1011.03,-327 978.03,-327 978.03,-308 1011.03,-308 1011.03,-327"/>
<text text-anchor="middle" x="994.53" y="-315" font-family="Helvetica,sans-Serif" font-size="10.00">Vtx</text>
</a>
</g>
</g>
<!-- Node11&#45;&gt;Node4 -->
<g id="edge10_Node000004_Node000011" class="edge">
<title>Node11&#45;&gt;Node4</title>
<g id="a_edge10_Node000004_Node000011"><a xlink:title=" ">
<path fill="none" stroke="#9a32cd" stroke-dasharray="5,2" d="M998.36,-297.66C1003.62,-265.79 1008.69,-201.55 972.53,-169 955.17,-153.38 575.63,-154.43 552.53,-151 549.6,-150.57 546.56,-149.98 543.56,-149.31"/>
<polygon fill="#9a32cd" stroke="#9a32cd" points="994.86,-297.35 996.49,-307.82 1001.74,-298.62 994.86,-297.35"/>
</a>
</g>
<text text-anchor="middle" x="1019.03" y="-227" font-family="Helvetica,sans-Serif" font-size="10.00" fill="grey"> vertex</text>
</g>
<!-- Node12 -->
<g id="Node000012" class="node">
<title>Node12</title>
<g id="a_Node000012"><a xlink:title=" ">
<polygon fill="white" stroke="#666666" points="439.03,-327 410.03,-327 410.03,-308 439.03,-308 439.03,-327"/>
<text text-anchor="middle" x="424.53" y="-315" font-family="Helvetica,sans-Serif" font-size="10.00">s8</text>
</a>
</g>
</g>
<!-- Node12&#45;&gt;Node4 -->
<g id="edge11_Node000004_Node000012" class="edge">
<title>Node12&#45;&gt;Node4</title>
<g id="a_edge11_Node000004_Node000012"><a xlink:title=" ">
<path fill="none" stroke="#9a32cd" stroke-dasharray="5,2" d="M418.25,-298.01C409.22,-267.67 396.63,-206.91 425.53,-169 441.67,-147.83 473.36,-142.66 495.47,-141.83"/>
<polygon fill="#9a32cd" stroke="#9a32cd" points="414.97,-299.24 421.33,-307.71 421.64,-297.12 414.97,-299.24"/>
</a>
</g>
<text text-anchor="middle" x="465.53" y="-282" font-family="Helvetica,sans-Serif" font-size="10.00" fill="grey"> isTimerActive</text>
<text text-anchor="middle" x="465.53" y="-271" font-family="Helvetica,sans-Serif" font-size="10.00" fill="grey">textureListIndex</text>
<text text-anchor="middle" x="465.53" y="-260" font-family="Helvetica,sans-Serif" font-size="10.00" fill="grey">unk_078</text>
<text text-anchor="middle" x="465.53" y="-249" font-family="Helvetica,sans-Serif" font-size="10.00" fill="grey">unk_0CA</text>
<text text-anchor="middle" x="465.53" y="-238" font-family="Helvetica,sans-Serif" font-size="10.00" fill="grey">unk_0CC</text>
<text text-anchor="middle" x="465.53" y="-227" font-family="Helvetica,sans-Serif" font-size="10.00" fill="grey">unk_0CD</text>
<text text-anchor="middle" x="465.53" y="-216" font-family="Helvetica,sans-Serif" font-size="10.00" fill="grey">unk_0CE</text>
<text text-anchor="middle" x="465.53" y="-205" font-family="Helvetica,sans-Serif" font-size="10.00" fill="grey">unk_0CF</text>
<text text-anchor="middle" x="465.53" y="-194" font-family="Helvetica,sans-Serif" font-size="10.00" fill="grey">unk_0D0</text>
<text text-anchor="middle" x="465.53" y="-183" font-family="Helvetica,sans-Serif" font-size="10.00" fill="grey">unk_0D1</text>
<text text-anchor="middle" x="465.53" y="-172" font-family="Helvetica,sans-Serif" font-size="10.00" fill="grey">...</text>
</g>
<!-- Node13 -->
<g id="Node000013" class="node">
<title>Node13</title>
<g id="a_Node000013"><a xlink:href="structSplineControlPoint.html" target="_top" xlink:title=" ">
<polygon fill="white" stroke="#666666" points="626.03,-503 519.03,-503 519.03,-484 626.03,-484 626.03,-503"/>
<text text-anchor="middle" x="572.53" y="-491" font-family="Helvetica,sans-Serif" font-size="10.00">SplineControlPoint</text>
</a>
</g>
</g>
<!-- Node13&#45;&gt;Node4 -->
<g id="edge12_Node000004_Node000013" class="edge">
<title>Node13&#45;&gt;Node4</title>
<g id="a_edge12_Node000004_Node000013"><a xlink:title=" ">
<path fill="none" stroke="#9a32cd" stroke-dasharray="5,2" d="M568.83,-473.71C568.37,-471.12 567.92,-468.5 567.53,-466 557.24,-400.29 547.54,-233.3 530.53,-169 528.89,-162.84 526.14,-156.21 523.8,-151.13"/>
<polygon fill="#9a32cd" stroke="#9a32cd" points="565.42,-474.52 570.72,-483.69 572.3,-473.21 565.42,-474.52"/>
</a>
</g>
<text text-anchor="middle" x="585.03" y="-315" font-family="Helvetica,sans-Serif" font-size="10.00" fill="grey"> controlPoints</text>
</g>
<!-- Node15 -->
<g id="Node000015" class="node">
<title>Node15</title>
<g id="a_Node000015"><a xlink:href="structSplineData.html" target="_top" xlink:title=" ">
<polygon fill="white" stroke="#666666" points="699.53,-327 629.53,-327 629.53,-308 699.53,-308 699.53,-327"/>
<text text-anchor="middle" x="664.53" y="-315" font-family="Helvetica,sans-Serif" font-size="10.00">SplineData</text>
</a>
</g>
</g>
<!-- Node13&#45;&gt;Node15 -->
<g id="edge16_Node000015_Node000013" class="edge">
<title>Node13&#45;&gt;Node15</title>
<g id="a_edge16_Node000015_Node000013"><a xlink:title=" ">
<path fill="none" stroke="#9a32cd" stroke-dasharray="5,2" d="M571.99,-473.23C571.41,-437.85 572.15,-364.39 587.53,-345 593.06,-338.02 611.8,-331.49 629.4,-326.66"/>
<polygon fill="#9a32cd" stroke="#9a32cd" points="568.5,-473.71 572.22,-483.63 575.5,-473.56 568.5,-473.71"/>
</a>
</g>
<text text-anchor="middle" x="621.03" y="-403" font-family="Helvetica,sans-Serif" font-size="10.00" fill="grey"> controlPoints</text>
</g>
<!-- Node14 -->
<g id="Node000014" class="node">
<title>Node14</title>
<g id="a_Node000014"><a xlink:title=" ">
<polygon fill="white" stroke="#666666" points="589.53,-580 555.53,-580 555.53,-561 589.53,-561 589.53,-580"/>
<text text-anchor="middle" x="572.53" y="-568" font-family="Helvetica,sans-Serif" font-size="10.00">s16</text>
</a>
</g>
</g>
<!-- Node14&#45;&gt;Node4 -->
<g id="edge17_Node000004_Node000014" class="edge">
<title>Node14&#45;&gt;Node4</title>
<g id="a_edge17_Node000004_Node000014"><a xlink:title=" ">
<path fill="none" stroke="#9a32cd" stroke-dasharray="5,2" d="M554.69,-553.99C541.08,-541.39 522.67,-522.54 510.53,-503 501.25,-488.07 499.69,-483.3 496.53,-466 486.85,-413.1 492.17,-398.6 496.53,-345 498.53,-320.31 502.35,-314.57 505.53,-290 512.31,-237.45 517.24,-173.96 518.91,-151.17"/>
<polygon fill="#9a32cd" stroke="#9a32cd" points="552.67,-556.89 562.44,-560.99 557.36,-551.69 552.67,-556.89"/>
</a>
</g>
<text text-anchor="middle" x="523.53" y="-458" font-family="Helvetica,sans-Serif" font-size="10.00" fill="grey"> primAlpha</text>
<text text-anchor="middle" x="523.53" y="-447" font-family="Helvetica,sans-Serif" font-size="10.00" fill="grey">state</text>
<text text-anchor="middle" x="523.53" y="-436" font-family="Helvetica,sans-Serif" font-size="10.00" fill="grey">type</text>
<text text-anchor="middle" x="523.53" y="-425" font-family="Helvetica,sans-Serif" font-size="10.00" fill="grey">unk_084</text>
<text text-anchor="middle" x="523.53" y="-414" font-family="Helvetica,sans-Serif" font-size="10.00" fill="grey">unk_09C</text>
<text text-anchor="middle" x="523.53" y="-403" font-family="Helvetica,sans-Serif" font-size="10.00" fill="grey">unk_09E</text>
<text text-anchor="middle" x="523.53" y="-392" font-family="Helvetica,sans-Serif" font-size="10.00" fill="grey">unk_0A2</text>
<text text-anchor="middle" x="523.53" y="-381" font-family="Helvetica,sans-Serif" font-size="10.00" fill="grey">unk_0A8</text>
<text text-anchor="middle" x="523.53" y="-370" font-family="Helvetica,sans-Serif" font-size="10.00" fill="grey">unk_0AA</text>
<text text-anchor="middle" x="523.53" y="-359" font-family="Helvetica,sans-Serif" font-size="10.00" fill="grey">unk_0AC</text>
<text text-anchor="middle" x="523.53" y="-348" font-family="Helvetica,sans-Serif" font-size="10.00" fill="grey">...</text>
</g>
<!-- Node14&#45;&gt;Node13 -->
<g id="edge13_Node000013_Node000014" class="edge">
<title>Node14&#45;&gt;Node13</title>
<g id="a_edge13_Node000013_Node000014"><a xlink:title=" ">
<path fill="none" stroke="#9a32cd" stroke-dasharray="5,2" d="M572.53,-550.52C572.53,-535.24 572.53,-514.48 572.53,-503"/>
<polygon fill="#9a32cd" stroke="#9a32cd" points="569.03,-550.9 572.53,-560.9 576.03,-550.9 569.03,-550.9"/>
</a>
</g>
<text text-anchor="middle" x="592.53" y="-535" font-family="Helvetica,sans-Serif" font-size="10.00" fill="grey"> pos</text>
<text text-anchor="middle" x="592.53" y="-524" font-family="Helvetica,sans-Serif" font-size="10.00" fill="grey">velocity</text>
</g>
<!-- Node14&#45;&gt;Node15 -->
<g id="edge15_Node000015_Node000014" class="edge">
<title>Node14&#45;&gt;Node15</title>
<g id="a_edge15_Node000015_Node000014"><a xlink:title=" ">
<path fill="none" stroke="#9a32cd" stroke-dasharray="5,2" d="M598.71,-557.06C605.08,-553.18 611.5,-548.47 616.53,-543 642.36,-514.91 644.6,-502.85 654.53,-466 668.34,-414.7 666.35,-349.92 665.09,-327"/>
<polygon fill="#9a32cd" stroke="#9a32cd" points="596.63,-554.21 589.59,-562.12 600.03,-560.33 596.63,-554.21"/>
</a>
</g>
<text text-anchor="middle" x="694.03" y="-491" font-family="Helvetica,sans-Serif" font-size="10.00" fill="grey"> numControlPoints</text>
</g>
<!-- Node15&#45;&gt;Node4 -->
<g id="edge14_Node000004_Node000015" class="edge">
<title>Node15&#45;&gt;Node4</title>
<g id="a_edge14_Node000004_Node000015"><a xlink:title=" ">
<path fill="none" stroke="#9a32cd" stroke-dasharray="5,2" d="M621.08,-303.91C613.86,-300.32 606.97,-295.76 601.53,-290 562.33,-248.52 593.41,-214.17 558.53,-169 552.82,-161.61 544.46,-155.55 536.95,-151.1"/>
<polygon fill="#9a32cd" stroke="#9a32cd" points="619.74,-307.15 630.3,-307.96 622.55,-300.74 619.74,-307.15"/>
</a>
</g>
<text text-anchor="middle" x="618.03" y="-227" font-family="Helvetica,sans-Serif" font-size="10.00" fill="grey"> spline</text>
</g>
<!-- Node16 -->
<g id="Node000016" class="node">
<title>Node16</title>
<g id="a_Node000016"><a xlink:title=" ">
<polygon fill="white" stroke="#666666" points="753.03,-327 718.03,-327 718.03,-308 753.03,-308 753.03,-327"/>
<text text-anchor="middle" x="735.53" y="-315" font-family="Helvetica,sans-Serif" font-size="10.00">u16</text>
</a>
</g>
</g>
<!-- Node16&#45;&gt;Node4 -->
<g id="edge18_Node000004_Node000016" class="edge">
<title>Node16&#45;&gt;Node4</title>
<g id="a_edge18_Node000004_Node000016"><a xlink:title=" ">
<path fill="none" stroke="#9a32cd" stroke-dasharray="5,2" d="M708.08,-307.53C685.97,-300.25 658.42,-291.03 657.53,-290 621.61,-248.69 672.68,-208.25 634.53,-169 608.52,-142.25 588.82,-159.65 552.53,-151 549.65,-150.31 546.64,-149.57 543.65,-148.82"/>
<polygon fill="#9a32cd" stroke="#9a32cd" points="707.14,-310.91 717.74,-310.7 709.33,-304.26 707.14,-310.91"/>
</a>
</g>
<text text-anchor="middle" x="700.03" y="-265.5" font-family="Helvetica,sans-Serif" font-size="10.00" fill="grey"> animationTimer</text>
<text text-anchor="middle" x="700.03" y="-254.5" font-family="Helvetica,sans-Serif" font-size="10.00" fill="grey">boundingBoxSize</text>
<text text-anchor="middle" x="700.03" y="-243.5" font-family="Helvetica,sans-Serif" font-size="10.00" fill="grey">direction_angle</text>
<text text-anchor="middle" x="700.03" y="-232.5" font-family="Helvetica,sans-Serif" font-size="10.00" fill="grey">orientation</text>
<text text-anchor="middle" x="700.03" y="-221.5" font-family="Helvetica,sans-Serif" font-size="10.00" fill="grey">unk_09A</text>
<text text-anchor="middle" x="700.03" y="-210.5" font-family="Helvetica,sans-Serif" font-size="10.00" fill="grey">unk_0B8</text>
<text text-anchor="middle" x="700.03" y="-199.5" font-family="Helvetica,sans-Serif" font-size="10.00" fill="grey">unk_0C4</text>
<text text-anchor="middle" x="700.03" y="-188.5" font-family="Helvetica,sans-Serif" font-size="10.00" fill="grey">unk_0C6</text>
</g>
<!-- Node17 -->
<g id="Node000017" class="node">
<title>Node17</title>
<g id="a_Node000017"><a xlink:title=" ">
<polygon fill="white" stroke="#666666" points="599.53,-151 561.53,-151 561.53,-132 599.53,-132 599.53,-151"/>
<text text-anchor="middle" x="580.53" y="-139" font-family="Helvetica,sans-Serif" font-size="10.00">bool</text>
</a>
</g>
</g>
<!-- Node17&#45;&gt;Node1 -->
<g id="edge24_Node000001_Node000017" class="edge">
<title>Node17&#45;&gt;Node1</title>
<g id="a_edge24_Node000001_Node000017"><a xlink:title=" ">
<path fill="none" stroke="#9a32cd" stroke-dasharray="5,2" d="M551.71,-131.76C500.16,-116.13 397.53,-85 397.53,-85 382.98,-65.38 393.57,-34.4 400.23,-19.32"/>
<polygon fill="#9a32cd" stroke="#9a32cd" points="550.7,-135.11 561.29,-134.67 552.73,-128.41 550.7,-135.11"/>
</a>
</g>
<text text-anchor="middle" x="417.53" y="-73" font-family="Helvetica,sans-Serif" font-size="10.00" fill="grey"> _toggle</text>
</g>
<!-- Node17&#45;&gt;Node2 -->
<g id="edge20_Node000002_Node000017" class="edge">
<title>Node17&#45;&gt;Node2</title>
<g id="a_edge20_Node000002_Node000017"><a xlink:title=" ">
<path fill="none" stroke="#9a32cd" stroke-dasharray="5,2" d="M551.33,-132.3C434.28,-113.05 395.35,-153.47 287.53,-114 270.6,-107.8 254.43,-94.16 244.99,-85.15"/>
<polygon fill="#9a32cd" stroke="#9a32cd" points="550.93,-135.78 561.39,-134.06 552.14,-128.89 550.93,-135.78"/>
</a>
</g>
<text text-anchor="middle" x="331.03" y="-106" font-family="Helvetica,sans-Serif" font-size="10.00" fill="grey"> bPendingDestroy</text>
</g>
<!-- Node18 -->
<g id="Node000018" class="node">
<title>Node18</title>
<g id="a_Node000018"><a xlink:title=" ">
<polygon fill="white" stroke="#666666" points="502.53,-85 446.53,-85 446.53,-66 502.53,-66 502.53,-85"/>
<text text-anchor="middle" x="474.53" y="-73" font-family="Helvetica,sans-Serif" font-size="10.00">uint16_t</text>
</a>
</g>
</g>
<!-- Node18&#45;&gt;Node1 -->
<g id="edge23_Node000001_Node000018" class="edge">
<title>Node18&#45;&gt;Node1</title>
<g id="a_edge23_Node000001_Node000018"><a xlink:title=" ">
<path fill="none" stroke="#9a32cd" stroke-dasharray="5,2" d="M440.87,-61.43C434.24,-57.79 427.73,-53.33 422.53,-48 414.55,-39.84 409.57,-27.47 406.92,-19.19"/>
<polygon fill="#9a32cd" stroke="#9a32cd" points="439.37,-64.59 449.88,-65.9 442.48,-58.32 439.37,-64.59"/>
</a>
</g>
<text text-anchor="middle" x="481.03" y="-40" font-family="Helvetica,sans-Serif" font-size="10.00" fill="grey"> MirrorModeAngleOffset</text>
</g>
<!-- Node19 -->
<g id="Node000019" class="node">
<title>Node19</title>
<g id="a_Node000019"><a xlink:title=" ">
<polygon fill="white" stroke="#666666" points="600.53,-85 522.53,-85 522.53,-66 600.53,-66 600.53,-85"/>
<text text-anchor="middle" x="561.53" y="-73" font-family="Helvetica,sans-Serif" font-size="10.00">PenguinType</text>
</a>
</g>
</g>
<!-- Node19&#45;&gt;Node1 -->
<g id="edge25_Node000001_Node000019" class="edge">
<title>Node19&#45;&gt;Node1</title>
<g id="a_edge25_Node000001_Node000019"><a xlink:title=" ">
<path fill="none" stroke="#9a32cd" stroke-dasharray="5,2" d="M554.72,-56.28C551.21,-49.24 546.23,-41.75 539.53,-37 509.04,-15.37 465.37,-10.28 436.04,-9.6"/>
<polygon fill="#9a32cd" stroke="#9a32cd" points="551.68,-58.09 558.84,-65.91 558.12,-55.34 551.68,-58.09"/>
</a>
</g>
<text text-anchor="middle" x="564.03" y="-40" font-family="Helvetica,sans-Serif" font-size="10.00" fill="grey"> _type</text>
</g>
<!-- Node20 -->
<g id="Node000020" class="node">
<title>Node20</title>
<g id="a_Node000020"><a xlink:title=" ">
<polygon fill="white" stroke="#666666" points="684.53,-85 618.53,-85 618.53,-66 684.53,-66 684.53,-85"/>
<text text-anchor="middle" x="651.53" y="-73" font-family="Helvetica,sans-Serif" font-size="10.00">Behaviour</text>
</a>
</g>
</g>
<!-- Node20&#45;&gt;Node1 -->
<g id="edge26_Node000001_Node000020" class="edge">
<title>Node20&#45;&gt;Node1</title>
<g id="a_edge26_Node000001_Node000020"><a xlink:title=" ">
<path fill="none" stroke="#9a32cd" stroke-dasharray="5,2" d="M630.5,-60.33C617.5,-52.24 600.18,-42.62 583.53,-37 533.67,-20.17 472.42,-14.02 436.04,-11.78"/>
<polygon fill="#9a32cd" stroke="#9a32cd" points="628.82,-63.41 639.12,-65.87 632.6,-57.52 628.82,-63.41"/>
</a>
</g>
<text text-anchor="middle" x="620.03" y="-40" font-family="Helvetica,sans-Serif" font-size="10.00" fill="grey"> _bhv</text>
</g>
</g>
</svg>
