<?xml version="1.0" encoding="UTF-8" standalone="no"?>
<!DOCTYPE svg PUBLIC "-//W3C//DTD SVG 1.1//EN"
 "http://www.w3.org/Graphics/SVG/1.1/DTD/svg11.dtd">
<!-- Generated by graphviz version 2.43.0 (0)
 -->
<!-- Title: OLakitu Pages: 1 -->
<!--zoomable 588 -->

<svg id="main" version="1.1" xmlns="http://www.w3.org/2000/svg" xmlns:xlink="http://www.w3.org/1999/xlink" xml:space="preserve" onload="init(evt)">

<style type="text/css"><![CDATA[
.node, .edge {opacity: 0.7;}
.node.selected, .edge.selected {opacity: 1;}
.edge:hover path { stroke: red; }
.edge:hover polygon { stroke: red; fill: red; }
]]></style>

<defs>
  <circle id="rim" cx="0" cy="0" r="7"/>
  <circle id="rim2" cx="0" cy="0" r="3.5"/>
  <g id="zoomPlus">
    <use xlink:href="#rim" fill="#404040"><set attributeName="fill" to="#808080" begin="zoomplus.mouseover" end="zoomplus.mouseout"/></use>
    <path d="M-4,0h8M0,-4v8" fill="none" stroke="white" stroke-width="1.5" pointer-events="none"/>
  </g>
  <g id="zoomMin">
    <use xlink:href="#rim" fill="#404040"><set attributeName="fill" to="#808080" begin="zoomminus.mouseover" end="zoomminus.mouseout"/></use>
    <path d="M-4,0h8" fill="none" stroke="white" stroke-width="1.5" pointer-events="none"/>
  </g>
  <g id="arrowUp" transform="translate(30 24)">
    <use xlink:href="#rim"/>
    <path pointer-events="none" fill="none" stroke="white" stroke-width="1.5" d="M0,-3.0v7 M-2.5,-0.5L0,-3.0L2.5,-0.5"/>
  </g>
  <g id="arrowRight" transform="rotate(90) translate(36 -43)">
    <use xlink:href="#rim"/>
    <path pointer-events="none" fill="none" stroke="white" stroke-width="1.5" d="M0,-3.0v7 M-2.5,-0.5L0,-3.0L2.5,-0.5"/>
  </g>
  <g id="arrowDown" transform="rotate(180) translate(-30 -48)">
    <use xlink:href="#rim"/>
    <path pointer-events="none" fill="none" stroke="white" stroke-width="1.5" d="M0,-3.0v7 M-2.5,-0.5L0,-3.0L2.5,-0.5"/>
  </g>
  <g id="arrowLeft" transform="rotate(270) translate(-36 17)">
    <use xlink:href="#rim"/>
    <path pointer-events="none" fill="none" stroke="white" stroke-width="1.5" d="M0,-3.0v7 M-2.5,-0.5L0,-3.0L2.5,-0.5"/>
  </g>
  <g id="resetDef">
    <use xlink:href="#rim2" fill="#404040"><set attributeName="fill" to="#808080" begin="reset.mouseover" end="reset.mouseout"/></use>
  </g>
</defs>
<script type="application/ecmascript">
var viewWidth = 1102;
var viewHeight = 588;
var sectionId = 'dynsection-1';
</script>
<script type="application/ecmascript" xlink:href="svg.min.js"/>
<svg id="graph" class="graph">
<g id="viewport">
<title>OLakitu</title>
<!-- Node1 -->
<g id="Node000001" class="node">
<title>Node1</title>
<g id="a_Node000001"><a xlink:title=" ">
<polygon fill="#999999" stroke="#666666" points="835.94,-19 781.94,-19 781.94,0 835.94,0 835.94,-19"/>
<text text-anchor="middle" x="808.94" y="-7" font-family="Helvetica,sans-Serif" font-size="10.00">OLakitu</text>
</a>
</g>
</g>
<!-- Node2 -->
<g id="Node000002" class="node">
<title>Node2</title>
<g id="a_Node000002"><a xlink:href="classOObject.html" target="_top" xlink:title=" ">
<polygon fill="white" stroke="#666666" points="836.94,-85 780.94,-85 780.94,-66 836.94,-66 836.94,-85"/>
<text text-anchor="middle" x="808.94" y="-73" font-family="Helvetica,sans-Serif" font-size="10.00">OObject</text>
</a>
</g>
</g>
<!-- Node2&#45;&gt;Node1 -->
<g id="edge1_Node000001_Node000002" class="edge">
<title>Node2&#45;&gt;Node1</title>
<g id="a_edge1_Node000001_Node000002"><a xlink:title=" ">
<path fill="none" stroke="#63b8ff" d="M808.94,-55.58C808.94,-43.63 808.94,-28.72 808.94,-19.41"/>
<polygon fill="#63b8ff" stroke="#63b8ff" points="805.44,-55.87 808.94,-65.87 812.44,-55.87 805.44,-55.87"/>
</a>
</g>
</g>
<!-- Node3 -->
<g id="Node000003" class="node">
<title>Node3</title>
<g id="a_Node000003"><a xlink:title=" ">
<polygon fill="white" stroke="#666666" points="1093.94,-151 1043.94,-151 1043.94,-132 1093.94,-132 1093.94,-151"/>
<text text-anchor="middle" x="1068.94" y="-139" font-family="Helvetica,sans-Serif" font-size="10.00">uint8_t</text>
</a>
</g>
</g>
<!-- Node3&#45;&gt;Node2 -->
<g id="edge2_Node000002_Node000003" class="edge">
<title>Node3&#45;&gt;Node2</title>
<g id="a_edge2_Node000002_Node000003"><a xlink:title=" ">
<path fill="none" stroke="#9a32cd" stroke-dasharray="5,2" d="M1056.75,-123.58C1050.28,-115.95 1041.67,-107.64 1031.94,-103 957.36,-67.47 928.51,-98.04 846.94,-85 843.73,-84.49 840.39,-83.87 837.08,-83.2"/>
<polygon fill="#9a32cd" stroke="#9a32cd" points="1054.37,-126.22 1063.28,-131.95 1059.89,-121.91 1054.37,-126.22"/>
</a>
</g>
<text text-anchor="middle" x="1059.44" y="-106" font-family="Helvetica,sans-Serif" font-size="10.00" fill="grey"> uuid</text>
</g>
<!-- Node4 -->
<g id="Node000004" class="node">
<title>Node4</title>
<g id="a_Node000004"><a xlink:href="structObject.html" target="_top" xlink:title=" ">
<polygon fill="white" stroke="#666666" points="535.94,-151 487.94,-151 487.94,-132 535.94,-132 535.94,-151"/>
<text text-anchor="middle" x="511.94" y="-139" font-family="Helvetica,sans-Serif" font-size="10.00">Object</text>
</a>
</g>
</g>
<!-- Node4&#45;&gt;Node2 -->
<g id="edge3_Node000002_Node000004" class="edge">
<title>Node4&#45;&gt;Node2</title>
<g id="a_edge3_Node000002_Node000004"><a xlink:title=" ">
<path fill="none" stroke="#9a32cd" stroke-dasharray="5,2" d="M545.96,-133.17C605.15,-120.41 725.99,-94.37 780.8,-82.56"/>
<polygon fill="#9a32cd" stroke="#9a32cd" points="545.03,-129.79 535.99,-135.32 546.5,-136.63 545.03,-129.79"/>
</a>
</g>
<text text-anchor="middle" x="683.94" y="-106" font-family="Helvetica,sans-Serif" font-size="10.00" fill="grey"> o</text>
</g>
<!-- Node5 -->
<g id="Node000005" class="node">
<title>Node5</title>
<g id="a_Node000005"><a xlink:title=" ">
<polygon fill="white" stroke="#666666" points="795.94,-327 763.94,-327 763.94,-308 795.94,-308 795.94,-327"/>
<text text-anchor="middle" x="779.94" y="-315" font-family="Helvetica,sans-Serif" font-size="10.00">f32</text>
</a>
</g>
</g>
<!-- Node5&#45;&gt;Node4 -->
<g id="edge4_Node000004_Node000005" class="edge">
<title>Node5&#45;&gt;Node4</title>
<g id="a_edge4_Node000004_Node000005"><a xlink:title=" ">
<path fill="none" stroke="#9a32cd" stroke-dasharray="5,2" d="M754.63,-306.5C747.25,-302.42 739.85,-296.99 734.94,-290 703.43,-245.23 751.71,-206.61 711.94,-169 687.06,-145.48 583.54,-142.43 536,-142.3"/>
<polygon fill="#9a32cd" stroke="#9a32cd" points="753.26,-309.72 763.78,-310.95 756.32,-303.43 753.26,-309.72"/>
</a>
</g>
<text text-anchor="middle" x="769.44" y="-265.5" font-family="Helvetica,sans-Serif" font-size="10.00" fill="grey"> offset</text>
<text text-anchor="middle" x="769.44" y="-254.5" font-family="Helvetica,sans-Serif" font-size="10.00" fill="grey">origin_pos</text>
<text text-anchor="middle" x="769.44" y="-243.5" font-family="Helvetica,sans-Serif" font-size="10.00" fill="grey">pos</text>
<text text-anchor="middle" x="769.44" y="-232.5" font-family="Helvetica,sans-Serif" font-size="10.00" fill="grey">sizeScaling</text>
<text text-anchor="middle" x="769.44" y="-221.5" font-family="Helvetica,sans-Serif" font-size="10.00" fill="grey">surfaceHeight</text>
<text text-anchor="middle" x="769.44" y="-210.5" font-family="Helvetica,sans-Serif" font-size="10.00" fill="grey">unk_01C</text>
<text text-anchor="middle" x="769.44" y="-199.5" font-family="Helvetica,sans-Serif" font-size="10.00" fill="grey">unk_034</text>
<text text-anchor="middle" x="769.44" y="-188.5" font-family="Helvetica,sans-Serif" font-size="10.00" fill="grey">velocity</text>
</g>
<!-- Node6 -->
<g id="Node000006" class="node">
<title>Node6</title>
<g id="a_Node000006"><a xlink:title=" ">
<polygon fill="white" stroke="#666666" points="46.94,-327 12.94,-327 12.94,-308 46.94,-308 46.94,-327"/>
<text text-anchor="middle" x="29.94" y="-315" font-family="Helvetica,sans-Serif" font-size="10.00">s32</text>
</a>
</g>
</g>
<!-- Node6&#45;&gt;Node1 -->
<g id="edge23_Node000001_Node000006" class="edge">
<title>Node6&#45;&gt;Node1</title>
<g id="a_edge23_Node000001_Node000006"><a xlink:title=" ">
<path fill="none" stroke="#9a32cd" stroke-dasharray="5,2" d="M19.08,-298.74C17.78,-295.9 16.66,-292.94 15.94,-290 3,-237.8 -11.25,-215.4 15.94,-169 32.93,-139.98 50.24,-143.23 81.94,-132 343.68,-39.28 684.05,-16.45 781.68,-11.64"/>
<polygon fill="#9a32cd" stroke="#9a32cd" points="16.03,-300.47 23.85,-307.62 22.2,-297.16 16.03,-300.47"/>
</a>
</g>
<text text-anchor="middle" x="194.44" y="-106" font-family="Helvetica,sans-Serif" font-size="10.00" fill="grey"> _playerId</text>
</g>
<!-- Node6&#45;&gt;Node2 -->
<g id="edge21_Node000002_Node000006" class="edge">
<title>Node6&#45;&gt;Node2</title>
<g id="a_edge21_Node000002_Node000006"><a xlink:title=" ">
<path fill="none" stroke="#9a32cd" stroke-dasharray="5,2" d="M25.13,-297.65C18.37,-266.29 10.36,-203.45 43.94,-169 96.52,-115.05 648.83,-84.43 780.75,-77.85"/>
<polygon fill="#9a32cd" stroke="#9a32cd" points="21.78,-298.74 27.48,-307.67 28.6,-297.14 21.78,-298.74"/>
</a>
</g>
<text text-anchor="middle" x="197.94" y="-139" font-family="Helvetica,sans-Serif" font-size="10.00" fill="grey"> _objectIndex</text>
</g>
<!-- Node6&#45;&gt;Node4 -->
<g id="edge5_Node000004_Node000006" class="edge">
<title>Node6&#45;&gt;Node4</title>
<g id="a_edge5_Node000004_Node000006"><a xlink:title=" ">
<path fill="none" stroke="#9a32cd" stroke-dasharray="5,2" d="M38.03,-298.44C39.11,-295.65 40.12,-292.77 40.94,-290 56.39,-237.57 22.02,-205.24 62.94,-169 94.87,-140.72 399.38,-141.41 487.91,-142.22"/>
<polygon fill="#9a32cd" stroke="#9a32cd" points="34.73,-297.26 34.08,-307.84 41.18,-299.97 34.73,-297.26"/>
</a>
</g>
<text text-anchor="middle" x="84.44" y="-254.5" font-family="Helvetica,sans-Serif" font-size="10.00" fill="grey"> status</text>
<text text-anchor="middle" x="84.44" y="-243.5" font-family="Helvetica,sans-Serif" font-size="10.00" fill="grey">timer</text>
<text text-anchor="middle" x="84.44" y="-232.5" font-family="Helvetica,sans-Serif" font-size="10.00" fill="grey">unk_048</text>
<text text-anchor="middle" x="84.44" y="-221.5" font-family="Helvetica,sans-Serif" font-size="10.00" fill="grey">unk_04C</text>
<text text-anchor="middle" x="84.44" y="-210.5" font-family="Helvetica,sans-Serif" font-size="10.00" fill="grey">unk_058</text>
<text text-anchor="middle" x="84.44" y="-199.5" font-family="Helvetica,sans-Serif" font-size="10.00" fill="grey">unk_05C</text>
</g>
<!-- Node7 -->
<g id="Node000007" class="node">
<title>Node7</title>
<g id="a_Node000007"><a xlink:title=" ">
<polygon fill="white" stroke="#666666" points="917.44,-327 842.44,-327 842.44,-308 917.44,-308 917.44,-327"/>
<text text-anchor="middle" x="879.94" y="-315" font-family="Helvetica,sans-Serif" font-size="10.00">const char *</text>
</a>
</g>
</g>
<!-- Node7&#45;&gt;Node2 -->
<g id="edge19_Node000002_Node000007" class="edge">
<title>Node7&#45;&gt;Node2</title>
<g id="a_edge19_Node000002_Node000007"><a xlink:title=" ">
<path fill="none" stroke="#9a32cd" stroke-dasharray="5,2" d="M890.79,-298.74C892.09,-295.9 893.21,-292.94 893.94,-290 906.88,-237.8 913.46,-219.11 893.94,-169 879.29,-131.41 841.42,-99.84 821.54,-85.22"/>
<polygon fill="#9a32cd" stroke="#9a32cd" points="887.67,-297.16 886.03,-307.62 893.84,-300.47 887.67,-297.16"/>
</a>
</g>
<text text-anchor="middle" x="900.44" y="-139" font-family="Helvetica,sans-Serif" font-size="10.00" fill="grey"> Name</text>
</g>
<!-- Node7&#45;&gt;Node4 -->
<g id="edge6_Node000004_Node000007" class="edge">
<title>Node7&#45;&gt;Node4</title>
<g id="a_edge6_Node000004_Node000007"><a xlink:title=" ">
<path fill="none" stroke="#9a32cd" stroke-dasharray="5,2" d="M842.6,-303.41C836.62,-299.87 831.06,-295.46 826.94,-290 793.92,-246.34 844.48,-205.78 803.94,-169 784.28,-151.17 602.95,-144.81 536.33,-143.06"/>
<polygon fill="#9a32cd" stroke="#9a32cd" points="841.02,-306.53 851.52,-307.99 844.22,-300.31 841.02,-306.53"/>
</a>
</g>
<text text-anchor="middle" x="860.44" y="-232.5" font-family="Helvetica,sans-Serif" font-size="10.00" fill="grey"> activeTLUT</text>
<text text-anchor="middle" x="860.44" y="-221.5" font-family="Helvetica,sans-Serif" font-size="10.00" fill="grey">activeTexture</text>
</g>
<!-- Node8 -->
<g id="Node000008" class="node">
<title>Node8</title>
<g id="a_Node000008"><a xlink:title=" ">
<polygon fill="white" stroke="#666666" points="143.44,-327 114.44,-327 114.44,-308 143.44,-308 143.44,-327"/>
<text text-anchor="middle" x="128.94" y="-315" font-family="Helvetica,sans-Serif" font-size="10.00">u8</text>
</a>
</g>
</g>
<!-- Node8&#45;&gt;Node4 -->
<g id="edge7_Node000004_Node000008" class="edge">
<title>Node8&#45;&gt;Node4</title>
<g id="a_edge7_Node000004_Node000008"><a xlink:title=" ">
<path fill="none" stroke="#9a32cd" stroke-dasharray="5,2" d="M122.11,-298.16C111.86,-267.09 97,-204.06 129.94,-169 154.43,-142.93 407.8,-141.96 487.84,-142.32"/>
<polygon fill="#9a32cd" stroke="#9a32cd" points="118.85,-299.44 125.46,-307.72 125.45,-297.13 118.85,-299.44"/>
</a>
</g>
<text text-anchor="middle" x="165.44" y="-282" font-family="Helvetica,sans-Serif" font-size="10.00" fill="grey"> textureHeight</text>
<text text-anchor="middle" x="165.44" y="-271" font-family="Helvetica,sans-Serif" font-size="10.00" fill="grey">textureWidth</text>
<text text-anchor="middle" x="165.44" y="-260" font-family="Helvetica,sans-Serif" font-size="10.00" fill="grey">tlutList</text>
<text text-anchor="middle" x="165.44" y="-249" font-family="Helvetica,sans-Serif" font-size="10.00" fill="grey">unk_0D5</text>
<text text-anchor="middle" x="165.44" y="-238" font-family="Helvetica,sans-Serif" font-size="10.00" fill="grey">unk_0D6</text>
<text text-anchor="middle" x="165.44" y="-227" font-family="Helvetica,sans-Serif" font-size="10.00" fill="grey">unk_0D7</text>
<text text-anchor="middle" x="165.44" y="-216" font-family="Helvetica,sans-Serif" font-size="10.00" fill="grey">unk_0D8</text>
<text text-anchor="middle" x="165.44" y="-205" font-family="Helvetica,sans-Serif" font-size="10.00" fill="grey">unk_0DB</text>
<text text-anchor="middle" x="165.44" y="-194" font-family="Helvetica,sans-Serif" font-size="10.00" fill="grey">unk_0DC</text>
<text text-anchor="middle" x="165.44" y="-183" font-family="Helvetica,sans-Serif" font-size="10.00" fill="grey">unk_0DD</text>
<text text-anchor="middle" x="165.44" y="-172" font-family="Helvetica,sans-Serif" font-size="10.00" fill="grey">...</text>
</g>
<!-- Node9 -->
<g id="Node000009" class="node">
<title>Node9</title>
<g id="a_Node000009"><a xlink:title=" ">
<polygon fill="white" stroke="#666666" points="262.94,-327 182.94,-327 182.94,-308 262.94,-308 262.94,-327"/>
<text text-anchor="middle" x="222.94" y="-315" font-family="Helvetica,sans-Serif" font-size="10.00">const char **</text>
</a>
</g>
</g>
<!-- Node9&#45;&gt;Node4 -->
<g id="edge8_Node000004_Node000009" class="edge">
<title>Node9&#45;&gt;Node4</title>
<g id="a_edge8_Node000004_Node000009"><a xlink:title=" ">
<path fill="none" stroke="#9a32cd" stroke-dasharray="5,2" d="M216.34,-298.22C206.47,-267.23 192.28,-204.33 224.94,-169 242.64,-149.85 421.88,-144.31 487.79,-142.92"/>
<polygon fill="#9a32cd" stroke="#9a32cd" points="213.05,-299.4 219.57,-307.75 219.68,-297.16 213.05,-299.4"/>
</a>
</g>
<text text-anchor="middle" x="252.94" y="-227" font-family="Helvetica,sans-Serif" font-size="10.00" fill="grey"> textureList</text>
</g>
<!-- Node10 -->
<g id="Node000010" class="node">
<title>Node10</title>
<g id="a_Node000010"><a xlink:title=" ">
<polygon fill="white" stroke="#666666" points="318.94,-327 284.94,-327 284.94,-308 318.94,-308 318.94,-327"/>
<text text-anchor="middle" x="301.94" y="-315" font-family="Helvetica,sans-Serif" font-size="10.00">Gfx</text>
</a>
</g>
</g>
<!-- Node10&#45;&gt;Node4 -->
<g id="edge9_Node000004_Node000010" class="edge">
<title>Node10&#45;&gt;Node4</title>
<g id="a_edge9_Node000004_Node000010"><a xlink:title=" ">
<path fill="none" stroke="#9a32cd" stroke-dasharray="5,2" d="M295.5,-297.91C286.09,-266.93 272.92,-204.64 304.94,-169 328.79,-142.45 438.51,-141.07 487.82,-141.84"/>
<polygon fill="#9a32cd" stroke="#9a32cd" points="292.29,-299.37 298.71,-307.8 298.95,-297.21 292.29,-299.37"/>
</a>
</g>
<text text-anchor="middle" x="321.94" y="-227" font-family="Helvetica,sans-Serif" font-size="10.00" fill="grey"> model</text>
</g>
<!-- Node11 -->
<g id="Node000011" class="node">
<title>Node11</title>
<g id="a_Node000011"><a xlink:title=" ">
<polygon fill="white" stroke="#666666" points="375.44,-327 342.44,-327 342.44,-308 375.44,-308 375.44,-327"/>
<text text-anchor="middle" x="358.94" y="-315" font-family="Helvetica,sans-Serif" font-size="10.00">Vtx</text>
</a>
</g>
</g>
<!-- Node11&#45;&gt;Node4 -->
<g id="edge10_Node000004_Node000011" class="edge">
<title>Node11&#45;&gt;Node4</title>
<g id="a_edge10_Node000004_Node000011"><a xlink:title=" ">
<path fill="none" stroke="#9a32cd" stroke-dasharray="5,2" d="M352.69,-298.07C343.55,-267.34 330.78,-205.39 361.94,-169 377.89,-150.37 449.48,-144.82 487.7,-143.18"/>
<polygon fill="#9a32cd" stroke="#9a32cd" points="349.44,-299.41 355.8,-307.88 356.11,-297.29 349.44,-299.41"/>
</a>
</g>
<text text-anchor="middle" x="379.44" y="-227" font-family="Helvetica,sans-Serif" font-size="10.00" fill="grey"> vertex</text>
</g>
<!-- Node12 -->
<g id="Node000012" class="node">
<title>Node12</title>
<g id="a_Node000012"><a xlink:title=" ">
<polygon fill="white" stroke="#666666" points="431.44,-327 402.44,-327 402.44,-308 431.44,-308 431.44,-327"/>
<text text-anchor="middle" x="416.94" y="-315" font-family="Helvetica,sans-Serif" font-size="10.00">s8</text>
</a>
</g>
</g>
<!-- Node12&#45;&gt;Node4 -->
<g id="edge11_Node000004_Node000012" class="edge">
<title>Node12&#45;&gt;Node4</title>
<g id="a_edge11_Node000004_Node000012"><a xlink:title=" ">
<path fill="none" stroke="#9a32cd" stroke-dasharray="5,2" d="M410.66,-298.01C401.63,-267.67 389.04,-206.91 417.94,-169 434.08,-147.83 465.77,-142.66 487.88,-141.83"/>
<polygon fill="#9a32cd" stroke="#9a32cd" points="407.38,-299.24 413.74,-307.71 414.05,-297.12 407.38,-299.24"/>
</a>
</g>
<text text-anchor="middle" x="457.94" y="-282" font-family="Helvetica,sans-Serif" font-size="10.00" fill="grey"> isTimerActive</text>
<text text-anchor="middle" x="457.94" y="-271" font-family="Helvetica,sans-Serif" font-size="10.00" fill="grey">textureListIndex</text>
<text text-anchor="middle" x="457.94" y="-260" font-family="Helvetica,sans-Serif" font-size="10.00" fill="grey">unk_078</text>
<text text-anchor="middle" x="457.94" y="-249" font-family="Helvetica,sans-Serif" font-size="10.00" fill="grey">unk_0CA</text>
<text text-anchor="middle" x="457.94" y="-238" font-family="Helvetica,sans-Serif" font-size="10.00" fill="grey">unk_0CC</text>
<text text-anchor="middle" x="457.94" y="-227" font-family="Helvetica,sans-Serif" font-size="10.00" fill="grey">unk_0CD</text>
<text text-anchor="middle" x="457.94" y="-216" font-family="Helvetica,sans-Serif" font-size="10.00" fill="grey">unk_0CE</text>
<text text-anchor="middle" x="457.94" y="-205" font-family="Helvetica,sans-Serif" font-size="10.00" fill="grey">unk_0CF</text>
<text text-anchor="middle" x="457.94" y="-194" font-family="Helvetica,sans-Serif" font-size="10.00" fill="grey">unk_0D0</text>
<text text-anchor="middle" x="457.94" y="-183" font-family="Helvetica,sans-Serif" font-size="10.00" fill="grey">unk_0D1</text>
<text text-anchor="middle" x="457.94" y="-172" font-family="Helvetica,sans-Serif" font-size="10.00" fill="grey">...</text>
</g>
<!-- Node13 -->
<g id="Node000013" class="node">
<title>Node13</title>
<g id="a_Node000013"><a xlink:href="structSplineControlPoint.html" target="_top" xlink:title=" ">
<polygon fill="white" stroke="#666666" points="618.44,-503 511.44,-503 511.44,-484 618.44,-484 618.44,-503"/>
<text text-anchor="middle" x="564.94" y="-491" font-family="Helvetica,sans-Serif" font-size="10.00">SplineControlPoint</text>
</a>
</g>
</g>
<!-- Node13&#45;&gt;Node4 -->
<g id="edge12_Node000004_Node000013" class="edge">
<title>Node13&#45;&gt;Node4</title>
<g id="a_edge12_Node000004_Node000013"><a xlink:title=" ">
<path fill="none" stroke="#9a32cd" stroke-dasharray="5,2" d="M562.04,-473.69C561.66,-471.11 561.28,-468.49 560.94,-466 556.34,-433.05 531.5,-201.15 522.94,-169 521.3,-162.84 518.55,-156.21 516.21,-151.13"/>
<polygon fill="#9a32cd" stroke="#9a32cd" points="558.6,-474.31 563.55,-483.67 565.52,-473.26 558.6,-474.31"/>
</a>
</g>
<text text-anchor="middle" x="578.44" y="-315" font-family="Helvetica,sans-Serif" font-size="10.00" fill="grey"> controlPoints</text>
</g>
<!-- Node15 -->
<g id="Node000015" class="node">
<title>Node15</title>
<g id="a_Node000015"><a xlink:href="structSplineData.html" target="_top" xlink:title=" ">
<polygon fill="white" stroke="#666666" points="691.94,-327 621.94,-327 621.94,-308 691.94,-308 691.94,-327"/>
<text text-anchor="middle" x="656.94" y="-315" font-family="Helvetica,sans-Serif" font-size="10.00">SplineData</text>
</a>
</g>
</g>
<!-- Node13&#45;&gt;Node15 -->
<g id="edge16_Node000015_Node000013" class="edge">
<title>Node13&#45;&gt;Node15</title>
<g id="a_edge16_Node000015_Node000013"><a xlink:title=" ">
<path fill="none" stroke="#9a32cd" stroke-dasharray="5,2" d="M564.4,-473.23C563.82,-437.85 564.56,-364.39 579.94,-345 585.47,-338.02 604.21,-331.49 621.81,-326.66"/>
<polygon fill="#9a32cd" stroke="#9a32cd" points="560.91,-473.71 564.63,-483.63 567.91,-473.56 560.91,-473.71"/>
</a>
</g>
<text text-anchor="middle" x="613.44" y="-403" font-family="Helvetica,sans-Serif" font-size="10.00" fill="grey"> controlPoints</text>
</g>
<!-- Node14 -->
<g id="Node000014" class="node">
<title>Node14</title>
<g id="a_Node000014"><a xlink:title=" ">
<polygon fill="white" stroke="#666666" points="581.94,-580 547.94,-580 547.94,-561 581.94,-561 581.94,-580"/>
<text text-anchor="middle" x="564.94" y="-568" font-family="Helvetica,sans-Serif" font-size="10.00">s16</text>
</a>
</g>
</g>
<!-- Node14&#45;&gt;Node4 -->
<g id="edge17_Node000004_Node000014" class="edge">
<title>Node14&#45;&gt;Node4</title>
<g id="a_edge17_Node000004_Node000014"><a xlink:title=" ">
<path fill="none" stroke="#9a32cd" stroke-dasharray="5,2" d="M546.45,-554.13C532.48,-541.64 513.75,-522.89 501.94,-503 493.11,-488.14 492.64,-483.08 489.94,-466 481.54,-412.88 486.06,-398.64 489.94,-345 491.72,-320.36 494.99,-314.53 497.94,-290 504.26,-237.39 509.47,-173.94 511.27,-151.16"/>
<polygon fill="#9a32cd" stroke="#9a32cd" points="544.19,-556.81 554.04,-560.73 548.78,-551.53 544.19,-556.81"/>
</a>
</g>
<text text-anchor="middle" x="516.94" y="-458" font-family="Helvetica,sans-Serif" font-size="10.00" fill="grey"> primAlpha</text>
<text text-anchor="middle" x="516.94" y="-447" font-family="Helvetica,sans-Serif" font-size="10.00" fill="grey">state</text>
<text text-anchor="middle" x="516.94" y="-436" font-family="Helvetica,sans-Serif" font-size="10.00" fill="grey">type</text>
<text text-anchor="middle" x="516.94" y="-425" font-family="Helvetica,sans-Serif" font-size="10.00" fill="grey">unk_084</text>
<text text-anchor="middle" x="516.94" y="-414" font-family="Helvetica,sans-Serif" font-size="10.00" fill="grey">unk_09C</text>
<text text-anchor="middle" x="516.94" y="-403" font-family="Helvetica,sans-Serif" font-size="10.00" fill="grey">unk_09E</text>
<text text-anchor="middle" x="516.94" y="-392" font-family="Helvetica,sans-Serif" font-size="10.00" fill="grey">unk_0A2</text>
<text text-anchor="middle" x="516.94" y="-381" font-family="Helvetica,sans-Serif" font-size="10.00" fill="grey">unk_0A8</text>
<text text-anchor="middle" x="516.94" y="-370" font-family="Helvetica,sans-Serif" font-size="10.00" fill="grey">unk_0AA</text>
<text text-anchor="middle" x="516.94" y="-359" font-family="Helvetica,sans-Serif" font-size="10.00" fill="grey">unk_0AC</text>
<text text-anchor="middle" x="516.94" y="-348" font-family="Helvetica,sans-Serif" font-size="10.00" fill="grey">...</text>
</g>
<!-- Node14&#45;&gt;Node13 -->
<g id="edge13_Node000013_Node000014" class="edge">
<title>Node14&#45;&gt;Node13</title>
<g id="a_edge13_Node000013_Node000014"><a xlink:title=" ">
<path fill="none" stroke="#9a32cd" stroke-dasharray="5,2" d="M564.94,-550.52C564.94,-535.24 564.94,-514.48 564.94,-503"/>
<polygon fill="#9a32cd" stroke="#9a32cd" points="561.44,-550.9 564.94,-560.9 568.44,-550.9 561.44,-550.9"/>
</a>
</g>
<text text-anchor="middle" x="584.94" y="-535" font-family="Helvetica,sans-Serif" font-size="10.00" fill="grey"> pos</text>
<text text-anchor="middle" x="584.94" y="-524" font-family="Helvetica,sans-Serif" font-size="10.00" fill="grey">velocity</text>
</g>
<!-- Node14&#45;&gt;Node15 -->
<g id="edge15_Node000015_Node000014" class="edge">
<title>Node14&#45;&gt;Node15</title>
<g id="a_edge15_Node000015_Node000014"><a xlink:title=" ">
<path fill="none" stroke="#9a32cd" stroke-dasharray="5,2" d="M591.12,-557.06C597.49,-553.18 603.91,-548.47 608.94,-543 634.77,-514.91 637.01,-502.85 646.94,-466 660.75,-414.7 658.76,-349.92 657.5,-327"/>
<polygon fill="#9a32cd" stroke="#9a32cd" points="589.04,-554.21 582,-562.12 592.44,-560.33 589.04,-554.21"/>
</a>
</g>
<text text-anchor="middle" x="687.44" y="-491" font-family="Helvetica,sans-Serif" font-size="10.00" fill="grey"> numControlPoints</text>
</g>
<!-- Node15&#45;&gt;Node4 -->
<g id="edge14_Node000004_Node000015" class="edge">
<title>Node15&#45;&gt;Node4</title>
<g id="a_edge14_Node000004_Node000015"><a xlink:title=" ">
<path fill="none" stroke="#9a32cd" stroke-dasharray="5,2" d="M611.95,-307.1C594.29,-302.52 576.83,-296.58 570.94,-290 534.44,-249.2 577.11,-215.32 547.94,-169 543.22,-161.51 535.57,-155.44 528.53,-151.01"/>
<polygon fill="#9a32cd" stroke="#9a32cd" points="611.17,-310.51 621.71,-309.5 612.84,-303.71 611.17,-310.51"/>
</a>
</g>
<text text-anchor="middle" x="587.44" y="-227" font-family="Helvetica,sans-Serif" font-size="10.00" fill="grey"> spline</text>
</g>
<!-- Node16 -->
<g id="Node000016" class="node">
<title>Node16</title>
<g id="a_Node000016"><a xlink:title=" ">
<polygon fill="white" stroke="#666666" points="745.44,-327 710.44,-327 710.44,-308 745.44,-308 745.44,-327"/>
<text text-anchor="middle" x="727.94" y="-315" font-family="Helvetica,sans-Serif" font-size="10.00">u16</text>
</a>
</g>
</g>
<!-- Node16&#45;&gt;Node4 -->
<g id="edge18_Node000004_Node000016" class="edge">
<title>Node16&#45;&gt;Node4</title>
<g id="a_edge18_Node000004_Node000016"><a xlink:title=" ">
<path fill="none" stroke="#9a32cd" stroke-dasharray="5,2" d="M700.41,-308.36C665.33,-301.21 648.34,-312.52 626.94,-290 589.22,-250.32 640.81,-209.46 603.94,-169 586.81,-150.2 557.29,-144.41 536.31,-142.79"/>
<polygon fill="#9a32cd" stroke="#9a32cd" points="699.72,-311.79 710.27,-310.75 701.38,-304.99 699.72,-311.79"/>
</a>
</g>
<text text-anchor="middle" x="669.44" y="-265.5" font-family="Helvetica,sans-Serif" font-size="10.00" fill="grey"> animationTimer</text>
<text text-anchor="middle" x="669.44" y="-254.5" font-family="Helvetica,sans-Serif" font-size="10.00" fill="grey">boundingBoxSize</text>
<text text-anchor="middle" x="669.44" y="-243.5" font-family="Helvetica,sans-Serif" font-size="10.00" fill="grey">direction_angle</text>
<text text-anchor="middle" x="669.44" y="-232.5" font-family="Helvetica,sans-Serif" font-size="10.00" fill="grey">orientation</text>
<text text-anchor="middle" x="669.44" y="-221.5" font-family="Helvetica,sans-Serif" font-size="10.00" fill="grey">unk_09A</text>
<text text-anchor="middle" x="669.44" y="-210.5" font-family="Helvetica,sans-Serif" font-size="10.00" fill="grey">unk_0B8</text>
<text text-anchor="middle" x="669.44" y="-199.5" font-family="Helvetica,sans-Serif" font-size="10.00" fill="grey">unk_0C4</text>
<text text-anchor="middle" x="669.44" y="-188.5" font-family="Helvetica,sans-Serif" font-size="10.00" fill="grey">unk_0C6</text>
</g>
<!-- Node17 -->
<g id="Node000017" class="node">
<title>Node17</title>
<g id="a_Node000017"><a xlink:title=" ">
<polygon fill="white" stroke="#666666" points="996.94,-151 958.94,-151 958.94,-132 996.94,-132 996.94,-151"/>
<text text-anchor="middle" x="977.94" y="-139" font-family="Helvetica,sans-Serif" font-size="10.00">bool</text>
</a>
</g>
</g>
<!-- Node17&#45;&gt;Node2 -->
<g id="edge20_Node000002_Node000017" class="edge">
<title>Node17&#45;&gt;Node2</title>
<g id="a_edge20_Node000002_Node000017"><a xlink:title=" ">
<path fill="none" stroke="#9a32cd" stroke-dasharray="5,2" d="M959.49,-125.67C949.01,-117.91 935.35,-108.83 921.94,-103 918,-101.29 869.18,-90.1 837.01,-82.82"/>
<polygon fill="#9a32cd" stroke="#9a32cd" points="957.39,-128.48 967.46,-131.78 961.65,-122.92 957.39,-128.48"/>
</a>
</g>
<text text-anchor="middle" x="984.44" y="-106" font-family="Helvetica,sans-Serif" font-size="10.00" fill="grey"> bPendingDestroy</text>
</g>
<!-- Node18 -->
<g id="Node000018" class="node">
<title>Node18</title>
<g id="a_Node000018"><a xlink:title=" ">
<polygon fill="white" stroke="#666666" points="924.44,-85 855.44,-85 855.44,-66 924.44,-66 924.44,-85"/>
<text text-anchor="middle" x="889.94" y="-73" font-family="Helvetica,sans-Serif" font-size="10.00">LakituType</text>
</a>
</g>
</g>
<!-- Node18&#45;&gt;Node1 -->
<g id="edge22_Node000001_Node000018" class="edge">
<title>Node18&#45;&gt;Node1</title>
<g id="a_edge22_Node000001_Node000018"><a xlink:title=" ">
<path fill="none" stroke="#9a32cd" stroke-dasharray="5,2" d="M870.94,-59.49C855.08,-46.96 833.03,-29.54 819.95,-19.2"/>
<polygon fill="#9a32cd" stroke="#9a32cd" points="869,-62.42 879.01,-65.87 873.34,-56.92 869,-62.42"/>
</a>
</g>
<text text-anchor="middle" x="869.44" y="-40" font-family="Helvetica,sans-Serif" font-size="10.00" fill="grey"> _type</text>
</g>
</g>
</svg>

<g id="navigator" transform="translate(0 0)" fill="#404254">
  <rect fill="#f2f5e9" fill-opacity="0.5" stroke="#606060" stroke-width=".5" x="0" y="0" width="60" height="60"/>
  <use id="zoomplus" xlink:href="#zoomPlus" x="17" y="9" onmousedown="handleZoom(evt,'in')"/>
  <use id="zoomminus" xlink:href="#zoomMin" x="42" y="9" onmousedown="handleZoom(evt,'out')"/>
  <use id="reset" xlink:href="#resetDef" x="30" y="36" onmousedown="handleReset()"/>
   <use id="arrowup" xlink:href="#arrowUp" x="0" y="0" onmousedown="handlePan(0,-1)"/>
  <use id="arrowright" xlink:href="#arrowRight" x="0" y="0" onmousedown="handlePan(1,0)"/>
  <use id="arrowdown" xlink:href="#arrowDown" x="0" y="0" onmousedown="handlePan(0,1)"/>
  <use id="arrowleft" xlink:href="#arrowLeft" x="0" y="0" onmousedown="handlePan(-1,0)"/>
</g>
<svg viewBox="0 0 15 15" width="100%" height="30px" preserveAspectRatio="xMaxYMin meet">
 <g id="arrow_out" transform="scale(0.3 0.3)">
  <a xlink:href="classOLakitu__coll__graph_org.svg" target="_base">
   <rect id="button" ry="5" rx="5" y="6" x="6" height="38" width="38"
        fill="#f2f5e9" fill-opacity="0.5" stroke="#606060" stroke-width="1.0"/>
   <path id="arrow"
     d="M 11.500037,31.436501 C 11.940474,20.09759 22.043105,11.32322 32.158766,21.979434 L 37.068811,17.246167 C 37.068811,17.246167 37.088388,32 37.088388,32 L 22.160133,31.978069 C 22.160133,31.978069 26.997745,27.140456 26.997745,27.140456 C 18.528582,18.264221 13.291696,25.230495 11.500037,31.436501 z"
     style="fill:#404040;"/>
  </a>
 </g>
</svg>

<style type='text/css'>
<![CDATA[
[data-mouse-over-selected='false'] { opacity: 0.7; }
[data-mouse-over-selected='true']  { opacity: 1.0; }
]]>
</style>
<script type="application/ecmascript"><![CDATA[
document.addEventListener('DOMContentLoaded', (event) => {
  highlightEdges();
  highlightAdjacentNodes();
});
]]></script>
</svg>
