<?xml version="1.0" encoding="UTF-8" standalone="no"?>
<!DOCTYPE svg PUBLIC "-//W3C//DTD SVG 1.1//EN"
 "http://www.w3.org/Graphics/SVG/1.1/DTD/svg11.dtd">
<!-- Generated by graphviz version 2.43.0 (0)
 -->
<!-- Title: OBoos Pages: 1 -->
<!--zoomable 632 -->

<svg id="main" version="1.1" xmlns="http://www.w3.org/2000/svg" xmlns:xlink="http://www.w3.org/1999/xlink" xml:space="preserve" onload="init(evt)">

<style type="text/css"><![CDATA[
.node, .edge {opacity: 0.7;}
.node.selected, .edge.selected {opacity: 1;}
.edge:hover path { stroke: red; }
.edge:hover polygon { stroke: red; fill: red; }
]]></style>

<defs>
  <circle id="rim" cx="0" cy="0" r="7"/>
  <circle id="rim2" cx="0" cy="0" r="3.5"/>
  <g id="zoomPlus">
    <use xlink:href="#rim" fill="#404040"><set attributeName="fill" to="#808080" begin="zoomplus.mouseover" end="zoomplus.mouseout"/></use>
    <path d="M-4,0h8M0,-4v8" fill="none" stroke="white" stroke-width="1.5" pointer-events="none"/>
  </g>
  <g id="zoomMin">
    <use xlink:href="#rim" fill="#404040"><set attributeName="fill" to="#808080" begin="zoomminus.mouseover" end="zoomminus.mouseout"/></use>
    <path d="M-4,0h8" fill="none" stroke="white" stroke-width="1.5" pointer-events="none"/>
  </g>
  <g id="arrowUp" transform="translate(30 24)">
    <use xlink:href="#rim"/>
    <path pointer-events="none" fill="none" stroke="white" stroke-width="1.5" d="M0,-3.0v7 M-2.5,-0.5L0,-3.0L2.5,-0.5"/>
  </g>
  <g id="arrowRight" transform="rotate(90) translate(36 -43)">
    <use xlink:href="#rim"/>
    <path pointer-events="none" fill="none" stroke="white" stroke-width="1.5" d="M0,-3.0v7 M-2.5,-0.5L0,-3.0L2.5,-0.5"/>
  </g>
  <g id="arrowDown" transform="rotate(180) translate(-30 -48)">
    <use xlink:href="#rim"/>
    <path pointer-events="none" fill="none" stroke="white" stroke-width="1.5" d="M0,-3.0v7 M-2.5,-0.5L0,-3.0L2.5,-0.5"/>
  </g>
  <g id="arrowLeft" transform="rotate(270) translate(-36 17)">
    <use xlink:href="#rim"/>
    <path pointer-events="none" fill="none" stroke="white" stroke-width="1.5" d="M0,-3.0v7 M-2.5,-0.5L0,-3.0L2.5,-0.5"/>
  </g>
  <g id="resetDef">
    <use xlink:href="#rim2" fill="#404040"><set attributeName="fill" to="#808080" begin="reset.mouseover" end="reset.mouseout"/></use>
  </g>
</defs>
<script type="application/ecmascript">
var viewWidth = 1369;
var viewHeight = 632;
var sectionId = 'dynsection-1';
</script>
<script type="application/ecmascript" xlink:href="svg.min.js"/>
<svg id="graph" class="graph">
<g id="viewport">
<title>OBoos</title>
<!-- Node1 -->
<g id="Node000001" class="node">
<title>Node1</title>
<g id="a_Node000001"><a xlink:title=" ">
<polygon fill="#999999" stroke="#666666" points="1085.29,-19 1037.29,-19 1037.29,0 1085.29,0 1085.29,-19"/>
<text text-anchor="middle" x="1061.29" y="-7" font-family="Helvetica,sans-Serif" font-size="10.00">OBoos</text>
</a>
</g>
</g>
<!-- Node2 -->
<g id="Node000002" class="node">
<title>Node2</title>
<g id="a_Node000002"><a xlink:href="classOObject.html" target="_top" xlink:title=" ">
<polygon fill="white" stroke="#666666" points="750.29,-107 694.29,-107 694.29,-88 750.29,-88 750.29,-107"/>
<text text-anchor="middle" x="722.29" y="-95" font-family="Helvetica,sans-Serif" font-size="10.00">OObject</text>
</a>
</g>
</g>
<!-- Node2&#45;&gt;Node1 -->
<g id="edge1_Node000001_Node000002" class="edge">
<title>Node2&#45;&gt;Node1</title>
<g id="a_edge1_Node000001_Node000002"><a xlink:title=" ">
<path fill="none" stroke="#63b8ff" d="M760.31,-86.65C806.24,-74.77 885.88,-54.24 954.29,-37 982.68,-29.84 1015.36,-21.78 1037.05,-16.44"/>
<polygon fill="#63b8ff" stroke="#63b8ff" points="759.29,-83.3 750.48,-89.19 761.04,-90.07 759.29,-83.3"/>
</a>
</g>
</g>
<!-- Node3 -->
<g id="Node000003" class="node">
<title>Node3</title>
<g id="a_Node000003"><a xlink:title=" ">
<polygon fill="white" stroke="#666666" points="95.29,-195 45.29,-195 45.29,-176 95.29,-176 95.29,-195"/>
<text text-anchor="middle" x="70.29" y="-183" font-family="Helvetica,sans-Serif" font-size="10.00">uint8_t</text>
</a>
</g>
</g>
<!-- Node3&#45;&gt;Node2 -->
<g id="edge2_Node000002_Node000003" class="edge">
<title>Node3&#45;&gt;Node2</title>
<g id="a_edge2_Node000002_Node000003"><a xlink:title=" ">
<path fill="none" stroke="#9a32cd" stroke-dasharray="5,2" d="M71.89,-165.59C74.13,-151.93 79.49,-134.32 92.29,-125 116.9,-107.08 574.64,-100.29 694.01,-98.82"/>
<polygon fill="#9a32cd" stroke="#9a32cd" points="68.37,-165.51 70.64,-175.86 75.32,-166.35 68.37,-165.51"/>
</a>
</g>
<text text-anchor="middle" x="104.79" y="-139" font-family="Helvetica,sans-Serif" font-size="10.00" fill="grey"> uuid</text>
</g>
<!-- Node4 -->
<g id="Node000004" class="node">
<title>Node4</title>
<g id="a_Node000004"><a xlink:href="structObject.html" target="_top" xlink:title=" ">
<polygon fill="white" stroke="#666666" points="592.29,-195 544.29,-195 544.29,-176 592.29,-176 592.29,-195"/>
<text text-anchor="middle" x="568.29" y="-183" font-family="Helvetica,sans-Serif" font-size="10.00">Object</text>
</a>
</g>
</g>
<!-- Node4&#45;&gt;Node2 -->
<g id="edge3_Node000002_Node000004" class="edge">
<title>Node4&#45;&gt;Node2</title>
<g id="a_edge3_Node000002_Node000004"><a xlink:title=" ">
<path fill="none" stroke="#9a32cd" stroke-dasharray="5,2" d="M592.37,-171.05C624.43,-153.15 680.2,-122 707.02,-107.03"/>
<polygon fill="#9a32cd" stroke="#9a32cd" points="590.64,-168.01 583.62,-175.94 594.06,-174.12 590.64,-168.01"/>
</a>
</g>
<text text-anchor="middle" x="678.29" y="-139" font-family="Helvetica,sans-Serif" font-size="10.00" fill="grey"> o</text>
</g>
<!-- Node5 -->
<g id="Node000005" class="node">
<title>Node5</title>
<g id="a_Node000005"><a xlink:title=" ">
<polygon fill="white" stroke="#666666" points="852.29,-371 820.29,-371 820.29,-352 852.29,-352 852.29,-371"/>
<text text-anchor="middle" x="836.29" y="-359" font-family="Helvetica,sans-Serif" font-size="10.00">f32</text>
</a>
</g>
</g>
<!-- Node5&#45;&gt;Node4 -->
<g id="edge4_Node000004_Node000005" class="edge">
<title>Node5&#45;&gt;Node4</title>
<g id="a_edge4_Node000004_Node000005"><a xlink:title=" ">
<path fill="none" stroke="#9a32cd" stroke-dasharray="5,2" d="M810.98,-350.5C803.6,-346.42 796.21,-340.99 791.29,-334 759.79,-289.23 808.07,-250.61 768.29,-213 743.41,-189.48 639.89,-186.43 592.35,-186.3"/>
<polygon fill="#9a32cd" stroke="#9a32cd" points="809.61,-353.72 820.13,-354.95 812.67,-347.43 809.61,-353.72"/>
</a>
</g>
<text text-anchor="middle" x="825.79" y="-309.5" font-family="Helvetica,sans-Serif" font-size="10.00" fill="grey"> offset</text>
<text text-anchor="middle" x="825.79" y="-298.5" font-family="Helvetica,sans-Serif" font-size="10.00" fill="grey">origin_pos</text>
<text text-anchor="middle" x="825.79" y="-287.5" font-family="Helvetica,sans-Serif" font-size="10.00" fill="grey">pos</text>
<text text-anchor="middle" x="825.79" y="-276.5" font-family="Helvetica,sans-Serif" font-size="10.00" fill="grey">sizeScaling</text>
<text text-anchor="middle" x="825.79" y="-265.5" font-family="Helvetica,sans-Serif" font-size="10.00" fill="grey">surfaceHeight</text>
<text text-anchor="middle" x="825.79" y="-254.5" font-family="Helvetica,sans-Serif" font-size="10.00" fill="grey">unk_01C</text>
<text text-anchor="middle" x="825.79" y="-243.5" font-family="Helvetica,sans-Serif" font-size="10.00" fill="grey">unk_034</text>
<text text-anchor="middle" x="825.79" y="-232.5" font-family="Helvetica,sans-Serif" font-size="10.00" fill="grey">velocity</text>
</g>
<!-- Node6 -->
<g id="Node000006" class="node">
<title>Node6</title>
<g id="a_Node000006"><a xlink:title=" ">
<polygon fill="white" stroke="#666666" points="103.29,-371 69.29,-371 69.29,-352 103.29,-352 103.29,-371"/>
<text text-anchor="middle" x="86.29" y="-359" font-family="Helvetica,sans-Serif" font-size="10.00">s32</text>
</a>
</g>
</g>
<!-- Node6&#45;&gt;Node1 -->
<g id="edge27_Node000001_Node000006" class="edge">
<title>Node6&#45;&gt;Node1</title>
<g id="a_edge27_Node000001_Node000006"><a xlink:title=" ">
<path fill="none" stroke="#9a32cd" stroke-dasharray="5,2" d="M72.86,-344.13C40.15,-302.24 -36.84,-189.88 21.29,-125 91.52,-46.62 886.9,-16.32 1036.95,-11.28"/>
<polygon fill="#9a32cd" stroke="#9a32cd" points="70.13,-346.33 79.1,-351.96 75.6,-341.96 70.13,-346.33"/>
</a>
</g>
<text text-anchor="middle" x="45.79" y="-139" font-family="Helvetica,sans-Serif" font-size="10.00" fill="grey"> _playerId</text>
</g>
<!-- Node6&#45;&gt;Node2 -->
<g id="edge21_Node000002_Node000006" class="edge">
<title>Node6&#45;&gt;Node2</title>
<g id="a_edge21_Node000002_Node000006"><a xlink:title=" ">
<path fill="none" stroke="#9a32cd" stroke-dasharray="5,2" d="M81.71,-341.88C75.31,-310.84 67.79,-248.47 100.29,-213 181.97,-123.84 583.51,-103.35 694.07,-99.36"/>
<polygon fill="#9a32cd" stroke="#9a32cd" points="78.33,-342.8 83.95,-351.78 85.16,-341.26 78.33,-342.8"/>
</a>
</g>
<text text-anchor="middle" x="192.29" y="-183" font-family="Helvetica,sans-Serif" font-size="10.00" fill="grey"> _objectIndex</text>
</g>
<!-- Node6&#45;&gt;Node4 -->
<g id="edge5_Node000004_Node000006" class="edge">
<title>Node6&#45;&gt;Node4</title>
<g id="a_edge5_Node000004_Node000006"><a xlink:title=" ">
<path fill="none" stroke="#9a32cd" stroke-dasharray="5,2" d="M94.39,-342.44C95.46,-339.65 96.47,-336.77 97.29,-334 112.74,-281.57 78.38,-249.24 119.29,-213 151.22,-184.72 455.74,-185.41 544.26,-186.22"/>
<polygon fill="#9a32cd" stroke="#9a32cd" points="91.08,-341.26 90.44,-351.84 97.54,-343.97 91.08,-341.26"/>
</a>
</g>
<text text-anchor="middle" x="140.79" y="-298.5" font-family="Helvetica,sans-Serif" font-size="10.00" fill="grey"> status</text>
<text text-anchor="middle" x="140.79" y="-287.5" font-family="Helvetica,sans-Serif" font-size="10.00" fill="grey">timer</text>
<text text-anchor="middle" x="140.79" y="-276.5" font-family="Helvetica,sans-Serif" font-size="10.00" fill="grey">unk_048</text>
<text text-anchor="middle" x="140.79" y="-265.5" font-family="Helvetica,sans-Serif" font-size="10.00" fill="grey">unk_04C</text>
<text text-anchor="middle" x="140.79" y="-254.5" font-family="Helvetica,sans-Serif" font-size="10.00" fill="grey">unk_058</text>
<text text-anchor="middle" x="140.79" y="-243.5" font-family="Helvetica,sans-Serif" font-size="10.00" fill="grey">unk_05C</text>
</g>
<!-- Node7 -->
<g id="Node000007" class="node">
<title>Node7</title>
<g id="a_Node000007"><a xlink:title=" ">
<polygon fill="white" stroke="#666666" points="973.79,-371 898.79,-371 898.79,-352 973.79,-352 973.79,-371"/>
<text text-anchor="middle" x="936.29" y="-359" font-family="Helvetica,sans-Serif" font-size="10.00">const char *</text>
</a>
</g>
</g>
<!-- Node7&#45;&gt;Node2 -->
<g id="edge19_Node000002_Node000007" class="edge">
<title>Node7&#45;&gt;Node2</title>
<g id="a_edge19_Node000002_Node000007"><a xlink:title=" ">
<path fill="none" stroke="#9a32cd" stroke-dasharray="5,2" d="M947.15,-342.74C948.44,-339.9 949.56,-336.94 950.29,-334 963.23,-281.8 983.09,-255.62 950.29,-213 931.22,-188.23 911.08,-207.2 882.29,-195 823.15,-169.94 759.78,-125.92 734.1,-107.26"/>
<polygon fill="#9a32cd" stroke="#9a32cd" points="944.02,-341.16 942.38,-351.62 950.19,-344.47 944.02,-341.16"/>
</a>
</g>
<text text-anchor="middle" x="898.79" y="-183" font-family="Helvetica,sans-Serif" font-size="10.00" fill="grey"> Name</text>
</g>
<!-- Node7&#45;&gt;Node4 -->
<g id="edge6_Node000004_Node000007" class="edge">
<title>Node7&#45;&gt;Node4</title>
<g id="a_edge6_Node000004_Node000007"><a xlink:title=" ">
<path fill="none" stroke="#9a32cd" stroke-dasharray="5,2" d="M898.95,-347.41C892.98,-343.87 887.42,-339.46 883.29,-334 850.27,-290.34 900.83,-249.78 860.29,-213 840.64,-195.17 659.3,-188.81 592.69,-187.06"/>
<polygon fill="#9a32cd" stroke="#9a32cd" points="897.38,-350.53 907.87,-351.99 900.57,-344.31 897.38,-350.53"/>
</a>
</g>
<text text-anchor="middle" x="916.79" y="-276.5" font-family="Helvetica,sans-Serif" font-size="10.00" fill="grey"> activeTLUT</text>
<text text-anchor="middle" x="916.79" y="-265.5" font-family="Helvetica,sans-Serif" font-size="10.00" fill="grey">activeTexture</text>
</g>
<!-- Node8 -->
<g id="Node000008" class="node">
<title>Node8</title>
<g id="a_Node000008"><a xlink:title=" ">
<polygon fill="white" stroke="#666666" points="199.79,-371 170.79,-371 170.79,-352 199.79,-352 199.79,-371"/>
<text text-anchor="middle" x="185.29" y="-359" font-family="Helvetica,sans-Serif" font-size="10.00">u8</text>
</a>
</g>
</g>
<!-- Node8&#45;&gt;Node4 -->
<g id="edge7_Node000004_Node000008" class="edge">
<title>Node8&#45;&gt;Node4</title>
<g id="a_edge7_Node000004_Node000008"><a xlink:title=" ">
<path fill="none" stroke="#9a32cd" stroke-dasharray="5,2" d="M178.46,-342.16C168.22,-311.09 153.35,-248.06 186.29,-213 210.78,-186.93 464.15,-185.96 544.2,-186.32"/>
<polygon fill="#9a32cd" stroke="#9a32cd" points="175.2,-343.44 181.81,-351.72 181.81,-341.13 175.2,-343.44"/>
</a>
</g>
<text text-anchor="middle" x="221.79" y="-326" font-family="Helvetica,sans-Serif" font-size="10.00" fill="grey"> textureHeight</text>
<text text-anchor="middle" x="221.79" y="-315" font-family="Helvetica,sans-Serif" font-size="10.00" fill="grey">textureWidth</text>
<text text-anchor="middle" x="221.79" y="-304" font-family="Helvetica,sans-Serif" font-size="10.00" fill="grey">tlutList</text>
<text text-anchor="middle" x="221.79" y="-293" font-family="Helvetica,sans-Serif" font-size="10.00" fill="grey">unk_0D5</text>
<text text-anchor="middle" x="221.79" y="-282" font-family="Helvetica,sans-Serif" font-size="10.00" fill="grey">unk_0D6</text>
<text text-anchor="middle" x="221.79" y="-271" font-family="Helvetica,sans-Serif" font-size="10.00" fill="grey">unk_0D7</text>
<text text-anchor="middle" x="221.79" y="-260" font-family="Helvetica,sans-Serif" font-size="10.00" fill="grey">unk_0D8</text>
<text text-anchor="middle" x="221.79" y="-249" font-family="Helvetica,sans-Serif" font-size="10.00" fill="grey">unk_0DB</text>
<text text-anchor="middle" x="221.79" y="-238" font-family="Helvetica,sans-Serif" font-size="10.00" fill="grey">unk_0DC</text>
<text text-anchor="middle" x="221.79" y="-227" font-family="Helvetica,sans-Serif" font-size="10.00" fill="grey">unk_0DD</text>
<text text-anchor="middle" x="221.79" y="-216" font-family="Helvetica,sans-Serif" font-size="10.00" fill="grey">...</text>
</g>
<!-- Node9 -->
<g id="Node000009" class="node">
<title>Node9</title>
<g id="a_Node000009"><a xlink:title=" ">
<polygon fill="white" stroke="#666666" points="319.29,-371 239.29,-371 239.29,-352 319.29,-352 319.29,-371"/>
<text text-anchor="middle" x="279.29" y="-359" font-family="Helvetica,sans-Serif" font-size="10.00">const char **</text>
</a>
</g>
</g>
<!-- Node9&#45;&gt;Node4 -->
<g id="edge8_Node000004_Node000009" class="edge">
<title>Node9&#45;&gt;Node4</title>
<g id="a_edge8_Node000004_Node000009"><a xlink:title=" ">
<path fill="none" stroke="#9a32cd" stroke-dasharray="5,2" d="M272.7,-342.22C262.83,-311.23 248.63,-248.33 281.29,-213 298.99,-193.85 478.24,-188.31 544.14,-186.92"/>
<polygon fill="#9a32cd" stroke="#9a32cd" points="269.4,-343.4 275.92,-351.75 276.03,-341.16 269.4,-343.4"/>
</a>
</g>
<text text-anchor="middle" x="309.29" y="-271" font-family="Helvetica,sans-Serif" font-size="10.00" fill="grey"> textureList</text>
</g>
<!-- Node10 -->
<g id="Node000010" class="node">
<title>Node10</title>
<g id="a_Node000010"><a xlink:title=" ">
<polygon fill="white" stroke="#666666" points="375.29,-371 341.29,-371 341.29,-352 375.29,-352 375.29,-371"/>
<text text-anchor="middle" x="358.29" y="-359" font-family="Helvetica,sans-Serif" font-size="10.00">Gfx</text>
</a>
</g>
</g>
<!-- Node10&#45;&gt;Node4 -->
<g id="edge9_Node000004_Node000010" class="edge">
<title>Node10&#45;&gt;Node4</title>
<g id="a_edge9_Node000004_Node000010"><a xlink:title=" ">
<path fill="none" stroke="#9a32cd" stroke-dasharray="5,2" d="M351.85,-341.91C342.44,-310.93 329.28,-248.64 361.29,-213 385.14,-186.45 494.86,-185.07 544.17,-185.84"/>
<polygon fill="#9a32cd" stroke="#9a32cd" points="348.65,-343.37 355.06,-351.8 355.31,-341.21 348.65,-343.37"/>
</a>
</g>
<text text-anchor="middle" x="378.29" y="-271" font-family="Helvetica,sans-Serif" font-size="10.00" fill="grey"> model</text>
</g>
<!-- Node11 -->
<g id="Node000011" class="node">
<title>Node11</title>
<g id="a_Node000011"><a xlink:title=" ">
<polygon fill="white" stroke="#666666" points="431.79,-371 398.79,-371 398.79,-352 431.79,-352 431.79,-371"/>
<text text-anchor="middle" x="415.29" y="-359" font-family="Helvetica,sans-Serif" font-size="10.00">Vtx</text>
</a>
</g>
</g>
<!-- Node11&#45;&gt;Node4 -->
<g id="edge10_Node000004_Node000011" class="edge">
<title>Node11&#45;&gt;Node4</title>
<g id="a_edge10_Node000004_Node000011"><a xlink:title=" ">
<path fill="none" stroke="#9a32cd" stroke-dasharray="5,2" d="M409.04,-342.07C399.9,-311.34 387.13,-249.39 418.29,-213 434.24,-194.37 505.84,-188.82 544.06,-187.18"/>
<polygon fill="#9a32cd" stroke="#9a32cd" points="405.79,-343.41 412.16,-351.88 412.46,-341.29 405.79,-343.41"/>
</a>
</g>
<text text-anchor="middle" x="435.79" y="-271" font-family="Helvetica,sans-Serif" font-size="10.00" fill="grey"> vertex</text>
</g>
<!-- Node12 -->
<g id="Node000012" class="node">
<title>Node12</title>
<g id="a_Node000012"><a xlink:title=" ">
<polygon fill="white" stroke="#666666" points="487.79,-371 458.79,-371 458.79,-352 487.79,-352 487.79,-371"/>
<text text-anchor="middle" x="473.29" y="-359" font-family="Helvetica,sans-Serif" font-size="10.00">s8</text>
</a>
</g>
</g>
<!-- Node12&#45;&gt;Node4 -->
<g id="edge11_Node000004_Node000012" class="edge">
<title>Node12&#45;&gt;Node4</title>
<g id="a_edge11_Node000004_Node000012"><a xlink:title=" ">
<path fill="none" stroke="#9a32cd" stroke-dasharray="5,2" d="M467.02,-342.01C457.99,-311.67 445.39,-250.91 474.29,-213 490.43,-191.83 522.13,-186.66 544.23,-185.83"/>
<polygon fill="#9a32cd" stroke="#9a32cd" points="463.73,-343.24 470.1,-351.71 470.41,-341.12 463.73,-343.24"/>
</a>
</g>
<text text-anchor="middle" x="514.29" y="-326" font-family="Helvetica,sans-Serif" font-size="10.00" fill="grey"> isTimerActive</text>
<text text-anchor="middle" x="514.29" y="-315" font-family="Helvetica,sans-Serif" font-size="10.00" fill="grey">textureListIndex</text>
<text text-anchor="middle" x="514.29" y="-304" font-family="Helvetica,sans-Serif" font-size="10.00" fill="grey">unk_078</text>
<text text-anchor="middle" x="514.29" y="-293" font-family="Helvetica,sans-Serif" font-size="10.00" fill="grey">unk_0CA</text>
<text text-anchor="middle" x="514.29" y="-282" font-family="Helvetica,sans-Serif" font-size="10.00" fill="grey">unk_0CC</text>
<text text-anchor="middle" x="514.29" y="-271" font-family="Helvetica,sans-Serif" font-size="10.00" fill="grey">unk_0CD</text>
<text text-anchor="middle" x="514.29" y="-260" font-family="Helvetica,sans-Serif" font-size="10.00" fill="grey">unk_0CE</text>
<text text-anchor="middle" x="514.29" y="-249" font-family="Helvetica,sans-Serif" font-size="10.00" fill="grey">unk_0CF</text>
<text text-anchor="middle" x="514.29" y="-238" font-family="Helvetica,sans-Serif" font-size="10.00" fill="grey">unk_0D0</text>
<text text-anchor="middle" x="514.29" y="-227" font-family="Helvetica,sans-Serif" font-size="10.00" fill="grey">unk_0D1</text>
<text text-anchor="middle" x="514.29" y="-216" font-family="Helvetica,sans-Serif" font-size="10.00" fill="grey">...</text>
</g>
<!-- Node13 -->
<g id="Node000013" class="node">
<title>Node13</title>
<g id="a_Node000013"><a xlink:href="structSplineControlPoint.html" target="_top" xlink:title=" ">
<polygon fill="white" stroke="#666666" points="674.79,-547 567.79,-547 567.79,-528 674.79,-528 674.79,-547"/>
<text text-anchor="middle" x="621.29" y="-535" font-family="Helvetica,sans-Serif" font-size="10.00">SplineControlPoint</text>
</a>
</g>
</g>
<!-- Node13&#45;&gt;Node4 -->
<g id="edge12_Node000004_Node000013" class="edge">
<title>Node13&#45;&gt;Node4</title>
<g id="a_edge12_Node000004_Node000013"><a xlink:title=" ">
<path fill="none" stroke="#9a32cd" stroke-dasharray="5,2" d="M618.4,-517.69C618.02,-515.11 617.64,-512.49 617.29,-510 612.7,-477.05 587.85,-245.15 579.29,-213 577.65,-206.84 574.9,-200.21 572.56,-195.13"/>
<polygon fill="#9a32cd" stroke="#9a32cd" points="614.95,-518.31 619.91,-527.67 621.87,-517.26 614.95,-518.31"/>
</a>
</g>
<text text-anchor="middle" x="634.79" y="-359" font-family="Helvetica,sans-Serif" font-size="10.00" fill="grey"> controlPoints</text>
</g>
<!-- Node15 -->
<g id="Node000015" class="node">
<title>Node15</title>
<g id="a_Node000015"><a xlink:href="structSplineData.html" target="_top" xlink:title=" ">
<polygon fill="white" stroke="#666666" points="748.29,-371 678.29,-371 678.29,-352 748.29,-352 748.29,-371"/>
<text text-anchor="middle" x="713.29" y="-359" font-family="Helvetica,sans-Serif" font-size="10.00">SplineData</text>
</a>
</g>
</g>
<!-- Node13&#45;&gt;Node15 -->
<g id="edge16_Node000015_Node000013" class="edge">
<title>Node13&#45;&gt;Node15</title>
<g id="a_edge16_Node000015_Node000013"><a xlink:title=" ">
<path fill="none" stroke="#9a32cd" stroke-dasharray="5,2" d="M620.76,-517.23C620.17,-481.85 620.92,-408.39 636.29,-389 641.82,-382.02 660.56,-375.49 678.17,-370.66"/>
<polygon fill="#9a32cd" stroke="#9a32cd" points="617.27,-517.71 620.99,-527.63 624.27,-517.56 617.27,-517.71"/>
</a>
</g>
<text text-anchor="middle" x="669.79" y="-447" font-family="Helvetica,sans-Serif" font-size="10.00" fill="grey"> controlPoints</text>
</g>
<!-- Node14 -->
<g id="Node000014" class="node">
<title>Node14</title>
<g id="a_Node000014"><a xlink:title=" ">
<polygon fill="white" stroke="#666666" points="638.29,-624 604.29,-624 604.29,-605 638.29,-605 638.29,-624"/>
<text text-anchor="middle" x="621.29" y="-612" font-family="Helvetica,sans-Serif" font-size="10.00">s16</text>
</a>
</g>
</g>
<!-- Node14&#45;&gt;Node4 -->
<g id="edge17_Node000004_Node000014" class="edge">
<title>Node14&#45;&gt;Node4</title>
<g id="a_edge17_Node000004_Node000014"><a xlink:title=" ">
<path fill="none" stroke="#9a32cd" stroke-dasharray="5,2" d="M602.8,-598.13C588.83,-585.64 570.1,-566.89 558.29,-547 549.46,-532.14 548.99,-527.08 546.29,-510 537.89,-456.88 542.41,-442.64 546.29,-389 548.07,-364.36 551.34,-358.53 554.29,-334 560.61,-281.39 565.82,-217.94 567.62,-195.16"/>
<polygon fill="#9a32cd" stroke="#9a32cd" points="600.54,-600.81 610.39,-604.73 605.13,-595.53 600.54,-600.81"/>
</a>
</g>
<text text-anchor="middle" x="573.29" y="-502" font-family="Helvetica,sans-Serif" font-size="10.00" fill="grey"> primAlpha</text>
<text text-anchor="middle" x="573.29" y="-491" font-family="Helvetica,sans-Serif" font-size="10.00" fill="grey">state</text>
<text text-anchor="middle" x="573.29" y="-480" font-family="Helvetica,sans-Serif" font-size="10.00" fill="grey">type</text>
<text text-anchor="middle" x="573.29" y="-469" font-family="Helvetica,sans-Serif" font-size="10.00" fill="grey">unk_084</text>
<text text-anchor="middle" x="573.29" y="-458" font-family="Helvetica,sans-Serif" font-size="10.00" fill="grey">unk_09C</text>
<text text-anchor="middle" x="573.29" y="-447" font-family="Helvetica,sans-Serif" font-size="10.00" fill="grey">unk_09E</text>
<text text-anchor="middle" x="573.29" y="-436" font-family="Helvetica,sans-Serif" font-size="10.00" fill="grey">unk_0A2</text>
<text text-anchor="middle" x="573.29" y="-425" font-family="Helvetica,sans-Serif" font-size="10.00" fill="grey">unk_0A8</text>
<text text-anchor="middle" x="573.29" y="-414" font-family="Helvetica,sans-Serif" font-size="10.00" fill="grey">unk_0AA</text>
<text text-anchor="middle" x="573.29" y="-403" font-family="Helvetica,sans-Serif" font-size="10.00" fill="grey">unk_0AC</text>
<text text-anchor="middle" x="573.29" y="-392" font-family="Helvetica,sans-Serif" font-size="10.00" fill="grey">...</text>
</g>
<!-- Node14&#45;&gt;Node13 -->
<g id="edge13_Node000013_Node000014" class="edge">
<title>Node14&#45;&gt;Node13</title>
<g id="a_edge13_Node000013_Node000014"><a xlink:title=" ">
<path fill="none" stroke="#9a32cd" stroke-dasharray="5,2" d="M621.29,-594.52C621.29,-579.24 621.29,-558.48 621.29,-547"/>
<polygon fill="#9a32cd" stroke="#9a32cd" points="617.79,-594.9 621.29,-604.9 624.79,-594.9 617.79,-594.9"/>
</a>
</g>
<text text-anchor="middle" x="641.29" y="-579" font-family="Helvetica,sans-Serif" font-size="10.00" fill="grey"> pos</text>
<text text-anchor="middle" x="641.29" y="-568" font-family="Helvetica,sans-Serif" font-size="10.00" fill="grey">velocity</text>
</g>
<!-- Node14&#45;&gt;Node15 -->
<g id="edge15_Node000015_Node000014" class="edge">
<title>Node14&#45;&gt;Node15</title>
<g id="a_edge15_Node000015_Node000014"><a xlink:title=" ">
<path fill="none" stroke="#9a32cd" stroke-dasharray="5,2" d="M647.48,-601.06C653.84,-597.18 660.26,-592.47 665.29,-587 691.12,-558.91 693.37,-546.85 703.29,-510 717.11,-458.7 715.12,-393.92 713.85,-371"/>
<polygon fill="#9a32cd" stroke="#9a32cd" points="645.4,-598.21 638.35,-606.12 648.79,-604.33 645.4,-598.21"/>
</a>
</g>
<text text-anchor="middle" x="743.79" y="-535" font-family="Helvetica,sans-Serif" font-size="10.00" fill="grey"> numControlPoints</text>
</g>
<!-- Node15&#45;&gt;Node4 -->
<g id="edge14_Node000004_Node000015" class="edge">
<title>Node15&#45;&gt;Node4</title>
<g id="a_edge14_Node000004_Node000015"><a xlink:title=" ">
<path fill="none" stroke="#9a32cd" stroke-dasharray="5,2" d="M668.3,-351.1C650.64,-346.52 633.18,-340.58 627.29,-334 590.79,-293.2 633.46,-259.32 604.29,-213 599.57,-205.51 591.92,-199.44 584.88,-195.01"/>
<polygon fill="#9a32cd" stroke="#9a32cd" points="667.52,-354.51 678.07,-353.5 669.19,-347.71 667.52,-354.51"/>
</a>
</g>
<text text-anchor="middle" x="643.79" y="-271" font-family="Helvetica,sans-Serif" font-size="10.00" fill="grey"> spline</text>
</g>
<!-- Node16 -->
<g id="Node000016" class="node">
<title>Node16</title>
<g id="a_Node000016"><a xlink:title=" ">
<polygon fill="white" stroke="#666666" points="801.79,-371 766.79,-371 766.79,-352 801.79,-352 801.79,-371"/>
<text text-anchor="middle" x="784.29" y="-359" font-family="Helvetica,sans-Serif" font-size="10.00">u16</text>
</a>
</g>
</g>
<!-- Node16&#45;&gt;Node4 -->
<g id="edge18_Node000004_Node000016" class="edge">
<title>Node16&#45;&gt;Node4</title>
<g id="a_edge18_Node000004_Node000016"><a xlink:title=" ">
<path fill="none" stroke="#9a32cd" stroke-dasharray="5,2" d="M756.77,-352.36C721.68,-345.21 704.7,-356.52 683.29,-334 645.58,-294.32 697.16,-253.46 660.29,-213 643.16,-194.2 613.64,-188.41 592.67,-186.79"/>
<polygon fill="#9a32cd" stroke="#9a32cd" points="756.08,-355.79 766.62,-354.75 757.73,-348.99 756.08,-355.79"/>
</a>
</g>
<text text-anchor="middle" x="725.79" y="-309.5" font-family="Helvetica,sans-Serif" font-size="10.00" fill="grey"> animationTimer</text>
<text text-anchor="middle" x="725.79" y="-298.5" font-family="Helvetica,sans-Serif" font-size="10.00" fill="grey">boundingBoxSize</text>
<text text-anchor="middle" x="725.79" y="-287.5" font-family="Helvetica,sans-Serif" font-size="10.00" fill="grey">direction_angle</text>
<text text-anchor="middle" x="725.79" y="-276.5" font-family="Helvetica,sans-Serif" font-size="10.00" fill="grey">orientation</text>
<text text-anchor="middle" x="725.79" y="-265.5" font-family="Helvetica,sans-Serif" font-size="10.00" fill="grey">unk_09A</text>
<text text-anchor="middle" x="725.79" y="-254.5" font-family="Helvetica,sans-Serif" font-size="10.00" fill="grey">unk_0B8</text>
<text text-anchor="middle" x="725.79" y="-243.5" font-family="Helvetica,sans-Serif" font-size="10.00" fill="grey">unk_0C4</text>
<text text-anchor="middle" x="725.79" y="-232.5" font-family="Helvetica,sans-Serif" font-size="10.00" fill="grey">unk_0C6</text>
</g>
<!-- Node17 -->
<g id="Node000017" class="node">
<title>Node17</title>
<g id="a_Node000017"><a xlink:title=" ">
<polygon fill="white" stroke="#666666" points="962.29,-195 924.29,-195 924.29,-176 962.29,-176 962.29,-195"/>
<text text-anchor="middle" x="943.29" y="-183" font-family="Helvetica,sans-Serif" font-size="10.00">bool</text>
</a>
</g>
</g>
<!-- Node17&#45;&gt;Node1 -->
<g id="edge26_Node000001_Node000017" class="edge">
<title>Node17&#45;&gt;Node1</title>
<g id="a_edge26_Node000001_Node000017"><a xlink:title=" ">
<path fill="none" stroke="#9a32cd" stroke-dasharray="5,2" d="M951.05,-166.33C952.17,-163.55 953.28,-160.71 954.29,-158 965.69,-127.3 959.58,-115.54 977.29,-88 996.5,-58.13 1029.92,-32.14 1048.28,-19.21"/>
<polygon fill="#9a32cd" stroke="#9a32cd" points="947.74,-165.16 947.13,-175.73 954.2,-167.85 947.74,-165.16"/>
</a>
</g>
<text text-anchor="middle" x="1001.29" y="-95" font-family="Helvetica,sans-Serif" font-size="10.00" fill="grey"> _isActive</text>
</g>
<!-- Node17&#45;&gt;Node2 -->
<g id="edge20_Node000002_Node000017" class="edge">
<title>Node17&#45;&gt;Node2</title>
<g id="a_edge20_Node000002_Node000017"><a xlink:title=" ">
<path fill="none" stroke="#9a32cd" stroke-dasharray="5,2" d="M914.34,-178.93C899.21,-174.96 881.04,-168.43 867.29,-158 853.04,-147.2 859.16,-134.92 844.29,-125 816.07,-106.18 776.76,-100.47 750.46,-98.87"/>
<polygon fill="#9a32cd" stroke="#9a32cd" points="913.69,-182.38 924.23,-181.29 915.31,-175.57 913.69,-182.38"/>
</a>
</g>
<text text-anchor="middle" x="910.79" y="-139" font-family="Helvetica,sans-Serif" font-size="10.00" fill="grey"> bPendingDestroy</text>
</g>
<!-- Node18 -->
<g id="Node000018" class="node">
<title>Node18</title>
<g id="a_Node000018"><a xlink:href="structFVector.html" target="_top" xlink:title=" ">
<polygon fill="white" stroke="#666666" points="1087.79,-107 1034.79,-107 1034.79,-88 1087.79,-88 1087.79,-107"/>
<text text-anchor="middle" x="1061.29" y="-95" font-family="Helvetica,sans-Serif" font-size="10.00">FVector</text>
</a>
</g>
</g>
<!-- Node18&#45;&gt;Node1 -->
<g id="edge22_Node000001_Node000018" class="edge">
<title>Node18&#45;&gt;Node1</title>
<g id="a_edge22_Node000001_Node000018"><a xlink:title=" ">
<path fill="none" stroke="#9a32cd" stroke-dasharray="5,2" d="M1061.29,-77.91C1061.29,-59.67 1061.29,-32.65 1061.29,-19.03"/>
<polygon fill="#9a32cd" stroke="#9a32cd" points="1057.79,-77.94 1061.29,-87.94 1064.79,-77.94 1057.79,-77.94"/>
</a>
</g>
<text text-anchor="middle" x="1074.29" y="-51" font-family="Helvetica,sans-Serif" font-size="10.00" fill="grey"> _pos</text>
</g>
<!-- Node19 -->
<g id="Node000019" class="node">
<title>Node19</title>
<g id="a_Node000019"><a xlink:title=" ">
<polygon fill="white" stroke="#666666" points="1080.29,-195 1042.29,-195 1042.29,-176 1080.29,-176 1080.29,-195"/>
<text text-anchor="middle" x="1061.29" y="-183" font-family="Helvetica,sans-Serif" font-size="10.00">float</text>
</a>
</g>
</g>
<!-- Node19&#45;&gt;Node18 -->
<g id="edge23_Node000018_Node000019" class="edge">
<title>Node19&#45;&gt;Node18</title>
<g id="a_edge23_Node000018_Node000019"><a xlink:title=" ">
<path fill="none" stroke="#9a32cd" stroke-dasharray="5,2" d="M1061.29,-165.91C1061.29,-147.67 1061.29,-120.65 1061.29,-107.03"/>
<polygon fill="#9a32cd" stroke="#9a32cd" points="1057.79,-165.94 1061.29,-175.94 1064.79,-165.94 1057.79,-165.94"/>
</a>
</g>
<text text-anchor="middle" x="1066.29" y="-150" font-family="Helvetica,sans-Serif" font-size="10.00" fill="grey"> x</text>
<text text-anchor="middle" x="1066.29" y="-139" font-family="Helvetica,sans-Serif" font-size="10.00" fill="grey">y</text>
<text text-anchor="middle" x="1066.29" y="-128" font-family="Helvetica,sans-Serif" font-size="10.00" fill="grey">z</text>
</g>
<!-- Node20 -->
<g id="Node000020" class="node">
<title>Node20</title>
<g id="a_Node000020"><a xlink:title=" ">
<polygon fill="white" stroke="#666666" points="1150.79,-107 1105.79,-107 1105.79,-88 1150.79,-88 1150.79,-107"/>
<text text-anchor="middle" x="1128.29" y="-95" font-family="Helvetica,sans-Serif" font-size="10.00">size_t</text>
</a>
</g>
</g>
<!-- Node20&#45;&gt;Node1 -->
<g id="edge24_Node000001_Node000020" class="edge">
<title>Node20&#45;&gt;Node1</title>
<g id="a_edge24_Node000001_Node000020"><a xlink:title=" ">
<path fill="none" stroke="#9a32cd" stroke-dasharray="5,2" d="M1119.22,-79.05C1112.38,-66.69 1102.32,-50.05 1091.29,-37 1085.73,-30.42 1078.51,-24 1072.56,-19.12"/>
<polygon fill="#9a32cd" stroke="#9a32cd" points="1116.16,-80.74 1123.97,-87.9 1122.33,-77.43 1116.16,-80.74"/>
</a>
</g>
<text text-anchor="middle" x="1140.29" y="-62" font-family="Helvetica,sans-Serif" font-size="10.00" fill="grey"> _count</text>
<text text-anchor="middle" x="1140.29" y="-51" font-family="Helvetica,sans-Serif" font-size="10.00" fill="grey">_idx</text>
<text text-anchor="middle" x="1140.29" y="-40" font-family="Helvetica,sans-Serif" font-size="10.00" fill="grey">_numBoos</text>
</g>
<!-- Node21 -->
<g id="Node000021" class="node">
<title>Node21</title>
<g id="a_Node000021"><a xlink:title=" ">
<polygon fill="white" stroke="#666666" points="1255.79,-107 1168.79,-107 1168.79,-88 1255.79,-88 1255.79,-107"/>
<text text-anchor="middle" x="1212.29" y="-95" font-family="Helvetica,sans-Serif" font-size="10.00">vector&lt; s32 &gt;</text>
</a>
</g>
</g>
<!-- Node21&#45;&gt;Node1 -->
<g id="edge25_Node000001_Node000021" class="edge">
<title>Node21&#45;&gt;Node1</title>
<g id="a_edge25_Node000001_Node000021"><a xlink:title=" ">
<path fill="none" stroke="#9a32cd" stroke-dasharray="5,2" d="M1204,-78.47C1196.92,-65.04 1185.45,-47.31 1170.29,-37 1144.69,-19.58 1108.84,-13.58 1085.35,-11.53"/>
<polygon fill="#9a32cd" stroke="#9a32cd" points="1201,-80.28 1208.56,-87.7 1207.27,-77.19 1201,-80.28"/>
</a>
</g>
<text text-anchor="middle" x="1220.79" y="-51" font-family="Helvetica,sans-Serif" font-size="10.00" fill="grey"> _indices</text>
</g>
<!-- Node22 -->
<g id="Node000022" class="node">
<title>Node22</title>
<g id="a_Node000022"><a xlink:href="structIPathSpan.html" target="_top" xlink:title=" ">
<polygon fill="white" stroke="#666666" points="1338.79,-107 1273.79,-107 1273.79,-88 1338.79,-88 1338.79,-107"/>
<text text-anchor="middle" x="1306.29" y="-95" font-family="Helvetica,sans-Serif" font-size="10.00">IPathSpan</text>
</a>
</g>
</g>
<!-- Node22&#45;&gt;Node1 -->
<g id="edge28_Node000001_Node000022" class="edge">
<title>Node22&#45;&gt;Node1</title>
<g id="a_edge28_Node000001_Node000022"><a xlink:title=" ">
<path fill="none" stroke="#9a32cd" stroke-dasharray="5,2" d="M1294.28,-79.65C1283.42,-65.78 1266.11,-46.86 1246.29,-37 1218.48,-23.16 1128.75,-15.2 1085.31,-12.06"/>
<polygon fill="#9a32cd" stroke="#9a32cd" points="1291.66,-81.98 1300.46,-87.88 1297.26,-77.78 1291.66,-81.98"/>
</a>
</g>
<text text-anchor="middle" x="1323.79" y="-62" font-family="Helvetica,sans-Serif" font-size="10.00" fill="grey"> _active</text>
<text text-anchor="middle" x="1323.79" y="-51" font-family="Helvetica,sans-Serif" font-size="10.00" fill="grey">_leftBoundary</text>
<text text-anchor="middle" x="1323.79" y="-40" font-family="Helvetica,sans-Serif" font-size="10.00" fill="grey">_rightBoundary</text>
</g>
<!-- Node23 -->
<g id="Node000023" class="node">
<title>Node23</title>
<g id="a_Node000023"><a xlink:title=" ">
<polygon fill="white" stroke="#666666" points="1320.79,-195 1291.79,-195 1291.79,-176 1320.79,-176 1320.79,-195"/>
<text text-anchor="middle" x="1306.29" y="-183" font-family="Helvetica,sans-Serif" font-size="10.00">int</text>
</a>
</g>
</g>
<!-- Node23&#45;&gt;Node22 -->
<g id="edge29_Node000022_Node000023" class="edge">
<title>Node23&#45;&gt;Node22</title>
<g id="a_edge29_Node000022_Node000023"><a xlink:title=" ">
<path fill="none" stroke="#9a32cd" stroke-dasharray="5,2" d="M1306.29,-165.91C1306.29,-147.67 1306.29,-120.65 1306.29,-107.03"/>
<polygon fill="#9a32cd" stroke="#9a32cd" points="1302.79,-165.94 1306.29,-175.94 1309.79,-165.94 1302.79,-165.94"/>
</a>
</g>
<text text-anchor="middle" x="1318.29" y="-144.5" font-family="Helvetica,sans-Serif" font-size="10.00" fill="grey"> End</text>
<text text-anchor="middle" x="1318.29" y="-133.5" font-family="Helvetica,sans-Serif" font-size="10.00" fill="grey">Start</text>
</g>
</g>
</svg>

<g id="navigator" transform="translate(0 0)" fill="#404254">
  <rect fill="#f2f5e9" fill-opacity="0.5" stroke="#606060" stroke-width=".5" x="0" y="0" width="60" height="60"/>
  <use id="zoomplus" xlink:href="#zoomPlus" x="17" y="9" onmousedown="handleZoom(evt,'in')"/>
  <use id="zoomminus" xlink:href="#zoomMin" x="42" y="9" onmousedown="handleZoom(evt,'out')"/>
  <use id="reset" xlink:href="#resetDef" x="30" y="36" onmousedown="handleReset()"/>
   <use id="arrowup" xlink:href="#arrowUp" x="0" y="0" onmousedown="handlePan(0,-1)"/>
  <use id="arrowright" xlink:href="#arrowRight" x="0" y="0" onmousedown="handlePan(1,0)"/>
  <use id="arrowdown" xlink:href="#arrowDown" x="0" y="0" onmousedown="handlePan(0,1)"/>
  <use id="arrowleft" xlink:href="#arrowLeft" x="0" y="0" onmousedown="handlePan(-1,0)"/>
</g>
<svg viewBox="0 0 15 15" width="100%" height="30px" preserveAspectRatio="xMaxYMin meet">
 <g id="arrow_out" transform="scale(0.3 0.3)">
  <a xlink:href="classOBoos__coll__graph_org.svg" target="_base">
   <rect id="button" ry="5" rx="5" y="6" x="6" height="38" width="38"
        fill="#f2f5e9" fill-opacity="0.5" stroke="#606060" stroke-width="1.0"/>
   <path id="arrow"
     d="M 11.500037,31.436501 C 11.940474,20.09759 22.043105,11.32322 32.158766,21.979434 L 37.068811,17.246167 C 37.068811,17.246167 37.088388,32 37.088388,32 L 22.160133,31.978069 C 22.160133,31.978069 26.997745,27.140456 26.997745,27.140456 C 18.528582,18.264221 13.291696,25.230495 11.500037,31.436501 z"
     style="fill:#404040;"/>
  </a>
 </g>
</svg>

<style type='text/css'>
<![CDATA[
[data-mouse-over-selected='false'] { opacity: 0.7; }
[data-mouse-over-selected='true']  { opacity: 1.0; }
]]>
</style>
<script type="application/ecmascript"><![CDATA[
document.addEventListener('DOMContentLoaded', (event) => {
  highlightEdges();
  highlightAdjacentNodes();
});
]]></script>
</svg>
