<?xml version="1.0" encoding="UTF-8" standalone="no"?>
<!DOCTYPE svg PUBLIC "-//W3C//DTD SVG 1.1//EN"
 "http://www.w3.org/Graphics/SVG/1.1/DTD/svg11.dtd">
<!-- Generated by graphviz version 2.43.0 (0)
 -->
<!-- Title: OSeagull Pages: 1 -->
<svg width="1084pt" height="610pt"
 viewBox="0.00 0.00 1083.93 610.00" xmlns="http://www.w3.org/2000/svg" xmlns:xlink="http://www.w3.org/1999/xlink">
<g id="graph0" class="graph" transform="scale(1 1) rotate(0) translate(4 606)">
<title>OSeagull</title>
<!-- Node1 -->
<g id="Node000001" class="node">
<title>Node1</title>
<g id="a_Node000001"><a xlink:title=" ">
<polygon fill="#999999" stroke="#666666" points="927.43,-19 867.43,-19 867.43,0 927.43,0 927.43,-19"/>
<text text-anchor="middle" x="897.43" y="-7" font-family="Helvetica,sans-Serif" font-size="10.00">OSeagull</text>
</a>
</g>
</g>
<!-- Node2 -->
<g id="Node000002" class="node">
<title>Node2</title>
<g id="a_Node000002"><a xlink:href="classOObject.html" target="_top" xlink:title=" ">
<polygon fill="white" stroke="#666666" points="681.43,-85 625.43,-85 625.43,-66 681.43,-66 681.43,-85"/>
<text text-anchor="middle" x="653.43" y="-73" font-family="Helvetica,sans-Serif" font-size="10.00">OObject</text>
</a>
</g>
</g>
<!-- Node2&#45;&gt;Node1 -->
<g id="edge1_Node000001_Node000002" class="edge">
<title>Node2&#45;&gt;Node1</title>
<g id="a_edge1_Node000001_Node000002"><a xlink:title=" ">
<path fill="none" stroke="#63b8ff" d="M691.71,-64.46C740.24,-51.73 822.91,-30.05 867.24,-18.42"/>
<polygon fill="#63b8ff" stroke="#63b8ff" points="690.68,-61.11 681.89,-67.03 692.46,-67.88 690.68,-61.11"/>
</a>
</g>
</g>
<!-- Node3 -->
<g id="Node000003" class="node">
<title>Node3</title>
<g id="a_Node000003"><a xlink:title=" ">
<polygon fill="white" stroke="#666666" points="485.43,-173 435.43,-173 435.43,-154 485.43,-154 485.43,-173"/>
<text text-anchor="middle" x="460.43" y="-161" font-family="Helvetica,sans-Serif" font-size="10.00">uint8_t</text>
</a>
</g>
</g>
<!-- Node3&#45;&gt;Node2 -->
<g id="edge2_Node000002_Node000003" class="edge">
<title>Node3&#45;&gt;Node2</title>
<g id="a_edge2_Node000002_Node000003"><a xlink:title=" ">
<path fill="none" stroke="#9a32cd" stroke-dasharray="5,2" d="M476.78,-146.9C491.88,-133.34 515.54,-114.16 539.43,-103 567.04,-90.1 601.43,-83.22 625.18,-79.73"/>
<polygon fill="#9a32cd" stroke="#9a32cd" points="474.3,-144.43 469.32,-153.77 479.04,-149.57 474.3,-144.43"/>
</a>
</g>
<text text-anchor="middle" x="551.93" y="-117" font-family="Helvetica,sans-Serif" font-size="10.00" fill="grey"> uuid</text>
</g>
<!-- Node4 -->
<g id="Node000004" class="node">
<title>Node4</title>
<g id="a_Node000004"><a xlink:href="structObject.html" target="_top" xlink:title=" ">
<polygon fill="white" stroke="#666666" points="551.43,-173 503.43,-173 503.43,-154 551.43,-154 551.43,-173"/>
<text text-anchor="middle" x="527.43" y="-161" font-family="Helvetica,sans-Serif" font-size="10.00">Object</text>
</a>
</g>
</g>
<!-- Node4&#45;&gt;Node2 -->
<g id="edge3_Node000002_Node000004" class="edge">
<title>Node4&#45;&gt;Node2</title>
<g id="a_edge3_Node000002_Node000004"><a xlink:title=" ">
<path fill="none" stroke="#9a32cd" stroke-dasharray="5,2" d="M548.5,-148.12C574.92,-130.08 619.37,-99.75 640.94,-85.03"/>
<polygon fill="#9a32cd" stroke="#9a32cd" points="546.26,-145.41 539.97,-153.94 550.2,-151.19 546.26,-145.41"/>
</a>
</g>
<text text-anchor="middle" x="618.43" y="-117" font-family="Helvetica,sans-Serif" font-size="10.00" fill="grey"> o</text>
</g>
<!-- Node5 -->
<g id="Node000005" class="node">
<title>Node5</title>
<g id="a_Node000005"><a xlink:title=" ">
<polygon fill="white" stroke="#666666" points="364.43,-349 332.43,-349 332.43,-330 364.43,-330 364.43,-349"/>
<text text-anchor="middle" x="348.43" y="-337" font-family="Helvetica,sans-Serif" font-size="10.00">f32</text>
</a>
</g>
</g>
<!-- Node5&#45;&gt;Node4 -->
<g id="edge4_Node000004_Node000005" class="edge">
<title>Node5&#45;&gt;Node4</title>
<g id="a_edge4_Node000004_Node000005"><a xlink:title=" ">
<path fill="none" stroke="#9a32cd" stroke-dasharray="5,2" d="M322.6,-330.85C307.23,-325.71 289.87,-318.69 285.43,-312 255.67,-267.2 249.07,-230.62 285.43,-191 301.19,-173.83 471.45,-176.92 494.43,-173 497.34,-172.5 500.38,-171.88 503.38,-171.19"/>
<polygon fill="#9a32cd" stroke="#9a32cd" points="321.67,-334.22 332.26,-333.93 323.79,-327.55 321.67,-334.22"/>
</a>
</g>
<text text-anchor="middle" x="319.93" y="-287.5" font-family="Helvetica,sans-Serif" font-size="10.00" fill="grey"> offset</text>
<text text-anchor="middle" x="319.93" y="-276.5" font-family="Helvetica,sans-Serif" font-size="10.00" fill="grey">origin_pos</text>
<text text-anchor="middle" x="319.93" y="-265.5" font-family="Helvetica,sans-Serif" font-size="10.00" fill="grey">pos</text>
<text text-anchor="middle" x="319.93" y="-254.5" font-family="Helvetica,sans-Serif" font-size="10.00" fill="grey">sizeScaling</text>
<text text-anchor="middle" x="319.93" y="-243.5" font-family="Helvetica,sans-Serif" font-size="10.00" fill="grey">surfaceHeight</text>
<text text-anchor="middle" x="319.93" y="-232.5" font-family="Helvetica,sans-Serif" font-size="10.00" fill="grey">unk_01C</text>
<text text-anchor="middle" x="319.93" y="-221.5" font-family="Helvetica,sans-Serif" font-size="10.00" fill="grey">unk_034</text>
<text text-anchor="middle" x="319.93" y="-210.5" font-family="Helvetica,sans-Serif" font-size="10.00" fill="grey">velocity</text>
</g>
<!-- Node6 -->
<g id="Node000006" class="node">
<title>Node6</title>
<g id="a_Node000006"><a xlink:title=" ">
<polygon fill="white" stroke="#666666" points="45.43,-349 11.43,-349 11.43,-330 45.43,-330 45.43,-349"/>
<text text-anchor="middle" x="28.43" y="-337" font-family="Helvetica,sans-Serif" font-size="10.00">s32</text>
</a>
</g>
</g>
<!-- Node6&#45;&gt;Node1 -->
<g id="edge25_Node000001_Node000006" class="edge">
<title>Node6&#45;&gt;Node1</title>
<g id="a_edge25_Node000001_Node000006"><a xlink:title=" ">
<path fill="none" stroke="#9a32cd" stroke-dasharray="5,2" d="M17.57,-320.74C16.27,-317.9 15.15,-314.94 14.43,-312 1.49,-259.8 -9.31,-239.26 14.43,-191 18.02,-183.69 115.09,-108.81 129.43,-103 267.41,-47.04 742.6,-18.62 867.27,-12.02"/>
<polygon fill="#9a32cd" stroke="#9a32cd" points="14.52,-322.47 22.34,-329.62 20.69,-319.16 14.52,-322.47"/>
</a>
</g>
<text text-anchor="middle" x="141.43" y="-117" font-family="Helvetica,sans-Serif" font-size="10.00" fill="grey"> _idx</text>
</g>
<!-- Node6&#45;&gt;Node2 -->
<g id="edge21_Node000002_Node000006" class="edge">
<title>Node6&#45;&gt;Node2</title>
<g id="a_edge21_Node000002_Node000006"><a xlink:title=" ">
<path fill="none" stroke="#9a32cd" stroke-dasharray="5,2" d="M23.9,-319.92C17.57,-288.96 10.16,-226.69 42.43,-191 122.04,-102.94 516.06,-81.67 625.3,-77.43"/>
<polygon fill="#9a32cd" stroke="#9a32cd" points="20.51,-320.81 26.11,-329.81 27.35,-319.28 20.51,-320.81"/>
</a>
</g>
<text text-anchor="middle" x="133.43" y="-161" font-family="Helvetica,sans-Serif" font-size="10.00" fill="grey"> _objectIndex</text>
</g>
<!-- Node6&#45;&gt;Node4 -->
<g id="edge5_Node000004_Node000006" class="edge">
<title>Node6&#45;&gt;Node4</title>
<g id="a_edge5_Node000004_Node000006"><a xlink:title=" ">
<path fill="none" stroke="#9a32cd" stroke-dasharray="5,2" d="M36.52,-320.44C37.6,-317.65 38.61,-314.77 39.43,-312 54.88,-259.57 20.2,-226.89 61.43,-191 79.59,-175.19 470.61,-176.52 494.43,-173 497.35,-172.57 500.4,-171.98 503.4,-171.31"/>
<polygon fill="#9a32cd" stroke="#9a32cd" points="33.22,-319.26 32.57,-329.84 39.67,-321.97 33.22,-319.26"/>
</a>
</g>
<text text-anchor="middle" x="82.93" y="-276.5" font-family="Helvetica,sans-Serif" font-size="10.00" fill="grey"> status</text>
<text text-anchor="middle" x="82.93" y="-265.5" font-family="Helvetica,sans-Serif" font-size="10.00" fill="grey">timer</text>
<text text-anchor="middle" x="82.93" y="-254.5" font-family="Helvetica,sans-Serif" font-size="10.00" fill="grey">unk_048</text>
<text text-anchor="middle" x="82.93" y="-243.5" font-family="Helvetica,sans-Serif" font-size="10.00" fill="grey">unk_04C</text>
<text text-anchor="middle" x="82.93" y="-232.5" font-family="Helvetica,sans-Serif" font-size="10.00" fill="grey">unk_058</text>
<text text-anchor="middle" x="82.93" y="-221.5" font-family="Helvetica,sans-Serif" font-size="10.00" fill="grey">unk_05C</text>
</g>
<!-- Node7 -->
<g id="Node000007" class="node">
<title>Node7</title>
<g id="a_Node000007"><a xlink:title=" ">
<polygon fill="white" stroke="#666666" points="777.93,-349 702.93,-349 702.93,-330 777.93,-330 777.93,-349"/>
<text text-anchor="middle" x="740.43" y="-337" font-family="Helvetica,sans-Serif" font-size="10.00">const char *</text>
</a>
</g>
</g>
<!-- Node7&#45;&gt;Node2 -->
<g id="edge19_Node000002_Node000007" class="edge">
<title>Node7&#45;&gt;Node2</title>
<g id="a_edge19_Node000002_Node000007"><a xlink:title=" ">
<path fill="none" stroke="#9a32cd" stroke-dasharray="5,2" d="M768.13,-324.12C772.28,-320.72 775.98,-316.69 778.43,-312 803.3,-264.32 800.09,-240.22 778.43,-191 755.9,-139.82 697.96,-101.54 669.58,-85.2"/>
<polygon fill="#9a32cd" stroke="#9a32cd" points="766.04,-321.32 759.81,-329.89 770.03,-327.07 766.04,-321.32"/>
</a>
</g>
<text text-anchor="middle" x="784.93" y="-161" font-family="Helvetica,sans-Serif" font-size="10.00" fill="grey"> Name</text>
</g>
<!-- Node7&#45;&gt;Node4 -->
<g id="edge6_Node000004_Node000007" class="edge">
<title>Node7&#45;&gt;Node4</title>
<g id="a_edge6_Node000004_Node000007"><a xlink:title=" ">
<path fill="none" stroke="#9a32cd" stroke-dasharray="5,2" d="M719.9,-322.93C716.65,-319.64 713.63,-315.95 711.43,-312 684.75,-264.2 727.61,-229.23 688.43,-191 669.37,-172.41 591.47,-166.83 551.44,-165.18"/>
<polygon fill="#9a32cd" stroke="#9a32cd" points="717.85,-325.79 727.65,-329.83 722.51,-320.56 717.85,-325.79"/>
</a>
</g>
<text text-anchor="middle" x="744.93" y="-254.5" font-family="Helvetica,sans-Serif" font-size="10.00" fill="grey"> activeTLUT</text>
<text text-anchor="middle" x="744.93" y="-243.5" font-family="Helvetica,sans-Serif" font-size="10.00" fill="grey">activeTexture</text>
</g>
<!-- Node8 -->
<g id="Node000008" class="node">
<title>Node8</title>
<g id="a_Node000008"><a xlink:title=" ">
<polygon fill="white" stroke="#666666" points="494.93,-349 465.93,-349 465.93,-330 494.93,-330 494.93,-349"/>
<text text-anchor="middle" x="480.43" y="-337" font-family="Helvetica,sans-Serif" font-size="10.00">u8</text>
</a>
</g>
</g>
<!-- Node8&#45;&gt;Node4 -->
<g id="edge7_Node000004_Node000008" class="edge">
<title>Node8&#45;&gt;Node4</title>
<g id="a_edge7_Node000004_Node000008"><a xlink:title=" ">
<path fill="none" stroke="#9a32cd" stroke-dasharray="5,2" d="M475.04,-319.93C467.62,-290.38 457.65,-231.81 481.43,-191 486.25,-182.72 494.75,-176.79 503.14,-172.67"/>
<polygon fill="#9a32cd" stroke="#9a32cd" points="471.71,-321 477.69,-329.74 478.47,-319.18 471.71,-321"/>
</a>
</g>
<text text-anchor="middle" x="516.93" y="-304" font-family="Helvetica,sans-Serif" font-size="10.00" fill="grey"> textureHeight</text>
<text text-anchor="middle" x="516.93" y="-293" font-family="Helvetica,sans-Serif" font-size="10.00" fill="grey">textureWidth</text>
<text text-anchor="middle" x="516.93" y="-282" font-family="Helvetica,sans-Serif" font-size="10.00" fill="grey">tlutList</text>
<text text-anchor="middle" x="516.93" y="-271" font-family="Helvetica,sans-Serif" font-size="10.00" fill="grey">unk_0D5</text>
<text text-anchor="middle" x="516.93" y="-260" font-family="Helvetica,sans-Serif" font-size="10.00" fill="grey">unk_0D6</text>
<text text-anchor="middle" x="516.93" y="-249" font-family="Helvetica,sans-Serif" font-size="10.00" fill="grey">unk_0D7</text>
<text text-anchor="middle" x="516.93" y="-238" font-family="Helvetica,sans-Serif" font-size="10.00" fill="grey">unk_0D8</text>
<text text-anchor="middle" x="516.93" y="-227" font-family="Helvetica,sans-Serif" font-size="10.00" fill="grey">unk_0DB</text>
<text text-anchor="middle" x="516.93" y="-216" font-family="Helvetica,sans-Serif" font-size="10.00" fill="grey">unk_0DC</text>
<text text-anchor="middle" x="516.93" y="-205" font-family="Helvetica,sans-Serif" font-size="10.00" fill="grey">unk_0DD</text>
<text text-anchor="middle" x="516.93" y="-194" font-family="Helvetica,sans-Serif" font-size="10.00" fill="grey">...</text>
</g>
<!-- Node9 -->
<g id="Node000009" class="node">
<title>Node9</title>
<g id="a_Node000009"><a xlink:title=" ">
<polygon fill="white" stroke="#666666" points="614.43,-349 534.43,-349 534.43,-330 614.43,-330 614.43,-349"/>
<text text-anchor="middle" x="574.43" y="-337" font-family="Helvetica,sans-Serif" font-size="10.00">const char **</text>
</a>
</g>
</g>
<!-- Node9&#45;&gt;Node4 -->
<g id="edge8_Node000004_Node000009" class="edge">
<title>Node9&#45;&gt;Node4</title>
<g id="a_edge8_Node000004_Node000009"><a xlink:title=" ">
<path fill="none" stroke="#9a32cd" stroke-dasharray="5,2" d="M575.13,-319.67C575.47,-290.56 573.11,-233.58 552.43,-191 549.11,-184.17 543.41,-177.92 538.29,-173.21"/>
<polygon fill="#9a32cd" stroke="#9a32cd" points="571.62,-319.91 574.88,-330 578.62,-320.09 571.62,-319.91"/>
</a>
</g>
<text text-anchor="middle" x="603.43" y="-249" font-family="Helvetica,sans-Serif" font-size="10.00" fill="grey"> textureList</text>
</g>
<!-- Node10 -->
<g id="Node000010" class="node">
<title>Node10</title>
<g id="a_Node000010"><a xlink:title=" ">
<polygon fill="white" stroke="#666666" points="670.43,-349 636.43,-349 636.43,-330 670.43,-330 670.43,-349"/>
<text text-anchor="middle" x="653.43" y="-337" font-family="Helvetica,sans-Serif" font-size="10.00">Gfx</text>
</a>
</g>
</g>
<!-- Node10&#45;&gt;Node4 -->
<g id="edge9_Node000004_Node000010" class="edge">
<title>Node10&#45;&gt;Node4</title>
<g id="a_edge9_Node000004_Node000010"><a xlink:title=" ">
<path fill="none" stroke="#9a32cd" stroke-dasharray="5,2" d="M653.13,-319.56C652.18,-284.09 648.19,-209.56 631.43,-191 611.32,-168.74 575.37,-164 551.46,-163.54"/>
<polygon fill="#9a32cd" stroke="#9a32cd" points="649.64,-320.03 653.35,-329.95 656.64,-319.88 649.64,-320.03"/>
</a>
</g>
<text text-anchor="middle" x="670.43" y="-249" font-family="Helvetica,sans-Serif" font-size="10.00" fill="grey"> model</text>
</g>
<!-- Node11 -->
<g id="Node000011" class="node">
<title>Node11</title>
<g id="a_Node000011"><a xlink:title=" ">
<polygon fill="white" stroke="#666666" points="835.93,-349 802.93,-349 802.93,-330 835.93,-330 835.93,-349"/>
<text text-anchor="middle" x="819.43" y="-337" font-family="Helvetica,sans-Serif" font-size="10.00">Vtx</text>
</a>
</g>
</g>
<!-- Node11&#45;&gt;Node4 -->
<g id="edge10_Node000004_Node000011" class="edge">
<title>Node11&#45;&gt;Node4</title>
<g id="a_edge10_Node000004_Node000011"><a xlink:title=" ">
<path fill="none" stroke="#9a32cd" stroke-dasharray="5,2" d="M820.92,-319.65C822.3,-287.77 819.91,-223.5 782.43,-191 765.19,-176.06 612.04,-168.05 551.7,-165.46"/>
<polygon fill="#9a32cd" stroke="#9a32cd" points="817.42,-319.62 820.3,-329.81 824.4,-320.04 817.42,-319.62"/>
</a>
</g>
<text text-anchor="middle" x="838.93" y="-249" font-family="Helvetica,sans-Serif" font-size="10.00" fill="grey"> vertex</text>
</g>
<!-- Node12 -->
<g id="Node000012" class="node">
<title>Node12</title>
<g id="a_Node000012"><a xlink:title=" ">
<polygon fill="white" stroke="#666666" points="141.93,-349 112.93,-349 112.93,-330 141.93,-330 141.93,-349"/>
<text text-anchor="middle" x="127.43" y="-337" font-family="Helvetica,sans-Serif" font-size="10.00">s8</text>
</a>
</g>
</g>
<!-- Node12&#45;&gt;Node4 -->
<g id="edge11_Node000004_Node000012" class="edge">
<title>Node12&#45;&gt;Node4</title>
<g id="a_edge11_Node000004_Node000012"><a xlink:title=" ">
<path fill="none" stroke="#9a32cd" stroke-dasharray="5,2" d="M120.52,-320.09C110.17,-288.91 95.14,-225.73 128.43,-191 156.6,-161.61 454.17,-179.11 494.43,-173 497.35,-172.56 500.39,-171.96 503.39,-171.29"/>
<polygon fill="#9a32cd" stroke="#9a32cd" points="117.28,-321.42 123.91,-329.68 123.88,-319.09 117.28,-321.42"/>
</a>
</g>
<text text-anchor="middle" x="168.43" y="-304" font-family="Helvetica,sans-Serif" font-size="10.00" fill="grey"> isTimerActive</text>
<text text-anchor="middle" x="168.43" y="-293" font-family="Helvetica,sans-Serif" font-size="10.00" fill="grey">textureListIndex</text>
<text text-anchor="middle" x="168.43" y="-282" font-family="Helvetica,sans-Serif" font-size="10.00" fill="grey">unk_078</text>
<text text-anchor="middle" x="168.43" y="-271" font-family="Helvetica,sans-Serif" font-size="10.00" fill="grey">unk_0CA</text>
<text text-anchor="middle" x="168.43" y="-260" font-family="Helvetica,sans-Serif" font-size="10.00" fill="grey">unk_0CC</text>
<text text-anchor="middle" x="168.43" y="-249" font-family="Helvetica,sans-Serif" font-size="10.00" fill="grey">unk_0CD</text>
<text text-anchor="middle" x="168.43" y="-238" font-family="Helvetica,sans-Serif" font-size="10.00" fill="grey">unk_0CE</text>
<text text-anchor="middle" x="168.43" y="-227" font-family="Helvetica,sans-Serif" font-size="10.00" fill="grey">unk_0CF</text>
<text text-anchor="middle" x="168.43" y="-216" font-family="Helvetica,sans-Serif" font-size="10.00" fill="grey">unk_0D0</text>
<text text-anchor="middle" x="168.43" y="-205" font-family="Helvetica,sans-Serif" font-size="10.00" fill="grey">unk_0D1</text>
<text text-anchor="middle" x="168.43" y="-194" font-family="Helvetica,sans-Serif" font-size="10.00" fill="grey">...</text>
</g>
<!-- Node13 -->
<g id="Node000013" class="node">
<title>Node13</title>
<g id="a_Node000013"><a xlink:href="structSplineControlPoint.html" target="_top" xlink:title=" ">
<polygon fill="white" stroke="#666666" points="342.93,-525 235.93,-525 235.93,-506 342.93,-506 342.93,-525"/>
<text text-anchor="middle" x="289.43" y="-513" font-family="Helvetica,sans-Serif" font-size="10.00">SplineControlPoint</text>
</a>
</g>
</g>
<!-- Node13&#45;&gt;Node4 -->
<g id="edge12_Node000004_Node000013" class="edge">
<title>Node13&#45;&gt;Node4</title>
<g id="a_edge12_Node000004_Node000013"><a xlink:title=" ">
<path fill="none" stroke="#9a32cd" stroke-dasharray="5,2" d="M284.49,-495.98C276.67,-465.57 261.76,-403.03 256.43,-349 250.91,-293.08 227.98,-225.85 261.43,-191 279.41,-172.27 468.81,-177.25 494.43,-173 497.34,-172.52 500.38,-171.9 503.38,-171.21"/>
<polygon fill="#9a32cd" stroke="#9a32cd" points="281.19,-497.19 287.11,-505.97 287.96,-495.41 281.19,-497.19"/>
</a>
</g>
<text text-anchor="middle" x="289.93" y="-337" font-family="Helvetica,sans-Serif" font-size="10.00" fill="grey"> controlPoints</text>
</g>
<!-- Node15 -->
<g id="Node000015" class="node">
<title>Node15</title>
<g id="a_Node000015"><a xlink:href="structSplineData.html" target="_top" xlink:title=" ">
<polygon fill="white" stroke="#666666" points="924.43,-349 854.43,-349 854.43,-330 924.43,-330 924.43,-349"/>
<text text-anchor="middle" x="889.43" y="-337" font-family="Helvetica,sans-Serif" font-size="10.00">SplineData</text>
</a>
</g>
</g>
<!-- Node13&#45;&gt;Node15 -->
<g id="edge16_Node000015_Node000013" class="edge">
<title>Node13&#45;&gt;Node15</title>
<g id="a_edge16_Node000015_Node000013"><a xlink:title=" ">
<path fill="none" stroke="#9a32cd" stroke-dasharray="5,2" d="M316.18,-501.57C378.09,-472.27 536.74,-400.73 677.43,-367 750.02,-349.59 770.58,-359.94 844.43,-349 847.57,-348.53 850.83,-348.01 854.1,-347.45"/>
<polygon fill="#9a32cd" stroke="#9a32cd" points="314.61,-498.44 307.09,-505.9 317.62,-504.76 314.61,-498.44"/>
</a>
</g>
<text text-anchor="middle" x="710.93" y="-425" font-family="Helvetica,sans-Serif" font-size="10.00" fill="grey"> controlPoints</text>
</g>
<!-- Node14 -->
<g id="Node000014" class="node">
<title>Node14</title>
<g id="a_Node000014"><a xlink:title=" ">
<polygon fill="white" stroke="#666666" points="306.43,-602 272.43,-602 272.43,-583 306.43,-583 306.43,-602"/>
<text text-anchor="middle" x="289.43" y="-590" font-family="Helvetica,sans-Serif" font-size="10.00">s16</text>
</a>
</g>
</g>
<!-- Node14&#45;&gt;Node4 -->
<g id="edge17_Node000004_Node000014" class="edge">
<title>Node14&#45;&gt;Node4</title>
<g id="a_edge17_Node000004_Node000014"><a xlink:title=" ">
<path fill="none" stroke="#9a32cd" stroke-dasharray="5,2" d="M269.39,-576.56C247.19,-558.52 213.01,-525.83 201.43,-488 185.68,-436.58 195.57,-420.46 201.43,-367 203.61,-347.09 225.26,-204.08 240.43,-191 261.85,-172.52 466.5,-177.55 494.43,-173 497.35,-172.52 500.38,-171.91 503.38,-171.23"/>
<polygon fill="#9a32cd" stroke="#9a32cd" points="267.49,-579.52 277.51,-582.95 271.81,-574.02 267.49,-579.52"/>
</a>
</g>
<text text-anchor="middle" x="228.43" y="-480" font-family="Helvetica,sans-Serif" font-size="10.00" fill="grey"> primAlpha</text>
<text text-anchor="middle" x="228.43" y="-469" font-family="Helvetica,sans-Serif" font-size="10.00" fill="grey">state</text>
<text text-anchor="middle" x="228.43" y="-458" font-family="Helvetica,sans-Serif" font-size="10.00" fill="grey">type</text>
<text text-anchor="middle" x="228.43" y="-447" font-family="Helvetica,sans-Serif" font-size="10.00" fill="grey">unk_084</text>
<text text-anchor="middle" x="228.43" y="-436" font-family="Helvetica,sans-Serif" font-size="10.00" fill="grey">unk_09C</text>
<text text-anchor="middle" x="228.43" y="-425" font-family="Helvetica,sans-Serif" font-size="10.00" fill="grey">unk_09E</text>
<text text-anchor="middle" x="228.43" y="-414" font-family="Helvetica,sans-Serif" font-size="10.00" fill="grey">unk_0A2</text>
<text text-anchor="middle" x="228.43" y="-403" font-family="Helvetica,sans-Serif" font-size="10.00" fill="grey">unk_0A8</text>
<text text-anchor="middle" x="228.43" y="-392" font-family="Helvetica,sans-Serif" font-size="10.00" fill="grey">unk_0AA</text>
<text text-anchor="middle" x="228.43" y="-381" font-family="Helvetica,sans-Serif" font-size="10.00" fill="grey">unk_0AC</text>
<text text-anchor="middle" x="228.43" y="-370" font-family="Helvetica,sans-Serif" font-size="10.00" fill="grey">...</text>
</g>
<!-- Node14&#45;&gt;Node13 -->
<g id="edge13_Node000013_Node000014" class="edge">
<title>Node14&#45;&gt;Node13</title>
<g id="a_edge13_Node000013_Node000014"><a xlink:title=" ">
<path fill="none" stroke="#9a32cd" stroke-dasharray="5,2" d="M289.43,-572.52C289.43,-557.24 289.43,-536.48 289.43,-525"/>
<polygon fill="#9a32cd" stroke="#9a32cd" points="285.93,-572.9 289.43,-582.9 292.93,-572.9 285.93,-572.9"/>
</a>
</g>
<text text-anchor="middle" x="309.43" y="-557" font-family="Helvetica,sans-Serif" font-size="10.00" fill="grey"> pos</text>
<text text-anchor="middle" x="309.43" y="-546" font-family="Helvetica,sans-Serif" font-size="10.00" fill="grey">velocity</text>
</g>
<!-- Node14&#45;&gt;Node15 -->
<g id="edge15_Node000015_Node000014" class="edge">
<title>Node14&#45;&gt;Node15</title>
<g id="a_edge15_Node000015_Node000014"><a xlink:title=" ">
<path fill="none" stroke="#9a32cd" stroke-dasharray="5,2" d="M317.09,-590.55C391.11,-586.92 598.06,-569.64 744.43,-488 810.6,-451.09 866.19,-374.82 883.69,-349.15"/>
<polygon fill="#9a32cd" stroke="#9a32cd" points="316.6,-587.07 306.76,-591.01 316.91,-594.06 316.6,-587.07"/>
</a>
</g>
<text text-anchor="middle" x="752.93" y="-513" font-family="Helvetica,sans-Serif" font-size="10.00" fill="grey"> numControlPoints</text>
</g>
<!-- Node15&#45;&gt;Node1 -->
<g id="edge27_Node000001_Node000015" class="edge">
<title>Node15&#45;&gt;Node1</title>
<g id="a_edge27_Node000001_Node000015"><a xlink:title=" ">
<path fill="none" stroke="#9a32cd" stroke-dasharray="5,2" d="M910.02,-322.97C913.03,-319.7 915.7,-316.01 917.43,-312 960.65,-211.57 936.24,-173.7 917.43,-66 914.43,-48.85 906.59,-30 901.67,-19.28"/>
<polygon fill="#9a32cd" stroke="#9a32cd" points="907.61,-320.43 902.64,-329.79 912.36,-325.58 907.61,-320.43"/>
</a>
</g>
<text text-anchor="middle" x="946.93" y="-117" font-family="Helvetica,sans-Serif" font-size="10.00" fill="grey"> spline</text>
</g>
<!-- Node15&#45;&gt;Node4 -->
<g id="edge14_Node000004_Node000015" class="edge">
<title>Node15&#45;&gt;Node4</title>
<g id="a_edge14_Node000004_Node000015"><a xlink:title=" ">
<path fill="none" stroke="#9a32cd" stroke-dasharray="5,2" d="M885.92,-319.88C878.46,-280.47 861.64,-192.08 860.43,-191 848.9,-180.73 626.03,-169.2 551.48,-165.62"/>
<polygon fill="#9a32cd" stroke="#9a32cd" points="882.49,-320.62 887.79,-329.79 889.37,-319.32 882.49,-320.62"/>
</a>
</g>
<text text-anchor="middle" x="900.93" y="-249" font-family="Helvetica,sans-Serif" font-size="10.00" fill="grey"> spline</text>
</g>
<!-- Node16 -->
<g id="Node000016" class="node">
<title>Node16</title>
<g id="a_Node000016"><a xlink:title=" ">
<polygon fill="white" stroke="#666666" points="417.93,-349 382.93,-349 382.93,-330 417.93,-330 417.93,-349"/>
<text text-anchor="middle" x="400.43" y="-337" font-family="Helvetica,sans-Serif" font-size="10.00">u16</text>
</a>
</g>
</g>
<!-- Node16&#45;&gt;Node4 -->
<g id="edge18_Node000004_Node000016" class="edge">
<title>Node16&#45;&gt;Node4</title>
<g id="a_edge18_Node000004_Node000016"><a xlink:title=" ">
<path fill="none" stroke="#9a32cd" stroke-dasharray="5,2" d="M383.83,-321.9C381.62,-318.83 379.68,-315.48 378.43,-312 360.17,-261.42 343.44,-231.84 378.43,-191 395.4,-171.19 468.88,-178.26 494.43,-173 497.32,-172.4 500.35,-171.72 503.34,-171"/>
<polygon fill="#9a32cd" stroke="#9a32cd" points="381.32,-324.36 390.46,-329.72 386.66,-319.83 381.32,-324.36"/>
</a>
</g>
<text text-anchor="middle" x="420.93" y="-287.5" font-family="Helvetica,sans-Serif" font-size="10.00" fill="grey"> animationTimer</text>
<text text-anchor="middle" x="420.93" y="-276.5" font-family="Helvetica,sans-Serif" font-size="10.00" fill="grey">boundingBoxSize</text>
<text text-anchor="middle" x="420.93" y="-265.5" font-family="Helvetica,sans-Serif" font-size="10.00" fill="grey">direction_angle</text>
<text text-anchor="middle" x="420.93" y="-254.5" font-family="Helvetica,sans-Serif" font-size="10.00" fill="grey">orientation</text>
<text text-anchor="middle" x="420.93" y="-243.5" font-family="Helvetica,sans-Serif" font-size="10.00" fill="grey">unk_09A</text>
<text text-anchor="middle" x="420.93" y="-232.5" font-family="Helvetica,sans-Serif" font-size="10.00" fill="grey">unk_0B8</text>
<text text-anchor="middle" x="420.93" y="-221.5" font-family="Helvetica,sans-Serif" font-size="10.00" fill="grey">unk_0C4</text>
<text text-anchor="middle" x="420.93" y="-210.5" font-family="Helvetica,sans-Serif" font-size="10.00" fill="grey">unk_0C6</text>
</g>
<!-- Node17 -->
<g id="Node000017" class="node">
<title>Node17</title>
<g id="a_Node000017"><a xlink:title=" ">
<polygon fill="white" stroke="#666666" points="849.43,-173 811.43,-173 811.43,-154 849.43,-154 849.43,-173"/>
<text text-anchor="middle" x="830.43" y="-161" font-family="Helvetica,sans-Serif" font-size="10.00">bool</text>
</a>
</g>
</g>
<!-- Node17&#45;&gt;Node1 -->
<g id="edge26_Node000001_Node000017" class="edge">
<title>Node17&#45;&gt;Node1</title>
<g id="a_edge26_Node000001_Node000017"><a xlink:title=" ">
<path fill="none" stroke="#9a32cd" stroke-dasharray="5,2" d="M843.76,-145.24C845.79,-142.24 847.76,-139.09 849.43,-136 855.31,-125.06 884.63,-45.44 894.32,-19.01"/>
<polygon fill="#9a32cd" stroke="#9a32cd" points="840.76,-143.41 837.72,-153.56 846.42,-147.52 840.76,-143.41"/>
</a>
</g>
<text text-anchor="middle" x="897.43" y="-73" font-family="Helvetica,sans-Serif" font-size="10.00" fill="grey"> _toggle</text>
</g>
<!-- Node17&#45;&gt;Node2 -->
<g id="edge20_Node000002_Node000017" class="edge">
<title>Node17&#45;&gt;Node2</title>
<g id="a_edge20_Node000002_Node000017"><a xlink:title=" ">
<path fill="none" stroke="#9a32cd" stroke-dasharray="5,2" d="M801.49,-153.11C786.01,-147.72 768.84,-141.05 762.43,-136 748.38,-124.94 753.87,-113.54 739.43,-103 722.39,-90.57 699.41,-83.88 681.49,-80.33"/>
<polygon fill="#9a32cd" stroke="#9a32cd" points="800.7,-156.54 811.29,-156.44 802.95,-149.91 800.7,-156.54"/>
</a>
</g>
<text text-anchor="middle" x="805.93" y="-117" font-family="Helvetica,sans-Serif" font-size="10.00" fill="grey"> bPendingDestroy</text>
</g>
<!-- Node18 -->
<g id="Node000018" class="node">
<title>Node18</title>
<g id="a_Node000018"><a xlink:href="structFVector.html" target="_top" xlink:title=" ">
<polygon fill="white" stroke="#666666" points="1012.93,-85 959.93,-85 959.93,-66 1012.93,-66 1012.93,-85"/>
<text text-anchor="middle" x="986.43" y="-73" font-family="Helvetica,sans-Serif" font-size="10.00">FVector</text>
</a>
</g>
</g>
<!-- Node18&#45;&gt;Node1 -->
<g id="edge22_Node000001_Node000018" class="edge">
<title>Node18&#45;&gt;Node1</title>
<g id="a_edge22_Node000001_Node000018"><a xlink:title=" ">
<path fill="none" stroke="#9a32cd" stroke-dasharray="5,2" d="M970.93,-58.71C963.56,-51.63 954.4,-43.44 945.43,-37 935.99,-30.23 924.65,-23.89 915.36,-19.11"/>
<polygon fill="#9a32cd" stroke="#9a32cd" points="968.56,-61.29 978.14,-65.82 973.48,-56.31 968.56,-61.29"/>
</a>
</g>
<text text-anchor="middle" x="971.43" y="-40" font-family="Helvetica,sans-Serif" font-size="10.00" fill="grey"> _pos</text>
</g>
<!-- Node19 -->
<g id="Node000019" class="node">
<title>Node19</title>
<g id="a_Node000019"><a xlink:title=" ">
<polygon fill="white" stroke="#666666" points="1006.43,-173 968.43,-173 968.43,-154 1006.43,-154 1006.43,-173"/>
<text text-anchor="middle" x="987.43" y="-161" font-family="Helvetica,sans-Serif" font-size="10.00">float</text>
</a>
</g>
</g>
<!-- Node19&#45;&gt;Node18 -->
<g id="edge23_Node000018_Node000019" class="edge">
<title>Node19&#45;&gt;Node18</title>
<g id="a_edge23_Node000018_Node000019"><a xlink:title=" ">
<path fill="none" stroke="#9a32cd" stroke-dasharray="5,2" d="M987.21,-143.91C987,-125.67 986.68,-98.65 986.53,-85.03"/>
<polygon fill="#9a32cd" stroke="#9a32cd" points="983.71,-143.98 987.33,-153.94 990.71,-143.9 983.71,-143.98"/>
</a>
</g>
<text text-anchor="middle" x="991.43" y="-128" font-family="Helvetica,sans-Serif" font-size="10.00" fill="grey"> x</text>
<text text-anchor="middle" x="991.43" y="-117" font-family="Helvetica,sans-Serif" font-size="10.00" fill="grey">y</text>
<text text-anchor="middle" x="991.43" y="-106" font-family="Helvetica,sans-Serif" font-size="10.00" fill="grey">z</text>
</g>
<!-- Node20 -->
<g id="Node000020" class="node">
<title>Node20</title>
<g id="a_Node000020"><a xlink:title=" ">
<polygon fill="white" stroke="#666666" points="1075.93,-85 1030.93,-85 1030.93,-66 1075.93,-66 1075.93,-85"/>
<text text-anchor="middle" x="1053.43" y="-73" font-family="Helvetica,sans-Serif" font-size="10.00">size_t</text>
</a>
</g>
</g>
<!-- Node20&#45;&gt;Node1 -->
<g id="edge24_Node000001_Node000020" class="edge">
<title>Node20&#45;&gt;Node1</title>
<g id="a_edge24_Node000001_Node000020"><a xlink:title=" ">
<path fill="none" stroke="#9a32cd" stroke-dasharray="5,2" d="M1031.82,-60.28C1019.48,-52.61 1003.51,-43.44 988.43,-37 968.75,-28.6 945.59,-21.9 927.56,-17.34"/>
<polygon fill="#9a32cd" stroke="#9a32cd" points="1030.15,-63.36 1040.47,-65.77 1033.9,-57.46 1030.15,-63.36"/>
</a>
</g>
<text text-anchor="middle" x="1028.43" y="-40" font-family="Helvetica,sans-Serif" font-size="10.00" fill="grey"> _count</text>
</g>
</g>
</svg>
