<?xml version="1.0" encoding="UTF-8" standalone="no"?>
<!DOCTYPE svg PUBLIC "-//W3C//DTD SVG 1.1//EN"
 "http://www.w3.org/Graphics/SVG/1.1/DTD/svg11.dtd">
<!-- Generated by graphviz version 2.43.0 (0)
 -->
<!-- Title: OMole Pages: 1 -->
<svg width="1118pt" height="676pt"
 viewBox="0.00 0.00 1118.00 676.00" xmlns="http://www.w3.org/2000/svg" xmlns:xlink="http://www.w3.org/1999/xlink">
<g id="graph0" class="graph" transform="scale(1 1) rotate(0) translate(4 672)">
<title>OMole</title>
<!-- Node1 -->
<g id="Node000001" class="node">
<title>Node1</title>
<g id="a_Node000001"><a xlink:title=" ">
<polygon fill="#999999" stroke="#666666" points="808,-19 760,-19 760,0 808,0 808,-19"/>
<text text-anchor="middle" x="784" y="-7" font-family="Helvetica,sans-Serif" font-size="10.00">OMole</text>
</a>
</g>
</g>
<!-- Node2 -->
<g id="Node000002" class="node">
<title>Node2</title>
<g id="a_Node000002"><a xlink:href="classOObject.html" target="_top" xlink:title=" ">
<polygon fill="white" stroke="#666666" points="846,-167.5 790,-167.5 790,-148.5 846,-148.5 846,-167.5"/>
<text text-anchor="middle" x="818" y="-155.5" font-family="Helvetica,sans-Serif" font-size="10.00">OObject</text>
</a>
</g>
</g>
<!-- Node2&#45;&gt;Node1 -->
<g id="edge1_Node000001_Node000002" class="edge">
<title>Node2&#45;&gt;Node1</title>
<g id="a_edge1_Node000001_Node000002"><a xlink:title=" ">
<path fill="none" stroke="#63b8ff" d="M816.37,-138.2C813.92,-114.23 808.31,-71.74 797,-37 794.97,-30.76 791.72,-24.14 788.98,-19.07"/>
<polygon fill="#63b8ff" stroke="#63b8ff" points="812.9,-138.74 817.33,-148.36 819.87,-138.08 812.9,-138.74"/>
</a>
</g>
</g>
<!-- Node19 -->
<g id="Node000019" class="node">
<title>Node19</title>
<g id="a_Node000019"><a xlink:href="classOMoleGroup.html" target="_top" xlink:title=" ">
<polygon fill="white" stroke="#666666" points="782.5,-96 705.5,-96 705.5,-77 782.5,-77 782.5,-96"/>
<text text-anchor="middle" x="744" y="-84" font-family="Helvetica,sans-Serif" font-size="10.00">OMoleGroup</text>
</a>
</g>
</g>
<!-- Node2&#45;&gt;Node19 -->
<g id="edge25_Node000019_Node000002" class="edge">
<title>Node2&#45;&gt;Node19</title>
<g id="a_edge25_Node000019_Node000002"><a xlink:title=" ">
<path fill="none" stroke="#63b8ff" d="M801.41,-141.42C786.5,-127.42 765.17,-107.38 753.15,-96.09"/>
<polygon fill="#63b8ff" stroke="#63b8ff" points="799.24,-144.18 808.93,-148.48 804.03,-139.08 799.24,-144.18"/>
</a>
</g>
</g>
<!-- Node3 -->
<g id="Node000003" class="node">
<title>Node3</title>
<g id="a_Node000003"><a xlink:title=" ">
<polygon fill="white" stroke="#666666" points="1110,-239 1060,-239 1060,-220 1110,-220 1110,-239"/>
<text text-anchor="middle" x="1085" y="-227" font-family="Helvetica,sans-Serif" font-size="10.00">uint8_t</text>
</a>
</g>
</g>
<!-- Node3&#45;&gt;Node2 -->
<g id="edge2_Node000002_Node000003" class="edge">
<title>Node3&#45;&gt;Node2</title>
<g id="a_edge2_Node000002_Node000003"><a xlink:title=" ">
<path fill="none" stroke="#9a32cd" stroke-dasharray="5,2" d="M1072.49,-211.48C1066.03,-203.97 1057.52,-195.78 1048,-191 1013.14,-173.5 899.57,-164.17 846.2,-160.66"/>
<polygon fill="#9a32cd" stroke="#9a32cd" points="1070.09,-214.09 1079.05,-219.73 1075.57,-209.73 1070.09,-214.09"/>
</a>
</g>
<text text-anchor="middle" x="1075.5" y="-194" font-family="Helvetica,sans-Serif" font-size="10.00" fill="grey"> uuid</text>
</g>
<!-- Node4 -->
<g id="Node000004" class="node">
<title>Node4</title>
<g id="a_Node000004"><a xlink:href="structObject.html" target="_top" xlink:title=" ">
<polygon fill="white" stroke="#666666" points="552,-239 504,-239 504,-220 552,-220 552,-239"/>
<text text-anchor="middle" x="528" y="-227" font-family="Helvetica,sans-Serif" font-size="10.00">Object</text>
</a>
</g>
</g>
<!-- Node4&#45;&gt;Node2 -->
<g id="edge3_Node000002_Node000004" class="edge">
<title>Node4&#45;&gt;Node2</title>
<g id="a_edge3_Node000002_Node000004"><a xlink:title=" ">
<path fill="none" stroke="#9a32cd" stroke-dasharray="5,2" d="M562.06,-222.66C611.02,-213.9 703.9,-195.91 781,-173 786.27,-171.43 791.86,-169.48 797.05,-167.53"/>
<polygon fill="#9a32cd" stroke="#9a32cd" points="561.25,-219.25 552.01,-224.44 562.47,-226.14 561.25,-219.25"/>
</a>
</g>
<text text-anchor="middle" x="718" y="-194" font-family="Helvetica,sans-Serif" font-size="10.00" fill="grey"> o</text>
</g>
<!-- Node5 -->
<g id="Node000005" class="node">
<title>Node5</title>
<g id="a_Node000005"><a xlink:title=" ">
<polygon fill="white" stroke="#666666" points="812,-415 780,-415 780,-396 812,-396 812,-415"/>
<text text-anchor="middle" x="796" y="-403" font-family="Helvetica,sans-Serif" font-size="10.00">f32</text>
</a>
</g>
</g>
<!-- Node5&#45;&gt;Node4 -->
<g id="edge4_Node000004_Node000005" class="edge">
<title>Node5&#45;&gt;Node4</title>
<g id="a_edge4_Node000004_Node000005"><a xlink:title=" ">
<path fill="none" stroke="#9a32cd" stroke-dasharray="5,2" d="M770.69,-394.5C763.31,-390.42 755.92,-384.99 751,-378 719.5,-333.23 767.78,-294.61 728,-257 703.12,-233.48 599.6,-230.43 552.06,-230.3"/>
<polygon fill="#9a32cd" stroke="#9a32cd" points="769.32,-397.72 779.84,-398.95 772.38,-391.43 769.32,-397.72"/>
</a>
</g>
<text text-anchor="middle" x="785.5" y="-353.5" font-family="Helvetica,sans-Serif" font-size="10.00" fill="grey"> offset</text>
<text text-anchor="middle" x="785.5" y="-342.5" font-family="Helvetica,sans-Serif" font-size="10.00" fill="grey">origin_pos</text>
<text text-anchor="middle" x="785.5" y="-331.5" font-family="Helvetica,sans-Serif" font-size="10.00" fill="grey">pos</text>
<text text-anchor="middle" x="785.5" y="-320.5" font-family="Helvetica,sans-Serif" font-size="10.00" fill="grey">sizeScaling</text>
<text text-anchor="middle" x="785.5" y="-309.5" font-family="Helvetica,sans-Serif" font-size="10.00" fill="grey">surfaceHeight</text>
<text text-anchor="middle" x="785.5" y="-298.5" font-family="Helvetica,sans-Serif" font-size="10.00" fill="grey">unk_01C</text>
<text text-anchor="middle" x="785.5" y="-287.5" font-family="Helvetica,sans-Serif" font-size="10.00" fill="grey">unk_034</text>
<text text-anchor="middle" x="785.5" y="-276.5" font-family="Helvetica,sans-Serif" font-size="10.00" fill="grey">velocity</text>
</g>
<!-- Node6 -->
<g id="Node000006" class="node">
<title>Node6</title>
<g id="a_Node000006"><a xlink:title=" ">
<polygon fill="white" stroke="#666666" points="63,-415 29,-415 29,-396 63,-396 63,-415"/>
<text text-anchor="middle" x="46" y="-403" font-family="Helvetica,sans-Serif" font-size="10.00">s32</text>
</a>
</g>
</g>
<!-- Node6&#45;&gt;Node1 -->
<g id="edge22_Node000001_Node000006" class="edge">
<title>Node6&#45;&gt;Node1</title>
<g id="a_edge22_Node000001_Node000006"><a xlink:title=" ">
<path fill="none" stroke="#9a32cd" stroke-dasharray="5,2" d="M35.97,-387.13C34.5,-384.15 33.11,-381.03 32,-378 9.01,-314.98 0,-297.58 0,-230.5 0,-230.5 0,-230.5 0,-85.5 0,-7.22 627.35,-8.97 759.68,-10.21"/>
<polygon fill="#9a32cd" stroke="#9a32cd" points="32.89,-388.8 40.71,-395.94 39.06,-385.48 32.89,-388.8"/>
</a>
</g>
<text text-anchor="middle" x="30.5" y="-155.5" font-family="Helvetica,sans-Serif" font-size="10.00" fill="grey"> _moleIndex</text>
</g>
<!-- Node6&#45;&gt;Node2 -->
<g id="edge21_Node000002_Node000006" class="edge">
<title>Node6&#45;&gt;Node2</title>
<g id="a_edge21_Node000002_Node000006"><a xlink:title=" ">
<path fill="none" stroke="#9a32cd" stroke-dasharray="5,2" d="M41.17,-385.64C34.39,-354.25 26.35,-291.38 60,-257 172.84,-141.73 624.27,-211.16 781,-173 786.61,-171.64 792.52,-169.66 797.93,-167.62"/>
<polygon fill="#9a32cd" stroke="#9a32cd" points="37.83,-386.73 43.53,-395.66 44.65,-385.13 37.83,-386.73"/>
</a>
</g>
<text text-anchor="middle" x="155" y="-227" font-family="Helvetica,sans-Serif" font-size="10.00" fill="grey"> _objectIndex</text>
</g>
<!-- Node6&#45;&gt;Node4 -->
<g id="edge5_Node000004_Node000006" class="edge">
<title>Node6&#45;&gt;Node4</title>
<g id="a_edge5_Node000004_Node000006"><a xlink:title=" ">
<path fill="none" stroke="#9a32cd" stroke-dasharray="5,2" d="M54.1,-386.44C55.17,-383.65 56.18,-380.77 57,-378 72.45,-325.57 38.09,-293.24 79,-257 110.93,-228.72 415.45,-229.41 503.97,-230.22"/>
<polygon fill="#9a32cd" stroke="#9a32cd" points="50.79,-385.26 50.15,-395.84 57.25,-387.97 50.79,-385.26"/>
</a>
</g>
<text text-anchor="middle" x="100.5" y="-342.5" font-family="Helvetica,sans-Serif" font-size="10.00" fill="grey"> status</text>
<text text-anchor="middle" x="100.5" y="-331.5" font-family="Helvetica,sans-Serif" font-size="10.00" fill="grey">timer</text>
<text text-anchor="middle" x="100.5" y="-320.5" font-family="Helvetica,sans-Serif" font-size="10.00" fill="grey">unk_048</text>
<text text-anchor="middle" x="100.5" y="-309.5" font-family="Helvetica,sans-Serif" font-size="10.00" fill="grey">unk_04C</text>
<text text-anchor="middle" x="100.5" y="-298.5" font-family="Helvetica,sans-Serif" font-size="10.00" fill="grey">unk_058</text>
<text text-anchor="middle" x="100.5" y="-287.5" font-family="Helvetica,sans-Serif" font-size="10.00" fill="grey">unk_05C</text>
</g>
<!-- Node7 -->
<g id="Node000007" class="node">
<title>Node7</title>
<g id="a_Node000007"><a xlink:title=" ">
<polygon fill="white" stroke="#666666" points="933.5,-415 858.5,-415 858.5,-396 933.5,-396 933.5,-415"/>
<text text-anchor="middle" x="896" y="-403" font-family="Helvetica,sans-Serif" font-size="10.00">const char *</text>
</a>
</g>
</g>
<!-- Node7&#45;&gt;Node2 -->
<g id="edge19_Node000002_Node000007" class="edge">
<title>Node7&#45;&gt;Node2</title>
<g id="a_edge19_Node000002_Node000007"><a xlink:title=" ">
<path fill="none" stroke="#9a32cd" stroke-dasharray="5,2" d="M906.86,-386.74C908.15,-383.9 909.27,-380.94 910,-378 922.94,-325.8 929.79,-307 910,-257 893.94,-216.42 852.25,-182.84 830.95,-167.68"/>
<polygon fill="#9a32cd" stroke="#9a32cd" points="903.73,-385.16 902.09,-395.62 909.9,-388.47 903.73,-385.16"/>
</a>
</g>
<text text-anchor="middle" x="916.5" y="-227" font-family="Helvetica,sans-Serif" font-size="10.00" fill="grey"> Name</text>
</g>
<!-- Node7&#45;&gt;Node4 -->
<g id="edge6_Node000004_Node000007" class="edge">
<title>Node7&#45;&gt;Node4</title>
<g id="a_edge6_Node000004_Node000007"><a xlink:title=" ">
<path fill="none" stroke="#9a32cd" stroke-dasharray="5,2" d="M858.66,-391.41C852.69,-387.87 847.13,-383.46 843,-378 809.98,-334.34 860.54,-293.78 820,-257 800.35,-239.17 619.01,-232.81 552.4,-231.06"/>
<polygon fill="#9a32cd" stroke="#9a32cd" points="857.09,-394.53 867.58,-395.99 860.28,-388.31 857.09,-394.53"/>
</a>
</g>
<text text-anchor="middle" x="876.5" y="-320.5" font-family="Helvetica,sans-Serif" font-size="10.00" fill="grey"> activeTLUT</text>
<text text-anchor="middle" x="876.5" y="-309.5" font-family="Helvetica,sans-Serif" font-size="10.00" fill="grey">activeTexture</text>
</g>
<!-- Node8 -->
<g id="Node000008" class="node">
<title>Node8</title>
<g id="a_Node000008"><a xlink:title=" ">
<polygon fill="white" stroke="#666666" points="159.5,-415 130.5,-415 130.5,-396 159.5,-396 159.5,-415"/>
<text text-anchor="middle" x="145" y="-403" font-family="Helvetica,sans-Serif" font-size="10.00">u8</text>
</a>
</g>
</g>
<!-- Node8&#45;&gt;Node4 -->
<g id="edge7_Node000004_Node000008" class="edge">
<title>Node8&#45;&gt;Node4</title>
<g id="a_edge7_Node000004_Node000008"><a xlink:title=" ">
<path fill="none" stroke="#9a32cd" stroke-dasharray="5,2" d="M138.17,-386.16C127.93,-355.09 113.06,-292.06 146,-257 170.49,-230.93 423.86,-229.96 503.91,-230.32"/>
<polygon fill="#9a32cd" stroke="#9a32cd" points="134.91,-387.44 141.52,-395.72 141.52,-385.13 134.91,-387.44"/>
</a>
</g>
<text text-anchor="middle" x="181.5" y="-370" font-family="Helvetica,sans-Serif" font-size="10.00" fill="grey"> textureHeight</text>
<text text-anchor="middle" x="181.5" y="-359" font-family="Helvetica,sans-Serif" font-size="10.00" fill="grey">textureWidth</text>
<text text-anchor="middle" x="181.5" y="-348" font-family="Helvetica,sans-Serif" font-size="10.00" fill="grey">tlutList</text>
<text text-anchor="middle" x="181.5" y="-337" font-family="Helvetica,sans-Serif" font-size="10.00" fill="grey">unk_0D5</text>
<text text-anchor="middle" x="181.5" y="-326" font-family="Helvetica,sans-Serif" font-size="10.00" fill="grey">unk_0D6</text>
<text text-anchor="middle" x="181.5" y="-315" font-family="Helvetica,sans-Serif" font-size="10.00" fill="grey">unk_0D7</text>
<text text-anchor="middle" x="181.5" y="-304" font-family="Helvetica,sans-Serif" font-size="10.00" fill="grey">unk_0D8</text>
<text text-anchor="middle" x="181.5" y="-293" font-family="Helvetica,sans-Serif" font-size="10.00" fill="grey">unk_0DB</text>
<text text-anchor="middle" x="181.5" y="-282" font-family="Helvetica,sans-Serif" font-size="10.00" fill="grey">unk_0DC</text>
<text text-anchor="middle" x="181.5" y="-271" font-family="Helvetica,sans-Serif" font-size="10.00" fill="grey">unk_0DD</text>
<text text-anchor="middle" x="181.5" y="-260" font-family="Helvetica,sans-Serif" font-size="10.00" fill="grey">...</text>
</g>
<!-- Node9 -->
<g id="Node000009" class="node">
<title>Node9</title>
<g id="a_Node000009"><a xlink:title=" ">
<polygon fill="white" stroke="#666666" points="279,-415 199,-415 199,-396 279,-396 279,-415"/>
<text text-anchor="middle" x="239" y="-403" font-family="Helvetica,sans-Serif" font-size="10.00">const char **</text>
</a>
</g>
</g>
<!-- Node9&#45;&gt;Node4 -->
<g id="edge8_Node000004_Node000009" class="edge">
<title>Node9&#45;&gt;Node4</title>
<g id="a_edge8_Node000004_Node000009"><a xlink:title=" ">
<path fill="none" stroke="#9a32cd" stroke-dasharray="5,2" d="M232.41,-386.22C222.54,-355.23 208.34,-292.33 241,-257 258.71,-237.85 437.95,-232.31 503.85,-230.92"/>
<polygon fill="#9a32cd" stroke="#9a32cd" points="229.11,-387.4 235.63,-395.75 235.74,-385.16 229.11,-387.4"/>
</a>
</g>
<text text-anchor="middle" x="269" y="-315" font-family="Helvetica,sans-Serif" font-size="10.00" fill="grey"> textureList</text>
</g>
<!-- Node10 -->
<g id="Node000010" class="node">
<title>Node10</title>
<g id="a_Node000010"><a xlink:title=" ">
<polygon fill="white" stroke="#666666" points="335,-415 301,-415 301,-396 335,-396 335,-415"/>
<text text-anchor="middle" x="318" y="-403" font-family="Helvetica,sans-Serif" font-size="10.00">Gfx</text>
</a>
</g>
</g>
<!-- Node10&#45;&gt;Node4 -->
<g id="edge9_Node000004_Node000010" class="edge">
<title>Node10&#45;&gt;Node4</title>
<g id="a_edge9_Node000004_Node000010"><a xlink:title=" ">
<path fill="none" stroke="#9a32cd" stroke-dasharray="5,2" d="M311.57,-385.91C302.15,-354.93 288.99,-292.64 321,-257 344.85,-230.45 454.57,-229.07 503.88,-229.84"/>
<polygon fill="#9a32cd" stroke="#9a32cd" points="308.36,-387.37 314.77,-395.8 315.02,-385.21 308.36,-387.37"/>
</a>
</g>
<text text-anchor="middle" x="338" y="-315" font-family="Helvetica,sans-Serif" font-size="10.00" fill="grey"> model</text>
</g>
<!-- Node11 -->
<g id="Node000011" class="node">
<title>Node11</title>
<g id="a_Node000011"><a xlink:title=" ">
<polygon fill="white" stroke="#666666" points="391.5,-415 358.5,-415 358.5,-396 391.5,-396 391.5,-415"/>
<text text-anchor="middle" x="375" y="-403" font-family="Helvetica,sans-Serif" font-size="10.00">Vtx</text>
</a>
</g>
</g>
<!-- Node11&#45;&gt;Node4 -->
<g id="edge10_Node000004_Node000011" class="edge">
<title>Node11&#45;&gt;Node4</title>
<g id="a_edge10_Node000004_Node000011"><a xlink:title=" ">
<path fill="none" stroke="#9a32cd" stroke-dasharray="5,2" d="M368.75,-386.07C359.61,-355.34 346.84,-293.39 378,-257 393.95,-238.37 465.55,-232.82 503.77,-231.18"/>
<polygon fill="#9a32cd" stroke="#9a32cd" points="365.5,-387.41 371.87,-395.88 372.18,-385.29 365.5,-387.41"/>
</a>
</g>
<text text-anchor="middle" x="395.5" y="-315" font-family="Helvetica,sans-Serif" font-size="10.00" fill="grey"> vertex</text>
</g>
<!-- Node12 -->
<g id="Node000012" class="node">
<title>Node12</title>
<g id="a_Node000012"><a xlink:title=" ">
<polygon fill="white" stroke="#666666" points="447.5,-415 418.5,-415 418.5,-396 447.5,-396 447.5,-415"/>
<text text-anchor="middle" x="433" y="-403" font-family="Helvetica,sans-Serif" font-size="10.00">s8</text>
</a>
</g>
</g>
<!-- Node12&#45;&gt;Node4 -->
<g id="edge11_Node000004_Node000012" class="edge">
<title>Node12&#45;&gt;Node4</title>
<g id="a_edge11_Node000004_Node000012"><a xlink:title=" ">
<path fill="none" stroke="#9a32cd" stroke-dasharray="5,2" d="M426.73,-386.01C417.7,-355.67 405.1,-294.91 434,-257 450.14,-235.83 481.84,-230.66 503.94,-229.83"/>
<polygon fill="#9a32cd" stroke="#9a32cd" points="423.44,-387.24 429.81,-395.71 430.12,-385.12 423.44,-387.24"/>
</a>
</g>
<text text-anchor="middle" x="474" y="-370" font-family="Helvetica,sans-Serif" font-size="10.00" fill="grey"> isTimerActive</text>
<text text-anchor="middle" x="474" y="-359" font-family="Helvetica,sans-Serif" font-size="10.00" fill="grey">textureListIndex</text>
<text text-anchor="middle" x="474" y="-348" font-family="Helvetica,sans-Serif" font-size="10.00" fill="grey">unk_078</text>
<text text-anchor="middle" x="474" y="-337" font-family="Helvetica,sans-Serif" font-size="10.00" fill="grey">unk_0CA</text>
<text text-anchor="middle" x="474" y="-326" font-family="Helvetica,sans-Serif" font-size="10.00" fill="grey">unk_0CC</text>
<text text-anchor="middle" x="474" y="-315" font-family="Helvetica,sans-Serif" font-size="10.00" fill="grey">unk_0CD</text>
<text text-anchor="middle" x="474" y="-304" font-family="Helvetica,sans-Serif" font-size="10.00" fill="grey">unk_0CE</text>
<text text-anchor="middle" x="474" y="-293" font-family="Helvetica,sans-Serif" font-size="10.00" fill="grey">unk_0CF</text>
<text text-anchor="middle" x="474" y="-282" font-family="Helvetica,sans-Serif" font-size="10.00" fill="grey">unk_0D0</text>
<text text-anchor="middle" x="474" y="-271" font-family="Helvetica,sans-Serif" font-size="10.00" fill="grey">unk_0D1</text>
<text text-anchor="middle" x="474" y="-260" font-family="Helvetica,sans-Serif" font-size="10.00" fill="grey">...</text>
</g>
<!-- Node13 -->
<g id="Node000013" class="node">
<title>Node13</title>
<g id="a_Node000013"><a xlink:href="structSplineControlPoint.html" target="_top" xlink:title=" ">
<polygon fill="white" stroke="#666666" points="634.5,-591 527.5,-591 527.5,-572 634.5,-572 634.5,-591"/>
<text text-anchor="middle" x="581" y="-579" font-family="Helvetica,sans-Serif" font-size="10.00">SplineControlPoint</text>
</a>
</g>
</g>
<!-- Node13&#45;&gt;Node4 -->
<g id="edge12_Node000004_Node000013" class="edge">
<title>Node13&#45;&gt;Node4</title>
<g id="a_edge12_Node000004_Node000013"><a xlink:title=" ">
<path fill="none" stroke="#9a32cd" stroke-dasharray="5,2" d="M578.11,-561.69C577.73,-559.11 577.35,-556.49 577,-554 572.41,-521.05 547.56,-289.15 539,-257 537.36,-250.84 534.61,-244.21 532.27,-239.13"/>
<polygon fill="#9a32cd" stroke="#9a32cd" points="574.66,-562.31 579.62,-571.67 581.58,-561.26 574.66,-562.31"/>
</a>
</g>
<text text-anchor="middle" x="594.5" y="-403" font-family="Helvetica,sans-Serif" font-size="10.00" fill="grey"> controlPoints</text>
</g>
<!-- Node15 -->
<g id="Node000015" class="node">
<title>Node15</title>
<g id="a_Node000015"><a xlink:href="structSplineData.html" target="_top" xlink:title=" ">
<polygon fill="white" stroke="#666666" points="708,-415 638,-415 638,-396 708,-396 708,-415"/>
<text text-anchor="middle" x="673" y="-403" font-family="Helvetica,sans-Serif" font-size="10.00">SplineData</text>
</a>
</g>
</g>
<!-- Node13&#45;&gt;Node15 -->
<g id="edge16_Node000015_Node000013" class="edge">
<title>Node13&#45;&gt;Node15</title>
<g id="a_edge16_Node000015_Node000013"><a xlink:title=" ">
<path fill="none" stroke="#9a32cd" stroke-dasharray="5,2" d="M580.47,-561.23C579.88,-525.85 580.63,-452.39 596,-433 601.53,-426.02 620.27,-419.49 637.88,-414.66"/>
<polygon fill="#9a32cd" stroke="#9a32cd" points="576.98,-561.71 580.7,-571.63 583.98,-561.56 576.98,-561.71"/>
</a>
</g>
<text text-anchor="middle" x="629.5" y="-491" font-family="Helvetica,sans-Serif" font-size="10.00" fill="grey"> controlPoints</text>
</g>
<!-- Node14 -->
<g id="Node000014" class="node">
<title>Node14</title>
<g id="a_Node000014"><a xlink:title=" ">
<polygon fill="white" stroke="#666666" points="598,-668 564,-668 564,-649 598,-649 598,-668"/>
<text text-anchor="middle" x="581" y="-656" font-family="Helvetica,sans-Serif" font-size="10.00">s16</text>
</a>
</g>
</g>
<!-- Node14&#45;&gt;Node4 -->
<g id="edge17_Node000004_Node000014" class="edge">
<title>Node14&#45;&gt;Node4</title>
<g id="a_edge17_Node000004_Node000014"><a xlink:title=" ">
<path fill="none" stroke="#9a32cd" stroke-dasharray="5,2" d="M562.51,-642.13C548.54,-629.64 529.81,-610.89 518,-591 509.17,-576.14 508.7,-571.08 506,-554 497.6,-500.88 502.12,-486.64 506,-433 507.78,-408.36 511.05,-402.53 514,-378 520.32,-325.39 525.53,-261.94 527.33,-239.16"/>
<polygon fill="#9a32cd" stroke="#9a32cd" points="560.25,-644.81 570.1,-648.73 564.84,-639.53 560.25,-644.81"/>
</a>
</g>
<text text-anchor="middle" x="533" y="-546" font-family="Helvetica,sans-Serif" font-size="10.00" fill="grey"> primAlpha</text>
<text text-anchor="middle" x="533" y="-535" font-family="Helvetica,sans-Serif" font-size="10.00" fill="grey">state</text>
<text text-anchor="middle" x="533" y="-524" font-family="Helvetica,sans-Serif" font-size="10.00" fill="grey">type</text>
<text text-anchor="middle" x="533" y="-513" font-family="Helvetica,sans-Serif" font-size="10.00" fill="grey">unk_084</text>
<text text-anchor="middle" x="533" y="-502" font-family="Helvetica,sans-Serif" font-size="10.00" fill="grey">unk_09C</text>
<text text-anchor="middle" x="533" y="-491" font-family="Helvetica,sans-Serif" font-size="10.00" fill="grey">unk_09E</text>
<text text-anchor="middle" x="533" y="-480" font-family="Helvetica,sans-Serif" font-size="10.00" fill="grey">unk_0A2</text>
<text text-anchor="middle" x="533" y="-469" font-family="Helvetica,sans-Serif" font-size="10.00" fill="grey">unk_0A8</text>
<text text-anchor="middle" x="533" y="-458" font-family="Helvetica,sans-Serif" font-size="10.00" fill="grey">unk_0AA</text>
<text text-anchor="middle" x="533" y="-447" font-family="Helvetica,sans-Serif" font-size="10.00" fill="grey">unk_0AC</text>
<text text-anchor="middle" x="533" y="-436" font-family="Helvetica,sans-Serif" font-size="10.00" fill="grey">...</text>
</g>
<!-- Node14&#45;&gt;Node13 -->
<g id="edge13_Node000013_Node000014" class="edge">
<title>Node14&#45;&gt;Node13</title>
<g id="a_edge13_Node000013_Node000014"><a xlink:title=" ">
<path fill="none" stroke="#9a32cd" stroke-dasharray="5,2" d="M581,-638.52C581,-623.24 581,-602.48 581,-591"/>
<polygon fill="#9a32cd" stroke="#9a32cd" points="577.5,-638.9 581,-648.9 584.5,-638.9 577.5,-638.9"/>
</a>
</g>
<text text-anchor="middle" x="601" y="-623" font-family="Helvetica,sans-Serif" font-size="10.00" fill="grey"> pos</text>
<text text-anchor="middle" x="601" y="-612" font-family="Helvetica,sans-Serif" font-size="10.00" fill="grey">velocity</text>
</g>
<!-- Node14&#45;&gt;Node15 -->
<g id="edge15_Node000015_Node000014" class="edge">
<title>Node14&#45;&gt;Node15</title>
<g id="a_edge15_Node000015_Node000014"><a xlink:title=" ">
<path fill="none" stroke="#9a32cd" stroke-dasharray="5,2" d="M607.19,-645.06C613.56,-641.18 619.97,-636.47 625,-631 650.83,-602.91 653.08,-590.85 663,-554 676.82,-502.7 674.83,-437.92 673.56,-415"/>
<polygon fill="#9a32cd" stroke="#9a32cd" points="605.11,-642.21 598.06,-650.12 608.5,-648.33 605.11,-642.21"/>
</a>
</g>
<text text-anchor="middle" x="703.5" y="-579" font-family="Helvetica,sans-Serif" font-size="10.00" fill="grey"> numControlPoints</text>
</g>
<!-- Node15&#45;&gt;Node4 -->
<g id="edge14_Node000004_Node000015" class="edge">
<title>Node15&#45;&gt;Node4</title>
<g id="a_edge14_Node000004_Node000015"><a xlink:title=" ">
<path fill="none" stroke="#9a32cd" stroke-dasharray="5,2" d="M628.01,-395.1C610.35,-390.52 592.89,-384.58 587,-378 550.5,-337.2 593.17,-303.32 564,-257 559.29,-249.51 551.63,-243.44 544.59,-239.01"/>
<polygon fill="#9a32cd" stroke="#9a32cd" points="627.23,-398.51 637.78,-397.5 628.9,-391.71 627.23,-398.51"/>
</a>
</g>
<text text-anchor="middle" x="603.5" y="-315" font-family="Helvetica,sans-Serif" font-size="10.00" fill="grey"> spline</text>
</g>
<!-- Node16 -->
<g id="Node000016" class="node">
<title>Node16</title>
<g id="a_Node000016"><a xlink:title=" ">
<polygon fill="white" stroke="#666666" points="761.5,-415 726.5,-415 726.5,-396 761.5,-396 761.5,-415"/>
<text text-anchor="middle" x="744" y="-403" font-family="Helvetica,sans-Serif" font-size="10.00">u16</text>
</a>
</g>
</g>
<!-- Node16&#45;&gt;Node4 -->
<g id="edge18_Node000004_Node000016" class="edge">
<title>Node16&#45;&gt;Node4</title>
<g id="a_edge18_Node000004_Node000016"><a xlink:title=" ">
<path fill="none" stroke="#9a32cd" stroke-dasharray="5,2" d="M716.48,-396.36C681.39,-389.21 664.41,-400.52 643,-378 605.29,-338.32 656.87,-297.46 620,-257 602.87,-238.2 573.35,-232.41 552.38,-230.79"/>
<polygon fill="#9a32cd" stroke="#9a32cd" points="715.79,-399.79 726.33,-398.75 717.44,-392.99 715.79,-399.79"/>
</a>
</g>
<text text-anchor="middle" x="685.5" y="-353.5" font-family="Helvetica,sans-Serif" font-size="10.00" fill="grey"> animationTimer</text>
<text text-anchor="middle" x="685.5" y="-342.5" font-family="Helvetica,sans-Serif" font-size="10.00" fill="grey">boundingBoxSize</text>
<text text-anchor="middle" x="685.5" y="-331.5" font-family="Helvetica,sans-Serif" font-size="10.00" fill="grey">direction_angle</text>
<text text-anchor="middle" x="685.5" y="-320.5" font-family="Helvetica,sans-Serif" font-size="10.00" fill="grey">orientation</text>
<text text-anchor="middle" x="685.5" y="-309.5" font-family="Helvetica,sans-Serif" font-size="10.00" fill="grey">unk_09A</text>
<text text-anchor="middle" x="685.5" y="-298.5" font-family="Helvetica,sans-Serif" font-size="10.00" fill="grey">unk_0B8</text>
<text text-anchor="middle" x="685.5" y="-287.5" font-family="Helvetica,sans-Serif" font-size="10.00" fill="grey">unk_0C4</text>
<text text-anchor="middle" x="685.5" y="-276.5" font-family="Helvetica,sans-Serif" font-size="10.00" fill="grey">unk_0C6</text>
</g>
<!-- Node17 -->
<g id="Node000017" class="node">
<title>Node17</title>
<g id="a_Node000017"><a xlink:title=" ">
<polygon fill="white" stroke="#666666" points="1013,-239 975,-239 975,-220 1013,-220 1013,-239"/>
<text text-anchor="middle" x="994" y="-227" font-family="Helvetica,sans-Serif" font-size="10.00">bool</text>
</a>
</g>
</g>
<!-- Node17&#45;&gt;Node2 -->
<g id="edge20_Node000002_Node000017" class="edge">
<title>Node17&#45;&gt;Node2</title>
<g id="a_edge20_Node000002_Node000017"><a xlink:title=" ">
<path fill="none" stroke="#9a32cd" stroke-dasharray="5,2" d="M975.48,-213.83C964.99,-206.12 951.32,-197.03 938,-191 907.95,-177.39 870.96,-168.62 846.05,-163.76"/>
<polygon fill="#9a32cd" stroke="#9a32cd" points="973.39,-216.64 983.48,-219.89 977.62,-211.06 973.39,-216.64"/>
</a>
</g>
<text text-anchor="middle" x="1000.5" y="-194" font-family="Helvetica,sans-Serif" font-size="10.00" fill="grey"> bPendingDestroy</text>
</g>
<!-- Node18 -->
<g id="Node000018" class="node">
<title>Node18</title>
<g id="a_Node000018"><a xlink:title=" ">
<polygon fill="white" stroke="#666666" points="884.5,-96 839.5,-96 839.5,-77 884.5,-77 884.5,-96"/>
<text text-anchor="middle" x="862" y="-84" font-family="Helvetica,sans-Serif" font-size="10.00">size_t</text>
</a>
</g>
</g>
<!-- Node18&#45;&gt;Node1 -->
<g id="edge23_Node000001_Node000018" class="edge">
<title>Node18&#45;&gt;Node1</title>
<g id="a_edge23_Node000001_Node000018"><a xlink:title=" ">
<path fill="none" stroke="#9a32cd" stroke-dasharray="5,2" d="M851.09,-68.34C844.32,-58.49 835.02,-46.26 825,-37 817.53,-30.09 808.06,-23.84 800.1,-19.14"/>
<polygon fill="#9a32cd" stroke="#9a32cd" points="848.32,-70.49 856.75,-76.9 854.15,-66.63 848.32,-70.49"/>
</a>
</g>
<text text-anchor="middle" x="861" y="-51" font-family="Helvetica,sans-Serif" font-size="10.00" fill="grey"> _count</text>
<text text-anchor="middle" x="861" y="-40" font-family="Helvetica,sans-Serif" font-size="10.00" fill="grey">_idx</text>
</g>
<!-- Node19&#45;&gt;Node1 -->
<g id="edge24_Node000001_Node000019" class="edge">
<title>Node19&#45;&gt;Node1</title>
<g id="a_edge24_Node000001_Node000019"><a xlink:title=" ">
<path fill="none" stroke="#9a32cd" stroke-dasharray="5,2" d="M748.17,-66.94C750.75,-57.57 754.61,-46.25 760,-37 763.87,-30.35 769.62,-23.92 774.53,-19.07"/>
<polygon fill="#9a32cd" stroke="#9a32cd" points="744.73,-66.26 745.71,-76.81 751.52,-67.95 744.73,-66.26"/>
</a>
</g>
<text text-anchor="middle" x="778.5" y="-45.5" font-family="Helvetica,sans-Serif" font-size="10.00" fill="grey"> _group</text>
</g>
<!-- Node20 -->
<g id="Node000020" class="node">
<title>Node20</title>
<g id="a_Node000020"><a xlink:title=" ">
<polygon fill="white" stroke="#666666" points="771.5,-173 652.5,-173 652.5,-143 771.5,-143 771.5,-173"/>
<text text-anchor="start" x="660.5" y="-161" font-family="Helvetica,sans-Serif" font-size="10.00">vector&lt; OMoleGroup</text>
<text text-anchor="middle" x="712" y="-150" font-family="Helvetica,sans-Serif" font-size="10.00">::MoleEntry &gt;</text>
</a>
</g>
</g>
<!-- Node20&#45;&gt;Node19 -->
<g id="edge26_Node000019_Node000020" class="edge">
<title>Node20&#45;&gt;Node19</title>
<g id="a_edge26_Node000019_Node000020"><a xlink:title=" ">
<path fill="none" stroke="#9a32cd" stroke-dasharray="5,2" d="M718.59,-132.71C720.64,-126.47 723.12,-119.87 726,-114 729.04,-107.81 733.35,-101.4 737,-96.43"/>
<polygon fill="#9a32cd" stroke="#9a32cd" points="715.12,-132.08 715.57,-142.66 721.82,-134.11 715.12,-132.08"/>
</a>
</g>
<text text-anchor="middle" x="745.5" y="-117" font-family="Helvetica,sans-Serif" font-size="10.00" fill="grey"> _moles</text>
</g>
</g>
</svg>
