<?xml version="1.0" encoding="UTF-8" standalone="no"?>
<!DOCTYPE svg PUBLIC "-//W3C//DTD SVG 1.1//EN"
 "http://www.w3.org/Graphics/SVG/1.1/DTD/svg11.dtd">
<!-- Generated by graphviz version 2.43.0 (0)
 -->
<!-- Title: OGrandPrixBalloons Pages: 1 -->
<!--zoomable 643 -->

<svg id="main" version="1.1" xmlns="http://www.w3.org/2000/svg" xmlns:xlink="http://www.w3.org/1999/xlink" xml:space="preserve" onload="init(evt)">

<style type="text/css"><![CDATA[
.node, .edge {opacity: 0.7;}
.node.selected, .edge.selected {opacity: 1;}
.edge:hover path { stroke: red; }
.edge:hover polygon { stroke: red; fill: red; }
]]></style>

<defs>
  <circle id="rim" cx="0" cy="0" r="7"/>
  <circle id="rim2" cx="0" cy="0" r="3.5"/>
  <g id="zoomPlus">
    <use xlink:href="#rim" fill="#404040"><set attributeName="fill" to="#808080" begin="zoomplus.mouseover" end="zoomplus.mouseout"/></use>
    <path d="M-4,0h8M0,-4v8" fill="none" stroke="white" stroke-width="1.5" pointer-events="none"/>
  </g>
  <g id="zoomMin">
    <use xlink:href="#rim" fill="#404040"><set attributeName="fill" to="#808080" begin="zoomminus.mouseover" end="zoomminus.mouseout"/></use>
    <path d="M-4,0h8" fill="none" stroke="white" stroke-width="1.5" pointer-events="none"/>
  </g>
  <g id="arrowUp" transform="translate(30 24)">
    <use xlink:href="#rim"/>
    <path pointer-events="none" fill="none" stroke="white" stroke-width="1.5" d="M0,-3.0v7 M-2.5,-0.5L0,-3.0L2.5,-0.5"/>
  </g>
  <g id="arrowRight" transform="rotate(90) translate(36 -43)">
    <use xlink:href="#rim"/>
    <path pointer-events="none" fill="none" stroke="white" stroke-width="1.5" d="M0,-3.0v7 M-2.5,-0.5L0,-3.0L2.5,-0.5"/>
  </g>
  <g id="arrowDown" transform="rotate(180) translate(-30 -48)">
    <use xlink:href="#rim"/>
    <path pointer-events="none" fill="none" stroke="white" stroke-width="1.5" d="M0,-3.0v7 M-2.5,-0.5L0,-3.0L2.5,-0.5"/>
  </g>
  <g id="arrowLeft" transform="rotate(270) translate(-36 17)">
    <use xlink:href="#rim"/>
    <path pointer-events="none" fill="none" stroke="white" stroke-width="1.5" d="M0,-3.0v7 M-2.5,-0.5L0,-3.0L2.5,-0.5"/>
  </g>
  <g id="resetDef">
    <use xlink:href="#rim2" fill="#404040"><set attributeName="fill" to="#808080" begin="reset.mouseover" end="reset.mouseout"/></use>
  </g>
</defs>
<script type="application/ecmascript">
var viewWidth = 1302;
var viewHeight = 643;
var sectionId = 'dynsection-1';
</script>
<script type="application/ecmascript" xlink:href="svg.min.js"/>
<svg id="graph" class="graph">
<g id="viewport">
<title>OGrandPrixBalloons</title>
<!-- Node1 -->
<g id="Node000001" class="node">
<title>Node1</title>
<g id="a_Node000001"><a xlink:title=" ">
<polygon fill="#999999" stroke="#666666" points="1183.4,-19 1069.4,-19 1069.4,0 1183.4,0 1183.4,-19"/>
<text text-anchor="middle" x="1126.4" y="-7" font-family="Helvetica,sans-Serif" font-size="10.00">OGrandPrixBalloons</text>
</a>
</g>
</g>
<!-- Node2 -->
<g id="Node000002" class="node">
<title>Node2</title>
<g id="a_Node000002"><a xlink:href="classOObject.html" target="_top" xlink:title=" ">
<polygon fill="white" stroke="#666666" points="920.4,-118 864.4,-118 864.4,-99 920.4,-99 920.4,-118"/>
<text text-anchor="middle" x="892.4" y="-106" font-family="Helvetica,sans-Serif" font-size="10.00">OObject</text>
</a>
</g>
</g>
<!-- Node2&#45;&gt;Node1 -->
<g id="edge1_Node000001_Node000002" class="edge">
<title>Node2&#45;&gt;Node1</title>
<g id="a_edge1_Node000001_Node000002"><a xlink:title=" ">
<path fill="none" stroke="#63b8ff" d="M918.57,-94.31C948.72,-79.39 999.95,-54.84 1045.4,-37 1062.48,-30.3 1082.02,-23.87 1097.62,-19.02"/>
<polygon fill="#63b8ff" stroke="#63b8ff" points="916.95,-91.21 909.56,-98.8 920.07,-97.48 916.95,-91.21"/>
</a>
</g>
</g>
<!-- Node3 -->
<g id="Node000003" class="node">
<title>Node3</title>
<g id="a_Node000003"><a xlink:title=" ">
<polygon fill="white" stroke="#666666" points="816.4,-206 766.4,-206 766.4,-187 816.4,-187 816.4,-206"/>
<text text-anchor="middle" x="791.4" y="-194" font-family="Helvetica,sans-Serif" font-size="10.00">uint8_t</text>
</a>
</g>
</g>
<!-- Node3&#45;&gt;Node2 -->
<g id="edge2_Node000002_Node000003" class="edge">
<title>Node3&#45;&gt;Node2</title>
<g id="a_edge2_Node000002_Node000003"><a xlink:title=" ">
<path fill="none" stroke="#9a32cd" stroke-dasharray="5,2" d="M794,-176.75C796.73,-163.71 802.27,-146.79 813.4,-136 827.11,-122.7 847.68,-116.07 864.4,-112.77"/>
<polygon fill="#9a32cd" stroke="#9a32cd" points="790.48,-176.51 792.25,-186.96 797.38,-177.69 790.48,-176.51"/>
</a>
</g>
<text text-anchor="middle" x="825.9" y="-150" font-family="Helvetica,sans-Serif" font-size="10.00" fill="grey"> uuid</text>
</g>
<!-- Node4 -->
<g id="Node000004" class="node">
<title>Node4</title>
<g id="a_Node000004"><a xlink:href="structObject.html" target="_top" xlink:title=" ">
<polygon fill="white" stroke="#666666" points="519.4,-206 471.4,-206 471.4,-187 519.4,-187 519.4,-206"/>
<text text-anchor="middle" x="495.4" y="-194" font-family="Helvetica,sans-Serif" font-size="10.00">Object</text>
</a>
</g>
</g>
<!-- Node4&#45;&gt;Node2 -->
<g id="edge3_Node000002_Node000004" class="edge">
<title>Node4&#45;&gt;Node2</title>
<g id="a_edge3_Node000002_Node000004"><a xlink:title=" ">
<path fill="none" stroke="#9a32cd" stroke-dasharray="5,2" d="M529.8,-188.05C607.11,-171.3 793.38,-130.95 864.32,-115.58"/>
<polygon fill="#9a32cd" stroke="#9a32cd" points="528.67,-184.71 519.64,-190.25 530.15,-191.55 528.67,-184.71"/>
</a>
</g>
<text text-anchor="middle" x="769.4" y="-150" font-family="Helvetica,sans-Serif" font-size="10.00" fill="grey"> o</text>
</g>
<!-- Node5 -->
<g id="Node000005" class="node">
<title>Node5</title>
<g id="a_Node000005"><a xlink:title=" ">
<polygon fill="white" stroke="#666666" points="36.4,-382 4.4,-382 4.4,-363 36.4,-363 36.4,-382"/>
<text text-anchor="middle" x="20.4" y="-370" font-family="Helvetica,sans-Serif" font-size="10.00">f32</text>
</a>
</g>
</g>
<!-- Node5&#45;&gt;Node4 -->
<g id="edge4_Node000004_Node000005" class="edge">
<title>Node5&#45;&gt;Node4</title>
<g id="a_edge4_Node000004_Node000005"><a xlink:title=" ">
<path fill="none" stroke="#9a32cd" stroke-dasharray="5,2" d="M13.37,-353.14C2.8,-322.03 -12.65,-258.95 20.4,-224 36.02,-207.48 376.36,-199.77 471.11,-197.94"/>
<polygon fill="#9a32cd" stroke="#9a32cd" points="10.14,-354.49 16.82,-362.71 16.72,-352.11 10.14,-354.49"/>
</a>
</g>
<text text-anchor="middle" x="54.9" y="-320.5" font-family="Helvetica,sans-Serif" font-size="10.00" fill="grey"> offset</text>
<text text-anchor="middle" x="54.9" y="-309.5" font-family="Helvetica,sans-Serif" font-size="10.00" fill="grey">origin_pos</text>
<text text-anchor="middle" x="54.9" y="-298.5" font-family="Helvetica,sans-Serif" font-size="10.00" fill="grey">pos</text>
<text text-anchor="middle" x="54.9" y="-287.5" font-family="Helvetica,sans-Serif" font-size="10.00" fill="grey">sizeScaling</text>
<text text-anchor="middle" x="54.9" y="-276.5" font-family="Helvetica,sans-Serif" font-size="10.00" fill="grey">surfaceHeight</text>
<text text-anchor="middle" x="54.9" y="-265.5" font-family="Helvetica,sans-Serif" font-size="10.00" fill="grey">unk_01C</text>
<text text-anchor="middle" x="54.9" y="-254.5" font-family="Helvetica,sans-Serif" font-size="10.00" fill="grey">unk_034</text>
<text text-anchor="middle" x="54.9" y="-243.5" font-family="Helvetica,sans-Serif" font-size="10.00" fill="grey">velocity</text>
</g>
<!-- Node6 -->
<g id="Node000006" class="node">
<title>Node6</title>
<g id="a_Node000006"><a xlink:title=" ">
<polygon fill="white" stroke="#666666" points="960.4,-382 926.4,-382 926.4,-363 960.4,-363 960.4,-382"/>
<text text-anchor="middle" x="943.4" y="-370" font-family="Helvetica,sans-Serif" font-size="10.00">s32</text>
</a>
</g>
</g>
<!-- Node6&#45;&gt;Node1 -->
<g id="edge23_Node000001_Node000006" class="edge">
<title>Node6&#45;&gt;Node1</title>
<g id="a_edge23_Node000001_Node000006"><a xlink:title=" ">
<path fill="none" stroke="#9a32cd" stroke-dasharray="5,2" d="M959.52,-355.67C987.25,-327.69 1044.38,-266.69 1079.4,-206 1100.27,-169.82 1102.3,-158.53 1112.4,-118 1121.36,-82.02 1124.82,-37.76 1125.94,-19.27"/>
<polygon fill="#9a32cd" stroke="#9a32cd" points="956.82,-353.42 952.21,-362.96 961.76,-358.37 956.82,-353.42"/>
</a>
</g>
<text text-anchor="middle" x="1120.4" y="-150" font-family="Helvetica,sans-Serif" font-size="10.00" fill="grey"> _idx</text>
</g>
<!-- Node6&#45;&gt;Node2 -->
<g id="edge21_Node000002_Node000006" class="edge">
<title>Node6&#45;&gt;Node2</title>
<g id="a_edge21_Node000002_Node000006"><a xlink:title=" ">
<path fill="none" stroke="#9a32cd" stroke-dasharray="5,2" d="M942.92,-352.7C941.92,-324.48 938.82,-269.61 929.4,-224 921.04,-183.49 903.48,-137.15 895.95,-118.23"/>
<polygon fill="#9a32cd" stroke="#9a32cd" points="939.43,-352.87 943.23,-362.76 946.42,-352.65 939.43,-352.87"/>
</a>
</g>
<text text-anchor="middle" x="958.4" y="-194" font-family="Helvetica,sans-Serif" font-size="10.00" fill="grey"> _objectIndex</text>
</g>
<!-- Node6&#45;&gt;Node4 -->
<g id="edge5_Node000004_Node000006" class="edge">
<title>Node6&#45;&gt;Node4</title>
<g id="a_edge5_Node000004_Node000006"><a xlink:title=" ">
<path fill="none" stroke="#9a32cd" stroke-dasharray="5,2" d="M916.59,-364.01C905.99,-359.89 894.45,-353.78 886.4,-345 847.72,-302.83 887.98,-258.59 842.4,-224 816.8,-204.57 594.09,-199.13 519.57,-197.85"/>
<polygon fill="#9a32cd" stroke="#9a32cd" points="915.72,-367.41 926.31,-367.37 918.01,-360.79 915.72,-367.41"/>
</a>
</g>
<text text-anchor="middle" x="907.9" y="-309.5" font-family="Helvetica,sans-Serif" font-size="10.00" fill="grey"> status</text>
<text text-anchor="middle" x="907.9" y="-298.5" font-family="Helvetica,sans-Serif" font-size="10.00" fill="grey">timer</text>
<text text-anchor="middle" x="907.9" y="-287.5" font-family="Helvetica,sans-Serif" font-size="10.00" fill="grey">unk_048</text>
<text text-anchor="middle" x="907.9" y="-276.5" font-family="Helvetica,sans-Serif" font-size="10.00" fill="grey">unk_04C</text>
<text text-anchor="middle" x="907.9" y="-265.5" font-family="Helvetica,sans-Serif" font-size="10.00" fill="grey">unk_058</text>
<text text-anchor="middle" x="907.9" y="-254.5" font-family="Helvetica,sans-Serif" font-size="10.00" fill="grey">unk_05C</text>
</g>
<!-- Node7 -->
<g id="Node000007" class="node">
<title>Node7</title>
<g id="a_Node000007"><a xlink:title=" ">
<polygon fill="white" stroke="#666666" points="848.9,-382 773.9,-382 773.9,-363 848.9,-363 848.9,-382"/>
<text text-anchor="middle" x="811.4" y="-370" font-family="Helvetica,sans-Serif" font-size="10.00">const char *</text>
</a>
</g>
</g>
<!-- Node7&#45;&gt;Node2 -->
<g id="edge19_Node000002_Node000007" class="edge">
<title>Node7&#45;&gt;Node2</title>
<g id="a_edge19_Node000002_Node000007"><a xlink:title=" ">
<path fill="none" stroke="#9a32cd" stroke-dasharray="5,2" d="M830.24,-355.85C833.33,-352.54 836.24,-348.87 838.4,-345 839.12,-343.7 880.84,-160.35 890.44,-118.11"/>
<polygon fill="#9a32cd" stroke="#9a32cd" points="827.73,-353.4 822.91,-362.83 832.56,-358.47 827.73,-353.4"/>
</a>
</g>
<text text-anchor="middle" x="891.9" y="-194" font-family="Helvetica,sans-Serif" font-size="10.00" fill="grey"> Name</text>
</g>
<!-- Node7&#45;&gt;Node4 -->
<g id="edge6_Node000004_Node000007" class="edge">
<title>Node7&#45;&gt;Node4</title>
<g id="a_edge6_Node000004_Node000007"><a xlink:title=" ">
<path fill="none" stroke="#9a32cd" stroke-dasharray="5,2" d="M783.59,-357.36C778.92,-353.89 774.57,-349.77 771.4,-345 741.09,-299.42 788.69,-261.06 748.4,-224 731.74,-208.68 579.53,-200.9 519.54,-198.41"/>
<polygon fill="#9a32cd" stroke="#9a32cd" points="781.87,-360.41 792.16,-362.92 785.68,-354.54 781.87,-360.41"/>
</a>
</g>
<text text-anchor="middle" x="804.9" y="-287.5" font-family="Helvetica,sans-Serif" font-size="10.00" fill="grey"> activeTLUT</text>
<text text-anchor="middle" x="804.9" y="-276.5" font-family="Helvetica,sans-Serif" font-size="10.00" fill="grey">activeTexture</text>
</g>
<!-- Node8 -->
<g id="Node000008" class="node">
<title>Node8</title>
<g id="a_Node000008"><a xlink:title=" ">
<polygon fill="white" stroke="#666666" points="126.9,-382 97.9,-382 97.9,-363 126.9,-363 126.9,-382"/>
<text text-anchor="middle" x="112.4" y="-370" font-family="Helvetica,sans-Serif" font-size="10.00">u8</text>
</a>
</g>
</g>
<!-- Node8&#45;&gt;Node4 -->
<g id="edge7_Node000004_Node000008" class="edge">
<title>Node8&#45;&gt;Node4</title>
<g id="a_edge7_Node000004_Node000008"><a xlink:title=" ">
<path fill="none" stroke="#9a32cd" stroke-dasharray="5,2" d="M105.57,-353.16C95.33,-322.09 80.46,-259.06 113.4,-224 137.89,-197.93 391.26,-196.96 471.31,-197.32"/>
<polygon fill="#9a32cd" stroke="#9a32cd" points="102.31,-354.44 108.92,-362.72 108.92,-352.13 102.31,-354.44"/>
</a>
</g>
<text text-anchor="middle" x="148.9" y="-337" font-family="Helvetica,sans-Serif" font-size="10.00" fill="grey"> textureHeight</text>
<text text-anchor="middle" x="148.9" y="-326" font-family="Helvetica,sans-Serif" font-size="10.00" fill="grey">textureWidth</text>
<text text-anchor="middle" x="148.9" y="-315" font-family="Helvetica,sans-Serif" font-size="10.00" fill="grey">tlutList</text>
<text text-anchor="middle" x="148.9" y="-304" font-family="Helvetica,sans-Serif" font-size="10.00" fill="grey">unk_0D5</text>
<text text-anchor="middle" x="148.9" y="-293" font-family="Helvetica,sans-Serif" font-size="10.00" fill="grey">unk_0D6</text>
<text text-anchor="middle" x="148.9" y="-282" font-family="Helvetica,sans-Serif" font-size="10.00" fill="grey">unk_0D7</text>
<text text-anchor="middle" x="148.9" y="-271" font-family="Helvetica,sans-Serif" font-size="10.00" fill="grey">unk_0D8</text>
<text text-anchor="middle" x="148.9" y="-260" font-family="Helvetica,sans-Serif" font-size="10.00" fill="grey">unk_0DB</text>
<text text-anchor="middle" x="148.9" y="-249" font-family="Helvetica,sans-Serif" font-size="10.00" fill="grey">unk_0DC</text>
<text text-anchor="middle" x="148.9" y="-238" font-family="Helvetica,sans-Serif" font-size="10.00" fill="grey">unk_0DD</text>
<text text-anchor="middle" x="148.9" y="-227" font-family="Helvetica,sans-Serif" font-size="10.00" fill="grey">...</text>
</g>
<!-- Node9 -->
<g id="Node000009" class="node">
<title>Node9</title>
<g id="a_Node000009"><a xlink:title=" ">
<polygon fill="white" stroke="#666666" points="246.4,-382 166.4,-382 166.4,-363 246.4,-363 246.4,-382"/>
<text text-anchor="middle" x="206.4" y="-370" font-family="Helvetica,sans-Serif" font-size="10.00">const char **</text>
</a>
</g>
</g>
<!-- Node9&#45;&gt;Node4 -->
<g id="edge8_Node000004_Node000009" class="edge">
<title>Node9&#45;&gt;Node4</title>
<g id="a_edge8_Node000004_Node000009"><a xlink:title=" ">
<path fill="none" stroke="#9a32cd" stroke-dasharray="5,2" d="M199.66,-353.24C189.54,-322.29 174.86,-259.43 207.4,-224 225.1,-204.72 405.01,-199.27 471.16,-197.91"/>
<polygon fill="#9a32cd" stroke="#9a32cd" points="196.38,-354.46 202.96,-362.76 202.99,-352.17 196.38,-354.46"/>
</a>
</g>
<text text-anchor="middle" x="235.4" y="-282" font-family="Helvetica,sans-Serif" font-size="10.00" fill="grey"> textureList</text>
</g>
<!-- Node10 -->
<g id="Node000010" class="node">
<title>Node10</title>
<g id="a_Node000010"><a xlink:title=" ">
<polygon fill="white" stroke="#666666" points="302.4,-382 268.4,-382 268.4,-363 302.4,-363 302.4,-382"/>
<text text-anchor="middle" x="285.4" y="-370" font-family="Helvetica,sans-Serif" font-size="10.00">Gfx</text>
</a>
</g>
</g>
<!-- Node10&#45;&gt;Node4 -->
<g id="edge9_Node000004_Node000010" class="edge">
<title>Node10&#45;&gt;Node4</title>
<g id="a_edge9_Node000004_Node000010"><a xlink:title=" ">
<path fill="none" stroke="#9a32cd" stroke-dasharray="5,2" d="M278.79,-353.36C268.86,-322.58 254.47,-259.98 286.4,-224 310.31,-197.05 421.19,-195.89 471.02,-196.78"/>
<polygon fill="#9a32cd" stroke="#9a32cd" points="275.48,-354.49 282.03,-362.82 282.1,-352.23 275.48,-354.49"/>
</a>
</g>
<text text-anchor="middle" x="303.4" y="-282" font-family="Helvetica,sans-Serif" font-size="10.00" fill="grey"> model</text>
</g>
<!-- Node11 -->
<g id="Node000011" class="node">
<title>Node11</title>
<g id="a_Node000011"><a xlink:title=" ">
<polygon fill="white" stroke="#666666" points="358.9,-382 325.9,-382 325.9,-363 358.9,-363 358.9,-382"/>
<text text-anchor="middle" x="342.4" y="-370" font-family="Helvetica,sans-Serif" font-size="10.00">Vtx</text>
</a>
</g>
</g>
<!-- Node11&#45;&gt;Node4 -->
<g id="edge10_Node000004_Node000011" class="edge">
<title>Node11&#45;&gt;Node4</title>
<g id="a_edge10_Node000004_Node000011"><a xlink:title=" ">
<path fill="none" stroke="#9a32cd" stroke-dasharray="5,2" d="M335.84,-353.11C326.19,-322.43 312.45,-260.56 343.4,-224 359.5,-204.99 432.44,-199.61 471.13,-198.1"/>
<polygon fill="#9a32cd" stroke="#9a32cd" points="332.62,-354.53 339.12,-362.9 339.26,-352.31 332.62,-354.53"/>
</a>
</g>
<text text-anchor="middle" x="360.9" y="-282" font-family="Helvetica,sans-Serif" font-size="10.00" fill="grey"> vertex</text>
</g>
<!-- Node12 -->
<g id="Node000012" class="node">
<title>Node12</title>
<g id="a_Node000012"><a xlink:title=" ">
<polygon fill="white" stroke="#666666" points="409.9,-382 380.9,-382 380.9,-363 409.9,-363 409.9,-382"/>
<text text-anchor="middle" x="395.4" y="-370" font-family="Helvetica,sans-Serif" font-size="10.00">s8</text>
</a>
</g>
</g>
<!-- Node12&#45;&gt;Node4 -->
<g id="edge11_Node000004_Node000012" class="edge">
<title>Node12&#45;&gt;Node4</title>
<g id="a_edge11_Node000004_Node000012"><a xlink:title=" ">
<path fill="none" stroke="#9a32cd" stroke-dasharray="5,2" d="M389.89,-352.91C382.09,-322.42 371.84,-261.44 401.4,-224 417.79,-203.24 449.11,-197.94 471.08,-196.97"/>
<polygon fill="#9a32cd" stroke="#9a32cd" points="386.55,-353.95 392.58,-362.66 393.3,-352.09 386.55,-353.95"/>
</a>
</g>
<text text-anchor="middle" x="441.4" y="-337" font-family="Helvetica,sans-Serif" font-size="10.00" fill="grey"> isTimerActive</text>
<text text-anchor="middle" x="441.4" y="-326" font-family="Helvetica,sans-Serif" font-size="10.00" fill="grey">textureListIndex</text>
<text text-anchor="middle" x="441.4" y="-315" font-family="Helvetica,sans-Serif" font-size="10.00" fill="grey">unk_078</text>
<text text-anchor="middle" x="441.4" y="-304" font-family="Helvetica,sans-Serif" font-size="10.00" fill="grey">unk_0CA</text>
<text text-anchor="middle" x="441.4" y="-293" font-family="Helvetica,sans-Serif" font-size="10.00" fill="grey">unk_0CC</text>
<text text-anchor="middle" x="441.4" y="-282" font-family="Helvetica,sans-Serif" font-size="10.00" fill="grey">unk_0CD</text>
<text text-anchor="middle" x="441.4" y="-271" font-family="Helvetica,sans-Serif" font-size="10.00" fill="grey">unk_0CE</text>
<text text-anchor="middle" x="441.4" y="-260" font-family="Helvetica,sans-Serif" font-size="10.00" fill="grey">unk_0CF</text>
<text text-anchor="middle" x="441.4" y="-249" font-family="Helvetica,sans-Serif" font-size="10.00" fill="grey">unk_0D0</text>
<text text-anchor="middle" x="441.4" y="-238" font-family="Helvetica,sans-Serif" font-size="10.00" fill="grey">unk_0D1</text>
<text text-anchor="middle" x="441.4" y="-227" font-family="Helvetica,sans-Serif" font-size="10.00" fill="grey">...</text>
</g>
<!-- Node13 -->
<g id="Node000013" class="node">
<title>Node13</title>
<g id="a_Node000013"><a xlink:href="structSplineControlPoint.html" target="_top" xlink:title=" ">
<polygon fill="white" stroke="#666666" points="511.9,-558 404.9,-558 404.9,-539 511.9,-539 511.9,-558"/>
<text text-anchor="middle" x="458.4" y="-546" font-family="Helvetica,sans-Serif" font-size="10.00">SplineControlPoint</text>
</a>
</g>
</g>
<!-- Node13&#45;&gt;Node4 -->
<g id="edge12_Node000004_Node000013" class="edge">
<title>Node13&#45;&gt;Node4</title>
<g id="a_edge12_Node000004_Node000013"><a xlink:title=" ">
<path fill="none" stroke="#9a32cd" stroke-dasharray="5,2" d="M457.95,-528.8C457.24,-498.14 455.88,-435.26 455.4,-382 455.32,-373.56 451.48,-370.48 455.4,-363 461.92,-350.55 474.3,-357.13 481.4,-345 508.44,-298.84 500.78,-230.32 496.96,-206.24"/>
<polygon fill="#9a32cd" stroke="#9a32cd" points="454.45,-528.97 458.19,-538.89 461.45,-528.81 454.45,-528.97"/>
</a>
</g>
<text text-anchor="middle" x="488.9" y="-370" font-family="Helvetica,sans-Serif" font-size="10.00" fill="grey"> controlPoints</text>
</g>
<!-- Node15 -->
<g id="Node000015" class="node">
<title>Node15</title>
<g id="a_Node000015"><a xlink:href="structSplineData.html" target="_top" xlink:title=" ">
<polygon fill="white" stroke="#666666" points="601.4,-382 531.4,-382 531.4,-363 601.4,-363 601.4,-382"/>
<text text-anchor="middle" x="566.4" y="-370" font-family="Helvetica,sans-Serif" font-size="10.00">SplineData</text>
</a>
</g>
</g>
<!-- Node13&#45;&gt;Node15 -->
<g id="edge16_Node000015_Node000013" class="edge">
<title>Node13&#45;&gt;Node15</title>
<g id="a_edge16_Node000015_Node000013"><a xlink:title=" ">
<path fill="none" stroke="#9a32cd" stroke-dasharray="5,2" d="M458.78,-528.63C459.87,-493.29 464.1,-418.96 480.4,-400 487.22,-392.06 510.47,-385.17 531.07,-380.41"/>
<polygon fill="#9a32cd" stroke="#9a32cd" points="455.27,-528.9 458.52,-538.99 462.27,-529.08 455.27,-528.9"/>
</a>
</g>
<text text-anchor="middle" x="513.9" y="-458" font-family="Helvetica,sans-Serif" font-size="10.00" fill="grey"> controlPoints</text>
</g>
<!-- Node14 -->
<g id="Node000014" class="node">
<title>Node14</title>
<g id="a_Node000014"><a xlink:title=" ">
<polygon fill="white" stroke="#666666" points="565.4,-635 531.4,-635 531.4,-616 565.4,-616 565.4,-635"/>
<text text-anchor="middle" x="548.4" y="-623" font-family="Helvetica,sans-Serif" font-size="10.00">s16</text>
</a>
</g>
</g>
<!-- Node14&#45;&gt;Node4 -->
<g id="edge17_Node000004_Node000014" class="edge">
<title>Node14&#45;&gt;Node4</title>
<g id="a_edge17_Node000004_Node000014"><a xlink:title=" ">
<path fill="none" stroke="#9a32cd" stroke-dasharray="5,2" d="M575.12,-615.51C599.66,-605.66 634.56,-587.24 650.4,-558 654.42,-550.58 651.14,-547.41 650.4,-539 644.15,-468.18 642.48,-276.38 594.4,-224 575.39,-203.29 542.13,-198.05 519.46,-197.07"/>
<polygon fill="#9a32cd" stroke="#9a32cd" points="573.75,-612.28 565.64,-619.1 576.23,-618.83 573.75,-612.28"/>
</a>
</g>
<text text-anchor="middle" x="676.4" y="-513" font-family="Helvetica,sans-Serif" font-size="10.00" fill="grey"> primAlpha</text>
<text text-anchor="middle" x="676.4" y="-502" font-family="Helvetica,sans-Serif" font-size="10.00" fill="grey">state</text>
<text text-anchor="middle" x="676.4" y="-491" font-family="Helvetica,sans-Serif" font-size="10.00" fill="grey">type</text>
<text text-anchor="middle" x="676.4" y="-480" font-family="Helvetica,sans-Serif" font-size="10.00" fill="grey">unk_084</text>
<text text-anchor="middle" x="676.4" y="-469" font-family="Helvetica,sans-Serif" font-size="10.00" fill="grey">unk_09C</text>
<text text-anchor="middle" x="676.4" y="-458" font-family="Helvetica,sans-Serif" font-size="10.00" fill="grey">unk_09E</text>
<text text-anchor="middle" x="676.4" y="-447" font-family="Helvetica,sans-Serif" font-size="10.00" fill="grey">unk_0A2</text>
<text text-anchor="middle" x="676.4" y="-436" font-family="Helvetica,sans-Serif" font-size="10.00" fill="grey">unk_0A8</text>
<text text-anchor="middle" x="676.4" y="-425" font-family="Helvetica,sans-Serif" font-size="10.00" fill="grey">unk_0AA</text>
<text text-anchor="middle" x="676.4" y="-414" font-family="Helvetica,sans-Serif" font-size="10.00" fill="grey">unk_0AC</text>
<text text-anchor="middle" x="676.4" y="-403" font-family="Helvetica,sans-Serif" font-size="10.00" fill="grey">...</text>
</g>
<!-- Node14&#45;&gt;Node13 -->
<g id="edge13_Node000013_Node000014" class="edge">
<title>Node14&#45;&gt;Node13</title>
<g id="a_edge13_Node000013_Node000014"><a xlink:title=" ">
<path fill="none" stroke="#9a32cd" stroke-dasharray="5,2" d="M521.88,-614.53C512.61,-610.29 502.5,-604.74 494.4,-598 480.54,-586.46 469.05,-568.53 463.01,-558.01"/>
<polygon fill="#9a32cd" stroke="#9a32cd" points="520.55,-617.77 531.12,-618.48 523.3,-611.33 520.55,-617.77"/>
</a>
</g>
<text text-anchor="middle" x="514.4" y="-590" font-family="Helvetica,sans-Serif" font-size="10.00" fill="grey"> pos</text>
<text text-anchor="middle" x="514.4" y="-579" font-family="Helvetica,sans-Serif" font-size="10.00" fill="grey">velocity</text>
</g>
<!-- Node14&#45;&gt;Node15 -->
<g id="edge15_Node000015_Node000014" class="edge">
<title>Node14&#45;&gt;Node15</title>
<g id="a_edge15_Node000015_Node000014"><a xlink:title=" ">
<path fill="none" stroke="#9a32cd" stroke-dasharray="5,2" d="M549.75,-605.73C553.37,-555.23 563.22,-417.86 565.78,-382.1"/>
<polygon fill="#9a32cd" stroke="#9a32cd" points="546.24,-605.64 549.02,-615.86 553.23,-606.14 546.24,-605.64"/>
</a>
</g>
<text text-anchor="middle" x="600.9" y="-546" font-family="Helvetica,sans-Serif" font-size="10.00" fill="grey"> numControlPoints</text>
</g>
<!-- Node15&#45;&gt;Node4 -->
<g id="edge14_Node000004_Node000015" class="edge">
<title>Node15&#45;&gt;Node4</title>
<g id="a_edge14_Node000004_Node000015"><a xlink:title=" ">
<path fill="none" stroke="#9a32cd" stroke-dasharray="5,2" d="M560.03,-352.98C550.15,-324.75 530.09,-269.44 509.4,-224 506.64,-217.94 503.14,-211.31 500.33,-206.2"/>
<polygon fill="#9a32cd" stroke="#9a32cd" points="556.82,-354.41 563.41,-362.71 563.44,-352.11 556.82,-354.41"/>
</a>
</g>
<text text-anchor="middle" x="573.9" y="-282" font-family="Helvetica,sans-Serif" font-size="10.00" fill="grey"> spline</text>
</g>
<!-- Node16 -->
<g id="Node000016" class="node">
<title>Node16</title>
<g id="a_Node000016"><a xlink:title=" ">
<polygon fill="white" stroke="#666666" points="692.9,-382 657.9,-382 657.9,-363 692.9,-363 692.9,-382"/>
<text text-anchor="middle" x="675.4" y="-370" font-family="Helvetica,sans-Serif" font-size="10.00">u16</text>
</a>
</g>
</g>
<!-- Node16&#45;&gt;Node4 -->
<g id="edge18_Node000004_Node000016" class="edge">
<title>Node16&#45;&gt;Node4</title>
<g id="a_edge18_Node000004_Node000016"><a xlink:title=" ">
<path fill="none" stroke="#9a32cd" stroke-dasharray="5,2" d="M666.68,-353.77C665.46,-350.88 664.31,-347.89 663.4,-345 646.88,-292.81 679.24,-262.57 640.4,-224 623.74,-207.46 556.46,-201.01 519.69,-198.69"/>
<polygon fill="#9a32cd" stroke="#9a32cd" points="663.51,-355.25 670.86,-362.87 669.87,-352.32 663.51,-355.25"/>
</a>
</g>
<text text-anchor="middle" x="705.9" y="-320.5" font-family="Helvetica,sans-Serif" font-size="10.00" fill="grey"> animationTimer</text>
<text text-anchor="middle" x="705.9" y="-309.5" font-family="Helvetica,sans-Serif" font-size="10.00" fill="grey">boundingBoxSize</text>
<text text-anchor="middle" x="705.9" y="-298.5" font-family="Helvetica,sans-Serif" font-size="10.00" fill="grey">direction_angle</text>
<text text-anchor="middle" x="705.9" y="-287.5" font-family="Helvetica,sans-Serif" font-size="10.00" fill="grey">orientation</text>
<text text-anchor="middle" x="705.9" y="-276.5" font-family="Helvetica,sans-Serif" font-size="10.00" fill="grey">unk_09A</text>
<text text-anchor="middle" x="705.9" y="-265.5" font-family="Helvetica,sans-Serif" font-size="10.00" fill="grey">unk_0B8</text>
<text text-anchor="middle" x="705.9" y="-254.5" font-family="Helvetica,sans-Serif" font-size="10.00" fill="grey">unk_0C4</text>
<text text-anchor="middle" x="705.9" y="-243.5" font-family="Helvetica,sans-Serif" font-size="10.00" fill="grey">unk_0C6</text>
</g>
<!-- Node17 -->
<g id="Node000017" class="node">
<title>Node17</title>
<g id="a_Node000017"><a xlink:title=" ">
<polygon fill="white" stroke="#666666" points="1070.4,-206 1032.4,-206 1032.4,-187 1070.4,-187 1070.4,-206"/>
<text text-anchor="middle" x="1051.4" y="-194" font-family="Helvetica,sans-Serif" font-size="10.00">bool</text>
</a>
</g>
</g>
<!-- Node17&#45;&gt;Node1 -->
<g id="edge26_Node000001_Node000017" class="edge">
<title>Node17&#45;&gt;Node1</title>
<g id="a_edge26_Node000001_Node000017"><a xlink:title=" ">
<path fill="none" stroke="#9a32cd" stroke-dasharray="5,2" d="M1053.87,-176.84C1056.9,-157.01 1062.96,-124.99 1073.4,-99 1085.95,-67.76 1108.65,-34.67 1119.82,-19.3"/>
<polygon fill="#9a32cd" stroke="#9a32cd" points="1050.37,-176.58 1052.42,-186.97 1057.3,-177.56 1050.37,-176.58"/>
</a>
</g>
<text text-anchor="middle" x="1092.9" y="-106" font-family="Helvetica,sans-Serif" font-size="10.00" fill="grey"> _active</text>
</g>
<!-- Node17&#45;&gt;Node2 -->
<g id="edge20_Node000002_Node000017" class="edge">
<title>Node17&#45;&gt;Node2</title>
<g id="a_edge20_Node000002_Node000017"><a xlink:title=" ">
<path fill="none" stroke="#9a32cd" stroke-dasharray="5,2" d="M1022.37,-189.47C999.1,-184.23 968.7,-176.35 958.4,-169 943.85,-158.61 948.39,-148.28 935.4,-136 927.88,-128.89 918.16,-122.71 909.86,-118.1"/>
<polygon fill="#9a32cd" stroke="#9a32cd" points="1021.62,-192.89 1032.14,-191.61 1023.12,-186.05 1021.62,-192.89"/>
</a>
</g>
<text text-anchor="middle" x="1001.9" y="-150" font-family="Helvetica,sans-Serif" font-size="10.00" fill="grey"> bPendingDestroy</text>
</g>
<!-- Node18 -->
<g id="Node000018" class="node">
<title>Node18</title>
<g id="a_Node000018"><a xlink:title=" ">
<polygon fill="white" stroke="#666666" points="1199.9,-118 1154.9,-118 1154.9,-99 1199.9,-99 1199.9,-118"/>
<text text-anchor="middle" x="1177.4" y="-106" font-family="Helvetica,sans-Serif" font-size="10.00">size_t</text>
</a>
</g>
</g>
<!-- Node18&#45;&gt;Node1 -->
<g id="edge22_Node000001_Node000018" class="edge">
<title>Node18&#45;&gt;Node1</title>
<g id="a_edge22_Node000001_Node000018"><a xlink:title=" ">
<path fill="none" stroke="#9a32cd" stroke-dasharray="5,2" d="M1168.05,-89.66C1160.58,-75.4 1149.83,-54.91 1140.4,-37 1137.3,-31.11 1133.8,-24.48 1131.07,-19.33"/>
<polygon fill="#9a32cd" stroke="#9a32cd" points="1165.11,-91.58 1172.85,-98.81 1171.31,-88.33 1165.11,-91.58"/>
</a>
</g>
<text text-anchor="middle" x="1201.4" y="-73" font-family="Helvetica,sans-Serif" font-size="10.00" fill="grey"> _count</text>
<text text-anchor="middle" x="1201.4" y="-62" font-family="Helvetica,sans-Serif" font-size="10.00" fill="grey">_numBalloons</text>
<text text-anchor="middle" x="1201.4" y="-51" font-family="Helvetica,sans-Serif" font-size="10.00" fill="grey">_numBalloons2</text>
<text text-anchor="middle" x="1201.4" y="-40" font-family="Helvetica,sans-Serif" font-size="10.00" fill="grey">_numBalloons3</text>
</g>
<!-- Node19 -->
<g id="Node000019" class="node">
<title>Node19</title>
<g id="a_Node000019"><a xlink:href="structFVector.html" target="_top" xlink:title=" ">
<polygon fill="white" stroke="#666666" points="1293.9,-118 1240.9,-118 1240.9,-99 1293.9,-99 1293.9,-118"/>
<text text-anchor="middle" x="1267.4" y="-106" font-family="Helvetica,sans-Serif" font-size="10.00">FVector</text>
</a>
</g>
</g>
<!-- Node19&#45;&gt;Node1 -->
<g id="edge24_Node000001_Node000019" class="edge">
<title>Node19&#45;&gt;Node1</title>
<g id="a_edge24_Node000001_Node000019"><a xlink:title=" ">
<path fill="none" stroke="#9a32cd" stroke-dasharray="5,2" d="M1265.94,-88.33C1263.68,-72.32 1257.94,-50.08 1243.4,-37 1234.23,-28.75 1208.48,-22.46 1183.46,-18.08"/>
<polygon fill="#9a32cd" stroke="#9a32cd" points="1262.5,-89.09 1267.04,-98.66 1269.46,-88.35 1262.5,-89.09"/>
</a>
</g>
<text text-anchor="middle" x="1274.9" y="-56.5" font-family="Helvetica,sans-Serif" font-size="10.00" fill="grey"> Pos</text>
</g>
<!-- Node20 -->
<g id="Node000020" class="node">
<title>Node20</title>
<g id="a_Node000020"><a xlink:title=" ">
<polygon fill="white" stroke="#666666" points="1286.4,-206 1248.4,-206 1248.4,-187 1286.4,-187 1286.4,-206"/>
<text text-anchor="middle" x="1267.4" y="-194" font-family="Helvetica,sans-Serif" font-size="10.00">float</text>
</a>
</g>
</g>
<!-- Node20&#45;&gt;Node19 -->
<g id="edge25_Node000019_Node000020" class="edge">
<title>Node20&#45;&gt;Node19</title>
<g id="a_edge25_Node000019_Node000020"><a xlink:title=" ">
<path fill="none" stroke="#9a32cd" stroke-dasharray="5,2" d="M1267.4,-176.91C1267.4,-158.67 1267.4,-131.65 1267.4,-118.03"/>
<polygon fill="#9a32cd" stroke="#9a32cd" points="1263.9,-176.94 1267.4,-186.94 1270.9,-176.94 1263.9,-176.94"/>
</a>
</g>
<text text-anchor="middle" x="1272.4" y="-161" font-family="Helvetica,sans-Serif" font-size="10.00" fill="grey"> x</text>
<text text-anchor="middle" x="1272.4" y="-150" font-family="Helvetica,sans-Serif" font-size="10.00" fill="grey">y</text>
<text text-anchor="middle" x="1272.4" y="-139" font-family="Helvetica,sans-Serif" font-size="10.00" fill="grey">z</text>
</g>
</g>
</svg>

<g id="navigator" transform="translate(0 0)" fill="#404254">
  <rect fill="#f2f5e9" fill-opacity="0.5" stroke="#606060" stroke-width=".5" x="0" y="0" width="60" height="60"/>
  <use id="zoomplus" xlink:href="#zoomPlus" x="17" y="9" onmousedown="handleZoom(evt,'in')"/>
  <use id="zoomminus" xlink:href="#zoomMin" x="42" y="9" onmousedown="handleZoom(evt,'out')"/>
  <use id="reset" xlink:href="#resetDef" x="30" y="36" onmousedown="handleReset()"/>
   <use id="arrowup" xlink:href="#arrowUp" x="0" y="0" onmousedown="handlePan(0,-1)"/>
  <use id="arrowright" xlink:href="#arrowRight" x="0" y="0" onmousedown="handlePan(1,0)"/>
  <use id="arrowdown" xlink:href="#arrowDown" x="0" y="0" onmousedown="handlePan(0,1)"/>
  <use id="arrowleft" xlink:href="#arrowLeft" x="0" y="0" onmousedown="handlePan(-1,0)"/>
</g>
<svg viewBox="0 0 15 15" width="100%" height="30px" preserveAspectRatio="xMaxYMin meet">
 <g id="arrow_out" transform="scale(0.3 0.3)">
  <a xlink:href="classOGrandPrixBalloons__coll__graph_org.svg" target="_base">
   <rect id="button" ry="5" rx="5" y="6" x="6" height="38" width="38"
        fill="#f2f5e9" fill-opacity="0.5" stroke="#606060" stroke-width="1.0"/>
   <path id="arrow"
     d="M 11.500037,31.436501 C 11.940474,20.09759 22.043105,11.32322 32.158766,21.979434 L 37.068811,17.246167 C 37.068811,17.246167 37.088388,32 37.088388,32 L 22.160133,31.978069 C 22.160133,31.978069 26.997745,27.140456 26.997745,27.140456 C 18.528582,18.264221 13.291696,25.230495 11.500037,31.436501 z"
     style="fill:#404040;"/>
  </a>
 </g>
</svg>

<style type='text/css'>
<![CDATA[
[data-mouse-over-selected='false'] { opacity: 0.7; }
[data-mouse-over-selected='true']  { opacity: 1.0; }
]]>
</style>
<script type="application/ecmascript"><![CDATA[
document.addEventListener('DOMContentLoaded', (event) => {
  highlightEdges();
  highlightAdjacentNodes();
});
]]></script>
</svg>
