<?xml version="1.0" encoding="UTF-8" standalone="no"?>
<!DOCTYPE svg PUBLIC "-//W3C//DTD SVG 1.1//EN"
 "http://www.w3.org/Graphics/SVG/1.1/DTD/svg11.dtd">
<!-- Generated by graphviz version 2.43.0 (0)
 -->
<!-- Title: OFlagpole Pages: 1 -->
<!--zoomable 621 -->

<svg id="main" version="1.1" xmlns="http://www.w3.org/2000/svg" xmlns:xlink="http://www.w3.org/1999/xlink" xml:space="preserve" onload="init(evt)">

<style type="text/css"><![CDATA[
.node, .edge {opacity: 0.7;}
.node.selected, .edge.selected {opacity: 1;}
.edge:hover path { stroke: red; }
.edge:hover polygon { stroke: red; fill: red; }
]]></style>

<defs>
  <circle id="rim" cx="0" cy="0" r="7"/>
  <circle id="rim2" cx="0" cy="0" r="3.5"/>
  <g id="zoomPlus">
    <use xlink:href="#rim" fill="#404040"><set attributeName="fill" to="#808080" begin="zoomplus.mouseover" end="zoomplus.mouseout"/></use>
    <path d="M-4,0h8M0,-4v8" fill="none" stroke="white" stroke-width="1.5" pointer-events="none"/>
  </g>
  <g id="zoomMin">
    <use xlink:href="#rim" fill="#404040"><set attributeName="fill" to="#808080" begin="zoomminus.mouseover" end="zoomminus.mouseout"/></use>
    <path d="M-4,0h8" fill="none" stroke="white" stroke-width="1.5" pointer-events="none"/>
  </g>
  <g id="arrowUp" transform="translate(30 24)">
    <use xlink:href="#rim"/>
    <path pointer-events="none" fill="none" stroke="white" stroke-width="1.5" d="M0,-3.0v7 M-2.5,-0.5L0,-3.0L2.5,-0.5"/>
  </g>
  <g id="arrowRight" transform="rotate(90) translate(36 -43)">
    <use xlink:href="#rim"/>
    <path pointer-events="none" fill="none" stroke="white" stroke-width="1.5" d="M0,-3.0v7 M-2.5,-0.5L0,-3.0L2.5,-0.5"/>
  </g>
  <g id="arrowDown" transform="rotate(180) translate(-30 -48)">
    <use xlink:href="#rim"/>
    <path pointer-events="none" fill="none" stroke="white" stroke-width="1.5" d="M0,-3.0v7 M-2.5,-0.5L0,-3.0L2.5,-0.5"/>
  </g>
  <g id="arrowLeft" transform="rotate(270) translate(-36 17)">
    <use xlink:href="#rim"/>
    <path pointer-events="none" fill="none" stroke="white" stroke-width="1.5" d="M0,-3.0v7 M-2.5,-0.5L0,-3.0L2.5,-0.5"/>
  </g>
  <g id="resetDef">
    <use xlink:href="#rim2" fill="#404040"><set attributeName="fill" to="#808080" begin="reset.mouseover" end="reset.mouseout"/></use>
  </g>
</defs>
<script type="application/ecmascript">
var viewWidth = 1154;
var viewHeight = 621;
var sectionId = 'dynsection-1';
</script>
<script type="application/ecmascript" xlink:href="svg.min.js"/>
<svg id="graph" class="graph">
<g id="viewport">
<title>OFlagpole</title>
<!-- Node1 -->
<g id="Node000001" class="node">
<title>Node1</title>
<g id="a_Node000001"><a xlink:title=" ">
<polygon fill="#999999" stroke="#666666" points="1056.5,-19 990.5,-19 990.5,0 1056.5,0 1056.5,-19"/>
<text text-anchor="middle" x="1023.5" y="-7" font-family="Helvetica,sans-Serif" font-size="10.00">OFlagpole</text>
</a>
</g>
</g>
<!-- Node2 -->
<g id="Node000002" class="node">
<title>Node2</title>
<g id="a_Node000002"><a xlink:href="classOObject.html" target="_top" xlink:title=" ">
<polygon fill="white" stroke="#666666" points="731.5,-96 675.5,-96 675.5,-77 731.5,-77 731.5,-96"/>
<text text-anchor="middle" x="703.5" y="-84" font-family="Helvetica,sans-Serif" font-size="10.00">OObject</text>
</a>
</g>
</g>
<!-- Node2&#45;&gt;Node1 -->
<g id="edge1_Node000001_Node000002" class="edge">
<title>Node2&#45;&gt;Node1</title>
<g id="a_edge1_Node000001_Node000002"><a xlink:title=" ">
<path fill="none" stroke="#63b8ff" d="M741.58,-76.58C804.84,-61.75 930.53,-32.29 990.36,-18.27"/>
<polygon fill="#63b8ff" stroke="#63b8ff" points="740.55,-73.22 731.62,-78.91 742.15,-80.04 740.55,-73.22"/>
</a>
</g>
</g>
<!-- Node3 -->
<g id="Node000003" class="node">
<title>Node3</title>
<g id="a_Node000003"><a xlink:title=" ">
<polygon fill="white" stroke="#666666" points="697.5,-184 647.5,-184 647.5,-165 697.5,-165 697.5,-184"/>
<text text-anchor="middle" x="672.5" y="-172" font-family="Helvetica,sans-Serif" font-size="10.00">uint8_t</text>
</a>
</g>
</g>
<!-- Node3&#45;&gt;Node2 -->
<g id="edge2_Node000002_Node000003" class="edge">
<title>Node3&#45;&gt;Node2</title>
<g id="a_edge2_Node000002_Node000003"><a xlink:title=" ">
<path fill="none" stroke="#9a32cd" stroke-dasharray="5,2" d="M675.76,-154.65C678.19,-142.71 682.03,-127.11 687.5,-114 690.06,-107.85 693.9,-101.44 697.17,-96.47"/>
<polygon fill="#9a32cd" stroke="#9a32cd" points="672.27,-154.3 673.86,-164.77 679.15,-155.59 672.27,-154.3"/>
</a>
</g>
<text text-anchor="middle" x="700" y="-128" font-family="Helvetica,sans-Serif" font-size="10.00" fill="grey"> uuid</text>
</g>
<!-- Node4 -->
<g id="Node000004" class="node">
<title>Node4</title>
<g id="a_Node000004"><a xlink:href="structObject.html" target="_top" xlink:title=" ">
<polygon fill="white" stroke="#666666" points="558.5,-184 510.5,-184 510.5,-165 558.5,-165 558.5,-184"/>
<text text-anchor="middle" x="534.5" y="-172" font-family="Helvetica,sans-Serif" font-size="10.00">Object</text>
</a>
</g>
</g>
<!-- Node4&#45;&gt;Node2 -->
<g id="edge3_Node000002_Node000004" class="edge">
<title>Node4&#45;&gt;Node2</title>
<g id="a_edge3_Node000002_Node000004"><a xlink:title=" ">
<path fill="none" stroke="#9a32cd" stroke-dasharray="5,2" d="M560.47,-160.28C595.58,-142.42 657.18,-111.07 686.75,-96.03"/>
<polygon fill="#9a32cd" stroke="#9a32cd" points="558.65,-157.28 551.32,-164.94 561.82,-163.52 558.65,-157.28"/>
</a>
</g>
<text text-anchor="middle" x="654.5" y="-128" font-family="Helvetica,sans-Serif" font-size="10.00" fill="grey"> o</text>
</g>
<!-- Node5 -->
<g id="Node000005" class="node">
<title>Node5</title>
<g id="a_Node000005"><a xlink:title=" ">
<polygon fill="white" stroke="#666666" points="550.5,-360 518.5,-360 518.5,-341 550.5,-341 550.5,-360"/>
<text text-anchor="middle" x="534.5" y="-348" font-family="Helvetica,sans-Serif" font-size="10.00">f32</text>
</a>
</g>
</g>
<!-- Node5&#45;&gt;Node4 -->
<g id="edge4_Node000004_Node000005" class="edge">
<title>Node5&#45;&gt;Node4</title>
<g id="a_edge4_Node000004_Node000005"><a xlink:title=" ">
<path fill="none" stroke="#9a32cd" stroke-dasharray="5,2" d="M534.5,-330.56C534.5,-293.12 534.5,-210.95 534.5,-184.14"/>
<polygon fill="#9a32cd" stroke="#9a32cd" points="531,-330.63 534.5,-340.63 538,-330.63 531,-330.63"/>
</a>
</g>
<text text-anchor="middle" x="569" y="-298.5" font-family="Helvetica,sans-Serif" font-size="10.00" fill="grey"> offset</text>
<text text-anchor="middle" x="569" y="-287.5" font-family="Helvetica,sans-Serif" font-size="10.00" fill="grey">origin_pos</text>
<text text-anchor="middle" x="569" y="-276.5" font-family="Helvetica,sans-Serif" font-size="10.00" fill="grey">pos</text>
<text text-anchor="middle" x="569" y="-265.5" font-family="Helvetica,sans-Serif" font-size="10.00" fill="grey">sizeScaling</text>
<text text-anchor="middle" x="569" y="-254.5" font-family="Helvetica,sans-Serif" font-size="10.00" fill="grey">surfaceHeight</text>
<text text-anchor="middle" x="569" y="-243.5" font-family="Helvetica,sans-Serif" font-size="10.00" fill="grey">unk_01C</text>
<text text-anchor="middle" x="569" y="-232.5" font-family="Helvetica,sans-Serif" font-size="10.00" fill="grey">unk_034</text>
<text text-anchor="middle" x="569" y="-221.5" font-family="Helvetica,sans-Serif" font-size="10.00" fill="grey">velocity</text>
</g>
<!-- Node6 -->
<g id="Node000006" class="node">
<title>Node6</title>
<g id="a_Node000006"><a xlink:title=" ">
<polygon fill="white" stroke="#666666" points="907.5,-360 873.5,-360 873.5,-341 907.5,-341 907.5,-360"/>
<text text-anchor="middle" x="890.5" y="-348" font-family="Helvetica,sans-Serif" font-size="10.00">s32</text>
</a>
</g>
</g>
<!-- Node6&#45;&gt;Node2 -->
<g id="edge21_Node000002_Node000006" class="edge">
<title>Node6&#45;&gt;Node2</title>
<g id="a_edge21_Node000002_Node000006"><a xlink:title=" ">
<path fill="none" stroke="#9a32cd" stroke-dasharray="5,2" d="M895.18,-330.93C901.47,-302.21 910.1,-245.76 893.5,-202 874.96,-153.14 860.35,-140.82 815.5,-114 789.78,-98.62 755.75,-92.16 731.97,-89.46"/>
<polygon fill="#9a32cd" stroke="#9a32cd" points="891.73,-330.27 892.85,-340.81 898.55,-331.87 891.73,-330.27"/>
</a>
</g>
<text text-anchor="middle" x="919.5" y="-172" font-family="Helvetica,sans-Serif" font-size="10.00" fill="grey"> _objectIndex</text>
</g>
<!-- Node6&#45;&gt;Node4 -->
<g id="edge5_Node000004_Node000006" class="edge">
<title>Node6&#45;&gt;Node4</title>
<g id="a_edge5_Node000004_Node000006"><a xlink:title=" ">
<path fill="none" stroke="#9a32cd" stroke-dasharray="5,2" d="M864.75,-336.84C859.31,-333.07 854.13,-328.46 850.5,-323 820.19,-277.42 868.05,-238.77 827.5,-202 825.01,-199.74 628.51,-183.28 558.74,-177.5"/>
<polygon fill="#9a32cd" stroke="#9a32cd" points="862.95,-339.84 873.31,-342.06 866.6,-333.86 862.95,-339.84"/>
</a>
</g>
<text text-anchor="middle" x="872" y="-287.5" font-family="Helvetica,sans-Serif" font-size="10.00" fill="grey"> status</text>
<text text-anchor="middle" x="872" y="-276.5" font-family="Helvetica,sans-Serif" font-size="10.00" fill="grey">timer</text>
<text text-anchor="middle" x="872" y="-265.5" font-family="Helvetica,sans-Serif" font-size="10.00" fill="grey">unk_048</text>
<text text-anchor="middle" x="872" y="-254.5" font-family="Helvetica,sans-Serif" font-size="10.00" fill="grey">unk_04C</text>
<text text-anchor="middle" x="872" y="-243.5" font-family="Helvetica,sans-Serif" font-size="10.00" fill="grey">unk_058</text>
<text text-anchor="middle" x="872" y="-232.5" font-family="Helvetica,sans-Serif" font-size="10.00" fill="grey">unk_05C</text>
</g>
<!-- Node7 -->
<g id="Node000007" class="node">
<title>Node7</title>
<g id="a_Node000007"><a xlink:title=" ">
<polygon fill="white" stroke="#666666" points="75,-360 0,-360 0,-341 75,-341 75,-360"/>
<text text-anchor="middle" x="37.5" y="-348" font-family="Helvetica,sans-Serif" font-size="10.00">const char *</text>
</a>
</g>
</g>
<!-- Node7&#45;&gt;Node2 -->
<g id="edge19_Node000002_Node000007" class="edge">
<title>Node7&#45;&gt;Node2</title>
<g id="a_edge19_Node000002_Node000007"><a xlink:title=" ">
<path fill="none" stroke="#9a32cd" stroke-dasharray="5,2" d="M30.38,-331.53C19.6,-301 3.48,-238.78 34.5,-202 118.73,-102.13 559,-89.36 675.3,-87.74"/>
<polygon fill="#9a32cd" stroke="#9a32cd" points="27.11,-332.76 33.89,-340.91 33.66,-330.31 27.11,-332.76"/>
</a>
</g>
<text text-anchor="middle" x="100" y="-172" font-family="Helvetica,sans-Serif" font-size="10.00" fill="grey"> Name</text>
</g>
<!-- Node7&#45;&gt;Node4 -->
<g id="edge6_Node000004_Node000007" class="edge">
<title>Node7&#45;&gt;Node4</title>
<g id="a_edge6_Node000004_Node000007"><a xlink:title=" ">
<path fill="none" stroke="#9a32cd" stroke-dasharray="5,2" d="M36.94,-330.75C36.31,-294.99 37.23,-219.1 55.5,-202 72.26,-186.31 415.51,-177.99 510.39,-175.98"/>
<polygon fill="#9a32cd" stroke="#9a32cd" points="33.44,-330.91 37.18,-340.82 40.44,-330.74 33.44,-330.91"/>
</a>
</g>
<text text-anchor="middle" x="89" y="-265.5" font-family="Helvetica,sans-Serif" font-size="10.00" fill="grey"> activeTLUT</text>
<text text-anchor="middle" x="89" y="-254.5" font-family="Helvetica,sans-Serif" font-size="10.00" fill="grey">activeTexture</text>
</g>
<!-- Node8 -->
<g id="Node000008" class="node">
<title>Node8</title>
<g id="a_Node000008"><a xlink:title=" ">
<polygon fill="white" stroke="#666666" points="158,-360 129,-360 129,-341 158,-341 158,-360"/>
<text text-anchor="middle" x="143.5" y="-348" font-family="Helvetica,sans-Serif" font-size="10.00">u8</text>
</a>
</g>
</g>
<!-- Node8&#45;&gt;Node4 -->
<g id="edge7_Node000004_Node000008" class="edge">
<title>Node8&#45;&gt;Node4</title>
<g id="a_edge7_Node000004_Node000008"><a xlink:title=" ">
<path fill="none" stroke="#9a32cd" stroke-dasharray="5,2" d="M137.12,-331.09C127.61,-299.91 114.18,-236.72 147.5,-202 172.62,-175.82 429.69,-174.94 510.39,-175.31"/>
<polygon fill="#9a32cd" stroke="#9a32cd" points="133.81,-332.25 140.23,-340.68 140.47,-330.09 133.81,-332.25"/>
</a>
</g>
<text text-anchor="middle" x="183" y="-315" font-family="Helvetica,sans-Serif" font-size="10.00" fill="grey"> textureHeight</text>
<text text-anchor="middle" x="183" y="-304" font-family="Helvetica,sans-Serif" font-size="10.00" fill="grey">textureWidth</text>
<text text-anchor="middle" x="183" y="-293" font-family="Helvetica,sans-Serif" font-size="10.00" fill="grey">tlutList</text>
<text text-anchor="middle" x="183" y="-282" font-family="Helvetica,sans-Serif" font-size="10.00" fill="grey">unk_0D5</text>
<text text-anchor="middle" x="183" y="-271" font-family="Helvetica,sans-Serif" font-size="10.00" fill="grey">unk_0D6</text>
<text text-anchor="middle" x="183" y="-260" font-family="Helvetica,sans-Serif" font-size="10.00" fill="grey">unk_0D7</text>
<text text-anchor="middle" x="183" y="-249" font-family="Helvetica,sans-Serif" font-size="10.00" fill="grey">unk_0D8</text>
<text text-anchor="middle" x="183" y="-238" font-family="Helvetica,sans-Serif" font-size="10.00" fill="grey">unk_0DB</text>
<text text-anchor="middle" x="183" y="-227" font-family="Helvetica,sans-Serif" font-size="10.00" fill="grey">unk_0DC</text>
<text text-anchor="middle" x="183" y="-216" font-family="Helvetica,sans-Serif" font-size="10.00" fill="grey">unk_0DD</text>
<text text-anchor="middle" x="183" y="-205" font-family="Helvetica,sans-Serif" font-size="10.00" fill="grey">...</text>
</g>
<!-- Node9 -->
<g id="Node000009" class="node">
<title>Node9</title>
<g id="a_Node000009"><a xlink:title=" ">
<polygon fill="white" stroke="#666666" points="277.5,-360 197.5,-360 197.5,-341 277.5,-341 277.5,-360"/>
<text text-anchor="middle" x="237.5" y="-348" font-family="Helvetica,sans-Serif" font-size="10.00">const char **</text>
</a>
</g>
</g>
<!-- Node9&#45;&gt;Node4 -->
<g id="edge8_Node000004_Node000009" class="edge">
<title>Node9&#45;&gt;Node4</title>
<g id="a_edge8_Node000004_Node000009"><a xlink:title=" ">
<path fill="none" stroke="#9a32cd" stroke-dasharray="5,2" d="M231.5,-331.12C222.6,-300 210.32,-236.89 243.5,-202 261.72,-182.84 443.29,-177.31 510.04,-175.92"/>
<polygon fill="#9a32cd" stroke="#9a32cd" points="228.15,-332.16 234.42,-340.7 234.85,-330.12 228.15,-332.16"/>
</a>
</g>
<text text-anchor="middle" x="271.5" y="-260" font-family="Helvetica,sans-Serif" font-size="10.00" fill="grey"> textureList</text>
</g>
<!-- Node10 -->
<g id="Node000010" class="node">
<title>Node10</title>
<g id="a_Node000010"><a xlink:title=" ">
<polygon fill="white" stroke="#666666" points="333.5,-360 299.5,-360 299.5,-341 333.5,-341 333.5,-360"/>
<text text-anchor="middle" x="316.5" y="-348" font-family="Helvetica,sans-Serif" font-size="10.00">Gfx</text>
</a>
</g>
</g>
<!-- Node10&#45;&gt;Node4 -->
<g id="edge9_Node000004_Node000010" class="edge">
<title>Node10&#45;&gt;Node4</title>
<g id="a_edge9_Node000004_Node000010"><a xlink:title=" ">
<path fill="none" stroke="#9a32cd" stroke-dasharray="5,2" d="M310.96,-330.78C303.02,-299.6 292.69,-237.02 325.5,-202 350.13,-175.71 460.62,-174.19 510.24,-174.88"/>
<polygon fill="#9a32cd" stroke="#9a32cd" points="307.68,-332.02 313.7,-340.73 314.43,-330.16 307.68,-332.02"/>
</a>
</g>
<text text-anchor="middle" x="342.5" y="-260" font-family="Helvetica,sans-Serif" font-size="10.00" fill="grey"> model</text>
</g>
<!-- Node11 -->
<g id="Node000011" class="node">
<title>Node11</title>
<g id="a_Node000011"><a xlink:title=" ">
<polygon fill="white" stroke="#666666" points="390,-360 357,-360 357,-341 390,-341 390,-360"/>
<text text-anchor="middle" x="373.5" y="-348" font-family="Helvetica,sans-Serif" font-size="10.00">Vtx</text>
</a>
</g>
</g>
<!-- Node11&#45;&gt;Node4 -->
<g id="edge10_Node000004_Node000011" class="edge">
<title>Node11&#45;&gt;Node4</title>
<g id="a_edge10_Node000004_Node000011"><a xlink:title=" ">
<path fill="none" stroke="#9a32cd" stroke-dasharray="5,2" d="M368.76,-330.88C362.08,-299.85 354.05,-237.48 386.5,-202 402.79,-184.18 472.83,-178.28 510.42,-176.37"/>
<polygon fill="#9a32cd" stroke="#9a32cd" points="365.39,-331.85 371.08,-340.78 372.2,-330.25 365.39,-331.85"/>
</a>
</g>
<text text-anchor="middle" x="404" y="-260" font-family="Helvetica,sans-Serif" font-size="10.00" fill="grey"> vertex</text>
</g>
<!-- Node12 -->
<g id="Node000012" class="node">
<title>Node12</title>
<g id="a_Node000012"><a xlink:title=" ">
<polygon fill="white" stroke="#666666" points="446,-360 417,-360 417,-341 446,-341 446,-360"/>
<text text-anchor="middle" x="431.5" y="-348" font-family="Helvetica,sans-Serif" font-size="10.00">s8</text>
</a>
</g>
</g>
<!-- Node12&#45;&gt;Node4 -->
<g id="edge11_Node000004_Node000012" class="edge">
<title>Node12&#45;&gt;Node4</title>
<g id="a_edge11_Node000004_Node000012"><a xlink:title=" ">
<path fill="none" stroke="#9a32cd" stroke-dasharray="5,2" d="M428.09,-330.81C423.63,-300.15 419.65,-238.88 450.5,-202 465.12,-184.52 491.18,-178.41 510.41,-176.36"/>
<polygon fill="#9a32cd" stroke="#9a32cd" points="424.68,-331.65 429.75,-340.95 431.59,-330.52 424.68,-331.65"/>
</a>
</g>
<text text-anchor="middle" x="490.5" y="-315" font-family="Helvetica,sans-Serif" font-size="10.00" fill="grey"> isTimerActive</text>
<text text-anchor="middle" x="490.5" y="-304" font-family="Helvetica,sans-Serif" font-size="10.00" fill="grey">textureListIndex</text>
<text text-anchor="middle" x="490.5" y="-293" font-family="Helvetica,sans-Serif" font-size="10.00" fill="grey">unk_078</text>
<text text-anchor="middle" x="490.5" y="-282" font-family="Helvetica,sans-Serif" font-size="10.00" fill="grey">unk_0CA</text>
<text text-anchor="middle" x="490.5" y="-271" font-family="Helvetica,sans-Serif" font-size="10.00" fill="grey">unk_0CC</text>
<text text-anchor="middle" x="490.5" y="-260" font-family="Helvetica,sans-Serif" font-size="10.00" fill="grey">unk_0CD</text>
<text text-anchor="middle" x="490.5" y="-249" font-family="Helvetica,sans-Serif" font-size="10.00" fill="grey">unk_0CE</text>
<text text-anchor="middle" x="490.5" y="-238" font-family="Helvetica,sans-Serif" font-size="10.00" fill="grey">unk_0CF</text>
<text text-anchor="middle" x="490.5" y="-227" font-family="Helvetica,sans-Serif" font-size="10.00" fill="grey">unk_0D0</text>
<text text-anchor="middle" x="490.5" y="-216" font-family="Helvetica,sans-Serif" font-size="10.00" fill="grey">unk_0D1</text>
<text text-anchor="middle" x="490.5" y="-205" font-family="Helvetica,sans-Serif" font-size="10.00" fill="grey">...</text>
</g>
<!-- Node13 -->
<g id="Node000013" class="node">
<title>Node13</title>
<g id="a_Node000013"><a xlink:href="structSplineControlPoint.html" target="_top" xlink:title=" ">
<polygon fill="white" stroke="#666666" points="863,-536 756,-536 756,-517 863,-517 863,-536"/>
<text text-anchor="middle" x="809.5" y="-524" font-family="Helvetica,sans-Serif" font-size="10.00">SplineControlPoint</text>
</a>
</g>
</g>
<!-- Node13&#45;&gt;Node4 -->
<g id="edge12_Node000004_Node000013" class="edge">
<title>Node13&#45;&gt;Node4</title>
<g id="a_edge12_Node000004_Node000013"><a xlink:title=" ">
<path fill="none" stroke="#9a32cd" stroke-dasharray="5,2" d="M804.75,-507.07C796.56,-477.71 777.69,-419.4 747.5,-378 740.26,-368.07 732.82,-370.54 726.5,-360 689.52,-298.31 743.63,-251.55 691.5,-202 672.82,-184.24 598.03,-178.29 558.8,-176.37"/>
<polygon fill="#9a32cd" stroke="#9a32cd" points="801.39,-508.06 807.37,-516.81 808.15,-506.25 801.39,-508.06"/>
</a>
</g>
<text text-anchor="middle" x="760" y="-348" font-family="Helvetica,sans-Serif" font-size="10.00" fill="grey"> controlPoints</text>
</g>
<!-- Node15 -->
<g id="Node000015" class="node">
<title>Node15</title>
<g id="a_Node000015"><a xlink:href="structSplineData.html" target="_top" xlink:title=" ">
<polygon fill="white" stroke="#666666" points="681.5,-360 611.5,-360 611.5,-341 681.5,-341 681.5,-360"/>
<text text-anchor="middle" x="646.5" y="-348" font-family="Helvetica,sans-Serif" font-size="10.00">SplineData</text>
</a>
</g>
</g>
<!-- Node13&#45;&gt;Node15 -->
<g id="edge16_Node000015_Node000013" class="edge">
<title>Node13&#45;&gt;Node15</title>
<g id="a_edge16_Node000015_Node000013"><a xlink:title=" ">
<path fill="none" stroke="#9a32cd" stroke-dasharray="5,2" d="M745.61,-515.6C715.67,-510.38 685.46,-504.03 680.5,-499 642.08,-460.01 673.19,-430.44 657.5,-378 655.67,-371.89 652.92,-365.27 650.63,-360.17"/>
<polygon fill="#9a32cd" stroke="#9a32cd" points="745.27,-519.09 755.71,-517.32 746.44,-512.19 745.27,-519.09"/>
</a>
</g>
<text text-anchor="middle" x="714" y="-436" font-family="Helvetica,sans-Serif" font-size="10.00" fill="grey"> controlPoints</text>
</g>
<!-- Node14 -->
<g id="Node000014" class="node">
<title>Node14</title>
<g id="a_Node000014"><a xlink:title=" ">
<polygon fill="white" stroke="#666666" points="744.5,-613 710.5,-613 710.5,-594 744.5,-594 744.5,-613"/>
<text text-anchor="middle" x="727.5" y="-601" font-family="Helvetica,sans-Serif" font-size="10.00">s16</text>
</a>
</g>
</g>
<!-- Node14&#45;&gt;Node1 -->
<g id="edge24_Node000001_Node000014" class="edge">
<title>Node14&#45;&gt;Node1</title>
<g id="a_edge24_Node000001_Node000014"><a xlink:title=" ">
<path fill="none" stroke="#9a32cd" stroke-dasharray="5,2" d="M754.79,-600.85C824.11,-595.9 1001.5,-578.29 1001.5,-527.5 1001.5,-527.5 1001.5,-527.5 1001.5,-85.5 1001.5,-60.53 1012.87,-32.71 1019.26,-19.04"/>
<polygon fill="#9a32cd" stroke="#9a32cd" points="754.38,-597.37 744.64,-601.53 754.85,-604.35 754.38,-597.37"/>
</a>
</g>
<text text-anchor="middle" x="1027.5" y="-260" font-family="Helvetica,sans-Serif" font-size="10.00" fill="grey"> _direction</text>
</g>
<!-- Node14&#45;&gt;Node4 -->
<g id="edge17_Node000004_Node000014" class="edge">
<title>Node14&#45;&gt;Node4</title>
<g id="a_edge17_Node000004_Node000014"><a xlink:title=" ">
<path fill="none" stroke="#9a32cd" stroke-dasharray="5,2" d="M701.06,-593.81C664.92,-580.25 602,-550.16 579.5,-499 557.85,-449.77 568.12,-430.56 579.5,-378 585.18,-351.76 598.82,-349.24 604.5,-323 615.88,-270.44 635.06,-246.25 604.5,-202 594.24,-187.14 574.48,-180.6 558.57,-177.73"/>
<polygon fill="#9a32cd" stroke="#9a32cd" points="699.89,-597.11 710.49,-597.2 702.26,-590.53 699.89,-597.11"/>
</a>
</g>
<text text-anchor="middle" x="606.5" y="-491" font-family="Helvetica,sans-Serif" font-size="10.00" fill="grey"> primAlpha</text>
<text text-anchor="middle" x="606.5" y="-480" font-family="Helvetica,sans-Serif" font-size="10.00" fill="grey">state</text>
<text text-anchor="middle" x="606.5" y="-469" font-family="Helvetica,sans-Serif" font-size="10.00" fill="grey">type</text>
<text text-anchor="middle" x="606.5" y="-458" font-family="Helvetica,sans-Serif" font-size="10.00" fill="grey">unk_084</text>
<text text-anchor="middle" x="606.5" y="-447" font-family="Helvetica,sans-Serif" font-size="10.00" fill="grey">unk_09C</text>
<text text-anchor="middle" x="606.5" y="-436" font-family="Helvetica,sans-Serif" font-size="10.00" fill="grey">unk_09E</text>
<text text-anchor="middle" x="606.5" y="-425" font-family="Helvetica,sans-Serif" font-size="10.00" fill="grey">unk_0A2</text>
<text text-anchor="middle" x="606.5" y="-414" font-family="Helvetica,sans-Serif" font-size="10.00" fill="grey">unk_0A8</text>
<text text-anchor="middle" x="606.5" y="-403" font-family="Helvetica,sans-Serif" font-size="10.00" fill="grey">unk_0AA</text>
<text text-anchor="middle" x="606.5" y="-392" font-family="Helvetica,sans-Serif" font-size="10.00" fill="grey">unk_0AC</text>
<text text-anchor="middle" x="606.5" y="-381" font-family="Helvetica,sans-Serif" font-size="10.00" fill="grey">...</text>
</g>
<!-- Node14&#45;&gt;Node13 -->
<g id="edge13_Node000013_Node000014" class="edge">
<title>Node14&#45;&gt;Node13</title>
<g id="a_edge13_Node000013_Node000014"><a xlink:title=" ">
<path fill="none" stroke="#9a32cd" stroke-dasharray="5,2" d="M744.44,-587.01C761.33,-571.55 786.67,-548.38 800.2,-536"/>
<polygon fill="#9a32cd" stroke="#9a32cd" points="741.92,-584.56 736.91,-593.9 746.65,-589.73 741.92,-584.56"/>
</a>
</g>
<text text-anchor="middle" x="798.5" y="-568" font-family="Helvetica,sans-Serif" font-size="10.00" fill="grey"> pos</text>
<text text-anchor="middle" x="798.5" y="-557" font-family="Helvetica,sans-Serif" font-size="10.00" fill="grey">velocity</text>
</g>
<!-- Node14&#45;&gt;Node15 -->
<g id="edge15_Node000015_Node000014" class="edge">
<title>Node14&#45;&gt;Node15</title>
<g id="a_edge15_Node000015_Node000014"><a xlink:title=" ">
<path fill="none" stroke="#9a32cd" stroke-dasharray="5,2" d="M703.97,-588.06C687.19,-576.32 665.83,-558.11 655.5,-536 626.6,-474.11 639.56,-387.48 644.73,-360.13"/>
<polygon fill="#9a32cd" stroke="#9a32cd" points="702.47,-591.27 712.73,-593.9 706.35,-585.44 702.47,-591.27"/>
</a>
</g>
<text text-anchor="middle" x="701" y="-524" font-family="Helvetica,sans-Serif" font-size="10.00" fill="grey"> numControlPoints</text>
</g>
<!-- Node15&#45;&gt;Node4 -->
<g id="edge14_Node000004_Node000015" class="edge">
<title>Node15&#45;&gt;Node4</title>
<g id="a_edge14_Node000004_Node000015"><a xlink:title=" ">
<path fill="none" stroke="#9a32cd" stroke-dasharray="5,2" d="M650.35,-330.73C655.49,-299.94 660.67,-238.5 629.5,-202 612.15,-181.69 580.67,-176.29 558.72,-175.17"/>
<polygon fill="#9a32cd" stroke="#9a32cd" points="646.84,-330.44 648.46,-340.91 653.72,-331.72 646.84,-330.44"/>
</a>
</g>
<text text-anchor="middle" x="671" y="-260" font-family="Helvetica,sans-Serif" font-size="10.00" fill="grey"> spline</text>
</g>
<!-- Node16 -->
<g id="Node000016" class="node">
<title>Node16</title>
<g id="a_Node000016"><a xlink:title=" ">
<polygon fill="white" stroke="#666666" points="838,-360 803,-360 803,-341 838,-341 838,-360"/>
<text text-anchor="middle" x="820.5" y="-348" font-family="Helvetica,sans-Serif" font-size="10.00">u16</text>
</a>
</g>
</g>
<!-- Node16&#45;&gt;Node4 -->
<g id="edge18_Node000004_Node000016" class="edge">
<title>Node16&#45;&gt;Node4</title>
<g id="a_edge18_Node000004_Node000016"><a xlink:title=" ">
<path fill="none" stroke="#9a32cd" stroke-dasharray="5,2" d="M793.07,-341.66C772.03,-335.4 746.01,-327.04 742.5,-323 706.59,-281.69 759.08,-239.82 719.5,-202 708.03,-191.05 606.19,-181.37 558.69,-177.41"/>
<polygon fill="#9a32cd" stroke="#9a32cd" points="792.29,-345.08 802.87,-344.53 794.26,-338.36 792.29,-345.08"/>
</a>
</g>
<text text-anchor="middle" x="785" y="-298.5" font-family="Helvetica,sans-Serif" font-size="10.00" fill="grey"> animationTimer</text>
<text text-anchor="middle" x="785" y="-287.5" font-family="Helvetica,sans-Serif" font-size="10.00" fill="grey">boundingBoxSize</text>
<text text-anchor="middle" x="785" y="-276.5" font-family="Helvetica,sans-Serif" font-size="10.00" fill="grey">direction_angle</text>
<text text-anchor="middle" x="785" y="-265.5" font-family="Helvetica,sans-Serif" font-size="10.00" fill="grey">orientation</text>
<text text-anchor="middle" x="785" y="-254.5" font-family="Helvetica,sans-Serif" font-size="10.00" fill="grey">unk_09A</text>
<text text-anchor="middle" x="785" y="-243.5" font-family="Helvetica,sans-Serif" font-size="10.00" fill="grey">unk_0B8</text>
<text text-anchor="middle" x="785" y="-232.5" font-family="Helvetica,sans-Serif" font-size="10.00" fill="grey">unk_0C4</text>
<text text-anchor="middle" x="785" y="-221.5" font-family="Helvetica,sans-Serif" font-size="10.00" fill="grey">unk_0C6</text>
</g>
<!-- Node17 -->
<g id="Node000017" class="node">
<title>Node17</title>
<g id="a_Node000017"><a xlink:title=" ">
<polygon fill="white" stroke="#666666" points="753.5,-184 715.5,-184 715.5,-165 753.5,-165 753.5,-184"/>
<text text-anchor="middle" x="734.5" y="-172" font-family="Helvetica,sans-Serif" font-size="10.00">bool</text>
</a>
</g>
</g>
<!-- Node17&#45;&gt;Node2 -->
<g id="edge20_Node000002_Node000017" class="edge">
<title>Node17&#45;&gt;Node2</title>
<g id="a_edge20_Node000002_Node000017"><a xlink:title=" ">
<path fill="none" stroke="#9a32cd" stroke-dasharray="5,2" d="M727.98,-155.42C721.41,-137.18 711.53,-109.78 706.57,-96.03"/>
<polygon fill="#9a32cd" stroke="#9a32cd" points="724.73,-156.72 731.41,-164.94 731.32,-154.35 724.73,-156.72"/>
</a>
</g>
<text text-anchor="middle" x="768" y="-128" font-family="Helvetica,sans-Serif" font-size="10.00" fill="grey"> bPendingDestroy</text>
</g>
<!-- Node18 -->
<g id="Node000018" class="node">
<title>Node18</title>
<g id="a_Node000018"><a xlink:href="structFVector.html" target="_top" xlink:title=" ">
<polygon fill="white" stroke="#666666" points="1083,-96 1030,-96 1030,-77 1083,-77 1083,-96"/>
<text text-anchor="middle" x="1056.5" y="-84" font-family="Helvetica,sans-Serif" font-size="10.00">FVector</text>
</a>
</g>
</g>
<!-- Node18&#45;&gt;Node1 -->
<g id="edge22_Node000001_Node000018" class="edge">
<title>Node18&#45;&gt;Node1</title>
<g id="a_edge22_Node000001_Node000018"><a xlink:title=" ">
<path fill="none" stroke="#9a32cd" stroke-dasharray="5,2" d="M1048.54,-67.42C1041.79,-52.06 1032.39,-30.7 1027.24,-19"/>
<polygon fill="#9a32cd" stroke="#9a32cd" points="1045.48,-69.15 1052.71,-76.9 1051.89,-66.33 1045.48,-69.15"/>
</a>
</g>
<text text-anchor="middle" x="1056.5" y="-45.5" font-family="Helvetica,sans-Serif" font-size="10.00" fill="grey"> _pos</text>
</g>
<!-- Node19 -->
<g id="Node000019" class="node">
<title>Node19</title>
<g id="a_Node000019"><a xlink:title=" ">
<polygon fill="white" stroke="#666666" points="1075.5,-184 1037.5,-184 1037.5,-165 1075.5,-165 1075.5,-184"/>
<text text-anchor="middle" x="1056.5" y="-172" font-family="Helvetica,sans-Serif" font-size="10.00">float</text>
</a>
</g>
</g>
<!-- Node19&#45;&gt;Node18 -->
<g id="edge23_Node000018_Node000019" class="edge">
<title>Node19&#45;&gt;Node18</title>
<g id="a_edge23_Node000018_Node000019"><a xlink:title=" ">
<path fill="none" stroke="#9a32cd" stroke-dasharray="5,2" d="M1056.5,-154.91C1056.5,-136.67 1056.5,-109.65 1056.5,-96.03"/>
<polygon fill="#9a32cd" stroke="#9a32cd" points="1053,-154.94 1056.5,-164.94 1060,-154.94 1053,-154.94"/>
</a>
</g>
<text text-anchor="middle" x="1061.5" y="-139" font-family="Helvetica,sans-Serif" font-size="10.00" fill="grey"> x</text>
<text text-anchor="middle" x="1061.5" y="-128" font-family="Helvetica,sans-Serif" font-size="10.00" fill="grey">y</text>
<text text-anchor="middle" x="1061.5" y="-117" font-family="Helvetica,sans-Serif" font-size="10.00" fill="grey">z</text>
</g>
<!-- Node20 -->
<g id="Node000020" class="node">
<title>Node20</title>
<g id="a_Node000020"><a xlink:title=" ">
<polygon fill="white" stroke="#666666" points="1146,-96 1101,-96 1101,-77 1146,-77 1146,-96"/>
<text text-anchor="middle" x="1123.5" y="-84" font-family="Helvetica,sans-Serif" font-size="10.00">size_t</text>
</a>
</g>
</g>
<!-- Node20&#45;&gt;Node1 -->
<g id="edge25_Node000001_Node000020" class="edge">
<title>Node20&#45;&gt;Node1</title>
<g id="a_edge25_Node000001_Node000020"><a xlink:title=" ">
<path fill="none" stroke="#9a32cd" stroke-dasharray="5,2" d="M1109.22,-69.48C1099.72,-59.4 1086.62,-46.54 1073.5,-37 1063.97,-30.07 1052.38,-23.81 1042.77,-19.12"/>
<polygon fill="#9a32cd" stroke="#9a32cd" points="1106.65,-71.86 1115.99,-76.85 1111.8,-67.12 1106.65,-71.86"/>
</a>
</g>
<text text-anchor="middle" x="1115.5" y="-51" font-family="Helvetica,sans-Serif" font-size="10.00" fill="grey"> _count</text>
<text text-anchor="middle" x="1115.5" y="-40" font-family="Helvetica,sans-Serif" font-size="10.00" fill="grey">_idx</text>
</g>
</g>
</svg>

<g id="navigator" transform="translate(0 0)" fill="#404254">
  <rect fill="#f2f5e9" fill-opacity="0.5" stroke="#606060" stroke-width=".5" x="0" y="0" width="60" height="60"/>
  <use id="zoomplus" xlink:href="#zoomPlus" x="17" y="9" onmousedown="handleZoom(evt,'in')"/>
  <use id="zoomminus" xlink:href="#zoomMin" x="42" y="9" onmousedown="handleZoom(evt,'out')"/>
  <use id="reset" xlink:href="#resetDef" x="30" y="36" onmousedown="handleReset()"/>
   <use id="arrowup" xlink:href="#arrowUp" x="0" y="0" onmousedown="handlePan(0,-1)"/>
  <use id="arrowright" xlink:href="#arrowRight" x="0" y="0" onmousedown="handlePan(1,0)"/>
  <use id="arrowdown" xlink:href="#arrowDown" x="0" y="0" onmousedown="handlePan(0,1)"/>
  <use id="arrowleft" xlink:href="#arrowLeft" x="0" y="0" onmousedown="handlePan(-1,0)"/>
</g>
<svg viewBox="0 0 15 15" width="100%" height="30px" preserveAspectRatio="xMaxYMin meet">
 <g id="arrow_out" transform="scale(0.3 0.3)">
  <a xlink:href="classOFlagpole__coll__graph_org.svg" target="_base">
   <rect id="button" ry="5" rx="5" y="6" x="6" height="38" width="38"
        fill="#f2f5e9" fill-opacity="0.5" stroke="#606060" stroke-width="1.0"/>
   <path id="arrow"
     d="M 11.500037,31.436501 C 11.940474,20.09759 22.043105,11.32322 32.158766,21.979434 L 37.068811,17.246167 C 37.068811,17.246167 37.088388,32 37.088388,32 L 22.160133,31.978069 C 22.160133,31.978069 26.997745,27.140456 26.997745,27.140456 C 18.528582,18.264221 13.291696,25.230495 11.500037,31.436501 z"
     style="fill:#404040;"/>
  </a>
 </g>
</svg>

<style type='text/css'>
<![CDATA[
[data-mouse-over-selected='false'] { opacity: 0.7; }
[data-mouse-over-selected='true']  { opacity: 1.0; }
]]>
</style>
<script type="application/ecmascript"><![CDATA[
document.addEventListener('DOMContentLoaded', (event) => {
  highlightEdges();
  highlightAdjacentNodes();
});
]]></script>
</svg>
