<?xml version="1.0" encoding="UTF-8" standalone="no"?>
<!DOCTYPE svg PUBLIC "-//W3C//DTD SVG 1.1//EN"
 "http://www.w3.org/Graphics/SVG/1.1/DTD/svg11.dtd">
<!-- Generated by graphviz version 2.43.0 (0)
 -->
<!-- Title: FreeCamera::Tick Pages: 1 -->
<svg width="594pt" height="261pt"
 viewBox="0.00 0.00 594.00 261.00" xmlns="http://www.w3.org/2000/svg" xmlns:xlink="http://www.w3.org/1999/xlink">
<g id="graph0" class="graph" transform="scale(1 1) rotate(0) translate(4 257)">
<title>FreeCamera::Tick</title>
<!-- Node1 -->
<g id="Node000001" class="node">
<title>Node1</title>
<g id="a_Node000001"><a xlink:title=" ">
<polygon fill="#999999" stroke="#666666" points="102,-93 0,-93 0,-74 102,-74 102,-93"/>
<text text-anchor="middle" x="51" y="-81" font-family="Helvetica,sans-Serif" font-size="10.00">FreeCamera::Tick</text>
</a>
</g>
</g>
<!-- Node2 -->
<g id="Node000002" class="node">
<title>Node2</title>
<g id="a_Node000002"><a xlink:href="freecam_8cpp.html#a66970e145d033feb13d6c3a660b72546" target="_top" xlink:title=" ">
<polygon fill="white" stroke="#666666" points="221,-93 138,-93 138,-74 221,-74 221,-93"/>
<text text-anchor="middle" x="179.5" y="-81" font-family="Helvetica,sans-Serif" font-size="10.00">freecam_loop</text>
</a>
</g>
</g>
<!-- Node1&#45;&gt;Node2 -->
<g id="edge1_Node000001_Node000002" class="edge">
<title>Node1&#45;&gt;Node2</title>
<g id="a_edge1_Node000001_Node000002"><a xlink:title=" ">
<path fill="none" stroke="#63b8ff" d="M102.36,-83.5C110.6,-83.5 119.14,-83.5 127.39,-83.5"/>
<polygon fill="#63b8ff" stroke="#63b8ff" points="127.65,-87 137.65,-83.5 127.65,-80 127.65,-87"/>
</a>
</g>
</g>
<!-- Node3 -->
<g id="Node000003" class="node">
<title>Node3</title>
<g id="a_Node000003"><a xlink:href="freecam__engine_8c.html#a8274a8d234eadb39b99538fbf0f6cdc6" target="_top" xlink:title=" ">
<polygon fill="white" stroke="#666666" points="409.5,-221.5 260.5,-221.5 260.5,-191.5 409.5,-191.5 409.5,-221.5"/>
<text text-anchor="start" x="268.5" y="-209.5" font-family="Helvetica,sans-Serif" font-size="10.00">freecam_calculate_forward</text>
<text text-anchor="middle" x="335" y="-198.5" font-family="Helvetica,sans-Serif" font-size="10.00">_vector_allow_rotation</text>
</a>
</g>
</g>
<!-- Node2&#45;&gt;Node3 -->
<g id="edge2_Node000002_Node000003" class="edge">
<title>Node2&#45;&gt;Node3</title>
<g id="a_edge2_Node000002_Node000003"><a xlink:title=" ">
<path fill="none" stroke="#63b8ff" d="M192.54,-93.15C217.11,-112.83 273.5,-158.02 307.2,-185.02"/>
<polygon fill="#63b8ff" stroke="#63b8ff" points="305.25,-187.95 315.24,-191.47 309.63,-182.48 305.25,-187.95"/>
</a>
</g>
</g>
<!-- Node6 -->
<g id="Node000006" class="node">
<title>Node6</title>
<g id="a_Node000006"><a xlink:href="freecam_8cpp.html#ab6fa6cecb51b8b290060c8114d0a4a64" target="_top" xlink:title=" ">
<polygon fill="white" stroke="#666666" points="413,-130 257,-130 257,-111 413,-111 413,-130"/>
<text text-anchor="middle" x="335" y="-118" font-family="Helvetica,sans-Serif" font-size="10.00">freecam_keyboard_manager</text>
</a>
</g>
</g>
<!-- Node2&#45;&gt;Node6 -->
<g id="edge5_Node000002_Node000006" class="edge">
<title>Node2&#45;&gt;Node6</title>
<g id="a_edge5_Node000002_Node000006"><a xlink:title=" ">
<path fill="none" stroke="#63b8ff" d="M218.61,-93.07C230.86,-96.12 244.49,-99.49 257,-102.5 265.35,-104.51 274.21,-106.61 282.84,-108.64"/>
<polygon fill="#63b8ff" stroke="#63b8ff" points="282.28,-112.11 292.82,-110.98 283.88,-105.29 282.28,-112.11"/>
</a>
</g>
</g>
<!-- Node9 -->
<g id="Node000009" class="node">
<title>Node9</title>
<g id="a_Node000009"><a xlink:href="freecam_8cpp.html#a307860332ed4cd3e4e1d65e679ef471d" target="_top" xlink:title=" ">
<polygon fill="white" stroke="#666666" points="407,-93 263,-93 263,-74 407,-74 407,-93"/>
<text text-anchor="middle" x="335" y="-81" font-family="Helvetica,sans-Serif" font-size="10.00">freecam_mouse_manager</text>
</a>
</g>
</g>
<!-- Node2&#45;&gt;Node9 -->
<g id="edge8_Node000002_Node000009" class="edge">
<title>Node2&#45;&gt;Node9</title>
<g id="a_edge8_Node000002_Node000009"><a xlink:title=" ">
<path fill="none" stroke="#63b8ff" d="M221.23,-83.5C231.02,-83.5 241.83,-83.5 252.75,-83.5"/>
<polygon fill="#63b8ff" stroke="#63b8ff" points="252.8,-87 262.8,-83.5 252.8,-80 252.8,-87"/>
</a>
</g>
</g>
<!-- Node11 -->
<g id="Node000011" class="node">
<title>Node11</title>
<g id="a_Node000011"><a xlink:href="freecam__engine_8c.html#a8ffbf8b3b6ee75e8dd673a5db124085a" target="_top" xlink:title=" ">
<polygon fill="white" stroke="#666666" points="399,-56 271,-56 271,-37 399,-37 399,-56"/>
<text text-anchor="middle" x="335" y="-44" font-family="Helvetica,sans-Serif" font-size="10.00">freecam_target_player</text>
</a>
</g>
</g>
<!-- Node2&#45;&gt;Node11 -->
<g id="edge10_Node000002_Node000011" class="edge">
<title>Node2&#45;&gt;Node11</title>
<g id="a_edge10_Node000002_Node000011"><a xlink:title=" ">
<path fill="none" stroke="#63b8ff" d="M218.61,-73.93C230.86,-70.88 244.49,-67.51 257,-64.5 265.35,-62.49 274.21,-60.39 282.84,-58.36"/>
<polygon fill="#63b8ff" stroke="#63b8ff" points="283.88,-61.71 292.82,-56.02 282.28,-54.89 283.88,-61.71"/>
</a>
</g>
</g>
<!-- Node13 -->
<g id="Node000013" class="node">
<title>Node13</title>
<g id="a_Node000013"><a xlink:href="freecam__engine_8c.html#a19cee9a005133fdcc37c73d257b9eafe" target="_top" xlink:title=" ">
<polygon fill="white" stroke="#666666" points="375,-19 295,-19 295,0 375,0 375,-19"/>
<text text-anchor="middle" x="335" y="-7" font-family="Helvetica,sans-Serif" font-size="10.00">freecam_tick</text>
</a>
</g>
</g>
<!-- Node2&#45;&gt;Node13 -->
<g id="edge12_Node000002_Node000013" class="edge">
<title>Node2&#45;&gt;Node13</title>
<g id="a_edge12_Node000002_Node000013"><a xlink:title=" ">
<path fill="none" stroke="#63b8ff" d="M191.01,-73.62C204.99,-61.03 230.98,-39.46 257,-27.5 265.7,-23.5 275.38,-20.34 284.86,-17.87"/>
<polygon fill="#63b8ff" stroke="#63b8ff" points="285.7,-21.27 294.61,-15.53 284.07,-14.46 285.7,-21.27"/>
</a>
</g>
</g>
<!-- Node4 -->
<g id="Node000004" class="node">
<title>Node4</title>
<g id="a_Node000004"><a xlink:href="cosf_8c.html#a7b126b2344591e649c21c9ab0b8adb40" target="_top" xlink:title=" ">
<polygon fill="white" stroke="#666666" points="536,-253 499,-253 499,-234 536,-234 536,-253"/>
<text text-anchor="middle" x="517.5" y="-241" font-family="Helvetica,sans-Serif" font-size="10.00">cosf</text>
</a>
</g>
</g>
<!-- Node3&#45;&gt;Node4 -->
<g id="edge3_Node000003_Node000004" class="edge">
<title>Node3&#45;&gt;Node4</title>
<g id="a_edge3_Node000003_Node000004"><a xlink:title=" ">
<path fill="none" stroke="#63b8ff" d="M409.42,-221.55C437.47,-227.3 467.78,-233.51 488.96,-237.86"/>
<polygon fill="#63b8ff" stroke="#63b8ff" points="488.37,-241.31 498.86,-239.88 489.77,-234.45 488.37,-241.31"/>
</a>
</g>
</g>
<!-- Node5 -->
<g id="Node000005" class="node">
<title>Node5</title>
<g id="a_Node000005"><a xlink:href="sinf_8c.html#a8a7dc2a88e109f4e15b661247665709a" target="_top" xlink:title=" ">
<polygon fill="white" stroke="#666666" points="535,-216 500,-216 500,-197 535,-197 535,-216"/>
<text text-anchor="middle" x="517.5" y="-204" font-family="Helvetica,sans-Serif" font-size="10.00">sinf</text>
</a>
</g>
</g>
<!-- Node3&#45;&gt;Node5 -->
<g id="edge4_Node000003_Node000005" class="edge">
<title>Node3&#45;&gt;Node5</title>
<g id="a_edge4_Node000003_Node000005"><a xlink:title=" ">
<path fill="none" stroke="#63b8ff" d="M409.68,-206.5C437.9,-206.5 468.36,-206.5 489.51,-206.5"/>
<polygon fill="#63b8ff" stroke="#63b8ff" points="489.65,-210 499.65,-206.5 489.65,-203 489.65,-210"/>
</a>
</g>
</g>
<!-- Node7 -->
<g id="Node000007" class="node">
<title>Node7</title>
<g id="a_Node000007"><a xlink:href="FrameInterpolation_8cpp.html#a4c86e5d5fc84cc004fe2059cea4b3068" target="_top" xlink:title=" ">
<polygon fill="white" stroke="#666666" points="586,-178.5 449,-178.5 449,-148.5 586,-148.5 586,-178.5"/>
<text text-anchor="start" x="457" y="-166.5" font-family="Helvetica,sans-Serif" font-size="10.00">FrameInterpolation</text>
<text text-anchor="middle" x="517.5" y="-155.5" font-family="Helvetica,sans-Serif" font-size="10.00">_DontInterpolateCamera</text>
</a>
</g>
</g>
<!-- Node6&#45;&gt;Node7 -->
<g id="edge6_Node000006_Node000007" class="edge">
<title>Node6&#45;&gt;Node7</title>
<g id="a_edge6_Node000006_Node000007"><a xlink:title=" ">
<path fill="none" stroke="#63b8ff" d="M376.06,-130.04C395.96,-134.78 420.64,-140.66 443.73,-146.16"/>
<polygon fill="#63b8ff" stroke="#63b8ff" points="442.97,-149.58 453.51,-148.49 444.59,-142.77 442.97,-149.58"/>
</a>
</g>
</g>
<!-- Node8 -->
<g id="Node000008" class="node">
<title>Node8</title>
<g id="a_Node000008"><a xlink:href="freecam_8cpp.html#a62838d2831b41fe6a50a946aa05d108f" target="_top" xlink:title=" ">
<polygon fill="white" stroke="#666666" points="569.5,-130 465.5,-130 465.5,-111 569.5,-111 569.5,-130"/>
<text text-anchor="middle" x="517.5" y="-118" font-family="Helvetica,sans-Serif" font-size="10.00">FreecamKeyDown</text>
</a>
</g>
</g>
<!-- Node6&#45;&gt;Node8 -->
<g id="edge7_Node000006_Node000008" class="edge">
<title>Node6&#45;&gt;Node8</title>
<g id="a_edge7_Node000006_Node000008"><a xlink:title=" ">
<path fill="none" stroke="#63b8ff" d="M413.07,-120.5C427.12,-120.5 441.61,-120.5 455.12,-120.5"/>
<polygon fill="#63b8ff" stroke="#63b8ff" points="455.25,-124 465.25,-120.5 455.25,-117 455.25,-124"/>
</a>
</g>
</g>
<!-- Node10 -->
<g id="Node000010" class="node">
<title>Node10</title>
<g id="a_Node000010"><a xlink:href="math__util_8h.html#a8fb5c0b9b43a108724b355136d29d2f9" target="_top" xlink:title=" ">
<polygon fill="white" stroke="#666666" points="536.5,-93 498.5,-93 498.5,-74 536.5,-74 536.5,-93"/>
<text text-anchor="middle" x="517.5" y="-81" font-family="Helvetica,sans-Serif" font-size="10.00">fabs</text>
</a>
</g>
</g>
<!-- Node9&#45;&gt;Node10 -->
<g id="edge9_Node000009_Node000010" class="edge">
<title>Node9&#45;&gt;Node10</title>
<g id="a_edge9_Node000009_Node000010"><a xlink:title=" ">
<path fill="none" stroke="#63b8ff" d="M407.08,-83.5C435.44,-83.5 466.44,-83.5 488.18,-83.5"/>
<polygon fill="#63b8ff" stroke="#63b8ff" points="488.35,-87 498.35,-83.5 488.35,-80 488.35,-87"/>
</a>
</g>
</g>
<!-- Node12 -->
<g id="Node000012" class="node">
<title>Node12</title>
<g id="a_Node000012"><a xlink:href="math_8h.html#a37bde043e94a6f074c78f10518fb5d99" target="_top" xlink:title=" ">
<polygon fill="white" stroke="#666666" points="537,-56 498,-56 498,-37 537,-37 537,-56"/>
<text text-anchor="middle" x="517.5" y="-44" font-family="Helvetica,sans-Serif" font-size="10.00">sqrtf</text>
</a>
</g>
</g>
<!-- Node11&#45;&gt;Node12 -->
<g id="edge11_Node000011_Node000012" class="edge">
<title>Node11&#45;&gt;Node12</title>
<g id="a_edge11_Node000011_Node000012"><a xlink:title=" ">
<path fill="none" stroke="#63b8ff" d="M399.13,-46.5C429.28,-46.5 463.88,-46.5 487.66,-46.5"/>
<polygon fill="#63b8ff" stroke="#63b8ff" points="487.77,-50 497.77,-46.5 487.77,-43 487.77,-50"/>
</a>
</g>
</g>
</g>
</svg>
