<?xml version="1.0" encoding="UTF-8" standalone="no"?>
<!DOCTYPE svg PUBLIC "-//W3C//DTD SVG 1.1//EN"
 "http://www.w3.org/Graphics/SVG/1.1/DTD/svg11.dtd">
<!-- Generated by graphviz version 2.43.0 (0)
 -->
<!-- Title: OThwomp Pages: 1 -->
<svg width="1257pt" height="599pt"
 viewBox="0.00 0.00 1256.62 599.00" xmlns="http://www.w3.org/2000/svg" xmlns:xlink="http://www.w3.org/1999/xlink">
<g id="graph0" class="graph" transform="scale(1 1) rotate(0) translate(4 595)">
<title>OThwomp</title>
<!-- Node1 -->
<g id="Node000001" class="node">
<title>Node1</title>
<g id="a_Node000001"><a xlink:title=" ">
<polygon fill="#999999" stroke="#666666" points="1089.12,-19 1023.12,-19 1023.12,0 1089.12,0 1089.12,-19"/>
<text text-anchor="middle" x="1056.12" y="-7" font-family="Helvetica,sans-Serif" font-size="10.00">OThwomp</text>
</a>
</g>
</g>
<!-- Node2 -->
<g id="Node000002" class="node">
<title>Node2</title>
<g id="a_Node000002"><a xlink:href="classOObject.html" target="_top" xlink:title=" ">
<polygon fill="white" stroke="#666666" points="315.12,-96 259.12,-96 259.12,-77 315.12,-77 315.12,-96"/>
<text text-anchor="middle" x="287.12" y="-84" font-family="Helvetica,sans-Serif" font-size="10.00">OObject</text>
</a>
</g>
</g>
<!-- Node2&#45;&gt;Node1 -->
<g id="edge1_Node000001_Node000002" class="edge">
<title>Node2&#45;&gt;Node1</title>
<g id="a_edge1_Node000001_Node000002"><a xlink:title=" ">
<path fill="none" stroke="#63b8ff" d="M325.52,-81.75C458.54,-68.78 898.3,-25.89 1022.93,-13.74"/>
<polygon fill="#63b8ff" stroke="#63b8ff" points="325.01,-78.29 315.4,-82.74 325.69,-85.25 325.01,-78.29"/>
</a>
</g>
</g>
<!-- Node3 -->
<g id="Node000003" class="node">
<title>Node3</title>
<g id="a_Node000003"><a xlink:title=" ">
<polygon fill="white" stroke="#666666" points="61.12,-162 11.12,-162 11.12,-143 61.12,-143 61.12,-162"/>
<text text-anchor="middle" x="36.12" y="-150" font-family="Helvetica,sans-Serif" font-size="10.00">uint8_t</text>
</a>
</g>
</g>
<!-- Node3&#45;&gt;Node2 -->
<g id="edge2_Node000002_Node000003" class="edge">
<title>Node3&#45;&gt;Node2</title>
<g id="a_edge2_Node000002_Node000003"><a xlink:title=" ">
<path fill="none" stroke="#9a32cd" stroke-dasharray="5,2" d="M42.75,-133.02C46.23,-125.94 51.23,-118.49 58.12,-114 90.64,-92.8 205.38,-88.51 259.05,-87.68"/>
<polygon fill="#9a32cd" stroke="#9a32cd" points="39.31,-132.17 38.69,-142.75 45.77,-134.86 39.31,-132.17"/>
</a>
</g>
<text text-anchor="middle" x="70.62" y="-117" font-family="Helvetica,sans-Serif" font-size="10.00" fill="grey"> uuid</text>
</g>
<!-- Node4 -->
<g id="Node000004" class="node">
<title>Node4</title>
<g id="a_Node000004"><a xlink:href="structObject.html" target="_top" xlink:title=" ">
<polygon fill="white" stroke="#666666" points="515.12,-162 467.12,-162 467.12,-143 515.12,-143 515.12,-162"/>
<text text-anchor="middle" x="491.12" y="-150" font-family="Helvetica,sans-Serif" font-size="10.00">Object</text>
</a>
</g>
</g>
<!-- Node4&#45;&gt;Node2 -->
<g id="edge3_Node000002_Node000004" class="edge">
<title>Node4&#45;&gt;Node2</title>
<g id="a_edge3_Node000002_Node000004"><a xlink:title=" ">
<path fill="none" stroke="#9a32cd" stroke-dasharray="5,2" d="M457.34,-140.9C417.34,-128.36 351.51,-107.7 314.53,-96.1"/>
<polygon fill="#9a32cd" stroke="#9a32cd" points="456.33,-144.25 466.91,-143.91 458.42,-137.57 456.33,-144.25"/>
</a>
</g>
<text text-anchor="middle" x="407.12" y="-117" font-family="Helvetica,sans-Serif" font-size="10.00" fill="grey"> o</text>
</g>
<!-- Node5 -->
<g id="Node000005" class="node">
<title>Node5</title>
<g id="a_Node000005"><a xlink:title=" ">
<polygon fill="white" stroke="#666666" points="928.12,-338 896.12,-338 896.12,-319 928.12,-319 928.12,-338"/>
<text text-anchor="middle" x="912.12" y="-326" font-family="Helvetica,sans-Serif" font-size="10.00">f32</text>
</a>
</g>
</g>
<!-- Node5&#45;&gt;Node4 -->
<g id="edge4_Node000004_Node000005" class="edge">
<title>Node5&#45;&gt;Node4</title>
<g id="a_edge4_Node000004_Node000005"><a xlink:title=" ">
<path fill="none" stroke="#9a32cd" stroke-dasharray="5,2" d="M886.1,-319.29C850.66,-311.86 833.14,-324.03 811.12,-301 773.28,-261.44 829.07,-216.32 788.12,-180 766.12,-160.49 553.14,-166.69 524.12,-162 521.2,-161.53 518.16,-160.92 515.16,-160.24"/>
<polygon fill="#9a32cd" stroke="#9a32cd" points="885.5,-322.74 896.05,-321.79 887.21,-315.95 885.5,-322.74"/>
</a>
</g>
<text text-anchor="middle" x="845.62" y="-276.5" font-family="Helvetica,sans-Serif" font-size="10.00" fill="grey"> offset</text>
<text text-anchor="middle" x="845.62" y="-265.5" font-family="Helvetica,sans-Serif" font-size="10.00" fill="grey">origin_pos</text>
<text text-anchor="middle" x="845.62" y="-254.5" font-family="Helvetica,sans-Serif" font-size="10.00" fill="grey">pos</text>
<text text-anchor="middle" x="845.62" y="-243.5" font-family="Helvetica,sans-Serif" font-size="10.00" fill="grey">sizeScaling</text>
<text text-anchor="middle" x="845.62" y="-232.5" font-family="Helvetica,sans-Serif" font-size="10.00" fill="grey">surfaceHeight</text>
<text text-anchor="middle" x="845.62" y="-221.5" font-family="Helvetica,sans-Serif" font-size="10.00" fill="grey">unk_01C</text>
<text text-anchor="middle" x="845.62" y="-210.5" font-family="Helvetica,sans-Serif" font-size="10.00" fill="grey">unk_034</text>
<text text-anchor="middle" x="845.62" y="-199.5" font-family="Helvetica,sans-Serif" font-size="10.00" fill="grey">velocity</text>
</g>
<!-- Node6 -->
<g id="Node000006" class="node">
<title>Node6</title>
<g id="a_Node000006"><a xlink:title=" ">
<polygon fill="white" stroke="#666666" points="114.12,-338 80.12,-338 80.12,-319 114.12,-319 114.12,-338"/>
<text text-anchor="middle" x="97.12" y="-326" font-family="Helvetica,sans-Serif" font-size="10.00">s32</text>
</a>
</g>
</g>
<!-- Node6&#45;&gt;Node1 -->
<g id="edge24_Node000001_Node000006" class="edge">
<title>Node6&#45;&gt;Node1</title>
<g id="a_edge24_Node000001_Node000006"><a xlink:title=" ">
<path fill="none" stroke="#9a32cd" stroke-dasharray="5,2" d="M80.44,-311.29C77.49,-308.02 74.58,-304.51 72.12,-301 32.41,-244.36 18.11,-229.3 2.12,-162 -3.15,-139.83 1.15,-126.63 20.12,-114 106.3,-56.62 147.6,-91.51 250.12,-77 395.09,-56.48 431.27,-49.94 577.12,-37 744.28,-22.17 945.05,-14.27 1022.96,-11.58"/>
<polygon fill="#9a32cd" stroke="#9a32cd" points="78.17,-313.97 87.62,-318.75 83.21,-309.12 78.17,-313.97"/>
</a>
</g>
<text text-anchor="middle" x="32.12" y="-117" font-family="Helvetica,sans-Serif" font-size="10.00" fill="grey"> _idx</text>
</g>
<!-- Node6&#45;&gt;Node2 -->
<g id="edge21_Node000002_Node000006" class="edge">
<title>Node6&#45;&gt;Node2</title>
<g id="a_edge21_Node000002_Node000006"><a xlink:title=" ">
<path fill="none" stroke="#9a32cd" stroke-dasharray="5,2" d="M90.55,-308.99C79.05,-272.99 59.85,-192.7 97.12,-143 116.6,-117.02 210.87,-99.15 258.89,-91.58"/>
<polygon fill="#9a32cd" stroke="#9a32cd" points="87.29,-310.3 93.8,-318.66 93.93,-308.07 87.29,-310.3"/>
</a>
</g>
<text text-anchor="middle" x="130.12" y="-150" font-family="Helvetica,sans-Serif" font-size="10.00" fill="grey"> _objectIndex</text>
</g>
<!-- Node6&#45;&gt;Node4 -->
<g id="edge5_Node000004_Node000006" class="edge">
<title>Node6&#45;&gt;Node4</title>
<g id="a_edge5_Node000004_Node000006"><a xlink:title=" ">
<path fill="none" stroke="#9a32cd" stroke-dasharray="5,2" d="M106.82,-310C108.33,-307.03 109.82,-303.95 111.12,-301 134.06,-248.74 108.82,-214.72 154.12,-180 178.81,-161.08 393.72,-155.32 466.86,-153.9"/>
<polygon fill="#9a32cd" stroke="#9a32cd" points="103.73,-308.35 102.11,-318.82 109.9,-311.65 103.73,-308.35"/>
</a>
</g>
<text text-anchor="middle" x="175.62" y="-265.5" font-family="Helvetica,sans-Serif" font-size="10.00" fill="grey"> status</text>
<text text-anchor="middle" x="175.62" y="-254.5" font-family="Helvetica,sans-Serif" font-size="10.00" fill="grey">timer</text>
<text text-anchor="middle" x="175.62" y="-243.5" font-family="Helvetica,sans-Serif" font-size="10.00" fill="grey">unk_048</text>
<text text-anchor="middle" x="175.62" y="-232.5" font-family="Helvetica,sans-Serif" font-size="10.00" fill="grey">unk_04C</text>
<text text-anchor="middle" x="175.62" y="-221.5" font-family="Helvetica,sans-Serif" font-size="10.00" fill="grey">unk_058</text>
<text text-anchor="middle" x="175.62" y="-210.5" font-family="Helvetica,sans-Serif" font-size="10.00" fill="grey">unk_05C</text>
</g>
<!-- Node7 -->
<g id="Node000007" class="node">
<title>Node7</title>
<g id="a_Node000007"><a xlink:title=" ">
<polygon fill="white" stroke="#666666" points="233.62,-338 158.62,-338 158.62,-319 233.62,-319 233.62,-338"/>
<text text-anchor="middle" x="196.12" y="-326" font-family="Helvetica,sans-Serif" font-size="10.00">const char *</text>
</a>
</g>
</g>
<!-- Node7&#45;&gt;Node2 -->
<g id="edge19_Node000002_Node000007" class="edge">
<title>Node7&#45;&gt;Node2</title>
<g id="a_edge19_Node000002_Node000007"><a xlink:title=" ">
<path fill="none" stroke="#9a32cd" stroke-dasharray="5,2" d="M150.17,-314.23C144.62,-310.78 139.67,-306.45 136.12,-301 106.76,-255.94 109.29,-226.61 136.12,-180 144.07,-166.19 153.46,-170.2 167.12,-162 206.01,-138.64 251.36,-110.14 273.52,-96.12"/>
<polygon fill="#9a32cd" stroke="#9a32cd" points="148.78,-317.45 159.27,-318.95 152,-311.24 148.78,-317.45"/>
</a>
</g>
<text text-anchor="middle" x="213.62" y="-150" font-family="Helvetica,sans-Serif" font-size="10.00" fill="grey"> Name</text>
</g>
<!-- Node7&#45;&gt;Node4 -->
<g id="edge6_Node000004_Node000007" class="edge">
<title>Node7&#45;&gt;Node4</title>
<g id="a_edge6_Node000004_Node000007"><a xlink:title=" ">
<path fill="none" stroke="#9a32cd" stroke-dasharray="5,2" d="M198.67,-308.79C203.99,-271.04 216.59,-188.61 226.12,-180 243.78,-164.03 404.61,-156.6 466.76,-154.31"/>
<polygon fill="#9a32cd" stroke="#9a32cd" points="195.17,-308.55 197.26,-318.94 202.1,-309.51 195.17,-308.55"/>
</a>
</g>
<text text-anchor="middle" x="259.62" y="-243.5" font-family="Helvetica,sans-Serif" font-size="10.00" fill="grey"> activeTLUT</text>
<text text-anchor="middle" x="259.62" y="-232.5" font-family="Helvetica,sans-Serif" font-size="10.00" fill="grey">activeTexture</text>
</g>
<!-- Node8 -->
<g id="Node000008" class="node">
<title>Node8</title>
<g id="a_Node000008"><a xlink:title=" ">
<polygon fill="white" stroke="#666666" points="382.62,-338 353.62,-338 353.62,-319 382.62,-319 382.62,-338"/>
<text text-anchor="middle" x="368.12" y="-326" font-family="Helvetica,sans-Serif" font-size="10.00">u8</text>
</a>
</g>
</g>
<!-- Node8&#45;&gt;Node4 -->
<g id="edge7_Node000004_Node000008" class="edge">
<title>Node8&#45;&gt;Node4</title>
<g id="a_edge7_Node000004_Node000008"><a xlink:title=" ">
<path fill="none" stroke="#9a32cd" stroke-dasharray="5,2" d="M362.98,-309.13C355.62,-278.48 346.14,-216.65 377.12,-180 388.53,-166.5 437.09,-159.11 467.03,-155.76"/>
<polygon fill="#9a32cd" stroke="#9a32cd" points="359.62,-310.11 365.52,-318.91 366.39,-308.35 359.62,-310.11"/>
</a>
</g>
<text text-anchor="middle" x="412.62" y="-293" font-family="Helvetica,sans-Serif" font-size="10.00" fill="grey"> textureHeight</text>
<text text-anchor="middle" x="412.62" y="-282" font-family="Helvetica,sans-Serif" font-size="10.00" fill="grey">textureWidth</text>
<text text-anchor="middle" x="412.62" y="-271" font-family="Helvetica,sans-Serif" font-size="10.00" fill="grey">tlutList</text>
<text text-anchor="middle" x="412.62" y="-260" font-family="Helvetica,sans-Serif" font-size="10.00" fill="grey">unk_0D5</text>
<text text-anchor="middle" x="412.62" y="-249" font-family="Helvetica,sans-Serif" font-size="10.00" fill="grey">unk_0D6</text>
<text text-anchor="middle" x="412.62" y="-238" font-family="Helvetica,sans-Serif" font-size="10.00" fill="grey">unk_0D7</text>
<text text-anchor="middle" x="412.62" y="-227" font-family="Helvetica,sans-Serif" font-size="10.00" fill="grey">unk_0D8</text>
<text text-anchor="middle" x="412.62" y="-216" font-family="Helvetica,sans-Serif" font-size="10.00" fill="grey">unk_0DB</text>
<text text-anchor="middle" x="412.62" y="-205" font-family="Helvetica,sans-Serif" font-size="10.00" fill="grey">unk_0DC</text>
<text text-anchor="middle" x="412.62" y="-194" font-family="Helvetica,sans-Serif" font-size="10.00" fill="grey">unk_0DD</text>
<text text-anchor="middle" x="412.62" y="-183" font-family="Helvetica,sans-Serif" font-size="10.00" fill="grey">...</text>
</g>
<!-- Node9 -->
<g id="Node000009" class="node">
<title>Node9</title>
<g id="a_Node000009"><a xlink:title=" ">
<polygon fill="white" stroke="#666666" points="687.12,-338 607.12,-338 607.12,-319 687.12,-319 687.12,-338"/>
<text text-anchor="middle" x="647.12" y="-326" font-family="Helvetica,sans-Serif" font-size="10.00">const char **</text>
</a>
</g>
</g>
<!-- Node9&#45;&gt;Node4 -->
<g id="edge8_Node000004_Node000009" class="edge">
<title>Node9&#45;&gt;Node4</title>
<g id="a_edge8_Node000004_Node000009"><a xlink:title=" ">
<path fill="none" stroke="#9a32cd" stroke-dasharray="5,2" d="M647.08,-308.45C646.6,-272.79 643.49,-197.96 626.12,-180 594.11,-146.91 569.11,-171.75 524.12,-162 521.23,-161.37 518.21,-160.67 515.22,-159.94"/>
<polygon fill="#9a32cd" stroke="#9a32cd" points="643.59,-308.93 647.16,-318.9 650.59,-308.87 643.59,-308.93"/>
</a>
</g>
<text text-anchor="middle" x="675.12" y="-238" font-family="Helvetica,sans-Serif" font-size="10.00" fill="grey"> textureList</text>
</g>
<!-- Node10 -->
<g id="Node000010" class="node">
<title>Node10</title>
<g id="a_Node000010"><a xlink:title=" ">
<polygon fill="white" stroke="#666666" points="328.12,-338 294.12,-338 294.12,-319 328.12,-319 328.12,-338"/>
<text text-anchor="middle" x="311.12" y="-326" font-family="Helvetica,sans-Serif" font-size="10.00">Gfx</text>
</a>
</g>
</g>
<!-- Node10&#45;&gt;Node4 -->
<g id="edge9_Node000004_Node000010" class="edge">
<title>Node10&#45;&gt;Node4</title>
<g id="a_edge9_Node000004_Node000010"><a xlink:title=" ">
<path fill="none" stroke="#9a32cd" stroke-dasharray="5,2" d="M305.38,-308.91C297.09,-277.93 286.03,-215.63 318.12,-180 337.54,-158.44 424.28,-154.3 467.08,-153.59"/>
<polygon fill="#9a32cd" stroke="#9a32cd" points="302.1,-310.16 308.22,-318.8 308.83,-308.22 302.1,-310.16"/>
</a>
</g>
<text text-anchor="middle" x="335.12" y="-238" font-family="Helvetica,sans-Serif" font-size="10.00" fill="grey"> model</text>
</g>
<!-- Node11 -->
<g id="Node000011" class="node">
<title>Node11</title>
<g id="a_Node000011"><a xlink:title=" ">
<polygon fill="white" stroke="#666666" points="478.62,-338 445.62,-338 445.62,-319 478.62,-319 478.62,-338"/>
<text text-anchor="middle" x="462.12" y="-326" font-family="Helvetica,sans-Serif" font-size="10.00">Vtx</text>
</a>
</g>
</g>
<!-- Node11&#45;&gt;Node4 -->
<g id="edge10_Node000004_Node000011" class="edge">
<title>Node11&#45;&gt;Node4</title>
<g id="a_edge10_Node000004_Node000011"><a xlink:title=" ">
<path fill="none" stroke="#9a32cd" stroke-dasharray="5,2" d="M457.74,-308.72C451.94,-279.73 444.47,-222.92 463.12,-180 466.21,-172.88 472.25,-166.77 477.93,-162.22"/>
<polygon fill="#9a32cd" stroke="#9a32cd" points="454.36,-309.67 459.89,-318.7 461.2,-308.19 454.36,-309.67"/>
</a>
</g>
<text text-anchor="middle" x="480.62" y="-238" font-family="Helvetica,sans-Serif" font-size="10.00" fill="grey"> vertex</text>
</g>
<!-- Node12 -->
<g id="Node000012" class="node">
<title>Node12</title>
<g id="a_Node000012"><a xlink:title=" ">
<polygon fill="white" stroke="#666666" points="534.62,-338 505.62,-338 505.62,-319 534.62,-319 534.62,-338"/>
<text text-anchor="middle" x="520.12" y="-326" font-family="Helvetica,sans-Serif" font-size="10.00">s8</text>
</a>
</g>
</g>
<!-- Node12&#45;&gt;Node4 -->
<g id="edge11_Node000004_Node000012" class="edge">
<title>Node12&#45;&gt;Node4</title>
<g id="a_edge11_Node000004_Node000012"><a xlink:title=" ">
<path fill="none" stroke="#9a32cd" stroke-dasharray="5,2" d="M518,-308.78C514.66,-280.66 507.58,-225.91 498.12,-180 496.89,-174.03 495.14,-167.41 493.7,-162.28"/>
<polygon fill="#9a32cd" stroke="#9a32cd" points="514.53,-309.27 519.16,-318.8 521.48,-308.46 514.53,-309.27"/>
</a>
</g>
<text text-anchor="middle" x="557.12" y="-293" font-family="Helvetica,sans-Serif" font-size="10.00" fill="grey"> isTimerActive</text>
<text text-anchor="middle" x="557.12" y="-282" font-family="Helvetica,sans-Serif" font-size="10.00" fill="grey">textureListIndex</text>
<text text-anchor="middle" x="557.12" y="-271" font-family="Helvetica,sans-Serif" font-size="10.00" fill="grey">unk_078</text>
<text text-anchor="middle" x="557.12" y="-260" font-family="Helvetica,sans-Serif" font-size="10.00" fill="grey">unk_0CA</text>
<text text-anchor="middle" x="557.12" y="-249" font-family="Helvetica,sans-Serif" font-size="10.00" fill="grey">unk_0CC</text>
<text text-anchor="middle" x="557.12" y="-238" font-family="Helvetica,sans-Serif" font-size="10.00" fill="grey">unk_0CD</text>
<text text-anchor="middle" x="557.12" y="-227" font-family="Helvetica,sans-Serif" font-size="10.00" fill="grey">unk_0CE</text>
<text text-anchor="middle" x="557.12" y="-216" font-family="Helvetica,sans-Serif" font-size="10.00" fill="grey">unk_0CF</text>
<text text-anchor="middle" x="557.12" y="-205" font-family="Helvetica,sans-Serif" font-size="10.00" fill="grey">unk_0D0</text>
<text text-anchor="middle" x="557.12" y="-194" font-family="Helvetica,sans-Serif" font-size="10.00" fill="grey">unk_0D1</text>
<text text-anchor="middle" x="557.12" y="-183" font-family="Helvetica,sans-Serif" font-size="10.00" fill="grey">...</text>
</g>
<!-- Node13 -->
<g id="Node000013" class="node">
<title>Node13</title>
<g id="a_Node000013"><a xlink:href="structSplineControlPoint.html" target="_top" xlink:title=" ">
<polygon fill="white" stroke="#666666" points="806.62,-514 699.62,-514 699.62,-495 806.62,-495 806.62,-514"/>
<text text-anchor="middle" x="753.12" y="-502" font-family="Helvetica,sans-Serif" font-size="10.00">SplineControlPoint</text>
</a>
</g>
</g>
<!-- Node13&#45;&gt;Node4 -->
<g id="edge12_Node000004_Node000013" class="edge">
<title>Node13&#45;&gt;Node4</title>
<g id="a_edge12_Node000004_Node000013"><a xlink:title=" ">
<path fill="none" stroke="#9a32cd" stroke-dasharray="5,2" d="M741.76,-485.72C740.34,-482.89 739.05,-479.93 738.12,-477 728.01,-445.4 730.65,-203.39 707.12,-180 678.14,-151.19 564.36,-169.12 524.12,-162 521.2,-161.48 518.17,-160.85 515.17,-160.15"/>
<polygon fill="#9a32cd" stroke="#9a32cd" points="738.85,-487.68 746.86,-494.61 744.92,-484.19 738.85,-487.68"/>
</a>
</g>
<text text-anchor="middle" x="761.62" y="-326" font-family="Helvetica,sans-Serif" font-size="10.00" fill="grey"> controlPoints</text>
</g>
<!-- Node15 -->
<g id="Node000015" class="node">
<title>Node15</title>
<g id="a_Node000015"><a xlink:href="structSplineData.html" target="_top" xlink:title=" ">
<polygon fill="white" stroke="#666666" points="878.12,-338 808.12,-338 808.12,-319 878.12,-319 878.12,-338"/>
<text text-anchor="middle" x="843.12" y="-326" font-family="Helvetica,sans-Serif" font-size="10.00">SplineData</text>
</a>
</g>
</g>
<!-- Node13&#45;&gt;Node15 -->
<g id="edge16_Node000015_Node000013" class="edge">
<title>Node13&#45;&gt;Node15</title>
<g id="a_edge16_Node000015_Node000013"><a xlink:title=" ">
<path fill="none" stroke="#9a32cd" stroke-dasharray="5,2" d="M748.15,-484.58C741.35,-454.07 733.05,-393.63 762.12,-356 768,-348.39 788.79,-341.67 807.84,-336.91"/>
<polygon fill="#9a32cd" stroke="#9a32cd" points="744.84,-485.81 750.6,-494.7 751.65,-484.16 744.84,-485.81"/>
</a>
</g>
<text text-anchor="middle" x="795.62" y="-414" font-family="Helvetica,sans-Serif" font-size="10.00" fill="grey"> controlPoints</text>
</g>
<!-- Node14 -->
<g id="Node000014" class="node">
<title>Node14</title>
<g id="a_Node000014"><a xlink:title=" ">
<polygon fill="white" stroke="#666666" points="832.12,-591 798.12,-591 798.12,-572 832.12,-572 832.12,-591"/>
<text text-anchor="middle" x="815.12" y="-579" font-family="Helvetica,sans-Serif" font-size="10.00">s16</text>
</a>
</g>
</g>
<!-- Node14&#45;&gt;Node1 -->
<g id="edge25_Node000001_Node000014" class="edge">
<title>Node14&#45;&gt;Node1</title>
<g id="a_edge25_Node000001_Node000014"><a xlink:title=" ">
<path fill="none" stroke="#9a32cd" stroke-dasharray="5,2" d="M842.52,-579.37C915.69,-575.6 1110.12,-560.41 1110.12,-505.5 1110.12,-505.5 1110.12,-505.5 1110.12,-85.5 1110.12,-56.94 1084.01,-31.84 1068.1,-19.19"/>
<polygon fill="#9a32cd" stroke="#9a32cd" points="842.07,-575.88 832.25,-579.86 842.41,-582.88 842.07,-575.88"/>
</a>
</g>
<text text-anchor="middle" x="1147.12" y="-238" font-family="Helvetica,sans-Serif" font-size="10.00" fill="grey"> _faceDirection</text>
</g>
<!-- Node14&#45;&gt;Node4 -->
<g id="edge17_Node000004_Node000014" class="edge">
<title>Node14&#45;&gt;Node4</title>
<g id="a_edge17_Node000004_Node000014"><a xlink:title=" ">
<path fill="none" stroke="#9a32cd" stroke-dasharray="5,2" d="M787.97,-571.5C760.45,-561.24 718.07,-542.15 690.12,-514 627.93,-451.36 619.17,-423.72 598.12,-338 594.18,-321.98 599.76,-317.44 601.12,-301 605.55,-247.41 634.54,-222.13 601.12,-180 579.28,-152.47 558.25,-170.38 524.12,-162 521.24,-161.29 518.24,-160.54 515.25,-159.78"/>
<polygon fill="#9a32cd" stroke="#9a32cd" points="787.13,-574.92 797.72,-575 789.49,-568.33 787.13,-574.92"/>
</a>
</g>
<text text-anchor="middle" x="683.12" y="-469" font-family="Helvetica,sans-Serif" font-size="10.00" fill="grey"> primAlpha</text>
<text text-anchor="middle" x="683.12" y="-458" font-family="Helvetica,sans-Serif" font-size="10.00" fill="grey">state</text>
<text text-anchor="middle" x="683.12" y="-447" font-family="Helvetica,sans-Serif" font-size="10.00" fill="grey">type</text>
<text text-anchor="middle" x="683.12" y="-436" font-family="Helvetica,sans-Serif" font-size="10.00" fill="grey">unk_084</text>
<text text-anchor="middle" x="683.12" y="-425" font-family="Helvetica,sans-Serif" font-size="10.00" fill="grey">unk_09C</text>
<text text-anchor="middle" x="683.12" y="-414" font-family="Helvetica,sans-Serif" font-size="10.00" fill="grey">unk_09E</text>
<text text-anchor="middle" x="683.12" y="-403" font-family="Helvetica,sans-Serif" font-size="10.00" fill="grey">unk_0A2</text>
<text text-anchor="middle" x="683.12" y="-392" font-family="Helvetica,sans-Serif" font-size="10.00" fill="grey">unk_0A8</text>
<text text-anchor="middle" x="683.12" y="-381" font-family="Helvetica,sans-Serif" font-size="10.00" fill="grey">unk_0AA</text>
<text text-anchor="middle" x="683.12" y="-370" font-family="Helvetica,sans-Serif" font-size="10.00" fill="grey">unk_0AC</text>
<text text-anchor="middle" x="683.12" y="-359" font-family="Helvetica,sans-Serif" font-size="10.00" fill="grey">...</text>
</g>
<!-- Node14&#45;&gt;Node13 -->
<g id="edge13_Node000013_Node000014" class="edge">
<title>Node14&#45;&gt;Node13</title>
<g id="a_edge13_Node000013_Node000014"><a xlink:title=" ">
<path fill="none" stroke="#9a32cd" stroke-dasharray="5,2" d="M799.08,-564.86C795.7,-561.37 792.22,-557.63 789.12,-554 777.67,-540.61 765.74,-523.91 758.9,-514.01"/>
<polygon fill="#9a32cd" stroke="#9a32cd" points="796.6,-567.33 806.14,-571.95 801.56,-562.4 796.6,-567.33"/>
</a>
</g>
<text text-anchor="middle" x="809.12" y="-546" font-family="Helvetica,sans-Serif" font-size="10.00" fill="grey"> pos</text>
<text text-anchor="middle" x="809.12" y="-535" font-family="Helvetica,sans-Serif" font-size="10.00" fill="grey">velocity</text>
</g>
<!-- Node14&#45;&gt;Node15 -->
<g id="edge15_Node000015_Node000014" class="edge">
<title>Node14&#45;&gt;Node15</title>
<g id="a_edge15_Node000015_Node000014"><a xlink:title=" ">
<path fill="none" stroke="#9a32cd" stroke-dasharray="5,2" d="M825.81,-562.7C827.13,-559.87 828.3,-556.91 829.12,-554 851.95,-472.8 846.22,-368.8 843.87,-338.28"/>
<polygon fill="#9a32cd" stroke="#9a32cd" points="822.69,-561.12 821.05,-571.58 828.86,-564.42 822.69,-561.12"/>
</a>
</g>
<text text-anchor="middle" x="886.62" y="-502" font-family="Helvetica,sans-Serif" font-size="10.00" fill="grey"> numControlPoints</text>
</g>
<!-- Node15&#45;&gt;Node4 -->
<g id="edge14_Node000004_Node000015" class="edge">
<title>Node15&#45;&gt;Node4</title>
<g id="a_edge14_Node000004_Node000015"><a xlink:title=" ">
<path fill="none" stroke="#9a32cd" stroke-dasharray="5,2" d="M798.16,-318.48C779.73,-313.89 761.27,-307.83 755.12,-301 718.49,-260.32 772.74,-216.69 732.12,-180 697.69,-148.9 569.85,-169.81 524.12,-162 521.2,-161.5 518.17,-160.87 515.17,-160.19"/>
<polygon fill="#9a32cd" stroke="#9a32cd" points="797.49,-321.91 808.02,-320.81 799.09,-315.1 797.49,-321.91"/>
</a>
</g>
<text text-anchor="middle" x="771.62" y="-238" font-family="Helvetica,sans-Serif" font-size="10.00" fill="grey"> spline</text>
</g>
<!-- Node16 -->
<g id="Node000016" class="node">
<title>Node16</title>
<g id="a_Node000016"><a xlink:title=" ">
<polygon fill="white" stroke="#666666" points="1001.62,-338 966.62,-338 966.62,-319 1001.62,-319 1001.62,-338"/>
<text text-anchor="middle" x="984.12" y="-326" font-family="Helvetica,sans-Serif" font-size="10.00">u16</text>
</a>
</g>
</g>
<!-- Node16&#45;&gt;Node1 -->
<g id="edge26_Node000001_Node000016" class="edge">
<title>Node16&#45;&gt;Node1</title>
<g id="a_edge26_Node000001_Node000016"><a xlink:title=" ">
<path fill="none" stroke="#9a32cd" stroke-dasharray="5,2" d="M987.12,-308.7C987.48,-306.12 987.83,-303.5 988.12,-301 997.68,-218.17 980.34,-194.21 1003.12,-114 1013.81,-76.33 1038.74,-36.31 1050.18,-19.14"/>
<polygon fill="#9a32cd" stroke="#9a32cd" points="983.65,-308.28 985.61,-318.69 990.57,-309.33 983.65,-308.28"/>
</a>
</g>
<text text-anchor="middle" x="1049.62" y="-117" font-family="Helvetica,sans-Serif" font-size="10.00" fill="grey"> _boundingBoxSize</text>
</g>
<!-- Node16&#45;&gt;Node4 -->
<g id="edge18_Node000004_Node000016" class="edge">
<title>Node16&#45;&gt;Node4</title>
<g id="a_edge18_Node000004_Node000016"><a xlink:title=" ">
<path fill="none" stroke="#9a32cd" stroke-dasharray="5,2" d="M956.53,-321.63C935.99,-316.71 910.31,-309.17 903.12,-301 866.97,-259.89 921.39,-215.96 880.12,-180 850.26,-153.98 563.27,-167.97 524.12,-162 521.19,-161.55 518.15,-160.96 515.15,-160.29"/>
<polygon fill="#9a32cd" stroke="#9a32cd" points="955.86,-325.07 966.39,-323.9 957.43,-318.25 955.86,-325.07"/>
</a>
</g>
<text text-anchor="middle" x="945.62" y="-276.5" font-family="Helvetica,sans-Serif" font-size="10.00" fill="grey"> animationTimer</text>
<text text-anchor="middle" x="945.62" y="-265.5" font-family="Helvetica,sans-Serif" font-size="10.00" fill="grey">boundingBoxSize</text>
<text text-anchor="middle" x="945.62" y="-254.5" font-family="Helvetica,sans-Serif" font-size="10.00" fill="grey">direction_angle</text>
<text text-anchor="middle" x="945.62" y="-243.5" font-family="Helvetica,sans-Serif" font-size="10.00" fill="grey">orientation</text>
<text text-anchor="middle" x="945.62" y="-232.5" font-family="Helvetica,sans-Serif" font-size="10.00" fill="grey">unk_09A</text>
<text text-anchor="middle" x="945.62" y="-221.5" font-family="Helvetica,sans-Serif" font-size="10.00" fill="grey">unk_0B8</text>
<text text-anchor="middle" x="945.62" y="-210.5" font-family="Helvetica,sans-Serif" font-size="10.00" fill="grey">unk_0C4</text>
<text text-anchor="middle" x="945.62" y="-199.5" font-family="Helvetica,sans-Serif" font-size="10.00" fill="grey">unk_0C6</text>
</g>
<!-- Node17 -->
<g id="Node000017" class="node">
<title>Node17</title>
<g id="a_Node000017"><a xlink:title=" ">
<polygon fill="white" stroke="#666666" points="571.12,-162 533.12,-162 533.12,-143 571.12,-143 571.12,-162"/>
<text text-anchor="middle" x="552.12" y="-150" font-family="Helvetica,sans-Serif" font-size="10.00">bool</text>
</a>
</g>
</g>
<!-- Node17&#45;&gt;Node2 -->
<g id="edge20_Node000002_Node000017" class="edge">
<title>Node17&#45;&gt;Node2</title>
<g id="a_edge20_Node000002_Node000017"><a xlink:title=" ">
<path fill="none" stroke="#9a32cd" stroke-dasharray="5,2" d="M523.07,-142.75C474.76,-128.84 461.55,-124.76 416.12,-114 381.52,-105.81 341.36,-97.79 315.16,-92.76"/>
<polygon fill="#9a32cd" stroke="#9a32cd" points="522.28,-146.17 532.86,-145.57 524.22,-139.44 522.28,-146.17"/>
</a>
</g>
<text text-anchor="middle" x="503.62" y="-117" font-family="Helvetica,sans-Serif" font-size="10.00" fill="grey"> bPendingDestroy</text>
</g>
<!-- Node18 -->
<g id="Node000018" class="node">
<title>Node18</title>
<g id="a_Node000018"><a xlink:title=" ">
<polygon fill="white" stroke="#666666" points="1185.62,-96 1138.62,-96 1138.62,-77 1185.62,-77 1185.62,-96"/>
<text text-anchor="middle" x="1162.12" y="-84" font-family="Helvetica,sans-Serif" font-size="10.00">States</text>
</a>
</g>
</g>
<!-- Node18&#45;&gt;Node1 -->
<g id="edge22_Node000001_Node000018" class="edge">
<title>Node18&#45;&gt;Node1</title>
<g id="a_edge22_Node000001_Node000018"><a xlink:title=" ">
<path fill="none" stroke="#9a32cd" stroke-dasharray="5,2" d="M1151.94,-68.24C1145.15,-57.99 1135.43,-45.4 1124.12,-37 1113.44,-29.07 1100.08,-23.18 1088.04,-19"/>
<polygon fill="#9a32cd" stroke="#9a32cd" points="1149.03,-70.19 1157.3,-76.81 1154.96,-66.47 1149.03,-70.19"/>
</a>
</g>
<text text-anchor="middle" x="1158.62" y="-45.5" font-family="Helvetica,sans-Serif" font-size="10.00" fill="grey"> State</text>
</g>
<!-- Node19 -->
<g id="Node000019" class="node">
<title>Node19</title>
<g id="a_Node000019"><a xlink:title=" ">
<polygon fill="white" stroke="#666666" points="1248.62,-96 1203.62,-96 1203.62,-77 1248.62,-77 1248.62,-96"/>
<text text-anchor="middle" x="1226.12" y="-84" font-family="Helvetica,sans-Serif" font-size="10.00">size_t</text>
</a>
</g>
</g>
<!-- Node19&#45;&gt;Node1 -->
<g id="edge23_Node000001_Node000019" class="edge">
<title>Node19&#45;&gt;Node1</title>
<g id="a_edge23_Node000001_Node000019"><a xlink:title=" ">
<path fill="none" stroke="#9a32cd" stroke-dasharray="5,2" d="M1213.59,-68.95C1204.6,-58.23 1191.56,-44.85 1177.12,-37 1149.72,-22.11 1114.54,-15.58 1089.18,-12.73"/>
<polygon fill="#9a32cd" stroke="#9a32cd" points="1210.91,-71.2 1219.89,-76.82 1216.38,-66.83 1210.91,-71.2"/>
</a>
</g>
<text text-anchor="middle" x="1221.12" y="-51" font-family="Helvetica,sans-Serif" font-size="10.00" fill="grey"> _count</text>
<text text-anchor="middle" x="1221.12" y="-40" font-family="Helvetica,sans-Serif" font-size="10.00" fill="grey">_rand</text>
</g>
</g>
</svg>
