<?xml version="1.0" encoding="UTF-8" standalone="no"?>
<!DOCTYPE svg PUBLIC "-//W3C//DTD SVG 1.1//EN"
 "http://www.w3.org/Graphics/SVG/1.1/DTD/svg11.dtd">
<!-- Generated by graphviz version 2.43.0 (0)
 -->
<!-- Title: OSnowman Pages: 1 -->
<!--zoomable 621 -->

<svg id="main" version="1.1" xmlns="http://www.w3.org/2000/svg" xmlns:xlink="http://www.w3.org/1999/xlink" xml:space="preserve" onload="init(evt)">

<style type="text/css"><![CDATA[
.node, .edge {opacity: 0.7;}
.node.selected, .edge.selected {opacity: 1;}
.edge:hover path { stroke: red; }
.edge:hover polygon { stroke: red; fill: red; }
]]></style>

<defs>
  <circle id="rim" cx="0" cy="0" r="7"/>
  <circle id="rim2" cx="0" cy="0" r="3.5"/>
  <g id="zoomPlus">
    <use xlink:href="#rim" fill="#404040"><set attributeName="fill" to="#808080" begin="zoomplus.mouseover" end="zoomplus.mouseout"/></use>
    <path d="M-4,0h8M0,-4v8" fill="none" stroke="white" stroke-width="1.5" pointer-events="none"/>
  </g>
  <g id="zoomMin">
    <use xlink:href="#rim" fill="#404040"><set attributeName="fill" to="#808080" begin="zoomminus.mouseover" end="zoomminus.mouseout"/></use>
    <path d="M-4,0h8" fill="none" stroke="white" stroke-width="1.5" pointer-events="none"/>
  </g>
  <g id="arrowUp" transform="translate(30 24)">
    <use xlink:href="#rim"/>
    <path pointer-events="none" fill="none" stroke="white" stroke-width="1.5" d="M0,-3.0v7 M-2.5,-0.5L0,-3.0L2.5,-0.5"/>
  </g>
  <g id="arrowRight" transform="rotate(90) translate(36 -43)">
    <use xlink:href="#rim"/>
    <path pointer-events="none" fill="none" stroke="white" stroke-width="1.5" d="M0,-3.0v7 M-2.5,-0.5L0,-3.0L2.5,-0.5"/>
  </g>
  <g id="arrowDown" transform="rotate(180) translate(-30 -48)">
    <use xlink:href="#rim"/>
    <path pointer-events="none" fill="none" stroke="white" stroke-width="1.5" d="M0,-3.0v7 M-2.5,-0.5L0,-3.0L2.5,-0.5"/>
  </g>
  <g id="arrowLeft" transform="rotate(270) translate(-36 17)">
    <use xlink:href="#rim"/>
    <path pointer-events="none" fill="none" stroke="white" stroke-width="1.5" d="M0,-3.0v7 M-2.5,-0.5L0,-3.0L2.5,-0.5"/>
  </g>
  <g id="resetDef">
    <use xlink:href="#rim2" fill="#404040"><set attributeName="fill" to="#808080" begin="reset.mouseover" end="reset.mouseout"/></use>
  </g>
</defs>
<script type="application/ecmascript">
var viewWidth = 1165;
var viewHeight = 621;
var sectionId = 'dynsection-1';
</script>
<script type="application/ecmascript" xlink:href="svg.min.js"/>
<svg id="graph" class="graph">
<g id="viewport">
<title>OSnowman</title>
<!-- Node1 -->
<g id="Node000001" class="node">
<title>Node1</title>
<g id="a_Node000001"><a xlink:title=" ">
<polygon fill="#999999" stroke="#666666" points="1070.5,-19 998.5,-19 998.5,0 1070.5,0 1070.5,-19"/>
<text text-anchor="middle" x="1034.5" y="-7" font-family="Helvetica,sans-Serif" font-size="10.00">OSnowman</text>
</a>
</g>
</g>
<!-- Node2 -->
<g id="Node000002" class="node">
<title>Node2</title>
<g id="a_Node000002"><a xlink:href="classOObject.html" target="_top" xlink:title=" ">
<polygon fill="white" stroke="#666666" points="750.5,-96 694.5,-96 694.5,-77 750.5,-77 750.5,-96"/>
<text text-anchor="middle" x="722.5" y="-84" font-family="Helvetica,sans-Serif" font-size="10.00">OObject</text>
</a>
</g>
</g>
<!-- Node2&#45;&gt;Node1 -->
<g id="edge1_Node000001_Node000002" class="edge">
<title>Node2&#45;&gt;Node1</title>
<g id="a_edge1_Node000001_Node000002"><a xlink:title=" ">
<path fill="none" stroke="#63b8ff" d="M760.71,-76.31C821.62,-61.67 939.86,-33.25 999.01,-19.03"/>
<polygon fill="#63b8ff" stroke="#63b8ff" points="759.64,-72.97 750.74,-78.71 761.28,-79.78 759.64,-72.97"/>
</a>
</g>
</g>
<!-- Node3 -->
<g id="Node000003" class="node">
<title>Node3</title>
<g id="a_Node000003"><a xlink:title=" ">
<polygon fill="white" stroke="#666666" points="802.5,-184 752.5,-184 752.5,-165 802.5,-165 802.5,-184"/>
<text text-anchor="middle" x="777.5" y="-172" font-family="Helvetica,sans-Serif" font-size="10.00">uint8_t</text>
</a>
</g>
</g>
<!-- Node3&#45;&gt;Node2 -->
<g id="edge2_Node000002_Node000003" class="edge">
<title>Node3&#45;&gt;Node2</title>
<g id="a_edge2_Node000002_Node000003"><a xlink:title=" ">
<path fill="none" stroke="#9a32cd" stroke-dasharray="5,2" d="M773.42,-155C770.05,-142.58 764.36,-126.3 755.5,-114 750.43,-106.96 743.03,-100.78 736.51,-96.17"/>
<polygon fill="#9a32cd" stroke="#9a32cd" points="770.03,-155.85 775.81,-164.73 776.83,-154.18 770.03,-155.85"/>
</a>
</g>
<text text-anchor="middle" x="784" y="-128" font-family="Helvetica,sans-Serif" font-size="10.00" fill="grey"> uuid</text>
</g>
<!-- Node4 -->
<g id="Node000004" class="node">
<title>Node4</title>
<g id="a_Node000004"><a xlink:href="structObject.html" target="_top" xlink:title=" ">
<polygon fill="white" stroke="#666666" points="550.5,-184 502.5,-184 502.5,-165 550.5,-165 550.5,-184"/>
<text text-anchor="middle" x="526.5" y="-172" font-family="Helvetica,sans-Serif" font-size="10.00">Object</text>
</a>
</g>
</g>
<!-- Node4&#45;&gt;Node2 -->
<g id="edge3_Node000002_Node000004" class="edge">
<title>Node4&#45;&gt;Node2</title>
<g id="a_edge3_Node000002_Node000004"><a xlink:title=" ">
<path fill="none" stroke="#9a32cd" stroke-dasharray="5,2" d="M550.98,-160.07C574.73,-147.32 611.99,-128.07 645.5,-114 661.53,-107.27 679.93,-100.89 694.73,-96.07"/>
<polygon fill="#9a32cd" stroke="#9a32cd" points="549.11,-157.1 541.97,-164.93 552.44,-163.26 549.11,-157.1"/>
</a>
</g>
<text text-anchor="middle" x="650.5" y="-128" font-family="Helvetica,sans-Serif" font-size="10.00" fill="grey"> o</text>
</g>
<!-- Node5 -->
<g id="Node000005" class="node">
<title>Node5</title>
<g id="a_Node000005"><a xlink:title=" ">
<polygon fill="white" stroke="#666666" points="784.5,-360 752.5,-360 752.5,-341 784.5,-341 784.5,-360"/>
<text text-anchor="middle" x="768.5" y="-348" font-family="Helvetica,sans-Serif" font-size="10.00">f32</text>
</a>
</g>
</g>
<!-- Node5&#45;&gt;Node4 -->
<g id="edge4_Node000004_Node000005" class="edge">
<title>Node5&#45;&gt;Node4</title>
<g id="a_edge4_Node000004_Node000005"><a xlink:title=" ">
<path fill="none" stroke="#9a32cd" stroke-dasharray="5,2" d="M768.42,-330.82C767.86,-295.19 764.51,-219.51 746.5,-202 739.54,-195.23 606.59,-182.64 550.81,-177.64"/>
<polygon fill="#9a32cd" stroke="#9a32cd" points="764.92,-330.89 768.52,-340.85 771.92,-330.82 764.92,-330.89"/>
</a>
</g>
<text text-anchor="middle" x="803" y="-298.5" font-family="Helvetica,sans-Serif" font-size="10.00" fill="grey"> offset</text>
<text text-anchor="middle" x="803" y="-287.5" font-family="Helvetica,sans-Serif" font-size="10.00" fill="grey">origin_pos</text>
<text text-anchor="middle" x="803" y="-276.5" font-family="Helvetica,sans-Serif" font-size="10.00" fill="grey">pos</text>
<text text-anchor="middle" x="803" y="-265.5" font-family="Helvetica,sans-Serif" font-size="10.00" fill="grey">sizeScaling</text>
<text text-anchor="middle" x="803" y="-254.5" font-family="Helvetica,sans-Serif" font-size="10.00" fill="grey">surfaceHeight</text>
<text text-anchor="middle" x="803" y="-243.5" font-family="Helvetica,sans-Serif" font-size="10.00" fill="grey">unk_01C</text>
<text text-anchor="middle" x="803" y="-232.5" font-family="Helvetica,sans-Serif" font-size="10.00" fill="grey">unk_034</text>
<text text-anchor="middle" x="803" y="-221.5" font-family="Helvetica,sans-Serif" font-size="10.00" fill="grey">velocity</text>
</g>
<!-- Node6 -->
<g id="Node000006" class="node">
<title>Node6</title>
<g id="a_Node000006"><a xlink:title=" ">
<polygon fill="white" stroke="#666666" points="935.5,-360 901.5,-360 901.5,-341 935.5,-341 935.5,-360"/>
<text text-anchor="middle" x="918.5" y="-348" font-family="Helvetica,sans-Serif" font-size="10.00">s32</text>
</a>
</g>
</g>
<!-- Node6&#45;&gt;Node1 -->
<g id="edge25_Node000001_Node000006" class="edge">
<title>Node6&#45;&gt;Node1</title>
<g id="a_edge25_Node000001_Node000006"><a xlink:title=" ">
<path fill="none" stroke="#9a32cd" stroke-dasharray="5,2" d="M925.47,-331.28C926.5,-328.51 927.54,-325.69 928.5,-323 971.38,-203.27 1019.6,-56.19 1031.66,-19.24"/>
<polygon fill="#9a32cd" stroke="#9a32cd" points="922.17,-330.1 921.91,-340.69 928.72,-332.58 922.17,-330.1"/>
</a>
</g>
<text text-anchor="middle" x="1030.5" y="-133.5" font-family="Helvetica,sans-Serif" font-size="10.00" fill="grey"> _bodyIndex</text>
<text text-anchor="middle" x="1030.5" y="-122.5" font-family="Helvetica,sans-Serif" font-size="10.00" fill="grey">_headIndex</text>
</g>
<!-- Node6&#45;&gt;Node2 -->
<g id="edge21_Node000002_Node000006" class="edge">
<title>Node6&#45;&gt;Node2</title>
<g id="a_edge21_Node000002_Node000006"><a xlink:title=" ">
<path fill="none" stroke="#9a32cd" stroke-dasharray="5,2" d="M921.02,-330.84C924.07,-301.56 926.38,-243.86 904.5,-202 876.45,-148.34 853.2,-143.82 800.5,-114 784.94,-105.2 765.98,-98.67 750.65,-94.3"/>
<polygon fill="#9a32cd" stroke="#9a32cd" points="917.53,-330.54 919.82,-340.89 924.48,-331.37 917.53,-330.54"/>
</a>
</g>
<text text-anchor="middle" x="926.5" y="-172" font-family="Helvetica,sans-Serif" font-size="10.00" fill="grey"> _objectIndex</text>
</g>
<!-- Node6&#45;&gt;Node4 -->
<g id="edge5_Node000004_Node000006" class="edge">
<title>Node6&#45;&gt;Node4</title>
<g id="a_edge5_Node000004_Node000006"><a xlink:title=" ">
<path fill="none" stroke="#9a32cd" stroke-dasharray="5,2" d="M891.75,-342.91C880.81,-338.9 869,-332.62 861.5,-323 827.86,-279.81 879.15,-238.66 838.5,-202 835.83,-199.59 623.61,-183 550.75,-177.37"/>
<polygon fill="#9a32cd" stroke="#9a32cd" points="890.8,-346.28 901.39,-345.99 892.93,-339.61 890.8,-346.28"/>
</a>
</g>
<text text-anchor="middle" x="883" y="-287.5" font-family="Helvetica,sans-Serif" font-size="10.00" fill="grey"> status</text>
<text text-anchor="middle" x="883" y="-276.5" font-family="Helvetica,sans-Serif" font-size="10.00" fill="grey">timer</text>
<text text-anchor="middle" x="883" y="-265.5" font-family="Helvetica,sans-Serif" font-size="10.00" fill="grey">unk_048</text>
<text text-anchor="middle" x="883" y="-254.5" font-family="Helvetica,sans-Serif" font-size="10.00" fill="grey">unk_04C</text>
<text text-anchor="middle" x="883" y="-243.5" font-family="Helvetica,sans-Serif" font-size="10.00" fill="grey">unk_058</text>
<text text-anchor="middle" x="883" y="-232.5" font-family="Helvetica,sans-Serif" font-size="10.00" fill="grey">unk_05C</text>
</g>
<!-- Node7 -->
<g id="Node000007" class="node">
<title>Node7</title>
<g id="a_Node000007"><a xlink:title=" ">
<polygon fill="white" stroke="#666666" points="75,-360 0,-360 0,-341 75,-341 75,-360"/>
<text text-anchor="middle" x="37.5" y="-348" font-family="Helvetica,sans-Serif" font-size="10.00">const char *</text>
</a>
</g>
</g>
<!-- Node7&#45;&gt;Node2 -->
<g id="edge19_Node000002_Node000007" class="edge">
<title>Node7&#45;&gt;Node2</title>
<g id="a_edge19_Node000002_Node000007"><a xlink:title=" ">
<path fill="none" stroke="#9a32cd" stroke-dasharray="5,2" d="M30.36,-331.51C19.56,-300.97 3.4,-238.71 34.5,-202 121.49,-99.34 575.99,-88.63 694.31,-87.59"/>
<polygon fill="#9a32cd" stroke="#9a32cd" points="27.09,-332.76 33.88,-340.9 33.65,-330.31 27.09,-332.76"/>
</a>
</g>
<text text-anchor="middle" x="101" y="-172" font-family="Helvetica,sans-Serif" font-size="10.00" fill="grey"> Name</text>
</g>
<!-- Node7&#45;&gt;Node4 -->
<g id="edge6_Node000004_Node000007" class="edge">
<title>Node7&#45;&gt;Node4</title>
<g id="a_edge6_Node000004_Node000007"><a xlink:title=" ">
<path fill="none" stroke="#9a32cd" stroke-dasharray="5,2" d="M36.67,-330.76C35.53,-295.04 35.38,-219.2 53.5,-202 69.92,-186.41 408.2,-178.03 502.36,-175.99"/>
<polygon fill="#9a32cd" stroke="#9a32cd" points="33.18,-330.97 37.05,-340.83 40.17,-330.7 33.18,-330.97"/>
</a>
</g>
<text text-anchor="middle" x="87" y="-265.5" font-family="Helvetica,sans-Serif" font-size="10.00" fill="grey"> activeTLUT</text>
<text text-anchor="middle" x="87" y="-254.5" font-family="Helvetica,sans-Serif" font-size="10.00" fill="grey">activeTexture</text>
</g>
<!-- Node8 -->
<g id="Node000008" class="node">
<title>Node8</title>
<g id="a_Node000008"><a xlink:title=" ">
<polygon fill="white" stroke="#666666" points="158,-360 129,-360 129,-341 158,-341 158,-360"/>
<text text-anchor="middle" x="143.5" y="-348" font-family="Helvetica,sans-Serif" font-size="10.00">u8</text>
</a>
</g>
</g>
<!-- Node8&#45;&gt;Node4 -->
<g id="edge7_Node000004_Node000008" class="edge">
<title>Node8&#45;&gt;Node4</title>
<g id="a_edge7_Node000004_Node000008"><a xlink:title=" ">
<path fill="none" stroke="#9a32cd" stroke-dasharray="5,2" d="M136.52,-331.18C126.03,-300.15 110.68,-237.17 143.5,-202 167.97,-175.78 422.06,-174.92 502.34,-175.31"/>
<polygon fill="#9a32cd" stroke="#9a32cd" points="133.28,-332.5 139.95,-340.73 139.87,-330.14 133.28,-332.5"/>
</a>
</g>
<text text-anchor="middle" x="179" y="-315" font-family="Helvetica,sans-Serif" font-size="10.00" fill="grey"> textureHeight</text>
<text text-anchor="middle" x="179" y="-304" font-family="Helvetica,sans-Serif" font-size="10.00" fill="grey">textureWidth</text>
<text text-anchor="middle" x="179" y="-293" font-family="Helvetica,sans-Serif" font-size="10.00" fill="grey">tlutList</text>
<text text-anchor="middle" x="179" y="-282" font-family="Helvetica,sans-Serif" font-size="10.00" fill="grey">unk_0D5</text>
<text text-anchor="middle" x="179" y="-271" font-family="Helvetica,sans-Serif" font-size="10.00" fill="grey">unk_0D6</text>
<text text-anchor="middle" x="179" y="-260" font-family="Helvetica,sans-Serif" font-size="10.00" fill="grey">unk_0D7</text>
<text text-anchor="middle" x="179" y="-249" font-family="Helvetica,sans-Serif" font-size="10.00" fill="grey">unk_0D8</text>
<text text-anchor="middle" x="179" y="-238" font-family="Helvetica,sans-Serif" font-size="10.00" fill="grey">unk_0DB</text>
<text text-anchor="middle" x="179" y="-227" font-family="Helvetica,sans-Serif" font-size="10.00" fill="grey">unk_0DC</text>
<text text-anchor="middle" x="179" y="-216" font-family="Helvetica,sans-Serif" font-size="10.00" fill="grey">unk_0DD</text>
<text text-anchor="middle" x="179" y="-205" font-family="Helvetica,sans-Serif" font-size="10.00" fill="grey">...</text>
</g>
<!-- Node9 -->
<g id="Node000009" class="node">
<title>Node9</title>
<g id="a_Node000009"><a xlink:title=" ">
<polygon fill="white" stroke="#666666" points="277.5,-360 197.5,-360 197.5,-341 277.5,-341 277.5,-360"/>
<text text-anchor="middle" x="237.5" y="-348" font-family="Helvetica,sans-Serif" font-size="10.00">const char **</text>
</a>
</g>
</g>
<!-- Node9&#45;&gt;Node4 -->
<g id="edge8_Node000004_Node000009" class="edge">
<title>Node9&#45;&gt;Node4</title>
<g id="a_edge8_Node000004_Node000009"><a xlink:title=" ">
<path fill="none" stroke="#9a32cd" stroke-dasharray="5,2" d="M230.61,-331.26C220.24,-300.34 205.08,-237.53 237.5,-202 255.2,-182.6 435.77,-177.22 502.17,-175.89"/>
<polygon fill="#9a32cd" stroke="#9a32cd" points="227.34,-332.52 233.99,-340.77 233.94,-330.18 227.34,-332.52"/>
</a>
</g>
<text text-anchor="middle" x="265.5" y="-260" font-family="Helvetica,sans-Serif" font-size="10.00" fill="grey"> textureList</text>
</g>
<!-- Node10 -->
<g id="Node000010" class="node">
<title>Node10</title>
<g id="a_Node000010"><a xlink:title=" ">
<polygon fill="white" stroke="#666666" points="333.5,-360 299.5,-360 299.5,-341 333.5,-341 333.5,-360"/>
<text text-anchor="middle" x="316.5" y="-348" font-family="Helvetica,sans-Serif" font-size="10.00">Gfx</text>
</a>
</g>
</g>
<!-- Node10&#45;&gt;Node4 -->
<g id="edge9_Node000004_Node000010" class="edge">
<title>Node10&#45;&gt;Node4</title>
<g id="a_edge9_Node000004_Node000010"><a xlink:title=" ">
<path fill="none" stroke="#9a32cd" stroke-dasharray="5,2" d="M309.74,-331.38C299.56,-300.63 284.69,-238.08 316.5,-202 340.5,-174.78 452.46,-173.79 502.37,-174.75"/>
<polygon fill="#9a32cd" stroke="#9a32cd" points="306.44,-332.56 313.06,-340.83 313.04,-330.24 306.44,-332.56"/>
</a>
</g>
<text text-anchor="middle" x="333.5" y="-260" font-family="Helvetica,sans-Serif" font-size="10.00" fill="grey"> model</text>
</g>
<!-- Node11 -->
<g id="Node000011" class="node">
<title>Node11</title>
<g id="a_Node000011"><a xlink:title=" ">
<polygon fill="white" stroke="#666666" points="390,-360 357,-360 357,-341 390,-341 390,-360"/>
<text text-anchor="middle" x="373.5" y="-348" font-family="Helvetica,sans-Serif" font-size="10.00">Vtx</text>
</a>
</g>
</g>
<!-- Node11&#45;&gt;Node4 -->
<g id="edge10_Node000004_Node000011" class="edge">
<title>Node11&#45;&gt;Node4</title>
<g id="a_edge10_Node000004_Node000011"><a xlink:title=" ">
<path fill="none" stroke="#9a32cd" stroke-dasharray="5,2" d="M366.6,-331.13C356.4,-300.47 341.64,-238.63 372.5,-202 388.8,-182.65 463.08,-177.43 502.22,-176.02"/>
<polygon fill="#9a32cd" stroke="#9a32cd" points="363.43,-332.65 370.06,-340.91 370.03,-330.31 363.43,-332.65"/>
</a>
</g>
<text text-anchor="middle" x="390" y="-260" font-family="Helvetica,sans-Serif" font-size="10.00" fill="grey"> vertex</text>
</g>
<!-- Node12 -->
<g id="Node000012" class="node">
<title>Node12</title>
<g id="a_Node000012"><a xlink:title=" ">
<polygon fill="white" stroke="#666666" points="437,-360 408,-360 408,-341 437,-341 437,-360"/>
<text text-anchor="middle" x="422.5" y="-348" font-family="Helvetica,sans-Serif" font-size="10.00">s8</text>
</a>
</g>
</g>
<!-- Node12&#45;&gt;Node4 -->
<g id="edge11_Node000004_Node000012" class="edge">
<title>Node12&#45;&gt;Node4</title>
<g id="a_edge11_Node000004_Node000012"><a xlink:title=" ">
<path fill="none" stroke="#9a32cd" stroke-dasharray="5,2" d="M417.61,-330.86C410.79,-300.27 402.38,-239.11 432.5,-202 449.17,-181.46 480.43,-176.12 502.31,-175.07"/>
<polygon fill="#9a32cd" stroke="#9a32cd" points="414.3,-332.08 420.06,-340.98 421.11,-330.43 414.3,-332.08"/>
</a>
</g>
<text text-anchor="middle" x="472.5" y="-315" font-family="Helvetica,sans-Serif" font-size="10.00" fill="grey"> isTimerActive</text>
<text text-anchor="middle" x="472.5" y="-304" font-family="Helvetica,sans-Serif" font-size="10.00" fill="grey">textureListIndex</text>
<text text-anchor="middle" x="472.5" y="-293" font-family="Helvetica,sans-Serif" font-size="10.00" fill="grey">unk_078</text>
<text text-anchor="middle" x="472.5" y="-282" font-family="Helvetica,sans-Serif" font-size="10.00" fill="grey">unk_0CA</text>
<text text-anchor="middle" x="472.5" y="-271" font-family="Helvetica,sans-Serif" font-size="10.00" fill="grey">unk_0CC</text>
<text text-anchor="middle" x="472.5" y="-260" font-family="Helvetica,sans-Serif" font-size="10.00" fill="grey">unk_0CD</text>
<text text-anchor="middle" x="472.5" y="-249" font-family="Helvetica,sans-Serif" font-size="10.00" fill="grey">unk_0CE</text>
<text text-anchor="middle" x="472.5" y="-238" font-family="Helvetica,sans-Serif" font-size="10.00" fill="grey">unk_0CF</text>
<text text-anchor="middle" x="472.5" y="-227" font-family="Helvetica,sans-Serif" font-size="10.00" fill="grey">unk_0D0</text>
<text text-anchor="middle" x="472.5" y="-216" font-family="Helvetica,sans-Serif" font-size="10.00" fill="grey">unk_0D1</text>
<text text-anchor="middle" x="472.5" y="-205" font-family="Helvetica,sans-Serif" font-size="10.00" fill="grey">...</text>
</g>
<!-- Node13 -->
<g id="Node000013" class="node">
<title>Node13</title>
<g id="a_Node000013"><a xlink:href="structSplineControlPoint.html" target="_top" xlink:title=" ">
<polygon fill="white" stroke="#666666" points="539,-536 432,-536 432,-517 539,-517 539,-536"/>
<text text-anchor="middle" x="485.5" y="-524" font-family="Helvetica,sans-Serif" font-size="10.00">SplineControlPoint</text>
</a>
</g>
</g>
<!-- Node13&#45;&gt;Node4 -->
<g id="edge12_Node000004_Node000013" class="edge">
<title>Node13&#45;&gt;Node4</title>
<g id="a_edge12_Node000004_Node000013"><a xlink:title=" ">
<path fill="none" stroke="#9a32cd" stroke-dasharray="5,2" d="M485.05,-506.8C484.34,-476.14 482.98,-413.26 482.5,-360 482.42,-351.56 478.34,-348.35 482.5,-341 490.16,-327.47 504.21,-336.15 512.5,-323 541.03,-277.74 532.44,-208.65 528.22,-184.34"/>
<polygon fill="#9a32cd" stroke="#9a32cd" points="481.55,-506.97 485.29,-516.89 488.55,-506.81 481.55,-506.97"/>
</a>
</g>
<text text-anchor="middle" x="516" y="-348" font-family="Helvetica,sans-Serif" font-size="10.00" fill="grey"> controlPoints</text>
</g>
<!-- Node15 -->
<g id="Node000015" class="node">
<title>Node15</title>
<g id="a_Node000015"><a xlink:href="structSplineData.html" target="_top" xlink:title=" ">
<polygon fill="white" stroke="#666666" points="628.5,-360 558.5,-360 558.5,-341 628.5,-341 628.5,-360"/>
<text text-anchor="middle" x="593.5" y="-348" font-family="Helvetica,sans-Serif" font-size="10.00">SplineData</text>
</a>
</g>
</g>
<!-- Node13&#45;&gt;Node15 -->
<g id="edge16_Node000015_Node000013" class="edge">
<title>Node13&#45;&gt;Node15</title>
<g id="a_edge16_Node000015_Node000013"><a xlink:title=" ">
<path fill="none" stroke="#9a32cd" stroke-dasharray="5,2" d="M485.88,-506.63C486.97,-471.29 491.2,-396.96 507.5,-378 514.32,-370.06 537.57,-363.17 558.17,-358.41"/>
<polygon fill="#9a32cd" stroke="#9a32cd" points="482.37,-506.9 485.62,-516.99 489.37,-507.08 482.37,-506.9"/>
</a>
</g>
<text text-anchor="middle" x="541" y="-436" font-family="Helvetica,sans-Serif" font-size="10.00" fill="grey"> controlPoints</text>
</g>
<!-- Node14 -->
<g id="Node000014" class="node">
<title>Node14</title>
<g id="a_Node000014"><a xlink:title=" ">
<polygon fill="white" stroke="#666666" points="592.5,-613 558.5,-613 558.5,-594 592.5,-594 592.5,-613"/>
<text text-anchor="middle" x="575.5" y="-601" font-family="Helvetica,sans-Serif" font-size="10.00">s16</text>
</a>
</g>
</g>
<!-- Node14&#45;&gt;Node4 -->
<g id="edge17_Node000004_Node000014" class="edge">
<title>Node14&#45;&gt;Node4</title>
<g id="a_edge17_Node000004_Node000014"><a xlink:title=" ">
<path fill="none" stroke="#9a32cd" stroke-dasharray="5,2" d="M602.22,-593.51C626.76,-583.66 661.66,-565.24 677.5,-536 681.52,-528.58 678.34,-525.4 677.5,-517 676.61,-508.12 619.51,-208.61 613.5,-202 597.57,-184.47 570.44,-178.39 550.7,-176.35"/>
<polygon fill="#9a32cd" stroke="#9a32cd" points="600.85,-590.28 592.74,-597.1 603.33,-596.83 600.85,-590.28"/>
</a>
</g>
<text text-anchor="middle" x="701.5" y="-491" font-family="Helvetica,sans-Serif" font-size="10.00" fill="grey"> primAlpha</text>
<text text-anchor="middle" x="701.5" y="-480" font-family="Helvetica,sans-Serif" font-size="10.00" fill="grey">state</text>
<text text-anchor="middle" x="701.5" y="-469" font-family="Helvetica,sans-Serif" font-size="10.00" fill="grey">type</text>
<text text-anchor="middle" x="701.5" y="-458" font-family="Helvetica,sans-Serif" font-size="10.00" fill="grey">unk_084</text>
<text text-anchor="middle" x="701.5" y="-447" font-family="Helvetica,sans-Serif" font-size="10.00" fill="grey">unk_09C</text>
<text text-anchor="middle" x="701.5" y="-436" font-family="Helvetica,sans-Serif" font-size="10.00" fill="grey">unk_09E</text>
<text text-anchor="middle" x="701.5" y="-425" font-family="Helvetica,sans-Serif" font-size="10.00" fill="grey">unk_0A2</text>
<text text-anchor="middle" x="701.5" y="-414" font-family="Helvetica,sans-Serif" font-size="10.00" fill="grey">unk_0A8</text>
<text text-anchor="middle" x="701.5" y="-403" font-family="Helvetica,sans-Serif" font-size="10.00" fill="grey">unk_0AA</text>
<text text-anchor="middle" x="701.5" y="-392" font-family="Helvetica,sans-Serif" font-size="10.00" fill="grey">unk_0AC</text>
<text text-anchor="middle" x="701.5" y="-381" font-family="Helvetica,sans-Serif" font-size="10.00" fill="grey">...</text>
</g>
<!-- Node14&#45;&gt;Node13 -->
<g id="edge13_Node000013_Node000014" class="edge">
<title>Node14&#45;&gt;Node13</title>
<g id="a_edge13_Node000013_Node000014"><a xlink:title=" ">
<path fill="none" stroke="#9a32cd" stroke-dasharray="5,2" d="M548.98,-592.53C539.71,-588.29 529.6,-582.74 521.5,-576 507.64,-564.46 496.15,-546.53 490.11,-536.01"/>
<polygon fill="#9a32cd" stroke="#9a32cd" points="547.65,-595.77 558.22,-596.48 550.4,-589.33 547.65,-595.77"/>
</a>
</g>
<text text-anchor="middle" x="541.5" y="-568" font-family="Helvetica,sans-Serif" font-size="10.00" fill="grey"> pos</text>
<text text-anchor="middle" x="541.5" y="-557" font-family="Helvetica,sans-Serif" font-size="10.00" fill="grey">velocity</text>
</g>
<!-- Node14&#45;&gt;Node15 -->
<g id="edge15_Node000015_Node000014" class="edge">
<title>Node14&#45;&gt;Node15</title>
<g id="a_edge15_Node000015_Node000014"><a xlink:title=" ">
<path fill="none" stroke="#9a32cd" stroke-dasharray="5,2" d="M576.85,-583.73C580.47,-533.23 590.32,-395.86 592.88,-360.1"/>
<polygon fill="#9a32cd" stroke="#9a32cd" points="573.34,-583.64 576.12,-593.86 580.33,-584.14 573.34,-583.64"/>
</a>
</g>
<text text-anchor="middle" x="628" y="-524" font-family="Helvetica,sans-Serif" font-size="10.00" fill="grey"> numControlPoints</text>
</g>
<!-- Node15&#45;&gt;Node4 -->
<g id="edge14_Node000004_Node000015" class="edge">
<title>Node15&#45;&gt;Node4</title>
<g id="a_edge14_Node000004_Node000015"><a xlink:title=" ">
<path fill="none" stroke="#9a32cd" stroke-dasharray="5,2" d="M584.35,-331.69C582.99,-328.81 581.66,-325.85 580.5,-323 559.09,-270.56 562.69,-254.11 540.5,-202 537.89,-195.87 534.39,-189.25 531.54,-184.15"/>
<polygon fill="#9a32cd" stroke="#9a32cd" points="581.29,-333.39 588.86,-340.8 587.56,-330.29 581.29,-333.39"/>
</a>
</g>
<text text-anchor="middle" x="597" y="-260" font-family="Helvetica,sans-Serif" font-size="10.00" fill="grey"> spline</text>
</g>
<!-- Node16 -->
<g id="Node000016" class="node">
<title>Node16</title>
<g id="a_Node000016"><a xlink:title=" ">
<polygon fill="white" stroke="#666666" points="720,-360 685,-360 685,-341 720,-341 720,-360"/>
<text text-anchor="middle" x="702.5" y="-348" font-family="Helvetica,sans-Serif" font-size="10.00">u16</text>
</a>
</g>
</g>
<!-- Node16&#45;&gt;Node4 -->
<g id="edge18_Node000004_Node000016" class="edge">
<title>Node16&#45;&gt;Node4</title>
<g id="a_edge18_Node000004_Node000016"><a xlink:title=" ">
<path fill="none" stroke="#9a32cd" stroke-dasharray="5,2" d="M676.11,-336.94C670.54,-333.18 665.23,-328.54 661.5,-323 630.93,-277.59 676.34,-241.56 638.5,-202 626.59,-189.55 579.88,-181.84 550.67,-178.14"/>
<polygon fill="#9a32cd" stroke="#9a32cd" points="674.5,-340.06 684.89,-342.15 678.08,-334.04 674.5,-340.06"/>
</a>
</g>
<text text-anchor="middle" x="704" y="-298.5" font-family="Helvetica,sans-Serif" font-size="10.00" fill="grey"> animationTimer</text>
<text text-anchor="middle" x="704" y="-287.5" font-family="Helvetica,sans-Serif" font-size="10.00" fill="grey">boundingBoxSize</text>
<text text-anchor="middle" x="704" y="-276.5" font-family="Helvetica,sans-Serif" font-size="10.00" fill="grey">direction_angle</text>
<text text-anchor="middle" x="704" y="-265.5" font-family="Helvetica,sans-Serif" font-size="10.00" fill="grey">orientation</text>
<text text-anchor="middle" x="704" y="-254.5" font-family="Helvetica,sans-Serif" font-size="10.00" fill="grey">unk_09A</text>
<text text-anchor="middle" x="704" y="-243.5" font-family="Helvetica,sans-Serif" font-size="10.00" fill="grey">unk_0B8</text>
<text text-anchor="middle" x="704" y="-232.5" font-family="Helvetica,sans-Serif" font-size="10.00" fill="grey">unk_0C4</text>
<text text-anchor="middle" x="704" y="-221.5" font-family="Helvetica,sans-Serif" font-size="10.00" fill="grey">unk_0C6</text>
</g>
<!-- Node17 -->
<g id="Node000017" class="node">
<title>Node17</title>
<g id="a_Node000017"><a xlink:title=" ">
<polygon fill="white" stroke="#666666" points="686.5,-184 648.5,-184 648.5,-165 686.5,-165 686.5,-184"/>
<text text-anchor="middle" x="667.5" y="-172" font-family="Helvetica,sans-Serif" font-size="10.00">bool</text>
</a>
</g>
</g>
<!-- Node17&#45;&gt;Node2 -->
<g id="edge20_Node000002_Node000017" class="edge">
<title>Node17&#45;&gt;Node2</title>
<g id="a_edge20_Node000002_Node000017"><a xlink:title=" ">
<path fill="none" stroke="#9a32cd" stroke-dasharray="5,2" d="M661.24,-154.79C658.25,-142.28 656.8,-125.98 664.5,-114 671.2,-103.57 683.14,-97.19 694.45,-93.32"/>
<polygon fill="#9a32cd" stroke="#9a32cd" points="657.93,-155.97 664.06,-164.61 664.66,-154.03 657.93,-155.97"/>
</a>
</g>
<text text-anchor="middle" x="708" y="-128" font-family="Helvetica,sans-Serif" font-size="10.00" fill="grey"> bPendingDestroy</text>
</g>
<!-- Node18 -->
<g id="Node000018" class="node">
<title>Node18</title>
<g id="a_Node000018"><a xlink:href="structFVector.html" target="_top" xlink:title=" ">
<polygon fill="white" stroke="#666666" points="1094,-96 1041,-96 1041,-77 1094,-77 1094,-96"/>
<text text-anchor="middle" x="1067.5" y="-84" font-family="Helvetica,sans-Serif" font-size="10.00">FVector</text>
</a>
</g>
</g>
<!-- Node18&#45;&gt;Node1 -->
<g id="edge22_Node000001_Node000018" class="edge">
<title>Node18&#45;&gt;Node1</title>
<g id="a_edge22_Node000001_Node000018"><a xlink:title=" ">
<path fill="none" stroke="#9a32cd" stroke-dasharray="5,2" d="M1059.54,-67.42C1052.79,-52.06 1043.39,-30.7 1038.24,-19"/>
<polygon fill="#9a32cd" stroke="#9a32cd" points="1056.48,-69.15 1063.71,-76.9 1062.89,-66.33 1056.48,-69.15"/>
</a>
</g>
<text text-anchor="middle" x="1067.5" y="-45.5" font-family="Helvetica,sans-Serif" font-size="10.00" fill="grey"> _pos</text>
</g>
<!-- Node19 -->
<g id="Node000019" class="node">
<title>Node19</title>
<g id="a_Node000019"><a xlink:title=" ">
<polygon fill="white" stroke="#666666" points="1114.5,-184 1076.5,-184 1076.5,-165 1114.5,-165 1114.5,-184"/>
<text text-anchor="middle" x="1095.5" y="-172" font-family="Helvetica,sans-Serif" font-size="10.00">float</text>
</a>
</g>
</g>
<!-- Node19&#45;&gt;Node18 -->
<g id="edge23_Node000018_Node000019" class="edge">
<title>Node19&#45;&gt;Node18</title>
<g id="a_edge23_Node000018_Node000019"><a xlink:title=" ">
<path fill="none" stroke="#9a32cd" stroke-dasharray="5,2" d="M1089.62,-155.42C1083.67,-137.18 1074.75,-109.78 1070.28,-96.03"/>
<polygon fill="#9a32cd" stroke="#9a32cd" points="1086.29,-156.51 1092.71,-164.94 1092.95,-154.35 1086.29,-156.51"/>
</a>
</g>
<text text-anchor="middle" x="1090.5" y="-139" font-family="Helvetica,sans-Serif" font-size="10.00" fill="grey"> x</text>
<text text-anchor="middle" x="1090.5" y="-128" font-family="Helvetica,sans-Serif" font-size="10.00" fill="grey">y</text>
<text text-anchor="middle" x="1090.5" y="-117" font-family="Helvetica,sans-Serif" font-size="10.00" fill="grey">z</text>
</g>
<!-- Node20 -->
<g id="Node000020" class="node">
<title>Node20</title>
<g id="a_Node000020"><a xlink:title=" ">
<polygon fill="white" stroke="#666666" points="1157,-96 1112,-96 1112,-77 1157,-77 1157,-96"/>
<text text-anchor="middle" x="1134.5" y="-84" font-family="Helvetica,sans-Serif" font-size="10.00">size_t</text>
</a>
</g>
</g>
<!-- Node20&#45;&gt;Node1 -->
<g id="edge24_Node000001_Node000020" class="edge">
<title>Node20&#45;&gt;Node1</title>
<g id="a_edge24_Node000001_Node000020"><a xlink:title=" ">
<path fill="none" stroke="#9a32cd" stroke-dasharray="5,2" d="M1120.22,-69.48C1110.72,-59.4 1097.62,-46.54 1084.5,-37 1074.97,-30.07 1063.38,-23.81 1053.77,-19.12"/>
<polygon fill="#9a32cd" stroke="#9a32cd" points="1117.65,-71.86 1126.99,-76.85 1122.8,-67.12 1117.65,-71.86"/>
</a>
</g>
<text text-anchor="middle" x="1126.5" y="-51" font-family="Helvetica,sans-Serif" font-size="10.00" fill="grey"> _count</text>
<text text-anchor="middle" x="1126.5" y="-40" font-family="Helvetica,sans-Serif" font-size="10.00" fill="grey">_idx</text>
</g>
</g>
</svg>

<g id="navigator" transform="translate(0 0)" fill="#404254">
  <rect fill="#f2f5e9" fill-opacity="0.5" stroke="#606060" stroke-width=".5" x="0" y="0" width="60" height="60"/>
  <use id="zoomplus" xlink:href="#zoomPlus" x="17" y="9" onmousedown="handleZoom(evt,'in')"/>
  <use id="zoomminus" xlink:href="#zoomMin" x="42" y="9" onmousedown="handleZoom(evt,'out')"/>
  <use id="reset" xlink:href="#resetDef" x="30" y="36" onmousedown="handleReset()"/>
   <use id="arrowup" xlink:href="#arrowUp" x="0" y="0" onmousedown="handlePan(0,-1)"/>
  <use id="arrowright" xlink:href="#arrowRight" x="0" y="0" onmousedown="handlePan(1,0)"/>
  <use id="arrowdown" xlink:href="#arrowDown" x="0" y="0" onmousedown="handlePan(0,1)"/>
  <use id="arrowleft" xlink:href="#arrowLeft" x="0" y="0" onmousedown="handlePan(-1,0)"/>
</g>
<svg viewBox="0 0 15 15" width="100%" height="30px" preserveAspectRatio="xMaxYMin meet">
 <g id="arrow_out" transform="scale(0.3 0.3)">
  <a xlink:href="classOSnowman__coll__graph_org.svg" target="_base">
   <rect id="button" ry="5" rx="5" y="6" x="6" height="38" width="38"
        fill="#f2f5e9" fill-opacity="0.5" stroke="#606060" stroke-width="1.0"/>
   <path id="arrow"
     d="M 11.500037,31.436501 C 11.940474,20.09759 22.043105,11.32322 32.158766,21.979434 L 37.068811,17.246167 C 37.068811,17.246167 37.088388,32 37.088388,32 L 22.160133,31.978069 C 22.160133,31.978069 26.997745,27.140456 26.997745,27.140456 C 18.528582,18.264221 13.291696,25.230495 11.500037,31.436501 z"
     style="fill:#404040;"/>
  </a>
 </g>
</svg>

<style type='text/css'>
<![CDATA[
[data-mouse-over-selected='false'] { opacity: 0.7; }
[data-mouse-over-selected='true']  { opacity: 1.0; }
]]>
</style>
<script type="application/ecmascript"><![CDATA[
document.addEventListener('DOMContentLoaded', (event) => {
  highlightEdges();
  highlightAdjacentNodes();
});
]]></script>
</svg>
