<?xml version="1.0" encoding="UTF-8" standalone="no"?>
<!DOCTYPE svg PUBLIC "-//W3C//DTD SVG 1.1//EN"
 "http://www.w3.org/Graphics/SVG/1.1/DTD/svg11.dtd">
<!-- Generated by graphviz version 2.43.0 (0)
 -->
<!-- Title: init_hud Pages: 1 -->
<!--zoomable 444 -->

<svg id="main" version="1.1" xmlns="http://www.w3.org/2000/svg" xmlns:xlink="http://www.w3.org/1999/xlink" xml:space="preserve" onload="init(evt)">

<style type="text/css"><![CDATA[
.node, .edge {opacity: 0.7;}
.node.selected, .edge.selected {opacity: 1;}
.edge:hover path { stroke: red; }
.edge:hover polygon { stroke: red; fill: red; }
]]></style>

<defs>
  <circle id="rim" cx="0" cy="0" r="7"/>
  <circle id="rim2" cx="0" cy="0" r="3.5"/>
  <g id="zoomPlus">
    <use xlink:href="#rim" fill="#404040"><set attributeName="fill" to="#808080" begin="zoomplus.mouseover" end="zoomplus.mouseout"/></use>
    <path d="M-4,0h8M0,-4v8" fill="none" stroke="white" stroke-width="1.5" pointer-events="none"/>
  </g>
  <g id="zoomMin">
    <use xlink:href="#rim" fill="#404040"><set attributeName="fill" to="#808080" begin="zoomminus.mouseover" end="zoomminus.mouseout"/></use>
    <path d="M-4,0h8" fill="none" stroke="white" stroke-width="1.5" pointer-events="none"/>
  </g>
  <g id="arrowUp" transform="translate(30 24)">
    <use xlink:href="#rim"/>
    <path pointer-events="none" fill="none" stroke="white" stroke-width="1.5" d="M0,-3.0v7 M-2.5,-0.5L0,-3.0L2.5,-0.5"/>
  </g>
  <g id="arrowRight" transform="rotate(90) translate(36 -43)">
    <use xlink:href="#rim"/>
    <path pointer-events="none" fill="none" stroke="white" stroke-width="1.5" d="M0,-3.0v7 M-2.5,-0.5L0,-3.0L2.5,-0.5"/>
  </g>
  <g id="arrowDown" transform="rotate(180) translate(-30 -48)">
    <use xlink:href="#rim"/>
    <path pointer-events="none" fill="none" stroke="white" stroke-width="1.5" d="M0,-3.0v7 M-2.5,-0.5L0,-3.0L2.5,-0.5"/>
  </g>
  <g id="arrowLeft" transform="rotate(270) translate(-36 17)">
    <use xlink:href="#rim"/>
    <path pointer-events="none" fill="none" stroke="white" stroke-width="1.5" d="M0,-3.0v7 M-2.5,-0.5L0,-3.0L2.5,-0.5"/>
  </g>
  <g id="resetDef">
    <use xlink:href="#rim2" fill="#404040"><set attributeName="fill" to="#808080" begin="reset.mouseover" end="reset.mouseout"/></use>
  </g>
</defs>
<script type="application/ecmascript">
var viewWidth = 542;
var viewHeight = 444;
var sectionId = 'dynsection-22';
</script>
<script type="application/ecmascript" xlink:href="svg.min.js"/>
<svg id="graph" class="graph">
<g id="viewport">
<title>init_hud</title>
<!-- Node1 -->
<g id="Node000001" class="node">
<title>Node1</title>
<g id="a_Node000001"><a xlink:title=" ">
<polygon fill="#999999" stroke="#666666" points="56,-308 0,-308 0,-289 56,-289 56,-308"/>
<text text-anchor="middle" x="28" y="-296" font-family="Helvetica,sans-Serif" font-size="10.00">init_hud</text>
</a>
</g>
</g>
<!-- Node2 -->
<g id="Node000002" class="node">
<title>Node2</title>
<g id="a_Node000002"><a xlink:href="code__8006E9C0_8h.html#a0a15839e2884f0317e950c05b03e4f0b" target="_top" xlink:title=" ">
<polygon fill="white" stroke="#666666" points="198,-436 108,-436 108,-417 198,-417 198,-436"/>
<text text-anchor="middle" x="153" y="-424" font-family="Helvetica,sans-Serif" font-size="10.00">func_8006FA94</text>
</a>
</g>
</g>
<!-- Node1&#45;&gt;Node2 -->
<g id="edge1_Node000001_Node000002" class="edge">
<title>Node1&#45;&gt;Node2</title>
<g id="a_edge1_Node000001_Node000002"><a xlink:title=" ">
<path fill="none" stroke="#63b8ff" d="M31.78,-308.06C38.47,-329.39 57.53,-381.13 92,-408.5 94.05,-410.13 96.24,-411.61 98.54,-412.95"/>
<polygon fill="#63b8ff" stroke="#63b8ff" points="97.27,-416.23 107.78,-417.51 100.36,-409.95 97.27,-416.23"/>
</a>
</g>
</g>
<!-- Node3 -->
<g id="Node000003" class="node">
<title>Node3</title>
<g id="a_Node000003"><a xlink:href="code__8006E9C0_8c.html#a7ce8b772e14372f2078703a39e676d2a" target="_top" xlink:title=" ">
<polygon fill="white" stroke="#666666" points="198.5,-399 107.5,-399 107.5,-380 198.5,-380 198.5,-399"/>
<text text-anchor="middle" x="153" y="-387" font-family="Helvetica,sans-Serif" font-size="10.00">func_80070148</text>
</a>
</g>
</g>
<!-- Node1&#45;&gt;Node3 -->
<g id="edge2_Node000001_Node000003" class="edge">
<title>Node1&#45;&gt;Node3</title>
<g id="a_edge2_Node000001_Node000003"><a xlink:title=" ">
<path fill="none" stroke="#63b8ff" d="M35.08,-308.41C45.07,-323.89 66.42,-353.77 92,-370.5 95.11,-372.53 98.45,-374.36 101.91,-376"/>
<polygon fill="#63b8ff" stroke="#63b8ff" points="100.68,-379.28 111.25,-379.93 103.39,-372.83 100.68,-379.28"/>
</a>
</g>
</g>
<!-- Node5 -->
<g id="Node000005" class="node">
<title>Node5</title>
<g id="a_Node000005"><a xlink:href="code__8006E9C0_8c.html#a9b35328c0ffddc0723de4730c5e41431" target="_top" xlink:title=" ">
<polygon fill="white" stroke="#666666" points="210.5,-211 95.5,-211 95.5,-192 210.5,-192 210.5,-211"/>
<text text-anchor="middle" x="153" y="-199" font-family="Helvetica,sans-Serif" font-size="10.00">init_hud_one_player</text>
</a>
</g>
</g>
<!-- Node1&#45;&gt;Node5 -->
<g id="edge4_Node000001_Node000005" class="edge">
<title>Node1&#45;&gt;Node5</title>
<g id="a_edge4_Node000001_Node000005"><a xlink:title=" ">
<path fill="none" stroke="#63b8ff" d="M35.26,-288.85C45.5,-273.73 67.19,-244.34 92,-226.5 98.11,-222.11 105.11,-218.31 112.12,-215.09"/>
<polygon fill="#63b8ff" stroke="#63b8ff" points="113.77,-218.19 121.6,-211.06 111.03,-211.75 113.77,-218.19"/>
</a>
</g>
</g>
<!-- Node17 -->
<g id="Node000017" class="node">
<title>Node17</title>
<g id="a_Node000017"><a xlink:href="code__8006E9C0_8c.html#a36e7c29e21274b76d24f7c8864af5c3b" target="_top" xlink:title=" ">
<polygon fill="white" stroke="#666666" points="208.5,-361.5 97.5,-361.5 97.5,-331.5 208.5,-331.5 208.5,-361.5"/>
<text text-anchor="start" x="105.5" y="-349.5" font-family="Helvetica,sans-Serif" font-size="10.00">init_hud_three_four</text>
<text text-anchor="middle" x="153" y="-338.5" font-family="Helvetica,sans-Serif" font-size="10.00">_player</text>
</a>
</g>
</g>
<!-- Node1&#45;&gt;Node17 -->
<g id="edge20_Node000001_Node000017" class="edge">
<title>Node1&#45;&gt;Node17</title>
<g id="a_edge20_Node000001_Node000017"><a xlink:title=" ">
<path fill="none" stroke="#63b8ff" d="M53.6,-308.1C68.03,-313.73 86.76,-321.04 104.01,-327.77"/>
<polygon fill="#63b8ff" stroke="#63b8ff" points="102.81,-331.06 113.4,-331.44 105.36,-324.54 102.81,-331.06"/>
</a>
</g>
</g>
<!-- Node18 -->
<g id="Node000018" class="node">
<title>Node18</title>
<g id="a_Node000018"><a xlink:href="code__8006E9C0_8c.html#ae0bbfee0194d6a21ab9c2133af28ae16" target="_top" xlink:title=" ">
<polygon fill="white" stroke="#666666" points="210.5,-313.5 95.5,-313.5 95.5,-283.5 210.5,-283.5 210.5,-313.5"/>
<text text-anchor="start" x="103.5" y="-301.5" font-family="Helvetica,sans-Serif" font-size="10.00">init_hud_two_player</text>
<text text-anchor="middle" x="153" y="-290.5" font-family="Helvetica,sans-Serif" font-size="10.00">_horizontal</text>
</a>
</g>
</g>
<!-- Node1&#45;&gt;Node18 -->
<g id="edge25_Node000001_Node000018" class="edge">
<title>Node1&#45;&gt;Node18</title>
<g id="a_edge25_Node000001_Node000018"><a xlink:title=" ">
<path fill="none" stroke="#63b8ff" d="M56.3,-298.5C64.9,-298.5 74.8,-298.5 84.91,-298.5"/>
<polygon fill="#63b8ff" stroke="#63b8ff" points="85.05,-302 95.05,-298.5 85.05,-295 85.05,-302"/>
</a>
</g>
</g>
<!-- Node19 -->
<g id="Node000019" class="node">
<title>Node19</title>
<g id="a_Node000019"><a xlink:href="code__8006E9C0_8c.html#aa98fba14045af26e5c13a6a72442b8be" target="_top" xlink:title=" ">
<polygon fill="white" stroke="#666666" points="210.5,-265.5 95.5,-265.5 95.5,-235.5 210.5,-235.5 210.5,-265.5"/>
<text text-anchor="start" x="103.5" y="-253.5" font-family="Helvetica,sans-Serif" font-size="10.00">init_hud_two_player</text>
<text text-anchor="middle" x="153" y="-242.5" font-family="Helvetica,sans-Serif" font-size="10.00">_vertical</text>
</a>
</g>
</g>
<!-- Node1&#45;&gt;Node19 -->
<g id="edge31_Node000001_Node000019" class="edge">
<title>Node1&#45;&gt;Node19</title>
<g id="a_edge31_Node000001_Node000019"><a xlink:title=" ">
<path fill="none" stroke="#63b8ff" d="M53.6,-288.9C68.03,-283.27 86.76,-275.96 104.01,-269.23"/>
<polygon fill="#63b8ff" stroke="#63b8ff" points="105.36,-272.46 113.4,-265.56 102.81,-265.94 105.36,-272.46"/>
</a>
</g>
</g>
<!-- Node20 -->
<g id="Node000020" class="node">
<title>Node20</title>
<g id="a_Node000020"><a xlink:href="code__8006E9C0_8c.html#a90b6f11f43c81c8c033805cfddb8fc89" target="_top" xlink:title=" ">
<polygon fill="white" stroke="#666666" points="214,-56 92,-56 92,-37 214,-37 214,-56"/>
<text text-anchor="middle" x="153" y="-44" font-family="Helvetica,sans-Serif" font-size="10.00">reset_object_variable</text>
</a>
</g>
</g>
<!-- Node1&#45;&gt;Node20 -->
<g id="edge37_Node000001_Node000020" class="edge">
<title>Node1&#45;&gt;Node20</title>
<g id="a_edge37_Node000001_Node000020"><a xlink:title=" ">
<path fill="none" stroke="#63b8ff" d="M33.67,-288.93C51.9,-251.58 118.43,-115.27 142.9,-65.15"/>
<polygon fill="#63b8ff" stroke="#63b8ff" points="146.08,-66.6 147.32,-56.08 139.79,-63.53 146.08,-66.6"/>
</a>
</g>
</g>
<!-- Node4 -->
<g id="Node000004" class="node">
<title>Node4</title>
<g id="a_Node000004"><a xlink:href="update__objects_8c.html#a92856990c4ca5fba1b8e0c61ca832c27" target="_top" xlink:title=" ">
<polygon fill="white" stroke="#666666" points="534,-356 406,-356 406,-337 534,-337 534,-356"/>
<text text-anchor="middle" x="470" y="-344" font-family="Helvetica,sans-Serif" font-size="10.00">find_unused_obj_index</text>
</a>
</g>
</g>
<!-- Node3&#45;&gt;Node4 -->
<g id="edge3_Node000003_Node000004" class="edge">
<title>Node3&#45;&gt;Node4</title>
<g id="a_edge3_Node000003_Node000004"><a xlink:title=" ">
<path fill="none" stroke="#63b8ff" d="M183.58,-399.13C206.78,-406.49 237.2,-415.67 250,-417.5 302.8,-425.04 319.23,-433.82 370,-417.5 403,-406.89 434.33,-380.76 452.59,-363.34"/>
<polygon fill="#63b8ff" stroke="#63b8ff" points="455.35,-365.54 460.03,-356.03 450.44,-360.54 455.35,-365.54"/>
</a>
</g>
</g>
<!-- Node5&#45;&gt;Node4 -->
<g id="edge5_Node000005_Node000004" class="edge">
<title>Node5&#45;&gt;Node4</title>
<g id="a_edge5_Node000005_Node000004"><a xlink:title=" ">
<path fill="none" stroke="#63b8ff" d="M172.65,-191.85C212.99,-172.48 309.56,-134.33 370,-178.5 412.55,-209.6 377.08,-247.43 406,-291.5 416.32,-307.23 432.34,-321.13 445.64,-331.02"/>
<polygon fill="#63b8ff" stroke="#63b8ff" points="443.73,-333.96 453.9,-336.92 447.8,-328.26 443.73,-333.96"/>
</a>
</g>
</g>
<!-- Node6 -->
<g id="Node000006" class="node">
<title>Node6</title>
<g id="a_Node000006"><a xlink:href="code__8006E9C0_8c.html#afef0314f6f435d008ed32c2aa1e2fed0" target="_top" xlink:title=" ">
<polygon fill="white" stroke="#666666" points="356,-206 264,-206 264,-187 356,-187 356,-206"/>
<text text-anchor="middle" x="310" y="-194" font-family="Helvetica,sans-Serif" font-size="10.00">func_8007055C</text>
</a>
</g>
</g>
<!-- Node5&#45;&gt;Node6 -->
<g id="edge6_Node000005_Node000006" class="edge">
<title>Node5&#45;&gt;Node6</title>
<g id="a_edge6_Node000005_Node000006"><a xlink:title=" ">
<path fill="none" stroke="#63b8ff" d="M210.84,-199.67C224.74,-199.22 239.61,-198.74 253.46,-198.29"/>
<polygon fill="#63b8ff" stroke="#63b8ff" points="253.93,-201.78 263.81,-197.96 253.71,-194.78 253.93,-201.78"/>
</a>
</g>
</g>
<!-- Node9 -->
<g id="Node000009" class="node">
<title>Node9</title>
<g id="a_Node000009"><a xlink:href="save_8c.html#a590a89e6ed89945271c4289d6cadf64e" target="_top" xlink:title=" ">
<polygon fill="white" stroke="#666666" points="356,-93 264,-93 264,-74 356,-74 356,-93"/>
<text text-anchor="middle" x="310" y="-81" font-family="Helvetica,sans-Serif" font-size="10.00">func_800B4E24</text>
</a>
</g>
</g>
<!-- Node5&#45;&gt;Node9 -->
<g id="edge9_Node000005_Node000009" class="edge">
<title>Node5&#45;&gt;Node9</title>
<g id="a_edge9_Node000005_Node000009"><a xlink:title=" ">
<path fill="none" stroke="#63b8ff" d="M160.51,-191.97C174.53,-172.16 209.61,-126.32 250,-101.5 252.65,-99.87 255.46,-98.38 258.36,-97.02"/>
<polygon fill="#63b8ff" stroke="#63b8ff" points="259.94,-100.15 267.83,-93.08 257.25,-93.69 259.94,-100.15"/>
</a>
</g>
</g>
<!-- Node12 -->
<g id="Node000012" class="node">
<title>Node12</title>
<g id="a_Node000012"><a xlink:href="save_8c.html#aeb6bf308b677f5d69746807a3404ed49" target="_top" xlink:title=" ">
<polygon fill="white" stroke="#666666" points="356,-130 264,-130 264,-111 356,-111 356,-130"/>
<text text-anchor="middle" x="310" y="-118" font-family="Helvetica,sans-Serif" font-size="10.00">func_800B4F2C</text>
</a>
</g>
</g>
<!-- Node5&#45;&gt;Node12 -->
<g id="edge12_Node000005_Node000012" class="edge">
<title>Node5&#45;&gt;Node12</title>
<g id="a_edge12_Node000005_Node000012"><a xlink:title=" ">
<path fill="none" stroke="#63b8ff" d="M168.58,-191.91C187.07,-179.96 220.14,-159.33 250,-144.5 257.53,-140.76 265.8,-137.12 273.7,-133.86"/>
<polygon fill="#63b8ff" stroke="#63b8ff" points="275.11,-137.06 283.07,-130.08 272.49,-130.57 275.11,-137.06"/>
</a>
</g>
</g>
<!-- Node13 -->
<g id="Node000013" class="node">
<title>Node13</title>
<g id="a_Node000013"><a xlink:href="code__8006E9C0_8c.html#a95bd792f4507dd26cf251c980bd9214b" target="_top" xlink:title=" ">
<polygon fill="white" stroke="#666666" points="362.5,-282 257.5,-282 257.5,-263 362.5,-263 362.5,-282"/>
<text text-anchor="middle" x="310" y="-270" font-family="Helvetica,sans-Serif" font-size="10.00">init_course_object</text>
</a>
</g>
</g>
<!-- Node5&#45;&gt;Node13 -->
<g id="edge15_Node000005_Node000013" class="edge">
<title>Node5&#45;&gt;Node13</title>
<g id="a_edge15_Node000005_Node000013"><a xlink:title=" ">
<path fill="none" stroke="#63b8ff" d="M177.78,-211.05C188.86,-215.59 202.17,-221.17 214,-226.5 236.63,-236.68 261.89,-248.96 280.68,-258.27"/>
<polygon fill="#63b8ff" stroke="#63b8ff" points="279.35,-261.52 289.86,-262.84 282.47,-255.25 279.35,-261.52"/>
</a>
</g>
</g>
<!-- Node15 -->
<g id="Node000015" class="node">
<title>Node15</title>
<g id="a_Node000015"><a xlink:href="code__8006E9C0_8c.html#a7fd371a62513a311ab8903e23511dc9b" target="_top" xlink:title=" ">
<polygon fill="white" stroke="#666666" points="361.5,-356 258.5,-356 258.5,-337 361.5,-337 361.5,-356"/>
<text text-anchor="middle" x="310" y="-344" font-family="Helvetica,sans-Serif" font-size="10.00">init_item_window</text>
</a>
</g>
</g>
<!-- Node5&#45;&gt;Node15 -->
<g id="edge17_Node000005_Node000015" class="edge">
<title>Node5&#45;&gt;Node15</title>
<g id="a_edge17_Node000005_Node000015"><a xlink:title=" ">
<path fill="none" stroke="#63b8ff" d="M190.66,-211.13C199.2,-214.8 207.64,-219.78 214,-226.5 247.04,-261.42 215.28,-295.25 250,-328.5 251.11,-329.56 252.28,-330.57 253.51,-331.51"/>
<polygon fill="#63b8ff" stroke="#63b8ff" points="251.87,-334.61 262.21,-336.91 255.56,-328.67 251.87,-334.61"/>
</a>
</g>
</g>
<!-- Node16 -->
<g id="Node000016" class="node">
<title>Node16</title>
<g id="a_Node000016"><a xlink:href="code__8006E9C0_8c.html#ac9869b321dfbda91715daf48a65b2075" target="_top" xlink:title=" ">
<polygon fill="white" stroke="#666666" points="370,-319 250,-319 250,-300 370,-300 370,-319"/>
<text text-anchor="middle" x="310" y="-307" font-family="Helvetica,sans-Serif" font-size="10.00">init_object_list_index</text>
</a>
</g>
</g>
<!-- Node5&#45;&gt;Node16 -->
<g id="edge18_Node000005_Node000016" class="edge">
<title>Node5&#45;&gt;Node16</title>
<g id="a_edge18_Node000005_Node000016"><a xlink:title=" ">
<path fill="none" stroke="#63b8ff" d="M188.04,-211.11C197.2,-214.86 206.6,-219.88 214,-226.5 238.61,-248.52 224.33,-270.72 250,-291.5 251.59,-292.79 253.28,-293.99 255.03,-295.1"/>
<polygon fill="#63b8ff" stroke="#63b8ff" points="253.78,-298.4 264.26,-299.97 257.05,-292.21 253.78,-298.4"/>
</a>
</g>
</g>
<!-- Node7 -->
<g id="Node000007" class="node">
<title>Node7</title>
<g id="a_Node000007"><a xlink:href="Game_8cpp.html#a011d7e2f1ff6949f70023c2f53091010" target="_top" xlink:title=" ">
<polygon fill="white" stroke="#666666" points="513,-224 427,-224 427,-205 513,-205 513,-224"/>
<text text-anchor="middle" x="470" y="-212" font-family="Helvetica,sans-Serif" font-size="10.00">CM_InitClouds</text>
</a>
</g>
</g>
<!-- Node6&#45;&gt;Node7 -->
<g id="edge7_Node000006_Node000007" class="edge">
<title>Node6&#45;&gt;Node7</title>
<g id="a_edge7_Node000006_Node000007"><a xlink:title=" ">
<path fill="none" stroke="#63b8ff" d="M356.28,-201.66C375.22,-203.82 397.36,-206.34 416.97,-208.57"/>
<polygon fill="#63b8ff" stroke="#63b8ff" points="416.63,-212.06 426.97,-209.71 417.43,-205.1 416.63,-212.06"/>
</a>
</g>
</g>
<!-- Node8 -->
<g id="Node000008" class="node">
<title>Node8</title>
<g id="a_Node000008"><a xlink:href="effects_8c.html#a39f746571de71a6f7dc193320afc377c" target="_top" xlink:title=" ">
<polygon fill="white" stroke="#666666" points="516,-187 424,-187 424,-168 516,-168 516,-187"/>
<text text-anchor="middle" x="470" y="-175" font-family="Helvetica,sans-Serif" font-size="10.00">func_8008C23C</text>
</a>
</g>
</g>
<!-- Node6&#45;&gt;Node8 -->
<g id="edge8_Node000006_Node000008" class="edge">
<title>Node6&#45;&gt;Node8</title>
<g id="a_edge8_Node000006_Node000008"><a xlink:title=" ">
<path fill="none" stroke="#63b8ff" d="M356.28,-191.06C374.29,-188.89 395.18,-186.38 414.04,-184.11"/>
<polygon fill="#63b8ff" stroke="#63b8ff" points="414.48,-187.58 423.99,-182.91 413.64,-180.63 414.48,-187.58"/>
</a>
</g>
</g>
<!-- Node10 -->
<g id="Node000010" class="node">
<title>Node10</title>
<g id="a_Node000010"><a xlink:href="save_8c.html#a5b764da80aeb63b24b59906b4c9aa000" target="_top" xlink:title=" ">
<polygon fill="white" stroke="#666666" points="516.5,-93 423.5,-93 423.5,-74 516.5,-74 516.5,-93"/>
<text text-anchor="middle" x="470" y="-81" font-family="Helvetica,sans-Serif" font-size="10.00">func_800B4DF4</text>
</a>
</g>
</g>
<!-- Node9&#45;&gt;Node10 -->
<g id="edge10_Node000009_Node000010" class="edge">
<title>Node9&#45;&gt;Node10</title>
<g id="a_edge10_Node000009_Node000010"><a xlink:title=" ">
<path fill="none" stroke="#63b8ff" d="M356.28,-83.5C374.05,-83.5 394.63,-83.5 413.3,-83.5"/>
<polygon fill="#63b8ff" stroke="#63b8ff" points="413.44,-87 423.44,-83.5 413.44,-80 413.44,-87"/>
</a>
</g>
</g>
<!-- Node11 -->
<g id="Node000011" class="node">
<title>Node11</title>
<g id="a_Node000011"><a xlink:href="Game_8cpp.html#a0499ce6f7f2cd1b56b0674de6c0cc813" target="_top" xlink:title=" ">
<polygon fill="white" stroke="#666666" points="510,-130 430,-130 430,-111 510,-111 510,-130"/>
<text text-anchor="middle" x="470" y="-118" font-family="Helvetica,sans-Serif" font-size="10.00">GetCupIndex</text>
</a>
</g>
</g>
<!-- Node9&#45;&gt;Node11 -->
<g id="edge11_Node000009_Node000011" class="edge">
<title>Node9&#45;&gt;Node11</title>
<g id="a_edge11_Node000009_Node000011"><a xlink:title=" ">
<path fill="none" stroke="#63b8ff" d="M351.69,-93.03C372.54,-97.91 398.09,-103.9 420.02,-109.03"/>
<polygon fill="#63b8ff" stroke="#63b8ff" points="419.28,-112.45 429.81,-111.32 420.87,-105.64 419.28,-112.45"/>
</a>
</g>
</g>
<!-- Node12&#45;&gt;Node10 -->
<g id="edge13_Node000012_Node000010" class="edge">
<title>Node12&#45;&gt;Node10</title>
<g id="a_edge13_Node000012_Node000010"><a xlink:title=" ">
<path fill="none" stroke="#63b8ff" d="M351.69,-110.97C371.97,-106.22 396.71,-100.43 418.22,-95.39"/>
<polygon fill="#63b8ff" stroke="#63b8ff" points="419.24,-98.75 428.17,-93.06 417.64,-91.93 419.24,-98.75"/>
</a>
</g>
</g>
<!-- Node12&#45;&gt;Node11 -->
<g id="edge14_Node000012_Node000011" class="edge">
<title>Node12&#45;&gt;Node11</title>
<g id="a_edge14_Node000012_Node000011"><a xlink:title=" ">
<path fill="none" stroke="#63b8ff" d="M356.28,-120.5C376.08,-120.5 399.36,-120.5 419.61,-120.5"/>
<polygon fill="#63b8ff" stroke="#63b8ff" points="419.88,-124 429.88,-120.5 419.88,-117 419.88,-124"/>
</a>
</g>
</g>
<!-- Node14 -->
<g id="Node000014" class="node">
<title>Node14</title>
<g id="a_Node000014"><a xlink:href="Game_8cpp.html#a7a934ac28ad6603a5e86c21fea7854be" target="_top" xlink:title=" ">
<polygon fill="white" stroke="#666666" points="532,-282 408,-282 408,-263 532,-263 532,-282"/>
<text text-anchor="middle" x="470" y="-270" font-family="Helvetica,sans-Serif" font-size="10.00">CM_InitCourseObjects</text>
</a>
</g>
</g>
<!-- Node13&#45;&gt;Node14 -->
<g id="edge16_Node000013_Node000014" class="edge">
<title>Node13&#45;&gt;Node14</title>
<g id="a_edge16_Node000013_Node000014"><a xlink:title=" ">
<path fill="none" stroke="#63b8ff" d="M362.74,-272.5C373.87,-272.5 385.83,-272.5 397.57,-272.5"/>
<polygon fill="#63b8ff" stroke="#63b8ff" points="397.8,-276 407.8,-272.5 397.8,-269 397.8,-276"/>
</a>
</g>
</g>
<!-- Node16&#45;&gt;Node4 -->
<g id="edge19_Node000016_Node000004" class="edge">
<title>Node16&#45;&gt;Node4</title>
<g id="a_edge19_Node000016_Node000004"><a xlink:title=" ">
<path fill="none" stroke="#63b8ff" d="M351.69,-319.03C371.97,-323.78 396.71,-329.57 418.22,-334.61"/>
<polygon fill="#63b8ff" stroke="#63b8ff" points="417.64,-338.07 428.17,-336.94 419.24,-331.25 417.64,-338.07"/>
</a>
</g>
</g>
<!-- Node17&#45;&gt;Node4 -->
<g id="edge21_Node000017_Node000004" class="edge">
<title>Node17&#45;&gt;Node4</title>
<g id="a_edge21_Node000017_Node000004"><a xlink:title=" ">
<path fill="none" stroke="#63b8ff" d="M194.04,-361.55C200.84,-364.56 207.73,-367.92 214,-371.5 231.36,-381.42 231.03,-392.18 250,-398.5 300.6,-415.37 318.22,-411.27 370,-398.5 398.64,-391.44 428.16,-374.44 447.42,-361.79"/>
<polygon fill="#63b8ff" stroke="#63b8ff" points="449.43,-364.66 455.76,-356.16 445.51,-358.86 449.43,-364.66"/>
</a>
</g>
</g>
<!-- Node17&#45;&gt;Node13 -->
<g id="edge22_Node000017_Node000013" class="edge">
<title>Node17&#45;&gt;Node13</title>
<g id="a_edge22_Node000017_Node000013"><a xlink:title=" ">
<path fill="none" stroke="#63b8ff" d="M196.81,-331.41C202.74,-328.74 208.63,-325.76 214,-322.5 232.05,-311.54 231.59,-301.83 250,-291.5 253.75,-289.4 257.76,-287.49 261.87,-285.76"/>
<polygon fill="#63b8ff" stroke="#63b8ff" points="263.45,-288.91 271.54,-282.07 260.95,-282.37 263.45,-288.91"/>
</a>
</g>
</g>
<!-- Node17&#45;&gt;Node15 -->
<g id="edge23_Node000017_Node000015" class="edge">
<title>Node17&#45;&gt;Node15</title>
<g id="a_edge23_Node000017_Node000015"><a xlink:title=" ">
<path fill="none" stroke="#63b8ff" d="M208.65,-346.5C221.44,-346.5 235.14,-346.5 248.19,-346.5"/>
<polygon fill="#63b8ff" stroke="#63b8ff" points="248.47,-350 258.47,-346.5 248.47,-343 248.47,-350"/>
</a>
</g>
</g>
<!-- Node17&#45;&gt;Node16 -->
<g id="edge24_Node000017_Node000016" class="edge">
<title>Node17&#45;&gt;Node16</title>
<g id="a_edge24_Node000017_Node000016"><a xlink:title=" ">
<path fill="none" stroke="#63b8ff" d="M208.65,-333.46C225.1,-329.53 243.07,-325.24 259.2,-321.39"/>
<polygon fill="#63b8ff" stroke="#63b8ff" points="260.05,-324.78 268.97,-319.06 258.43,-317.97 260.05,-324.78"/>
</a>
</g>
</g>
<!-- Node18&#45;&gt;Node4 -->
<g id="edge26_Node000018_Node000004" class="edge">
<title>Node18&#45;&gt;Node4</title>
<g id="a_edge26_Node000018_Node000004"><a xlink:title=" ">
<path fill="none" stroke="#63b8ff" d="M198.89,-313.56C204.2,-316.17 209.37,-319.14 214,-322.5 234.18,-337.13 227.42,-354.95 250,-365.5 310.6,-393.8 390.86,-374.45 435.46,-359.43"/>
<polygon fill="#63b8ff" stroke="#63b8ff" points="436.66,-362.72 444.95,-356.11 434.35,-356.11 436.66,-362.72"/>
</a>
</g>
</g>
<!-- Node18&#45;&gt;Node6 -->
<g id="edge27_Node000018_Node000006" class="edge">
<title>Node18&#45;&gt;Node6</title>
<g id="a_edge27_Node000018_Node000006"><a xlink:title=" ">
<path fill="none" stroke="#63b8ff" d="M196.42,-283.44C202.47,-280.75 208.5,-277.75 214,-274.5 243.79,-256.89 273.96,-230.29 292.07,-213.16"/>
<polygon fill="#63b8ff" stroke="#63b8ff" points="294.72,-215.47 299.5,-206.02 289.87,-210.42 294.72,-215.47"/>
</a>
</g>
</g>
<!-- Node18&#45;&gt;Node13 -->
<g id="edge28_Node000018_Node000013" class="edge">
<title>Node18&#45;&gt;Node13</title>
<g id="a_edge28_Node000018_Node000013"><a xlink:title=" ">
<path fill="none" stroke="#63b8ff" d="M210.84,-288.97C222.72,-286.97 235.3,-284.86 247.34,-282.84"/>
<polygon fill="#63b8ff" stroke="#63b8ff" points="248.02,-286.28 257.31,-281.17 246.87,-279.37 248.02,-286.28"/>
</a>
</g>
</g>
<!-- Node18&#45;&gt;Node15 -->
<g id="edge29_Node000018_Node000015" class="edge">
<title>Node18&#45;&gt;Node15</title>
<g id="a_edge29_Node000018_Node000015"><a xlink:title=" ">
<path fill="none" stroke="#63b8ff" d="M201.83,-313.52C217.21,-318.33 234.32,-323.66 250,-328.5 255.7,-330.26 261.72,-332.11 267.64,-333.92"/>
<polygon fill="#63b8ff" stroke="#63b8ff" points="266.86,-337.34 277.45,-336.92 268.91,-330.65 266.86,-337.34"/>
</a>
</g>
</g>
<!-- Node18&#45;&gt;Node16 -->
<g id="edge30_Node000018_Node000016" class="edge">
<title>Node18&#45;&gt;Node16</title>
<g id="a_edge30_Node000018_Node000016"><a xlink:title=" ">
<path fill="none" stroke="#63b8ff" d="M210.84,-302.53C220.26,-303.2 230.13,-303.9 239.82,-304.59"/>
<polygon fill="#63b8ff" stroke="#63b8ff" points="239.61,-308.08 249.83,-305.3 240.1,-301.1 239.61,-308.08"/>
</a>
</g>
</g>
<!-- Node19&#45;&gt;Node4 -->
<g id="edge32_Node000019_Node000004" class="edge">
<title>Node19&#45;&gt;Node4</title>
<g id="a_edge32_Node000019_Node000004"><a xlink:title=" ">
<path fill="none" stroke="#63b8ff" d="M210.61,-240.14C255.7,-234.52 319.41,-232.58 370,-254.5 391.05,-263.62 389.34,-275.72 406,-291.5 420.18,-304.93 436.85,-319.44 449.49,-330.18"/>
<polygon fill="#63b8ff" stroke="#63b8ff" points="447.24,-332.86 457.14,-336.64 451.76,-327.51 447.24,-332.86"/>
</a>
</g>
</g>
<!-- Node19&#45;&gt;Node6 -->
<g id="edge33_Node000019_Node000006" class="edge">
<title>Node19&#45;&gt;Node6</title>
<g id="a_edge33_Node000019_Node000006"><a xlink:title=" ">
<path fill="none" stroke="#63b8ff" d="M197.18,-235.46C220.74,-227.25 249.61,-217.19 272.11,-209.35"/>
<polygon fill="#63b8ff" stroke="#63b8ff" points="273.36,-212.62 281.65,-206.03 271.05,-206.01 273.36,-212.62"/>
</a>
</g>
</g>
<!-- Node19&#45;&gt;Node13 -->
<g id="edge34_Node000019_Node000013" class="edge">
<title>Node19&#45;&gt;Node13</title>
<g id="a_edge34_Node000019_Node000013"><a xlink:title=" ">
<path fill="none" stroke="#63b8ff" d="M210.84,-258.57C222.72,-260.25 235.3,-262.04 247.34,-263.75"/>
<polygon fill="#63b8ff" stroke="#63b8ff" points="246.91,-267.22 257.31,-265.16 247.9,-260.29 246.91,-267.22"/>
</a>
</g>
</g>
<!-- Node19&#45;&gt;Node15 -->
<g id="edge35_Node000019_Node000015" class="edge">
<title>Node19&#45;&gt;Node15</title>
<g id="a_edge35_Node000019_Node000015"><a xlink:title=" ">
<path fill="none" stroke="#63b8ff" d="M200.18,-265.57C205.1,-268.14 209.82,-271.11 214,-274.5 236.4,-292.67 226.85,-311.29 250,-328.5 251.85,-329.88 253.81,-331.15 255.84,-332.32"/>
<polygon fill="#63b8ff" stroke="#63b8ff" points="254.61,-335.62 265.13,-336.88 257.7,-329.34 254.61,-335.62"/>
</a>
</g>
</g>
<!-- Node19&#45;&gt;Node16 -->
<g id="edge36_Node000019_Node000016" class="edge">
<title>Node19&#45;&gt;Node16</title>
<g id="a_edge36_Node000019_Node000016"><a xlink:title=" ">
<path fill="none" stroke="#63b8ff" d="M192.55,-265.52C199.71,-268.42 207.11,-271.5 214,-274.5 230.22,-281.57 233.49,-285.12 250,-291.5 254.81,-293.36 259.9,-295.15 264.99,-296.84"/>
<polygon fill="#63b8ff" stroke="#63b8ff" points="264.11,-300.24 274.71,-299.96 266.25,-293.57 264.11,-300.24"/>
</a>
</g>
</g>
<!-- Node21 -->
<g id="Node000021" class="node">
<title>Node21</title>
<g id="a_Node000021"><a xlink:href="code__8006E9C0_8c.html#a8a550ccbf88c5850622c9ce854e3bc07" target="_top" xlink:title=" ">
<polygon fill="white" stroke="#666666" points="358,-19 262,-19 262,0 358,0 358,-19"/>
<text text-anchor="middle" x="310" y="-7" font-family="Helvetica,sans-Serif" font-size="10.00">clear_object_list</text>
</a>
</g>
</g>
<!-- Node20&#45;&gt;Node21 -->
<g id="edge38_Node000020_Node000021" class="edge">
<title>Node20&#45;&gt;Node21</title>
<g id="a_edge38_Node000020_Node000021"><a xlink:title=" ">
<path fill="none" stroke="#63b8ff" d="M193.92,-36.97C213.82,-32.22 238.08,-26.43 259.19,-21.39"/>
<polygon fill="#63b8ff" stroke="#63b8ff" points="260.04,-24.79 268.95,-19.06 258.41,-17.98 260.04,-24.79"/>
</a>
</g>
</g>
<!-- Node22 -->
<g id="Node000022" class="node">
<title>Node22</title>
<g id="a_Node000022"><a xlink:href="code__8006E9C0_8c.html#a2e7b50a4e958c5bd727b199ced2511e5" target="_top" xlink:title=" ">
<polygon fill="white" stroke="#666666" points="356,-56 264,-56 264,-37 356,-37 356,-56"/>
<text text-anchor="middle" x="310" y="-44" font-family="Helvetica,sans-Serif" font-size="10.00">func_8006EB10</text>
</a>
</g>
</g>
<!-- Node20&#45;&gt;Node22 -->
<g id="edge39_Node000020_Node000022" class="edge">
<title>Node20&#45;&gt;Node22</title>
<g id="a_edge39_Node000020_Node000022"><a xlink:title=" ">
<path fill="none" stroke="#63b8ff" d="M214.37,-46.5C227.38,-46.5 241.07,-46.5 253.87,-46.5"/>
<polygon fill="#63b8ff" stroke="#63b8ff" points="253.92,-50 263.92,-46.5 253.92,-43 253.92,-50"/>
</a>
</g>
</g>
</g>
</svg>

<g id="navigator" transform="translate(0 0)" fill="#404254">
  <rect fill="#f2f5e9" fill-opacity="0.5" stroke="#606060" stroke-width=".5" x="0" y="0" width="60" height="60"/>
  <use id="zoomplus" xlink:href="#zoomPlus" x="17" y="9" onmousedown="handleZoom(evt,'in')"/>
  <use id="zoomminus" xlink:href="#zoomMin" x="42" y="9" onmousedown="handleZoom(evt,'out')"/>
  <use id="reset" xlink:href="#resetDef" x="30" y="36" onmousedown="handleReset()"/>
   <use id="arrowup" xlink:href="#arrowUp" x="0" y="0" onmousedown="handlePan(0,-1)"/>
  <use id="arrowright" xlink:href="#arrowRight" x="0" y="0" onmousedown="handlePan(1,0)"/>
  <use id="arrowdown" xlink:href="#arrowDown" x="0" y="0" onmousedown="handlePan(0,1)"/>
  <use id="arrowleft" xlink:href="#arrowLeft" x="0" y="0" onmousedown="handlePan(-1,0)"/>
</g>
<svg viewBox="0 0 15 15" width="100%" height="30px" preserveAspectRatio="xMaxYMin meet">
 <g id="arrow_out" transform="scale(0.3 0.3)">
  <a xlink:href="code__8006E9C0_8h_a47667a5a47fd4ca740865e963ce795c9_cgraph_org.svg" target="_base">
   <rect id="button" ry="5" rx="5" y="6" x="6" height="38" width="38"
        fill="#f2f5e9" fill-opacity="0.5" stroke="#606060" stroke-width="1.0"/>
   <path id="arrow"
     d="M 11.500037,31.436501 C 11.940474,20.09759 22.043105,11.32322 32.158766,21.979434 L 37.068811,17.246167 C 37.068811,17.246167 37.088388,32 37.088388,32 L 22.160133,31.978069 C 22.160133,31.978069 26.997745,27.140456 26.997745,27.140456 C 18.528582,18.264221 13.291696,25.230495 11.500037,31.436501 z"
     style="fill:#404040;"/>
  </a>
 </g>
</svg>

<style type='text/css'>
<![CDATA[
[data-mouse-over-selected='false'] { opacity: 0.7; }
[data-mouse-over-selected='true']  { opacity: 1.0; }
]]>
</style>
<script type="application/ecmascript"><![CDATA[
document.addEventListener('DOMContentLoaded', (event) => {
  highlightEdges();
  highlightAdjacentNodes();
});
]]></script>
</svg>
