<?xml version="1.0" encoding="UTF-8" standalone="no"?>
<!DOCTYPE svg PUBLIC "-//W3C//DTD SVG 1.1//EN"
 "http://www.w3.org/Graphics/SVG/1.1/DTD/svg11.dtd">
<!-- Generated by graphviz version 2.43.0 (0)
 -->
<!-- Title: init_course_path_point Pages: 1 -->
<!--zoomable 482 -->

<svg id="main" version="1.1" xmlns="http://www.w3.org/2000/svg" xmlns:xlink="http://www.w3.org/1999/xlink" xml:space="preserve" onload="init(evt)">

<style type="text/css"><![CDATA[
.node, .edge {opacity: 0.7;}
.node.selected, .edge.selected {opacity: 1;}
.edge:hover path { stroke: red; }
.edge:hover polygon { stroke: red; fill: red; }
]]></style>

<defs>
  <circle id="rim" cx="0" cy="0" r="7"/>
  <circle id="rim2" cx="0" cy="0" r="3.5"/>
  <g id="zoomPlus">
    <use xlink:href="#rim" fill="#404040"><set attributeName="fill" to="#808080" begin="zoomplus.mouseover" end="zoomplus.mouseout"/></use>
    <path d="M-4,0h8M0,-4v8" fill="none" stroke="white" stroke-width="1.5" pointer-events="none"/>
  </g>
  <g id="zoomMin">
    <use xlink:href="#rim" fill="#404040"><set attributeName="fill" to="#808080" begin="zoomminus.mouseover" end="zoomminus.mouseout"/></use>
    <path d="M-4,0h8" fill="none" stroke="white" stroke-width="1.5" pointer-events="none"/>
  </g>
  <g id="arrowUp" transform="translate(30 24)">
    <use xlink:href="#rim"/>
    <path pointer-events="none" fill="none" stroke="white" stroke-width="1.5" d="M0,-3.0v7 M-2.5,-0.5L0,-3.0L2.5,-0.5"/>
  </g>
  <g id="arrowRight" transform="rotate(90) translate(36 -43)">
    <use xlink:href="#rim"/>
    <path pointer-events="none" fill="none" stroke="white" stroke-width="1.5" d="M0,-3.0v7 M-2.5,-0.5L0,-3.0L2.5,-0.5"/>
  </g>
  <g id="arrowDown" transform="rotate(180) translate(-30 -48)">
    <use xlink:href="#rim"/>
    <path pointer-events="none" fill="none" stroke="white" stroke-width="1.5" d="M0,-3.0v7 M-2.5,-0.5L0,-3.0L2.5,-0.5"/>
  </g>
  <g id="arrowLeft" transform="rotate(270) translate(-36 17)">
    <use xlink:href="#rim"/>
    <path pointer-events="none" fill="none" stroke="white" stroke-width="1.5" d="M0,-3.0v7 M-2.5,-0.5L0,-3.0L2.5,-0.5"/>
  </g>
  <g id="resetDef">
    <use xlink:href="#rim2" fill="#404040"><set attributeName="fill" to="#808080" begin="reset.mouseover" end="reset.mouseout"/></use>
  </g>
</defs>
<script type="application/ecmascript">
var viewWidth = 1004;
var viewHeight = 482;
var sectionId = 'dynsection-178';
</script>
<script type="application/ecmascript" xlink:href="svg.min.js"/>
<svg id="graph" class="graph">
<g id="viewport">
<title>init_course_path_point</title>
<!-- Node1 -->
<g id="Node000001" class="node">
<title>Node1</title>
<g id="a_Node000001"><a xlink:title=" ">
<polygon fill="#999999" stroke="#666666" points="127,-221 0,-221 0,-202 127,-202 127,-221"/>
<text text-anchor="middle" x="63.5" y="-209" font-family="Helvetica,sans-Serif" font-size="10.00">init_course_path_point</text>
</a>
</g>
</g>
<!-- Node2 -->
<g id="Node000002" class="node">
<title>Node2</title>
<g id="a_Node000002"><a xlink:href="code__80005FD0_8c.html#afea6c2109ebb5063725c4ad25fb59280" target="_top" xlink:title=" ">
<polygon fill="white" stroke="#666666" points="282.5,-430 168.5,-430 168.5,-411 282.5,-411 282.5,-430"/>
<text text-anchor="middle" x="225.5" y="-418" font-family="Helvetica,sans-Serif" font-size="10.00">analyse_angle_path</text>
</a>
</g>
</g>
<!-- Node1&#45;&gt;Node2 -->
<g id="edge1_Node000001_Node000002" class="edge">
<title>Node1&#45;&gt;Node2</title>
<g id="a_edge1_Node000001_Node000002"><a xlink:title=" ">
<path fill="none" stroke="#63b8ff" d="M67,-221.05C75.35,-251.13 105.08,-345 163,-396.5 167.5,-400.5 172.74,-403.87 178.23,-406.7"/>
<polygon fill="#63b8ff" stroke="#63b8ff" points="177.07,-410.01 187.62,-410.96 179.96,-403.64 177.07,-410.01"/>
</a>
</g>
</g>
<!-- Node7 -->
<g id="Node000007" class="node">
<title>Node7</title>
<g id="a_Node000007"><a xlink:href="Game_8cpp.html#a3416a195a0c7be6ec3783bbf4842dc3e" target="_top" xlink:title=" ">
<polygon fill="white" stroke="#666666" points="618.5,-335 536.5,-335 536.5,-316 618.5,-316 618.5,-335"/>
<text text-anchor="middle" x="577.5" y="-323" font-family="Helvetica,sans-Serif" font-size="10.00">CM_GetProps</text>
</a>
</g>
</g>
<!-- Node1&#45;&gt;Node7 -->
<g id="edge19_Node000001_Node000007" class="edge">
<title>Node1&#45;&gt;Node7</title>
<g id="a_edge19_Node000001_Node000007"><a xlink:title=" ">
<path fill="none" stroke="#63b8ff" d="M69.54,-221.33C81.89,-244.26 116.1,-301.17 163,-325.5 284.81,-388.71 455.28,-357.51 533.81,-337.66"/>
<polygon fill="#63b8ff" stroke="#63b8ff" points="535.02,-340.96 543.82,-335.07 533.26,-334.19 535.02,-340.96"/>
</a>
</g>
</g>
<!-- Node8 -->
<g id="Node000008" class="node">
<title>Node8</title>
<g id="a_Node000008"><a xlink:href="code__80005FD0_8c.html#a951fa5641a19ff332341ce056f7ea0a7" target="_top" xlink:title=" ">
<polygon fill="white" stroke="#666666" points="285.5,-203 165.5,-203 165.5,-184 285.5,-184 285.5,-203"/>
<text text-anchor="middle" x="225.5" y="-191" font-family="Helvetica,sans-Serif" font-size="10.00">analyze_curved_path</text>
</a>
</g>
</g>
<!-- Node1&#45;&gt;Node8 -->
<g id="edge7_Node000001_Node000008" class="edge">
<title>Node1&#45;&gt;Node8</title>
<g id="a_edge7_Node000001_Node000008"><a xlink:title=" ">
<path fill="none" stroke="#63b8ff" d="M127.28,-204.44C136.47,-203.4 145.98,-202.33 155.3,-201.29"/>
<polygon fill="#63b8ff" stroke="#63b8ff" points="155.76,-204.76 165.3,-200.16 154.97,-197.8 155.76,-204.76"/>
</a>
</g>
</g>
<!-- Node10 -->
<g id="Node000010" class="node">
<title>Node10</title>
<g id="a_Node000010"><a xlink:href="code__80005FD0_8c.html#af2f5c3f028965e86705c66f6cd51c680" target="_top" xlink:title=" ">
<polygon fill="white" stroke="#666666" points="288,-316 163,-316 163,-297 288,-297 288,-316"/>
<text text-anchor="middle" x="225.5" y="-304" font-family="Helvetica,sans-Serif" font-size="10.00">analyze_track_section</text>
</a>
</g>
</g>
<!-- Node1&#45;&gt;Node10 -->
<g id="edge9_Node000001_Node000010" class="edge">
<title>Node1&#45;&gt;Node10</title>
<g id="a_edge9_Node000001_Node000010"><a xlink:title=" ">
<path fill="none" stroke="#63b8ff" d="M75.69,-221.03C93.34,-235.7 129.11,-264.06 163,-282.5 170.3,-286.47 178.4,-290.12 186.26,-293.31"/>
<polygon fill="#63b8ff" stroke="#63b8ff" points="185.07,-296.6 195.66,-296.96 187.6,-290.08 185.07,-296.6"/>
</a>
</g>
</g>
<!-- Node13 -->
<g id="Node000013" class="node">
<title>Node13</title>
<g id="a_Node000013"><a xlink:href="code__80005FD0_8c.html#a6fd29dd95ab41d9aa3f4a08ac98c9df4" target="_top" xlink:title=" ">
<polygon fill="white" stroke="#666666" points="474,-279 324,-279 324,-260 474,-260 474,-279"/>
<text text-anchor="middle" x="399" y="-267" font-family="Helvetica,sans-Serif" font-size="10.00">calculate_track_boundaries</text>
</a>
</g>
</g>
<!-- Node1&#45;&gt;Node13 -->
<g id="edge14_Node000001_Node000013" class="edge">
<title>Node1&#45;&gt;Node13</title>
<g id="a_edge14_Node000001_Node000013"><a xlink:title=" ">
<path fill="none" stroke="#63b8ff" d="M84.35,-221.08C103.87,-230.04 134.78,-243 163,-249.5 212.24,-260.85 268.62,-265.91 313.82,-268.1"/>
<polygon fill="#63b8ff" stroke="#63b8ff" points="313.72,-271.6 323.87,-268.55 314.04,-264.6 313.72,-271.6"/>
</a>
</g>
</g>
<!-- Node14 -->
<g id="Node000014" class="node">
<title>Node14</title>
<g id="a_Node000014"><a xlink:href="code__80005FD0_8c.html#a1d577f6ac2cae56acf36da0dcc5e21f8" target="_top" xlink:title=" ">
<polygon fill="white" stroke="#666666" points="274.5,-166 176.5,-166 176.5,-147 274.5,-147 274.5,-166"/>
<text text-anchor="middle" x="225.5" y="-154" font-family="Helvetica,sans-Serif" font-size="10.00">clear_path_point</text>
</a>
</g>
</g>
<!-- Node1&#45;&gt;Node14 -->
<g id="edge17_Node000001_Node000014" class="edge">
<title>Node1&#45;&gt;Node14</title>
<g id="a_edge17_Node000001_Node000014"><a xlink:title=" ">
<path fill="none" stroke="#63b8ff" d="M88.61,-201.87C108.44,-194.09 137.35,-183.06 163,-174.5 168.61,-172.63 174.54,-170.76 180.42,-168.97"/>
<polygon fill="#63b8ff" stroke="#63b8ff" points="181.62,-172.26 190.2,-166.05 179.62,-165.56 181.62,-172.26"/>
</a>
</g>
</g>
<!-- Node15 -->
<g id="Node000015" class="node">
<title>Node15</title>
<g id="a_Node000015"><a xlink:href="Game_8cpp.html#a5ec70de650576eadd39003e075efbdc8" target="_top" xlink:title=" ">
<polygon fill="white" stroke="#666666" points="277.5,-129 173.5,-129 173.5,-110 277.5,-110 277.5,-129"/>
<text text-anchor="middle" x="225.5" y="-117" font-family="Helvetica,sans-Serif" font-size="10.00">CM_ClearVehicles</text>
</a>
</g>
</g>
<!-- Node1&#45;&gt;Node15 -->
<g id="edge18_Node000001_Node000015" class="edge">
<title>Node1&#45;&gt;Node15</title>
<g id="a_edge18_Node000001_Node000015"><a xlink:title=" ">
<path fill="none" stroke="#63b8ff" d="M74.59,-201.92C91.55,-186.31 127.43,-155.32 163,-137.5 166.59,-135.7 170.39,-134.05 174.27,-132.55"/>
<polygon fill="#63b8ff" stroke="#63b8ff" points="175.75,-135.73 184,-129.09 173.41,-129.14 175.75,-135.73"/>
</a>
</g>
</g>
<!-- Node16 -->
<g id="Node000016" class="node">
<title>Node16</title>
<g id="a_Node000016"><a xlink:href="code__80005FD0_8c.html#a0355a63eb89c8a358744c372aa1ad12a" target="_top" xlink:title=" ">
<polygon fill="white" stroke="#666666" points="272,-92 179,-92 179,-73 272,-73 272,-92"/>
<text text-anchor="middle" x="225.5" y="-80" font-family="Helvetica,sans-Serif" font-size="10.00">func_8000EEDC</text>
</a>
</g>
</g>
<!-- Node1&#45;&gt;Node16 -->
<g id="edge20_Node000001_Node000016" class="edge">
<title>Node1&#45;&gt;Node16</title>
<g id="a_edge20_Node000001_Node000016"><a xlink:title=" ">
<path fill="none" stroke="#63b8ff" d="M70.33,-201.85C83.84,-180.32 119.48,-128.08 163,-100.5 165.59,-98.86 168.34,-97.36 171.19,-95.99"/>
<polygon fill="#63b8ff" stroke="#63b8ff" points="172.64,-99.18 180.5,-92.07 169.92,-92.72 172.64,-99.18"/>
</a>
</g>
</g>
<!-- Node17 -->
<g id="Node000017" class="node">
<title>Node17</title>
<g id="a_Node000017"><a xlink:href="memory_8c.html#a7e6e89972c484db957ddbd70ba07ed92" target="_top" xlink:title="Returns the address of the next available memory location and updates the memory pointer to reference...">
<polygon fill="white" stroke="#666666" points="280.5,-54.5 170.5,-54.5 170.5,-24.5 280.5,-24.5 280.5,-54.5"/>
<text text-anchor="start" x="178.5" y="-42.5" font-family="Helvetica,sans-Serif" font-size="10.00">get_next_available</text>
<text text-anchor="middle" x="225.5" y="-31.5" font-family="Helvetica,sans-Serif" font-size="10.00">_memory_addr</text>
</a>
</g>
</g>
<!-- Node1&#45;&gt;Node17 -->
<g id="edge21_Node000001_Node000017" class="edge">
<title>Node1&#45;&gt;Node17</title>
<g id="a_edge21_Node000001_Node000017"><a xlink:title=" ">
<path fill="none" stroke="#63b8ff" d="M68.47,-201.71C79.55,-175.6 113.23,-103.57 163,-63.5 164.57,-62.23 166.22,-61.03 167.93,-59.88"/>
<polygon fill="#63b8ff" stroke="#63b8ff" points="170.01,-62.71 176.85,-54.62 166.46,-56.68 170.01,-62.71"/>
</a>
</g>
</g>
<!-- Node18 -->
<g id="Node000018" class="node">
<title>Node18</title>
<g id="a_Node000018"><a xlink:href="code__80005FD0_8c.html#ae18f6f7140f2ee549963a3bc404b159e" target="_top" xlink:title=" ">
<polygon fill="white" stroke="#666666" points="273,-240 178,-240 178,-221 273,-221 273,-240"/>
<text text-anchor="middle" x="225.5" y="-228" font-family="Helvetica,sans-Serif" font-size="10.00">load_track_path</text>
</a>
</g>
</g>
<!-- Node1&#45;&gt;Node18 -->
<g id="edge22_Node000001_Node000018" class="edge">
<title>Node1&#45;&gt;Node18</title>
<g id="a_edge22_Node000001_Node000018"><a xlink:title=" ">
<path fill="none" stroke="#63b8ff" d="M127.28,-218.95C140.54,-220.53 154.47,-222.18 167.5,-223.73"/>
<polygon fill="#63b8ff" stroke="#63b8ff" points="167.39,-227.24 177.74,-224.95 168.22,-220.29 167.39,-227.24"/>
</a>
</g>
</g>
<!-- Node3 -->
<g id="Node000003" class="node">
<title>Node3</title>
<g id="a_Node000003"><a xlink:href="code__80005FD0_8c.html#aff5ef775c3371f5520ef2c4690634e45" target="_top" xlink:title=" ">
<polygon fill="white" stroke="#666666" points="459,-468 339,-468 339,-449 459,-449 459,-468"/>
<text text-anchor="middle" x="399" y="-456" font-family="Helvetica,sans-Serif" font-size="10.00">calculate_angle_path</text>
</a>
</g>
</g>
<!-- Node2&#45;&gt;Node3 -->
<g id="edge2_Node000002_Node000003" class="edge">
<title>Node2&#45;&gt;Node3</title>
<g id="a_edge2_Node000002_Node000003"><a xlink:title=" ">
<path fill="none" stroke="#63b8ff" d="M269.78,-430.09C292.61,-435.15 320.82,-441.4 344.96,-446.75"/>
<polygon fill="#63b8ff" stroke="#63b8ff" points="344.51,-450.23 355.03,-448.98 346.03,-443.4 344.51,-450.23"/>
</a>
</g>
</g>
<!-- Node2&#45;&gt;Node7 -->
<g id="edge6_Node000002_Node000007" class="edge">
<title>Node2&#45;&gt;Node7</title>
<g id="a_edge6_Node000002_Node000007"><a xlink:title=" ">
<path fill="none" stroke="#63b8ff" d="M282.83,-423C334.19,-423.44 411.37,-419.45 474,-396.5 507.11,-384.37 539.58,-358.93 558.83,-342.03"/>
<polygon fill="#63b8ff" stroke="#63b8ff" points="561.37,-344.45 566.46,-335.16 556.68,-339.25 561.37,-344.45"/>
</a>
</g>
</g>
<!-- Node4 -->
<g id="Node000004" class="node">
<title>Node4</title>
<g id="a_Node000004"><a xlink:href="math__util_8c.html#a84cf9d4ec33146a64c230ed4cec56632" target="_top" xlink:title=" ">
<polygon fill="white" stroke="#666666" points="645,-473.5 510,-473.5 510,-443.5 645,-443.5 645,-473.5"/>
<text text-anchor="start" x="518" y="-461.5" font-family="Helvetica,sans-Serif" font-size="10.00">get_angle_between_two</text>
<text text-anchor="middle" x="577.5" y="-450.5" font-family="Helvetica,sans-Serif" font-size="10.00">_vectors</text>
</a>
</g>
</g>
<!-- Node3&#45;&gt;Node4 -->
<g id="edge3_Node000003_Node000004" class="edge">
<title>Node3&#45;&gt;Node4</title>
<g id="a_edge3_Node000003_Node000004"><a xlink:title=" ">
<path fill="none" stroke="#63b8ff" d="M459.26,-458.5C472.19,-458.5 486.05,-458.5 499.56,-458.5"/>
<polygon fill="#63b8ff" stroke="#63b8ff" points="499.79,-462 509.79,-458.5 499.79,-455 499.79,-462"/>
</a>
</g>
</g>
<!-- Node5 -->
<g id="Node000005" class="node">
<title>Node5</title>
<g id="a_Node000005"><a xlink:href="math__util_8c.html#aaa39a297477f56051975259f4bddd829" target="_top" xlink:title=" ">
<polygon fill="white" stroke="#666666" points="776.5,-468 726.5,-468 726.5,-449 776.5,-449 776.5,-468"/>
<text text-anchor="middle" x="751.5" y="-456" font-family="Helvetica,sans-Serif" font-size="10.00">atan2s</text>
</a>
</g>
</g>
<!-- Node4&#45;&gt;Node5 -->
<g id="edge4_Node000004_Node000005" class="edge">
<title>Node4&#45;&gt;Node5</title>
<g id="a_edge4_Node000004_Node000005"><a xlink:title=" ">
<path fill="none" stroke="#63b8ff" d="M645.49,-458.5C669.64,-458.5 695.89,-458.5 716.1,-458.5"/>
<polygon fill="#63b8ff" stroke="#63b8ff" points="716.37,-462 726.37,-458.5 716.37,-455 716.37,-462"/>
</a>
</g>
</g>
<!-- Node6 -->
<g id="Node000006" class="node">
<title>Node6</title>
<g id="a_Node000006"><a xlink:href="math__util_8c.html#a0273b0ea0783a06996c28669a7438ed9" target="_top" xlink:title=" ">
<polygon fill="white" stroke="#666666" points="968,-468 886,-468 886,-449 968,-449 968,-468"/>
<text text-anchor="middle" x="927" y="-456" font-family="Helvetica,sans-Serif" font-size="10.00">atan2_lookup</text>
</a>
</g>
</g>
<!-- Node5&#45;&gt;Node6 -->
<g id="edge5_Node000005_Node000006" class="edge">
<title>Node5&#45;&gt;Node6</title>
<g id="a_edge5_Node000005_Node000006"><a xlink:title=" ">
<path fill="none" stroke="#63b8ff" d="M776.62,-458.5C802.08,-458.5 842.95,-458.5 875.5,-458.5"/>
<polygon fill="#63b8ff" stroke="#63b8ff" points="875.75,-462 885.75,-458.5 875.75,-455 875.75,-462"/>
</a>
</g>
</g>
<!-- Node9 -->
<g id="Node000009" class="node">
<title>Node9</title>
<g id="a_Node000009"><a xlink:href="Game_8cpp.html#aab0dcf46f6e6e4516bf79ea3f519c765" target="_top" xlink:title=" ">
<polygon fill="white" stroke="#666666" points="455,-129 343,-129 343,-110 455,-110 455,-129"/>
<text text-anchor="middle" x="399" y="-117" font-family="Helvetica,sans-Serif" font-size="10.00">IsPodiumCeremony</text>
</a>
</g>
</g>
<!-- Node8&#45;&gt;Node9 -->
<g id="edge8_Node000008_Node000009" class="edge">
<title>Node8&#45;&gt;Node9</title>
<g id="a_edge8_Node000008_Node000009"><a xlink:title=" ">
<path fill="none" stroke="#63b8ff" d="M267.77,-183.89C274.79,-181.38 281.81,-178.29 288,-174.5 307.57,-162.52 304.08,-148.88 324,-137.5 327.08,-135.74 330.32,-134.15 333.67,-132.72"/>
<polygon fill="#63b8ff" stroke="#63b8ff" points="335.18,-135.89 343.29,-129.08 332.7,-129.35 335.18,-135.89"/>
</a>
</g>
</g>
<!-- Node10&#45;&gt;Node7 -->
<g id="edge13_Node000010_Node000007" class="edge">
<title>Node10&#45;&gt;Node7</title>
<g id="a_edge13_Node000010_Node000007"><a xlink:title=" ">
<path fill="none" stroke="#63b8ff" d="M266.09,-316.01C283.71,-319.78 304.77,-323.64 324,-325.5 393.81,-332.24 474.97,-330.55 526.04,-328.34"/>
<polygon fill="#63b8ff" stroke="#63b8ff" points="526.32,-331.83 536.15,-327.88 526,-324.84 526.32,-331.83"/>
</a>
</g>
</g>
<!-- Node11 -->
<g id="Node000011" class="node">
<title>Node11</title>
<g id="a_Node000011"><a xlink:href="code__80005FD0_8c.html#adf13615f04cfae72d01ad23f33a4e4aa" target="_top" xlink:title=" ">
<polygon fill="white" stroke="#666666" points="470.5,-316 327.5,-316 327.5,-297 470.5,-297 470.5,-316"/>
<text text-anchor="middle" x="399" y="-304" font-family="Helvetica,sans-Serif" font-size="10.00">calculate_track_curvature</text>
</a>
</g>
</g>
<!-- Node10&#45;&gt;Node11 -->
<g id="edge10_Node000010_Node000011" class="edge">
<title>Node10&#45;&gt;Node11</title>
<g id="a_edge10_Node000010_Node000011"><a xlink:title=" ">
<path fill="none" stroke="#63b8ff" d="M288.42,-306.5C297.82,-306.5 307.63,-306.5 317.36,-306.5"/>
<polygon fill="#63b8ff" stroke="#63b8ff" points="317.44,-310 327.44,-306.5 317.44,-303 317.44,-310"/>
</a>
</g>
</g>
<!-- Node11&#45;&gt;Node7 -->
<g id="edge11_Node000011_Node000007" class="edge">
<title>Node11&#45;&gt;Node7</title>
<g id="a_edge11_Node000011_Node000007"><a xlink:title=" ">
<path fill="none" stroke="#63b8ff" d="M470.52,-314.09C488.97,-316.08 508.49,-318.18 525.69,-320.03"/>
<polygon fill="#63b8ff" stroke="#63b8ff" points="525.75,-323.56 536.07,-321.15 526.5,-316.6 525.75,-323.56"/>
</a>
</g>
</g>
<!-- Node12 -->
<g id="Node000012" class="node">
<title>Node12</title>
<g id="a_Node000012"><a xlink:href="math_8h.html#a37bde043e94a6f074c78f10518fb5d99" target="_top" xlink:title=" ">
<polygon fill="white" stroke="#666666" points="597,-279 558,-279 558,-260 597,-260 597,-279"/>
<text text-anchor="middle" x="577.5" y="-267" font-family="Helvetica,sans-Serif" font-size="10.00">sqrtf</text>
</a>
</g>
</g>
<!-- Node11&#45;&gt;Node12 -->
<g id="edge12_Node000011_Node000012" class="edge">
<title>Node11&#45;&gt;Node12</title>
<g id="a_edge12_Node000011_Node000012"><a xlink:title=" ">
<path fill="none" stroke="#63b8ff" d="M445.45,-296.97C477.88,-290.17 520.47,-281.25 548.16,-275.44"/>
<polygon fill="#63b8ff" stroke="#63b8ff" points="548.92,-278.86 557.99,-273.38 547.48,-272.01 548.92,-278.86"/>
</a>
</g>
</g>
<!-- Node13&#45;&gt;Node7 -->
<g id="edge15_Node000013_Node000007" class="edge">
<title>Node13&#45;&gt;Node7</title>
<g id="a_edge15_Node000013_Node000007"><a xlink:title=" ">
<path fill="none" stroke="#63b8ff" d="M440.14,-279.06C451.17,-281.89 463.1,-285.14 474,-288.5 497.05,-295.6 522.55,-304.8 542.36,-312.25"/>
<polygon fill="#63b8ff" stroke="#63b8ff" points="541.28,-315.59 551.87,-315.86 543.76,-309.04 541.28,-315.59"/>
</a>
</g>
</g>
<!-- Node13&#45;&gt;Node12 -->
<g id="edge16_Node000013_Node000012" class="edge">
<title>Node13&#45;&gt;Node12</title>
<g id="a_edge16_Node000013_Node000012"><a xlink:title=" ">
<path fill="none" stroke="#63b8ff" d="M474.08,-269.5C500.03,-269.5 527.66,-269.5 547.67,-269.5"/>
<polygon fill="#63b8ff" stroke="#63b8ff" points="547.95,-273 557.95,-269.5 547.95,-266 547.95,-273"/>
</a>
</g>
</g>
<!-- Node18&#45;&gt;Node7 -->
<g id="edge23_Node000018_Node000007" class="edge">
<title>Node18&#45;&gt;Node7</title>
<g id="a_edge23_Node000018_Node000007"><a xlink:title=" ">
<path fill="none" stroke="#63b8ff" d="M273.24,-225.08C324.95,-221.14 409.49,-220.98 474,-251.5 494.74,-261.31 491.78,-274.55 510,-288.5 521.26,-297.12 534.76,-305.01 546.65,-311.28"/>
<polygon fill="#63b8ff" stroke="#63b8ff" points="545.27,-314.5 555.77,-315.93 548.45,-308.27 545.27,-314.5"/>
</a>
</g>
</g>
<!-- Node18&#45;&gt;Node9 -->
<g id="edge41_Node000018_Node000009" class="edge">
<title>Node18&#45;&gt;Node9</title>
<g id="a_edge41_Node000018_Node000009"><a xlink:title=" ">
<path fill="none" stroke="#63b8ff" d="M272.7,-220.88C278.23,-218.43 283.5,-215.36 288,-211.5 315.76,-187.69 295.52,-160.45 324,-137.5 326.95,-135.12 330.17,-133.05 333.57,-131.24"/>
<polygon fill="#63b8ff" stroke="#63b8ff" points="335.18,-134.35 342.87,-127.07 332.32,-127.97 335.18,-134.35"/>
</a>
</g>
</g>
<!-- Node19 -->
<g id="Node000019" class="node">
<title>Node19</title>
<g id="a_Node000019"><a xlink:href="code__80005FD0_8c.html#ac09cdba0d303bd516359b9ae117e59e6" target="_top" xlink:title=" ">
<polygon fill="white" stroke="#666666" points="444.5,-166 353.5,-166 353.5,-147 444.5,-147 444.5,-166"/>
<text text-anchor="middle" x="399" y="-154" font-family="Helvetica,sans-Serif" font-size="10.00">func_80011014</text>
</a>
</g>
</g>
<!-- Node18&#45;&gt;Node19 -->
<g id="edge24_Node000018_Node000019" class="edge">
<title>Node18&#45;&gt;Node19</title>
<g id="a_edge24_Node000018_Node000019"><a xlink:title=" ">
<path fill="none" stroke="#63b8ff" d="M267.77,-220.89C274.79,-218.38 281.81,-215.29 288,-211.5 307.57,-199.52 304.08,-185.88 324,-174.5 330.02,-171.06 336.67,-168.28 343.45,-166.03"/>
<polygon fill="#63b8ff" stroke="#63b8ff" points="344.81,-169.27 353.41,-163.09 342.83,-162.56 344.81,-169.27"/>
</a>
</g>
</g>
<!-- Node33 -->
<g id="Node000033" class="node">
<title>Node33</title>
<g id="a_Node000033"><a xlink:href="code__80005FD0_8c.html#a63ad6d0756cdc4682b0032051cc628ce" target="_top" xlink:title=" ">
<polygon fill="white" stroke="#666666" points="453,-203 345,-203 345,-184 453,-184 453,-203"/>
<text text-anchor="middle" x="399" y="-191" font-family="Helvetica,sans-Serif" font-size="10.00">process_path_data</text>
</a>
</g>
</g>
<!-- Node18&#45;&gt;Node33 -->
<g id="edge42_Node000018_Node000033" class="edge">
<title>Node18&#45;&gt;Node33</title>
<g id="a_edge42_Node000018_Node000033"><a xlink:title=" ">
<path fill="none" stroke="#63b8ff" d="M270.67,-220.97C292.98,-216.16 320.26,-210.27 343.83,-205.19"/>
<polygon fill="#63b8ff" stroke="#63b8ff" points="344.65,-208.59 353.69,-203.06 343.17,-201.75 344.65,-208.59"/>
</a>
</g>
</g>
<!-- Node19&#45;&gt;Node12 -->
<g id="edge40_Node000019_Node000012" class="edge">
<title>Node19&#45;&gt;Node12</title>
<g id="a_edge40_Node000019_Node000012"><a xlink:title=" ">
<path fill="none" stroke="#63b8ff" d="M444.82,-160.75C455.24,-163.45 465.7,-167.74 474,-174.5 502.98,-198.1 481.49,-226.33 510,-250.5 520.52,-259.42 534.98,-264.16 547.73,-266.68"/>
<polygon fill="#63b8ff" stroke="#63b8ff" points="547.49,-270.18 557.92,-268.31 548.6,-263.27 547.49,-270.18"/>
</a>
</g>
</g>
<!-- Node20 -->
<g id="Node000020" class="node">
<title>Node20</title>
<g id="a_Node000020"><a xlink:href="code__80005FD0_8c.html#aa4f95e13ae04a8719510680bb59a3ba0" target="_top" xlink:title=" ">
<polygon fill="white" stroke="#666666" points="623,-130 532,-130 532,-111 623,-111 623,-130"/>
<text text-anchor="middle" x="577.5" y="-118" font-family="Helvetica,sans-Serif" font-size="10.00">func_80010F40</text>
</a>
</g>
</g>
<!-- Node19&#45;&gt;Node20 -->
<g id="edge25_Node000019_Node000020" class="edge">
<title>Node19&#45;&gt;Node20</title>
<g id="a_edge25_Node000019_Node000020"><a xlink:title=" ">
<path fill="none" stroke="#63b8ff" d="M444.54,-147.42C468.05,-142.62 497.11,-136.69 521.97,-131.62"/>
<polygon fill="#63b8ff" stroke="#63b8ff" points="522.88,-135.01 531.98,-129.58 521.48,-128.15 522.88,-135.01"/>
</a>
</g>
</g>
<!-- Node28 -->
<g id="Node000028" class="node">
<title>Node28</title>
<g id="a_Node000028"><a xlink:href="code__80005FD0_8c.html#ad22ec1d3413eebae418d5d0a1bbbe6a8" target="_top" xlink:title=" ">
<polygon fill="white" stroke="#666666" points="622.5,-93 532.5,-93 532.5,-74 622.5,-74 622.5,-93"/>
<text text-anchor="middle" x="577.5" y="-81" font-family="Helvetica,sans-Serif" font-size="10.00">func_80010FA0</text>
</a>
</g>
</g>
<!-- Node19&#45;&gt;Node28 -->
<g id="edge33_Node000019_Node000028" class="edge">
<title>Node19&#45;&gt;Node28</title>
<g id="a_edge33_Node000019_Node000028"><a xlink:title=" ">
<path fill="none" stroke="#63b8ff" d="M444.54,-149.15C454.63,-146.39 465.01,-142.63 474,-137.5 493.65,-126.29 490.42,-112.84 510,-101.5 513.95,-99.21 518.2,-97.21 522.57,-95.45"/>
<polygon fill="#63b8ff" stroke="#63b8ff" points="524.03,-98.65 532.27,-91.99 521.68,-92.06 524.03,-98.65"/>
</a>
</g>
</g>
<!-- Node29 -->
<g id="Node000029" class="node">
<title>Node29</title>
<g id="a_Node000029"><a xlink:href="collision_8c.html#a053809031f467d0a6747788211e0ec69" target="_top" xlink:title=" ">
<polygon fill="white" stroke="#666666" points="636,-56 519,-56 519,-37 636,-37 636,-56"/>
<text text-anchor="middle" x="577.5" y="-44" font-family="Helvetica,sans-Serif" font-size="10.00">get_track_section_id</text>
</a>
</g>
</g>
<!-- Node19&#45;&gt;Node29 -->
<g id="edge36_Node000019_Node000029" class="edge">
<title>Node19&#45;&gt;Node29</title>
<g id="a_edge36_Node000019_Node000029"><a xlink:title=" ">
<path fill="none" stroke="#63b8ff" d="M444.77,-151.5C455.19,-148.66 465.66,-144.27 474,-137.5 502.08,-114.7 482.07,-87.48 510,-64.5 511.56,-63.22 513.2,-62.03 514.91,-60.92"/>
<polygon fill="#63b8ff" stroke="#63b8ff" points="516.78,-63.89 523.91,-56.06 513.45,-57.73 516.78,-63.89"/>
</a>
</g>
</g>
<!-- Node30 -->
<g id="Node000030" class="node">
<title>Node30</title>
<g id="a_Node000030"><a xlink:href="Game_8cpp.html#a545c1a384e93cc7b616dfee707f5d962" target="_top" xlink:title=" ">
<polygon fill="white" stroke="#666666" points="611.5,-241 543.5,-241 543.5,-222 611.5,-222 611.5,-241"/>
<text text-anchor="middle" x="577.5" y="-229" font-family="Helvetica,sans-Serif" font-size="10.00">IsDkJungle</text>
</a>
</g>
</g>
<!-- Node19&#45;&gt;Node30 -->
<g id="edge37_Node000019_Node000030" class="edge">
<title>Node19&#45;&gt;Node30</title>
<g id="a_edge37_Node000019_Node000030"><a xlink:title=" ">
<path fill="none" stroke="#63b8ff" d="M444.64,-163C454.72,-165.63 465.08,-169.33 474,-174.5 494.13,-186.17 490.11,-200.43 510,-212.5 517.15,-216.84 525.34,-220.22 533.46,-222.85"/>
<polygon fill="#63b8ff" stroke="#63b8ff" points="532.69,-226.27 543.27,-225.7 534.64,-219.55 532.69,-226.27"/>
</a>
</g>
</g>
<!-- Node31 -->
<g id="Node000031" class="node">
<title>Node31</title>
<g id="a_Node000031"><a xlink:href="Game_8cpp.html#a5c843dc61d3b9ca430e4926c4b8018ef" target="_top" xlink:title=" ">
<polygon fill="white" stroke="#666666" points="623.5,-204 531.5,-204 531.5,-185 623.5,-185 623.5,-204"/>
<text text-anchor="middle" x="577.5" y="-192" font-family="Helvetica,sans-Serif" font-size="10.00">IsRainbowRoad</text>
</a>
</g>
</g>
<!-- Node19&#45;&gt;Node31 -->
<g id="edge38_Node000019_Node000031" class="edge">
<title>Node19&#45;&gt;Node31</title>
<g id="a_edge38_Node000019_Node000031"><a xlink:title=" ">
<path fill="none" stroke="#63b8ff" d="M444.54,-166.09C468.14,-171.17 497.33,-177.46 522.25,-182.82"/>
<polygon fill="#63b8ff" stroke="#63b8ff" points="521.77,-186.3 532.28,-184.98 523.24,-179.45 521.77,-186.3"/>
</a>
</g>
</g>
<!-- Node32 -->
<g id="Node000032" class="node">
<title>Node32</title>
<g id="a_Node000032"><a xlink:href="Game_8cpp.html#a1c60552e0107dfda214cbc9e83695321" target="_top" xlink:title=" ">
<polygon fill="white" stroke="#666666" points="624,-167 531,-167 531,-148 624,-148 624,-167"/>
<text text-anchor="middle" x="577.5" y="-155" font-family="Helvetica,sans-Serif" font-size="10.00">IsWarioStadium</text>
</a>
</g>
</g>
<!-- Node19&#45;&gt;Node32 -->
<g id="edge39_Node000019_Node000032" class="edge">
<title>Node19&#45;&gt;Node32</title>
<g id="a_edge39_Node000019_Node000032"><a xlink:title=" ">
<path fill="none" stroke="#63b8ff" d="M444.54,-156.75C467.59,-156.88 495.97,-157.04 520.5,-157.18"/>
<polygon fill="#63b8ff" stroke="#63b8ff" points="520.73,-160.68 530.75,-157.24 520.77,-153.68 520.73,-160.68"/>
</a>
</g>
</g>
<!-- Node21 -->
<g id="Node000021" class="node">
<title>Node21</title>
<g id="a_Node000021"><a xlink:href="collision_8c.html#a37aa55b3768d001533ad75e7f1b8388a" target="_top" xlink:title=" ">
<polygon fill="white" stroke="#666666" points="822,-93 681,-93 681,-74 822,-74 822,-93"/>
<text text-anchor="middle" x="751.5" y="-81" font-family="Helvetica,sans-Serif" font-size="10.00">check_bounding_collision</text>
</a>
</g>
</g>
<!-- Node20&#45;&gt;Node21 -->
<g id="edge26_Node000020_Node000021" class="edge">
<title>Node20&#45;&gt;Node21</title>
<g id="a_edge26_Node000020_Node000021"><a xlink:title=" ">
<path fill="none" stroke="#63b8ff" d="M622.79,-110.97C645.18,-106.16 672.53,-100.27 696.18,-95.19"/>
<polygon fill="#63b8ff" stroke="#63b8ff" points="697.02,-98.59 706.06,-93.06 695.54,-91.74 697.02,-98.59"/>
</a>
</g>
</g>
<!-- Node25 -->
<g id="Node000025" class="node">
<title>Node25</title>
<g id="a_Node000025"><a xlink:href="collision_8c.html#ad95e9ed2051529d5edee26109fa07427" target="_top" xlink:title=" ">
<polygon fill="white" stroke="#666666" points="820,-130 683,-130 683,-111 820,-111 820,-130"/>
<text text-anchor="middle" x="751.5" y="-118" font-family="Helvetica,sans-Serif" font-size="10.00">spawn_actor_on_surface</text>
</a>
</g>
</g>
<!-- Node20&#45;&gt;Node25 -->
<g id="edge30_Node000020_Node000025" class="edge">
<title>Node20&#45;&gt;Node25</title>
<g id="a_edge30_Node000020_Node000025"><a xlink:title=" ">
<path fill="none" stroke="#63b8ff" d="M623.24,-120.5C638.33,-120.5 655.63,-120.5 672.52,-120.5"/>
<polygon fill="#63b8ff" stroke="#63b8ff" points="672.96,-124 682.96,-120.5 672.96,-117 672.96,-124"/>
</a>
</g>
</g>
<!-- Node22 -->
<g id="Node000022" class="node">
<title>Node22</title>
<g id="a_Node000022"><a xlink:href="collision_8c.html#ac312bf382cb40752f6b790a99e7cdcb6" target="_top" xlink:title=" ">
<polygon fill="white" stroke="#666666" points="981,-19 873,-19 873,0 981,0 981,-19"/>
<text text-anchor="middle" x="927" y="-7" font-family="Helvetica,sans-Serif" font-size="10.00">check_collision_yx</text>
</a>
</g>
</g>
<!-- Node21&#45;&gt;Node22 -->
<g id="edge27_Node000021_Node000022" class="edge">
<title>Node21&#45;&gt;Node22</title>
<g id="a_edge27_Node000021_Node000022"><a xlink:title=" ">
<path fill="none" stroke="#63b8ff" d="M767.7,-73.99C787.74,-61.8 824.4,-40.66 858,-27.5 863.12,-25.5 868.54,-23.64 873.99,-21.94"/>
<polygon fill="#63b8ff" stroke="#63b8ff" points="875.19,-25.24 883.8,-19.06 873.22,-18.52 875.19,-25.24"/>
</a>
</g>
</g>
<!-- Node23 -->
<g id="Node000023" class="node">
<title>Node23</title>
<g id="a_Node000023"><a xlink:href="collision_8c.html#a4b48832a90e984536a0635a016ec4f28" target="_top" xlink:title=" ">
<polygon fill="white" stroke="#666666" points="980.5,-93 873.5,-93 873.5,-74 980.5,-74 980.5,-93"/>
<text text-anchor="middle" x="927" y="-81" font-family="Helvetica,sans-Serif" font-size="10.00">check_collision_zx</text>
</a>
</g>
</g>
<!-- Node21&#45;&gt;Node23 -->
<g id="edge28_Node000021_Node000023" class="edge">
<title>Node21&#45;&gt;Node23</title>
<g id="a_edge28_Node000021_Node000023"><a xlink:title=" ">
<path fill="none" stroke="#63b8ff" d="M822.07,-83.5C835.67,-83.5 849.85,-83.5 863.21,-83.5"/>
<polygon fill="#63b8ff" stroke="#63b8ff" points="863.25,-87 873.25,-83.5 863.25,-80 863.25,-87"/>
</a>
</g>
</g>
<!-- Node24 -->
<g id="Node000024" class="node">
<title>Node24</title>
<g id="a_Node000024"><a xlink:href="collision_8c.html#a21fef964ab48191a1c0341954ef27a40" target="_top" xlink:title=" ">
<polygon fill="white" stroke="#666666" points="980.5,-56 873.5,-56 873.5,-37 980.5,-37 980.5,-56"/>
<text text-anchor="middle" x="927" y="-44" font-family="Helvetica,sans-Serif" font-size="10.00">check_collision_zy</text>
</a>
</g>
</g>
<!-- Node21&#45;&gt;Node24 -->
<g id="edge29_Node000021_Node000024" class="edge">
<title>Node21&#45;&gt;Node24</title>
<g id="a_edge29_Node000021_Node000024"><a xlink:title=" ">
<path fill="none" stroke="#63b8ff" d="M797.18,-73.97C819.76,-69.16 847.35,-63.27 871.2,-58.19"/>
<polygon fill="#63b8ff" stroke="#63b8ff" points="872.12,-61.57 881.17,-56.06 870.66,-54.72 872.12,-61.57"/>
</a>
</g>
</g>
<!-- Node26 -->
<g id="Node000026" class="node">
<title>Node26</title>
<g id="a_Node000026"><a xlink:href="collision_8c.html#a6527a2135a10909cdf9a1fd731be5628" target="_top" xlink:title=" ">
<polygon fill="white" stroke="#666666" points="996,-130 858,-130 858,-111 996,-111 996,-130"/>
<text text-anchor="middle" x="927" y="-118" font-family="Helvetica,sans-Serif" font-size="10.00">calculate_surface_height</text>
</a>
</g>
</g>
<!-- Node25&#45;&gt;Node26 -->
<g id="edge31_Node000025_Node000026" class="edge">
<title>Node25&#45;&gt;Node26</title>
<g id="a_edge31_Node000025_Node000026"><a xlink:title=" ">
<path fill="none" stroke="#63b8ff" d="M820.08,-120.5C829.06,-120.5 838.34,-120.5 847.49,-120.5"/>
<polygon fill="#63b8ff" stroke="#63b8ff" points="847.75,-124 857.75,-120.5 847.75,-117 847.75,-124"/>
</a>
</g>
</g>
<!-- Node27 -->
<g id="Node000027" class="node">
<title>Node27</title>
<g id="a_Node000027"><a xlink:href="collision_8c.html#a0fe340ccfe1d926a592ea9a0c84d7574" target="_top" xlink:title=" ">
<polygon fill="white" stroke="#666666" points="993,-178.5 861,-178.5 861,-148.5 993,-148.5 993,-178.5"/>
<text text-anchor="start" x="869" y="-166.5" font-family="Helvetica,sans-Serif" font-size="10.00">check_horizontally</text>
<text text-anchor="middle" x="927" y="-155.5" font-family="Helvetica,sans-Serif" font-size="10.00">_colliding_with_triangle</text>
</a>
</g>
</g>
<!-- Node25&#45;&gt;Node27 -->
<g id="edge32_Node000025_Node000027" class="edge">
<title>Node25&#45;&gt;Node27</title>
<g id="a_edge32_Node000025_Node000027"><a xlink:title=" ">
<path fill="none" stroke="#63b8ff" d="M791.01,-130.04C809.96,-134.74 833.43,-140.56 855.46,-146.02"/>
<polygon fill="#63b8ff" stroke="#63b8ff" points="854.9,-149.49 865.45,-148.49 856.59,-142.69 854.9,-149.49"/>
</a>
</g>
</g>
<!-- Node28&#45;&gt;Node21 -->
<g id="edge34_Node000028_Node000021" class="edge">
<title>Node28&#45;&gt;Node21</title>
<g id="a_edge34_Node000028_Node000021"><a xlink:title=" ">
<path fill="none" stroke="#63b8ff" d="M622.79,-83.5C637.47,-83.5 654.28,-83.5 670.78,-83.5"/>
<polygon fill="#63b8ff" stroke="#63b8ff" points="670.99,-87 680.99,-83.5 670.99,-80 670.99,-87"/>
</a>
</g>
</g>
<!-- Node28&#45;&gt;Node25 -->
<g id="edge35_Node000028_Node000025" class="edge">
<title>Node28&#45;&gt;Node25</title>
<g id="a_edge35_Node000028_Node000025"><a xlink:title=" ">
<path fill="none" stroke="#63b8ff" d="M622.79,-93.03C645.18,-97.84 672.53,-103.73 696.18,-108.81"/>
<polygon fill="#63b8ff" stroke="#63b8ff" points="695.54,-112.26 706.06,-110.94 697.02,-105.41 695.54,-112.26"/>
</a>
</g>
</g>
</g>
</svg>

<g id="navigator" transform="translate(0 0)" fill="#404254">
  <rect fill="#f2f5e9" fill-opacity="0.5" stroke="#606060" stroke-width=".5" x="0" y="0" width="60" height="60"/>
  <use id="zoomplus" xlink:href="#zoomPlus" x="17" y="9" onmousedown="handleZoom(evt,'in')"/>
  <use id="zoomminus" xlink:href="#zoomMin" x="42" y="9" onmousedown="handleZoom(evt,'out')"/>
  <use id="reset" xlink:href="#resetDef" x="30" y="36" onmousedown="handleReset()"/>
   <use id="arrowup" xlink:href="#arrowUp" x="0" y="0" onmousedown="handlePan(0,-1)"/>
  <use id="arrowright" xlink:href="#arrowRight" x="0" y="0" onmousedown="handlePan(1,0)"/>
  <use id="arrowdown" xlink:href="#arrowDown" x="0" y="0" onmousedown="handlePan(0,1)"/>
  <use id="arrowleft" xlink:href="#arrowLeft" x="0" y="0" onmousedown="handlePan(-1,0)"/>
</g>
<svg viewBox="0 0 15 15" width="100%" height="30px" preserveAspectRatio="xMaxYMin meet">
 <g id="arrow_out" transform="scale(0.3 0.3)">
  <a xlink:href="code__80005FD0_8c_a77709d8cbf7a0b88d0f3cb3f5efca3be_cgraph_org.svg" target="_base">
   <rect id="button" ry="5" rx="5" y="6" x="6" height="38" width="38"
        fill="#f2f5e9" fill-opacity="0.5" stroke="#606060" stroke-width="1.0"/>
   <path id="arrow"
     d="M 11.500037,31.436501 C 11.940474,20.09759 22.043105,11.32322 32.158766,21.979434 L 37.068811,17.246167 C 37.068811,17.246167 37.088388,32 37.088388,32 L 22.160133,31.978069 C 22.160133,31.978069 26.997745,27.140456 26.997745,27.140456 C 18.528582,18.264221 13.291696,25.230495 11.500037,31.436501 z"
     style="fill:#404040;"/>
  </a>
 </g>
</svg>

<style type='text/css'>
<![CDATA[
[data-mouse-over-selected='false'] { opacity: 0.7; }
[data-mouse-over-selected='true']  { opacity: 1.0; }
]]>
</style>
<script type="application/ecmascript"><![CDATA[
document.addEventListener('DOMContentLoaded', (event) => {
  highlightEdges();
  highlightAdjacentNodes();
});
]]></script>
</svg>
