<?xml version="1.0" encoding="UTF-8" standalone="no"?>
<!DOCTYPE svg PUBLIC "-//W3C//DTD SVG 1.1//EN"
 "http://www.w3.org/Graphics/SVG/1.1/DTD/svg11.dtd">
<!-- Generated by graphviz version 2.43.0 (0)
 -->
<!-- Title: src/port Pages: 1 -->
<svg width="379pt" height="196pt"
 viewBox="0.00 0.00 379.00 196.00" xmlns="http://www.w3.org/2000/svg" xmlns:xlink="http://www.w3.org/1999/xlink">
<g id="graph0" class="graph" transform="scale(1 1) rotate(0) translate(4 192)">
<title>src/port</title>
<g id="clust1" class="cluster">
<title>clusterdir_68267d1309a1af8e8297ef4c3efbcdba</title>
<g id="a_clust1"><a xlink:href="dir_68267d1309a1af8e8297ef4c3efbcdba.html" target="_top" xlink:title="src">
<polygon fill="#daedff" stroke="#404040" stroke-dasharray="5,2" points="8,-8 8,-180 309,-180 309,-8 8,-8"/>
<text text-anchor="middle" x="158.5" y="-168" font-family="Helvetica,sans-Serif" font-size="10.00">src</text>
</a>
</g>
</g>
<g id="clust2" class="cluster">
<title>clusterdir_fd8b95245ffcce776715f180c056b450</title>
<g id="a_clust2"><a xlink:href="dir_fd8b95245ffcce776715f180c056b450.html" target="_top">
<polygon fill="#daedff" stroke="#404040" stroke-width="2" points="69,-63 69,-153 289,-153 289,-63 69,-63"/>
</a>
</g>
</g>
<!-- dir_2052808828190f934b76e979ee65af8a -->
<g id="node1" class="node">
<title>dir_2052808828190f934b76e979ee65af8a</title>
<g id="a_node1"><a xlink:href="dir_2052808828190f934b76e979ee65af8a.html" target="_top" xlink:title="engine">
<polygon fill="#4ea9ff" stroke="red" points="128,-35 78,-35 78,-16 128,-16 128,-35"/>
<text text-anchor="middle" x="103" y="-23" font-family="Helvetica,sans-Serif" font-size="10.00">engine</text>
</a>
</g>
</g>
<!-- dir_a63dedf81f1e5ea1d42bb45ef831eb8c -->
<g id="node2" class="node">
<title>dir_a63dedf81f1e5ea1d42bb45ef831eb8c</title>
<g id="a_node2"><a xlink:href="dir_a63dedf81f1e5ea1d42bb45ef831eb8c.html" target="_top" xlink:title="audio">
<polygon fill="#4ea9ff" stroke="#404040" points="60,-35 16,-35 16,-16 60,-16 60,-35"/>
<text text-anchor="middle" x="38" y="-23" font-family="Helvetica,sans-Serif" font-size="10.00">audio</text>
</a>
</g>
</g>
<!-- dir_b624d86e5671d82a613a73eb9566e66f -->
<g id="node3" class="node">
<title>dir_b624d86e5671d82a613a73eb9566e66f</title>
<g id="a_node3"><a xlink:href="dir_b624d86e5671d82a613a73eb9566e66f.html" target="_top" xlink:title="racing">
<polygon fill="#4ea9ff" stroke="#404040" points="300.5,-35 253.5,-35 253.5,-16 300.5,-16 300.5,-35"/>
<text text-anchor="middle" x="277" y="-23" font-family="Helvetica,sans-Serif" font-size="10.00">racing</text>
</a>
</g>
</g>
<!-- dir_b45e97d39ecfe8040b4610d59570e474 -->
<g id="node4" class="node">
<title>dir_b45e97d39ecfe8040b4610d59570e474</title>
<g id="a_node4"><a xlink:href="dir_b45e97d39ecfe8040b4610d59570e474.html" target="_top" xlink:title="enhancements">
<polygon fill="#4ea9ff" stroke="red" points="235.5,-35 146.5,-35 146.5,-16 235.5,-16 235.5,-35"/>
<text text-anchor="middle" x="191" y="-23" font-family="Helvetica,sans-Serif" font-size="10.00">enhancements</text>
</a>
</g>
</g>
<!-- dir_fd8b95245ffcce776715f180c056b450 -->
<g id="node5" class="node">
<title>dir_fd8b95245ffcce776715f180c056b450</title>
<text text-anchor="middle" x="164" y="-133" font-family="Helvetica,sans-Serif" font-size="10.00">port</text>
</g>
<!-- dir_fd8b95245ffcce776715f180c056b450&#45;&gt;dir_2052808828190f934b76e979ee65af8a -->
<g id="edge1" class="edge">
<title>dir_fd8b95245ffcce776715f180c056b450&#45;&gt;dir_2052808828190f934b76e979ee65af8a</title>
<g id="a_edge1"><a xlink:href="dir_000055_000027.html" target="_top">
<path fill="none" stroke="#63b8ff" d="M145.66,-131.95C122.93,-127.69 85.11,-116.78 68,-90 61.54,-79.89 63.52,-74.13 68,-63 71.22,-54.98 77.14,-47.73 83.21,-41.85"/>
<polygon fill="#63b8ff" stroke="#63b8ff" points="85.6,-44.41 90.78,-35.17 80.96,-39.16 85.6,-44.41"/>
</a>
</g>
<g id="a_edge1&#45;headlabel"><a xlink:href="dir_000055_000027.html" target="_top" xlink:title="50">
<text text-anchor="middle" x="84.78" y="-46.42" font-family="Helvetica,sans-Serif" font-size="10.00" fill="#63b8ff">50</text>
</a>
</g>
</g>
<!-- dir_fd8b95245ffcce776715f180c056b450&#45;&gt;dir_a63dedf81f1e5ea1d42bb45ef831eb8c -->
<g id="edge3" class="edge">
<title>dir_fd8b95245ffcce776715f180c056b450&#45;&gt;dir_a63dedf81f1e5ea1d42bb45ef831eb8c</title>
<g id="a_edge3"><a xlink:href="dir_000055_000004.html" target="_top">
<path fill="none" stroke="#63b8ff" d="M145.99,-131.42C122.97,-126.58 83.29,-115 60,-90 48.45,-77.61 42.93,-58.85 40.31,-44.93"/>
<polygon fill="#63b8ff" stroke="#63b8ff" points="43.76,-44.36 38.77,-35.02 36.84,-45.43 43.76,-44.36"/>
</a>
</g>
<g id="a_edge3&#45;headlabel"><a xlink:href="dir_000055_000004.html" target="_top" xlink:title="8">
<text text-anchor="middle" x="47.12" y="-44.98" font-family="Helvetica,sans-Serif" font-size="10.00" fill="#63b8ff">8</text>
</a>
</g>
</g>
<!-- dir_fd8b95245ffcce776715f180c056b450&#45;&gt;dir_b624d86e5671d82a613a73eb9566e66f -->
<g id="edge4" class="edge">
<title>dir_fd8b95245ffcce776715f180c056b450&#45;&gt;dir_b624d86e5671d82a613a73eb9566e66f</title>
<g id="a_edge4"><a xlink:href="dir_000055_000057.html" target="_top">
<path fill="none" stroke="#63b8ff" d="M182.3,-134.14C210.68,-132.47 264.57,-124.63 289,-90 298.38,-76.7 293.28,-58.09 287.1,-44.46"/>
<polygon fill="#63b8ff" stroke="#63b8ff" points="290.03,-42.5 282.38,-35.17 283.79,-45.67 290.03,-42.5"/>
</a>
</g>
<g id="a_edge4&#45;headlabel"><a xlink:href="dir_000055_000057.html" target="_top" xlink:title="3">
<text text-anchor="middle" x="294.19" y="-41.92" font-family="Helvetica,sans-Serif" font-size="10.00" fill="#63b8ff">3</text>
</a>
</g>
</g>
<!-- dir_693e9fc1d56d07d615a96f6baaa3ee9b -->
<g id="node6" class="node">
<title>dir_693e9fc1d56d07d615a96f6baaa3ee9b</title>
<g id="a_node6"><a xlink:href="dir_693e9fc1d56d07d615a96f6baaa3ee9b.html" target="_top" xlink:title="interpolation">
<polygon fill="#4ea9ff" stroke="#404040" points="203.5,-90 124.5,-90 124.5,-71 203.5,-71 203.5,-90"/>
<text text-anchor="middle" x="164" y="-78" font-family="Helvetica,sans-Serif" font-size="10.00">interpolation</text>
</a>
</g>
</g>
<!-- dir_fd8b95245ffcce776715f180c056b450&#45;&gt;dir_693e9fc1d56d07d615a96f6baaa3ee9b -->
<g id="edge2" class="edge">
<title>dir_fd8b95245ffcce776715f180c056b450&#45;&gt;dir_693e9fc1d56d07d615a96f6baaa3ee9b</title>
<g id="a_edge2"><a xlink:href="dir_000055_000037.html" target="_top">
<path fill="none" stroke="#63b8ff" d="M164,-125.75C164,-118.8 164,-108.85 164,-100.13"/>
<polygon fill="#63b8ff" stroke="#63b8ff" points="167.5,-100.09 164,-90.09 160.5,-100.09 167.5,-100.09"/>
</a>
</g>
<g id="a_edge2&#45;headlabel"><a xlink:href="dir_000055_000037.html" target="_top" xlink:title="1">
<text text-anchor="middle" x="170.34" y="-101.18" font-family="Helvetica,sans-Serif" font-size="10.00" fill="#63b8ff">1</text>
</a>
</g>
</g>
<!-- dir_d6c1aceaca3b5d40d9e809aade2680aa -->
<g id="node7" class="node">
<title>dir_d6c1aceaca3b5d40d9e809aade2680aa</title>
<g id="a_node7"><a xlink:href="dir_d6c1aceaca3b5d40d9e809aade2680aa.html" target="_top" xlink:title="resource">
<polygon fill="#4ea9ff" stroke="#404040" points="280.5,-90 221.5,-90 221.5,-71 280.5,-71 280.5,-90"/>
<text text-anchor="middle" x="251" y="-78" font-family="Helvetica,sans-Serif" font-size="10.00">resource</text>
</a>
</g>
</g>
<!-- dir_fd8b95245ffcce776715f180c056b450&#45;&gt;dir_d6c1aceaca3b5d40d9e809aade2680aa -->
<g id="edge7" class="edge">
<title>dir_fd8b95245ffcce776715f180c056b450&#45;&gt;dir_d6c1aceaca3b5d40d9e809aade2680aa</title>
<g id="a_edge7"><a xlink:href="dir_000055_000060.html" target="_top">
<path fill="none" stroke="#63b8ff" d="M177.98,-125.98C191.47,-117.77 212.13,-105.18 228.04,-95.49"/>
<polygon fill="#63b8ff" stroke="#63b8ff" points="230.05,-98.36 236.77,-90.17 226.41,-92.38 230.05,-98.36"/>
</a>
</g>
<g id="a_edge7&#45;headlabel"><a xlink:href="dir_000055_000060.html" target="_top" xlink:title="34">
<text text-anchor="middle" x="228.46" y="-100.16" font-family="Helvetica,sans-Serif" font-size="10.00" fill="#63b8ff">34</text>
</a>
</g>
</g>
<!-- dir_d4fecef9a83f235e24caddea49caed82 -->
<g id="node8" class="node">
<title>dir_d4fecef9a83f235e24caddea49caed82</title>
<g id="a_node8"><a xlink:href="dir_d4fecef9a83f235e24caddea49caed82.html" target="_top" xlink:title="ui">
<polygon fill="#4ea9ff" stroke="#404040" points="106.5,-90 77.5,-90 77.5,-71 106.5,-71 106.5,-90"/>
<text text-anchor="middle" x="92" y="-78" font-family="Helvetica,sans-Serif" font-size="10.00">ui</text>
</a>
</g>
</g>
<!-- dir_fd8b95245ffcce776715f180c056b450&#45;&gt;dir_d4fecef9a83f235e24caddea49caed82 -->
<g id="edge6" class="edge">
<title>dir_fd8b95245ffcce776715f180c056b450&#45;&gt;dir_d4fecef9a83f235e24caddea49caed82</title>
<g id="a_edge6"><a xlink:href="dir_000055_000073.html" target="_top">
<path fill="none" stroke="#63b8ff" d="M152.43,-125.98C141.58,-118 125.12,-105.88 112.12,-96.31"/>
<polygon fill="#63b8ff" stroke="#63b8ff" points="113.91,-93.28 103.78,-90.17 109.76,-98.92 113.91,-93.28"/>
</a>
</g>
<g id="a_edge6&#45;headlabel"><a xlink:href="dir_000055_000073.html" target="_top" xlink:title="1">
<text text-anchor="middle" x="118.48" y="-90.62" font-family="Helvetica,sans-Serif" font-size="10.00" fill="#63b8ff">1</text>
</a>
</g>
</g>
<!-- dir_d44c64559bbebec7f509842c48db8b23 -->
<g id="node9" class="node">
<title>dir_d44c64559bbebec7f509842c48db8b23</title>
<g id="a_node9"><a xlink:href="dir_d44c64559bbebec7f509842c48db8b23.html" target="_top" xlink:title="include">
<polygon fill="#daedff" stroke="red" points="371,-35 319,-35 319,-16 371,-16 371,-35"/>
<text text-anchor="middle" x="345" y="-23" font-family="Helvetica,sans-Serif" font-size="10.00">include</text>
</a>
</g>
</g>
<!-- dir_fd8b95245ffcce776715f180c056b450&#45;&gt;dir_d44c64559bbebec7f509842c48db8b23 -->
<g id="edge5" class="edge">
<title>dir_fd8b95245ffcce776715f180c056b450&#45;&gt;dir_d44c64559bbebec7f509842c48db8b23</title>
<g id="a_edge5"><a xlink:href="dir_000055_000036.html" target="_top">
<path fill="none" stroke="#63b8ff" d="M182.2,-133.61C212.63,-131.22 274.29,-122.41 313,-90 326.88,-78.38 335.36,-59.24 340.07,-45.01"/>
<polygon fill="#63b8ff" stroke="#63b8ff" points="343.46,-45.87 342.96,-35.28 336.75,-43.87 343.46,-45.87"/>
</a>
</g>
<g id="a_edge5&#45;headlabel"><a xlink:href="dir_000055_000036.html" target="_top" xlink:title="33">
<text text-anchor="middle" x="345.16" y="-47.62" font-family="Helvetica,sans-Serif" font-size="10.00" fill="#63b8ff">33</text>
</a>
</g>
</g>
<!-- dir_693e9fc1d56d07d615a96f6baaa3ee9b&#45;&gt;dir_2052808828190f934b76e979ee65af8a -->
<g id="edge8" class="edge">
<title>dir_693e9fc1d56d07d615a96f6baaa3ee9b&#45;&gt;dir_2052808828190f934b76e979ee65af8a</title>
<g id="a_edge8"><a xlink:href="dir_000037_000027.html" target="_top">
<path fill="none" stroke="#63b8ff" d="M154.2,-70.98C145.18,-63.15 131.59,-51.34 120.68,-41.86"/>
<polygon fill="#63b8ff" stroke="#63b8ff" points="122.82,-39.09 112.98,-35.17 118.23,-44.37 122.82,-39.09"/>
</a>
</g>
<g id="a_edge8&#45;headlabel"><a xlink:href="dir_000037_000027.html" target="_top" xlink:title="2">
<text text-anchor="middle" x="127.4" y="-36.8" font-family="Helvetica,sans-Serif" font-size="10.00" fill="#63b8ff">2</text>
</a>
</g>
</g>
<!-- dir_693e9fc1d56d07d615a96f6baaa3ee9b&#45;&gt;dir_b624d86e5671d82a613a73eb9566e66f -->
<g id="edge9" class="edge">
<title>dir_693e9fc1d56d07d615a96f6baaa3ee9b&#45;&gt;dir_b624d86e5671d82a613a73eb9566e66f</title>
<g id="a_edge9"><a xlink:href="dir_000037_000057.html" target="_top">
<path fill="none" stroke="#63b8ff" d="M182.16,-70.98C200.25,-62.5 228.28,-49.35 249.19,-39.54"/>
<polygon fill="#63b8ff" stroke="#63b8ff" points="250.95,-42.59 258.51,-35.17 247.97,-36.25 250.95,-42.59"/>
</a>
</g>
<g id="a_edge9&#45;headlabel"><a xlink:href="dir_000037_000057.html" target="_top" xlink:title="1">
<text text-anchor="middle" x="248.9" y="-44.18" font-family="Helvetica,sans-Serif" font-size="10.00" fill="#63b8ff">1</text>
</a>
</g>
</g>
<!-- dir_693e9fc1d56d07d615a96f6baaa3ee9b&#45;&gt;dir_d44c64559bbebec7f509842c48db8b23 -->
<g id="edge10" class="edge">
<title>dir_693e9fc1d56d07d615a96f6baaa3ee9b&#45;&gt;dir_d44c64559bbebec7f509842c48db8b23</title>
<g id="a_edge10"><a xlink:href="dir_000037_000036.html" target="_top">
<path fill="none" stroke="#63b8ff" d="M187.83,-70.98C195.51,-68.32 204.09,-65.44 212,-63 230.04,-57.43 276.32,-44.87 309.2,-36.05"/>
<polygon fill="#63b8ff" stroke="#63b8ff" points="310.18,-39.41 318.93,-33.44 308.37,-32.65 310.18,-39.41"/>
</a>
</g>
<g id="a_edge10&#45;headlabel"><a xlink:href="dir_000037_000036.html" target="_top" xlink:title="5">
<text text-anchor="middle" x="307.44" y="-40.59" font-family="Helvetica,sans-Serif" font-size="10.00" fill="#63b8ff">5</text>
</a>
</g>
</g>
<!-- dir_d6c1aceaca3b5d40d9e809aade2680aa&#45;&gt;dir_d44c64559bbebec7f509842c48db8b23 -->
<g id="edge11" class="edge">
<title>dir_d6c1aceaca3b5d40d9e809aade2680aa&#45;&gt;dir_d44c64559bbebec7f509842c48db8b23</title>
<g id="a_edge11"><a xlink:href="dir_000060_000036.html" target="_top">
<path fill="none" stroke="#63b8ff" d="M266.1,-70.98C280.82,-62.69 303.42,-49.94 320.67,-40.22"/>
<polygon fill="#63b8ff" stroke="#63b8ff" points="322.63,-43.13 329.62,-35.17 319.19,-37.03 322.63,-43.13"/>
</a>
</g>
<g id="a_edge11&#45;headlabel"><a xlink:href="dir_000060_000036.html" target="_top" xlink:title="5">
<text text-anchor="middle" x="320.89" y="-44.87" font-family="Helvetica,sans-Serif" font-size="10.00" fill="#63b8ff">5</text>
</a>
</g>
</g>
<!-- dir_d4fecef9a83f235e24caddea49caed82&#45;&gt;dir_2052808828190f934b76e979ee65af8a -->
<g id="edge12" class="edge">
<title>dir_d4fecef9a83f235e24caddea49caed82&#45;&gt;dir_2052808828190f934b76e979ee65af8a</title>
<g id="a_edge12"><a xlink:href="dir_000073_000027.html" target="_top">
<path fill="none" stroke="#63b8ff" d="M93.82,-70.75C95.26,-63.8 97.32,-53.85 99.13,-45.13"/>
<polygon fill="#63b8ff" stroke="#63b8ff" points="102.61,-45.59 101.22,-35.09 95.76,-44.17 102.61,-45.59"/>
</a>
</g>
<g id="a_edge12&#45;headlabel"><a xlink:href="dir_000073_000027.html" target="_top" xlink:title="9">
<text text-anchor="middle" x="104.66" y="-47.19" font-family="Helvetica,sans-Serif" font-size="10.00" fill="#63b8ff">9</text>
</a>
</g>
</g>
<!-- dir_d4fecef9a83f235e24caddea49caed82&#45;&gt;dir_a63dedf81f1e5ea1d42bb45ef831eb8c -->
<g id="edge13" class="edge">
<title>dir_d4fecef9a83f235e24caddea49caed82&#45;&gt;dir_a63dedf81f1e5ea1d42bb45ef831eb8c</title>
<g id="a_edge13"><a xlink:href="dir_000073_000004.html" target="_top">
<path fill="none" stroke="#63b8ff" d="M83.08,-70.75C75.22,-63.03 63.57,-51.6 54.08,-42.28"/>
<polygon fill="#63b8ff" stroke="#63b8ff" points="56.34,-39.6 46.75,-35.09 51.44,-44.59 56.34,-39.6"/>
</a>
</g>
<g id="a_edge13&#45;headlabel"><a xlink:href="dir_000073_000004.html" target="_top" xlink:title="4">
<text text-anchor="middle" x="60.89" y="-37.59" font-family="Helvetica,sans-Serif" font-size="10.00" fill="#63b8ff">4</text>
</a>
</g>
</g>
<!-- dir_d4fecef9a83f235e24caddea49caed82&#45;&gt;dir_b624d86e5671d82a613a73eb9566e66f -->
<g id="edge15" class="edge">
<title>dir_d4fecef9a83f235e24caddea49caed82&#45;&gt;dir_b624d86e5671d82a613a73eb9566e66f</title>
<g id="a_edge15"><a xlink:href="dir_000073_000057.html" target="_top">
<path fill="none" stroke="#63b8ff" d="M102.21,-70.81C106.02,-67.95 110.51,-64.99 115,-63 165.79,-40.44 184.89,-47.65 243.13,-35.04"/>
<polygon fill="#63b8ff" stroke="#63b8ff" points="244.26,-38.37 253.23,-32.74 242.71,-31.54 244.26,-38.37"/>
</a>
</g>
<g id="a_edge15&#45;headlabel"><a xlink:href="dir_000073_000057.html" target="_top" xlink:title="1">
<text text-anchor="middle" x="241.38" y="-39.44" font-family="Helvetica,sans-Serif" font-size="10.00" fill="#63b8ff">1</text>
</a>
</g>
</g>
<!-- dir_d4fecef9a83f235e24caddea49caed82&#45;&gt;dir_b45e97d39ecfe8040b4610d59570e474 -->
<g id="edge14" class="edge">
<title>dir_d4fecef9a83f235e24caddea49caed82&#45;&gt;dir_b45e97d39ecfe8040b4610d59570e474</title>
<g id="a_edge14"><a xlink:href="dir_000073_000028.html" target="_top">
<path fill="none" stroke="#63b8ff" d="M103.44,-70.7C107.05,-68.08 111.11,-65.31 115,-63 129.83,-54.21 147.11,-45.78 161.44,-39.24"/>
<polygon fill="#63b8ff" stroke="#63b8ff" points="163.13,-42.32 170.82,-35.03 160.27,-35.93 163.13,-42.32"/>
</a>
</g>
<g id="a_edge14&#45;headlabel"><a xlink:href="dir_000073_000028.html" target="_top" xlink:title="2">
<text text-anchor="middle" x="161.01" y="-43.88" font-family="Helvetica,sans-Serif" font-size="10.00" fill="#63b8ff">2</text>
</a>
</g>
</g>
<!-- dir_d4fecef9a83f235e24caddea49caed82&#45;&gt;dir_d44c64559bbebec7f509842c48db8b23 -->
<g id="edge16" class="edge">
<title>dir_d4fecef9a83f235e24caddea49caed82&#45;&gt;dir_d44c64559bbebec7f509842c48db8b23</title>
<g id="a_edge16"><a xlink:href="dir_000073_000036.html" target="_top">
<path fill="none" stroke="#63b8ff" d="M101.68,-70.97C105.57,-67.98 110.26,-64.9 115,-63 194.51,-31.11 223.77,-51.09 309.03,-35.61"/>
<polygon fill="#63b8ff" stroke="#63b8ff" points="309.71,-39.04 318.86,-33.71 308.38,-32.17 309.71,-39.04"/>
</a>
</g>
<g id="a_edge16&#45;headlabel"><a xlink:href="dir_000073_000036.html" target="_top" xlink:title="18">
<text text-anchor="middle" x="306.72" y="-40.01" font-family="Helvetica,sans-Serif" font-size="10.00" fill="#63b8ff">18</text>
</a>
</g>
</g>
</g>
</svg>
