<?xml version="1.0" encoding="UTF-8" standalone="no"?>
<!DOCTYPE svg PUBLIC "-//W3C//DTD SVG 1.1//EN"
 "http://www.w3.org/Graphics/SVG/1.1/DTD/svg11.dtd">
<!-- Generated by graphviz version 2.43.0 (0)
 -->
<!-- Title: src/port Pages: 1 -->
<svg width="469pt" height="196pt"
 viewBox="0.00 0.00 469.00 196.00" xmlns="http://www.w3.org/2000/svg" xmlns:xlink="http://www.w3.org/1999/xlink">
<g id="graph0" class="graph" transform="scale(1 1) rotate(0) translate(4 192)">
<title>src/port</title>
<g id="clust1" class="cluster">
<title>clusterdir_68267d1309a1af8e8297ef4c3efbcdba</title>
<g id="a_clust1"><a xlink:href="dir_68267d1309a1af8e8297ef4c3efbcdba.html" target="_top" xlink:title="src">
<polygon fill="#daedff" stroke="#404040" stroke-dasharray="5,2" points="8,-8 8,-180 399,-180 399,-8 8,-8"/>
<text text-anchor="middle" x="203.5" y="-168" font-family="Helvetica,sans-Serif" font-size="10.00">src</text>
</a>
</g>
</g>
<g id="clust2" class="cluster">
<title>clusterdir_fd8b95245ffcce776715f180c056b450</title>
<g id="a_clust2"><a xlink:href="dir_fd8b95245ffcce776715f180c056b450.html" target="_top">
<polygon fill="#daedff" stroke="#404040" stroke-width="2" points="159,-63 159,-153 379,-153 379,-63 159,-63"/>
</a>
</g>
</g>
<!-- dir_2052808828190f934b76e979ee65af8a -->
<g id="node1" class="node">
<title>dir_2052808828190f934b76e979ee65af8a</title>
<g id="a_node1"><a xlink:href="dir_2052808828190f934b76e979ee65af8a.html" target="_top" xlink:title="engine">
<polygon fill="#4ea9ff" stroke="red" points="236,-35 186,-35 186,-16 236,-16 236,-35"/>
<text text-anchor="middle" x="211" y="-23" font-family="Helvetica,sans-Serif" font-size="10.00">engine</text>
</a>
</g>
</g>
<!-- dir_a63dedf81f1e5ea1d42bb45ef831eb8c -->
<g id="node2" class="node">
<title>dir_a63dedf81f1e5ea1d42bb45ef831eb8c</title>
<g id="a_node2"><a xlink:href="dir_a63dedf81f1e5ea1d42bb45ef831eb8c.html" target="_top" xlink:title="audio">
<polygon fill="#4ea9ff" stroke="#404040" points="60,-35 16,-35 16,-16 60,-16 60,-35"/>
<text text-anchor="middle" x="38" y="-23" font-family="Helvetica,sans-Serif" font-size="10.00">audio</text>
</a>
</g>
</g>
<!-- dir_b624d86e5671d82a613a73eb9566e66f -->
<g id="node3" class="node">
<title>dir_b624d86e5671d82a613a73eb9566e66f</title>
<g id="a_node3"><a xlink:href="dir_b624d86e5671d82a613a73eb9566e66f.html" target="_top" xlink:title="racing">
<polygon fill="#4ea9ff" stroke="#404040" points="390.5,-35 343.5,-35 343.5,-16 390.5,-16 390.5,-35"/>
<text text-anchor="middle" x="367" y="-23" font-family="Helvetica,sans-Serif" font-size="10.00">racing</text>
</a>
</g>
</g>
<!-- dir_b45e97d39ecfe8040b4610d59570e474 -->
<g id="node4" class="node">
<title>dir_b45e97d39ecfe8040b4610d59570e474</title>
<g id="a_node4"><a xlink:href="dir_b45e97d39ecfe8040b4610d59570e474.html" target="_top" xlink:title="enhancements">
<polygon fill="#4ea9ff" stroke="red" points="167.5,-35 78.5,-35 78.5,-16 167.5,-16 167.5,-35"/>
<text text-anchor="middle" x="123" y="-23" font-family="Helvetica,sans-Serif" font-size="10.00">enhancements</text>
</a>
</g>
</g>
<!-- dir_9af23f777b01ec74654e941bf6573352 -->
<g id="node5" class="node">
<title>dir_9af23f777b01ec74654e941bf6573352</title>
<g id="a_node5"><a xlink:href="dir_9af23f777b01ec74654e941bf6573352.html" target="_top" xlink:title="networking">
<polygon fill="#4ea9ff" stroke="#404040" points="325.5,-35 254.5,-35 254.5,-16 325.5,-16 325.5,-35"/>
<text text-anchor="middle" x="290" y="-23" font-family="Helvetica,sans-Serif" font-size="10.00">networking</text>
</a>
</g>
</g>
<!-- dir_fd8b95245ffcce776715f180c056b450 -->
<g id="node6" class="node">
<title>dir_fd8b95245ffcce776715f180c056b450</title>
<text text-anchor="middle" x="254" y="-133" font-family="Helvetica,sans-Serif" font-size="10.00">port</text>
</g>
<!-- dir_fd8b95245ffcce776715f180c056b450&#45;&gt;dir_2052808828190f934b76e979ee65af8a -->
<g id="edge1" class="edge">
<title>dir_fd8b95245ffcce776715f180c056b450&#45;&gt;dir_2052808828190f934b76e979ee65af8a</title>
<g id="a_edge1"><a xlink:href="dir_000056_000027.html" target="_top">
<path fill="none" stroke="#63b8ff" d="M235.66,-131.95C212.93,-127.69 175.11,-116.78 158,-90 151.54,-79.89 152.42,-73.62 158,-63 163.03,-53.43 171.83,-45.88 180.83,-40.19"/>
<polygon fill="#63b8ff" stroke="#63b8ff" points="182.79,-43.1 189.76,-35.12 179.34,-37.01 182.79,-43.1"/>
</a>
</g>
<g id="a_edge1&#45;headlabel"><a xlink:href="dir_000056_000027.html" target="_top" xlink:title="50">
<text text-anchor="middle" x="181.07" y="-44.84" font-family="Helvetica,sans-Serif" font-size="10.00" fill="#63b8ff">50</text>
</a>
</g>
</g>
<!-- dir_fd8b95245ffcce776715f180c056b450&#45;&gt;dir_a63dedf81f1e5ea1d42bb45ef831eb8c -->
<g id="edge3" class="edge">
<title>dir_fd8b95245ffcce776715f180c056b450&#45;&gt;dir_a63dedf81f1e5ea1d42bb45ef831eb8c</title>
<g id="a_edge3"><a xlink:href="dir_000056_000004.html" target="_top">
<path fill="none" stroke="#63b8ff" d="M235.69,-127.38C214.69,-119.06 179.39,-104.56 150,-90 118.28,-74.28 82.94,-53.71 60.6,-40.3"/>
<polygon fill="#63b8ff" stroke="#63b8ff" points="62.24,-37.2 51.87,-35.03 58.62,-43.2 62.24,-37.2"/>
</a>
</g>
<g id="a_edge3&#45;headlabel"><a xlink:href="dir_000056_000004.html" target="_top" xlink:title="8">
<text text-anchor="middle" x="66.79" y="-34.13" font-family="Helvetica,sans-Serif" font-size="10.00" fill="#63b8ff">8</text>
</a>
</g>
</g>
<!-- dir_fd8b95245ffcce776715f180c056b450&#45;&gt;dir_b624d86e5671d82a613a73eb9566e66f -->
<g id="edge4" class="edge">
<title>dir_fd8b95245ffcce776715f180c056b450&#45;&gt;dir_b624d86e5671d82a613a73eb9566e66f</title>
<g id="a_edge4"><a xlink:href="dir_000056_000058.html" target="_top">
<path fill="none" stroke="#63b8ff" d="M272.44,-134.19C301.04,-132.59 355.35,-124.85 380,-90 389.52,-76.55 383.89,-57.7 377.33,-44.04"/>
<polygon fill="#63b8ff" stroke="#63b8ff" points="380.39,-42.34 372.6,-35.16 374.21,-45.63 380.39,-42.34"/>
</a>
</g>
<g id="a_edge4&#45;headlabel"><a xlink:href="dir_000056_000058.html" target="_top" xlink:title="3">
<text text-anchor="middle" x="384.59" y="-41.67" font-family="Helvetica,sans-Serif" font-size="10.00" fill="#63b8ff">3</text>
</a>
</g>
</g>
<!-- dir_693e9fc1d56d07d615a96f6baaa3ee9b -->
<g id="node7" class="node">
<title>dir_693e9fc1d56d07d615a96f6baaa3ee9b</title>
<g id="a_node7"><a xlink:href="dir_693e9fc1d56d07d615a96f6baaa3ee9b.html" target="_top" xlink:title="interpolation">
<polygon fill="#4ea9ff" stroke="#404040" points="293.5,-90 214.5,-90 214.5,-71 293.5,-71 293.5,-90"/>
<text text-anchor="middle" x="254" y="-78" font-family="Helvetica,sans-Serif" font-size="10.00">interpolation</text>
</a>
</g>
</g>
<!-- dir_fd8b95245ffcce776715f180c056b450&#45;&gt;dir_693e9fc1d56d07d615a96f6baaa3ee9b -->
<g id="edge2" class="edge">
<title>dir_fd8b95245ffcce776715f180c056b450&#45;&gt;dir_693e9fc1d56d07d615a96f6baaa3ee9b</title>
<g id="a_edge2"><a xlink:href="dir_000056_000037.html" target="_top">
<path fill="none" stroke="#63b8ff" d="M254,-125.75C254,-118.8 254,-108.85 254,-100.13"/>
<polygon fill="#63b8ff" stroke="#63b8ff" points="257.5,-100.09 254,-90.09 250.5,-100.09 257.5,-100.09"/>
</a>
</g>
<g id="a_edge2&#45;headlabel"><a xlink:href="dir_000056_000037.html" target="_top" xlink:title="1">
<text text-anchor="middle" x="260.34" y="-101.18" font-family="Helvetica,sans-Serif" font-size="10.00" fill="#63b8ff">1</text>
</a>
</g>
</g>
<!-- dir_d6c1aceaca3b5d40d9e809aade2680aa -->
<g id="node8" class="node">
<title>dir_d6c1aceaca3b5d40d9e809aade2680aa</title>
<g id="a_node8"><a xlink:href="dir_d6c1aceaca3b5d40d9e809aade2680aa.html" target="_top" xlink:title="resource">
<polygon fill="#4ea9ff" stroke="#404040" points="370.5,-90 311.5,-90 311.5,-71 370.5,-71 370.5,-90"/>
<text text-anchor="middle" x="341" y="-78" font-family="Helvetica,sans-Serif" font-size="10.00">resource</text>
</a>
</g>
</g>
<!-- dir_fd8b95245ffcce776715f180c056b450&#45;&gt;dir_d6c1aceaca3b5d40d9e809aade2680aa -->
<g id="edge7" class="edge">
<title>dir_fd8b95245ffcce776715f180c056b450&#45;&gt;dir_d6c1aceaca3b5d40d9e809aade2680aa</title>
<g id="a_edge7"><a xlink:href="dir_000056_000061.html" target="_top">
<path fill="none" stroke="#63b8ff" d="M267.98,-125.98C281.47,-117.77 302.13,-105.18 318.04,-95.49"/>
<polygon fill="#63b8ff" stroke="#63b8ff" points="320.05,-98.36 326.77,-90.17 316.41,-92.38 320.05,-98.36"/>
</a>
</g>
<g id="a_edge7&#45;headlabel"><a xlink:href="dir_000056_000061.html" target="_top" xlink:title="34">
<text text-anchor="middle" x="318.46" y="-100.16" font-family="Helvetica,sans-Serif" font-size="10.00" fill="#63b8ff">34</text>
</a>
</g>
</g>
<!-- dir_d4fecef9a83f235e24caddea49caed82 -->
<g id="node9" class="node">
<title>dir_d4fecef9a83f235e24caddea49caed82</title>
<g id="a_node9"><a xlink:href="dir_d4fecef9a83f235e24caddea49caed82.html" target="_top" xlink:title="ui">
<polygon fill="#4ea9ff" stroke="#404040" points="196.5,-90 167.5,-90 167.5,-71 196.5,-71 196.5,-90"/>
<text text-anchor="middle" x="182" y="-78" font-family="Helvetica,sans-Serif" font-size="10.00">ui</text>
</a>
</g>
</g>
<!-- dir_fd8b95245ffcce776715f180c056b450&#45;&gt;dir_d4fecef9a83f235e24caddea49caed82 -->
<g id="edge6" class="edge">
<title>dir_fd8b95245ffcce776715f180c056b450&#45;&gt;dir_d4fecef9a83f235e24caddea49caed82</title>
<g id="a_edge6"><a xlink:href="dir_000056_000074.html" target="_top">
<path fill="none" stroke="#63b8ff" d="M242.43,-125.98C231.58,-118 215.12,-105.88 202.12,-96.31"/>
<polygon fill="#63b8ff" stroke="#63b8ff" points="203.91,-93.28 193.78,-90.17 199.76,-98.92 203.91,-93.28"/>
</a>
</g>
<g id="a_edge6&#45;headlabel"><a xlink:href="dir_000056_000074.html" target="_top" xlink:title="1">
<text text-anchor="middle" x="208.48" y="-90.62" font-family="Helvetica,sans-Serif" font-size="10.00" fill="#63b8ff">1</text>
</a>
</g>
</g>
<!-- dir_d44c64559bbebec7f509842c48db8b23 -->
<g id="node10" class="node">
<title>dir_d44c64559bbebec7f509842c48db8b23</title>
<g id="a_node10"><a xlink:href="dir_d44c64559bbebec7f509842c48db8b23.html" target="_top" xlink:title="include">
<polygon fill="#daedff" stroke="red" points="461,-35 409,-35 409,-16 461,-16 461,-35"/>
<text text-anchor="middle" x="435" y="-23" font-family="Helvetica,sans-Serif" font-size="10.00">include</text>
</a>
</g>
</g>
<!-- dir_fd8b95245ffcce776715f180c056b450&#45;&gt;dir_d44c64559bbebec7f509842c48db8b23 -->
<g id="edge5" class="edge">
<title>dir_fd8b95245ffcce776715f180c056b450&#45;&gt;dir_d44c64559bbebec7f509842c48db8b23</title>
<g id="a_edge5"><a xlink:href="dir_000056_000036.html" target="_top">
<path fill="none" stroke="#63b8ff" d="M272.2,-133.61C302.63,-131.22 364.29,-122.41 403,-90 416.88,-78.38 425.36,-59.24 430.07,-45.01"/>
<polygon fill="#63b8ff" stroke="#63b8ff" points="433.46,-45.87 432.96,-35.28 426.75,-43.87 433.46,-45.87"/>
</a>
</g>
<g id="a_edge5&#45;headlabel"><a xlink:href="dir_000056_000036.html" target="_top" xlink:title="36">
<text text-anchor="middle" x="435.16" y="-47.62" font-family="Helvetica,sans-Serif" font-size="10.00" fill="#63b8ff">36</text>
</a>
</g>
</g>
<!-- dir_693e9fc1d56d07d615a96f6baaa3ee9b&#45;&gt;dir_2052808828190f934b76e979ee65af8a -->
<g id="edge8" class="edge">
<title>dir_693e9fc1d56d07d615a96f6baaa3ee9b&#45;&gt;dir_2052808828190f934b76e979ee65af8a</title>
<g id="a_edge8"><a xlink:href="dir_000037_000027.html" target="_top">
<path fill="none" stroke="#63b8ff" d="M246.9,-70.75C240.83,-63.26 231.91,-52.28 224.49,-43.13"/>
<polygon fill="#63b8ff" stroke="#63b8ff" points="226.99,-40.65 217.97,-35.09 221.55,-45.06 226.99,-40.65"/>
</a>
</g>
<g id="a_edge8&#45;headlabel"><a xlink:href="dir_000037_000027.html" target="_top" xlink:title="2">
<text text-anchor="middle" x="231.46" y="-39.15" font-family="Helvetica,sans-Serif" font-size="10.00" fill="#63b8ff">2</text>
</a>
</g>
</g>
<!-- dir_693e9fc1d56d07d615a96f6baaa3ee9b&#45;&gt;dir_b624d86e5671d82a613a73eb9566e66f -->
<g id="edge9" class="edge">
<title>dir_693e9fc1d56d07d615a96f6baaa3ee9b&#45;&gt;dir_b624d86e5671d82a613a73eb9566e66f</title>
<g id="a_edge9"><a xlink:href="dir_000037_000058.html" target="_top">
<path fill="none" stroke="#63b8ff" d="M272.16,-70.98C290.25,-62.5 318.28,-49.35 339.19,-39.54"/>
<polygon fill="#63b8ff" stroke="#63b8ff" points="340.95,-42.59 348.51,-35.17 337.97,-36.25 340.95,-42.59"/>
</a>
</g>
<g id="a_edge9&#45;headlabel"><a xlink:href="dir_000037_000058.html" target="_top" xlink:title="1">
<text text-anchor="middle" x="338.9" y="-44.18" font-family="Helvetica,sans-Serif" font-size="10.00" fill="#63b8ff">1</text>
</a>
</g>
</g>
<!-- dir_693e9fc1d56d07d615a96f6baaa3ee9b&#45;&gt;dir_d44c64559bbebec7f509842c48db8b23 -->
<g id="edge10" class="edge">
<title>dir_693e9fc1d56d07d615a96f6baaa3ee9b&#45;&gt;dir_d44c64559bbebec7f509842c48db8b23</title>
<g id="a_edge10"><a xlink:href="dir_000037_000036.html" target="_top">
<path fill="none" stroke="#63b8ff" d="M277.83,-70.98C285.51,-68.32 294.09,-65.44 302,-63 320.04,-57.43 366.32,-44.87 399.2,-36.05"/>
<polygon fill="#63b8ff" stroke="#63b8ff" points="400.18,-39.41 408.93,-33.44 398.37,-32.65 400.18,-39.41"/>
</a>
</g>
<g id="a_edge10&#45;headlabel"><a xlink:href="dir_000037_000036.html" target="_top" xlink:title="5">
<text text-anchor="middle" x="397.44" y="-40.59" font-family="Helvetica,sans-Serif" font-size="10.00" fill="#63b8ff">5</text>
</a>
</g>
</g>
<!-- dir_d6c1aceaca3b5d40d9e809aade2680aa&#45;&gt;dir_d44c64559bbebec7f509842c48db8b23 -->
<g id="edge11" class="edge">
<title>dir_d6c1aceaca3b5d40d9e809aade2680aa&#45;&gt;dir_d44c64559bbebec7f509842c48db8b23</title>
<g id="a_edge11"><a xlink:href="dir_000061_000036.html" target="_top">
<path fill="none" stroke="#63b8ff" d="M356.1,-70.98C370.82,-62.69 393.42,-49.94 410.67,-40.22"/>
<polygon fill="#63b8ff" stroke="#63b8ff" points="412.63,-43.13 419.62,-35.17 409.19,-37.03 412.63,-43.13"/>
</a>
</g>
<g id="a_edge11&#45;headlabel"><a xlink:href="dir_000061_000036.html" target="_top" xlink:title="5">
<text text-anchor="middle" x="410.89" y="-44.87" font-family="Helvetica,sans-Serif" font-size="10.00" fill="#63b8ff">5</text>
</a>
</g>
</g>
<!-- dir_d4fecef9a83f235e24caddea49caed82&#45;&gt;dir_2052808828190f934b76e979ee65af8a -->
<g id="edge12" class="edge">
<title>dir_d4fecef9a83f235e24caddea49caed82&#45;&gt;dir_2052808828190f934b76e979ee65af8a</title>
<g id="a_edge12"><a xlink:href="dir_000074_000027.html" target="_top">
<path fill="none" stroke="#63b8ff" d="M186.79,-70.75C190.76,-63.49 196.53,-52.95 201.43,-43.98"/>
<polygon fill="#63b8ff" stroke="#63b8ff" points="204.57,-45.54 206.3,-35.09 198.43,-42.18 204.57,-45.54"/>
</a>
</g>
<g id="a_edge12&#45;headlabel"><a xlink:href="dir_000074_000027.html" target="_top" xlink:title="9">
<text text-anchor="middle" x="205.34" y="-47.56" font-family="Helvetica,sans-Serif" font-size="10.00" fill="#63b8ff">9</text>
</a>
</g>
</g>
<!-- dir_d4fecef9a83f235e24caddea49caed82&#45;&gt;dir_a63dedf81f1e5ea1d42bb45ef831eb8c -->
<g id="edge14" class="edge">
<title>dir_d4fecef9a83f235e24caddea49caed82&#45;&gt;dir_a63dedf81f1e5ea1d42bb45ef831eb8c</title>
<g id="a_edge14"><a xlink:href="dir_000074_000004.html" target="_top">
<path fill="none" stroke="#63b8ff" d="M173.7,-70.92C170.57,-68.07 166.83,-65.09 163,-63 158.81,-60.71 105.78,-45.57 70.15,-35.52"/>
<polygon fill="#63b8ff" stroke="#63b8ff" points="70.75,-32.05 60.17,-32.71 68.85,-38.79 70.75,-32.05"/>
</a>
</g>
<g id="a_edge14&#45;headlabel"><a xlink:href="dir_000074_000004.html" target="_top" xlink:title="4">
<text text-anchor="middle" x="74.98" y="-27.79" font-family="Helvetica,sans-Serif" font-size="10.00" fill="#63b8ff">4</text>
</a>
</g>
</g>
<!-- dir_d4fecef9a83f235e24caddea49caed82&#45;&gt;dir_b624d86e5671d82a613a73eb9566e66f -->
<g id="edge16" class="edge">
<title>dir_d4fecef9a83f235e24caddea49caed82&#45;&gt;dir_b624d86e5671d82a613a73eb9566e66f</title>
<g id="a_edge16"><a xlink:href="dir_000074_000058.html" target="_top">
<path fill="none" stroke="#63b8ff" d="M192.21,-70.8C196.01,-67.94 200.51,-64.99 205,-63 256.18,-40.31 275.48,-47.88 333.25,-35.24"/>
<polygon fill="#63b8ff" stroke="#63b8ff" points="334.31,-38.59 343.27,-32.94 332.74,-31.77 334.31,-38.59"/>
</a>
</g>
<g id="a_edge16&#45;headlabel"><a xlink:href="dir_000074_000058.html" target="_top" xlink:title="1">
<text text-anchor="middle" x="331.44" y="-39.67" font-family="Helvetica,sans-Serif" font-size="10.00" fill="#63b8ff">1</text>
</a>
</g>
</g>
<!-- dir_d4fecef9a83f235e24caddea49caed82&#45;&gt;dir_b45e97d39ecfe8040b4610d59570e474 -->
<g id="edge15" class="edge">
<title>dir_d4fecef9a83f235e24caddea49caed82&#45;&gt;dir_b45e97d39ecfe8040b4610d59570e474</title>
<g id="a_edge15"><a xlink:href="dir_000074_000028.html" target="_top">
<path fill="none" stroke="#63b8ff" d="M172.52,-70.98C163.8,-63.15 150.66,-51.34 140.1,-41.86"/>
<polygon fill="#63b8ff" stroke="#63b8ff" points="142.43,-39.25 132.65,-35.17 137.75,-44.46 142.43,-39.25"/>
</a>
</g>
<g id="a_edge15&#45;headlabel"><a xlink:href="dir_000074_000028.html" target="_top" xlink:title="2">
<text text-anchor="middle" x="147" y="-37.04" font-family="Helvetica,sans-Serif" font-size="10.00" fill="#63b8ff">2</text>
</a>
</g>
</g>
<!-- dir_d4fecef9a83f235e24caddea49caed82&#45;&gt;dir_9af23f777b01ec74654e941bf6573352 -->
<g id="edge13" class="edge">
<title>dir_d4fecef9a83f235e24caddea49caed82&#45;&gt;dir_9af23f777b01ec74654e941bf6573352</title>
<g id="a_edge13"><a xlink:href="dir_000074_000049.html" target="_top">
<path fill="none" stroke="#63b8ff" d="M192.91,-70.94C196.63,-68.22 200.89,-65.32 205,-63 221.45,-53.72 240.72,-45.26 256.75,-38.83"/>
<polygon fill="#63b8ff" stroke="#63b8ff" points="258.23,-42.01 266.26,-35.1 255.67,-35.49 258.23,-42.01"/>
</a>
</g>
<g id="a_edge13&#45;headlabel"><a xlink:href="dir_000074_000049.html" target="_top" xlink:title="1">
<text text-anchor="middle" x="255.92" y="-43.46" font-family="Helvetica,sans-Serif" font-size="10.00" fill="#63b8ff">1</text>
</a>
</g>
</g>
<!-- dir_d4fecef9a83f235e24caddea49caed82&#45;&gt;dir_d44c64559bbebec7f509842c48db8b23 -->
<g id="edge17" class="edge">
<title>dir_d4fecef9a83f235e24caddea49caed82&#45;&gt;dir_d44c64559bbebec7f509842c48db8b23</title>
<g id="a_edge17"><a xlink:href="dir_000074_000036.html" target="_top">
<path fill="none" stroke="#63b8ff" d="M191.68,-70.97C195.57,-67.98 200.26,-64.9 205,-63 284.51,-31.11 313.77,-51.09 399.03,-35.61"/>
<polygon fill="#63b8ff" stroke="#63b8ff" points="399.71,-39.04 408.86,-33.71 398.38,-32.17 399.71,-39.04"/>
</a>
</g>
<g id="a_edge17&#45;headlabel"><a xlink:href="dir_000074_000036.html" target="_top" xlink:title="21">
<text text-anchor="middle" x="396.72" y="-40.01" font-family="Helvetica,sans-Serif" font-size="10.00" fill="#63b8ff">21</text>
</a>
</g>
</g>
</g>
</svg>
