<?xml version="1.0" encoding="UTF-8" standalone="no"?>
<!DOCTYPE svg PUBLIC "-//W3C//DTD SVG 1.1//EN"
 "http://www.w3.org/Graphics/SVG/1.1/DTD/svg11.dtd">
<!-- Generated by graphviz version 2.43.0 (0)
 -->
<!-- Title: src/menu_items.h Pages: 1 -->
<!--zoomable 203 -->

<svg id="main" version="1.1" xmlns="http://www.w3.org/2000/svg" xmlns:xlink="http://www.w3.org/1999/xlink" xml:space="preserve" onload="init(evt)">

<style type="text/css"><![CDATA[
.node, .edge {opacity: 0.7;}
.node.selected, .edge.selected {opacity: 1;}
.edge:hover path { stroke: red; }
.edge:hover polygon { stroke: red; fill: red; }
]]></style>

<defs>
  <circle id="rim" cx="0" cy="0" r="7"/>
  <circle id="rim2" cx="0" cy="0" r="3.5"/>
  <g id="zoomPlus">
    <use xlink:href="#rim" fill="#404040"><set attributeName="fill" to="#808080" begin="zoomplus.mouseover" end="zoomplus.mouseout"/></use>
    <path d="M-4,0h8M0,-4v8" fill="none" stroke="white" stroke-width="1.5" pointer-events="none"/>
  </g>
  <g id="zoomMin">
    <use xlink:href="#rim" fill="#404040"><set attributeName="fill" to="#808080" begin="zoomminus.mouseover" end="zoomminus.mouseout"/></use>
    <path d="M-4,0h8" fill="none" stroke="white" stroke-width="1.5" pointer-events="none"/>
  </g>
  <g id="arrowUp" transform="translate(30 24)">
    <use xlink:href="#rim"/>
    <path pointer-events="none" fill="none" stroke="white" stroke-width="1.5" d="M0,-3.0v7 M-2.5,-0.5L0,-3.0L2.5,-0.5"/>
  </g>
  <g id="arrowRight" transform="rotate(90) translate(36 -43)">
    <use xlink:href="#rim"/>
    <path pointer-events="none" fill="none" stroke="white" stroke-width="1.5" d="M0,-3.0v7 M-2.5,-0.5L0,-3.0L2.5,-0.5"/>
  </g>
  <g id="arrowDown" transform="rotate(180) translate(-30 -48)">
    <use xlink:href="#rim"/>
    <path pointer-events="none" fill="none" stroke="white" stroke-width="1.5" d="M0,-3.0v7 M-2.5,-0.5L0,-3.0L2.5,-0.5"/>
  </g>
  <g id="arrowLeft" transform="rotate(270) translate(-36 17)">
    <use xlink:href="#rim"/>
    <path pointer-events="none" fill="none" stroke="white" stroke-width="1.5" d="M0,-3.0v7 M-2.5,-0.5L0,-3.0L2.5,-0.5"/>
  </g>
  <g id="resetDef">
    <use xlink:href="#rim2" fill="#404040"><set attributeName="fill" to="#808080" begin="reset.mouseover" end="reset.mouseout"/></use>
  </g>
</defs>
<script type="application/ecmascript">
var viewWidth = 3217;
var viewHeight = 203;
var sectionId = 'dynsection-1';
</script>
<script type="application/ecmascript" xlink:href="svg.min.js"/>
<svg id="graph" class="graph">
<g id="viewport">
<title>src/menu_items.h</title>
<!-- Node1 -->
<g id="Node000001" class="node">
<title>Node1</title>
<g id="a_Node000001"><a xlink:title=" ">
<polygon fill="#999999" stroke="#666666" points="1776.5,-195 1672.5,-195 1672.5,-176 1776.5,-176 1776.5,-195"/>
<text text-anchor="middle" x="1724.5" y="-183" font-family="Helvetica,sans-Serif" font-size="10.00">src/menu_items.h</text>
</a>
</g>
</g>
<!-- Node2 -->
<g id="Node000002" class="node">
<title>Node2</title>
<g id="a_Node000002"><a xlink:href="external_8c.html" target="_top" xlink:title=" ">
<polygon fill="white" stroke="#666666" points="113,-134.5 0,-134.5 0,-115.5 113,-115.5 113,-134.5"/>
<text text-anchor="middle" x="56.5" y="-122.5" font-family="Helvetica,sans-Serif" font-size="10.00">src/audio/external.c</text>
</a>
</g>
</g>
<!-- Node1&#45;&gt;Node2 -->
<g id="edge1_Node000001_Node000002" class="edge">
<title>Node1&#45;&gt;Node2</title>
<g id="a_edge1_Node000001_Node000002"><a xlink:title=" ">
<path fill="none" stroke="#63b8ff" d="M1661.92,-184.28C1404.75,-183.13 428.56,-176.41 122.5,-140 112.15,-138.77 101.02,-136.7 90.9,-134.53"/>
<polygon fill="#63b8ff" stroke="#63b8ff" points="1662.18,-187.78 1672.19,-184.32 1662.21,-180.78 1662.18,-187.78"/>
</a>
</g>
</g>
<!-- Node3 -->
<g id="Node000003" class="node">
<title>Node3</title>
<g id="a_Node000003"><a xlink:href="code__800029B0_8c.html" target="_top" xlink:title=" ">
<polygon fill="white" stroke="#666666" points="250,-134.5 131,-134.5 131,-115.5 250,-115.5 250,-134.5"/>
<text text-anchor="middle" x="190.5" y="-122.5" font-family="Helvetica,sans-Serif" font-size="10.00">src/code_800029B0.c</text>
</a>
</g>
</g>
<!-- Node1&#45;&gt;Node3 -->
<g id="edge2_Node000001_Node000003" class="edge">
<title>Node1&#45;&gt;Node3</title>
<g id="a_edge2_Node000001_Node000003"><a xlink:title=" ">
<path fill="none" stroke="#63b8ff" d="M1662.12,-184.02C1419.36,-181.92 537.5,-172.19 259.5,-140 248.69,-138.75 237.06,-136.68 226.48,-134.5"/>
<polygon fill="#63b8ff" stroke="#63b8ff" points="1662.15,-187.52 1672.18,-184.1 1662.21,-180.52 1662.15,-187.52"/>
</a>
</g>
</g>
<!-- Node4 -->
<g id="Node000004" class="node">
<title>Node4</title>
<g id="a_Node000004"><a xlink:href="code__80005FD0_8c.html" target="_top" xlink:title=" ">
<polygon fill="white" stroke="#666666" points="388.5,-134.5 268.5,-134.5 268.5,-115.5 388.5,-115.5 388.5,-134.5"/>
<text text-anchor="middle" x="328.5" y="-122.5" font-family="Helvetica,sans-Serif" font-size="10.00">src/code_80005FD0.c</text>
</a>
</g>
</g>
<!-- Node1&#45;&gt;Node4 -->
<g id="edge3_Node000001_Node000004" class="edge">
<title>Node1&#45;&gt;Node4</title>
<g id="a_edge3_Node000001_Node000004"><a xlink:title=" ">
<path fill="none" stroke="#63b8ff" d="M1662.08,-183.76C1434.27,-180.86 647.92,-168.93 398.5,-140 387.67,-138.74 376.01,-136.7 365.38,-134.55"/>
<polygon fill="#63b8ff" stroke="#63b8ff" points="1662.15,-187.26 1672.19,-183.89 1662.23,-180.26 1662.15,-187.26"/>
</a>
</g>
</g>
<!-- Node5 -->
<g id="Node000005" class="node">
<title>Node5</title>
<g id="a_Node000005"><a xlink:href="code__8006E9C0_8c.html" target="_top" xlink:title=" ">
<polygon fill="white" stroke="#666666" points="526,-134.5 407,-134.5 407,-115.5 526,-115.5 526,-134.5"/>
<text text-anchor="middle" x="466.5" y="-122.5" font-family="Helvetica,sans-Serif" font-size="10.00">src/code_8006E9C0.c</text>
</a>
</g>
</g>
<!-- Node1&#45;&gt;Node5 -->
<g id="edge4_Node000001_Node000005" class="edge">
<title>Node1&#45;&gt;Node5</title>
<g id="a_edge4_Node000001_Node000005"><a xlink:title=" ">
<path fill="none" stroke="#63b8ff" d="M1662.24,-183.51C1450.16,-179.92 756.86,-166.42 535.5,-140 524.82,-138.73 513.33,-136.67 502.85,-134.53"/>
<polygon fill="#63b8ff" stroke="#63b8ff" points="1662.21,-187.01 1672.27,-183.68 1662.33,-180.01 1662.21,-187.01"/>
</a>
</g>
</g>
<!-- Node6 -->
<g id="Node000006" class="node">
<title>Node6</title>
<g id="a_Node000006"><a xlink:href="code__800AF9B0_8c.html" target="_top" xlink:title=" ">
<polygon fill="white" stroke="#666666" points="664.5,-134.5 544.5,-134.5 544.5,-115.5 664.5,-115.5 664.5,-134.5"/>
<text text-anchor="middle" x="604.5" y="-122.5" font-family="Helvetica,sans-Serif" font-size="10.00">src/code_800AF9B0.c</text>
</a>
</g>
</g>
<!-- Node1&#45;&gt;Node6 -->
<g id="edge5_Node000001_Node000006" class="edge">
<title>Node1&#45;&gt;Node6</title>
<g id="a_edge5_Node000001_Node000006"><a xlink:title=" ">
<path fill="none" stroke="#63b8ff" d="M1662.36,-183.16C1466.99,-178.74 866.74,-163.55 673.5,-140 662.94,-138.71 651.59,-136.68 641.21,-134.57"/>
<polygon fill="#63b8ff" stroke="#63b8ff" points="1662.37,-186.66 1672.45,-183.39 1662.53,-179.66 1662.37,-186.66"/>
</a>
</g>
</g>
<!-- Node7 -->
<g id="Node000007" class="node">
<title>Node7</title>
<g id="a_Node000007"><a xlink:href="all__variables_8h.html" target="_top" xlink:title=" ">
<polygon fill="white" stroke="#666666" points="820.5,-134.5 682.5,-134.5 682.5,-115.5 820.5,-115.5 820.5,-134.5"/>
<text text-anchor="middle" x="751.5" y="-122.5" font-family="Helvetica,sans-Serif" font-size="10.00">src/debug/all_variables.h</text>
</a>
</g>
</g>
<!-- Node1&#45;&gt;Node7 -->
<g id="edge6_Node000001_Node000007" class="edge">
<title>Node1&#45;&gt;Node7</title>
<g id="a_edge6_Node000001_Node000007"><a xlink:title=" ">
<path fill="none" stroke="#63b8ff" d="M1662.32,-184.09C1516.54,-182.54 1141.52,-175.16 830.5,-140 818.6,-138.65 805.78,-136.63 794,-134.54"/>
<polygon fill="#63b8ff" stroke="#63b8ff" points="1662.38,-187.59 1672.42,-184.19 1662.45,-180.59 1662.38,-187.59"/>
</a>
</g>
</g>
<!-- Node10 -->
<g id="Node000010" class="node">
<title>Node10</title>
<g id="a_Node000010"><a xlink:href="effects_8c.html" target="_top" xlink:title=" ">
<polygon fill="white" stroke="#666666" points="914,-134.5 839,-134.5 839,-115.5 914,-115.5 914,-134.5"/>
<text text-anchor="middle" x="876.5" y="-122.5" font-family="Helvetica,sans-Serif" font-size="10.00">src/effects.c</text>
</a>
</g>
</g>
<!-- Node1&#45;&gt;Node10 -->
<g id="edge9_Node000001_Node000010" class="edge">
<title>Node1&#45;&gt;Node10</title>
<g id="a_edge9_Node000001_Node000010"><a xlink:title=" ">
<path fill="none" stroke="#63b8ff" d="M1662.05,-182.92C1499.33,-178.5 1065.15,-164.68 923.5,-140 916.12,-138.71 908.26,-136.66 901.12,-134.51"/>
<polygon fill="#63b8ff" stroke="#63b8ff" points="1662.28,-186.43 1672.37,-183.2 1662.47,-179.43 1662.28,-186.43"/>
</a>
</g>
</g>
<!-- Node11 -->
<g id="Node000011" class="node">
<title>Node11</title>
<g id="a_Node000011"><a xlink:href="ceremony__and__credits_8c.html" target="_top" xlink:title=" ">
<polygon fill="white" stroke="#666666" points="1051,-140 932,-140 932,-110 1051,-110 1051,-140"/>
<text text-anchor="start" x="940" y="-128" font-family="Helvetica,sans-Serif" font-size="10.00">src/ending/ceremony</text>
<text text-anchor="middle" x="991.5" y="-117" font-family="Helvetica,sans-Serif" font-size="10.00">_and_credits.c</text>
</a>
</g>
</g>
<!-- Node1&#45;&gt;Node11 -->
<g id="edge10_Node000001_Node000011" class="edge">
<title>Node1&#45;&gt;Node11</title>
<g id="a_edge10_Node000001_Node000011"><a xlink:title=" ">
<path fill="none" stroke="#63b8ff" d="M1661.89,-183.08C1543.81,-179.8 1280.3,-169.53 1060.5,-140 1057.47,-139.59 1054.38,-139.13 1051.26,-138.63"/>
<polygon fill="#63b8ff" stroke="#63b8ff" points="1662.09,-186.59 1672.18,-183.36 1662.28,-179.59 1662.09,-186.59"/>
</a>
</g>
</g>
<!-- Node12 -->
<g id="Node000012" class="node">
<title>Node12</title>
<g id="a_Node000012"><a xlink:href="code__80280000_8c.html" target="_top" xlink:title=" ">
<polygon fill="white" stroke="#666666" points="1224,-134.5 1069,-134.5 1069,-115.5 1224,-115.5 1224,-134.5"/>
<text text-anchor="middle" x="1146.5" y="-122.5" font-family="Helvetica,sans-Serif" font-size="10.00">src/ending/code_80280000.c</text>
</a>
</g>
</g>
<!-- Node1&#45;&gt;Node12 -->
<g id="edge11_Node000001_Node000012" class="edge">
<title>Node1&#45;&gt;Node12</title>
<g id="a_edge11_Node000001_Node000012"><a xlink:title=" ">
<path fill="none" stroke="#63b8ff" d="M1662.29,-180.25C1568.95,-173.55 1387.19,-159.31 1233.5,-140 1221.2,-138.46 1207.98,-136.49 1195.65,-134.52"/>
<polygon fill="#63b8ff" stroke="#63b8ff" points="1662.19,-183.75 1672.41,-180.97 1662.69,-176.77 1662.19,-183.75"/>
</a>
</g>
</g>
<!-- Node13 -->
<g id="Node000013" class="node">
<title>Node13</title>
<g id="a_Node000013"><a xlink:href="code__80281780_8c.html" target="_top" xlink:title=" ">
<polygon fill="white" stroke="#666666" points="1397,-134.5 1242,-134.5 1242,-115.5 1397,-115.5 1397,-134.5"/>
<text text-anchor="middle" x="1319.5" y="-122.5" font-family="Helvetica,sans-Serif" font-size="10.00">src/ending/code_80281780.c</text>
</a>
</g>
</g>
<!-- Node1&#45;&gt;Node13 -->
<g id="edge12_Node000001_Node000013" class="edge">
<title>Node1&#45;&gt;Node13</title>
<g id="a_edge12_Node000001_Node000013"><a xlink:title=" ">
<path fill="none" stroke="#63b8ff" d="M1662.45,-176.2C1598.31,-167.53 1495.32,-153.36 1406.5,-140 1395.15,-138.29 1382.99,-136.39 1371.46,-134.54"/>
<polygon fill="#63b8ff" stroke="#63b8ff" points="1662.02,-179.67 1672.4,-177.54 1662.96,-172.74 1662.02,-179.67"/>
</a>
</g>
</g>
<!-- Node14 -->
<g id="Node000014" class="node">
<title>Node14</title>
<g id="a_Node000014"><a xlink:href="code__80281C40_8c.html" target="_top" xlink:title=" ">
<polygon fill="white" stroke="#666666" points="1570,-134.5 1415,-134.5 1415,-115.5 1570,-115.5 1570,-134.5"/>
<text text-anchor="middle" x="1492.5" y="-122.5" font-family="Helvetica,sans-Serif" font-size="10.00">src/ending/code_80281C40.c</text>
</a>
</g>
</g>
<!-- Node1&#45;&gt;Node14 -->
<g id="edge13_Node000001_Node000014" class="edge">
<title>Node1&#45;&gt;Node14</title>
<g id="a_edge13_Node000001_Node000014"><a xlink:title=" ">
<path fill="none" stroke="#63b8ff" d="M1681.03,-173.54C1636.18,-162.23 1567.19,-144.83 1526.28,-134.52"/>
<polygon fill="#63b8ff" stroke="#63b8ff" points="1680.21,-176.94 1690.77,-175.99 1681.92,-170.15 1680.21,-176.94"/>
</a>
</g>
</g>
<!-- Node15 -->
<g id="Node000015" class="node">
<title>Node15</title>
<g id="a_Node000015"><a xlink:href="HM__Intro_8cpp.html" target="_top" xlink:title=" ">
<polygon fill="white" stroke="#666666" points="1722.5,-134.5 1588.5,-134.5 1588.5,-115.5 1722.5,-115.5 1722.5,-134.5"/>
<text text-anchor="middle" x="1655.5" y="-122.5" font-family="Helvetica,sans-Serif" font-size="10.00">src/engine/HM_Intro.cpp</text>
</a>
</g>
</g>
<!-- Node1&#45;&gt;Node15 -->
<g id="edge14_Node000001_Node000015" class="edge">
<title>Node1&#45;&gt;Node15</title>
<g id="a_edge14_Node000001_Node000015"><a xlink:title=" ">
<path fill="none" stroke="#63b8ff" d="M1706.48,-169.22C1693.5,-158.21 1676.44,-143.75 1665.72,-134.67"/>
<polygon fill="#63b8ff" stroke="#63b8ff" points="1704.43,-172.07 1714.32,-175.87 1708.95,-166.73 1704.43,-172.07"/>
</a>
</g>
</g>
<!-- Node16 -->
<g id="Node000016" class="node">
<title>Node16</title>
<g id="a_Node000016"><a xlink:href="Trophy_8cpp.html" target="_top" xlink:title=" ">
<polygon fill="white" stroke="#666666" points="1846,-140 1741,-140 1741,-110 1846,-110 1846,-140"/>
<text text-anchor="start" x="1749" y="-128" font-family="Helvetica,sans-Serif" font-size="10.00">src/engine/objects</text>
<text text-anchor="middle" x="1793.5" y="-117" font-family="Helvetica,sans-Serif" font-size="10.00">/Trophy.cpp</text>
</a>
</g>
</g>
<!-- Node1&#45;&gt;Node16 -->
<g id="edge15_Node000001_Node000016" class="edge">
<title>Node1&#45;&gt;Node16</title>
<g id="a_edge15_Node000001_Node000016"><a xlink:title=" ">
<path fill="none" stroke="#63b8ff" d="M1742.51,-169.23C1753.13,-160.23 1766.48,-148.91 1776.85,-140.11"/>
<polygon fill="#63b8ff" stroke="#63b8ff" points="1740.05,-166.73 1734.68,-175.87 1744.57,-172.07 1740.05,-166.73"/>
</a>
</g>
</g>
<!-- Node17 -->
<g id="Node000017" class="node">
<title>Node17</title>
<g id="a_Node000017"><a xlink:href="main_8c.html" target="_top" xlink:title=" ">
<polygon fill="white" stroke="#666666" points="1931,-134.5 1864,-134.5 1864,-115.5 1931,-115.5 1931,-134.5"/>
<text text-anchor="middle" x="1897.5" y="-122.5" font-family="Helvetica,sans-Serif" font-size="10.00">src/main.c</text>
</a>
</g>
</g>
<!-- Node1&#45;&gt;Node17 -->
<g id="edge16_Node000001_Node000017" class="edge">
<title>Node1&#45;&gt;Node17</title>
<g id="a_edge16_Node000001_Node000017"><a xlink:title=" ">
<path fill="none" stroke="#63b8ff" d="M1759.48,-172.67C1792.94,-161.36 1842.58,-144.57 1872.31,-134.52"/>
<polygon fill="#63b8ff" stroke="#63b8ff" points="1758.01,-169.47 1749.66,-175.99 1760.25,-176.11 1758.01,-169.47"/>
</a>
</g>
</g>
<!-- Node18 -->
<g id="Node000018" class="node">
<title>Node18</title>
<g id="a_Node000018"><a xlink:href="menu__items_8c.html" target="_top" xlink:title=" ">
<polygon fill="white" stroke="#666666" points="2052,-134.5 1949,-134.5 1949,-115.5 2052,-115.5 2052,-134.5"/>
<text text-anchor="middle" x="2000.5" y="-122.5" font-family="Helvetica,sans-Serif" font-size="10.00">src/menu_items.c</text>
</a>
</g>
</g>
<!-- Node1&#45;&gt;Node18 -->
<g id="edge17_Node000001_Node000018" class="edge">
<title>Node1&#45;&gt;Node18</title>
<g id="a_edge17_Node000001_Node000018"><a xlink:title=" ">
<path fill="none" stroke="#63b8ff" d="M1777.45,-173.99C1821.23,-165.21 1884.99,-152.19 1940.5,-140 1948.34,-138.28 1956.73,-136.36 1964.68,-134.52"/>
<polygon fill="#63b8ff" stroke="#63b8ff" points="1776.72,-170.57 1767.6,-175.96 1778.09,-177.43 1776.72,-170.57"/>
</a>
</g>
</g>
<!-- Node19 -->
<g id="Node000019" class="node">
<title>Node19</title>
<g id="a_Node000019"><a xlink:href="menus_8c.html" target="_top" xlink:title=" ">
<polygon fill="white" stroke="#666666" points="2145,-134.5 2070,-134.5 2070,-115.5 2145,-115.5 2145,-134.5"/>
<text text-anchor="middle" x="2107.5" y="-122.5" font-family="Helvetica,sans-Serif" font-size="10.00">src/menus.c</text>
</a>
</g>
</g>
<!-- Node1&#45;&gt;Node19 -->
<g id="edge18_Node000001_Node000019" class="edge">
<title>Node1&#45;&gt;Node19</title>
<g id="a_edge18_Node000001_Node000019"><a xlink:title=" ">
<path fill="none" stroke="#63b8ff" d="M1786.75,-179.37C1854.78,-173.04 1966.73,-160.53 2061.5,-140 2068.19,-138.55 2075.31,-136.59 2081.91,-134.6"/>
<polygon fill="#63b8ff" stroke="#63b8ff" points="1786.27,-175.9 1776.63,-180.29 1786.9,-182.87 1786.27,-175.9"/>
</a>
</g>
</g>
<!-- Node20 -->
<g id="Node000020" class="node">
<title>Node20</title>
<g id="a_Node000020"><a xlink:href="actors__extended_8c.html" target="_top" xlink:title=" ">
<polygon fill="white" stroke="#666666" points="2319.5,-134.5 2163.5,-134.5 2163.5,-115.5 2319.5,-115.5 2319.5,-134.5"/>
<text text-anchor="middle" x="2241.5" y="-122.5" font-family="Helvetica,sans-Serif" font-size="10.00">src/racing/actors_extended.c</text>
</a>
</g>
</g>
<!-- Node1&#45;&gt;Node20 -->
<g id="edge19_Node000001_Node000020" class="edge">
<title>Node1&#45;&gt;Node20</title>
<g id="a_edge19_Node000001_Node000020"><a xlink:title=" ">
<path fill="none" stroke="#63b8ff" d="M1786.68,-179.18C1870.41,-171.75 2023.97,-157.24 2154.5,-140 2166.48,-138.42 2179.35,-136.48 2191.42,-134.55"/>
<polygon fill="#63b8ff" stroke="#63b8ff" points="1786.22,-175.7 1776.57,-180.07 1786.84,-182.67 1786.22,-175.7"/>
</a>
</g>
</g>
<!-- Node21 -->
<g id="Node000021" class="node">
<title>Node21</title>
<g id="a_Node000021"><a xlink:href="race__logic_8c.html" target="_top" xlink:title=" ">
<polygon fill="white" stroke="#666666" points="2463,-134.5 2338,-134.5 2338,-115.5 2463,-115.5 2463,-134.5"/>
<text text-anchor="middle" x="2400.5" y="-122.5" font-family="Helvetica,sans-Serif" font-size="10.00">src/racing/race_logic.c</text>
</a>
</g>
</g>
<!-- Node1&#45;&gt;Node21 -->
<g id="edge20_Node000001_Node000021" class="edge">
<title>Node1&#45;&gt;Node21</title>
<g id="a_edge20_Node000001_Node000021"><a xlink:title=" ">
<path fill="none" stroke="#63b8ff" d="M1787.07,-182.33C1897.02,-177.99 2131.88,-166.27 2328.5,-140 2339.1,-138.58 2350.5,-136.59 2361.03,-134.55"/>
<polygon fill="#63b8ff" stroke="#63b8ff" points="1786.68,-178.85 1776.83,-182.73 1786.95,-185.84 1786.68,-178.85"/>
</a>
</g>
</g>
<!-- Node22 -->
<g id="Node000022" class="node">
<title>Node22</title>
<g id="a_Node000022"><a xlink:href="skybox__and__splitscreen_8c.html" target="_top" xlink:title=" ">
<polygon fill="white" stroke="#666666" points="2606,-140 2481,-140 2481,-110 2606,-110 2606,-140"/>
<text text-anchor="start" x="2489" y="-128" font-family="Helvetica,sans-Serif" font-size="10.00">src/racing/skybox_and</text>
<text text-anchor="middle" x="2543.5" y="-117" font-family="Helvetica,sans-Serif" font-size="10.00">_splitscreen.c</text>
</a>
</g>
</g>
<!-- Node1&#45;&gt;Node22 -->
<g id="edge21_Node000001_Node000022" class="edge">
<title>Node1&#45;&gt;Node22</title>
<g id="a_edge21_Node000001_Node000022"><a xlink:title=" ">
<path fill="none" stroke="#63b8ff" d="M1786.94,-183.63C1915.65,-181.22 2219.65,-172.3 2472.5,-140 2475.24,-139.65 2478.04,-139.26 2480.86,-138.83"/>
<polygon fill="#63b8ff" stroke="#63b8ff" points="1786.8,-180.14 1776.87,-183.82 1786.93,-187.14 1786.8,-180.14"/>
</a>
</g>
</g>
<!-- Node23 -->
<g id="Node000023" class="node">
<title>Node23</title>
<g id="a_Node000023"><a xlink:href="render__objects_8c.html" target="_top" xlink:title=" ">
<polygon fill="white" stroke="#666666" points="2738.5,-134.5 2624.5,-134.5 2624.5,-115.5 2738.5,-115.5 2738.5,-134.5"/>
<text text-anchor="middle" x="2681.5" y="-122.5" font-family="Helvetica,sans-Serif" font-size="10.00">src/render_objects.c</text>
</a>
</g>
</g>
<!-- Node1&#45;&gt;Node23 -->
<g id="edge22_Node000001_Node000023" class="edge">
<title>Node1&#45;&gt;Node23</title>
<g id="a_edge22_Node000001_Node000023"><a xlink:title=" ">
<path fill="none" stroke="#63b8ff" d="M1787.09,-184.79C1932.94,-184.71 2306.53,-180.22 2615.5,-140 2625.61,-138.68 2636.46,-136.65 2646.4,-134.53"/>
<polygon fill="#63b8ff" stroke="#63b8ff" points="1786.98,-181.29 1776.98,-184.78 1786.98,-188.29 1786.98,-181.29"/>
</a>
</g>
</g>
<!-- Node24 -->
<g id="Node000024" class="node">
<title>Node24</title>
<g id="a_Node000024"><a xlink:href="save_8c.html" target="_top" xlink:title=" ">
<polygon fill="white" stroke="#666666" points="2822,-134.5 2757,-134.5 2757,-115.5 2822,-115.5 2822,-134.5"/>
<text text-anchor="middle" x="2789.5" y="-122.5" font-family="Helvetica,sans-Serif" font-size="10.00">src/save.c</text>
</a>
</g>
</g>
<!-- Node1&#45;&gt;Node24 -->
<g id="edge23_Node000001_Node000024" class="edge">
<title>Node1&#45;&gt;Node24</title>
<g id="a_edge23_Node000001_Node000024"><a xlink:title=" ">
<path fill="none" stroke="#63b8ff" d="M1786.74,-184.06C1979.01,-182.33 2561.68,-174.32 2747.5,-140 2754.15,-138.77 2761.19,-136.73 2767.57,-134.59"/>
<polygon fill="#63b8ff" stroke="#63b8ff" points="1786.5,-180.56 1776.53,-184.14 1786.56,-187.56 1786.5,-180.56"/>
</a>
</g>
</g>
<!-- Node25 -->
<g id="Node000025" class="node">
<title>Node25</title>
<g id="a_Node000025"><a xlink:href="spawn__players_8c.html" target="_top" xlink:title=" ">
<polygon fill="white" stroke="#666666" points="2955,-134.5 2840,-134.5 2840,-115.5 2955,-115.5 2955,-134.5"/>
<text text-anchor="middle" x="2897.5" y="-122.5" font-family="Helvetica,sans-Serif" font-size="10.00">src/spawn_players.c</text>
</a>
</g>
</g>
<!-- Node1&#45;&gt;Node25 -->
<g id="edge24_Node000001_Node000025" class="edge">
<title>Node1&#45;&gt;Node25</title>
<g id="a_edge24_Node000001_Node000025"><a xlink:title=" ">
<path fill="none" stroke="#63b8ff" d="M1786.84,-183.38C1989.3,-179.52 2627.03,-165.61 2831.5,-140 2841.73,-138.72 2852.72,-136.66 2862.75,-134.52"/>
<polygon fill="#63b8ff" stroke="#63b8ff" points="1786.61,-179.88 1776.68,-183.57 1786.75,-186.88 1786.61,-179.88"/>
</a>
</g>
</g>
<!-- Node26 -->
<g id="Node000026" class="node">
<title>Node26</title>
<g id="a_Node000026"><a xlink:href="staff__ghosts_8c.html" target="_top" xlink:title=" ">
<polygon fill="white" stroke="#666666" points="3074,-134.5 2973,-134.5 2973,-115.5 3074,-115.5 3074,-134.5"/>
<text text-anchor="middle" x="3023.5" y="-122.5" font-family="Helvetica,sans-Serif" font-size="10.00">src/staff_ghosts.c</text>
</a>
</g>
</g>
<!-- Node1&#45;&gt;Node26 -->
<g id="edge25_Node000001_Node000026" class="edge">
<title>Node1&#45;&gt;Node26</title>
<g id="a_edge25_Node000001_Node000026"><a xlink:title=" ">
<path fill="none" stroke="#63b8ff" d="M1786.84,-183.89C2004.97,-181.49 2733.2,-171.28 2964.5,-140 2973.68,-138.76 2983.52,-136.72 2992.48,-134.57"/>
<polygon fill="#63b8ff" stroke="#63b8ff" points="1786.5,-180.39 1776.54,-184 1786.58,-187.39 1786.5,-180.39"/>
</a>
</g>
</g>
<!-- Node27 -->
<g id="Node000027" class="node">
<title>Node27</title>
<g id="a_Node000027"><a xlink:href="update__objects_8c.html" target="_top" xlink:title=" ">
<polygon fill="white" stroke="#666666" points="3208.5,-134.5 3092.5,-134.5 3092.5,-115.5 3208.5,-115.5 3208.5,-134.5"/>
<text text-anchor="middle" x="3150.5" y="-122.5" font-family="Helvetica,sans-Serif" font-size="10.00">src/update_objects.c</text>
</a>
</g>
</g>
<!-- Node1&#45;&gt;Node27 -->
<g id="edge26_Node000001_Node000027" class="edge">
<title>Node1&#45;&gt;Node27</title>
<g id="a_edge26_Node000001_Node000027"><a xlink:title=" ">
<path fill="none" stroke="#63b8ff" d="M1786.9,-183.89C2018.34,-181.42 2827.42,-170.71 3083.5,-140 3093.88,-138.75 3105.04,-136.71 3115.22,-134.57"/>
<polygon fill="#63b8ff" stroke="#63b8ff" points="1786.61,-180.4 1776.65,-184 1786.68,-187.4 1786.61,-180.4"/>
</a>
</g>
</g>
<!-- Node8 -->
<g id="Node000008" class="node">
<title>Node8</title>
<g id="a_Node000008"><a xlink:href="debug_8inc_8c.html" target="_top" xlink:title=" ">
<polygon fill="white" stroke="#666666" points="812.5,-74 690.5,-74 690.5,-55 812.5,-55 812.5,-74"/>
<text text-anchor="middle" x="751.5" y="-62" font-family="Helvetica,sans-Serif" font-size="10.00">src/debug/debug.inc.c</text>
</a>
</g>
</g>
<!-- Node7&#45;&gt;Node8 -->
<g id="edge7_Node000007_Node000008" class="edge">
<title>Node7&#45;&gt;Node8</title>
<g id="a_edge7_Node000007_Node000008"><a xlink:title=" ">
<path fill="none" stroke="#63b8ff" d="M751.5,-105.16C751.5,-94.74 751.5,-82.3 751.5,-74.17"/>
<polygon fill="#63b8ff" stroke="#63b8ff" points="748,-105.37 751.5,-115.37 755,-105.37 748,-105.37"/>
</a>
</g>
</g>
<!-- Node9 -->
<g id="Node000009" class="node">
<title>Node9</title>
<g id="a_Node000009"><a xlink:href="debug_8c.html" target="_top" xlink:title=" ">
<polygon fill="white" stroke="#666666" points="804,-19 699,-19 699,0 804,0 804,-19"/>
<text text-anchor="middle" x="751.5" y="-7" font-family="Helvetica,sans-Serif" font-size="10.00">src/debug/debug.c</text>
</a>
</g>
</g>
<!-- Node8&#45;&gt;Node9 -->
<g id="edge8_Node000008_Node000009" class="edge">
<title>Node8&#45;&gt;Node9</title>
<g id="a_edge8_Node000008_Node000009"><a xlink:title=" ">
<path fill="none" stroke="#63b8ff" d="M751.5,-44.66C751.5,-35.93 751.5,-25.99 751.5,-19.09"/>
<polygon fill="#63b8ff" stroke="#63b8ff" points="748,-44.75 751.5,-54.75 755,-44.75 748,-44.75"/>
</a>
</g>
</g>
</g>
</svg>

<g id="navigator" transform="translate(0 0)" fill="#404254">
  <rect fill="#f2f5e9" fill-opacity="0.5" stroke="#606060" stroke-width=".5" x="0" y="0" width="60" height="60"/>
  <use id="zoomplus" xlink:href="#zoomPlus" x="17" y="9" onmousedown="handleZoom(evt,'in')"/>
  <use id="zoomminus" xlink:href="#zoomMin" x="42" y="9" onmousedown="handleZoom(evt,'out')"/>
  <use id="reset" xlink:href="#resetDef" x="30" y="36" onmousedown="handleReset()"/>
   <use id="arrowup" xlink:href="#arrowUp" x="0" y="0" onmousedown="handlePan(0,-1)"/>
  <use id="arrowright" xlink:href="#arrowRight" x="0" y="0" onmousedown="handlePan(1,0)"/>
  <use id="arrowdown" xlink:href="#arrowDown" x="0" y="0" onmousedown="handlePan(0,1)"/>
  <use id="arrowleft" xlink:href="#arrowLeft" x="0" y="0" onmousedown="handlePan(-1,0)"/>
</g>
<svg viewBox="0 0 15 15" width="100%" height="30px" preserveAspectRatio="xMaxYMin meet">
 <g id="arrow_out" transform="scale(0.3 0.3)">
  <a xlink:href="menu__items_8h__dep__incl_org.svg" target="_base">
   <rect id="button" ry="5" rx="5" y="6" x="6" height="38" width="38"
        fill="#f2f5e9" fill-opacity="0.5" stroke="#606060" stroke-width="1.0"/>
   <path id="arrow"
     d="M 11.500037,31.436501 C 11.940474,20.09759 22.043105,11.32322 32.158766,21.979434 L 37.068811,17.246167 C 37.068811,17.246167 37.088388,32 37.088388,32 L 22.160133,31.978069 C 22.160133,31.978069 26.997745,27.140456 26.997745,27.140456 C 18.528582,18.264221 13.291696,25.230495 11.500037,31.436501 z"
     style="fill:#404040;"/>
  </a>
 </g>
</svg>

<style type='text/css'>
<![CDATA[
[data-mouse-over-selected='false'] { opacity: 0.7; }
[data-mouse-over-selected='true']  { opacity: 1.0; }
]]>
</style>
<script type="application/ecmascript"><![CDATA[
document.addEventListener('DOMContentLoaded', (event) => {
  highlightEdges();
  highlightAdjacentNodes();
});
]]></script>
</svg>
