<?xml version="1.0" encoding="UTF-8" standalone="no"?>
<!DOCTYPE svg PUBLIC "-//W3C//DTD SVG 1.1//EN"
 "http://www.w3.org/Graphics/SVG/1.1/DTD/svg11.dtd">
<!-- Generated by graphviz version 2.43.0 (0)
 -->
<!-- Title: src/port/ui/MultiplayerWindow.cpp Pages: 1 -->
<!--zoomable 368 -->

<svg id="main" version="1.1" xmlns="http://www.w3.org/2000/svg" xmlns:xlink="http://www.w3.org/1999/xlink" xml:space="preserve" onload="init(evt)">

<style type="text/css"><![CDATA[
.node, .edge {opacity: 0.7;}
.node.selected, .edge.selected {opacity: 1;}
.edge:hover path { stroke: red; }
.edge:hover polygon { stroke: red; fill: red; }
]]></style>

<defs>
  <circle id="rim" cx="0" cy="0" r="7"/>
  <circle id="rim2" cx="0" cy="0" r="3.5"/>
  <g id="zoomPlus">
    <use xlink:href="#rim" fill="#404040"><set attributeName="fill" to="#808080" begin="zoomplus.mouseover" end="zoomplus.mouseout"/></use>
    <path d="M-4,0h8M0,-4v8" fill="none" stroke="white" stroke-width="1.5" pointer-events="none"/>
  </g>
  <g id="zoomMin">
    <use xlink:href="#rim" fill="#404040"><set attributeName="fill" to="#808080" begin="zoomminus.mouseover" end="zoomminus.mouseout"/></use>
    <path d="M-4,0h8" fill="none" stroke="white" stroke-width="1.5" pointer-events="none"/>
  </g>
  <g id="arrowUp" transform="translate(30 24)">
    <use xlink:href="#rim"/>
    <path pointer-events="none" fill="none" stroke="white" stroke-width="1.5" d="M0,-3.0v7 M-2.5,-0.5L0,-3.0L2.5,-0.5"/>
  </g>
  <g id="arrowRight" transform="rotate(90) translate(36 -43)">
    <use xlink:href="#rim"/>
    <path pointer-events="none" fill="none" stroke="white" stroke-width="1.5" d="M0,-3.0v7 M-2.5,-0.5L0,-3.0L2.5,-0.5"/>
  </g>
  <g id="arrowDown" transform="rotate(180) translate(-30 -48)">
    <use xlink:href="#rim"/>
    <path pointer-events="none" fill="none" stroke="white" stroke-width="1.5" d="M0,-3.0v7 M-2.5,-0.5L0,-3.0L2.5,-0.5"/>
  </g>
  <g id="arrowLeft" transform="rotate(270) translate(-36 17)">
    <use xlink:href="#rim"/>
    <path pointer-events="none" fill="none" stroke="white" stroke-width="1.5" d="M0,-3.0v7 M-2.5,-0.5L0,-3.0L2.5,-0.5"/>
  </g>
  <g id="resetDef">
    <use xlink:href="#rim2" fill="#404040"><set attributeName="fill" to="#808080" begin="reset.mouseover" end="reset.mouseout"/></use>
  </g>
</defs>
<script type="application/ecmascript">
var viewWidth = 1578;
var viewHeight = 368;
var sectionId = 'dynsection-0';
</script>
<script type="application/ecmascript" xlink:href="svg.min.js"/>
<svg id="graph" class="graph">
<g id="viewport">
<title>src/port/ui/MultiplayerWindow.cpp</title>
<!-- Node1 -->
<g id="Node000001" class="node">
<title>Node1</title>
<g id="a_Node000001"><a xlink:title=" ">
<polygon fill="#999999" stroke="#666666" points="1081.5,-360 899.5,-360 899.5,-341 1081.5,-341 1081.5,-360"/>
<text text-anchor="middle" x="990.5" y="-348" font-family="Helvetica,sans-Serif" font-size="10.00">src/port/ui/MultiplayerWindow.cpp</text>
</a>
</g>
</g>
<!-- Node2 -->
<g id="Node000002" class="node">
<title>Node2</title>
<g id="a_Node000002"><a xlink:href="MultiplayerWindow_8h.html" target="_top" xlink:title=" ">
<polygon fill="white" stroke="#666666" points="119,-244.5 0,-244.5 0,-225.5 119,-225.5 119,-244.5"/>
<text text-anchor="middle" x="59.5" y="-232.5" font-family="Helvetica,sans-Serif" font-size="10.00">MultiplayerWindow.h</text>
</a>
</g>
</g>
<!-- Node1&#45;&gt;Node2 -->
<g id="edge1_Node000001_Node000002" class="edge">
<title>Node1&#45;&gt;Node2</title>
<g id="a_edge1_Node000001_Node000002"><a xlink:title=" ">
<path fill="none" stroke="#63b8ff" d="M899.14,-348.28C692.65,-345.02 202.51,-334.27 133.5,-305 107.58,-294 85.1,-269.72 71.92,-253.1"/>
<polygon fill="#63b8ff" stroke="#63b8ff" points="74.44,-250.63 65.59,-244.8 68.87,-254.87 74.44,-250.63"/>
</a>
</g>
</g>
<!-- Node3 -->
<g id="Node000003" class="node">
<title>Node3</title>
<g id="a_Node000003"><a xlink:title=" ">
<polygon fill="#e0e0e0" stroke="#999999" points="364.5,-19 226.5,-19 226.5,0 364.5,0 364.5,-19"/>
<text text-anchor="middle" x="295.5" y="-7" font-family="Helvetica,sans-Serif" font-size="10.00">libultraship/libultraship.h</text>
</a>
</g>
</g>
<!-- Node1&#45;&gt;Node3 -->
<g id="edge50_Node000001_Node000003" class="edge">
<title>Node1&#45;&gt;Node3</title>
<g id="a_edge50_Node000001_Node000003"><a xlink:title=" ">
<path fill="none" stroke="#63b8ff" d="M899.48,-346.65C681.5,-338.6 147.5,-311.22 147.5,-236 147.5,-236 147.5,-236 147.5,-118.5 147.5,-89.04 146.11,-76.26 166.5,-55 182.15,-38.69 204.04,-28.36 225.36,-21.81"/>
<polygon fill="#63b8ff" stroke="#63b8ff" points="226.42,-25.15 235.09,-19.06 224.51,-18.41 226.42,-25.15"/>
</a>
</g>
</g>
<!-- Node4 -->
<g id="Node000004" class="node">
<title>Node4</title>
<g id="a_Node000004"><a xlink:href="UIWidgets_8h.html" target="_top" xlink:title=" ">
<polygon fill="white" stroke="#666666" points="586.5,-129 510.5,-129 510.5,-110 586.5,-110 586.5,-129"/>
<text text-anchor="middle" x="548.5" y="-117" font-family="Helvetica,sans-Serif" font-size="10.00">UIWidgets.h</text>
</a>
</g>
</g>
<!-- Node1&#45;&gt;Node4 -->
<g id="edge3_Node000001_Node000004" class="edge">
<title>Node1&#45;&gt;Node4</title>
<g id="a_edge3_Node000001_Node000004"><a xlink:title=" ">
<path fill="none" stroke="#63b8ff" d="M899.45,-345.12C787.14,-338.87 608.2,-325.77 585.5,-305 538.33,-261.82 541.66,-176.8 545.84,-139.17"/>
<polygon fill="#63b8ff" stroke="#63b8ff" points="549.33,-139.48 547.12,-129.12 542.39,-138.6 549.33,-139.48"/>
</a>
</g>
</g>
<!-- Node9 -->
<g id="Node000009" class="node">
<title>Node9</title>
<g id="a_Node000009"><a xlink:title=" ">
<polygon fill="#e0e0e0" stroke="#999999" points="745,-74 692,-74 692,-55 745,-55 745,-74"/>
<text text-anchor="middle" x="718.5" y="-62" font-family="Helvetica,sans-Serif" font-size="10.00">imgui.h</text>
</a>
</g>
</g>
<!-- Node1&#45;&gt;Node9 -->
<g id="edge49_Node000001_Node000009" class="edge">
<title>Node1&#45;&gt;Node9</title>
<g id="a_edge49_Node000001_Node000009"><a xlink:title=" ">
<path fill="none" stroke="#63b8ff" d="M929.44,-340.99C841.19,-327.2 685.37,-296.71 656.5,-250 621.76,-193.8 676.26,-115.82 703.94,-82.11"/>
<polygon fill="#63b8ff" stroke="#63b8ff" points="706.86,-84.08 710.64,-74.19 701.51,-79.57 706.86,-84.08"/>
</a>
</g>
</g>
<!-- Node12 -->
<g id="Node000012" class="node">
<title>Node12</title>
<g id="a_Node000012"><a xlink:href="PortMenu_8h.html" target="_top" xlink:title=" ">
<polygon fill="white" stroke="#666666" points="847.5,-305 775.5,-305 775.5,-286 847.5,-286 847.5,-305"/>
<text text-anchor="middle" x="811.5" y="-293" font-family="Helvetica,sans-Serif" font-size="10.00">PortMenu.h</text>
</a>
</g>
</g>
<!-- Node1&#45;&gt;Node12 -->
<g id="edge13_Node000001_Node000012" class="edge">
<title>Node1&#45;&gt;Node12</title>
<g id="a_edge13_Node000001_Node000012"><a xlink:title=" ">
<path fill="none" stroke="#63b8ff" d="M961.74,-340.98C931.56,-332.05 883.93,-317.94 850.4,-308.02"/>
<polygon fill="#63b8ff" stroke="#63b8ff" points="851.07,-304.57 840.48,-305.08 849.08,-311.28 851.07,-304.57"/>
</a>
</g>
</g>
<!-- Node15 -->
<g id="Node000015" class="node">
<title>Node15</title>
<g id="a_Node000015"><a xlink:href="defines_8h.html" target="_top" xlink:title=" ">
<polygon fill="white" stroke="#666666" points="956,-129 895,-129 895,-110 956,-110 956,-129"/>
<text text-anchor="middle" x="925.5" y="-117" font-family="Helvetica,sans-Serif" font-size="10.00">defines.h</text>
</a>
</g>
</g>
<!-- Node1&#45;&gt;Node15 -->
<g id="edge53_Node000001_Node000015" class="edge">
<title>Node1&#45;&gt;Node15</title>
<g id="a_edge53_Node000001_Node000015"><a xlink:title=" ">
<path fill="none" stroke="#63b8ff" d="M988.03,-340.8C978.5,-307.22 943.97,-185.57 930.72,-138.9"/>
<polygon fill="#63b8ff" stroke="#63b8ff" points="934.07,-137.87 927.97,-129.21 927.33,-139.78 934.07,-137.87"/>
</a>
</g>
</g>
<!-- Node16 -->
<g id="Node000016" class="node">
<title>Node16</title>
<g id="a_Node000016"><a xlink:href="main_8h.html" target="_top" xlink:title=" ">
<polygon fill="white" stroke="#666666" points="1081.5,-184 1031.5,-184 1031.5,-165 1081.5,-165 1081.5,-184"/>
<text text-anchor="middle" x="1056.5" y="-172" font-family="Helvetica,sans-Serif" font-size="10.00">main.h</text>
</a>
</g>
</g>
<!-- Node1&#45;&gt;Node16 -->
<g id="edge54_Node000001_Node000016" class="edge">
<title>Node1&#45;&gt;Node16</title>
<g id="a_edge54_Node000001_Node000016"><a xlink:title=" ">
<path fill="none" stroke="#63b8ff" d="M993.86,-340.63C1004.19,-313.4 1035.6,-230.61 1049.62,-193.65"/>
<polygon fill="#63b8ff" stroke="#63b8ff" points="1052.95,-194.73 1053.22,-184.14 1046.4,-192.25 1052.95,-194.73"/>
</a>
</g>
</g>
<!-- Node22 -->
<g id="Node000022" class="node">
<title>Node22</title>
<g id="a_Node000022"><a xlink:href="common__structs_8h.html" target="_top" xlink:title=" ">
<polygon fill="white" stroke="#666666" points="1191,-74 1084,-74 1084,-55 1191,-55 1191,-74"/>
<text text-anchor="middle" x="1137.5" y="-62" font-family="Helvetica,sans-Serif" font-size="10.00">common_structs.h</text>
</a>
</g>
</g>
<!-- Node1&#45;&gt;Node22 -->
<g id="edge52_Node000001_Node000022" class="edge">
<title>Node1&#45;&gt;Node22</title>
<g id="a_edge52_Node000001_Node000022"><a xlink:title=" ">
<path fill="none" stroke="#63b8ff" d="M1018.69,-340.99C1059.84,-326.61 1131.5,-293.35 1131.5,-236 1131.5,-236 1131.5,-236 1131.5,-173.5 1131.5,-142.14 1134.05,-105.74 1135.83,-84.22"/>
<polygon fill="#63b8ff" stroke="#63b8ff" points="1139.32,-84.43 1136.69,-74.17 1132.35,-83.83 1139.32,-84.43"/>
</a>
</g>
</g>
<!-- Node24 -->
<g id="Node000024" class="node">
<title>Node24</title>
<g id="a_Node000024"><a xlink:href="code__800029B0_8h.html" target="_top" xlink:title=" ">
<polygon fill="white" stroke="#666666" points="1263,-184 1160,-184 1160,-165 1263,-165 1263,-184"/>
<text text-anchor="middle" x="1211.5" y="-172" font-family="Helvetica,sans-Serif" font-size="10.00">code_800029B0.h</text>
</a>
</g>
</g>
<!-- Node1&#45;&gt;Node24 -->
<g id="edge56_Node000001_Node000024" class="edge">
<title>Node1&#45;&gt;Node24</title>
<g id="a_edge56_Node000001_Node000024"><a xlink:title=" ">
<path fill="none" stroke="#63b8ff" d="M1064.6,-340.93C1092.38,-334.65 1122.71,-323.79 1145.5,-305 1181.08,-275.66 1199.49,-222.22 1207.12,-194.04"/>
<polygon fill="#63b8ff" stroke="#63b8ff" points="1210.53,-194.82 1209.6,-184.26 1203.75,-193.1 1210.53,-194.82"/>
</a>
</g>
</g>
<!-- Node27 -->
<g id="Node000027" class="node">
<title>Node27</title>
<g id="a_Node000027"><a xlink:href="actor__types_8h.html" target="_top" xlink:title=" ">
<polygon fill="white" stroke="#666666" points="1369,-129 1286,-129 1286,-110 1369,-110 1369,-129"/>
<text text-anchor="middle" x="1327.5" y="-117" font-family="Helvetica,sans-Serif" font-size="10.00">actor_types.h</text>
</a>
</g>
</g>
<!-- Node1&#45;&gt;Node27 -->
<g id="edge55_Node000001_Node000027" class="edge">
<title>Node1&#45;&gt;Node27</title>
<g id="a_edge55_Node000001_Node000027"><a xlink:title=" ">
<path fill="none" stroke="#63b8ff" d="M1066.83,-340.95C1099.92,-334.67 1137.99,-323.8 1168.5,-305 1239.58,-261.2 1295.59,-175.22 1317.5,-138.17"/>
<polygon fill="#63b8ff" stroke="#63b8ff" points="1320.78,-139.5 1322.76,-129.1 1314.72,-135.99 1320.78,-139.5"/>
</a>
</g>
</g>
<!-- Node31 -->
<g id="Node000031" class="node">
<title>Node31</title>
<g id="a_Node000031"><a xlink:title=" ">
<polygon fill="#e0e0e0" stroke="#999999" points="1459,-305 1320,-305 1320,-286 1459,-286 1459,-305"/>
<text text-anchor="middle" x="1389.5" y="-293" font-family="Helvetica,sans-Serif" font-size="10.00">libultraship/src/Context.h</text>
</a>
</g>
</g>
<!-- Node1&#45;&gt;Node31 -->
<g id="edge48_Node000001_Node000031" class="edge">
<title>Node1&#45;&gt;Node31</title>
<g id="a_edge48_Node000001_Node000031"><a xlink:title=" ">
<path fill="none" stroke="#63b8ff" d="M1054.61,-340.98C1125.61,-331.55 1239.95,-316.36 1314.91,-306.41"/>
<polygon fill="#63b8ff" stroke="#63b8ff" points="1315.77,-309.82 1325.22,-305.04 1314.85,-302.89 1315.77,-309.82"/>
</a>
</g>
</g>
<!-- Node32 -->
<g id="Node000032" class="node">
<title>Node32</title>
<g id="a_Node000032"><a xlink:title=" ">
<polygon fill="#e0e0e0" stroke="#999999" points="1570,-305 1477,-305 1477,-286 1570,-286 1570,-305"/>
<text text-anchor="middle" x="1523.5" y="-293" font-family="Helvetica,sans-Serif" font-size="10.00">spdlog/spdlog.h</text>
</a>
</g>
</g>
<!-- Node1&#45;&gt;Node32 -->
<g id="edge51_Node000001_Node000032" class="edge">
<title>Node1&#45;&gt;Node32</title>
<g id="a_edge51_Node000001_Node000032"><a xlink:title=" ">
<path fill="none" stroke="#63b8ff" d="M1081.87,-342.65C1175.94,-335.21 1327.01,-322.23 1466.68,-305.16"/>
<polygon fill="#63b8ff" stroke="#63b8ff" points="1467.22,-308.62 1476.72,-303.93 1466.37,-301.68 1467.22,-308.62"/>
</a>
</g>
</g>
<!-- Node2&#45;&gt;Node3 -->
<g id="edge2_Node000002_Node000003" class="edge">
<title>Node2&#45;&gt;Node3</title>
<g id="a_edge2_Node000002_Node000003"><a xlink:title=" ">
<path fill="none" stroke="#63b8ff" d="M60.42,-225.38C63.95,-196.59 79.31,-102.86 133.5,-55 156.28,-34.88 187.36,-23.77 216.21,-17.66"/>
<polygon fill="#63b8ff" stroke="#63b8ff" points="217.15,-21.04 226.3,-15.7 215.82,-14.17 217.15,-21.04"/>
</a>
</g>
</g>
<!-- Node4&#45;&gt;Node3 -->
<g id="edge9_Node000004_Node000003" class="edge">
<title>Node4&#45;&gt;Node3</title>
<g id="a_edge9_Node000004_Node000003"><a xlink:title=" ">
<path fill="none" stroke="#63b8ff" d="M510.09,-115.97C451.27,-111.32 342.75,-99.48 314.5,-74 302.09,-62.81 297.65,-43.89 296.13,-29.6"/>
<polygon fill="#63b8ff" stroke="#63b8ff" points="299.6,-29.12 295.43,-19.38 292.62,-29.59 299.6,-29.12"/>
</a>
</g>
</g>
<!-- Node5 -->
<g id="Node000005" class="node">
<title>Node5</title>
<g id="a_Node000005"><a xlink:title=" ">
<polygon fill="#e0e0e0" stroke="#999999" points="367.5,-74 323.5,-74 323.5,-55 367.5,-55 367.5,-74"/>
<text text-anchor="middle" x="345.5" y="-62" font-family="Helvetica,sans-Serif" font-size="10.00">string</text>
</a>
</g>
</g>
<!-- Node4&#45;&gt;Node5 -->
<g id="edge4_Node000004_Node000005" class="edge">
<title>Node4&#45;&gt;Node5</title>
<g id="a_edge4_Node000004_Node000005"><a xlink:title=" ">
<path fill="none" stroke="#63b8ff" d="M514.85,-109.95C482.11,-101.59 430.72,-88.39 377.17,-74.15"/>
<polygon fill="#63b8ff" stroke="#63b8ff" points="378.07,-70.77 367.5,-71.58 376.27,-77.53 378.07,-70.77"/>
</a>
</g>
</g>
<!-- Node6 -->
<g id="Node000006" class="node">
<title>Node6</title>
<g id="a_Node000006"><a xlink:title=" ">
<polygon fill="#e0e0e0" stroke="#999999" points="433,-74 386,-74 386,-55 433,-55 433,-74"/>
<text text-anchor="middle" x="409.5" y="-62" font-family="Helvetica,sans-Serif" font-size="10.00">vector</text>
</a>
</g>
</g>
<!-- Node4&#45;&gt;Node6 -->
<g id="edge5_Node000004_Node000006" class="edge">
<title>Node4&#45;&gt;Node6</title>
<g id="a_edge5_Node000004_Node000006"><a xlink:title=" ">
<path fill="none" stroke="#63b8ff" d="M526.17,-109.98C503.3,-101.27 467.54,-87.63 441.64,-77.75"/>
<polygon fill="#63b8ff" stroke="#63b8ff" points="442.83,-74.46 432.24,-74.17 440.34,-81 442.83,-74.46"/>
</a>
</g>
</g>
<!-- Node7 -->
<g id="Node000007" class="node">
<title>Node7</title>
<g id="a_Node000007"><a xlink:title=" ">
<polygon fill="#e0e0e0" stroke="#999999" points="491.5,-74 451.5,-74 451.5,-55 491.5,-55 491.5,-74"/>
<text text-anchor="middle" x="471.5" y="-62" font-family="Helvetica,sans-Serif" font-size="10.00">span</text>
</a>
</g>
</g>
<!-- Node4&#45;&gt;Node7 -->
<g id="edge6_Node000004_Node000007" class="edge">
<title>Node4&#45;&gt;Node7</title>
<g id="a_edge6_Node000004_Node000007"><a xlink:title=" ">
<path fill="none" stroke="#63b8ff" d="M536.13,-109.98C524.41,-101.92 506.58,-89.65 492.61,-80.03"/>
<polygon fill="#63b8ff" stroke="#63b8ff" points="494.32,-76.96 484.1,-74.17 490.35,-82.72 494.32,-76.96"/>
</a>
</g>
</g>
<!-- Node8 -->
<g id="Node000008" class="node">
<title>Node8</title>
<g id="a_Node000008"><a xlink:title=" ">
<polygon fill="#e0e0e0" stroke="#999999" points="563,-74 510,-74 510,-55 563,-55 563,-74"/>
<text text-anchor="middle" x="536.5" y="-62" font-family="Helvetica,sans-Serif" font-size="10.00">stdint.h</text>
</a>
</g>
</g>
<!-- Node4&#45;&gt;Node8 -->
<g id="edge7_Node000004_Node000008" class="edge">
<title>Node4&#45;&gt;Node8</title>
<g id="a_edge7_Node000004_Node000008"><a xlink:title=" ">
<path fill="none" stroke="#63b8ff" d="M546.52,-109.75C544.93,-102.72 542.64,-92.62 540.65,-83.84"/>
<polygon fill="#63b8ff" stroke="#63b8ff" points="544.07,-83.07 538.44,-74.09 537.24,-84.62 544.07,-83.07"/>
</a>
</g>
</g>
<!-- Node4&#45;&gt;Node9 -->
<g id="edge8_Node000004_Node000009" class="edge">
<title>Node4&#45;&gt;Node9</title>
<g id="a_edge8_Node000004_Node000009"><a xlink:title=" ">
<path fill="none" stroke="#63b8ff" d="M575.81,-109.98C604.61,-101.01 650.13,-86.82 681.99,-76.88"/>
<polygon fill="#63b8ff" stroke="#63b8ff" points="683.31,-80.14 691.81,-73.82 681.23,-73.45 683.31,-80.14"/>
</a>
</g>
</g>
<!-- Node10 -->
<g id="Node000010" class="node">
<title>Node10</title>
<g id="a_Node000010"><a xlink:title=" ">
<polygon fill="#e0e0e0" stroke="#999999" points="674,-74 581,-74 581,-55 674,-55 674,-74"/>
<text text-anchor="middle" x="627.5" y="-62" font-family="Helvetica,sans-Serif" font-size="10.00">unordered_map</text>
</a>
</g>
</g>
<!-- Node4&#45;&gt;Node10 -->
<g id="edge10_Node000004_Node000010" class="edge">
<title>Node4&#45;&gt;Node10</title>
<g id="a_edge10_Node000004_Node000010"><a xlink:title=" ">
<path fill="none" stroke="#63b8ff" d="M561.19,-109.98C573.33,-101.84 591.86,-89.41 606.25,-79.76"/>
<polygon fill="#63b8ff" stroke="#63b8ff" points="608.22,-82.65 614.58,-74.17 604.32,-76.84 608.22,-82.65"/>
</a>
</g>
</g>
<!-- Node11 -->
<g id="Node000011" class="node">
<title>Node11</title>
<g id="a_Node000011"><a xlink:href="ShipUtils_8h.html" target="_top" xlink:title=" ">
<polygon fill="white" stroke="#666666" points="267.5,-74 175.5,-74 175.5,-55 267.5,-55 267.5,-74"/>
<text text-anchor="middle" x="221.5" y="-62" font-family="Helvetica,sans-Serif" font-size="10.00">port/ShipUtils.h</text>
</a>
</g>
</g>
<!-- Node4&#45;&gt;Node11 -->
<g id="edge11_Node000004_Node000011" class="edge">
<title>Node4&#45;&gt;Node11</title>
<g id="a_edge11_Node000004_Node000011"><a xlink:title=" ">
<path fill="none" stroke="#63b8ff" d="M510.35,-112.32C452.9,-103.01 343.85,-85.33 277.42,-74.56"/>
<polygon fill="#63b8ff" stroke="#63b8ff" points="277.97,-71.11 267.53,-72.96 276.85,-78.02 277.97,-71.11"/>
</a>
</g>
</g>
<!-- Node11&#45;&gt;Node3 -->
<g id="edge12_Node000011_Node000003" class="edge">
<title>Node11&#45;&gt;Node3</title>
<g id="a_edge12_Node000011_Node000003"><a xlink:title=" ">
<path fill="none" stroke="#63b8ff" d="M233.39,-54.98C244.65,-46.92 261.79,-34.65 275.21,-25.03"/>
<polygon fill="#63b8ff" stroke="#63b8ff" points="277.3,-27.84 283.39,-19.17 273.23,-22.15 277.3,-27.84"/>
</a>
</g>
</g>
<!-- Node12&#45;&gt;Node3 -->
<g id="edge14_Node000012_Node000003" class="edge">
<title>Node12&#45;&gt;Node3</title>
<g id="a_edge14_Node000012_Node000003"><a xlink:title=" ">
<path fill="none" stroke="#63b8ff" d="M811.5,-285.84C811.5,-266.21 811.5,-216.82 811.5,-175.5 811.5,-175.5 811.5,-175.5 811.5,-118.5 811.5,-85.61 801.33,-72.53 773.5,-55 740.63,-34.29 502.08,-20.14 374.89,-13.98"/>
<polygon fill="#63b8ff" stroke="#63b8ff" points="374.97,-10.48 364.81,-13.5 374.63,-17.48 374.97,-10.48"/>
</a>
</g>
</g>
<!-- Node12&#45;&gt;Node4 -->
<g id="edge15_Node000012_Node000004" class="edge">
<title>Node12&#45;&gt;Node4</title>
<g id="a_edge15_Node000012_Node000004"><a xlink:title=" ">
<path fill="none" stroke="#63b8ff" d="M775.45,-290.3C742.33,-285.08 692.97,-273.77 656.5,-250 611.09,-220.4 574.87,-165.87 558.3,-137.96"/>
<polygon fill="#63b8ff" stroke="#63b8ff" points="561.31,-136.18 553.28,-129.28 555.26,-139.69 561.31,-136.18"/>
</a>
</g>
</g>
<!-- Node13 -->
<g id="Node000013" class="node">
<title>Node13</title>
<g id="a_Node000013"><a xlink:href="Menu_8h.html" target="_top" xlink:title=" ">
<polygon fill="white" stroke="#666666" points="895,-244.5 842,-244.5 842,-225.5 895,-225.5 895,-244.5"/>
<text text-anchor="middle" x="868.5" y="-232.5" font-family="Helvetica,sans-Serif" font-size="10.00">Menu.h</text>
</a>
</g>
</g>
<!-- Node12&#45;&gt;Node13 -->
<g id="edge16_Node000012_Node000013" class="edge">
<title>Node12&#45;&gt;Node13</title>
<g id="a_edge16_Node000012_Node000013"><a xlink:title=" ">
<path fill="none" stroke="#63b8ff" d="M819.91,-285.87C828.58,-276.97 842.3,-262.89 852.96,-251.95"/>
<polygon fill="#63b8ff" stroke="#63b8ff" points="855.58,-254.27 860.05,-244.67 850.57,-249.39 855.58,-254.27"/>
</a>
</g>
</g>
<!-- Node30 -->
<g id="Node000030" class="node">
<title>Node30</title>
<g id="a_Node000030"><a xlink:title=" ">
<polygon fill="#e0e0e0" stroke="#999999" points="783,-250 666,-250 666,-220 783,-220 783,-250"/>
<text text-anchor="start" x="674" y="-238" font-family="Helvetica,sans-Serif" font-size="10.00">Fast3D/backends/gfx</text>
<text text-anchor="middle" x="724.5" y="-227" font-family="Helvetica,sans-Serif" font-size="10.00">_rendering_api.h</text>
</a>
</g>
</g>
<!-- Node12&#45;&gt;Node30 -->
<g id="edge47_Node000012_Node000030" class="edge">
<title>Node12&#45;&gt;Node30</title>
<g id="a_edge47_Node000012_Node000030"><a xlink:title=" ">
<path fill="none" stroke="#63b8ff" d="M798.66,-285.87C786.97,-278 769.25,-266.09 754.07,-255.89"/>
<polygon fill="#63b8ff" stroke="#63b8ff" points="755.74,-252.79 745.49,-250.11 751.84,-258.6 755.74,-252.79"/>
</a>
</g>
</g>
<!-- Node13&#45;&gt;Node3 -->
<g id="edge17_Node000013_Node000003" class="edge">
<title>Node13&#45;&gt;Node3</title>
<g id="a_edge17_Node000013_Node000003"><a xlink:title=" ">
<path fill="none" stroke="#63b8ff" d="M869.56,-225.14C872.53,-195.59 877.64,-99.76 825.5,-55 792.09,-26.32 514.28,-15.67 374.78,-12.11"/>
<polygon fill="#63b8ff" stroke="#63b8ff" points="374.66,-8.61 364.57,-11.86 374.48,-15.6 374.66,-8.61"/>
</a>
</g>
</g>
<!-- Node13&#45;&gt;Node4 -->
<g id="edge18_Node000013_Node000004" class="edge">
<title>Node13&#45;&gt;Node4</title>
<g id="a_edge18_Node000013_Node000004"><a xlink:title=" ">
<path fill="none" stroke="#63b8ff" d="M841.92,-227.52C807.5,-218.85 745.82,-202.44 694.5,-184 651.97,-168.71 604.2,-147.05 575.24,-133.39"/>
<polygon fill="#63b8ff" stroke="#63b8ff" points="576.71,-130.21 566.18,-129.08 573.71,-136.54 576.71,-130.21"/>
</a>
</g>
</g>
<!-- Node14 -->
<g id="Node000014" class="node">
<title>Node14</title>
<g id="a_Node000014"><a xlink:href="MenuTypes_8h.html" target="_top" xlink:title=" ">
<polygon fill="white" stroke="#666666" points="783.5,-184 703.5,-184 703.5,-165 783.5,-165 783.5,-184"/>
<text text-anchor="middle" x="743.5" y="-172" font-family="Helvetica,sans-Serif" font-size="10.00">MenuTypes.h</text>
</a>
</g>
</g>
<!-- Node13&#45;&gt;Node14 -->
<g id="edge19_Node000013_Node000014" class="edge">
<title>Node13&#45;&gt;Node14</title>
<g id="a_edge19_Node000013_Node000014"><a xlink:title=" ">
<path fill="none" stroke="#63b8ff" d="M850.32,-225.49C829.49,-215.75 795.13,-199.66 771.02,-188.38"/>
<polygon fill="#63b8ff" stroke="#63b8ff" points="772.24,-185.09 761.7,-184.02 769.27,-191.43 772.24,-185.09"/>
</a>
</g>
</g>
<!-- Node13&#45;&gt;Node15 -->
<g id="edge22_Node000013_Node000015" class="edge">
<title>Node13&#45;&gt;Node15</title>
<g id="a_edge22_Node000013_Node000015"><a xlink:title=" ">
<path fill="none" stroke="#63b8ff" d="M872.78,-225.47C882.07,-206.98 904.21,-162.9 916.64,-138.14"/>
<polygon fill="#63b8ff" stroke="#63b8ff" points="919.81,-139.64 921.17,-129.13 913.55,-136.5 919.81,-139.64"/>
</a>
</g>
</g>
<!-- Node13&#45;&gt;Node16 -->
<g id="edge23_Node000013_Node000016" class="edge">
<title>Node13&#45;&gt;Node16</title>
<g id="a_edge23_Node000013_Node000016"><a xlink:title=" ">
<path fill="none" stroke="#63b8ff" d="M895.04,-225.74C928.16,-215.44 984.9,-197.78 1021.54,-186.38"/>
<polygon fill="#63b8ff" stroke="#63b8ff" points="1022.79,-189.65 1031.3,-183.34 1020.71,-182.97 1022.79,-189.65"/>
</a>
</g>
</g>
<!-- Node23 -->
<g id="Node000023" class="node">
<title>Node23</title>
<g id="a_Node000023"><a xlink:href="menus_8h.html" target="_top" xlink:title=" ">
<polygon fill="white" stroke="#666666" points="1013,-184 954,-184 954,-165 1013,-165 1013,-184"/>
<text text-anchor="middle" x="983.5" y="-172" font-family="Helvetica,sans-Serif" font-size="10.00">menus.h</text>
</a>
</g>
</g>
<!-- Node13&#45;&gt;Node23 -->
<g id="edge31_Node000013_Node000023" class="edge">
<title>Node13&#45;&gt;Node23</title>
<g id="a_edge31_Node000013_Node000023"><a xlink:title=" ">
<path fill="none" stroke="#63b8ff" d="M885.47,-225.37C904.41,-215.73 935.29,-200.03 957.33,-188.81"/>
<polygon fill="#63b8ff" stroke="#63b8ff" points="959.14,-191.82 966.46,-184.17 955.96,-185.58 959.14,-191.82"/>
</a>
</g>
</g>
<!-- Node13&#45;&gt;Node24 -->
<g id="edge34_Node000013_Node000024" class="edge">
<title>Node13&#45;&gt;Node24</title>
<g id="a_edge34_Node000013_Node000024"><a xlink:title=" ">
<path fill="none" stroke="#63b8ff" d="M895.13,-229.46C949.77,-220.14 1075.77,-198.65 1151.24,-185.78"/>
<polygon fill="#63b8ff" stroke="#63b8ff" points="1152.27,-189.15 1161.54,-184.02 1151.09,-182.25 1152.27,-189.15"/>
</a>
</g>
</g>
<!-- Node14&#45;&gt;Node3 -->
<g id="edge20_Node000014_Node000003" class="edge">
<title>Node14&#45;&gt;Node3</title>
<g id="a_edge20_Node000014_Node000003"><a xlink:title=" ">
<path fill="none" stroke="#63b8ff" d="M747.92,-165C758.42,-143.48 781.94,-86.34 753.5,-55 728.6,-27.56 499.23,-16.52 374.84,-12.52"/>
<polygon fill="#63b8ff" stroke="#63b8ff" points="374.71,-9.02 364.6,-12.2 374.49,-16.01 374.71,-9.02"/>
</a>
</g>
</g>
<!-- Node14&#45;&gt;Node4 -->
<g id="edge21_Node000014_Node000004" class="edge">
<title>Node14&#45;&gt;Node4</title>
<g id="a_edge21_Node000014_Node000004"><a xlink:title=" ">
<path fill="none" stroke="#63b8ff" d="M712.17,-164.98C679.01,-155.97 626.5,-141.7 589.94,-131.76"/>
<polygon fill="#63b8ff" stroke="#63b8ff" points="590.64,-128.33 580.08,-129.08 588.81,-135.08 590.64,-128.33"/>
</a>
</g>
</g>
<!-- Node17 -->
<g id="Node000017" class="node">
<title>Node17</title>
<g id="a_Node000017"><a xlink:href="mk64_8h.html" target="_top" xlink:title=" ">
<polygon fill="white" stroke="#666666" points="1027,-129 974,-129 974,-110 1027,-110 1027,-129"/>
<text text-anchor="middle" x="1000.5" y="-117" font-family="Helvetica,sans-Serif" font-size="10.00">mk64.h</text>
</a>
</g>
</g>
<!-- Node16&#45;&gt;Node17 -->
<g id="edge24_Node000016_Node000017" class="edge">
<title>Node16&#45;&gt;Node17</title>
<g id="a_edge24_Node000016_Node000017"><a xlink:title=" ">
<path fill="none" stroke="#63b8ff" d="M1047.5,-164.98C1039.31,-157.23 1026.99,-145.58 1017.03,-136.14"/>
<polygon fill="#63b8ff" stroke="#63b8ff" points="1019.33,-133.5 1009.66,-129.17 1014.52,-138.59 1019.33,-133.5"/>
</a>
</g>
</g>
<!-- Node16&#45;&gt;Node22 -->
<g id="edge29_Node000016_Node000022" class="edge">
<title>Node16&#45;&gt;Node22</title>
<g id="a_edge29_Node000016_Node000022"><a xlink:title=" ">
<path fill="none" stroke="#63b8ff" d="M1063.13,-164.66C1076.6,-146.69 1107.39,-105.64 1124.84,-82.38"/>
<polygon fill="#63b8ff" stroke="#63b8ff" points="1127.81,-84.26 1131.01,-74.16 1122.21,-80.06 1127.81,-84.26"/>
</a>
</g>
</g>
<!-- Node18 -->
<g id="Node000018" class="node">
<title>Node18</title>
<g id="a_Node000018"><a xlink:title=" ">
<polygon fill="#e0e0e0" stroke="#999999" points="1278.5,-19 1198.5,-19 1198.5,0 1278.5,0 1278.5,-19"/>
<text text-anchor="middle" x="1238.5" y="-7" font-family="Helvetica,sans-Serif" font-size="10.00">libultraship.h</text>
</a>
</g>
</g>
<!-- Node17&#45;&gt;Node18 -->
<g id="edge25_Node000017_Node000018" class="edge">
<title>Node17&#45;&gt;Node18</title>
<g id="a_edge25_Node000017_Node000018"><a xlink:title=" ">
<path fill="none" stroke="#63b8ff" d="M1008.24,-109.72C1020.79,-96 1046.97,-69.58 1074.5,-55 1110.18,-36.1 1154.57,-24.69 1188.17,-18.17"/>
<polygon fill="#63b8ff" stroke="#63b8ff" points="1189.04,-21.57 1198.23,-16.29 1187.76,-14.68 1189.04,-21.57"/>
</a>
</g>
</g>
<!-- Node19 -->
<g id="Node000019" class="node">
<title>Node19</title>
<g id="a_Node000019"><a xlink:href="string_8h.html" target="_top" xlink:title=" ">
<polygon fill="white" stroke="#666666" points="1027,-74 974,-74 974,-55 1027,-55 1027,-74"/>
<text text-anchor="middle" x="1000.5" y="-62" font-family="Helvetica,sans-Serif" font-size="10.00">string.h</text>
</a>
</g>
</g>
<!-- Node17&#45;&gt;Node19 -->
<g id="edge26_Node000017_Node000019" class="edge">
<title>Node17&#45;&gt;Node19</title>
<g id="a_edge26_Node000017_Node000019"><a xlink:title=" ">
<path fill="none" stroke="#63b8ff" d="M1000.5,-109.75C1000.5,-102.8 1000.5,-92.85 1000.5,-84.13"/>
<polygon fill="#63b8ff" stroke="#63b8ff" points="1004,-84.09 1000.5,-74.09 997,-84.09 1004,-84.09"/>
</a>
</g>
</g>
<!-- Node21 -->
<g id="Node000021" class="node">
<title>Node21</title>
<g id="a_Node000021"><a xlink:title=" ">
<polygon fill="#e0e0e0" stroke="#999999" points="955.5,-74 877.5,-74 877.5,-55 955.5,-55 955.5,-74"/>
<text text-anchor="middle" x="916.5" y="-62" font-family="Helvetica,sans-Serif" font-size="10.00">libultra/gbi.h</text>
</a>
</g>
</g>
<!-- Node17&#45;&gt;Node21 -->
<g id="edge28_Node000017_Node000021" class="edge">
<title>Node17&#45;&gt;Node21</title>
<g id="a_edge28_Node000017_Node000021"><a xlink:title=" ">
<path fill="none" stroke="#63b8ff" d="M987,-109.98C974.1,-101.84 954.4,-89.41 939.1,-79.76"/>
<polygon fill="#63b8ff" stroke="#63b8ff" points="940.57,-76.55 930.24,-74.17 936.83,-82.47 940.57,-76.55"/>
</a>
</g>
</g>
<!-- Node20 -->
<g id="Node000020" class="node">
<title>Node20</title>
<g id="a_Node000020"><a xlink:title=" ">
<polygon fill="#e0e0e0" stroke="#999999" points="1045.5,-19 955.5,-19 955.5,0 1045.5,0 1045.5,-19"/>
<text text-anchor="middle" x="1000.5" y="-7" font-family="Helvetica,sans-Serif" font-size="10.00">libultra/types.h</text>
</a>
</g>
</g>
<!-- Node19&#45;&gt;Node20 -->
<g id="edge27_Node000019_Node000020" class="edge">
<title>Node19&#45;&gt;Node20</title>
<g id="a_edge27_Node000019_Node000020"><a xlink:title=" ">
<path fill="none" stroke="#63b8ff" d="M1000.5,-54.75C1000.5,-47.8 1000.5,-37.85 1000.5,-29.13"/>
<polygon fill="#63b8ff" stroke="#63b8ff" points="1004,-29.09 1000.5,-19.09 997,-29.09 1004,-29.09"/>
</a>
</g>
</g>
<!-- Node22&#45;&gt;Node18 -->
<g id="edge30_Node000022_Node000018" class="edge">
<title>Node22&#45;&gt;Node18</title>
<g id="a_edge30_Node000022_Node000018"><a xlink:title=" ">
<path fill="none" stroke="#63b8ff" d="M1153.73,-54.98C1169.68,-46.61 1194.28,-33.7 1212.88,-23.95"/>
<polygon fill="#63b8ff" stroke="#63b8ff" points="1214.75,-26.92 1221.98,-19.17 1211.5,-20.72 1214.75,-26.92"/>
</a>
</g>
</g>
<!-- Node23&#45;&gt;Node15 -->
<g id="edge33_Node000023_Node000015" class="edge">
<title>Node23&#45;&gt;Node15</title>
<g id="a_edge33_Node000023_Node000015"><a xlink:title=" ">
<path fill="none" stroke="#63b8ff" d="M974.18,-164.98C965.69,-157.23 952.94,-145.58 942.62,-136.14"/>
<polygon fill="#63b8ff" stroke="#63b8ff" points="944.73,-133.33 934.99,-129.17 940.01,-138.5 944.73,-133.33"/>
</a>
</g>
</g>
<!-- Node23&#45;&gt;Node22 -->
<g id="edge32_Node000023_Node000022" class="edge">
<title>Node23&#45;&gt;Node22</title>
<g id="a_edge32_Node000023_Node000022"><a xlink:title=" ">
<path fill="none" stroke="#63b8ff" d="M995.84,-164.84C1022.2,-146.36 1084.23,-102.86 1116.76,-80.05"/>
<polygon fill="#63b8ff" stroke="#63b8ff" points="1118.92,-82.8 1125.1,-74.2 1114.9,-77.07 1118.92,-82.8"/>
</a>
</g>
</g>
<!-- Node24&#45;&gt;Node18 -->
<g id="edge38_Node000024_Node000018" class="edge">
<title>Node24&#45;&gt;Node18</title>
<g id="a_edge38_Node000024_Node000018"><a xlink:title=" ">
<path fill="none" stroke="#63b8ff" d="M1218.65,-164.97C1225.27,-156.48 1234.65,-142.75 1238.5,-129 1248.07,-94.78 1244.73,-52.79 1241.54,-29.09"/>
<polygon fill="#63b8ff" stroke="#63b8ff" points="1244.98,-28.42 1240.04,-19.04 1238.05,-29.45 1244.98,-28.42"/>
</a>
</g>
</g>
<!-- Node25 -->
<g id="Node000025" class="node">
<title>Node25</title>
<g id="a_Node000025"><a xlink:href="macros_8h.html" target="_top" xlink:title=" ">
<polygon fill="white" stroke="#666666" points="1459.5,-74 1397.5,-74 1397.5,-55 1459.5,-55 1459.5,-74"/>
<text text-anchor="middle" x="1428.5" y="-62" font-family="Helvetica,sans-Serif" font-size="10.00">macros.h</text>
</a>
</g>
</g>
<!-- Node24&#45;&gt;Node25 -->
<g id="edge35_Node000024_Node000025" class="edge">
<title>Node24&#45;&gt;Node25</title>
<g id="a_edge35_Node000024_Node000025"><a xlink:title=" ">
<path fill="none" stroke="#63b8ff" d="M1263.19,-168.36C1298.09,-162.92 1343.91,-151.76 1378.5,-129 1396.02,-117.47 1410.13,-97.75 1418.84,-83.34"/>
<polygon fill="#63b8ff" stroke="#63b8ff" points="1422.04,-84.79 1423.98,-74.38 1415.97,-81.31 1422.04,-84.79"/>
</a>
</g>
</g>
<!-- Node24&#45;&gt;Node27 -->
<g id="edge39_Node000024_Node000027" class="edge">
<title>Node24&#45;&gt;Node27</title>
<g id="a_edge39_Node000024_Node000027"><a xlink:title=" ">
<path fill="none" stroke="#63b8ff" d="M1230.14,-164.98C1248.8,-156.46 1277.75,-143.23 1299.24,-133.41"/>
<polygon fill="#63b8ff" stroke="#63b8ff" points="1300.88,-136.51 1308.52,-129.17 1297.97,-130.14 1300.88,-136.51"/>
</a>
</g>
</g>
<!-- Node29 -->
<g id="Node000029" class="node">
<title>Node29</title>
<g id="a_Node000029"><a xlink:href="camera_8h.html" target="_top" xlink:title=" ">
<polygon fill="white" stroke="#666666" points="1229.5,-129 1167.5,-129 1167.5,-110 1229.5,-110 1229.5,-129"/>
<text text-anchor="middle" x="1198.5" y="-117" font-family="Helvetica,sans-Serif" font-size="10.00">camera.h</text>
</a>
</g>
</g>
<!-- Node24&#45;&gt;Node29 -->
<g id="edge44_Node000024_Node000029" class="edge">
<title>Node24&#45;&gt;Node29</title>
<g id="a_edge44_Node000024_Node000029"><a xlink:title=" ">
<path fill="none" stroke="#63b8ff" d="M1209.35,-164.75C1207.63,-157.72 1205.15,-147.62 1203,-138.84"/>
<polygon fill="#63b8ff" stroke="#63b8ff" points="1206.39,-137.97 1200.61,-129.09 1199.59,-139.63 1206.39,-137.97"/>
</a>
</g>
</g>
<!-- Node25&#45;&gt;Node18 -->
<g id="edge37_Node000025_Node000018" class="edge">
<title>Node25&#45;&gt;Node18</title>
<g id="a_edge37_Node000025_Node000018"><a xlink:title=" ">
<path fill="none" stroke="#63b8ff" d="M1397.97,-54.98C1365.8,-46.01 1314.94,-31.82 1279.33,-21.89"/>
<polygon fill="#63b8ff" stroke="#63b8ff" points="1279.84,-18.4 1269.27,-19.08 1277.96,-25.14 1279.84,-18.4"/>
</a>
</g>
</g>
<!-- Node26 -->
<g id="Node000026" class="node">
<title>Node26</title>
<g id="a_Node000026"><a xlink:href="math_8h.html" target="_top" xlink:title=" ">
<polygon fill="white" stroke="#666666" points="1454,-19 1403,-19 1403,0 1454,0 1454,-19"/>
<text text-anchor="middle" x="1428.5" y="-7" font-family="Helvetica,sans-Serif" font-size="10.00">math.h</text>
</a>
</g>
</g>
<!-- Node25&#45;&gt;Node26 -->
<g id="edge36_Node000025_Node000026" class="edge">
<title>Node25&#45;&gt;Node26</title>
<g id="a_edge36_Node000025_Node000026"><a xlink:title=" ">
<path fill="none" stroke="#63b8ff" d="M1428.5,-54.75C1428.5,-47.8 1428.5,-37.85 1428.5,-29.13"/>
<polygon fill="#63b8ff" stroke="#63b8ff" points="1432,-29.09 1428.5,-19.09 1425,-29.09 1432,-29.09"/>
</a>
</g>
</g>
<!-- Node27&#45;&gt;Node18 -->
<g id="edge40_Node000027_Node000018" class="edge">
<title>Node27&#45;&gt;Node18</title>
<g id="a_edge40_Node000027_Node000018"><a xlink:title=" ">
<path fill="none" stroke="#63b8ff" d="M1320.22,-109.66C1305.34,-91.61 1271.28,-50.28 1252.16,-27.08"/>
<polygon fill="#63b8ff" stroke="#63b8ff" points="1254.7,-24.65 1245.64,-19.16 1249.29,-29.1 1254.7,-24.65"/>
</a>
</g>
</g>
<!-- Node27&#45;&gt;Node22 -->
<g id="edge42_Node000027_Node000022" class="edge">
<title>Node27&#45;&gt;Node22</title>
<g id="a_edge42_Node000027_Node000022"><a xlink:title=" ">
<path fill="none" stroke="#63b8ff" d="M1296.97,-109.98C1264.8,-101.01 1213.94,-86.82 1178.33,-76.89"/>
<polygon fill="#63b8ff" stroke="#63b8ff" points="1178.84,-73.4 1168.27,-74.08 1176.96,-80.14 1178.84,-73.4"/>
</a>
</g>
</g>
<!-- Node27&#45;&gt;Node25 -->
<g id="edge41_Node000027_Node000025" class="edge">
<title>Node27&#45;&gt;Node25</title>
<g id="a_edge41_Node000027_Node000025"><a xlink:title=" ">
<path fill="none" stroke="#63b8ff" d="M1343.73,-109.98C1359.68,-101.61 1384.28,-88.7 1402.88,-78.95"/>
<polygon fill="#63b8ff" stroke="#63b8ff" points="1404.75,-81.92 1411.98,-74.17 1401.5,-75.72 1404.75,-81.92"/>
</a>
</g>
</g>
<!-- Node28 -->
<g id="Node000028" class="node">
<title>Node28</title>
<g id="a_Node000028"><a xlink:title=" ">
<polygon fill="#e0e0e0" stroke="#999999" points="1379.5,-74 1323.5,-74 1323.5,-55 1379.5,-55 1379.5,-74"/>
<text text-anchor="middle" x="1351.5" y="-62" font-family="Helvetica,sans-Serif" font-size="10.00">assert.h</text>
</a>
</g>
</g>
<!-- Node27&#45;&gt;Node28 -->
<g id="edge43_Node000027_Node000028" class="edge">
<title>Node27&#45;&gt;Node28</title>
<g id="a_edge43_Node000027_Node000028"><a xlink:title=" ">
<path fill="none" stroke="#63b8ff" d="M1331.46,-109.75C1334.71,-102.57 1339.42,-92.18 1343.45,-83.27"/>
<polygon fill="#63b8ff" stroke="#63b8ff" points="1346.67,-84.64 1347.61,-74.09 1340.3,-81.75 1346.67,-84.64"/>
</a>
</g>
</g>
<!-- Node29&#45;&gt;Node18 -->
<g id="edge45_Node000029_Node000018" class="edge">
<title>Node29&#45;&gt;Node18</title>
<g id="a_edge45_Node000029_Node000018"><a xlink:title=" ">
<path fill="none" stroke="#63b8ff" d="M1201.77,-109.66C1208.31,-92.01 1223.1,-52.09 1231.78,-28.64"/>
<polygon fill="#63b8ff" stroke="#63b8ff" points="1235.1,-29.75 1235.29,-19.16 1228.54,-27.32 1235.1,-29.75"/>
</a>
</g>
</g>
<!-- Node29&#45;&gt;Node22 -->
<g id="edge46_Node000029_Node000022" class="edge">
<title>Node29&#45;&gt;Node22</title>
<g id="a_edge46_Node000029_Node000022"><a xlink:title=" ">
<path fill="none" stroke="#63b8ff" d="M1188.7,-109.98C1179.68,-102.15 1166.09,-90.34 1155.18,-80.86"/>
<polygon fill="#63b8ff" stroke="#63b8ff" points="1157.32,-78.09 1147.48,-74.17 1152.73,-83.37 1157.32,-78.09"/>
</a>
</g>
</g>
</g>
</svg>

<g id="navigator" transform="translate(0 0)" fill="#404254">
  <rect fill="#f2f5e9" fill-opacity="0.5" stroke="#606060" stroke-width=".5" x="0" y="0" width="60" height="60"/>
  <use id="zoomplus" xlink:href="#zoomPlus" x="17" y="9" onmousedown="handleZoom(evt,'in')"/>
  <use id="zoomminus" xlink:href="#zoomMin" x="42" y="9" onmousedown="handleZoom(evt,'out')"/>
  <use id="reset" xlink:href="#resetDef" x="30" y="36" onmousedown="handleReset()"/>
   <use id="arrowup" xlink:href="#arrowUp" x="0" y="0" onmousedown="handlePan(0,-1)"/>
  <use id="arrowright" xlink:href="#arrowRight" x="0" y="0" onmousedown="handlePan(1,0)"/>
  <use id="arrowdown" xlink:href="#arrowDown" x="0" y="0" onmousedown="handlePan(0,1)"/>
  <use id="arrowleft" xlink:href="#arrowLeft" x="0" y="0" onmousedown="handlePan(-1,0)"/>
</g>
<svg viewBox="0 0 15 15" width="100%" height="30px" preserveAspectRatio="xMaxYMin meet">
 <g id="arrow_out" transform="scale(0.3 0.3)">
  <a xlink:href="MultiplayerWindow_8cpp__incl_org.svg" target="_base">
   <rect id="button" ry="5" rx="5" y="6" x="6" height="38" width="38"
        fill="#f2f5e9" fill-opacity="0.5" stroke="#606060" stroke-width="1.0"/>
   <path id="arrow"
     d="M 11.500037,31.436501 C 11.940474,20.09759 22.043105,11.32322 32.158766,21.979434 L 37.068811,17.246167 C 37.068811,17.246167 37.088388,32 37.088388,32 L 22.160133,31.978069 C 22.160133,31.978069 26.997745,27.140456 26.997745,27.140456 C 18.528582,18.264221 13.291696,25.230495 11.500037,31.436501 z"
     style="fill:#404040;"/>
  </a>
 </g>
</svg>

<style type='text/css'>
<![CDATA[
[data-mouse-over-selected='false'] { opacity: 0.7; }
[data-mouse-over-selected='true']  { opacity: 1.0; }
]]>
</style>
<script type="application/ecmascript"><![CDATA[
document.addEventListener('DOMContentLoaded', (event) => {
  highlightEdges();
  highlightAdjacentNodes();
});
]]></script>
</svg>
