<?xml version="1.0" encoding="UTF-8" standalone="no"?>
<!DOCTYPE svg PUBLIC "-//W3C//DTD SVG 1.1//EN"
 "http://www.w3.org/Graphics/SVG/1.1/DTD/svg11.dtd">
<!-- Generated by graphviz version 2.43.0 (0)
 -->
<!-- Title: networking_cleanup Pages: 1 -->
<svg width="550pt" height="64pt"
 viewBox="0.00 0.00 550.00 64.00" xmlns="http://www.w3.org/2000/svg" xmlns:xlink="http://www.w3.org/1999/xlink">
<g id="graph0" class="graph" transform="scale(1 1) rotate(0) translate(4 60)">
<title>networking_cleanup</title>
<!-- Node1 -->
<g id="Node000001" class="node">
<title>Node1</title>
<g id="a_Node000001"><a xlink:title=" ">
<polygon fill="#999999" stroke="#666666" points="542,-37 427,-37 427,-18 542,-18 542,-37"/>
<text text-anchor="middle" x="484.5" y="-25" font-family="Helvetica,sans-Serif" font-size="10.00">networking_cleanup</text>
</a>
</g>
</g>
<!-- Node2 -->
<g id="Node000002" class="node">
<title>Node2</title>
<g id="a_Node000002"><a xlink:href="networking_8c.html#aed9ca538cfe9988acf346351f27a368e" target="_top" xlink:title=" ">
<polygon fill="white" stroke="#666666" points="391,-56 262,-56 262,-37 391,-37 391,-56"/>
<text text-anchor="middle" x="326.5" y="-44" font-family="Helvetica,sans-Serif" font-size="10.00">networking_disconnect</text>
</a>
</g>
</g>
<!-- Node1&#45;&gt;Node2 -->
<g id="edge1_Node000001_Node000002" class="edge">
<title>Node1&#45;&gt;Node2</title>
<g id="a_edge1_Node000001_Node000002"><a xlink:title=" ">
<path fill="none" stroke="#63b8ff" d="M416.55,-35.65C408.1,-36.68 399.48,-37.73 391.08,-38.76"/>
<polygon fill="#63b8ff" stroke="#63b8ff" points="417.24,-39.1 426.74,-34.41 416.39,-32.15 417.24,-39.1"/>
</a>
</g>
</g>
<!-- Node3 -->
<g id="Node000003" class="node">
<title>Node3</title>
<g id="a_Node000003"><a xlink:href="networking_8c.html#a6fdfec7636de6ab68fc5108c84c29844" target="_top" xlink:title=" ">
<polygon fill="white" stroke="#666666" points="375.5,-19 277.5,-19 277.5,0 375.5,0 375.5,-19"/>
<text text-anchor="middle" x="326.5" y="-7" font-family="Helvetica,sans-Serif" font-size="10.00">networking_loop</text>
</a>
</g>
</g>
<!-- Node1&#45;&gt;Node3 -->
<g id="edge2_Node000001_Node000003" class="edge">
<title>Node1&#45;&gt;Node3</title>
<g id="a_edge2_Node000001_Node000003"><a xlink:title=" ">
<path fill="none" stroke="#63b8ff" d="M416.8,-19.8C403,-18.21 388.72,-16.56 375.74,-15.07"/>
<polygon fill="#63b8ff" stroke="#63b8ff" points="416.4,-23.28 426.74,-20.95 417.21,-16.33 416.4,-23.28"/>
</a>
</g>
</g>
<!-- Node4 -->
<g id="Node000004" class="node">
<title>Node4</title>
<g id="a_Node000004"><a xlink:href="networking_8c.html#a2b0991e893dd2f433a112ea46449bd4e" target="_top" xlink:title=" ">
<polygon fill="white" stroke="#666666" points="226,-19 134,-19 134,0 226,0 226,-19"/>
<text text-anchor="middle" x="180" y="-7" font-family="Helvetica,sans-Serif" font-size="10.00">networking_init</text>
</a>
</g>
</g>
<!-- Node3&#45;&gt;Node4 -->
<g id="edge3_Node000003_Node000004" class="edge">
<title>Node3&#45;&gt;Node4</title>
<g id="a_edge3_Node000003_Node000004"><a xlink:title=" ">
<path fill="none" stroke="#63b8ff" d="M267.18,-9.5C253.62,-9.5 239.37,-9.5 226.46,-9.5"/>
<polygon fill="#63b8ff" stroke="#63b8ff" points="267.38,-13 277.38,-9.5 267.38,-6 267.38,-13"/>
</a>
</g>
</g>
<!-- Node5 -->
<g id="Node000005" class="node">
<title>Node5</title>
<g id="a_Node000005"><a xlink:href="networking_8c.html#a9c6ade683b9f080f25707e0812ef7a6c" target="_top" xlink:title=" ">
<polygon fill="white" stroke="#666666" points="98,-19 0,-19 0,0 98,0 98,-19"/>
<text text-anchor="middle" x="49" y="-7" font-family="Helvetica,sans-Serif" font-size="10.00">ConnectToServer</text>
</a>
</g>
</g>
<!-- Node4&#45;&gt;Node5 -->
<g id="edge4_Node000004_Node000005" class="edge">
<title>Node4&#45;&gt;Node5</title>
<g id="a_edge4_Node000004_Node000005"><a xlink:title=" ">
<path fill="none" stroke="#63b8ff" d="M123.74,-9.5C115.31,-9.5 106.66,-9.5 98.38,-9.5"/>
<polygon fill="#63b8ff" stroke="#63b8ff" points="123.88,-13 133.88,-9.5 123.88,-6 123.88,-13"/>
</a>
</g>
</g>
</g>
</svg>
