<?xml version="1.0" encoding="UTF-8" standalone="no"?>
<!DOCTYPE svg PUBLIC "-//W3C//DTD SVG 1.1//EN"
 "http://www.w3.org/Graphics/SVG/1.1/DTD/svg11.dtd">
<!-- Generated by graphviz version 2.43.0 (0)
 -->
<!-- Title: send_str_packet Pages: 1 -->
<svg width="681pt" height="83pt"
 viewBox="0.00 0.00 681.00 83.00" xmlns="http://www.w3.org/2000/svg" xmlns:xlink="http://www.w3.org/1999/xlink">
<g id="graph0" class="graph" transform="scale(1 1) rotate(0) translate(4 79)">
<title>send_str_packet</title>
<!-- Node1 -->
<g id="Node000001" class="node">
<title>Node1</title>
<g id="a_Node000001"><a xlink:title=" ">
<polygon fill="#999999" stroke="#666666" points="673,-75 578,-75 578,-56 673,-56 673,-75"/>
<text text-anchor="middle" x="625.5" y="-63" font-family="Helvetica,sans-Serif" font-size="10.00">send_str_packet</text>
</a>
</g>
</g>
<!-- Node2 -->
<g id="Node000002" class="node">
<title>Node2</title>
<g id="a_Node000002"><a xlink:href="networking_8c.html#a9c6ade683b9f080f25707e0812ef7a6c" target="_top" xlink:title=" ">
<polygon fill="white" stroke="#666666" points="98,-57 0,-57 0,-38 98,-38 98,-57"/>
<text text-anchor="middle" x="49" y="-45" font-family="Helvetica,sans-Serif" font-size="10.00">ConnectToServer</text>
</a>
</g>
</g>
<!-- Node1&#45;&gt;Node2 -->
<g id="edge1_Node000001_Node000002" class="edge">
<title>Node1&#45;&gt;Node2</title>
<g id="a_edge1_Node000001_Node000002"><a xlink:title=" ">
<path fill="none" stroke="#63b8ff" d="M567.71,-66.99C496.32,-68.51 370.02,-70.08 262,-65.5 205.72,-63.12 141.26,-57.18 98.34,-52.78"/>
<polygon fill="#63b8ff" stroke="#63b8ff" points="567.92,-70.48 577.84,-66.76 567.76,-63.48 567.92,-70.48"/>
</a>
</g>
</g>
<!-- Node3 -->
<g id="Node000003" class="node">
<title>Node3</title>
<g id="a_Node000003"><a xlink:href="networking_8c.html#a840ac4cfb918d97373907c0a176ce5c5" target="_top" xlink:title=" ">
<polygon fill="white" stroke="#666666" points="542,-56 427,-56 427,-37 542,-37 542,-56"/>
<text text-anchor="middle" x="484.5" y="-44" font-family="Helvetica,sans-Serif" font-size="10.00">networking_cleanup</text>
</a>
</g>
</g>
<!-- Node1&#45;&gt;Node3 -->
<g id="edge2_Node000001_Node000003" class="edge">
<title>Node1&#45;&gt;Node3</title>
<g id="a_edge2_Node000001_Node000003"><a xlink:title=" ">
<path fill="none" stroke="#63b8ff" d="M567.78,-57.75C559.42,-56.6 550.8,-55.43 542.43,-54.28"/>
<polygon fill="#63b8ff" stroke="#63b8ff" points="567.45,-61.23 577.83,-59.12 568.39,-54.3 567.45,-61.23"/>
</a>
</g>
</g>
<!-- Node4 -->
<g id="Node000004" class="node">
<title>Node4</title>
<g id="a_Node000004"><a xlink:href="networking_8c.html#aed9ca538cfe9988acf346351f27a368e" target="_top" xlink:title=" ">
<polygon fill="white" stroke="#666666" points="391,-56 262,-56 262,-37 391,-37 391,-56"/>
<text text-anchor="middle" x="326.5" y="-44" font-family="Helvetica,sans-Serif" font-size="10.00">networking_disconnect</text>
</a>
</g>
</g>
<!-- Node3&#45;&gt;Node4 -->
<g id="edge3_Node000003_Node000004" class="edge">
<title>Node3&#45;&gt;Node4</title>
<g id="a_edge3_Node000003_Node000004"><a xlink:title=" ">
<path fill="none" stroke="#63b8ff" d="M416.55,-46.5C408.1,-46.5 399.48,-46.5 391.08,-46.5"/>
<polygon fill="#63b8ff" stroke="#63b8ff" points="416.74,-50 426.74,-46.5 416.74,-43 416.74,-50"/>
</a>
</g>
</g>
<!-- Node5 -->
<g id="Node000005" class="node">
<title>Node5</title>
<g id="a_Node000005"><a xlink:href="networking_8c.html#a6fdfec7636de6ab68fc5108c84c29844" target="_top" xlink:title=" ">
<polygon fill="white" stroke="#666666" points="375.5,-19 277.5,-19 277.5,0 375.5,0 375.5,-19"/>
<text text-anchor="middle" x="326.5" y="-7" font-family="Helvetica,sans-Serif" font-size="10.00">networking_loop</text>
</a>
</g>
</g>
<!-- Node3&#45;&gt;Node5 -->
<g id="edge4_Node000003_Node000005" class="edge">
<title>Node3&#45;&gt;Node5</title>
<g id="a_edge4_Node000003_Node000005"><a xlink:title=" ">
<path fill="none" stroke="#63b8ff" d="M433.51,-34.64C412.28,-29.61 387.86,-23.82 367.81,-19.06"/>
<polygon fill="#63b8ff" stroke="#63b8ff" points="432.79,-38.07 443.33,-36.97 434.4,-31.26 432.79,-38.07"/>
</a>
</g>
</g>
<!-- Node6 -->
<g id="Node000006" class="node">
<title>Node6</title>
<g id="a_Node000006"><a xlink:href="networking_8c.html#a2b0991e893dd2f433a112ea46449bd4e" target="_top" xlink:title=" ">
<polygon fill="white" stroke="#666666" points="226,-38 134,-38 134,-19 226,-19 226,-38"/>
<text text-anchor="middle" x="180" y="-26" font-family="Helvetica,sans-Serif" font-size="10.00">networking_init</text>
</a>
</g>
</g>
<!-- Node5&#45;&gt;Node6 -->
<g id="edge5_Node000005_Node000006" class="edge">
<title>Node5&#45;&gt;Node6</title>
<g id="a_edge5_Node000005_Node000006"><a xlink:title=" ">
<path fill="none" stroke="#63b8ff" d="M267.18,-17.17C253.62,-18.95 239.37,-20.82 226.46,-22.52"/>
<polygon fill="#63b8ff" stroke="#63b8ff" points="267.93,-20.6 277.38,-15.83 267.01,-13.66 267.93,-20.6"/>
</a>
</g>
</g>
<!-- Node6&#45;&gt;Node2 -->
<g id="edge6_Node000006_Node000002" class="edge">
<title>Node6&#45;&gt;Node2</title>
<g id="a_edge6_Node000006_Node000002"><a xlink:title=" ">
<path fill="none" stroke="#63b8ff" d="M123.74,-36.64C115.31,-37.88 106.66,-39.16 98.38,-40.37"/>
<polygon fill="#63b8ff" stroke="#63b8ff" points="124.5,-40.07 133.88,-35.15 123.48,-33.14 124.5,-40.07"/>
</a>
</g>
</g>
</g>
</svg>
