<?xml version="1.0" encoding="UTF-8" standalone="no"?>
<!DOCTYPE svg PUBLIC "-//W3C//DTD SVG 1.1//EN"
 "http://www.w3.org/Graphics/SVG/1.1/DTD/svg11.dtd">
<!-- Generated by graphviz version 2.43.0 (0)
 -->
<!-- Title: src/networking/networking.h Pages: 1 -->
<svg width="511pt" height="93pt"
 viewBox="0.00 0.00 511.00 93.00" xmlns="http://www.w3.org/2000/svg" xmlns:xlink="http://www.w3.org/1999/xlink">
<g id="graph0" class="graph" transform="scale(1 1) rotate(0) translate(4 89)">
<title>src/networking/networking.h</title>
<!-- Node1 -->
<g id="Node000001" class="node">
<title>Node1</title>
<g id="a_Node000001"><a xlink:title=" ">
<polygon fill="#999999" stroke="#666666" points="314,-85 159,-85 159,-66 314,-66 314,-85"/>
<text text-anchor="middle" x="236.5" y="-73" font-family="Helvetica,sans-Serif" font-size="10.00">src/networking/networking.h</text>
</a>
</g>
</g>
<!-- Node2 -->
<g id="Node000002" class="node">
<title>Node2</title>
<g id="a_Node000002"><a xlink:href="main_8c.html" target="_top" xlink:title=" ">
<polygon fill="white" stroke="#666666" points="67,-24.5 0,-24.5 0,-5.5 67,-5.5 67,-24.5"/>
<text text-anchor="middle" x="33.5" y="-12.5" font-family="Helvetica,sans-Serif" font-size="10.00">src/main.c</text>
</a>
</g>
</g>
<!-- Node1&#45;&gt;Node2 -->
<g id="edge1_Node000001_Node000002" class="edge">
<title>Node1&#45;&gt;Node2</title>
<g id="a_edge1_Node000001_Node000002"><a xlink:title=" ">
<path fill="none" stroke="#63b8ff" d="M194.19,-63.27C161.86,-54.56 116.23,-41.99 76.5,-30 70.94,-28.32 65,-26.44 59.36,-24.62"/>
<polygon fill="#63b8ff" stroke="#63b8ff" points="193.64,-66.75 204.2,-65.96 195.45,-59.99 193.64,-66.75"/>
</a>
</g>
</g>
<!-- Node3 -->
<g id="Node000003" class="node">
<title>Node3</title>
<g id="a_Node000003"><a xlink:href="replication_8c.html" target="_top" xlink:title=" ">
<polygon fill="white" stroke="#666666" points="237.5,-24.5 85.5,-24.5 85.5,-5.5 237.5,-5.5 237.5,-24.5"/>
<text text-anchor="middle" x="161.5" y="-12.5" font-family="Helvetica,sans-Serif" font-size="10.00">src/networking/replication.c</text>
</a>
</g>
</g>
<!-- Node1&#45;&gt;Node3 -->
<g id="edge2_Node000001_Node000003" class="edge">
<title>Node1&#45;&gt;Node3</title>
<g id="a_edge2_Node000001_Node000003"><a xlink:title=" ">
<path fill="none" stroke="#63b8ff" d="M217.32,-59.54C203.15,-48.49 184.37,-33.84 172.61,-24.67"/>
<polygon fill="#63b8ff" stroke="#63b8ff" points="215.4,-62.48 225.43,-65.87 219.7,-56.96 215.4,-62.48"/>
</a>
</g>
</g>
<!-- Node4 -->
<g id="Node000004" class="node">
<title>Node4</title>
<g id="a_Node000004"><a xlink:href="start__game_8c.html" target="_top" xlink:title=" ">
<polygon fill="white" stroke="#666666" points="369.5,-30 255.5,-30 255.5,0 369.5,0 369.5,-30"/>
<text text-anchor="start" x="263.5" y="-18" font-family="Helvetica,sans-Serif" font-size="10.00">src/networking/start</text>
<text text-anchor="middle" x="312.5" y="-7" font-family="Helvetica,sans-Serif" font-size="10.00">_game.c</text>
</a>
</g>
</g>
<!-- Node1&#45;&gt;Node4 -->
<g id="edge3_Node000001_Node000004" class="edge">
<title>Node1&#45;&gt;Node4</title>
<g id="a_edge3_Node000001_Node000004"><a xlink:title=" ">
<path fill="none" stroke="#63b8ff" d="M255.64,-59.77C267.45,-50.68 282.51,-39.09 294.16,-30.11"/>
<polygon fill="#63b8ff" stroke="#63b8ff" points="253.5,-56.99 247.71,-65.87 257.77,-62.54 253.5,-56.99"/>
</a>
</g>
</g>
<!-- Node5 -->
<g id="Node000005" class="node">
<title>Node5</title>
<g id="a_Node000005"><a xlink:href="spawn__players_8c.html" target="_top" xlink:title=" ">
<polygon fill="white" stroke="#666666" points="503,-24.5 388,-24.5 388,-5.5 503,-5.5 503,-24.5"/>
<text text-anchor="middle" x="445.5" y="-12.5" font-family="Helvetica,sans-Serif" font-size="10.00">src/spawn_players.c</text>
</a>
</g>
</g>
<!-- Node1&#45;&gt;Node5 -->
<g id="edge4_Node000001_Node000005" class="edge">
<title>Node1&#45;&gt;Node5</title>
<g id="a_edge4_Node000001_Node000005"><a xlink:title=" ">
<path fill="none" stroke="#63b8ff" d="M276.69,-63.25C317.1,-51.94 378.53,-34.75 415.07,-24.52"/>
<polygon fill="#63b8ff" stroke="#63b8ff" points="275.58,-59.93 266.89,-65.99 277.46,-66.67 275.58,-59.93"/>
</a>
</g>
</g>
</g>
</svg>
