<?xml version="1.0" encoding="UTF-8" standalone="no"?>
<!DOCTYPE svg PUBLIC "-//W3C//DTD SVG 1.1//EN"
 "http://www.w3.org/Graphics/SVG/1.1/DTD/svg11.dtd">
<!-- Generated by graphviz version 2.43.0 (0)
 -->
<!-- Title: src/networking/networking.h Pages: 1 -->
<svg width="839pt" height="93pt"
 viewBox="0.00 0.00 839.00 93.00" xmlns="http://www.w3.org/2000/svg" xmlns:xlink="http://www.w3.org/1999/xlink">
<g id="graph0" class="graph" transform="scale(1 1) rotate(0) translate(4 89)">
<title>src/networking/networking.h</title>
<!-- Node1 -->
<g id="Node000001" class="node">
<title>Node1</title>
<g id="a_Node000001"><a xlink:title=" ">
<polygon fill="#999999" stroke="#666666" points="485,-85 330,-85 330,-66 485,-66 485,-85"/>
<text text-anchor="middle" x="407.5" y="-73" font-family="Helvetica,sans-Serif" font-size="10.00">src/networking/networking.h</text>
</a>
</g>
</g>
<!-- Node2 -->
<g id="Node000002" class="node">
<title>Node2</title>
<g id="a_Node000002"><a xlink:href="main_8c.html" target="_top" xlink:title=" ">
<polygon fill="white" stroke="#666666" points="67,-24.5 0,-24.5 0,-5.5 67,-5.5 67,-24.5"/>
<text text-anchor="middle" x="33.5" y="-12.5" font-family="Helvetica,sans-Serif" font-size="10.00">src/main.c</text>
</a>
</g>
</g>
<!-- Node1&#45;&gt;Node2 -->
<g id="edge1_Node000001_Node000002" class="edge">
<title>Node1&#45;&gt;Node2</title>
<g id="a_edge1_Node000001_Node000002"><a xlink:title=" ">
<path fill="none" stroke="#63b8ff" d="M319.79,-67.29C252.38,-60.66 157.28,-48.93 75.5,-30 69.36,-28.58 62.84,-26.63 56.82,-24.64"/>
<polygon fill="#63b8ff" stroke="#63b8ff" points="319.65,-70.8 329.94,-68.27 320.33,-63.83 319.65,-70.8"/>
</a>
</g>
</g>
<!-- Node3 -->
<g id="Node000003" class="node">
<title>Node3</title>
<g id="a_Node000003"><a xlink:href="networking_8c.html" target="_top" xlink:title=" ">
<polygon fill="white" stroke="#666666" points="240,-24.5 85,-24.5 85,-5.5 240,-5.5 240,-24.5"/>
<text text-anchor="middle" x="162.5" y="-12.5" font-family="Helvetica,sans-Serif" font-size="10.00">src/networking/networking.c</text>
</a>
</g>
</g>
<!-- Node1&#45;&gt;Node3 -->
<g id="edge2_Node000001_Node000003" class="edge">
<title>Node1&#45;&gt;Node3</title>
<g id="a_edge2_Node000001_Node000003"><a xlink:title=" ">
<path fill="none" stroke="#63b8ff" d="M361.89,-63.61C314.54,-52.3 241.46,-34.85 198.17,-24.52"/>
<polygon fill="#63b8ff" stroke="#63b8ff" points="361.34,-67.08 371.87,-65.99 362.96,-60.27 361.34,-67.08"/>
</a>
</g>
</g>
<!-- Node4 -->
<g id="Node000004" class="node">
<title>Node4</title>
<g id="a_Node000004"><a xlink:href="packets_8c.html" target="_top" xlink:title=" ">
<polygon fill="white" stroke="#666666" points="395,-24.5 258,-24.5 258,-5.5 395,-5.5 395,-24.5"/>
<text text-anchor="middle" x="326.5" y="-12.5" font-family="Helvetica,sans-Serif" font-size="10.00">src/networking/packets.c</text>
</a>
</g>
</g>
<!-- Node1&#45;&gt;Node4 -->
<g id="edge3_Node000001_Node000004" class="edge">
<title>Node1&#45;&gt;Node4</title>
<g id="a_edge3_Node000001_Node000004"><a xlink:title=" ">
<path fill="none" stroke="#63b8ff" d="M387.21,-59.85C371.87,-48.77 351.32,-33.93 338.5,-24.67"/>
<polygon fill="#63b8ff" stroke="#63b8ff" points="385.39,-62.85 395.55,-65.87 389.49,-57.18 385.39,-62.85"/>
</a>
</g>
</g>
<!-- Node5 -->
<g id="Node000005" class="node">
<title>Node5</title>
<g id="a_Node000005"><a xlink:href="replication_8c.html" target="_top" xlink:title=" ">
<polygon fill="white" stroke="#666666" points="565.5,-24.5 413.5,-24.5 413.5,-5.5 565.5,-5.5 565.5,-24.5"/>
<text text-anchor="middle" x="489.5" y="-12.5" font-family="Helvetica,sans-Serif" font-size="10.00">src/networking/replication.c</text>
</a>
</g>
</g>
<!-- Node1&#45;&gt;Node5 -->
<g id="edge4_Node000001_Node000005" class="edge">
<title>Node1&#45;&gt;Node5</title>
<g id="a_edge4_Node000001_Node000005"><a xlink:title=" ">
<path fill="none" stroke="#63b8ff" d="M428.04,-59.85C443.57,-48.77 464.37,-33.93 477.35,-24.67"/>
<polygon fill="#63b8ff" stroke="#63b8ff" points="425.71,-57.21 419.6,-65.87 429.77,-62.91 425.71,-57.21"/>
</a>
</g>
</g>
<!-- Node6 -->
<g id="Node000006" class="node">
<title>Node6</title>
<g id="a_Node000006"><a xlink:href="start__game_8c.html" target="_top" xlink:title=" ">
<polygon fill="white" stroke="#666666" points="697.5,-30 583.5,-30 583.5,0 697.5,0 697.5,-30"/>
<text text-anchor="start" x="591.5" y="-18" font-family="Helvetica,sans-Serif" font-size="10.00">src/networking/start</text>
<text text-anchor="middle" x="640.5" y="-7" font-family="Helvetica,sans-Serif" font-size="10.00">_game.c</text>
</a>
</g>
</g>
<!-- Node1&#45;&gt;Node6 -->
<g id="edge5_Node000001_Node000006" class="edge">
<title>Node1&#45;&gt;Node6</title>
<g id="a_edge5_Node000001_Node000006"><a xlink:title=" ">
<path fill="none" stroke="#63b8ff" d="M451.54,-63.44C489.23,-53.98 543.7,-40.3 584.48,-30.06"/>
<polygon fill="#63b8ff" stroke="#63b8ff" points="450.23,-60.16 441.38,-65.99 451.93,-66.95 450.23,-60.16"/>
</a>
</g>
</g>
<!-- Node7 -->
<g id="Node000007" class="node">
<title>Node7</title>
<g id="a_Node000007"><a xlink:href="spawn__players_8c.html" target="_top" xlink:title=" ">
<polygon fill="white" stroke="#666666" points="831,-24.5 716,-24.5 716,-5.5 831,-5.5 831,-24.5"/>
<text text-anchor="middle" x="773.5" y="-12.5" font-family="Helvetica,sans-Serif" font-size="10.00">src/spawn_players.c</text>
</a>
</g>
</g>
<!-- Node1&#45;&gt;Node7 -->
<g id="edge6_Node000001_Node000007" class="edge">
<title>Node1&#45;&gt;Node7</title>
<g id="a_edge6_Node000001_Node000007"><a xlink:title=" ">
<path fill="none" stroke="#63b8ff" d="M482.37,-64.59C542.96,-56.27 630.44,-43.6 706.5,-30 715.62,-28.37 725.41,-26.43 734.6,-24.53"/>
<polygon fill="#63b8ff" stroke="#63b8ff" points="481.56,-61.17 472.13,-65.99 482.51,-68.1 481.56,-61.17"/>
</a>
</g>
</g>
</g>
</svg>
