<?xml version="1.0" encoding="UTF-8" standalone="no"?>
<!DOCTYPE svg PUBLIC "-//W3C//DTD SVG 1.1//EN"
 "http://www.w3.org/Graphics/SVG/1.1/DTD/svg11.dtd">
<!-- Generated by graphviz version 2.43.0 (0)
 -->
<!-- Title: src/networking/replication.c Pages: 1 -->
<svg width="311pt" height="247pt"
 viewBox="0.00 0.00 311.00 247.00" xmlns="http://www.w3.org/2000/svg" xmlns:xlink="http://www.w3.org/1999/xlink">
<g id="graph0" class="graph" transform="scale(1 1) rotate(0) translate(4 243)">
<title>src/networking/replication.c</title>
<!-- Node1 -->
<g id="Node000001" class="node">
<title>Node1</title>
<g id="a_Node000001"><a xlink:title=" ">
<polygon fill="#999999" stroke="#666666" points="152,-239 0,-239 0,-220 152,-220 152,-239"/>
<text text-anchor="middle" x="76" y="-227" font-family="Helvetica,sans-Serif" font-size="10.00">src/networking/replication.c</text>
</a>
</g>
</g>
<!-- Node2 -->
<g id="Node000002" class="node">
<title>Node2</title>
<g id="a_Node000002"><a xlink:title=" ">
<polygon fill="#e0e0e0" stroke="#999999" points="130,-74 50,-74 50,-55 130,-55 130,-74"/>
<text text-anchor="middle" x="90" y="-62" font-family="Helvetica,sans-Serif" font-size="10.00">libultraship.h</text>
</a>
</g>
</g>
<!-- Node1&#45;&gt;Node2 -->
<g id="edge1_Node000001_Node000002" class="edge">
<title>Node1&#45;&gt;Node2</title>
<g id="a_edge1_Node000001_Node000002"><a xlink:title=" ">
<path fill="none" stroke="#63b8ff" d="M60.87,-219.73C49.19,-211.99 33.88,-199.55 27,-184 23.58,-176.28 24.75,-173.14 27,-165 36,-132.51 59.54,-100.6 75.16,-81.99"/>
<polygon fill="#63b8ff" stroke="#63b8ff" points="78,-84.06 81.89,-74.21 72.7,-79.48 78,-84.06"/>
</a>
</g>
</g>
<!-- Node3 -->
<g id="Node000003" class="node">
<title>Node3</title>
<g id="a_Node000003"><a xlink:href="networking_8h.html" target="_top" xlink:title=" ">
<polygon fill="white" stroke="#666666" points="116,-184 36,-184 36,-165 116,-165 116,-184"/>
<text text-anchor="middle" x="76" y="-172" font-family="Helvetica,sans-Serif" font-size="10.00">networking.h</text>
</a>
</g>
</g>
<!-- Node1&#45;&gt;Node3 -->
<g id="edge2_Node000001_Node000003" class="edge">
<title>Node1&#45;&gt;Node3</title>
<g id="a_edge2_Node000001_Node000003"><a xlink:title=" ">
<path fill="none" stroke="#63b8ff" d="M76,-219.75C76,-212.8 76,-202.85 76,-194.13"/>
<polygon fill="#63b8ff" stroke="#63b8ff" points="79.5,-194.09 76,-184.09 72.5,-194.09 79.5,-194.09"/>
</a>
</g>
</g>
<!-- Node5 -->
<g id="Node000005" class="node">
<title>Node5</title>
<g id="a_Node000005"><a xlink:href="main_8h.html" target="_top" xlink:title=" ">
<polygon fill="white" stroke="#666666" points="184,-184 134,-184 134,-165 184,-165 184,-184"/>
<text text-anchor="middle" x="159" y="-172" font-family="Helvetica,sans-Serif" font-size="10.00">main.h</text>
</a>
</g>
</g>
<!-- Node1&#45;&gt;Node5 -->
<g id="edge6_Node000001_Node000005" class="edge">
<title>Node1&#45;&gt;Node5</title>
<g id="a_edge6_Node000001_Node000005"><a xlink:title=" ">
<path fill="none" stroke="#63b8ff" d="M89.34,-219.98C102.09,-211.84 121.55,-199.41 136.67,-189.76"/>
<polygon fill="#63b8ff" stroke="#63b8ff" points="138.88,-192.5 145.42,-184.17 135.11,-186.6 138.88,-192.5"/>
</a>
</g>
</g>
<!-- Node3&#45;&gt;Node2 -->
<g id="edge3_Node000003_Node000002" class="edge">
<title>Node3&#45;&gt;Node2</title>
<g id="a_edge3_Node000003_Node000002"><a xlink:title=" ">
<path fill="none" stroke="#63b8ff" d="M72.15,-164.77C67.25,-152.44 59.96,-129.27 65,-110 67.55,-100.26 72.75,-90.41 77.76,-82.46"/>
<polygon fill="#63b8ff" stroke="#63b8ff" points="80.69,-84.37 83.37,-74.12 74.89,-80.46 80.69,-84.37"/>
</a>
</g>
</g>
<!-- Node4 -->
<g id="Node000004" class="node">
<title>Node4</title>
<g id="a_Node000004"><a xlink:href="common__structs_8h.html" target="_top" xlink:title=" ">
<polygon fill="white" stroke="#666666" points="181.5,-129 74.5,-129 74.5,-110 181.5,-110 181.5,-129"/>
<text text-anchor="middle" x="128" y="-117" font-family="Helvetica,sans-Serif" font-size="10.00">common_structs.h</text>
</a>
</g>
</g>
<!-- Node3&#45;&gt;Node4 -->
<g id="edge4_Node000003_Node000004" class="edge">
<title>Node3&#45;&gt;Node4</title>
<g id="a_edge4_Node000003_Node000004"><a xlink:title=" ">
<path fill="none" stroke="#63b8ff" d="M84.59,-164.75C92.16,-157.03 103.38,-145.6 112.51,-136.28"/>
<polygon fill="#63b8ff" stroke="#63b8ff" points="115.07,-138.68 119.57,-129.09 110.07,-133.78 115.07,-138.68"/>
</a>
</g>
</g>
<!-- Node4&#45;&gt;Node2 -->
<g id="edge5_Node000004_Node000002" class="edge">
<title>Node4&#45;&gt;Node2</title>
<g id="a_edge5_Node000004_Node000002"><a xlink:title=" ">
<path fill="none" stroke="#63b8ff" d="M121.73,-109.75C116.41,-102.34 108.64,-91.5 102.12,-82.41"/>
<polygon fill="#63b8ff" stroke="#63b8ff" points="104.83,-80.18 96.16,-74.09 99.14,-84.26 104.83,-80.18"/>
</a>
</g>
</g>
<!-- Node5&#45;&gt;Node4 -->
<g id="edge12_Node000005_Node000004" class="edge">
<title>Node5&#45;&gt;Node4</title>
<g id="a_edge12_Node000005_Node000004"><a xlink:title=" ">
<path fill="none" stroke="#63b8ff" d="M153.88,-164.75C149.64,-157.49 143.47,-146.95 138.22,-137.98"/>
<polygon fill="#63b8ff" stroke="#63b8ff" points="141.09,-135.95 133.02,-129.09 135.05,-139.49 141.09,-135.95"/>
</a>
</g>
</g>
<!-- Node6 -->
<g id="Node000006" class="node">
<title>Node6</title>
<g id="a_Node000006"><a xlink:href="mk64_8h.html" target="_top" xlink:title=" ">
<polygon fill="white" stroke="#666666" points="252.5,-129 199.5,-129 199.5,-110 252.5,-110 252.5,-129"/>
<text text-anchor="middle" x="226" y="-117" font-family="Helvetica,sans-Serif" font-size="10.00">mk64.h</text>
</a>
</g>
</g>
<!-- Node5&#45;&gt;Node6 -->
<g id="edge7_Node000005_Node000006" class="edge">
<title>Node5&#45;&gt;Node6</title>
<g id="a_edge7_Node000005_Node000006"><a xlink:title=" ">
<path fill="none" stroke="#63b8ff" d="M169.76,-164.98C179.77,-157.07 194.89,-145.11 206.93,-135.58"/>
<polygon fill="#63b8ff" stroke="#63b8ff" points="209.37,-138.12 215.04,-129.17 205.03,-132.63 209.37,-138.12"/>
</a>
</g>
</g>
<!-- Node6&#45;&gt;Node2 -->
<g id="edge8_Node000006_Node000002" class="edge">
<title>Node6&#45;&gt;Node2</title>
<g id="a_edge8_Node000006_Node000002"><a xlink:title=" ">
<path fill="none" stroke="#63b8ff" d="M204.15,-109.98C181.88,-101.3 147.1,-87.75 121.78,-77.88"/>
<polygon fill="#63b8ff" stroke="#63b8ff" points="122.84,-74.54 112.25,-74.17 120.29,-81.06 122.84,-74.54"/>
</a>
</g>
</g>
<!-- Node7 -->
<g id="Node000007" class="node">
<title>Node7</title>
<g id="a_Node000007"><a xlink:href="string_8h.html" target="_top" xlink:title=" ">
<polygon fill="white" stroke="#666666" points="206.5,-74 153.5,-74 153.5,-55 206.5,-55 206.5,-74"/>
<text text-anchor="middle" x="180" y="-62" font-family="Helvetica,sans-Serif" font-size="10.00">string.h</text>
</a>
</g>
</g>
<!-- Node6&#45;&gt;Node7 -->
<g id="edge9_Node000006_Node000007" class="edge">
<title>Node6&#45;&gt;Node7</title>
<g id="a_edge9_Node000006_Node000007"><a xlink:title=" ">
<path fill="none" stroke="#63b8ff" d="M218.4,-109.75C211.84,-102.18 202.18,-91.05 194.19,-81.84"/>
<polygon fill="#63b8ff" stroke="#63b8ff" points="196.65,-79.35 187.45,-74.09 191.37,-83.94 196.65,-79.35"/>
</a>
</g>
</g>
<!-- Node9 -->
<g id="Node000009" class="node">
<title>Node9</title>
<g id="a_Node000009"><a xlink:title=" ">
<polygon fill="#e0e0e0" stroke="#999999" points="303,-74 225,-74 225,-55 303,-55 303,-74"/>
<text text-anchor="middle" x="264" y="-62" font-family="Helvetica,sans-Serif" font-size="10.00">libultra/gbi.h</text>
</a>
</g>
</g>
<!-- Node6&#45;&gt;Node9 -->
<g id="edge11_Node000006_Node000009" class="edge">
<title>Node6&#45;&gt;Node9</title>
<g id="a_edge11_Node000006_Node000009"><a xlink:title=" ">
<path fill="none" stroke="#63b8ff" d="M232.27,-109.75C237.59,-102.34 245.36,-91.5 251.88,-82.41"/>
<polygon fill="#63b8ff" stroke="#63b8ff" points="254.86,-84.26 257.84,-74.09 249.17,-80.18 254.86,-84.26"/>
</a>
</g>
</g>
<!-- Node8 -->
<g id="Node000008" class="node">
<title>Node8</title>
<g id="a_Node000008"><a xlink:title=" ">
<polygon fill="#e0e0e0" stroke="#999999" points="225,-19 135,-19 135,0 225,0 225,-19"/>
<text text-anchor="middle" x="180" y="-7" font-family="Helvetica,sans-Serif" font-size="10.00">libultra/types.h</text>
</a>
</g>
</g>
<!-- Node7&#45;&gt;Node8 -->
<g id="edge10_Node000007_Node000008" class="edge">
<title>Node7&#45;&gt;Node8</title>
<g id="a_edge10_Node000007_Node000008"><a xlink:title=" ">
<path fill="none" stroke="#63b8ff" d="M180,-54.75C180,-47.8 180,-37.85 180,-29.13"/>
<polygon fill="#63b8ff" stroke="#63b8ff" points="183.5,-29.09 180,-19.09 176.5,-29.09 183.5,-29.09"/>
</a>
</g>
</g>
</g>
</svg>
