<?xml version="1.0" encoding="UTF-8" standalone="no"?>
<!DOCTYPE svg PUBLIC "-//W3C//DTD SVG 1.1//EN"
 "http://www.w3.org/Graphics/SVG/1.1/DTD/svg11.dtd">
<!-- Generated by graphviz version 2.43.0 (0)
 -->
<!-- Title: src/spawn_players.h Pages: 1 -->
<!--zoomable 203 -->

<svg id="main" version="1.1" xmlns="http://www.w3.org/2000/svg" xmlns:xlink="http://www.w3.org/1999/xlink" xml:space="preserve" onload="init(evt)">

<style type="text/css"><![CDATA[
.node, .edge {opacity: 0.7;}
.node.selected, .edge.selected {opacity: 1;}
.edge:hover path { stroke: red; }
.edge:hover polygon { stroke: red; fill: red; }
]]></style>

<defs>
  <circle id="rim" cx="0" cy="0" r="7"/>
  <circle id="rim2" cx="0" cy="0" r="3.5"/>
  <g id="zoomPlus">
    <use xlink:href="#rim" fill="#404040"><set attributeName="fill" to="#808080" begin="zoomplus.mouseover" end="zoomplus.mouseout"/></use>
    <path d="M-4,0h8M0,-4v8" fill="none" stroke="white" stroke-width="1.5" pointer-events="none"/>
  </g>
  <g id="zoomMin">
    <use xlink:href="#rim" fill="#404040"><set attributeName="fill" to="#808080" begin="zoomminus.mouseover" end="zoomminus.mouseout"/></use>
    <path d="M-4,0h8" fill="none" stroke="white" stroke-width="1.5" pointer-events="none"/>
  </g>
  <g id="arrowUp" transform="translate(30 24)">
    <use xlink:href="#rim"/>
    <path pointer-events="none" fill="none" stroke="white" stroke-width="1.5" d="M0,-3.0v7 M-2.5,-0.5L0,-3.0L2.5,-0.5"/>
  </g>
  <g id="arrowRight" transform="rotate(90) translate(36 -43)">
    <use xlink:href="#rim"/>
    <path pointer-events="none" fill="none" stroke="white" stroke-width="1.5" d="M0,-3.0v7 M-2.5,-0.5L0,-3.0L2.5,-0.5"/>
  </g>
  <g id="arrowDown" transform="rotate(180) translate(-30 -48)">
    <use xlink:href="#rim"/>
    <path pointer-events="none" fill="none" stroke="white" stroke-width="1.5" d="M0,-3.0v7 M-2.5,-0.5L0,-3.0L2.5,-0.5"/>
  </g>
  <g id="arrowLeft" transform="rotate(270) translate(-36 17)">
    <use xlink:href="#rim"/>
    <path pointer-events="none" fill="none" stroke="white" stroke-width="1.5" d="M0,-3.0v7 M-2.5,-0.5L0,-3.0L2.5,-0.5"/>
  </g>
  <g id="resetDef">
    <use xlink:href="#rim2" fill="#404040"><set attributeName="fill" to="#808080" begin="reset.mouseover" end="reset.mouseout"/></use>
  </g>
</defs>
<script type="application/ecmascript">
var viewWidth = 4675;
var viewHeight = 203;
var sectionId = 'dynsection-1';
</script>
<script type="application/ecmascript" xlink:href="svg.min.js"/>
<svg id="graph" class="graph">
<g id="viewport">
<title>src/spawn_players.h</title>
<!-- Node1 -->
<g id="Node000001" class="node">
<title>Node1</title>
<g id="a_Node000001"><a xlink:title=" ">
<polygon fill="#999999" stroke="#666666" points="2439.5,-195 2323.5,-195 2323.5,-176 2439.5,-176 2439.5,-195"/>
<text text-anchor="middle" x="2381.5" y="-183" font-family="Helvetica,sans-Serif" font-size="10.00">src/spawn_players.h</text>
</a>
</g>
</g>
<!-- Node2 -->
<g id="Node000002" class="node">
<title>Node2</title>
<g id="a_Node000002"><a xlink:href="camera_8c.html" target="_top" xlink:title=" ">
<polygon fill="white" stroke="#666666" points="79,-134.5 0,-134.5 0,-115.5 79,-115.5 79,-134.5"/>
<text text-anchor="middle" x="39.5" y="-122.5" font-family="Helvetica,sans-Serif" font-size="10.00">src/camera.c</text>
</a>
</g>
</g>
<!-- Node1&#45;&gt;Node2 -->
<g id="edge1_Node000001_Node000002" class="edge">
<title>Node1&#45;&gt;Node2</title>
<g id="a_edge1_Node000001_Node000002"><a xlink:title=" ">
<path fill="none" stroke="#63b8ff" d="M2313.27,-184.23C1956.46,-182.66 312.95,-173.66 88.5,-140 80.63,-138.82 72.23,-136.74 64.66,-134.54"/>
<polygon fill="#63b8ff" stroke="#63b8ff" points="2313.43,-187.73 2323.45,-184.27 2313.46,-180.73 2313.43,-187.73"/>
</a>
</g>
</g>
<!-- Node3 -->
<g id="Node000003" class="node">
<title>Node3</title>
<g id="a_Node000003"><a xlink:href="code__800029B0_8c.html" target="_top" xlink:title=" ">
<polygon fill="white" stroke="#666666" points="216,-134.5 97,-134.5 97,-115.5 216,-115.5 216,-134.5"/>
<text text-anchor="middle" x="156.5" y="-122.5" font-family="Helvetica,sans-Serif" font-size="10.00">src/code_800029B0.c</text>
</a>
</g>
</g>
<!-- Node1&#45;&gt;Node3 -->
<g id="edge2_Node000001_Node000003" class="edge">
<title>Node1&#45;&gt;Node3</title>
<g id="a_edge2_Node000001_Node000003"><a xlink:title=" ">
<path fill="none" stroke="#63b8ff" d="M2312.97,-184.74C1993.02,-185.61 644.22,-186.42 225.5,-140 214.69,-138.8 203.05,-136.74 192.48,-134.57"/>
<polygon fill="#63b8ff" stroke="#63b8ff" points="2313.03,-188.24 2323.02,-184.71 2313.01,-181.24 2313.03,-188.24"/>
</a>
</g>
</g>
<!-- Node4 -->
<g id="Node000004" class="node">
<title>Node4</title>
<g id="a_Node000004"><a xlink:href="code__80005FD0_8c.html" target="_top" xlink:title=" ">
<polygon fill="white" stroke="#666666" points="354.5,-134.5 234.5,-134.5 234.5,-115.5 354.5,-115.5 354.5,-134.5"/>
<text text-anchor="middle" x="294.5" y="-122.5" font-family="Helvetica,sans-Serif" font-size="10.00">src/code_80005FD0.c</text>
</a>
</g>
</g>
<!-- Node1&#45;&gt;Node4 -->
<g id="edge3_Node000001_Node000004" class="edge">
<title>Node1&#45;&gt;Node4</title>
<g id="a_edge3_Node000001_Node000004"><a xlink:title=" ">
<path fill="none" stroke="#63b8ff" d="M2312.93,-184.6C2005.76,-184.81 754.35,-182.95 364.5,-140 353.54,-138.79 341.74,-136.73 331,-134.56"/>
<polygon fill="#63b8ff" stroke="#63b8ff" points="2313.03,-188.1 2323.03,-184.59 2313.03,-181.1 2313.03,-188.1"/>
</a>
</g>
</g>
<!-- Node5 -->
<g id="Node000005" class="node">
<title>Node5</title>
<g id="a_Node000005"><a xlink:href="code__80057C60_8c.html" target="_top" xlink:title=" ">
<polygon fill="white" stroke="#666666" points="492,-134.5 373,-134.5 373,-115.5 492,-115.5 492,-134.5"/>
<text text-anchor="middle" x="432.5" y="-122.5" font-family="Helvetica,sans-Serif" font-size="10.00">src/code_80057C60.c</text>
</a>
</g>
</g>
<!-- Node1&#45;&gt;Node5 -->
<g id="edge4_Node000001_Node000005" class="edge">
<title>Node1&#45;&gt;Node5</title>
<g id="a_edge4_Node000001_Node000005"><a xlink:title=" ">
<path fill="none" stroke="#63b8ff" d="M2313.31,-184.5C2019.83,-184.24 863.02,-180.63 501.5,-140 490.69,-138.78 479.06,-136.72 468.48,-134.55"/>
<polygon fill="#63b8ff" stroke="#63b8ff" points="2313.38,-188 2323.38,-184.51 2313.38,-181 2313.38,-188"/>
</a>
</g>
</g>
<!-- Node6 -->
<g id="Node000006" class="node">
<title>Node6</title>
<g id="a_Node000006"><a xlink:href="all__variables_8h.html" target="_top" xlink:title=" ">
<polygon fill="white" stroke="#666666" points="648.5,-134.5 510.5,-134.5 510.5,-115.5 648.5,-115.5 648.5,-134.5"/>
<text text-anchor="middle" x="579.5" y="-122.5" font-family="Helvetica,sans-Serif" font-size="10.00">src/debug/all_variables.h</text>
</a>
</g>
</g>
<!-- Node1&#45;&gt;Node6 -->
<g id="edge5_Node000001_Node000006" class="edge">
<title>Node1&#45;&gt;Node6</title>
<g id="a_edge5_Node000001_Node000006"><a xlink:title=" ">
<path fill="none" stroke="#63b8ff" d="M2312.73,-184.1C2034.01,-182.26 987.71,-173.23 658.5,-140 646.17,-138.75 632.86,-136.68 620.75,-134.51"/>
<polygon fill="#63b8ff" stroke="#63b8ff" points="2313.07,-187.6 2323.1,-184.17 2313.12,-180.6 2313.07,-187.6"/>
</a>
</g>
</g>
<!-- Node9 -->
<g id="Node000009" class="node">
<title>Node9</title>
<g id="a_Node000009"><a xlink:href="effects_8c.html" target="_top" xlink:title=" ">
<polygon fill="white" stroke="#666666" points="742,-134.5 667,-134.5 667,-115.5 742,-115.5 742,-134.5"/>
<text text-anchor="middle" x="704.5" y="-122.5" font-family="Helvetica,sans-Serif" font-size="10.00">src/effects.c</text>
</a>
</g>
</g>
<!-- Node1&#45;&gt;Node9 -->
<g id="edge8_Node000001_Node000009" class="edge">
<title>Node1&#45;&gt;Node9</title>
<g id="a_edge8_Node000001_Node000009"><a xlink:title=" ">
<path fill="none" stroke="#63b8ff" d="M2313.06,-183.69C2023.51,-180.12 907,-164.84 751.5,-140 743.93,-138.79 735.88,-136.7 728.61,-134.5"/>
<polygon fill="#63b8ff" stroke="#63b8ff" points="2313.37,-187.19 2323.41,-183.82 2313.45,-180.19 2313.37,-187.19"/>
</a>
</g>
</g>
<!-- Node10 -->
<g id="Node000010" class="node">
<title>Node10</title>
<g id="a_Node000010"><a xlink:href="code__80281780_8c.html" target="_top" xlink:title=" ">
<polygon fill="white" stroke="#666666" points="915,-134.5 760,-134.5 760,-115.5 915,-115.5 915,-134.5"/>
<text text-anchor="middle" x="837.5" y="-122.5" font-family="Helvetica,sans-Serif" font-size="10.00">src/ending/code_80281780.c</text>
</a>
</g>
</g>
<!-- Node1&#45;&gt;Node10 -->
<g id="edge9_Node000001_Node000010" class="edge">
<title>Node1&#45;&gt;Node10</title>
<g id="a_edge9_Node000001_Node000010"><a xlink:title=" ">
<path fill="none" stroke="#63b8ff" d="M2313.22,-183.58C2063.38,-180.05 1199.23,-166.19 924.5,-140 911.1,-138.72 896.63,-136.67 883.41,-134.52"/>
<polygon fill="#63b8ff" stroke="#63b8ff" points="2313.21,-187.08 2323.26,-183.73 2313.31,-180.09 2313.21,-187.08"/>
</a>
</g>
</g>
<!-- Node11 -->
<g id="Node000011" class="node">
<title>Node11</title>
<g id="a_Node000011"><a xlink:href="BansheeBoardwalk_8cpp.html" target="_top" xlink:title=" ">
<polygon fill="white" stroke="#666666" points="1067.5,-140 933.5,-140 933.5,-110 1067.5,-110 1067.5,-140"/>
<text text-anchor="start" x="941.5" y="-128" font-family="Helvetica,sans-Serif" font-size="10.00">src/engine/courses</text>
<text text-anchor="middle" x="1000.5" y="-117" font-family="Helvetica,sans-Serif" font-size="10.00">/BansheeBoardwalk.cpp</text>
</a>
</g>
</g>
<!-- Node1&#45;&gt;Node11 -->
<g id="edge10_Node000001_Node000011" class="edge">
<title>Node1&#45;&gt;Node11</title>
<g id="a_edge10_Node000001_Node000011"><a xlink:title=" ">
<path fill="none" stroke="#63b8ff" d="M2313.48,-183.49C2081.25,-179.83 1320.65,-166.11 1077.5,-140 1074.26,-139.65 1070.95,-139.25 1067.61,-138.8"/>
<polygon fill="#63b8ff" stroke="#63b8ff" points="2313.43,-186.99 2323.49,-183.65 2313.54,-179.99 2313.43,-186.99"/>
</a>
</g>
</g>
<!-- Node12 -->
<g id="Node000012" class="node">
<title>Node12</title>
<g id="a_Node000012"><a xlink:href="BigDonut_8cpp.html" target="_top" xlink:title=" ">
<polygon fill="white" stroke="#666666" points="1193,-140 1086,-140 1086,-110 1193,-110 1193,-140"/>
<text text-anchor="start" x="1094" y="-128" font-family="Helvetica,sans-Serif" font-size="10.00">src/engine/courses</text>
<text text-anchor="middle" x="1139.5" y="-117" font-family="Helvetica,sans-Serif" font-size="10.00">/BigDonut.cpp</text>
</a>
</g>
</g>
<!-- Node1&#45;&gt;Node12 -->
<g id="edge11_Node000001_Node000012" class="edge">
<title>Node1&#45;&gt;Node12</title>
<g id="a_edge11_Node000001_Node000012"><a xlink:title=" ">
<path fill="none" stroke="#63b8ff" d="M2313.45,-183.55C2096.01,-180.26 1419.6,-167.99 1202.5,-140 1199.5,-139.61 1196.43,-139.15 1193.34,-138.64"/>
<polygon fill="#63b8ff" stroke="#63b8ff" points="2313.4,-187.05 2323.45,-183.7 2313.5,-180.05 2313.4,-187.05"/>
</a>
</g>
</g>
<!-- Node13 -->
<g id="Node000013" class="node">
<title>Node13</title>
<g id="a_Node000013"><a xlink:href="BlockFort_8cpp.html" target="_top" xlink:title=" ">
<polygon fill="white" stroke="#666666" points="1318,-140 1211,-140 1211,-110 1318,-110 1318,-140"/>
<text text-anchor="start" x="1219" y="-128" font-family="Helvetica,sans-Serif" font-size="10.00">src/engine/courses</text>
<text text-anchor="middle" x="1264.5" y="-117" font-family="Helvetica,sans-Serif" font-size="10.00">/BlockFort.cpp</text>
</a>
</g>
</g>
<!-- Node1&#45;&gt;Node13 -->
<g id="edge12_Node000001_Node000013" class="edge">
<title>Node1&#45;&gt;Node13</title>
<g id="a_edge12_Node000001_Node000013"><a xlink:title=" ">
<path fill="none" stroke="#63b8ff" d="M2313.24,-183.19C2111.32,-179.08 1519.15,-165.14 1327.5,-140 1324.39,-139.59 1321.21,-139.11 1318,-138.56"/>
<polygon fill="#63b8ff" stroke="#63b8ff" points="2313.34,-186.7 2323.41,-183.4 2313.48,-179.7 2313.34,-186.7"/>
</a>
</g>
</g>
<!-- Node14 -->
<g id="Node000014" class="node">
<title>Node14</title>
<g id="a_Node000014"><a xlink:href="BowsersCastle_8cpp.html" target="_top" xlink:title=" ">
<polygon fill="white" stroke="#666666" points="1448.5,-140 1336.5,-140 1336.5,-110 1448.5,-110 1448.5,-140"/>
<text text-anchor="start" x="1344.5" y="-128" font-family="Helvetica,sans-Serif" font-size="10.00">src/engine/courses</text>
<text text-anchor="middle" x="1392.5" y="-117" font-family="Helvetica,sans-Serif" font-size="10.00">/BowsersCastle.cpp</text>
</a>
</g>
</g>
<!-- Node1&#45;&gt;Node14 -->
<g id="edge13_Node000001_Node000014" class="edge">
<title>Node1&#45;&gt;Node14</title>
<g id="a_edge13_Node000001_Node000014"><a xlink:title=" ">
<path fill="none" stroke="#63b8ff" d="M2313.14,-185.03C2159.5,-185.38 1775.45,-181.61 1457.5,-140 1454.64,-139.63 1451.72,-139.19 1448.77,-138.71"/>
<polygon fill="#63b8ff" stroke="#63b8ff" points="2313.38,-188.53 2323.36,-185 2313.35,-181.53 2313.38,-188.53"/>
</a>
</g>
</g>
<!-- Node15 -->
<g id="Node000015" class="node">
<title>Node15</title>
<g id="a_Node000015"><a xlink:href="ChocoMountain_8cpp.html" target="_top" xlink:title=" ">
<polygon fill="white" stroke="#666666" points="1582.5,-140 1466.5,-140 1466.5,-110 1582.5,-110 1582.5,-140"/>
<text text-anchor="start" x="1474.5" y="-128" font-family="Helvetica,sans-Serif" font-size="10.00">src/engine/courses</text>
<text text-anchor="middle" x="1524.5" y="-117" font-family="Helvetica,sans-Serif" font-size="10.00">/ChocoMountain.cpp</text>
</a>
</g>
</g>
<!-- Node1&#45;&gt;Node15 -->
<g id="edge14_Node000001_Node000015" class="edge">
<title>Node1&#45;&gt;Node15</title>
<g id="a_edge14_Node000001_Node000015"><a xlink:title=" ">
<path fill="none" stroke="#63b8ff" d="M2312.96,-184.01C2175.66,-182.28 1857.35,-174.54 1592.5,-140 1589.27,-139.58 1585.97,-139.09 1582.64,-138.56"/>
<polygon fill="#63b8ff" stroke="#63b8ff" points="2313.28,-187.51 2323.32,-184.13 2313.36,-180.51 2313.28,-187.51"/>
</a>
</g>
</g>
<!-- Node16 -->
<g id="Node000016" class="node">
<title>Node16</title>
<g id="a_Node000016"><a xlink:href="DKJungle_8cpp.html" target="_top" xlink:title=" ">
<polygon fill="white" stroke="#666666" points="1708,-140 1601,-140 1601,-110 1708,-110 1708,-140"/>
<text text-anchor="start" x="1609" y="-128" font-family="Helvetica,sans-Serif" font-size="10.00">src/engine/courses</text>
<text text-anchor="middle" x="1654.5" y="-117" font-family="Helvetica,sans-Serif" font-size="10.00">/DKJungle.cpp</text>
</a>
</g>
</g>
<!-- Node1&#45;&gt;Node16 -->
<g id="edge15_Node000001_Node000016" class="edge">
<title>Node1&#45;&gt;Node16</title>
<g id="a_edge15_Node000001_Node000016"><a xlink:title=" ">
<path fill="none" stroke="#63b8ff" d="M2313.26,-183.34C2192.53,-180.52 1933.63,-171.07 1717.5,-140 1714.39,-139.55 1711.22,-139.04 1708.01,-138.47"/>
<polygon fill="#63b8ff" stroke="#63b8ff" points="2313.38,-186.84 2323.46,-183.57 2313.54,-179.84 2313.38,-186.84"/>
</a>
</g>
</g>
<!-- Node17 -->
<g id="Node000017" class="node">
<title>Node17</title>
<g id="a_Node000017"><a xlink:href="DoubleDeck_8cpp.html" target="_top" xlink:title=" ">
<polygon fill="white" stroke="#666666" points="1833,-140 1726,-140 1726,-110 1833,-110 1833,-140"/>
<text text-anchor="start" x="1734" y="-128" font-family="Helvetica,sans-Serif" font-size="10.00">src/engine/courses</text>
<text text-anchor="middle" x="1779.5" y="-117" font-family="Helvetica,sans-Serif" font-size="10.00">/DoubleDeck.cpp</text>
</a>
</g>
</g>
<!-- Node1&#45;&gt;Node17 -->
<g id="edge16_Node000001_Node000017" class="edge">
<title>Node1&#45;&gt;Node17</title>
<g id="a_edge16_Node000001_Node000017"><a xlink:title=" ">
<path fill="none" stroke="#63b8ff" d="M2313.14,-181.84C2210.47,-177.18 2010.56,-165.49 1842.5,-140 1839.4,-139.53 1836.22,-138.99 1833.02,-138.41"/>
<polygon fill="#63b8ff" stroke="#63b8ff" points="2313.22,-185.35 2323.37,-182.3 2313.54,-178.36 2313.22,-185.35"/>
</a>
</g>
</g>
<!-- Node18 -->
<g id="Node000018" class="node">
<title>Node18</title>
<g id="a_Node000018"><a xlink:href="FrappeSnowland_8cpp.html" target="_top" xlink:title=" ">
<polygon fill="white" stroke="#666666" points="1971.5,-140 1851.5,-140 1851.5,-110 1971.5,-110 1971.5,-140"/>
<text text-anchor="start" x="1859.5" y="-128" font-family="Helvetica,sans-Serif" font-size="10.00">src/engine/courses</text>
<text text-anchor="middle" x="1911.5" y="-117" font-family="Helvetica,sans-Serif" font-size="10.00">/FrappeSnowland.cpp</text>
</a>
</g>
</g>
<!-- Node1&#45;&gt;Node18 -->
<g id="edge17_Node000001_Node000018" class="edge">
<title>Node1&#45;&gt;Node18</title>
<g id="a_edge17_Node000001_Node000018"><a xlink:title=" ">
<path fill="none" stroke="#63b8ff" d="M2312.92,-178.69C2233.06,-171.51 2097.3,-157.99 1981.5,-140 1978.32,-139.51 1975.06,-138.97 1971.77,-138.4"/>
<polygon fill="#63b8ff" stroke="#63b8ff" points="2313.06,-182.22 2323.33,-179.62 2313.68,-175.25 2313.06,-182.22"/>
</a>
</g>
</g>
<!-- Node19 -->
<g id="Node000019" class="node">
<title>Node19</title>
<g id="a_Node000019"><a xlink:href="Harbour_8cpp.html" target="_top" xlink:title=" ">
<polygon fill="white" stroke="#666666" points="2097,-140 1990,-140 1990,-110 2097,-110 2097,-140"/>
<text text-anchor="start" x="1998" y="-128" font-family="Helvetica,sans-Serif" font-size="10.00">src/engine/courses</text>
<text text-anchor="middle" x="2043.5" y="-117" font-family="Helvetica,sans-Serif" font-size="10.00">/Harbour.cpp</text>
</a>
</g>
</g>
<!-- Node1&#45;&gt;Node19 -->
<g id="edge18_Node000001_Node000019" class="edge">
<title>Node1&#45;&gt;Node19</title>
<g id="a_edge18_Node000001_Node000019"><a xlink:title=" ">
<path fill="none" stroke="#63b8ff" d="M2313.27,-174.59C2257.51,-166.22 2176.7,-153.47 2106.5,-140 2103.42,-139.41 2100.26,-138.78 2097.07,-138.13"/>
<polygon fill="#63b8ff" stroke="#63b8ff" points="2312.98,-178.08 2323.39,-176.1 2314.01,-171.16 2312.98,-178.08"/>
</a>
</g>
</g>
<!-- Node20 -->
<g id="Node000020" class="node">
<title>Node20</title>
<g id="a_Node000020"><a xlink:href="KalimariDesert_8cpp.html" target="_top" xlink:title=" ">
<polygon fill="white" stroke="#666666" points="2228,-140 2115,-140 2115,-110 2228,-110 2228,-140"/>
<text text-anchor="start" x="2123" y="-128" font-family="Helvetica,sans-Serif" font-size="10.00">src/engine/courses</text>
<text text-anchor="middle" x="2171.5" y="-117" font-family="Helvetica,sans-Serif" font-size="10.00">/KalimariDesert.cpp</text>
</a>
</g>
</g>
<!-- Node1&#45;&gt;Node20 -->
<g id="edge19_Node000001_Node000020" class="edge">
<title>Node1&#45;&gt;Node20</title>
<g id="a_edge19_Node000001_Node000020"><a xlink:title=" ">
<path fill="none" stroke="#63b8ff" d="M2340.93,-173.2C2307,-163.75 2258.43,-150.22 2221.99,-140.06"/>
<polygon fill="#63b8ff" stroke="#63b8ff" points="2340.39,-176.68 2350.96,-175.99 2342.27,-169.94 2340.39,-176.68"/>
</a>
</g>
</g>
<!-- Node21 -->
<g id="Node000021" class="node">
<title>Node21</title>
<g id="a_Node000021"><a xlink:href="KoopaTroopaBeach_8cpp.html" target="_top" xlink:title=" ">
<polygon fill="white" stroke="#666666" points="2378.5,-140 2246.5,-140 2246.5,-110 2378.5,-110 2378.5,-140"/>
<text text-anchor="start" x="2254.5" y="-128" font-family="Helvetica,sans-Serif" font-size="10.00">src/engine/courses</text>
<text text-anchor="middle" x="2312.5" y="-117" font-family="Helvetica,sans-Serif" font-size="10.00">/KoopaTroopaBeach.cpp</text>
</a>
</g>
</g>
<!-- Node1&#45;&gt;Node21 -->
<g id="edge20_Node000001_Node000021" class="edge">
<title>Node1&#45;&gt;Node21</title>
<g id="a_edge20_Node000001_Node000021"><a xlink:title=" ">
<path fill="none" stroke="#63b8ff" d="M2363.49,-169.23C2352.87,-160.23 2339.52,-148.91 2329.15,-140.11"/>
<polygon fill="#63b8ff" stroke="#63b8ff" points="2361.43,-172.07 2371.32,-175.87 2365.95,-166.73 2361.43,-172.07"/>
</a>
</g>
</g>
<!-- Node22 -->
<g id="Node000022" class="node">
<title>Node22</title>
<g id="a_Node000022"><a xlink:href="LuigiRaceway_8cpp.html" target="_top" xlink:title=" ">
<polygon fill="white" stroke="#666666" points="2504,-140 2397,-140 2397,-110 2504,-110 2504,-140"/>
<text text-anchor="start" x="2405" y="-128" font-family="Helvetica,sans-Serif" font-size="10.00">src/engine/courses</text>
<text text-anchor="middle" x="2450.5" y="-117" font-family="Helvetica,sans-Serif" font-size="10.00">/LuigiRaceway.cpp</text>
</a>
</g>
</g>
<!-- Node1&#45;&gt;Node22 -->
<g id="edge21_Node000001_Node000022" class="edge">
<title>Node1&#45;&gt;Node22</title>
<g id="a_edge21_Node000001_Node000022"><a xlink:title=" ">
<path fill="none" stroke="#63b8ff" d="M2399.51,-169.23C2410.13,-160.23 2423.48,-148.91 2433.85,-140.11"/>
<polygon fill="#63b8ff" stroke="#63b8ff" points="2397.05,-166.73 2391.68,-175.87 2401.57,-172.07 2397.05,-166.73"/>
</a>
</g>
</g>
<!-- Node23 -->
<g id="Node000023" class="node">
<title>Node23</title>
<g id="a_Node000023"><a xlink:href="MarioRaceway_8cpp.html" target="_top" xlink:title=" ">
<polygon fill="white" stroke="#666666" points="2632.5,-140 2522.5,-140 2522.5,-110 2632.5,-110 2632.5,-140"/>
<text text-anchor="start" x="2530.5" y="-128" font-family="Helvetica,sans-Serif" font-size="10.00">src/engine/courses</text>
<text text-anchor="middle" x="2577.5" y="-117" font-family="Helvetica,sans-Serif" font-size="10.00">/MarioRaceway.cpp</text>
</a>
</g>
</g>
<!-- Node1&#45;&gt;Node23 -->
<g id="edge22_Node000001_Node000023" class="edge">
<title>Node1&#45;&gt;Node23</title>
<g id="a_edge22_Node000001_Node000023"><a xlink:title=" ">
<path fill="none" stroke="#63b8ff" d="M2419.77,-173.08C2451.42,-163.63 2496.51,-150.17 2530.38,-140.06"/>
<polygon fill="#63b8ff" stroke="#63b8ff" points="2418.58,-169.78 2410,-175.99 2420.58,-176.49 2418.58,-169.78"/>
</a>
</g>
</g>
<!-- Node24 -->
<g id="Node000024" class="node">
<title>Node24</title>
<g id="a_Node000024"><a xlink:href="MooMooFarm_8cpp.html" target="_top" xlink:title=" ">
<polygon fill="white" stroke="#666666" points="2758,-140 2651,-140 2651,-110 2758,-110 2758,-140"/>
<text text-anchor="start" x="2659" y="-128" font-family="Helvetica,sans-Serif" font-size="10.00">src/engine/courses</text>
<text text-anchor="middle" x="2704.5" y="-117" font-family="Helvetica,sans-Serif" font-size="10.00">/MooMooFarm.cpp</text>
</a>
</g>
</g>
<!-- Node1&#45;&gt;Node24 -->
<g id="edge23_Node000001_Node000024" class="edge">
<title>Node1&#45;&gt;Node24</title>
<g id="a_edge23_Node000001_Node000024"><a xlink:title=" ">
<path fill="none" stroke="#63b8ff" d="M2445.81,-174.4C2498.52,-165.9 2575.01,-153.07 2641.5,-140 2644.58,-139.39 2647.74,-138.75 2650.92,-138.09"/>
<polygon fill="#63b8ff" stroke="#63b8ff" points="2445.24,-170.94 2435.92,-175.98 2446.35,-177.85 2445.24,-170.94"/>
</a>
</g>
</g>
<!-- Node25 -->
<g id="Node000025" class="node">
<title>Node25</title>
<g id="a_Node000025"><a xlink:href="PodiumCeremony_8cpp.html" target="_top" xlink:title=" ">
<polygon fill="white" stroke="#666666" points="2901,-140 2776,-140 2776,-110 2901,-110 2901,-140"/>
<text text-anchor="start" x="2784" y="-128" font-family="Helvetica,sans-Serif" font-size="10.00">src/engine/courses</text>
<text text-anchor="middle" x="2838.5" y="-117" font-family="Helvetica,sans-Serif" font-size="10.00">/PodiumCeremony.cpp</text>
</a>
</g>
</g>
<!-- Node1&#45;&gt;Node25 -->
<g id="edge24_Node000001_Node000025" class="edge">
<title>Node1&#45;&gt;Node25</title>
<g id="a_edge24_Node000001_Node000025"><a xlink:title=" ">
<path fill="none" stroke="#63b8ff" d="M2449.66,-178.3C2526.96,-170.89 2656.67,-157.29 2767.5,-140 2770.23,-139.57 2773.02,-139.12 2775.83,-138.64"/>
<polygon fill="#63b8ff" stroke="#63b8ff" points="2449.19,-174.83 2439.57,-179.26 2449.86,-181.8 2449.19,-174.83"/>
</a>
</g>
</g>
<!-- Node26 -->
<g id="Node000026" class="node">
<title>Node26</title>
<g id="a_Node000026"><a xlink:href="RainbowRoad_8cpp.html" target="_top" xlink:title=" ">
<polygon fill="white" stroke="#666666" points="3026,-140 2919,-140 2919,-110 3026,-110 3026,-140"/>
<text text-anchor="start" x="2927" y="-128" font-family="Helvetica,sans-Serif" font-size="10.00">src/engine/courses</text>
<text text-anchor="middle" x="2972.5" y="-117" font-family="Helvetica,sans-Serif" font-size="10.00">/RainbowRoad.cpp</text>
</a>
</g>
</g>
<!-- Node1&#45;&gt;Node26 -->
<g id="edge25_Node000001_Node000026" class="edge">
<title>Node1&#45;&gt;Node26</title>
<g id="a_edge25_Node000001_Node000026"><a xlink:title=" ">
<path fill="none" stroke="#63b8ff" d="M2449.82,-181.77C2550.95,-177.05 2746.26,-165.33 2910.5,-140 2913.23,-139.58 2916.01,-139.11 2918.82,-138.6"/>
<polygon fill="#63b8ff" stroke="#63b8ff" points="2449.57,-178.28 2439.74,-182.23 2449.89,-185.27 2449.57,-178.28"/>
</a>
</g>
</g>
<!-- Node27 -->
<g id="Node000027" class="node">
<title>Node27</title>
<g id="a_Node000027"><a xlink:href="RoyalRaceway_8cpp.html" target="_top" xlink:title=" ">
<polygon fill="white" stroke="#666666" points="3154.5,-140 3044.5,-140 3044.5,-110 3154.5,-110 3154.5,-140"/>
<text text-anchor="start" x="3052.5" y="-128" font-family="Helvetica,sans-Serif" font-size="10.00">src/engine/courses</text>
<text text-anchor="middle" x="3099.5" y="-117" font-family="Helvetica,sans-Serif" font-size="10.00">/RoyalRaceway.cpp</text>
</a>
</g>
</g>
<!-- Node1&#45;&gt;Node27 -->
<g id="edge26_Node000001_Node000027" class="edge">
<title>Node1&#45;&gt;Node27</title>
<g id="a_edge26_Node000001_Node000027"><a xlink:title=" ">
<path fill="none" stroke="#63b8ff" d="M2449.62,-183.17C2568.91,-180.1 2823.12,-170.29 3035.5,-140 3038.43,-139.58 3041.42,-139.11 3044.44,-138.59"/>
<polygon fill="#63b8ff" stroke="#63b8ff" points="2449.45,-179.67 2439.54,-183.42 2449.62,-186.67 2449.45,-179.67"/>
</a>
</g>
</g>
<!-- Node28 -->
<g id="Node000028" class="node">
<title>Node28</title>
<g id="a_Node000028"><a xlink:href="SherbetLand_8cpp.html" target="_top" xlink:title=" ">
<polygon fill="white" stroke="#666666" points="3280,-140 3173,-140 3173,-110 3280,-110 3280,-140"/>
<text text-anchor="start" x="3181" y="-128" font-family="Helvetica,sans-Serif" font-size="10.00">src/engine/courses</text>
<text text-anchor="middle" x="3226.5" y="-117" font-family="Helvetica,sans-Serif" font-size="10.00">/SherbetLand.cpp</text>
</a>
</g>
</g>
<!-- Node1&#45;&gt;Node28 -->
<g id="edge27_Node000001_Node000028" class="edge">
<title>Node1&#45;&gt;Node28</title>
<g id="a_edge27_Node000001_Node000028"><a xlink:title=" ">
<path fill="none" stroke="#63b8ff" d="M2449.99,-184.32C2586.43,-183.13 2901.61,-176.31 3163.5,-140 3166.61,-139.57 3169.79,-139.07 3172.99,-138.51"/>
<polygon fill="#63b8ff" stroke="#63b8ff" points="2449.66,-180.82 2439.69,-184.4 2449.72,-187.82 2449.66,-180.82"/>
</a>
</g>
</g>
<!-- Node29 -->
<g id="Node000029" class="node">
<title>Node29</title>
<g id="a_Node000029"><a xlink:href="Skyscraper_8cpp.html" target="_top" xlink:title=" ">
<polygon fill="white" stroke="#666666" points="3405,-140 3298,-140 3298,-110 3405,-110 3405,-140"/>
<text text-anchor="start" x="3306" y="-128" font-family="Helvetica,sans-Serif" font-size="10.00">src/engine/courses</text>
<text text-anchor="middle" x="3351.5" y="-117" font-family="Helvetica,sans-Serif" font-size="10.00">/Skyscraper.cpp</text>
</a>
</g>
</g>
<!-- Node1&#45;&gt;Node29 -->
<g id="edge28_Node000001_Node000029" class="edge">
<title>Node1&#45;&gt;Node29</title>
<g id="a_edge28_Node000001_Node000029"><a xlink:title=" ">
<path fill="none" stroke="#63b8ff" d="M2449.82,-185.17C2601.59,-185.79 2978.03,-182.47 3289.5,-140 3292.23,-139.63 3295.02,-139.19 3297.84,-138.72"/>
<polygon fill="#63b8ff" stroke="#63b8ff" points="2449.73,-181.67 2439.72,-185.13 2449.7,-188.67 2449.73,-181.67"/>
</a>
</g>
</g>
<!-- Node30 -->
<g id="Node000030" class="node">
<title>Node30</title>
<g id="a_Node000030"><a xlink:href="TestCourse_8cpp.html" target="_top" xlink:title=" ">
<polygon fill="white" stroke="#666666" points="3530,-140 3423,-140 3423,-110 3530,-110 3530,-140"/>
<text text-anchor="start" x="3431" y="-128" font-family="Helvetica,sans-Serif" font-size="10.00">src/engine/courses</text>
<text text-anchor="middle" x="3476.5" y="-117" font-family="Helvetica,sans-Serif" font-size="10.00">/TestCourse.cpp</text>
</a>
</g>
</g>
<!-- Node1&#45;&gt;Node30 -->
<g id="edge29_Node000001_Node000030" class="edge">
<title>Node1&#45;&gt;Node30</title>
<g id="a_edge29_Node000001_Node000030"><a xlink:title=" ">
<path fill="none" stroke="#63b8ff" d="M2449.8,-183.15C2649.01,-178.98 3227.15,-164.98 3414.5,-140 3417.23,-139.64 3420.03,-139.21 3422.84,-138.73"/>
<polygon fill="#63b8ff" stroke="#63b8ff" points="2449.68,-179.66 2439.75,-183.36 2449.82,-186.65 2449.68,-179.66"/>
</a>
</g>
</g>
<!-- Node31 -->
<g id="Node000031" class="node">
<title>Node31</title>
<g id="a_Node000031"><a xlink:href="ToadsTurnpike_8cpp.html" target="_top" xlink:title=" ">
<polygon fill="white" stroke="#666666" points="3656.5,-140 3548.5,-140 3548.5,-110 3656.5,-110 3656.5,-140"/>
<text text-anchor="start" x="3556.5" y="-128" font-family="Helvetica,sans-Serif" font-size="10.00">src/engine/courses</text>
<text text-anchor="middle" x="3602.5" y="-117" font-family="Helvetica,sans-Serif" font-size="10.00">/ToadsTurnpike.cpp</text>
</a>
</g>
</g>
<!-- Node1&#45;&gt;Node31 -->
<g id="edge30_Node000001_Node000031" class="edge">
<title>Node1&#45;&gt;Node31</title>
<g id="a_edge30_Node000001_Node000031"><a xlink:title=" ">
<path fill="none" stroke="#63b8ff" d="M2449.77,-183.49C2664.86,-180.06 3326.74,-167.5 3539.5,-140 3542.39,-139.63 3545.34,-139.18 3548.31,-138.69"/>
<polygon fill="#63b8ff" stroke="#63b8ff" points="2449.51,-180 2439.57,-183.65 2449.62,-187 2449.51,-180"/>
</a>
</g>
</g>
<!-- Node32 -->
<g id="Node000032" class="node">
<title>Node32</title>
<g id="a_Node000032"><a xlink:href="WarioStadium_8cpp.html" target="_top" xlink:title=" ">
<polygon fill="white" stroke="#666666" points="3782.5,-140 3674.5,-140 3674.5,-110 3782.5,-110 3782.5,-140"/>
<text text-anchor="start" x="3682.5" y="-128" font-family="Helvetica,sans-Serif" font-size="10.00">src/engine/courses</text>
<text text-anchor="middle" x="3728.5" y="-117" font-family="Helvetica,sans-Serif" font-size="10.00">/WarioStadium.cpp</text>
</a>
</g>
</g>
<!-- Node1&#45;&gt;Node32 -->
<g id="edge31_Node000001_Node000032" class="edge">
<title>Node1&#45;&gt;Node32</title>
<g id="a_edge31_Node000001_Node000032"><a xlink:title=" ">
<path fill="none" stroke="#63b8ff" d="M2450.04,-183.79C2680.62,-181.13 3427.16,-170.35 3665.5,-140 3668.39,-139.63 3671.34,-139.19 3674.32,-138.71"/>
<polygon fill="#63b8ff" stroke="#63b8ff" points="2449.73,-180.29 2439.77,-183.91 2449.81,-187.29 2449.73,-180.29"/>
</a>
</g>
</g>
<!-- Node33 -->
<g id="Node000033" class="node">
<title>Node33</title>
<g id="a_Node000033"><a xlink:href="YoshiValley_8cpp.html" target="_top" xlink:title=" ">
<polygon fill="white" stroke="#666666" points="3908,-140 3801,-140 3801,-110 3908,-110 3908,-140"/>
<text text-anchor="start" x="3809" y="-128" font-family="Helvetica,sans-Serif" font-size="10.00">src/engine/courses</text>
<text text-anchor="middle" x="3854.5" y="-117" font-family="Helvetica,sans-Serif" font-size="10.00">/YoshiValley.cpp</text>
</a>
</g>
</g>
<!-- Node1&#45;&gt;Node33 -->
<g id="edge32_Node000001_Node000033" class="edge">
<title>Node1&#45;&gt;Node33</title>
<g id="a_edge32_Node000001_Node000033"><a xlink:title=" ">
<path fill="none" stroke="#63b8ff" d="M2450.06,-184.04C2695.16,-182.11 3527.39,-173.22 3791.5,-140 3794.5,-139.62 3797.57,-139.17 3800.66,-138.66"/>
<polygon fill="#63b8ff" stroke="#63b8ff" points="2449.84,-180.54 2439.87,-184.11 2449.89,-187.54 2449.84,-180.54"/>
</a>
</g>
</g>
<!-- Node34 -->
<g id="Node000034" class="node">
<title>Node34</title>
<g id="a_Node000034"><a xlink:href="menu__items_8c.html" target="_top" xlink:title=" ">
<polygon fill="white" stroke="#666666" points="4029,-134.5 3926,-134.5 3926,-115.5 4029,-115.5 4029,-134.5"/>
<text text-anchor="middle" x="3977.5" y="-122.5" font-family="Helvetica,sans-Serif" font-size="10.00">src/menu_items.c</text>
</a>
</g>
</g>
<!-- Node1&#45;&gt;Node34 -->
<g id="edge33_Node000001_Node000034" class="edge">
<title>Node1&#45;&gt;Node34</title>
<g id="a_edge33_Node000001_Node000034"><a xlink:title=" ">
<path fill="none" stroke="#63b8ff" d="M2450.02,-184.34C2708.94,-183.44 3627.69,-177.62 3917.5,-140 3926.94,-138.77 3937.07,-136.71 3946.27,-134.54"/>
<polygon fill="#63b8ff" stroke="#63b8ff" points="2449.62,-180.84 2439.63,-184.37 2449.64,-187.84 2449.62,-180.84"/>
</a>
</g>
</g>
<!-- Node35 -->
<g id="Node000035" class="node">
<title>Node35</title>
<g id="a_Node000035"><a xlink:href="menus_8c.html" target="_top" xlink:title=" ">
<polygon fill="white" stroke="#666666" points="4122,-134.5 4047,-134.5 4047,-115.5 4122,-115.5 4122,-134.5"/>
<text text-anchor="middle" x="4084.5" y="-122.5" font-family="Helvetica,sans-Serif" font-size="10.00">src/menus.c</text>
</a>
</g>
</g>
<!-- Node1&#45;&gt;Node35 -->
<g id="edge34_Node000001_Node000035" class="edge">
<title>Node1&#45;&gt;Node35</title>
<g id="a_edge34_Node000001_Node000035"><a xlink:title=" ">
<path fill="none" stroke="#63b8ff" d="M2449.67,-183.75C2741.79,-180.38 3880.24,-165.73 4038.5,-140 4045.92,-138.79 4053.8,-136.71 4060.91,-134.51"/>
<polygon fill="#63b8ff" stroke="#63b8ff" points="2449.6,-180.25 2439.64,-183.86 2449.68,-187.25 2449.6,-180.25"/>
</a>
</g>
</g>
<!-- Node36 -->
<g id="Node000036" class="node">
<title>Node36</title>
<g id="a_Node000036"><a xlink:href="player__controller_8c.html" target="_top" xlink:title=" ">
<polygon fill="white" stroke="#666666" points="4263.5,-134.5 4139.5,-134.5 4139.5,-115.5 4263.5,-115.5 4263.5,-134.5"/>
<text text-anchor="middle" x="4201.5" y="-122.5" font-family="Helvetica,sans-Serif" font-size="10.00">src/player_controller.c</text>
</a>
</g>
</g>
<!-- Node1&#45;&gt;Node36 -->
<g id="edge35_Node000001_Node000036" class="edge">
<title>Node1&#45;&gt;Node36</title>
<g id="a_edge35_Node000001_Node000036"><a xlink:title=" ">
<path fill="none" stroke="#63b8ff" d="M2449.54,-184.33C2729.93,-183.41 3796.79,-177.44 4131.5,-140 4142.46,-138.77 4154.26,-136.71 4164.99,-134.53"/>
<polygon fill="#63b8ff" stroke="#63b8ff" points="2449.5,-180.83 2439.51,-184.37 2449.52,-187.83 2449.5,-180.83"/>
</a>
</g>
</g>
<!-- Node37 -->
<g id="Node000037" class="node">
<title>Node37</title>
<g id="a_Node000037"><a xlink:href="race__logic_8c.html" target="_top" xlink:title=" ">
<polygon fill="white" stroke="#666666" points="4407,-134.5 4282,-134.5 4282,-115.5 4407,-115.5 4407,-134.5"/>
<text text-anchor="middle" x="4344.5" y="-122.5" font-family="Helvetica,sans-Serif" font-size="10.00">src/racing/race_logic.c</text>
</a>
</g>
</g>
<!-- Node1&#45;&gt;Node37 -->
<g id="edge36_Node000001_Node000037" class="edge">
<title>Node1&#45;&gt;Node37</title>
<g id="a_edge36_Node000001_Node000037"><a xlink:title=" ">
<path fill="none" stroke="#63b8ff" d="M2450.08,-184.43C2745.24,-183.92 3908.7,-179.37 4272.5,-140 4283.77,-138.78 4295.9,-136.72 4306.94,-134.54"/>
<polygon fill="#63b8ff" stroke="#63b8ff" points="2449.95,-180.94 2439.95,-184.45 2449.96,-187.94 2449.95,-180.94"/>
</a>
</g>
</g>
<!-- Node38 -->
<g id="Node000038" class="node">
<title>Node38</title>
<g id="a_Node000038"><a xlink:href="render__player_8c.html" target="_top" xlink:title=" ">
<polygon fill="white" stroke="#666666" points="4534,-134.5 4425,-134.5 4425,-115.5 4534,-115.5 4534,-134.5"/>
<text text-anchor="middle" x="4479.5" y="-122.5" font-family="Helvetica,sans-Serif" font-size="10.00">src/render_player.c</text>
</a>
</g>
</g>
<!-- Node1&#45;&gt;Node38 -->
<g id="edge37_Node000001_Node000038" class="edge">
<title>Node1&#45;&gt;Node38</title>
<g id="a_edge37_Node000001_Node000038"><a xlink:title=" ">
<path fill="none" stroke="#63b8ff" d="M2449.68,-184.81C2757.92,-185.94 4023.21,-187.53 4416.5,-140 4426.4,-138.8 4437.03,-136.75 4446.69,-134.57"/>
<polygon fill="#63b8ff" stroke="#63b8ff" points="2449.56,-181.31 2439.55,-184.77 2449.54,-188.31 2449.56,-181.31"/>
</a>
</g>
</g>
<!-- Node39 -->
<g id="Node000039" class="node">
<title>Node39</title>
<g id="a_Node000039"><a xlink:href="spawn__players_8c.html" target="_top" xlink:title=" ">
<polygon fill="white" stroke="#666666" points="4667,-134.5 4552,-134.5 4552,-115.5 4667,-115.5 4667,-134.5"/>
<text text-anchor="middle" x="4609.5" y="-122.5" font-family="Helvetica,sans-Serif" font-size="10.00">src/spawn_players.c</text>
</a>
</g>
</g>
<!-- Node1&#45;&gt;Node39 -->
<g id="edge38_Node000001_Node000039" class="edge">
<title>Node1&#45;&gt;Node39</title>
<g id="a_edge38_Node000001_Node000039"><a xlink:title=" ">
<path fill="none" stroke="#63b8ff" d="M2449.7,-184.83C2769.63,-186.09 4123.59,-188.42 4543.5,-140 4553.97,-138.79 4565.24,-136.7 4575.45,-134.5"/>
<polygon fill="#63b8ff" stroke="#63b8ff" points="2449.67,-181.33 2439.65,-184.79 2449.64,-188.33 2449.67,-181.33"/>
</a>
</g>
</g>
<!-- Node7 -->
<g id="Node000007" class="node">
<title>Node7</title>
<g id="a_Node000007"><a xlink:href="debug_8inc_8c.html" target="_top" xlink:title=" ">
<polygon fill="white" stroke="#666666" points="640.5,-74 518.5,-74 518.5,-55 640.5,-55 640.5,-74"/>
<text text-anchor="middle" x="579.5" y="-62" font-family="Helvetica,sans-Serif" font-size="10.00">src/debug/debug.inc.c</text>
</a>
</g>
</g>
<!-- Node6&#45;&gt;Node7 -->
<g id="edge6_Node000006_Node000007" class="edge">
<title>Node6&#45;&gt;Node7</title>
<g id="a_edge6_Node000006_Node000007"><a xlink:title=" ">
<path fill="none" stroke="#63b8ff" d="M579.5,-105.16C579.5,-94.74 579.5,-82.3 579.5,-74.17"/>
<polygon fill="#63b8ff" stroke="#63b8ff" points="576,-105.37 579.5,-115.37 583,-105.37 576,-105.37"/>
</a>
</g>
</g>
<!-- Node8 -->
<g id="Node000008" class="node">
<title>Node8</title>
<g id="a_Node000008"><a xlink:href="debug_8c.html" target="_top" xlink:title=" ">
<polygon fill="white" stroke="#666666" points="632,-19 527,-19 527,0 632,0 632,-19"/>
<text text-anchor="middle" x="579.5" y="-7" font-family="Helvetica,sans-Serif" font-size="10.00">src/debug/debug.c</text>
</a>
</g>
</g>
<!-- Node7&#45;&gt;Node8 -->
<g id="edge7_Node000007_Node000008" class="edge">
<title>Node7&#45;&gt;Node8</title>
<g id="a_edge7_Node000007_Node000008"><a xlink:title=" ">
<path fill="none" stroke="#63b8ff" d="M579.5,-44.66C579.5,-35.93 579.5,-25.99 579.5,-19.09"/>
<polygon fill="#63b8ff" stroke="#63b8ff" points="576,-44.75 579.5,-54.75 583,-44.75 576,-44.75"/>
</a>
</g>
</g>
</g>
</svg>

<g id="navigator" transform="translate(0 0)" fill="#404254">
  <rect fill="#f2f5e9" fill-opacity="0.5" stroke="#606060" stroke-width=".5" x="0" y="0" width="60" height="60"/>
  <use id="zoomplus" xlink:href="#zoomPlus" x="17" y="9" onmousedown="handleZoom(evt,'in')"/>
  <use id="zoomminus" xlink:href="#zoomMin" x="42" y="9" onmousedown="handleZoom(evt,'out')"/>
  <use id="reset" xlink:href="#resetDef" x="30" y="36" onmousedown="handleReset()"/>
   <use id="arrowup" xlink:href="#arrowUp" x="0" y="0" onmousedown="handlePan(0,-1)"/>
  <use id="arrowright" xlink:href="#arrowRight" x="0" y="0" onmousedown="handlePan(1,0)"/>
  <use id="arrowdown" xlink:href="#arrowDown" x="0" y="0" onmousedown="handlePan(0,1)"/>
  <use id="arrowleft" xlink:href="#arrowLeft" x="0" y="0" onmousedown="handlePan(-1,0)"/>
</g>
<svg viewBox="0 0 15 15" width="100%" height="30px" preserveAspectRatio="xMaxYMin meet">
 <g id="arrow_out" transform="scale(0.3 0.3)">
  <a xlink:href="spawn__players_8h__dep__incl_org.svg" target="_base">
   <rect id="button" ry="5" rx="5" y="6" x="6" height="38" width="38"
        fill="#f2f5e9" fill-opacity="0.5" stroke="#606060" stroke-width="1.0"/>
   <path id="arrow"
     d="M 11.500037,31.436501 C 11.940474,20.09759 22.043105,11.32322 32.158766,21.979434 L 37.068811,17.246167 C 37.068811,17.246167 37.088388,32 37.088388,32 L 22.160133,31.978069 C 22.160133,31.978069 26.997745,27.140456 26.997745,27.140456 C 18.528582,18.264221 13.291696,25.230495 11.500037,31.436501 z"
     style="fill:#404040;"/>
  </a>
 </g>
</svg>

<style type='text/css'>
<![CDATA[
[data-mouse-over-selected='false'] { opacity: 0.7; }
[data-mouse-over-selected='true']  { opacity: 1.0; }
]]>
</style>
<script type="application/ecmascript"><![CDATA[
document.addEventListener('DOMContentLoaded', (event) => {
  highlightEdges();
  highlightAdjacentNodes();
});
]]></script>
</svg>
