<?xml version="1.0" encoding="UTF-8" standalone="no"?>
<!DOCTYPE svg PUBLIC "-//W3C//DTD SVG 1.1//EN"
 "http://www.w3.org/Graphics/SVG/1.1/DTD/svg11.dtd">
<!-- Generated by graphviz version 2.43.0 (0)
 -->
<!-- Title: include/libc/stdio.h Pages: 1 -->
<svg width="1849pt" height="148pt"
 viewBox="0.00 0.00 1848.50 148.00" xmlns="http://www.w3.org/2000/svg" xmlns:xlink="http://www.w3.org/1999/xlink">
<g id="graph0" class="graph" transform="scale(1 1) rotate(0) translate(4 144)">
<title>include/libc/stdio.h</title>
<!-- Node1 -->
<g id="Node000001" class="node">
<title>Node1</title>
<g id="a_Node000001"><a xlink:title=" ">
<polygon fill="#999999" stroke="#666666" points="1210.5,-140 1102.5,-140 1102.5,-121 1210.5,-121 1210.5,-140"/>
<text text-anchor="middle" x="1156.5" y="-128" font-family="Helvetica,sans-Serif" font-size="10.00">include/libc/stdio.h</text>
</a>
</g>
</g>
<!-- Node2 -->
<g id="Node000002" class="node">
<title>Node2</title>
<g id="a_Node000002"><a xlink:href="load_8h.html" target="_top" xlink:title=" ">
<polygon fill="white" stroke="#666666" points="585.5,-79.5 491.5,-79.5 491.5,-60.5 585.5,-60.5 585.5,-79.5"/>
<text text-anchor="middle" x="538.5" y="-67.5" font-family="Helvetica,sans-Serif" font-size="10.00">src/audio/load.h</text>
</a>
</g>
</g>
<!-- Node1&#45;&gt;Node2 -->
<g id="edge1_Node000001_Node000002" class="edge">
<title>Node1&#45;&gt;Node2</title>
<g id="a_edge1_Node000001_Node000002"><a xlink:title=" ">
<path fill="none" stroke="#63b8ff" d="M1092.3,-127.78C987.65,-124.22 774.02,-113.81 595.5,-85 586.95,-83.62 577.79,-81.61 569.38,-79.55"/>
<polygon fill="#63b8ff" stroke="#63b8ff" points="1092.28,-131.28 1102.39,-128.11 1092.51,-124.28 1092.28,-131.28"/>
</a>
</g>
</g>
<!-- Node12 -->
<g id="Node000012" class="node">
<title>Node12</title>
<g id="a_Node000012"><a xlink:href="mixer_8c.html" target="_top" xlink:title=" ">
<polygon fill="white" stroke="#666666" points="703,-79.5 604,-79.5 604,-60.5 703,-60.5 703,-79.5"/>
<text text-anchor="middle" x="653.5" y="-67.5" font-family="Helvetica,sans-Serif" font-size="10.00">src/audio/mixer.c</text>
</a>
</g>
</g>
<!-- Node1&#45;&gt;Node12 -->
<g id="edge11_Node000001_Node000012" class="edge">
<title>Node1&#45;&gt;Node12</title>
<g id="a_edge11_Node000001_Node000012"><a xlink:title=" ">
<path fill="none" stroke="#63b8ff" d="M1091.98,-125.74C1005.26,-120.06 846.48,-107.51 712.5,-85 703.88,-83.55 694.65,-81.57 686.11,-79.56"/>
<polygon fill="#63b8ff" stroke="#63b8ff" points="1091.99,-129.24 1102.2,-126.39 1092.44,-122.26 1091.99,-129.24"/>
</a>
</g>
</g>
<!-- Node13 -->
<g id="Node000013" class="node">
<title>Node13</title>
<g id="a_Node000013"><a xlink:href="code__80005FD0_8c.html" target="_top" xlink:title=" ">
<polygon fill="white" stroke="#666666" points="841.5,-79.5 721.5,-79.5 721.5,-60.5 841.5,-60.5 841.5,-79.5"/>
<text text-anchor="middle" x="781.5" y="-67.5" font-family="Helvetica,sans-Serif" font-size="10.00">src/code_80005FD0.c</text>
</a>
</g>
</g>
<!-- Node1&#45;&gt;Node13 -->
<g id="edge12_Node000001_Node000013" class="edge">
<title>Node1&#45;&gt;Node13</title>
<g id="a_edge12_Node000001_Node000013"><a xlink:title=" ">
<path fill="none" stroke="#63b8ff" d="M1092.37,-121.14C1030.55,-112.85 934.42,-99.33 851.5,-85 841.97,-83.35 831.75,-81.41 822.15,-79.51"/>
<polygon fill="#63b8ff" stroke="#63b8ff" points="1092,-124.62 1102.37,-122.48 1092.92,-117.68 1092,-124.62"/>
</a>
</g>
</g>
<!-- Node14 -->
<g id="Node000014" class="node">
<title>Node14</title>
<g id="a_Node000014"><a xlink:href="debug_8c.html" target="_top" xlink:title=" ">
<polygon fill="white" stroke="#666666" points="965,-79.5 860,-79.5 860,-60.5 965,-60.5 965,-79.5"/>
<text text-anchor="middle" x="912.5" y="-67.5" font-family="Helvetica,sans-Serif" font-size="10.00">src/debug/debug.c</text>
</a>
</g>
</g>
<!-- Node1&#45;&gt;Node14 -->
<g id="edge13_Node000001_Node000014" class="edge">
<title>Node1&#45;&gt;Node14</title>
<g id="a_edge13_Node000001_Node000014"><a xlink:title=" ">
<path fill="none" stroke="#63b8ff" d="M1111.08,-118.61C1063.92,-107.3 991.14,-89.85 948.02,-79.52"/>
<polygon fill="#63b8ff" stroke="#63b8ff" points="1110.48,-122.07 1121.02,-120.99 1112.11,-115.26 1110.48,-122.07"/>
</a>
</g>
</g>
<!-- Node15 -->
<g id="Node000015" class="node">
<title>Node15</title>
<g id="a_Node000015"><a xlink:href="menu__items_8c.html" target="_top" xlink:title=" ">
<polygon fill="white" stroke="#666666" points="1086,-79.5 983,-79.5 983,-60.5 1086,-60.5 1086,-79.5"/>
<text text-anchor="middle" x="1034.5" y="-67.5" font-family="Helvetica,sans-Serif" font-size="10.00">src/menu_items.c</text>
</a>
</g>
</g>
<!-- Node1&#45;&gt;Node15 -->
<g id="edge14_Node000001_Node000015" class="edge">
<title>Node1&#45;&gt;Node15</title>
<g id="a_edge14_Node000001_Node000015"><a xlink:title=" ">
<path fill="none" stroke="#63b8ff" d="M1129.67,-116.63C1106.14,-105.35 1072.6,-89.27 1052.26,-79.52"/>
<polygon fill="#63b8ff" stroke="#63b8ff" points="1128.23,-119.83 1138.76,-120.99 1131.26,-113.51 1128.23,-119.83"/>
</a>
</g>
</g>
<!-- Node16 -->
<g id="Node000016" class="node">
<title>Node16</title>
<g id="a_Node000016"><a xlink:href="actors_8c.html" target="_top" xlink:title=" ">
<polygon fill="white" stroke="#666666" points="1209,-79.5 1104,-79.5 1104,-60.5 1209,-60.5 1209,-79.5"/>
<text text-anchor="middle" x="1156.5" y="-67.5" font-family="Helvetica,sans-Serif" font-size="10.00">src/racing/actors.c</text>
</a>
</g>
</g>
<!-- Node1&#45;&gt;Node16 -->
<g id="edge15_Node000001_Node000016" class="edge">
<title>Node1&#45;&gt;Node16</title>
<g id="a_edge15_Node000001_Node000016"><a xlink:title=" ">
<path fill="none" stroke="#63b8ff" d="M1156.5,-110.66C1156.5,-100.24 1156.5,-87.8 1156.5,-79.67"/>
<polygon fill="#63b8ff" stroke="#63b8ff" points="1153,-110.87 1156.5,-120.87 1160,-110.87 1153,-110.87"/>
</a>
</g>
</g>
<!-- Node17 -->
<g id="Node000017" class="node">
<title>Node17</title>
<g id="a_Node000017"><a xlink:href="collision_8c.html" target="_top" xlink:title=" ">
<polygon fill="white" stroke="#666666" points="1343.5,-79.5 1227.5,-79.5 1227.5,-60.5 1343.5,-60.5 1343.5,-79.5"/>
<text text-anchor="middle" x="1285.5" y="-67.5" font-family="Helvetica,sans-Serif" font-size="10.00">src/racing/collision.c</text>
</a>
</g>
</g>
<!-- Node1&#45;&gt;Node17 -->
<g id="edge16_Node000001_Node000017" class="edge">
<title>Node1&#45;&gt;Node17</title>
<g id="a_edge16_Node000001_Node000017"><a xlink:title=" ">
<path fill="none" stroke="#63b8ff" d="M1184.54,-116.78C1209.44,-105.49 1245.12,-89.31 1266.72,-79.52"/>
<polygon fill="#63b8ff" stroke="#63b8ff" points="1182.92,-113.68 1175.26,-120.99 1185.81,-120.05 1182.92,-113.68"/>
</a>
</g>
</g>
<!-- Node18 -->
<g id="Node000018" class="node">
<title>Node18</title>
<g id="a_Node000018"><a xlink:href="framebuffer__effects_8c.html" target="_top" xlink:title=" ">
<polygon fill="white" stroke="#666666" points="1487,-85 1362,-85 1362,-55 1487,-55 1487,-85"/>
<text text-anchor="start" x="1370" y="-73" font-family="Helvetica,sans-Serif" font-size="10.00">src/racing/framebuffer</text>
<text text-anchor="middle" x="1424.5" y="-62" font-family="Helvetica,sans-Serif" font-size="10.00">_effects.c</text>
</a>
</g>
</g>
<!-- Node1&#45;&gt;Node18 -->
<g id="edge17_Node000001_Node000018" class="edge">
<title>Node1&#45;&gt;Node18</title>
<g id="a_edge17_Node000001_Node000018"><a xlink:title=" ">
<path fill="none" stroke="#63b8ff" d="M1205.34,-118.84C1249.3,-109.24 1314.12,-95.09 1361.88,-84.67"/>
<polygon fill="#63b8ff" stroke="#63b8ff" points="1204.49,-115.44 1195.47,-120.99 1205.99,-122.28 1204.49,-115.44"/>
</a>
</g>
</g>
<!-- Node19 -->
<g id="Node000019" class="node">
<title>Node19</title>
<g id="a_Node000019"><a xlink:href="memory_8c.html" target="_top" xlink:title=" ">
<polygon fill="white" stroke="#666666" points="1620,-79.5 1505,-79.5 1505,-60.5 1620,-60.5 1620,-79.5"/>
<text text-anchor="middle" x="1562.5" y="-67.5" font-family="Helvetica,sans-Serif" font-size="10.00">src/racing/memory.c</text>
</a>
</g>
</g>
<!-- Node1&#45;&gt;Node19 -->
<g id="edge18_Node000001_Node000019" class="edge">
<title>Node1&#45;&gt;Node19</title>
<g id="a_edge18_Node000001_Node000019"><a xlink:title=" ">
<path fill="none" stroke="#63b8ff" d="M1220.78,-122.62C1289.32,-114.92 1400.92,-101.37 1496.5,-85 1505.74,-83.42 1515.65,-81.46 1524.9,-79.51"/>
<polygon fill="#63b8ff" stroke="#63b8ff" points="1220.13,-119.17 1210.58,-123.76 1220.9,-126.12 1220.13,-119.17"/>
</a>
</g>
</g>
<!-- Node20 -->
<g id="Node000020" class="node">
<title>Node20</title>
<g id="a_Node000020"><a xlink:href="stubs_8c.html" target="_top" xlink:title=" ">
<polygon fill="white" stroke="#666666" points="1706.5,-79.5 1638.5,-79.5 1638.5,-60.5 1706.5,-60.5 1706.5,-79.5"/>
<text text-anchor="middle" x="1672.5" y="-67.5" font-family="Helvetica,sans-Serif" font-size="10.00">src/stubs.c</text>
</a>
</g>
</g>
<!-- Node1&#45;&gt;Node20 -->
<g id="edge19_Node000001_Node000020" class="edge">
<title>Node1&#45;&gt;Node20</title>
<g id="a_edge19_Node000001_Node000020"><a xlink:title=" ">
<path fill="none" stroke="#63b8ff" d="M1220.86,-127.94C1312.49,-124.7 1485.43,-114.85 1629.5,-85 1636.11,-83.63 1643.13,-81.6 1649.54,-79.51"/>
<polygon fill="#63b8ff" stroke="#63b8ff" points="1220.51,-124.45 1210.63,-128.28 1220.74,-131.45 1220.51,-124.45"/>
</a>
</g>
</g>
<!-- Node21 -->
<g id="Node000021" class="node">
<title>Node21</title>
<g id="a_Node000021"><a xlink:href="update__objects_8c.html" target="_top" xlink:title=" ">
<polygon fill="white" stroke="#666666" points="1840.5,-79.5 1724.5,-79.5 1724.5,-60.5 1840.5,-60.5 1840.5,-79.5"/>
<text text-anchor="middle" x="1782.5" y="-67.5" font-family="Helvetica,sans-Serif" font-size="10.00">src/update_objects.c</text>
</a>
</g>
</g>
<!-- Node1&#45;&gt;Node21 -->
<g id="edge20_Node000001_Node000021" class="edge">
<title>Node1&#45;&gt;Node21</title>
<g id="a_edge20_Node000001_Node000021"><a xlink:title=" ">
<path fill="none" stroke="#63b8ff" d="M1220.77,-127.03C1325.04,-122.43 1537.37,-110.6 1715.5,-85 1725.38,-83.58 1735.99,-81.58 1745.79,-79.54"/>
<polygon fill="#63b8ff" stroke="#63b8ff" points="1220.55,-123.54 1210.72,-127.47 1220.86,-130.53 1220.55,-123.54"/>
</a>
</g>
</g>
<!-- Node3 -->
<g id="Node000003" class="node">
<title>Node3</title>
<g id="a_Node000003"><a xlink:href="audio_2effects_8c.html" target="_top" xlink:title=" ">
<polygon fill="white" stroke="#666666" points="105,-19 0,-19 0,0 105,0 105,-19"/>
<text text-anchor="middle" x="52.5" y="-7" font-family="Helvetica,sans-Serif" font-size="10.00">src/audio/effects.c</text>
</a>
</g>
</g>
<!-- Node2&#45;&gt;Node3 -->
<g id="edge2_Node000002_Node000003" class="edge">
<title>Node2&#45;&gt;Node3</title>
<g id="a_edge2_Node000002_Node000003"><a xlink:title=" ">
<path fill="none" stroke="#63b8ff" d="M481.22,-62.65C399.54,-53.52 244.94,-35.89 113.5,-19 110.74,-18.65 107.92,-18.28 105.06,-17.9"/>
<polygon fill="#63b8ff" stroke="#63b8ff" points="480.96,-66.15 491.29,-63.78 481.74,-59.19 480.96,-66.15"/>
</a>
</g>
</g>
<!-- Node4 -->
<g id="Node000004" class="node">
<title>Node4</title>
<g id="a_Node000004"><a xlink:href="external_8c.html" target="_top" xlink:title=" ">
<polygon fill="white" stroke="#666666" points="236,-19 123,-19 123,0 236,0 236,-19"/>
<text text-anchor="middle" x="179.5" y="-7" font-family="Helvetica,sans-Serif" font-size="10.00">src/audio/external.c</text>
</a>
</g>
</g>
<!-- Node2&#45;&gt;Node4 -->
<g id="edge3_Node000002_Node000004" class="edge">
<title>Node2&#45;&gt;Node4</title>
<g id="a_edge3_Node000002_Node000004"><a xlink:title=" ">
<path fill="none" stroke="#63b8ff" d="M480.98,-59.63C412.25,-48.43 298.23,-29.85 231.86,-19.03"/>
<polygon fill="#63b8ff" stroke="#63b8ff" points="480.77,-63.14 491.2,-61.29 481.89,-56.23 480.77,-63.14"/>
</a>
</g>
</g>
<!-- Node5 -->
<g id="Node000005" class="node">
<title>Node5</title>
<g id="a_Node000005"><a xlink:href="heap_8c.html" target="_top" xlink:title=" ">
<polygon fill="white" stroke="#666666" points="350.5,-19 254.5,-19 254.5,0 350.5,0 350.5,-19"/>
<text text-anchor="middle" x="302.5" y="-7" font-family="Helvetica,sans-Serif" font-size="10.00">src/audio/heap.c</text>
</a>
</g>
</g>
<!-- Node2&#45;&gt;Node5 -->
<g id="edge4_Node000002_Node000005" class="edge">
<title>Node2&#45;&gt;Node5</title>
<g id="a_edge4_Node000002_Node000005"><a xlink:title=" ">
<path fill="none" stroke="#63b8ff" d="M494.28,-58.04C448.66,-46.73 378.47,-29.33 336.86,-19.02"/>
<polygon fill="#63b8ff" stroke="#63b8ff" points="493.64,-61.48 504.18,-60.49 495.32,-54.69 493.64,-61.48"/>
</a>
</g>
</g>
<!-- Node6 -->
<g id="Node000006" class="node">
<title>Node6</title>
<g id="a_Node000006"><a xlink:href="load_8c.html" target="_top" xlink:title=" ">
<polygon fill="white" stroke="#666666" points="462,-19 369,-19 369,0 462,0 462,-19"/>
<text text-anchor="middle" x="415.5" y="-7" font-family="Helvetica,sans-Serif" font-size="10.00">src/audio/load.c</text>
</a>
</g>
</g>
<!-- Node2&#45;&gt;Node6 -->
<g id="edge5_Node000002_Node000006" class="edge">
<title>Node2&#45;&gt;Node6</title>
<g id="a_edge5_Node000002_Node000006"><a xlink:title=" ">
<path fill="none" stroke="#63b8ff" d="M511.45,-56.13C487.72,-44.85 453.91,-28.77 433.41,-19.02"/>
<polygon fill="#63b8ff" stroke="#63b8ff" points="510.08,-59.36 520.61,-60.49 513.09,-53.04 510.08,-59.36"/>
</a>
</g>
</g>
<!-- Node7 -->
<g id="Node000007" class="node">
<title>Node7</title>
<g id="a_Node000007"><a xlink:href="playback_8c.html" target="_top" xlink:title=" ">
<polygon fill="white" stroke="#666666" points="596.5,-19 480.5,-19 480.5,0 596.5,0 596.5,-19"/>
<text text-anchor="middle" x="538.5" y="-7" font-family="Helvetica,sans-Serif" font-size="10.00">src/audio/playback.c</text>
</a>
</g>
</g>
<!-- Node2&#45;&gt;Node7 -->
<g id="edge6_Node000002_Node000007" class="edge">
<title>Node2&#45;&gt;Node7</title>
<g id="a_edge6_Node000002_Node000007"><a xlink:title=" ">
<path fill="none" stroke="#63b8ff" d="M538.5,-50.16C538.5,-39.74 538.5,-27.3 538.5,-19.17"/>
<polygon fill="#63b8ff" stroke="#63b8ff" points="535,-50.37 538.5,-60.37 542,-50.37 535,-50.37"/>
</a>
</g>
</g>
<!-- Node8 -->
<g id="Node000008" class="node">
<title>Node8</title>
<g id="a_Node000008"><a xlink:href="port__eu_8c.html" target="_top" xlink:title=" ">
<polygon fill="white" stroke="#666666" points="724,-19 615,-19 615,0 724,0 724,-19"/>
<text text-anchor="middle" x="669.5" y="-7" font-family="Helvetica,sans-Serif" font-size="10.00">src/audio/port_eu.c</text>
</a>
</g>
</g>
<!-- Node2&#45;&gt;Node8 -->
<g id="edge7_Node000002_Node000008" class="edge">
<title>Node2&#45;&gt;Node8</title>
<g id="a_edge7_Node000002_Node000008"><a xlink:title=" ">
<path fill="none" stroke="#63b8ff" d="M566.98,-56.28C592.26,-44.99 628.49,-28.81 650.43,-19.02"/>
<polygon fill="#63b8ff" stroke="#63b8ff" points="565.25,-53.22 557.55,-60.49 568.11,-59.61 565.25,-53.22"/>
</a>
</g>
</g>
<!-- Node9 -->
<g id="Node000009" class="node">
<title>Node9</title>
<g id="a_Node000009"><a xlink:href="seqplayer_8c.html" target="_top" xlink:title=" ">
<polygon fill="white" stroke="#666666" points="861,-19 742,-19 742,0 861,0 861,-19"/>
<text text-anchor="middle" x="801.5" y="-7" font-family="Helvetica,sans-Serif" font-size="10.00">src/audio/seqplayer.c</text>
</a>
</g>
</g>
<!-- Node2&#45;&gt;Node9 -->
<g id="edge8_Node000002_Node000009" class="edge">
<title>Node2&#45;&gt;Node9</title>
<g id="a_edge8_Node000002_Node000009"><a xlink:title=" ">
<path fill="none" stroke="#63b8ff" d="M582.6,-58.04C586.96,-56.99 591.31,-55.97 595.5,-55 652.54,-41.84 718.75,-27.74 760.39,-19.03"/>
<polygon fill="#63b8ff" stroke="#63b8ff" points="581.42,-54.72 572.52,-60.48 583.06,-61.53 581.42,-54.72"/>
</a>
</g>
</g>
<!-- Node10 -->
<g id="Node000010" class="node">
<title>Node10</title>
<g id="a_Node000010"><a xlink:href="synthesis_8c.html" target="_top" xlink:title=" ">
<polygon fill="white" stroke="#666666" points="998,-19 879,-19 879,0 998,0 998,-19"/>
<text text-anchor="middle" x="938.5" y="-7" font-family="Helvetica,sans-Serif" font-size="10.00">src/audio/synthesis.c</text>
</a>
</g>
</g>
<!-- Node2&#45;&gt;Node10 -->
<g id="edge9_Node000002_Node000010" class="edge">
<title>Node2&#45;&gt;Node10</title>
<g id="a_edge9_Node000002_Node000010"><a xlink:title=" ">
<path fill="none" stroke="#63b8ff" d="M580.69,-58.08C585.66,-56.96 590.68,-55.9 595.5,-55 609.22,-52.43 784.07,-30.1 878.67,-18.09"/>
<polygon fill="#63b8ff" stroke="#63b8ff" points="579.55,-54.75 570.62,-60.45 581.15,-61.57 579.55,-54.75"/>
</a>
</g>
</g>
<!-- Node11 -->
<g id="Node000011" class="node">
<title>Node11</title>
<g id="a_Node000011"><a xlink:href="Game_8cpp.html" target="_top" xlink:title=" ">
<polygon fill="white" stroke="#666666" points="1122.5,-19 1016.5,-19 1016.5,0 1122.5,0 1122.5,-19"/>
<text text-anchor="middle" x="1069.5" y="-7" font-family="Helvetica,sans-Serif" font-size="10.00">src/port/Game.cpp</text>
</a>
</g>
</g>
<!-- Node2&#45;&gt;Node11 -->
<g id="edge10_Node000002_Node000011" class="edge">
<title>Node2&#45;&gt;Node11</title>
<g id="a_edge10_Node000002_Node000011"><a xlink:title=" ">
<path fill="none" stroke="#63b8ff" d="M579.5,-58.13C584.86,-56.95 590.29,-55.86 595.5,-55 776.84,-24.99 824.84,-39.49 1007.5,-19 1010.42,-18.67 1013.41,-18.32 1016.42,-17.95"/>
<polygon fill="#63b8ff" stroke="#63b8ff" points="578.32,-54.81 569.38,-60.5 579.92,-61.63 578.32,-54.81"/>
</a>
</g>
</g>
</g>
</svg>
