<?xml version="1.0" encoding="UTF-8" standalone="no"?>
<!DOCTYPE svg PUBLIC "-//W3C//DTD SVG 1.1//EN"
 "http://www.w3.org/Graphics/SVG/1.1/DTD/svg11.dtd">
<!-- Generated by graphviz version 2.43.0 (0)
 -->
<!-- Title: OMoleGroup::MoleEntry Pages: 1 -->
<svg width="1294pt" height="753pt"
 viewBox="0.00 0.00 1293.50 753.00" xmlns="http://www.w3.org/2000/svg" xmlns:xlink="http://www.w3.org/1999/xlink">
<g id="graph0" class="graph" transform="scale(1 1) rotate(0) translate(4 749)">
<title>OMoleGroup::MoleEntry</title>
<!-- Node1 -->
<g id="Node000001" class="node">
<title>Node1</title>
<g id="a_Node000001"><a xlink:title=" ">
<polygon fill="#999999" stroke="#666666" points="1262,-19 1129,-19 1129,0 1262,0 1262,-19"/>
<text text-anchor="middle" x="1195.5" y="-7" font-family="Helvetica,sans-Serif" font-size="10.00">OMoleGroup::MoleEntry</text>
</a>
</g>
</g>
<!-- Node2 -->
<g id="Node000002" class="node">
<title>Node2</title>
<g id="a_Node000002"><a xlink:href="classOMole.html" target="_top" xlink:title=" ">
<polygon fill="white" stroke="#666666" points="1033.5,-85 985.5,-85 985.5,-66 1033.5,-66 1033.5,-85"/>
<text text-anchor="middle" x="1009.5" y="-73" font-family="Helvetica,sans-Serif" font-size="10.00">OMole</text>
</a>
</g>
</g>
<!-- Node2&#45;&gt;Node1 -->
<g id="edge1_Node000001_Node000002" class="edge">
<title>Node2&#45;&gt;Node1</title>
<g id="a_edge1_Node000001_Node000002"><a xlink:title=" ">
<path fill="none" stroke="#9a32cd" stroke-dasharray="5,2" d="M1043.58,-62.77C1080.31,-50.14 1137.87,-30.33 1170.58,-19.07"/>
<polygon fill="#9a32cd" stroke="#9a32cd" points="1042.13,-59.57 1033.82,-66.13 1044.41,-66.19 1042.13,-59.57"/>
</a>
</g>
<text text-anchor="middle" x="1128.5" y="-40" font-family="Helvetica,sans-Serif" font-size="10.00" fill="grey"> Mole</text>
</g>
<!-- Node3 -->
<g id="Node000003" class="node">
<title>Node3</title>
<g id="a_Node000003"><a xlink:href="classOObject.html" target="_top" xlink:title=" ">
<polygon fill="white" stroke="#666666" points="886.5,-244.5 830.5,-244.5 830.5,-225.5 886.5,-225.5 886.5,-244.5"/>
<text text-anchor="middle" x="858.5" y="-232.5" font-family="Helvetica,sans-Serif" font-size="10.00">OObject</text>
</a>
</g>
</g>
<!-- Node3&#45;&gt;Node2 -->
<g id="edge2_Node000002_Node000003" class="edge">
<title>Node3&#45;&gt;Node2</title>
<g id="a_edge2_Node000002_Node000003"><a xlink:title=" ">
<path fill="none" stroke="#63b8ff" d="M861.09,-215.07C864.11,-198.01 870.33,-172.79 882.5,-154 901.34,-124.91 911.81,-120.89 941.5,-103 955.17,-94.76 971.86,-88.21 985.28,-83.69"/>
<polygon fill="#63b8ff" stroke="#63b8ff" points="857.56,-214.98 859.48,-225.4 864.48,-216.06 857.56,-214.98"/>
</a>
</g>
</g>
<!-- Node20 -->
<g id="Node000020" class="node">
<title>Node20</title>
<g id="a_Node000020"><a xlink:href="classOMoleGroup.html" target="_top" xlink:title=" ">
<polygon fill="white" stroke="#666666" points="969,-173 892,-173 892,-154 969,-154 969,-173"/>
<text text-anchor="middle" x="930.5" y="-161" font-family="Helvetica,sans-Serif" font-size="10.00">OMoleGroup</text>
</a>
</g>
</g>
<!-- Node3&#45;&gt;Node20 -->
<g id="edge26_Node000020_Node000003" class="edge">
<title>Node3&#45;&gt;Node20</title>
<g id="a_edge26_Node000020_Node000003"><a xlink:title=" ">
<path fill="none" stroke="#63b8ff" d="M874.64,-218.42C889.15,-204.42 909.9,-184.38 921.6,-173.09"/>
<polygon fill="#63b8ff" stroke="#63b8ff" points="872.09,-216.01 867.33,-225.48 876.95,-221.05 872.09,-216.01"/>
</a>
</g>
</g>
<!-- Node4 -->
<g id="Node000004" class="node">
<title>Node4</title>
<g id="a_Node000004"><a xlink:title=" ">
<polygon fill="white" stroke="#666666" points="1032.5,-316 982.5,-316 982.5,-297 1032.5,-297 1032.5,-316"/>
<text text-anchor="middle" x="1007.5" y="-304" font-family="Helvetica,sans-Serif" font-size="10.00">uint8_t</text>
</a>
</g>
</g>
<!-- Node4&#45;&gt;Node3 -->
<g id="edge3_Node000003_Node000004" class="edge">
<title>Node4&#45;&gt;Node3</title>
<g id="a_edge3_Node000003_Node000004"><a xlink:title=" ">
<path fill="none" stroke="#9a32cd" stroke-dasharray="5,2" d="M980.14,-292.74C950.14,-278.74 902.81,-256.67 876.92,-244.59"/>
<polygon fill="#9a32cd" stroke="#9a32cd" points="978.69,-295.92 989.23,-296.98 981.65,-289.58 978.69,-295.92"/>
</a>
</g>
<text text-anchor="middle" x="959" y="-271" font-family="Helvetica,sans-Serif" font-size="10.00" fill="grey"> uuid</text>
</g>
<!-- Node5 -->
<g id="Node000005" class="node">
<title>Node5</title>
<g id="a_Node000005"><a xlink:href="structObject.html" target="_top" xlink:title=" ">
<polygon fill="white" stroke="#666666" points="550.5,-316 502.5,-316 502.5,-297 550.5,-297 550.5,-316"/>
<text text-anchor="middle" x="526.5" y="-304" font-family="Helvetica,sans-Serif" font-size="10.00">Object</text>
</a>
</g>
</g>
<!-- Node5&#45;&gt;Node3 -->
<g id="edge4_Node000003_Node000005" class="edge">
<title>Node5&#45;&gt;Node3</title>
<g id="a_edge4_Node000003_Node000005"><a xlink:title=" ">
<path fill="none" stroke="#9a32cd" stroke-dasharray="5,2" d="M560.5,-298.38C626.19,-284.63 769.46,-254.64 830.28,-241.91"/>
<polygon fill="#9a32cd" stroke="#9a32cd" points="559.71,-294.97 550.64,-300.45 561.15,-301.82 559.71,-294.97"/>
</a>
</g>
<text text-anchor="middle" x="707.5" y="-271" font-family="Helvetica,sans-Serif" font-size="10.00" fill="grey"> o</text>
</g>
<!-- Node6 -->
<g id="Node000006" class="node">
<title>Node6</title>
<g id="a_Node000006"><a xlink:title=" ">
<polygon fill="white" stroke="#666666" points="810.5,-492 778.5,-492 778.5,-473 810.5,-473 810.5,-492"/>
<text text-anchor="middle" x="794.5" y="-480" font-family="Helvetica,sans-Serif" font-size="10.00">f32</text>
</a>
</g>
</g>
<!-- Node6&#45;&gt;Node5 -->
<g id="edge5_Node000005_Node000006" class="edge">
<title>Node6&#45;&gt;Node5</title>
<g id="a_edge5_Node000005_Node000006"><a xlink:title=" ">
<path fill="none" stroke="#9a32cd" stroke-dasharray="5,2" d="M769.19,-471.5C761.81,-467.42 754.42,-461.99 749.5,-455 718,-410.23 766.28,-371.61 726.5,-334 701.62,-310.48 598.1,-307.43 550.56,-307.3"/>
<polygon fill="#9a32cd" stroke="#9a32cd" points="767.82,-474.72 778.34,-475.95 770.88,-468.43 767.82,-474.72"/>
</a>
</g>
<text text-anchor="middle" x="784" y="-430.5" font-family="Helvetica,sans-Serif" font-size="10.00" fill="grey"> offset</text>
<text text-anchor="middle" x="784" y="-419.5" font-family="Helvetica,sans-Serif" font-size="10.00" fill="grey">origin_pos</text>
<text text-anchor="middle" x="784" y="-408.5" font-family="Helvetica,sans-Serif" font-size="10.00" fill="grey">pos</text>
<text text-anchor="middle" x="784" y="-397.5" font-family="Helvetica,sans-Serif" font-size="10.00" fill="grey">sizeScaling</text>
<text text-anchor="middle" x="784" y="-386.5" font-family="Helvetica,sans-Serif" font-size="10.00" fill="grey">surfaceHeight</text>
<text text-anchor="middle" x="784" y="-375.5" font-family="Helvetica,sans-Serif" font-size="10.00" fill="grey">unk_01C</text>
<text text-anchor="middle" x="784" y="-364.5" font-family="Helvetica,sans-Serif" font-size="10.00" fill="grey">unk_034</text>
<text text-anchor="middle" x="784" y="-353.5" font-family="Helvetica,sans-Serif" font-size="10.00" fill="grey">velocity</text>
</g>
<!-- Node7 -->
<g id="Node000007" class="node">
<title>Node7</title>
<g id="a_Node000007"><a xlink:title=" ">
<polygon fill="white" stroke="#666666" points="915.5,-492 881.5,-492 881.5,-473 915.5,-473 915.5,-492"/>
<text text-anchor="middle" x="898.5" y="-480" font-family="Helvetica,sans-Serif" font-size="10.00">s32</text>
</a>
</g>
</g>
<!-- Node7&#45;&gt;Node2 -->
<g id="edge23_Node000002_Node000007" class="edge">
<title>Node7&#45;&gt;Node2</title>
<g id="a_edge23_Node000002_Node000007"><a xlink:title=" ">
<path fill="none" stroke="#9a32cd" stroke-dasharray="5,2" d="M924.59,-468.76C970.4,-444.34 1060.5,-386.3 1060.5,-307.5 1060.5,-307.5 1060.5,-307.5 1060.5,-162.5 1060.5,-135.33 1061.62,-125.57 1046.5,-103 1041.49,-95.52 1033.6,-89.44 1026.4,-85.01"/>
<polygon fill="#9a32cd" stroke="#9a32cd" points="922.8,-465.74 915.53,-473.46 926.02,-471.96 922.8,-465.74"/>
</a>
</g>
<text text-anchor="middle" x="1091" y="-232.5" font-family="Helvetica,sans-Serif" font-size="10.00" fill="grey"> _moleIndex</text>
</g>
<!-- Node7&#45;&gt;Node3 -->
<g id="edge22_Node000003_Node000007" class="edge">
<title>Node7&#45;&gt;Node3</title>
<g id="a_edge22_Node000003_Node000007"><a xlink:title=" ">
<path fill="none" stroke="#9a32cd" stroke-dasharray="5,2" d="M897.71,-462.76C896.3,-434.62 892.7,-379.84 884.5,-334 878.49,-300.38 866.66,-261.44 861.28,-244.55"/>
<polygon fill="#9a32cd" stroke="#9a32cd" points="894.22,-462.96 898.17,-472.79 901.21,-462.64 894.22,-462.96"/>
</a>
</g>
<text text-anchor="middle" x="914.5" y="-304" font-family="Helvetica,sans-Serif" font-size="10.00" fill="grey"> _objectIndex</text>
</g>
<!-- Node7&#45;&gt;Node5 -->
<g id="edge6_Node000005_Node000007" class="edge">
<title>Node7&#45;&gt;Node5</title>
<g id="a_edge6_Node000005_Node000007"><a xlink:title=" ">
<path fill="none" stroke="#9a32cd" stroke-dasharray="5,2" d="M871.75,-474.91C860.81,-470.9 849,-464.62 841.5,-455 807.86,-411.81 859.04,-370.78 818.5,-334 798.85,-316.17 617.51,-309.81 550.9,-308.06"/>
<polygon fill="#9a32cd" stroke="#9a32cd" points="870.8,-478.28 881.39,-477.99 872.93,-471.61 870.8,-478.28"/>
</a>
</g>
<text text-anchor="middle" x="863" y="-419.5" font-family="Helvetica,sans-Serif" font-size="10.00" fill="grey"> status</text>
<text text-anchor="middle" x="863" y="-408.5" font-family="Helvetica,sans-Serif" font-size="10.00" fill="grey">timer</text>
<text text-anchor="middle" x="863" y="-397.5" font-family="Helvetica,sans-Serif" font-size="10.00" fill="grey">unk_048</text>
<text text-anchor="middle" x="863" y="-386.5" font-family="Helvetica,sans-Serif" font-size="10.00" fill="grey">unk_04C</text>
<text text-anchor="middle" x="863" y="-375.5" font-family="Helvetica,sans-Serif" font-size="10.00" fill="grey">unk_058</text>
<text text-anchor="middle" x="863" y="-364.5" font-family="Helvetica,sans-Serif" font-size="10.00" fill="grey">unk_05C</text>
</g>
<!-- Node8 -->
<g id="Node000008" class="node">
<title>Node8</title>
<g id="a_Node000008"><a xlink:title=" ">
<polygon fill="white" stroke="#666666" points="75,-492 0,-492 0,-473 75,-473 75,-492"/>
<text text-anchor="middle" x="37.5" y="-480" font-family="Helvetica,sans-Serif" font-size="10.00">const char *</text>
</a>
</g>
</g>
<!-- Node8&#45;&gt;Node3 -->
<g id="edge20_Node000003_Node000008" class="edge">
<title>Node8&#45;&gt;Node3</title>
<g id="a_edge20_Node000003_Node000008"><a xlink:title=" ">
<path fill="none" stroke="#9a32cd" stroke-dasharray="5,2" d="M30.18,-463.36C19.1,-432.58 2.55,-369.97 34.5,-334 88.67,-273.01 692.02,-243.23 830.35,-237.17"/>
<polygon fill="#9a32cd" stroke="#9a32cd" points="26.96,-464.72 33.78,-472.82 33.5,-462.23 26.96,-464.72"/>
</a>
</g>
<text text-anchor="middle" x="161" y="-304" font-family="Helvetica,sans-Serif" font-size="10.00" fill="grey"> Name</text>
</g>
<!-- Node8&#45;&gt;Node5 -->
<g id="edge7_Node000005_Node000008" class="edge">
<title>Node8&#45;&gt;Node5</title>
<g id="a_edge7_Node000005_Node000008"><a xlink:title=" ">
<path fill="none" stroke="#9a32cd" stroke-dasharray="5,2" d="M36.67,-462.76C35.53,-427.04 35.38,-351.2 53.5,-334 69.92,-318.41 408.2,-310.03 502.36,-307.99"/>
<polygon fill="#9a32cd" stroke="#9a32cd" points="33.18,-462.97 37.05,-472.83 40.17,-462.7 33.18,-462.97"/>
</a>
</g>
<text text-anchor="middle" x="87" y="-397.5" font-family="Helvetica,sans-Serif" font-size="10.00" fill="grey"> activeTLUT</text>
<text text-anchor="middle" x="87" y="-386.5" font-family="Helvetica,sans-Serif" font-size="10.00" fill="grey">activeTexture</text>
</g>
<!-- Node9 -->
<g id="Node000009" class="node">
<title>Node9</title>
<g id="a_Node000009"><a xlink:title=" ">
<polygon fill="white" stroke="#666666" points="158,-492 129,-492 129,-473 158,-473 158,-492"/>
<text text-anchor="middle" x="143.5" y="-480" font-family="Helvetica,sans-Serif" font-size="10.00">u8</text>
</a>
</g>
</g>
<!-- Node9&#45;&gt;Node5 -->
<g id="edge8_Node000005_Node000009" class="edge">
<title>Node9&#45;&gt;Node5</title>
<g id="a_edge8_Node000005_Node000009"><a xlink:title=" ">
<path fill="none" stroke="#9a32cd" stroke-dasharray="5,2" d="M136.67,-463.16C126.43,-432.09 111.56,-369.06 144.5,-334 168.99,-307.93 422.36,-306.96 502.41,-307.32"/>
<polygon fill="#9a32cd" stroke="#9a32cd" points="133.41,-464.44 140.02,-472.72 140.02,-462.13 133.41,-464.44"/>
</a>
</g>
<text text-anchor="middle" x="180" y="-447" font-family="Helvetica,sans-Serif" font-size="10.00" fill="grey"> textureHeight</text>
<text text-anchor="middle" x="180" y="-436" font-family="Helvetica,sans-Serif" font-size="10.00" fill="grey">textureWidth</text>
<text text-anchor="middle" x="180" y="-425" font-family="Helvetica,sans-Serif" font-size="10.00" fill="grey">tlutList</text>
<text text-anchor="middle" x="180" y="-414" font-family="Helvetica,sans-Serif" font-size="10.00" fill="grey">unk_0D5</text>
<text text-anchor="middle" x="180" y="-403" font-family="Helvetica,sans-Serif" font-size="10.00" fill="grey">unk_0D6</text>
<text text-anchor="middle" x="180" y="-392" font-family="Helvetica,sans-Serif" font-size="10.00" fill="grey">unk_0D7</text>
<text text-anchor="middle" x="180" y="-381" font-family="Helvetica,sans-Serif" font-size="10.00" fill="grey">unk_0D8</text>
<text text-anchor="middle" x="180" y="-370" font-family="Helvetica,sans-Serif" font-size="10.00" fill="grey">unk_0DB</text>
<text text-anchor="middle" x="180" y="-359" font-family="Helvetica,sans-Serif" font-size="10.00" fill="grey">unk_0DC</text>
<text text-anchor="middle" x="180" y="-348" font-family="Helvetica,sans-Serif" font-size="10.00" fill="grey">unk_0DD</text>
<text text-anchor="middle" x="180" y="-337" font-family="Helvetica,sans-Serif" font-size="10.00" fill="grey">...</text>
</g>
<!-- Node10 -->
<g id="Node000010" class="node">
<title>Node10</title>
<g id="a_Node000010"><a xlink:title=" ">
<polygon fill="white" stroke="#666666" points="277.5,-492 197.5,-492 197.5,-473 277.5,-473 277.5,-492"/>
<text text-anchor="middle" x="237.5" y="-480" font-family="Helvetica,sans-Serif" font-size="10.00">const char **</text>
</a>
</g>
</g>
<!-- Node10&#45;&gt;Node5 -->
<g id="edge9_Node000005_Node000010" class="edge">
<title>Node10&#45;&gt;Node5</title>
<g id="a_edge9_Node000005_Node000010"><a xlink:title=" ">
<path fill="none" stroke="#9a32cd" stroke-dasharray="5,2" d="M230.91,-463.22C221.04,-432.23 206.84,-369.33 239.5,-334 257.21,-314.85 436.45,-309.31 502.35,-307.92"/>
<polygon fill="#9a32cd" stroke="#9a32cd" points="227.61,-464.4 234.13,-472.75 234.24,-462.16 227.61,-464.4"/>
</a>
</g>
<text text-anchor="middle" x="267.5" y="-392" font-family="Helvetica,sans-Serif" font-size="10.00" fill="grey"> textureList</text>
</g>
<!-- Node11 -->
<g id="Node000011" class="node">
<title>Node11</title>
<g id="a_Node000011"><a xlink:title=" ">
<polygon fill="white" stroke="#666666" points="333.5,-492 299.5,-492 299.5,-473 333.5,-473 333.5,-492"/>
<text text-anchor="middle" x="316.5" y="-480" font-family="Helvetica,sans-Serif" font-size="10.00">Gfx</text>
</a>
</g>
</g>
<!-- Node11&#45;&gt;Node5 -->
<g id="edge10_Node000005_Node000011" class="edge">
<title>Node11&#45;&gt;Node5</title>
<g id="a_edge10_Node000005_Node000011"><a xlink:title=" ">
<path fill="none" stroke="#9a32cd" stroke-dasharray="5,2" d="M310.07,-462.91C300.65,-431.93 287.49,-369.64 319.5,-334 343.35,-307.45 453.07,-306.07 502.38,-306.84"/>
<polygon fill="#9a32cd" stroke="#9a32cd" points="306.86,-464.37 313.27,-472.8 313.52,-462.21 306.86,-464.37"/>
</a>
</g>
<text text-anchor="middle" x="336.5" y="-392" font-family="Helvetica,sans-Serif" font-size="10.00" fill="grey"> model</text>
</g>
<!-- Node12 -->
<g id="Node000012" class="node">
<title>Node12</title>
<g id="a_Node000012"><a xlink:title=" ">
<polygon fill="white" stroke="#666666" points="390,-492 357,-492 357,-473 390,-473 390,-492"/>
<text text-anchor="middle" x="373.5" y="-480" font-family="Helvetica,sans-Serif" font-size="10.00">Vtx</text>
</a>
</g>
</g>
<!-- Node12&#45;&gt;Node5 -->
<g id="edge11_Node000005_Node000012" class="edge">
<title>Node12&#45;&gt;Node5</title>
<g id="a_edge11_Node000005_Node000012"><a xlink:title=" ">
<path fill="none" stroke="#9a32cd" stroke-dasharray="5,2" d="M367.25,-463.07C358.11,-432.34 345.34,-370.39 376.5,-334 392.45,-315.37 464.05,-309.82 502.27,-308.18"/>
<polygon fill="#9a32cd" stroke="#9a32cd" points="364,-464.41 370.37,-472.88 370.68,-462.29 364,-464.41"/>
</a>
</g>
<text text-anchor="middle" x="394" y="-392" font-family="Helvetica,sans-Serif" font-size="10.00" fill="grey"> vertex</text>
</g>
<!-- Node13 -->
<g id="Node000013" class="node">
<title>Node13</title>
<g id="a_Node000013"><a xlink:title=" ">
<polygon fill="white" stroke="#666666" points="446,-492 417,-492 417,-473 446,-473 446,-492"/>
<text text-anchor="middle" x="431.5" y="-480" font-family="Helvetica,sans-Serif" font-size="10.00">s8</text>
</a>
</g>
</g>
<!-- Node13&#45;&gt;Node5 -->
<g id="edge12_Node000005_Node000013" class="edge">
<title>Node13&#45;&gt;Node5</title>
<g id="a_edge12_Node000005_Node000013"><a xlink:title=" ">
<path fill="none" stroke="#9a32cd" stroke-dasharray="5,2" d="M425.23,-463.01C416.2,-432.67 403.6,-371.91 432.5,-334 448.64,-312.83 480.34,-307.66 502.44,-306.83"/>
<polygon fill="#9a32cd" stroke="#9a32cd" points="421.94,-464.24 428.31,-472.71 428.62,-462.12 421.94,-464.24"/>
</a>
</g>
<text text-anchor="middle" x="472.5" y="-447" font-family="Helvetica,sans-Serif" font-size="10.00" fill="grey"> isTimerActive</text>
<text text-anchor="middle" x="472.5" y="-436" font-family="Helvetica,sans-Serif" font-size="10.00" fill="grey">textureListIndex</text>
<text text-anchor="middle" x="472.5" y="-425" font-family="Helvetica,sans-Serif" font-size="10.00" fill="grey">unk_078</text>
<text text-anchor="middle" x="472.5" y="-414" font-family="Helvetica,sans-Serif" font-size="10.00" fill="grey">unk_0CA</text>
<text text-anchor="middle" x="472.5" y="-403" font-family="Helvetica,sans-Serif" font-size="10.00" fill="grey">unk_0CC</text>
<text text-anchor="middle" x="472.5" y="-392" font-family="Helvetica,sans-Serif" font-size="10.00" fill="grey">unk_0CD</text>
<text text-anchor="middle" x="472.5" y="-381" font-family="Helvetica,sans-Serif" font-size="10.00" fill="grey">unk_0CE</text>
<text text-anchor="middle" x="472.5" y="-370" font-family="Helvetica,sans-Serif" font-size="10.00" fill="grey">unk_0CF</text>
<text text-anchor="middle" x="472.5" y="-359" font-family="Helvetica,sans-Serif" font-size="10.00" fill="grey">unk_0D0</text>
<text text-anchor="middle" x="472.5" y="-348" font-family="Helvetica,sans-Serif" font-size="10.00" fill="grey">unk_0D1</text>
<text text-anchor="middle" x="472.5" y="-337" font-family="Helvetica,sans-Serif" font-size="10.00" fill="grey">...</text>
</g>
<!-- Node14 -->
<g id="Node000014" class="node">
<title>Node14</title>
<g id="a_Node000014"><a xlink:href="structSplineControlPoint.html" target="_top" xlink:title=" ">
<polygon fill="white" stroke="#666666" points="633,-668 526,-668 526,-649 633,-649 633,-668"/>
<text text-anchor="middle" x="579.5" y="-656" font-family="Helvetica,sans-Serif" font-size="10.00">SplineControlPoint</text>
</a>
</g>
</g>
<!-- Node14&#45;&gt;Node5 -->
<g id="edge13_Node000005_Node000014" class="edge">
<title>Node14&#45;&gt;Node5</title>
<g id="a_edge13_Node000005_Node000014"><a xlink:title=" ">
<path fill="none" stroke="#9a32cd" stroke-dasharray="5,2" d="M576.61,-638.69C576.23,-636.11 575.85,-633.49 575.5,-631 570.91,-598.05 546.06,-366.15 537.5,-334 535.86,-327.84 533.11,-321.21 530.77,-316.13"/>
<polygon fill="#9a32cd" stroke="#9a32cd" points="573.16,-639.31 578.12,-648.67 580.08,-638.26 573.16,-639.31"/>
</a>
</g>
<text text-anchor="middle" x="593" y="-480" font-family="Helvetica,sans-Serif" font-size="10.00" fill="grey"> controlPoints</text>
</g>
<!-- Node16 -->
<g id="Node000016" class="node">
<title>Node16</title>
<g id="a_Node000016"><a xlink:href="structSplineData.html" target="_top" xlink:title=" ">
<polygon fill="white" stroke="#666666" points="706.5,-492 636.5,-492 636.5,-473 706.5,-473 706.5,-492"/>
<text text-anchor="middle" x="671.5" y="-480" font-family="Helvetica,sans-Serif" font-size="10.00">SplineData</text>
</a>
</g>
</g>
<!-- Node14&#45;&gt;Node16 -->
<g id="edge17_Node000016_Node000014" class="edge">
<title>Node14&#45;&gt;Node16</title>
<g id="a_edge17_Node000016_Node000014"><a xlink:title=" ">
<path fill="none" stroke="#9a32cd" stroke-dasharray="5,2" d="M578.97,-638.23C578.38,-602.85 579.13,-529.39 594.5,-510 600.03,-503.02 618.77,-496.49 636.38,-491.66"/>
<polygon fill="#9a32cd" stroke="#9a32cd" points="575.48,-638.71 579.2,-648.63 582.48,-638.56 575.48,-638.71"/>
</a>
</g>
<text text-anchor="middle" x="628" y="-568" font-family="Helvetica,sans-Serif" font-size="10.00" fill="grey"> controlPoints</text>
</g>
<!-- Node15 -->
<g id="Node000015" class="node">
<title>Node15</title>
<g id="a_Node000015"><a xlink:title=" ">
<polygon fill="white" stroke="#666666" points="596.5,-745 562.5,-745 562.5,-726 596.5,-726 596.5,-745"/>
<text text-anchor="middle" x="579.5" y="-733" font-family="Helvetica,sans-Serif" font-size="10.00">s16</text>
</a>
</g>
</g>
<!-- Node15&#45;&gt;Node5 -->
<g id="edge18_Node000005_Node000015" class="edge">
<title>Node15&#45;&gt;Node5</title>
<g id="a_edge18_Node000005_Node000015"><a xlink:title=" ">
<path fill="none" stroke="#9a32cd" stroke-dasharray="5,2" d="M561.01,-719.13C547.04,-706.64 528.31,-687.89 516.5,-668 507.67,-653.14 507.2,-648.08 504.5,-631 496.1,-577.88 500.62,-563.64 504.5,-510 506.28,-485.36 509.55,-479.53 512.5,-455 518.82,-402.39 524.03,-338.94 525.83,-316.16"/>
<polygon fill="#9a32cd" stroke="#9a32cd" points="558.75,-721.81 568.6,-725.73 563.34,-716.53 558.75,-721.81"/>
</a>
</g>
<text text-anchor="middle" x="531.5" y="-623" font-family="Helvetica,sans-Serif" font-size="10.00" fill="grey"> primAlpha</text>
<text text-anchor="middle" x="531.5" y="-612" font-family="Helvetica,sans-Serif" font-size="10.00" fill="grey">state</text>
<text text-anchor="middle" x="531.5" y="-601" font-family="Helvetica,sans-Serif" font-size="10.00" fill="grey">type</text>
<text text-anchor="middle" x="531.5" y="-590" font-family="Helvetica,sans-Serif" font-size="10.00" fill="grey">unk_084</text>
<text text-anchor="middle" x="531.5" y="-579" font-family="Helvetica,sans-Serif" font-size="10.00" fill="grey">unk_09C</text>
<text text-anchor="middle" x="531.5" y="-568" font-family="Helvetica,sans-Serif" font-size="10.00" fill="grey">unk_09E</text>
<text text-anchor="middle" x="531.5" y="-557" font-family="Helvetica,sans-Serif" font-size="10.00" fill="grey">unk_0A2</text>
<text text-anchor="middle" x="531.5" y="-546" font-family="Helvetica,sans-Serif" font-size="10.00" fill="grey">unk_0A8</text>
<text text-anchor="middle" x="531.5" y="-535" font-family="Helvetica,sans-Serif" font-size="10.00" fill="grey">unk_0AA</text>
<text text-anchor="middle" x="531.5" y="-524" font-family="Helvetica,sans-Serif" font-size="10.00" fill="grey">unk_0AC</text>
<text text-anchor="middle" x="531.5" y="-513" font-family="Helvetica,sans-Serif" font-size="10.00" fill="grey">...</text>
</g>
<!-- Node15&#45;&gt;Node14 -->
<g id="edge14_Node000014_Node000015" class="edge">
<title>Node15&#45;&gt;Node14</title>
<g id="a_edge14_Node000014_Node000015"><a xlink:title=" ">
<path fill="none" stroke="#9a32cd" stroke-dasharray="5,2" d="M579.5,-715.52C579.5,-700.24 579.5,-679.48 579.5,-668"/>
<polygon fill="#9a32cd" stroke="#9a32cd" points="576,-715.9 579.5,-725.9 583,-715.9 576,-715.9"/>
</a>
</g>
<text text-anchor="middle" x="599.5" y="-700" font-family="Helvetica,sans-Serif" font-size="10.00" fill="grey"> pos</text>
<text text-anchor="middle" x="599.5" y="-689" font-family="Helvetica,sans-Serif" font-size="10.00" fill="grey">velocity</text>
</g>
<!-- Node15&#45;&gt;Node16 -->
<g id="edge16_Node000016_Node000015" class="edge">
<title>Node15&#45;&gt;Node16</title>
<g id="a_edge16_Node000016_Node000015"><a xlink:title=" ">
<path fill="none" stroke="#9a32cd" stroke-dasharray="5,2" d="M605.69,-722.06C612.06,-718.18 618.47,-713.47 623.5,-708 649.33,-679.91 651.58,-667.85 661.5,-631 675.32,-579.7 673.33,-514.92 672.06,-492"/>
<polygon fill="#9a32cd" stroke="#9a32cd" points="603.61,-719.21 596.56,-727.12 607,-725.33 603.61,-719.21"/>
</a>
</g>
<text text-anchor="middle" x="702" y="-656" font-family="Helvetica,sans-Serif" font-size="10.00" fill="grey"> numControlPoints</text>
</g>
<!-- Node16&#45;&gt;Node5 -->
<g id="edge15_Node000005_Node000016" class="edge">
<title>Node16&#45;&gt;Node5</title>
<g id="a_edge15_Node000005_Node000016"><a xlink:title=" ">
<path fill="none" stroke="#9a32cd" stroke-dasharray="5,2" d="M626.51,-472.1C608.85,-467.52 591.39,-461.58 585.5,-455 549,-414.2 591.67,-380.32 562.5,-334 557.79,-326.51 550.13,-320.44 543.09,-316.01"/>
<polygon fill="#9a32cd" stroke="#9a32cd" points="625.73,-475.51 636.28,-474.5 627.4,-468.71 625.73,-475.51"/>
</a>
</g>
<text text-anchor="middle" x="602" y="-392" font-family="Helvetica,sans-Serif" font-size="10.00" fill="grey"> spline</text>
</g>
<!-- Node17 -->
<g id="Node000017" class="node">
<title>Node17</title>
<g id="a_Node000017"><a xlink:title=" ">
<polygon fill="white" stroke="#666666" points="760,-492 725,-492 725,-473 760,-473 760,-492"/>
<text text-anchor="middle" x="742.5" y="-480" font-family="Helvetica,sans-Serif" font-size="10.00">u16</text>
</a>
</g>
</g>
<!-- Node17&#45;&gt;Node5 -->
<g id="edge19_Node000005_Node000017" class="edge">
<title>Node17&#45;&gt;Node5</title>
<g id="a_edge19_Node000005_Node000017"><a xlink:title=" ">
<path fill="none" stroke="#9a32cd" stroke-dasharray="5,2" d="M714.98,-473.36C679.89,-466.21 662.91,-477.52 641.5,-455 603.79,-415.32 655.37,-374.46 618.5,-334 601.37,-315.2 571.85,-309.41 550.88,-307.79"/>
<polygon fill="#9a32cd" stroke="#9a32cd" points="714.29,-476.79 724.83,-475.75 715.94,-469.99 714.29,-476.79"/>
</a>
</g>
<text text-anchor="middle" x="684" y="-430.5" font-family="Helvetica,sans-Serif" font-size="10.00" fill="grey"> animationTimer</text>
<text text-anchor="middle" x="684" y="-419.5" font-family="Helvetica,sans-Serif" font-size="10.00" fill="grey">boundingBoxSize</text>
<text text-anchor="middle" x="684" y="-408.5" font-family="Helvetica,sans-Serif" font-size="10.00" fill="grey">direction_angle</text>
<text text-anchor="middle" x="684" y="-397.5" font-family="Helvetica,sans-Serif" font-size="10.00" fill="grey">orientation</text>
<text text-anchor="middle" x="684" y="-386.5" font-family="Helvetica,sans-Serif" font-size="10.00" fill="grey">unk_09A</text>
<text text-anchor="middle" x="684" y="-375.5" font-family="Helvetica,sans-Serif" font-size="10.00" fill="grey">unk_0B8</text>
<text text-anchor="middle" x="684" y="-364.5" font-family="Helvetica,sans-Serif" font-size="10.00" fill="grey">unk_0C4</text>
<text text-anchor="middle" x="684" y="-353.5" font-family="Helvetica,sans-Serif" font-size="10.00" fill="grey">unk_0C6</text>
</g>
<!-- Node18 -->
<g id="Node000018" class="node">
<title>Node18</title>
<g id="a_Node000018"><a xlink:title=" ">
<polygon fill="white" stroke="#666666" points="1170.5,-316 1132.5,-316 1132.5,-297 1170.5,-297 1170.5,-316"/>
<text text-anchor="middle" x="1151.5" y="-304" font-family="Helvetica,sans-Serif" font-size="10.00">bool</text>
</a>
</g>
</g>
<!-- Node18&#45;&gt;Node1 -->
<g id="edge30_Node000001_Node000018" class="edge">
<title>Node18&#45;&gt;Node1</title>
<g id="a_edge30_Node000001_Node000018"><a xlink:title=" ">
<path fill="none" stroke="#9a32cd" stroke-dasharray="5,2" d="M1168.95,-289.51C1181.24,-276.46 1195.5,-256.81 1195.5,-236 1195.5,-236 1195.5,-236 1195.5,-74.5 1195.5,-54.72 1195.5,-31.51 1195.5,-19.2"/>
<polygon fill="#9a32cd" stroke="#9a32cd" points="1166.31,-287.2 1161.71,-296.74 1171.26,-292.16 1166.31,-287.2"/>
</a>
</g>
<text text-anchor="middle" x="1212.5" y="-161" font-family="Helvetica,sans-Serif" font-size="10.00" fill="grey"> Active</text>
</g>
<!-- Node18&#45;&gt;Node3 -->
<g id="edge21_Node000003_Node000018" class="edge">
<title>Node18&#45;&gt;Node3</title>
<g id="a_edge21_Node000003_Node000018"><a xlink:title=" ">
<path fill="none" stroke="#9a32cd" stroke-dasharray="5,2" d="M1122.47,-299.33C1057.75,-285.55 906.45,-253.24 895.5,-250 890.23,-248.44 884.64,-246.49 879.45,-244.54"/>
<polygon fill="#9a32cd" stroke="#9a32cd" points="1121.93,-302.79 1132.44,-301.45 1123.38,-295.94 1121.93,-302.79"/>
</a>
</g>
<text text-anchor="middle" x="1065" y="-271" font-family="Helvetica,sans-Serif" font-size="10.00" fill="grey"> bPendingDestroy</text>
</g>
<!-- Node19 -->
<g id="Node000019" class="node">
<title>Node19</title>
<g id="a_Node000019"><a xlink:title=" ">
<polygon fill="white" stroke="#666666" points="1032,-173 987,-173 987,-154 1032,-154 1032,-173"/>
<text text-anchor="middle" x="1009.5" y="-161" font-family="Helvetica,sans-Serif" font-size="10.00">size_t</text>
</a>
</g>
</g>
<!-- Node19&#45;&gt;Node2 -->
<g id="edge24_Node000002_Node000019" class="edge">
<title>Node19&#45;&gt;Node2</title>
<g id="a_edge24_Node000002_Node000019"><a xlink:title=" ">
<path fill="none" stroke="#9a32cd" stroke-dasharray="5,2" d="M1009.5,-143.91C1009.5,-125.67 1009.5,-98.65 1009.5,-85.03"/>
<polygon fill="#9a32cd" stroke="#9a32cd" points="1006,-143.94 1009.5,-153.94 1013,-143.94 1006,-143.94"/>
</a>
</g>
<text text-anchor="middle" x="1027.5" y="-122.5" font-family="Helvetica,sans-Serif" font-size="10.00" fill="grey"> _count</text>
<text text-anchor="middle" x="1027.5" y="-111.5" font-family="Helvetica,sans-Serif" font-size="10.00" fill="grey">_idx</text>
</g>
<!-- Node20&#45;&gt;Node2 -->
<g id="edge25_Node000002_Node000020" class="edge">
<title>Node20&#45;&gt;Node2</title>
<g id="a_edge25_Node000002_Node000020"><a xlink:title=" ">
<path fill="none" stroke="#9a32cd" stroke-dasharray="5,2" d="M939.32,-144.54C946.1,-131.93 956.36,-115.21 968.5,-103 975.55,-95.91 984.81,-89.72 992.75,-85.12"/>
<polygon fill="#9a32cd" stroke="#9a32cd" points="936.11,-143.11 934.65,-153.6 942.34,-146.31 936.11,-143.11"/>
</a>
</g>
<text text-anchor="middle" x="987" y="-117" font-family="Helvetica,sans-Serif" font-size="10.00" fill="grey"> _group</text>
</g>
<!-- Node21 -->
<g id="Node000021" class="node">
<title>Node21</title>
<g id="a_Node000021"><a xlink:title=" ">
<polygon fill="white" stroke="#666666" points="1024,-250 905,-250 905,-220 1024,-220 1024,-250"/>
<text text-anchor="start" x="913" y="-238" font-family="Helvetica,sans-Serif" font-size="10.00">vector&lt; OMoleGroup</text>
<text text-anchor="middle" x="964.5" y="-227" font-family="Helvetica,sans-Serif" font-size="10.00">::MoleEntry &gt;</text>
</a>
</g>
</g>
<!-- Node21&#45;&gt;Node20 -->
<g id="edge27_Node000020_Node000021" class="edge">
<title>Node21&#45;&gt;Node20</title>
<g id="a_edge27_Node000020_Node000021"><a xlink:title=" ">
<path fill="none" stroke="#9a32cd" stroke-dasharray="5,2" d="M953.1,-210.7C946.81,-197.84 939.37,-182.62 934.79,-173.27"/>
<polygon fill="#9a32cd" stroke="#9a32cd" points="950.08,-212.49 957.62,-219.94 956.37,-209.41 950.08,-212.49"/>
</a>
</g>
<text text-anchor="middle" x="969" y="-194" font-family="Helvetica,sans-Serif" font-size="10.00" fill="grey"> _moles</text>
</g>
<!-- Node22 -->
<g id="Node000022" class="node">
<title>Node22</title>
<g id="a_Node000022"><a xlink:href="structFVector.html" target="_top" xlink:title=" ">
<polygon fill="white" stroke="#666666" points="1285,-85 1232,-85 1232,-66 1285,-66 1285,-85"/>
<text text-anchor="middle" x="1258.5" y="-73" font-family="Helvetica,sans-Serif" font-size="10.00">FVector</text>
</a>
</g>
</g>
<!-- Node22&#45;&gt;Node1 -->
<g id="edge28_Node000001_Node000022" class="edge">
<title>Node22&#45;&gt;Node1</title>
<g id="a_edge28_Node000001_Node000022"><a xlink:title=" ">
<path fill="none" stroke="#9a32cd" stroke-dasharray="5,2" d="M1242.73,-58.48C1230.56,-46.12 1214.19,-29.49 1204.27,-19.41"/>
<polygon fill="#9a32cd" stroke="#9a32cd" points="1240.49,-61.2 1250,-65.87 1245.48,-56.29 1240.49,-61.2"/>
</a>
</g>
<text text-anchor="middle" x="1241" y="-40" font-family="Helvetica,sans-Serif" font-size="10.00" fill="grey"> Pos</text>
</g>
<!-- Node23 -->
<g id="Node000023" class="node">
<title>Node23</title>
<g id="a_Node000023"><a xlink:title=" ">
<polygon fill="white" stroke="#666666" points="1285.5,-173 1247.5,-173 1247.5,-154 1285.5,-154 1285.5,-173"/>
<text text-anchor="middle" x="1266.5" y="-161" font-family="Helvetica,sans-Serif" font-size="10.00">float</text>
</a>
</g>
</g>
<!-- Node23&#45;&gt;Node22 -->
<g id="edge29_Node000022_Node000023" class="edge">
<title>Node23&#45;&gt;Node22</title>
<g id="a_edge29_Node000022_Node000023"><a xlink:title=" ">
<path fill="none" stroke="#9a32cd" stroke-dasharray="5,2" d="M1264.77,-143.91C1263.07,-125.67 1260.56,-98.65 1259.29,-85.03"/>
<polygon fill="#9a32cd" stroke="#9a32cd" points="1261.29,-144.31 1265.7,-153.94 1268.26,-143.66 1261.29,-144.31"/>
</a>
</g>
<text text-anchor="middle" x="1268.5" y="-128" font-family="Helvetica,sans-Serif" font-size="10.00" fill="grey"> x</text>
<text text-anchor="middle" x="1268.5" y="-117" font-family="Helvetica,sans-Serif" font-size="10.00" fill="grey">y</text>
<text text-anchor="middle" x="1268.5" y="-106" font-family="Helvetica,sans-Serif" font-size="10.00" fill="grey">z</text>
</g>
</g>
</svg>
