<?xml version="1.0" encoding="UTF-8" standalone="no"?>
<!DOCTYPE svg PUBLIC "-//W3C//DTD SVG 1.1//EN"
 "http://www.w3.org/Graphics/SVG/1.1/DTD/svg11.dtd">
<!-- Generated by graphviz version 2.43.0 (0)
 -->
<!-- Title: include/assets/texture_tkmk00.h Pages: 1 -->
<!--zoomable 324 -->

<svg id="main" version="1.1" xmlns="http://www.w3.org/2000/svg" xmlns:xlink="http://www.w3.org/1999/xlink" xml:space="preserve" onload="init(evt)">

<style type="text/css"><![CDATA[
.node, .edge {opacity: 0.7;}
.node.selected, .edge.selected {opacity: 1;}
.edge:hover path { stroke: red; }
.edge:hover polygon { stroke: red; fill: red; }
]]></style>

<defs>
  <circle id="rim" cx="0" cy="0" r="7"/>
  <circle id="rim2" cx="0" cy="0" r="3.5"/>
  <g id="zoomPlus">
    <use xlink:href="#rim" fill="#404040"><set attributeName="fill" to="#808080" begin="zoomplus.mouseover" end="zoomplus.mouseout"/></use>
    <path d="M-4,0h8M0,-4v8" fill="none" stroke="white" stroke-width="1.5" pointer-events="none"/>
  </g>
  <g id="zoomMin">
    <use xlink:href="#rim" fill="#404040"><set attributeName="fill" to="#808080" begin="zoomminus.mouseover" end="zoomminus.mouseout"/></use>
    <path d="M-4,0h8" fill="none" stroke="white" stroke-width="1.5" pointer-events="none"/>
  </g>
  <g id="arrowUp" transform="translate(30 24)">
    <use xlink:href="#rim"/>
    <path pointer-events="none" fill="none" stroke="white" stroke-width="1.5" d="M0,-3.0v7 M-2.5,-0.5L0,-3.0L2.5,-0.5"/>
  </g>
  <g id="arrowRight" transform="rotate(90) translate(36 -43)">
    <use xlink:href="#rim"/>
    <path pointer-events="none" fill="none" stroke="white" stroke-width="1.5" d="M0,-3.0v7 M-2.5,-0.5L0,-3.0L2.5,-0.5"/>
  </g>
  <g id="arrowDown" transform="rotate(180) translate(-30 -48)">
    <use xlink:href="#rim"/>
    <path pointer-events="none" fill="none" stroke="white" stroke-width="1.5" d="M0,-3.0v7 M-2.5,-0.5L0,-3.0L2.5,-0.5"/>
  </g>
  <g id="arrowLeft" transform="rotate(270) translate(-36 17)">
    <use xlink:href="#rim"/>
    <path pointer-events="none" fill="none" stroke="white" stroke-width="1.5" d="M0,-3.0v7 M-2.5,-0.5L0,-3.0L2.5,-0.5"/>
  </g>
  <g id="resetDef">
    <use xlink:href="#rim2" fill="#404040"><set attributeName="fill" to="#808080" begin="reset.mouseover" end="reset.mouseout"/></use>
  </g>
</defs>
<script type="application/ecmascript">
var viewWidth = 3218;
var viewHeight = 324;
var sectionId = 'dynsection-1';
</script>
<script type="application/ecmascript" xlink:href="svg.min.js"/>
<svg id="graph" class="graph">
<g id="viewport">
<title>include/assets/texture_tkmk00.h</title>
<!-- Node1 -->
<g id="Node000001" class="node">
<title>Node1</title>
<g id="a_Node000001"><a xlink:title=" ">
<polygon fill="#999999" stroke="#666666" points="1621,-316 1496,-316 1496,-286 1621,-286 1621,-316"/>
<text text-anchor="start" x="1504" y="-304" font-family="Helvetica,sans-Serif" font-size="10.00">include/assets/texture</text>
<text text-anchor="middle" x="1558.5" y="-293" font-family="Helvetica,sans-Serif" font-size="10.00">_tkmk00.h</text>
</a>
</g>
</g>
<!-- Node2 -->
<g id="Node000002" class="node">
<title>Node2</title>
<g id="a_Node000002"><a xlink:href="textures_8c.html" target="_top" xlink:title="Texture data. start in ram 0x801978D0 look like link to menu_items.">
<polygon fill="white" stroke="#666666" points="1571,-195 1464,-195 1464,-176 1571,-176 1571,-195"/>
<text text-anchor="middle" x="1517.5" y="-183" font-family="Helvetica,sans-Serif" font-size="10.00">src/data/textures.c</text>
</a>
</g>
</g>
<!-- Node1&#45;&gt;Node2 -->
<g id="edge1_Node000001_Node000002" class="edge">
<title>Node1&#45;&gt;Node2</title>
<g id="a_edge1_Node000001_Node000002"><a xlink:title=" ">
<path fill="none" stroke="#63b8ff" d="M1549.84,-276.03C1540.72,-250.77 1526.83,-212.33 1520.65,-195.23"/>
<polygon fill="#63b8ff" stroke="#63b8ff" points="1546.62,-277.41 1553.31,-285.63 1553.2,-275.03 1546.62,-277.41"/>
</a>
</g>
</g>
<!-- Node3 -->
<g id="Node000003" class="node">
<title>Node3</title>
<g id="a_Node000003"><a xlink:href="textures_8h.html" target="_top" xlink:title=" ">
<polygon fill="white" stroke="#666666" points="1641,-250 1558,-250 1558,-231 1641,-231 1641,-250"/>
<text text-anchor="middle" x="1599.5" y="-238" font-family="Helvetica,sans-Serif" font-size="10.00">src/textures.h</text>
</a>
</g>
</g>
<!-- Node1&#45;&gt;Node3 -->
<g id="edge2_Node000001_Node000003" class="edge">
<title>Node1&#45;&gt;Node3</title>
<g id="a_edge2_Node000001_Node000003"><a xlink:title=" ">
<path fill="none" stroke="#63b8ff" d="M1574.26,-277.51C1580.93,-267.99 1588.31,-257.47 1593.36,-250.27"/>
<polygon fill="#63b8ff" stroke="#63b8ff" points="1571.3,-275.64 1568.42,-285.84 1577.03,-279.66 1571.3,-275.64"/>
</a>
</g>
</g>
<!-- Node3&#45;&gt;Node2 -->
<g id="edge3_Node000003_Node000002" class="edge">
<title>Node3&#45;&gt;Node2</title>
<g id="a_edge3_Node000003_Node000002"><a xlink:title=" ">
<path fill="none" stroke="#63b8ff" d="M1577.72,-225.42C1562.84,-215.81 1543.59,-203.37 1530.91,-195.17"/>
<polygon fill="#63b8ff" stroke="#63b8ff" points="1576.03,-228.5 1586.33,-230.98 1579.83,-222.62 1576.03,-228.5"/>
</a>
</g>
</g>
<!-- Node4 -->
<g id="Node000004" class="node">
<title>Node4</title>
<g id="a_Node000004"><a xlink:href="all__variables_8h.html" target="_top" xlink:title=" ">
<polygon fill="white" stroke="#666666" points="3209.5,-134.5 3071.5,-134.5 3071.5,-115.5 3209.5,-115.5 3209.5,-134.5"/>
<text text-anchor="middle" x="3140.5" y="-122.5" font-family="Helvetica,sans-Serif" font-size="10.00">src/debug/all_variables.h</text>
</a>
</g>
</g>
<!-- Node3&#45;&gt;Node4 -->
<g id="edge4_Node000003_Node000004" class="edge">
<title>Node3&#45;&gt;Node4</title>
<g id="a_edge4_Node000003_Node000004"><a xlink:title=" ">
<path fill="none" stroke="#63b8ff" d="M1651.49,-238.03C1841.08,-232.22 2512.92,-207.8 3062.5,-140 3073.97,-138.58 3086.31,-136.59 3097.72,-134.55"/>
<polygon fill="#63b8ff" stroke="#63b8ff" points="1651.15,-234.54 1641.26,-238.34 1651.36,-241.53 1651.15,-234.54"/>
</a>
</g>
</g>
<!-- Node7 -->
<g id="Node000007" class="node">
<title>Node7</title>
<g id="a_Node000007"><a xlink:href="menu__items_8c.html" target="_top" xlink:title=" ">
<polygon fill="white" stroke="#666666" points="103,-134.5 0,-134.5 0,-115.5 103,-115.5 103,-134.5"/>
<text text-anchor="middle" x="51.5" y="-122.5" font-family="Helvetica,sans-Serif" font-size="10.00">src/menu_items.c</text>
</a>
</g>
</g>
<!-- Node3&#45;&gt;Node7 -->
<g id="edge7_Node000003_Node000007" class="edge">
<title>Node3&#45;&gt;Node7</title>
<g id="a_edge7_Node000003_Node000007"><a xlink:title=" ">
<path fill="none" stroke="#63b8ff" d="M1599.44,-220.72C1598.28,-206 1594.05,-186.35 1580.5,-176 1515.62,-126.45 192.48,-150.33 111.5,-140 102.06,-138.8 91.93,-136.74 82.73,-134.56"/>
<polygon fill="#63b8ff" stroke="#63b8ff" points="1595.94,-220.91 1599.83,-230.77 1602.94,-220.64 1595.94,-220.91"/>
</a>
</g>
</g>
<!-- Node8 -->
<g id="Node000008" class="node">
<title>Node8</title>
<g id="a_Node000008"><a xlink:href="menu__items_8h.html" target="_top" xlink:title=" ">
<polygon fill="white" stroke="#666666" points="1731.5,-195 1627.5,-195 1627.5,-176 1731.5,-176 1731.5,-195"/>
<text text-anchor="middle" x="1679.5" y="-183" font-family="Helvetica,sans-Serif" font-size="10.00">src/menu_items.h</text>
</a>
</g>
</g>
<!-- Node3&#45;&gt;Node8 -->
<g id="edge8_Node000003_Node000008" class="edge">
<title>Node3&#45;&gt;Node8</title>
<g id="a_edge8_Node000003_Node000008"><a xlink:title=" ">
<path fill="none" stroke="#63b8ff" d="M1620.75,-225.42C1635.26,-215.81 1654.04,-203.37 1666.41,-195.17"/>
<polygon fill="#63b8ff" stroke="#63b8ff" points="1618.76,-222.54 1612.35,-230.98 1622.62,-228.38 1618.76,-222.54"/>
</a>
</g>
</g>
<!-- Node5 -->
<g id="Node000005" class="node">
<title>Node5</title>
<g id="a_Node000005"><a xlink:href="debug_8inc_8c.html" target="_top" xlink:title=" ">
<polygon fill="white" stroke="#666666" points="3201.5,-74 3079.5,-74 3079.5,-55 3201.5,-55 3201.5,-74"/>
<text text-anchor="middle" x="3140.5" y="-62" font-family="Helvetica,sans-Serif" font-size="10.00">src/debug/debug.inc.c</text>
</a>
</g>
</g>
<!-- Node4&#45;&gt;Node5 -->
<g id="edge5_Node000004_Node000005" class="edge">
<title>Node4&#45;&gt;Node5</title>
<g id="a_edge5_Node000004_Node000005"><a xlink:title=" ">
<path fill="none" stroke="#63b8ff" d="M3140.5,-105.16C3140.5,-94.74 3140.5,-82.3 3140.5,-74.17"/>
<polygon fill="#63b8ff" stroke="#63b8ff" points="3137,-105.37 3140.5,-115.37 3144,-105.37 3137,-105.37"/>
</a>
</g>
</g>
<!-- Node6 -->
<g id="Node000006" class="node">
<title>Node6</title>
<g id="a_Node000006"><a xlink:href="debug_8c.html" target="_top" xlink:title=" ">
<polygon fill="white" stroke="#666666" points="3193,-19 3088,-19 3088,0 3193,0 3193,-19"/>
<text text-anchor="middle" x="3140.5" y="-7" font-family="Helvetica,sans-Serif" font-size="10.00">src/debug/debug.c</text>
</a>
</g>
</g>
<!-- Node5&#45;&gt;Node6 -->
<g id="edge6_Node000005_Node000006" class="edge">
<title>Node5&#45;&gt;Node6</title>
<g id="a_edge6_Node000005_Node000006"><a xlink:title=" ">
<path fill="none" stroke="#63b8ff" d="M3140.5,-44.66C3140.5,-35.93 3140.5,-25.99 3140.5,-19.09"/>
<polygon fill="#63b8ff" stroke="#63b8ff" points="3137,-44.75 3140.5,-54.75 3144,-44.75 3137,-44.75"/>
</a>
</g>
</g>
<!-- Node8&#45;&gt;Node4 -->
<g id="edge14_Node000008_Node000004" class="edge">
<title>Node8&#45;&gt;Node4</title>
<g id="a_edge14_Node000008_Node000004"><a xlink:title=" ">
<path fill="none" stroke="#63b8ff" d="M1741.84,-183.7C1975.73,-180.51 2801.05,-167.52 3062.5,-140 3074.54,-138.73 3087.52,-136.68 3099.37,-134.54"/>
<polygon fill="#63b8ff" stroke="#63b8ff" points="1741.75,-180.2 1731.8,-183.84 1741.85,-187.2 1741.75,-180.2"/>
</a>
</g>
</g>
<!-- Node8&#45;&gt;Node7 -->
<g id="edge23_Node000008_Node000007" class="edge">
<title>Node8&#45;&gt;Node7</title>
<g id="a_edge23_Node000008_Node000007"><a xlink:title=" ">
<path fill="none" stroke="#63b8ff" d="M1617.33,-176.31C1616.04,-176.2 1614.76,-176.1 1613.5,-176 947.68,-125.28 773.9,-224.31 111.5,-140 102.06,-138.8 91.93,-136.74 82.73,-134.57"/>
<polygon fill="#63b8ff" stroke="#63b8ff" points="1617.02,-179.8 1627.31,-177.27 1617.69,-172.83 1617.02,-179.8"/>
</a>
</g>
</g>
<!-- Node9 -->
<g id="Node000009" class="node">
<title>Node9</title>
<g id="a_Node000009"><a xlink:href="external_8c.html" target="_top" xlink:title=" ">
<polygon fill="white" stroke="#666666" points="3053,-134.5 2940,-134.5 2940,-115.5 3053,-115.5 3053,-134.5"/>
<text text-anchor="middle" x="2996.5" y="-122.5" font-family="Helvetica,sans-Serif" font-size="10.00">src/audio/external.c</text>
</a>
</g>
</g>
<!-- Node8&#45;&gt;Node9 -->
<g id="edge9_Node000008_Node000009" class="edge">
<title>Node8&#45;&gt;Node9</title>
<g id="a_edge9_Node000008_Node000009"><a xlink:title=" ">
<path fill="none" stroke="#63b8ff" d="M1741.67,-183.72C1960.79,-180.73 2696.54,-168.75 2930.5,-140 2940.73,-138.74 2951.73,-136.7 2961.75,-134.55"/>
<polygon fill="#63b8ff" stroke="#63b8ff" points="1741.58,-180.22 1731.63,-183.85 1741.67,-187.22 1741.58,-180.22"/>
</a>
</g>
</g>
<!-- Node10 -->
<g id="Node000010" class="node">
<title>Node10</title>
<g id="a_Node000010"><a xlink:href="code__800029B0_8c.html" target="_top" xlink:title=" ">
<polygon fill="white" stroke="#666666" points="240,-134.5 121,-134.5 121,-115.5 240,-115.5 240,-134.5"/>
<text text-anchor="middle" x="180.5" y="-122.5" font-family="Helvetica,sans-Serif" font-size="10.00">src/code_800029B0.c</text>
</a>
</g>
</g>
<!-- Node8&#45;&gt;Node10 -->
<g id="edge10_Node000008_Node000010" class="edge">
<title>Node8&#45;&gt;Node10</title>
<g id="a_edge10_Node000008_Node000010"><a xlink:title=" ">
<path fill="none" stroke="#63b8ff" d="M1617.33,-176.31C1616.04,-176.2 1614.76,-176.1 1613.5,-176 1008.87,-129.21 852.05,-208.55 249.5,-140 238.69,-138.77 227.06,-136.7 216.48,-134.53"/>
<polygon fill="#63b8ff" stroke="#63b8ff" points="1617.02,-179.8 1627.31,-177.28 1617.7,-172.83 1617.02,-179.8"/>
</a>
</g>
</g>
<!-- Node11 -->
<g id="Node000011" class="node">
<title>Node11</title>
<g id="a_Node000011"><a xlink:href="code__80005FD0_8c.html" target="_top" xlink:title=" ">
<polygon fill="white" stroke="#666666" points="378.5,-134.5 258.5,-134.5 258.5,-115.5 378.5,-115.5 378.5,-134.5"/>
<text text-anchor="middle" x="318.5" y="-122.5" font-family="Helvetica,sans-Serif" font-size="10.00">src/code_80005FD0.c</text>
</a>
</g>
</g>
<!-- Node8&#45;&gt;Node11 -->
<g id="edge11_Node000008_Node000011" class="edge">
<title>Node8&#45;&gt;Node11</title>
<g id="a_edge11_Node000008_Node000011"><a xlink:title=" ">
<path fill="none" stroke="#63b8ff" d="M1617.33,-176.32C1616.04,-176.21 1614.76,-176.1 1613.5,-176 1070.51,-133.16 929.68,-201.63 388.5,-140 377.54,-138.75 365.74,-136.68 355.01,-134.51"/>
<polygon fill="#63b8ff" stroke="#63b8ff" points="1617.02,-179.81 1627.31,-177.3 1617.7,-172.84 1617.02,-179.81"/>
</a>
</g>
</g>
<!-- Node12 -->
<g id="Node000012" class="node">
<title>Node12</title>
<g id="a_Node000012"><a xlink:href="code__8006E9C0_8c.html" target="_top" xlink:title=" ">
<polygon fill="white" stroke="#666666" points="516,-134.5 397,-134.5 397,-115.5 516,-115.5 516,-134.5"/>
<text text-anchor="middle" x="456.5" y="-122.5" font-family="Helvetica,sans-Serif" font-size="10.00">src/code_8006E9C0.c</text>
</a>
</g>
</g>
<!-- Node8&#45;&gt;Node12 -->
<g id="edge12_Node000008_Node000012" class="edge">
<title>Node8&#45;&gt;Node12</title>
<g id="a_edge12_Node000008_Node000012"><a xlink:title=" ">
<path fill="none" stroke="#63b8ff" d="M1617.32,-176.33C1616.04,-176.21 1614.76,-176.1 1613.5,-176 1131.25,-137.06 1006.03,-196.3 525.5,-140 514.82,-138.75 503.32,-136.7 492.84,-134.56"/>
<polygon fill="#63b8ff" stroke="#63b8ff" points="1617.01,-179.81 1627.31,-177.31 1617.7,-172.85 1617.01,-179.81"/>
</a>
</g>
</g>
<!-- Node13 -->
<g id="Node000013" class="node">
<title>Node13</title>
<g id="a_Node000013"><a xlink:href="code__800AF9B0_8c.html" target="_top" xlink:title=" ">
<polygon fill="white" stroke="#666666" points="654.5,-134.5 534.5,-134.5 534.5,-115.5 654.5,-115.5 654.5,-134.5"/>
<text text-anchor="middle" x="594.5" y="-122.5" font-family="Helvetica,sans-Serif" font-size="10.00">src/code_800AF9B0.c</text>
</a>
</g>
</g>
<!-- Node8&#45;&gt;Node13 -->
<g id="edge13_Node000008_Node000013" class="edge">
<title>Node8&#45;&gt;Node13</title>
<g id="a_edge13_Node000008_Node000013"><a xlink:title=" ">
<path fill="none" stroke="#63b8ff" d="M1617.32,-176.33C1616.04,-176.22 1614.76,-176.11 1613.5,-176 1192.87,-141.01 1083.66,-189.55 664.5,-140 653.67,-138.72 642.01,-136.67 631.38,-134.52"/>
<polygon fill="#63b8ff" stroke="#63b8ff" points="1617.01,-179.82 1627.31,-177.34 1617.71,-172.86 1617.01,-179.82"/>
</a>
</g>
</g>
<!-- Node14 -->
<g id="Node000014" class="node">
<title>Node14</title>
<g id="a_Node000014"><a xlink:href="effects_8c.html" target="_top" xlink:title=" ">
<polygon fill="white" stroke="#666666" points="748,-134.5 673,-134.5 673,-115.5 748,-115.5 748,-134.5"/>
<text text-anchor="middle" x="710.5" y="-122.5" font-family="Helvetica,sans-Serif" font-size="10.00">src/effects.c</text>
</a>
</g>
</g>
<!-- Node8&#45;&gt;Node14 -->
<g id="edge15_Node000008_Node000014" class="edge">
<title>Node8&#45;&gt;Node14</title>
<g id="a_edge15_Node000008_Node000014"><a xlink:title=" ">
<path fill="none" stroke="#63b8ff" d="M1617.32,-176.34C1616.04,-176.22 1614.76,-176.11 1613.5,-176 1234.1,-143.65 1133.06,-202.83 757.5,-140 750.11,-138.76 742.25,-136.72 735.11,-134.58"/>
<polygon fill="#63b8ff" stroke="#63b8ff" points="1617,-179.83 1627.31,-177.36 1617.71,-172.86 1617,-179.83"/>
</a>
</g>
</g>
<!-- Node15 -->
<g id="Node000015" class="node">
<title>Node15</title>
<g id="a_Node000015"><a xlink:href="ceremony__and__credits_8c.html" target="_top" xlink:title=" ">
<polygon fill="white" stroke="#666666" points="885,-140 766,-140 766,-110 885,-110 885,-140"/>
<text text-anchor="start" x="774" y="-128" font-family="Helvetica,sans-Serif" font-size="10.00">src/ending/ceremony</text>
<text text-anchor="middle" x="825.5" y="-117" font-family="Helvetica,sans-Serif" font-size="10.00">_and_credits.c</text>
</a>
</g>
</g>
<!-- Node8&#45;&gt;Node15 -->
<g id="edge16_Node000008_Node000015" class="edge">
<title>Node8&#45;&gt;Node15</title>
<g id="a_edge16_Node000008_Node000015"><a xlink:title=" ">
<path fill="none" stroke="#63b8ff" d="M1617.32,-176.36C1616.04,-176.23 1614.76,-176.11 1613.5,-176 1294.81,-147.54 1211.96,-179.92 894.5,-140 891.47,-139.62 888.37,-139.18 885.25,-138.69"/>
<polygon fill="#63b8ff" stroke="#63b8ff" points="1616.99,-179.84 1627.3,-177.4 1617.72,-172.88 1616.99,-179.84"/>
</a>
</g>
</g>
<!-- Node16 -->
<g id="Node000016" class="node">
<title>Node16</title>
<g id="a_Node000016"><a xlink:href="code__80280000_8c.html" target="_top" xlink:title=" ">
<polygon fill="white" stroke="#666666" points="1058,-134.5 903,-134.5 903,-115.5 1058,-115.5 1058,-134.5"/>
<text text-anchor="middle" x="980.5" y="-122.5" font-family="Helvetica,sans-Serif" font-size="10.00">src/ending/code_80280000.c</text>
</a>
</g>
</g>
<!-- Node8&#45;&gt;Node16 -->
<g id="edge17_Node000008_Node000016" class="edge">
<title>Node8&#45;&gt;Node16</title>
<g id="a_edge17_Node000008_Node000016"><a xlink:title=" ">
<path fill="none" stroke="#63b8ff" d="M1617.32,-176.38C1616.04,-176.25 1614.76,-176.12 1613.5,-176 1371.45,-152.46 1309.15,-167.35 1067.5,-140 1054.73,-138.55 1040.97,-136.55 1028.25,-134.51"/>
<polygon fill="#63b8ff" stroke="#63b8ff" points="1616.97,-179.87 1627.3,-177.47 1617.73,-172.91 1616.97,-179.87"/>
</a>
</g>
</g>
<!-- Node17 -->
<g id="Node000017" class="node">
<title>Node17</title>
<g id="a_Node000017"><a xlink:href="code__80281780_8c.html" target="_top" xlink:title=" ">
<polygon fill="white" stroke="#666666" points="1231,-134.5 1076,-134.5 1076,-115.5 1231,-115.5 1231,-134.5"/>
<text text-anchor="middle" x="1153.5" y="-122.5" font-family="Helvetica,sans-Serif" font-size="10.00">src/ending/code_80281780.c</text>
</a>
</g>
</g>
<!-- Node8&#45;&gt;Node17 -->
<g id="edge18_Node000008_Node000017" class="edge">
<title>Node8&#45;&gt;Node17</title>
<g id="a_edge18_Node000008_Node000017"><a xlink:title=" ">
<path fill="none" stroke="#63b8ff" d="M1617.31,-176.44C1616.03,-176.29 1614.76,-176.14 1613.5,-176 1448,-157.36 1405.69,-161.24 1240.5,-140 1228.36,-138.44 1215.31,-136.49 1203.11,-134.54"/>
<polygon fill="#63b8ff" stroke="#63b8ff" points="1616.94,-179.91 1627.28,-177.62 1617.76,-172.96 1616.94,-179.91"/>
</a>
</g>
</g>
<!-- Node18 -->
<g id="Node000018" class="node">
<title>Node18</title>
<g id="a_Node000018"><a xlink:href="code__80281C40_8c.html" target="_top" xlink:title=" ">
<polygon fill="white" stroke="#666666" points="1404,-134.5 1249,-134.5 1249,-115.5 1404,-115.5 1404,-134.5"/>
<text text-anchor="middle" x="1326.5" y="-122.5" font-family="Helvetica,sans-Serif" font-size="10.00">src/ending/code_80281C40.c</text>
</a>
</g>
</g>
<!-- Node8&#45;&gt;Node18 -->
<g id="edge19_Node000008_Node000018" class="edge">
<title>Node8&#45;&gt;Node18</title>
<g id="a_edge19_Node000008_Node000018"><a xlink:title=" ">
<path fill="none" stroke="#63b8ff" d="M1618.02,-174.31C1550,-163.04 1441.58,-145.07 1377.89,-134.52"/>
<polygon fill="#63b8ff" stroke="#63b8ff" points="1617.73,-177.81 1628.17,-175.99 1618.88,-170.91 1617.73,-177.81"/>
</a>
</g>
</g>
<!-- Node19 -->
<g id="Node000019" class="node">
<title>Node19</title>
<g id="a_Node000019"><a xlink:href="HM__Intro_8cpp.html" target="_top" xlink:title=" ">
<polygon fill="white" stroke="#666666" points="1556.5,-134.5 1422.5,-134.5 1422.5,-115.5 1556.5,-115.5 1556.5,-134.5"/>
<text text-anchor="middle" x="1489.5" y="-122.5" font-family="Helvetica,sans-Serif" font-size="10.00">src/engine/HM_Intro.cpp</text>
</a>
</g>
</g>
<!-- Node8&#45;&gt;Node19 -->
<g id="edge20_Node000008_Node000019" class="edge">
<title>Node8&#45;&gt;Node19</title>
<g id="a_edge20_Node000008_Node000019"><a xlink:title=" ">
<path fill="none" stroke="#63b8ff" d="M1642.03,-172.96C1605.28,-161.65 1550.1,-144.66 1517.16,-134.52"/>
<polygon fill="#63b8ff" stroke="#63b8ff" points="1641.29,-176.4 1651.87,-175.99 1643.35,-169.71 1641.29,-176.4"/>
</a>
</g>
</g>
<!-- Node20 -->
<g id="Node000020" class="node">
<title>Node20</title>
<g id="a_Node000020"><a xlink:href="Trophy_8cpp.html" target="_top" xlink:title=" ">
<polygon fill="white" stroke="#666666" points="1680,-140 1575,-140 1575,-110 1680,-110 1680,-140"/>
<text text-anchor="start" x="1583" y="-128" font-family="Helvetica,sans-Serif" font-size="10.00">src/engine/objects</text>
<text text-anchor="middle" x="1627.5" y="-117" font-family="Helvetica,sans-Serif" font-size="10.00">/Trophy.cpp</text>
</a>
</g>
</g>
<!-- Node8&#45;&gt;Node20 -->
<g id="edge21_Node000008_Node000020" class="edge">
<title>Node8&#45;&gt;Node20</title>
<g id="a_edge21_Node000008_Node000020"><a xlink:title=" ">
<path fill="none" stroke="#63b8ff" d="M1664.97,-168.15C1657.13,-159.34 1647.56,-148.56 1640.05,-140.11"/>
<polygon fill="#63b8ff" stroke="#63b8ff" points="1662.57,-170.72 1671.83,-175.87 1667.8,-166.07 1662.57,-170.72"/>
</a>
</g>
</g>
<!-- Node21 -->
<g id="Node000021" class="node">
<title>Node21</title>
<g id="a_Node000021"><a xlink:href="main_8c.html" target="_top" xlink:title=" ">
<polygon fill="white" stroke="#666666" points="1765,-134.5 1698,-134.5 1698,-115.5 1765,-115.5 1765,-134.5"/>
<text text-anchor="middle" x="1731.5" y="-122.5" font-family="Helvetica,sans-Serif" font-size="10.00">src/main.c</text>
</a>
</g>
</g>
<!-- Node8&#45;&gt;Node21 -->
<g id="edge22_Node000008_Node000021" class="edge">
<title>Node8&#45;&gt;Node21</title>
<g id="a_edge22_Node000008_Node000021"><a xlink:title=" ">
<path fill="none" stroke="#63b8ff" d="M1693.93,-168.27C1703.6,-157.39 1715.95,-143.49 1723.8,-134.67"/>
<polygon fill="#63b8ff" stroke="#63b8ff" points="1691.2,-166.07 1687.17,-175.87 1696.43,-170.72 1691.2,-166.07"/>
</a>
</g>
</g>
<!-- Node22 -->
<g id="Node000022" class="node">
<title>Node22</title>
<g id="a_Node000022"><a xlink:href="menus_8c.html" target="_top" xlink:title=" ">
<polygon fill="white" stroke="#666666" points="1858,-134.5 1783,-134.5 1783,-115.5 1858,-115.5 1858,-134.5"/>
<text text-anchor="middle" x="1820.5" y="-122.5" font-family="Helvetica,sans-Serif" font-size="10.00">src/menus.c</text>
</a>
</g>
</g>
<!-- Node8&#45;&gt;Node22 -->
<g id="edge24_Node000008_Node000022" class="edge">
<title>Node8&#45;&gt;Node22</title>
<g id="a_edge24_Node000008_Node000022"><a xlink:title=" ">
<path fill="none" stroke="#63b8ff" d="M1709.43,-172.08C1736.67,-160.78 1776.15,-144.4 1799.97,-134.52"/>
<polygon fill="#63b8ff" stroke="#63b8ff" points="1707.9,-168.93 1700,-175.99 1710.58,-175.39 1707.9,-168.93"/>
</a>
</g>
</g>
<!-- Node23 -->
<g id="Node000023" class="node">
<title>Node23</title>
<g id="a_Node000023"><a xlink:href="actors__extended_8c.html" target="_top" xlink:title=" ">
<polygon fill="white" stroke="#666666" points="2032.5,-134.5 1876.5,-134.5 1876.5,-115.5 2032.5,-115.5 2032.5,-134.5"/>
<text text-anchor="middle" x="1954.5" y="-122.5" font-family="Helvetica,sans-Serif" font-size="10.00">src/racing/actors_extended.c</text>
</a>
</g>
</g>
<!-- Node8&#45;&gt;Node23 -->
<g id="edge25_Node000008_Node000023" class="edge">
<title>Node8&#45;&gt;Node23</title>
<g id="a_edge25_Node000008_Node000023"><a xlink:title=" ">
<path fill="none" stroke="#63b8ff" d="M1729.36,-173.89C1782.46,-162.6 1865.46,-144.94 1914.46,-134.52"/>
<polygon fill="#63b8ff" stroke="#63b8ff" points="1728.54,-170.49 1719.49,-175.99 1730,-177.34 1728.54,-170.49"/>
</a>
</g>
</g>
<!-- Node24 -->
<g id="Node000024" class="node">
<title>Node24</title>
<g id="a_Node000024"><a xlink:href="race__logic_8c.html" target="_top" xlink:title=" ">
<polygon fill="white" stroke="#666666" points="2176,-134.5 2051,-134.5 2051,-115.5 2176,-115.5 2176,-134.5"/>
<text text-anchor="middle" x="2113.5" y="-122.5" font-family="Helvetica,sans-Serif" font-size="10.00">src/racing/race_logic.c</text>
</a>
</g>
</g>
<!-- Node8&#45;&gt;Node24 -->
<g id="edge26_Node000008_Node000024" class="edge">
<title>Node8&#45;&gt;Node24</title>
<g id="a_edge26_Node000008_Node000024"><a xlink:title=" ">
<path fill="none" stroke="#63b8ff" d="M1741.8,-178.18C1814.08,-170.53 1936.74,-156.6 2041.5,-140 2051.44,-138.43 2062.1,-136.49 2072.09,-134.56"/>
<polygon fill="#63b8ff" stroke="#63b8ff" points="1741.09,-174.73 1731.51,-179.26 1741.82,-181.69 1741.09,-174.73"/>
</a>
</g>
</g>
<!-- Node25 -->
<g id="Node000025" class="node">
<title>Node25</title>
<g id="a_Node000025"><a xlink:href="skybox__and__splitscreen_8c.html" target="_top" xlink:title=" ">
<polygon fill="white" stroke="#666666" points="2319,-140 2194,-140 2194,-110 2319,-110 2319,-140"/>
<text text-anchor="start" x="2202" y="-128" font-family="Helvetica,sans-Serif" font-size="10.00">src/racing/skybox_and</text>
<text text-anchor="middle" x="2256.5" y="-117" font-family="Helvetica,sans-Serif" font-size="10.00">_splitscreen.c</text>
</a>
</g>
</g>
<!-- Node8&#45;&gt;Node25 -->
<g id="edge27_Node000008_Node000025" class="edge">
<title>Node8&#45;&gt;Node25</title>
<g id="a_edge27_Node000008_Node000025"><a xlink:title=" ">
<path fill="none" stroke="#63b8ff" d="M1741.88,-181.17C1837.65,-175.57 2026.5,-162.6 2185.5,-140 2188.24,-139.61 2191.03,-139.19 2193.84,-138.73"/>
<polygon fill="#63b8ff" stroke="#63b8ff" points="1741.57,-177.68 1731.79,-181.75 1741.98,-184.67 1741.57,-177.68"/>
</a>
</g>
</g>
<!-- Node26 -->
<g id="Node000026" class="node">
<title>Node26</title>
<g id="a_Node000026"><a xlink:href="render__objects_8c.html" target="_top" xlink:title=" ">
<polygon fill="white" stroke="#666666" points="2451.5,-134.5 2337.5,-134.5 2337.5,-115.5 2451.5,-115.5 2451.5,-134.5"/>
<text text-anchor="middle" x="2394.5" y="-122.5" font-family="Helvetica,sans-Serif" font-size="10.00">src/render_objects.c</text>
</a>
</g>
</g>
<!-- Node8&#45;&gt;Node26 -->
<g id="edge28_Node000008_Node000026" class="edge">
<title>Node8&#45;&gt;Node26</title>
<g id="a_edge28_Node000008_Node000026"><a xlink:title=" ">
<path fill="none" stroke="#63b8ff" d="M1742.04,-183.13C1858.13,-179.94 2114.61,-169.87 2328.5,-140 2338.36,-138.62 2348.95,-136.62 2358.7,-134.55"/>
<polygon fill="#63b8ff" stroke="#63b8ff" points="1741.82,-179.64 1731.91,-183.4 1742,-186.63 1741.82,-179.64"/>
</a>
</g>
</g>
<!-- Node27 -->
<g id="Node000027" class="node">
<title>Node27</title>
<g id="a_Node000027"><a xlink:href="save_8c.html" target="_top" xlink:title=" ">
<polygon fill="white" stroke="#666666" points="2535,-134.5 2470,-134.5 2470,-115.5 2535,-115.5 2535,-134.5"/>
<text text-anchor="middle" x="2502.5" y="-122.5" font-family="Helvetica,sans-Serif" font-size="10.00">src/save.c</text>
</a>
</g>
</g>
<!-- Node8&#45;&gt;Node27 -->
<g id="edge29_Node000008_Node000027" class="edge">
<title>Node8&#45;&gt;Node27</title>
<g id="a_edge29_Node000008_Node000027"><a xlink:title=" ">
<path fill="none" stroke="#63b8ff" d="M1741.86,-183.07C1901.71,-179.08 2323.21,-166.31 2460.5,-140 2467.14,-138.73 2474.18,-136.67 2480.56,-134.53"/>
<polygon fill="#63b8ff" stroke="#63b8ff" points="1741.62,-179.58 1731.71,-183.33 1741.79,-186.58 1741.62,-179.58"/>
</a>
</g>
</g>
<!-- Node28 -->
<g id="Node000028" class="node">
<title>Node28</title>
<g id="a_Node000028"><a xlink:href="spawn__players_8c.html" target="_top" xlink:title=" ">
<polygon fill="white" stroke="#666666" points="2668,-134.5 2553,-134.5 2553,-115.5 2668,-115.5 2668,-134.5"/>
<text text-anchor="middle" x="2610.5" y="-122.5" font-family="Helvetica,sans-Serif" font-size="10.00">src/spawn_players.c</text>
</a>
</g>
</g>
<!-- Node8&#45;&gt;Node28 -->
<g id="edge30_Node000008_Node000028" class="edge">
<title>Node8&#45;&gt;Node28</title>
<g id="a_edge30_Node000008_Node000028"><a xlink:title=" ">
<path fill="none" stroke="#63b8ff" d="M1742.25,-184.65C1885.22,-184.26 2245.95,-179.1 2544.5,-140 2554.6,-138.68 2565.46,-136.64 2575.4,-134.52"/>
<polygon fill="#63b8ff" stroke="#63b8ff" points="1741.92,-181.15 1731.92,-184.67 1741.93,-188.15 1741.92,-181.15"/>
</a>
</g>
</g>
<!-- Node29 -->
<g id="Node000029" class="node">
<title>Node29</title>
<g id="a_Node000029"><a xlink:href="staff__ghosts_8c.html" target="_top" xlink:title=" ">
<polygon fill="white" stroke="#666666" points="2787,-134.5 2686,-134.5 2686,-115.5 2787,-115.5 2787,-134.5"/>
<text text-anchor="middle" x="2736.5" y="-122.5" font-family="Helvetica,sans-Serif" font-size="10.00">src/staff_ghosts.c</text>
</a>
</g>
</g>
<!-- Node8&#45;&gt;Node29 -->
<g id="edge31_Node000008_Node000029" class="edge">
<title>Node8&#45;&gt;Node29</title>
<g id="a_edge31_Node000008_Node000029"><a xlink:title=" ">
<path fill="none" stroke="#63b8ff" d="M1741.74,-183.26C1930.63,-179.26 2495.45,-165.43 2677.5,-140 2686.68,-138.72 2696.51,-136.66 2705.48,-134.52"/>
<polygon fill="#63b8ff" stroke="#63b8ff" points="1741.63,-179.76 1731.7,-183.47 1741.77,-186.76 1741.63,-179.76"/>
</a>
</g>
</g>
<!-- Node30 -->
<g id="Node000030" class="node">
<title>Node30</title>
<g id="a_Node000030"><a xlink:href="update__objects_8c.html" target="_top" xlink:title=" ">
<polygon fill="white" stroke="#666666" points="2921.5,-134.5 2805.5,-134.5 2805.5,-115.5 2921.5,-115.5 2921.5,-134.5"/>
<text text-anchor="middle" x="2863.5" y="-122.5" font-family="Helvetica,sans-Serif" font-size="10.00">src/update_objects.c</text>
</a>
</g>
</g>
<!-- Node8&#45;&gt;Node30 -->
<g id="edge32_Node000008_Node000030" class="edge">
<title>Node8&#45;&gt;Node30</title>
<g id="a_edge32_Node000008_Node000030"><a xlink:title=" ">
<path fill="none" stroke="#63b8ff" d="M1742.05,-183.38C1945.94,-179.5 2590.02,-165.51 2796.5,-140 2806.88,-138.72 2818.04,-136.66 2828.22,-134.52"/>
<polygon fill="#63b8ff" stroke="#63b8ff" points="1741.75,-179.88 1731.82,-183.57 1741.88,-186.88 1741.75,-179.88"/>
</a>
</g>
</g>
</g>
</svg>

<g id="navigator" transform="translate(0 0)" fill="#404254">
  <rect fill="#f2f5e9" fill-opacity="0.5" stroke="#606060" stroke-width=".5" x="0" y="0" width="60" height="60"/>
  <use id="zoomplus" xlink:href="#zoomPlus" x="17" y="9" onmousedown="handleZoom(evt,'in')"/>
  <use id="zoomminus" xlink:href="#zoomMin" x="42" y="9" onmousedown="handleZoom(evt,'out')"/>
  <use id="reset" xlink:href="#resetDef" x="30" y="36" onmousedown="handleReset()"/>
   <use id="arrowup" xlink:href="#arrowUp" x="0" y="0" onmousedown="handlePan(0,-1)"/>
  <use id="arrowright" xlink:href="#arrowRight" x="0" y="0" onmousedown="handlePan(1,0)"/>
  <use id="arrowdown" xlink:href="#arrowDown" x="0" y="0" onmousedown="handlePan(0,1)"/>
  <use id="arrowleft" xlink:href="#arrowLeft" x="0" y="0" onmousedown="handlePan(-1,0)"/>
</g>
<svg viewBox="0 0 15 15" width="100%" height="30px" preserveAspectRatio="xMaxYMin meet">
 <g id="arrow_out" transform="scale(0.3 0.3)">
  <a xlink:href="texture__tkmk00_8h__dep__incl_org.svg" target="_base">
   <rect id="button" ry="5" rx="5" y="6" x="6" height="38" width="38"
        fill="#f2f5e9" fill-opacity="0.5" stroke="#606060" stroke-width="1.0"/>
   <path id="arrow"
     d="M 11.500037,31.436501 C 11.940474,20.09759 22.043105,11.32322 32.158766,21.979434 L 37.068811,17.246167 C 37.068811,17.246167 37.088388,32 37.088388,32 L 22.160133,31.978069 C 22.160133,31.978069 26.997745,27.140456 26.997745,27.140456 C 18.528582,18.264221 13.291696,25.230495 11.500037,31.436501 z"
     style="fill:#404040;"/>
  </a>
 </g>
</svg>

<style type='text/css'>
<![CDATA[
[data-mouse-over-selected='false'] { opacity: 0.7; }
[data-mouse-over-selected='true']  { opacity: 1.0; }
]]>
</style>
<script type="application/ecmascript"><![CDATA[
document.addEventListener('DOMContentLoaded', (event) => {
  highlightEdges();
  highlightAdjacentNodes();
});
]]></script>
</svg>
