<?xml version="1.0" encoding="UTF-8" standalone="no"?>
<!DOCTYPE svg PUBLIC "-//W3C//DTD SVG 1.1//EN"
 "http://www.w3.org/Graphics/SVG/1.1/DTD/svg11.dtd">
<!-- Generated by graphviz version 2.43.0 (0)
 -->
<!-- Title: src/textures.h Pages: 1 -->
<!--zoomable 258 -->

<svg id="main" version="1.1" xmlns="http://www.w3.org/2000/svg" xmlns:xlink="http://www.w3.org/1999/xlink" xml:space="preserve" onload="init(evt)">

<style type="text/css"><![CDATA[
.node, .edge {opacity: 0.7;}
.node.selected, .edge.selected {opacity: 1;}
.edge:hover path { stroke: red; }
.edge:hover polygon { stroke: red; fill: red; }
]]></style>

<defs>
  <circle id="rim" cx="0" cy="0" r="7"/>
  <circle id="rim2" cx="0" cy="0" r="3.5"/>
  <g id="zoomPlus">
    <use xlink:href="#rim" fill="#404040"><set attributeName="fill" to="#808080" begin="zoomplus.mouseover" end="zoomplus.mouseout"/></use>
    <path d="M-4,0h8M0,-4v8" fill="none" stroke="white" stroke-width="1.5" pointer-events="none"/>
  </g>
  <g id="zoomMin">
    <use xlink:href="#rim" fill="#404040"><set attributeName="fill" to="#808080" begin="zoomminus.mouseover" end="zoomminus.mouseout"/></use>
    <path d="M-4,0h8" fill="none" stroke="white" stroke-width="1.5" pointer-events="none"/>
  </g>
  <g id="arrowUp" transform="translate(30 24)">
    <use xlink:href="#rim"/>
    <path pointer-events="none" fill="none" stroke="white" stroke-width="1.5" d="M0,-3.0v7 M-2.5,-0.5L0,-3.0L2.5,-0.5"/>
  </g>
  <g id="arrowRight" transform="rotate(90) translate(36 -43)">
    <use xlink:href="#rim"/>
    <path pointer-events="none" fill="none" stroke="white" stroke-width="1.5" d="M0,-3.0v7 M-2.5,-0.5L0,-3.0L2.5,-0.5"/>
  </g>
  <g id="arrowDown" transform="rotate(180) translate(-30 -48)">
    <use xlink:href="#rim"/>
    <path pointer-events="none" fill="none" stroke="white" stroke-width="1.5" d="M0,-3.0v7 M-2.5,-0.5L0,-3.0L2.5,-0.5"/>
  </g>
  <g id="arrowLeft" transform="rotate(270) translate(-36 17)">
    <use xlink:href="#rim"/>
    <path pointer-events="none" fill="none" stroke="white" stroke-width="1.5" d="M0,-3.0v7 M-2.5,-0.5L0,-3.0L2.5,-0.5"/>
  </g>
  <g id="resetDef">
    <use xlink:href="#rim2" fill="#404040"><set attributeName="fill" to="#808080" begin="reset.mouseover" end="reset.mouseout"/></use>
  </g>
</defs>
<script type="application/ecmascript">
var viewWidth = 3218;
var viewHeight = 258;
var sectionId = 'dynsection-1';
</script>
<script type="application/ecmascript" xlink:href="svg.min.js"/>
<svg id="graph" class="graph">
<g id="viewport">
<title>src/textures.h</title>
<!-- Node1 -->
<g id="Node000001" class="node">
<title>Node1</title>
<g id="a_Node000001"><a xlink:title=" ">
<polygon fill="#999999" stroke="#666666" points="230.5,-250 147.5,-250 147.5,-231 230.5,-231 230.5,-250"/>
<text text-anchor="middle" x="189" y="-238" font-family="Helvetica,sans-Serif" font-size="10.00">src/textures.h</text>
</a>
</g>
</g>
<!-- Node2 -->
<g id="Node000002" class="node">
<title>Node2</title>
<g id="a_Node000002"><a xlink:href="textures_8c.html" target="_top" xlink:title="Texture data. start in ram 0x801978D0 look like link to menu_items.">
<polygon fill="white" stroke="#666666" points="141.5,-195 34.5,-195 34.5,-176 141.5,-176 141.5,-195"/>
<text text-anchor="middle" x="88" y="-183" font-family="Helvetica,sans-Serif" font-size="10.00">src/data/textures.c</text>
</a>
</g>
</g>
<!-- Node1&#45;&gt;Node2 -->
<g id="edge1_Node000001_Node000002" class="edge">
<title>Node1&#45;&gt;Node2</title>
<g id="a_edge1_Node000001_Node000002"><a xlink:title=" ">
<path fill="none" stroke="#63b8ff" d="M163.72,-226.23C145.2,-216.51 120.58,-203.6 104.52,-195.17"/>
<polygon fill="#63b8ff" stroke="#63b8ff" points="162.29,-229.44 172.77,-230.98 165.54,-223.24 162.29,-229.44"/>
</a>
</g>
</g>
<!-- Node3 -->
<g id="Node000003" class="node">
<title>Node3</title>
<g id="a_Node000003"><a xlink:href="all__variables_8h.html" target="_top" xlink:title=" ">
<polygon fill="white" stroke="#666666" points="138,-134.5 0,-134.5 0,-115.5 138,-115.5 138,-134.5"/>
<text text-anchor="middle" x="69" y="-122.5" font-family="Helvetica,sans-Serif" font-size="10.00">src/debug/all_variables.h</text>
</a>
</g>
</g>
<!-- Node1&#45;&gt;Node3 -->
<g id="edge2_Node000001_Node000003" class="edge">
<title>Node1&#45;&gt;Node3</title>
<g id="a_edge2_Node000001_Node000003"><a xlink:title=" ">
<path fill="none" stroke="#63b8ff" d="M180.84,-221.54C174.01,-207.9 163.25,-189.28 150,-176 131.79,-157.75 105.7,-143.18 88.09,-134.57"/>
<polygon fill="#63b8ff" stroke="#63b8ff" points="177.81,-223.31 185.28,-230.83 184.13,-220.3 177.81,-223.31"/>
</a>
</g>
</g>
<!-- Node6 -->
<g id="Node000006" class="node">
<title>Node6</title>
<g id="a_Node000006"><a xlink:href="menu__items_8c.html" target="_top" xlink:title=" ">
<polygon fill="white" stroke="#666666" points="259.5,-134.5 156.5,-134.5 156.5,-115.5 259.5,-115.5 259.5,-134.5"/>
<text text-anchor="middle" x="208" y="-122.5" font-family="Helvetica,sans-Serif" font-size="10.00">src/menu_items.c</text>
</a>
</g>
</g>
<!-- Node1&#45;&gt;Node6 -->
<g id="edge5_Node000001_Node000006" class="edge">
<title>Node1&#45;&gt;Node6</title>
<g id="a_edge5_Node000001_Node000006"><a xlink:title=" ">
<path fill="none" stroke="#63b8ff" d="M192.1,-220.99C196.26,-196.13 203.49,-152.96 206.56,-134.63"/>
<polygon fill="#63b8ff" stroke="#63b8ff" points="188.63,-220.53 190.43,-230.97 195.53,-221.68 188.63,-220.53"/>
</a>
</g>
</g>
<!-- Node7 -->
<g id="Node000007" class="node">
<title>Node7</title>
<g id="a_Node000007"><a xlink:href="menu__items_8h.html" target="_top" xlink:title=" ">
<polygon fill="white" stroke="#666666" points="1677,-195 1573,-195 1573,-176 1677,-176 1677,-195"/>
<text text-anchor="middle" x="1625" y="-183" font-family="Helvetica,sans-Serif" font-size="10.00">src/menu_items.h</text>
</a>
</g>
</g>
<!-- Node1&#45;&gt;Node7 -->
<g id="edge6_Node000001_Node000007" class="edge">
<title>Node1&#45;&gt;Node7</title>
<g id="a_edge6_Node000001_Node000007"><a xlink:title=" ">
<path fill="none" stroke="#63b8ff" d="M240.99,-237.58C465.22,-229.31 1348.41,-196.71 1572.89,-188.42"/>
<polygon fill="#63b8ff" stroke="#63b8ff" points="240.68,-234.09 230.81,-237.96 240.94,-241.09 240.68,-234.09"/>
</a>
</g>
</g>
<!-- Node4 -->
<g id="Node000004" class="node">
<title>Node4</title>
<g id="a_Node000004"><a xlink:href="debug_8inc_8c.html" target="_top" xlink:title=" ">
<polygon fill="white" stroke="#666666" points="130,-74 8,-74 8,-55 130,-55 130,-74"/>
<text text-anchor="middle" x="69" y="-62" font-family="Helvetica,sans-Serif" font-size="10.00">src/debug/debug.inc.c</text>
</a>
</g>
</g>
<!-- Node3&#45;&gt;Node4 -->
<g id="edge3_Node000003_Node000004" class="edge">
<title>Node3&#45;&gt;Node4</title>
<g id="a_edge3_Node000003_Node000004"><a xlink:title=" ">
<path fill="none" stroke="#63b8ff" d="M69,-105.16C69,-94.74 69,-82.3 69,-74.17"/>
<polygon fill="#63b8ff" stroke="#63b8ff" points="65.5,-105.37 69,-115.37 72.5,-105.37 65.5,-105.37"/>
</a>
</g>
</g>
<!-- Node5 -->
<g id="Node000005" class="node">
<title>Node5</title>
<g id="a_Node000005"><a xlink:href="debug_8c.html" target="_top" xlink:title=" ">
<polygon fill="white" stroke="#666666" points="121.5,-19 16.5,-19 16.5,0 121.5,0 121.5,-19"/>
<text text-anchor="middle" x="69" y="-7" font-family="Helvetica,sans-Serif" font-size="10.00">src/debug/debug.c</text>
</a>
</g>
</g>
<!-- Node4&#45;&gt;Node5 -->
<g id="edge4_Node000004_Node000005" class="edge">
<title>Node4&#45;&gt;Node5</title>
<g id="a_edge4_Node000004_Node000005"><a xlink:title=" ">
<path fill="none" stroke="#63b8ff" d="M69,-44.66C69,-35.93 69,-25.99 69,-19.09"/>
<polygon fill="#63b8ff" stroke="#63b8ff" points="65.5,-44.75 69,-54.75 72.5,-44.75 65.5,-44.75"/>
</a>
</g>
</g>
<!-- Node7&#45;&gt;Node3 -->
<g id="edge12_Node000007_Node000003" class="edge">
<title>Node7&#45;&gt;Node3</title>
<g id="a_edge12_Node000007_Node000003"><a xlink:title=" ">
<path fill="none" stroke="#63b8ff" d="M1562.9,-183.85C1319.25,-181.12 428.13,-169.3 147,-140 134.96,-138.74 121.98,-136.7 110.13,-134.55"/>
<polygon fill="#63b8ff" stroke="#63b8ff" points="1562.96,-187.35 1573,-183.96 1563.04,-180.35 1562.96,-187.35"/>
</a>
</g>
</g>
<!-- Node7&#45;&gt;Node6 -->
<g id="edge21_Node000007_Node000006" class="edge">
<title>Node7&#45;&gt;Node6</title>
<g id="a_edge21_Node000007_Node000006"><a xlink:title=" ">
<path fill="none" stroke="#63b8ff" d="M1562.66,-184.08C1331.48,-182.27 523.33,-173.64 268,-140 258.56,-138.76 248.43,-136.69 239.24,-134.51"/>
<polygon fill="#63b8ff" stroke="#63b8ff" points="1562.88,-187.58 1572.91,-184.16 1562.94,-180.58 1562.88,-187.58"/>
</a>
</g>
</g>
<!-- Node8 -->
<g id="Node000008" class="node">
<title>Node8</title>
<g id="a_Node000008"><a xlink:href="external_8c.html" target="_top" xlink:title=" ">
<polygon fill="white" stroke="#666666" points="2564.5,-134.5 2451.5,-134.5 2451.5,-115.5 2564.5,-115.5 2564.5,-134.5"/>
<text text-anchor="middle" x="2508" y="-122.5" font-family="Helvetica,sans-Serif" font-size="10.00">src/audio/external.c</text>
</a>
</g>
</g>
<!-- Node7&#45;&gt;Node8 -->
<g id="edge7_Node000007_Node000008" class="edge">
<title>Node7&#45;&gt;Node8</title>
<g id="a_edge7_Node000007_Node000008"><a xlink:title=" ">
<path fill="none" stroke="#63b8ff" d="M1687.67,-184.38C1824.96,-183.4 2162.36,-177.05 2442,-140 2451.99,-138.68 2462.71,-136.66 2472.55,-134.57"/>
<polygon fill="#63b8ff" stroke="#63b8ff" points="1687.33,-180.88 1677.35,-184.45 1687.37,-187.88 1687.33,-180.88"/>
</a>
</g>
</g>
<!-- Node9 -->
<g id="Node000009" class="node">
<title>Node9</title>
<g id="a_Node000009"><a xlink:href="code__800029B0_8c.html" target="_top" xlink:title=" ">
<polygon fill="white" stroke="#666666" points="2701.5,-134.5 2582.5,-134.5 2582.5,-115.5 2701.5,-115.5 2701.5,-134.5"/>
<text text-anchor="middle" x="2642" y="-122.5" font-family="Helvetica,sans-Serif" font-size="10.00">src/code_800029B0.c</text>
</a>
</g>
</g>
<!-- Node7&#45;&gt;Node9 -->
<g id="edge8_Node000007_Node000009" class="edge">
<title>Node7&#45;&gt;Node9</title>
<g id="a_edge8_Node000007_Node000009"><a xlink:title=" ">
<path fill="none" stroke="#63b8ff" d="M1687.28,-184.93C1839.38,-185.26 2241.65,-181.75 2574,-140 2584.4,-138.69 2595.59,-136.66 2605.83,-134.54"/>
<polygon fill="#63b8ff" stroke="#63b8ff" points="1687.2,-181.43 1677.19,-184.9 1687.18,-188.43 1687.2,-181.43"/>
</a>
</g>
</g>
<!-- Node10 -->
<g id="Node000010" class="node">
<title>Node10</title>
<g id="a_Node000010"><a xlink:href="code__80005FD0_8c.html" target="_top" xlink:title=" ">
<polygon fill="white" stroke="#666666" points="2840,-134.5 2720,-134.5 2720,-115.5 2840,-115.5 2840,-134.5"/>
<text text-anchor="middle" x="2780" y="-122.5" font-family="Helvetica,sans-Serif" font-size="10.00">src/code_80005FD0.c</text>
</a>
</g>
</g>
<!-- Node7&#45;&gt;Node10 -->
<g id="edge9_Node000007_Node000010" class="edge">
<title>Node7&#45;&gt;Node10</title>
<g id="a_edge9_Node000007_Node000010"><a xlink:title=" ">
<path fill="none" stroke="#63b8ff" d="M1687.18,-183.26C1886.89,-179.05 2510.65,-164.27 2711,-140 2721.68,-138.71 2733.17,-136.65 2743.65,-134.5"/>
<polygon fill="#63b8ff" stroke="#63b8ff" points="1687.08,-179.76 1677.15,-183.46 1687.22,-186.75 1687.08,-179.76"/>
</a>
</g>
</g>
<!-- Node11 -->
<g id="Node000011" class="node">
<title>Node11</title>
<g id="a_Node000011"><a xlink:href="code__8006E9C0_8c.html" target="_top" xlink:title=" ">
<polygon fill="white" stroke="#666666" points="2977.5,-134.5 2858.5,-134.5 2858.5,-115.5 2977.5,-115.5 2977.5,-134.5"/>
<text text-anchor="middle" x="2918" y="-122.5" font-family="Helvetica,sans-Serif" font-size="10.00">src/code_8006E9C0.c</text>
</a>
</g>
</g>
<!-- Node7&#45;&gt;Node11 -->
<g id="edge10_Node000007_Node000011" class="edge">
<title>Node7&#45;&gt;Node11</title>
<g id="a_edge10_Node000007_Node000011"><a xlink:title=" ">
<path fill="none" stroke="#63b8ff" d="M1687.24,-183.59C1903.34,-180.2 2620.47,-167.15 2849,-140 2859.68,-138.73 2871.17,-136.68 2881.65,-134.53"/>
<polygon fill="#63b8ff" stroke="#63b8ff" points="1686.97,-180.09 1677.03,-183.74 1687.08,-187.09 1686.97,-180.09"/>
</a>
</g>
</g>
<!-- Node12 -->
<g id="Node000012" class="node">
<title>Node12</title>
<g id="a_Node000012"><a xlink:href="code__800AF9B0_8c.html" target="_top" xlink:title=" ">
<polygon fill="white" stroke="#666666" points="3116,-134.5 2996,-134.5 2996,-115.5 3116,-115.5 3116,-134.5"/>
<text text-anchor="middle" x="3056" y="-122.5" font-family="Helvetica,sans-Serif" font-size="10.00">src/code_800AF9B0.c</text>
</a>
</g>
</g>
<!-- Node7&#45;&gt;Node12 -->
<g id="edge11_Node000007_Node000012" class="edge">
<title>Node7&#45;&gt;Node12</title>
<g id="a_edge11_Node000007_Node000012"><a xlink:title=" ">
<path fill="none" stroke="#63b8ff" d="M1687.54,-183.85C1919.46,-181.22 2730.26,-170.03 2987,-140 2997.68,-138.75 3009.18,-136.71 3019.66,-134.56"/>
<polygon fill="#63b8ff" stroke="#63b8ff" points="1687.22,-180.35 1677.26,-183.96 1687.29,-187.35 1687.22,-180.35"/>
</a>
</g>
</g>
<!-- Node13 -->
<g id="Node000013" class="node">
<title>Node13</title>
<g id="a_Node000013"><a xlink:href="effects_8c.html" target="_top" xlink:title=" ">
<polygon fill="white" stroke="#666666" points="3209.5,-134.5 3134.5,-134.5 3134.5,-115.5 3209.5,-115.5 3209.5,-134.5"/>
<text text-anchor="middle" x="3172" y="-122.5" font-family="Helvetica,sans-Serif" font-size="10.00">src/effects.c</text>
</a>
</g>
</g>
<!-- Node7&#45;&gt;Node13 -->
<g id="edge13_Node000007_Node000013" class="edge">
<title>Node7&#45;&gt;Node13</title>
<g id="a_edge13_Node000007_Node000013"><a xlink:title=" ">
<path fill="none" stroke="#63b8ff" d="M1687.31,-184.8C1933.86,-185.67 2841.47,-185.63 3125,-140 3132.4,-138.81 3140.26,-136.78 3147.4,-134.64"/>
<polygon fill="#63b8ff" stroke="#63b8ff" points="1687.12,-181.3 1677.1,-184.77 1687.09,-188.3 1687.12,-181.3"/>
</a>
</g>
</g>
<!-- Node14 -->
<g id="Node000014" class="node">
<title>Node14</title>
<g id="a_Node000014"><a xlink:href="ceremony__and__credits_8c.html" target="_top" xlink:title=" ">
<polygon fill="white" stroke="#666666" points="396.5,-140 277.5,-140 277.5,-110 396.5,-110 396.5,-140"/>
<text text-anchor="start" x="285.5" y="-128" font-family="Helvetica,sans-Serif" font-size="10.00">src/ending/ceremony</text>
<text text-anchor="middle" x="337" y="-117" font-family="Helvetica,sans-Serif" font-size="10.00">_and_credits.c</text>
</a>
</g>
</g>
<!-- Node7&#45;&gt;Node14 -->
<g id="edge14_Node000007_Node000014" class="edge">
<title>Node7&#45;&gt;Node14</title>
<g id="a_edge14_Node000007_Node000014"><a xlink:title=" ">
<path fill="none" stroke="#63b8ff" d="M1562.65,-183.57C1346.99,-180.16 633.46,-167.04 406,-140 402.97,-139.64 399.87,-139.22 396.74,-138.74"/>
<polygon fill="#63b8ff" stroke="#63b8ff" points="1562.79,-187.08 1572.84,-183.73 1562.9,-180.08 1562.79,-187.08"/>
</a>
</g>
</g>
<!-- Node15 -->
<g id="Node000015" class="node">
<title>Node15</title>
<g id="a_Node000015"><a xlink:href="code__80280000_8c.html" target="_top" xlink:title=" ">
<polygon fill="white" stroke="#666666" points="569.5,-134.5 414.5,-134.5 414.5,-115.5 569.5,-115.5 569.5,-134.5"/>
<text text-anchor="middle" x="492" y="-122.5" font-family="Helvetica,sans-Serif" font-size="10.00">src/ending/code_80280000.c</text>
</a>
</g>
</g>
<!-- Node7&#45;&gt;Node15 -->
<g id="edge15_Node000007_Node000015" class="edge">
<title>Node7&#45;&gt;Node15</title>
<g id="a_edge15_Node000007_Node000015"><a xlink:title=" ">
<path fill="none" stroke="#63b8ff" d="M1562.59,-184.39C1400.12,-183.54 950.82,-177.69 579,-140 565.91,-138.67 551.8,-136.66 538.83,-134.57"/>
<polygon fill="#63b8ff" stroke="#63b8ff" points="1562.86,-187.89 1572.88,-184.44 1562.89,-180.89 1562.86,-187.89"/>
</a>
</g>
</g>
<!-- Node16 -->
<g id="Node000016" class="node">
<title>Node16</title>
<g id="a_Node000016"><a xlink:href="code__80281780_8c.html" target="_top" xlink:title=" ">
<polygon fill="white" stroke="#666666" points="742.5,-134.5 587.5,-134.5 587.5,-115.5 742.5,-115.5 742.5,-134.5"/>
<text text-anchor="middle" x="665" y="-122.5" font-family="Helvetica,sans-Serif" font-size="10.00">src/ending/code_80281780.c</text>
</a>
</g>
</g>
<!-- Node7&#45;&gt;Node16 -->
<g id="edge16_Node000007_Node000016" class="edge">
<title>Node7&#45;&gt;Node16</title>
<g id="a_edge16_Node000007_Node000016"><a xlink:title=" ">
<path fill="none" stroke="#63b8ff" d="M1562.33,-183.64C1418.65,-181.15 1054.57,-171.96 752,-140 739.07,-138.63 725.13,-136.63 712.29,-134.57"/>
<polygon fill="#63b8ff" stroke="#63b8ff" points="1562.64,-187.14 1572.69,-183.81 1562.75,-180.15 1562.64,-187.14"/>
</a>
</g>
</g>
<!-- Node17 -->
<g id="Node000017" class="node">
<title>Node17</title>
<g id="a_Node000017"><a xlink:href="code__80281C40_8c.html" target="_top" xlink:title=" ">
<polygon fill="white" stroke="#666666" points="915.5,-134.5 760.5,-134.5 760.5,-115.5 915.5,-115.5 915.5,-134.5"/>
<text text-anchor="middle" x="838" y="-122.5" font-family="Helvetica,sans-Serif" font-size="10.00">src/ending/code_80281C40.c</text>
</a>
</g>
</g>
<!-- Node7&#45;&gt;Node17 -->
<g id="edge17_Node000007_Node000017" class="edge">
<title>Node7&#45;&gt;Node17</title>
<g id="a_edge17_Node000007_Node000017"><a xlink:title=" ">
<path fill="none" stroke="#63b8ff" d="M1562.28,-182.53C1439.58,-178.24 1159.3,-166.24 925,-140 912.23,-138.57 898.47,-136.57 885.75,-134.53"/>
<polygon fill="#63b8ff" stroke="#63b8ff" points="1562.49,-186.04 1572.6,-182.89 1562.73,-179.05 1562.49,-186.04"/>
</a>
</g>
</g>
<!-- Node18 -->
<g id="Node000018" class="node">
<title>Node18</title>
<g id="a_Node000018"><a xlink:href="HM__Intro_8cpp.html" target="_top" xlink:title=" ">
<polygon fill="white" stroke="#666666" points="1068,-134.5 934,-134.5 934,-115.5 1068,-115.5 1068,-134.5"/>
<text text-anchor="middle" x="1001" y="-122.5" font-family="Helvetica,sans-Serif" font-size="10.00">src/engine/HM_Intro.cpp</text>
</a>
</g>
</g>
<!-- Node7&#45;&gt;Node18 -->
<g id="edge18_Node000007_Node000018" class="edge">
<title>Node7&#45;&gt;Node18</title>
<g id="a_edge18_Node000007_Node000018"><a xlink:title=" ">
<path fill="none" stroke="#63b8ff" d="M1562.68,-181.44C1460.92,-175.98 1252.9,-162.96 1078,-140 1066.82,-138.53 1054.79,-136.54 1043.65,-134.53"/>
<polygon fill="#63b8ff" stroke="#63b8ff" points="1562.61,-184.94 1572.78,-181.97 1562.98,-177.95 1562.61,-184.94"/>
</a>
</g>
</g>
<!-- Node19 -->
<g id="Node000019" class="node">
<title>Node19</title>
<g id="a_Node000019"><a xlink:href="Trophy_8cpp.html" target="_top" xlink:title=" ">
<polygon fill="white" stroke="#666666" points="1191.5,-140 1086.5,-140 1086.5,-110 1191.5,-110 1191.5,-140"/>
<text text-anchor="start" x="1094.5" y="-128" font-family="Helvetica,sans-Serif" font-size="10.00">src/engine/objects</text>
<text text-anchor="middle" x="1139" y="-117" font-family="Helvetica,sans-Serif" font-size="10.00">/Trophy.cpp</text>
</a>
</g>
</g>
<!-- Node7&#45;&gt;Node19 -->
<g id="edge19_Node000007_Node000019" class="edge">
<title>Node7&#45;&gt;Node19</title>
<g id="a_edge19_Node000007_Node000019"><a xlink:title=" ">
<path fill="none" stroke="#63b8ff" d="M1562.84,-180.27C1479.93,-174.12 1328.77,-161.06 1201,-140 1197.95,-139.5 1194.83,-138.94 1191.68,-138.34"/>
<polygon fill="#63b8ff" stroke="#63b8ff" points="1562.62,-183.77 1572.85,-181.01 1563.13,-176.79 1562.62,-183.77"/>
</a>
</g>
</g>
<!-- Node20 -->
<g id="Node000020" class="node">
<title>Node20</title>
<g id="a_Node000020"><a xlink:href="main_8c.html" target="_top" xlink:title=" ">
<polygon fill="white" stroke="#666666" points="1276.5,-134.5 1209.5,-134.5 1209.5,-115.5 1276.5,-115.5 1276.5,-134.5"/>
<text text-anchor="middle" x="1243" y="-122.5" font-family="Helvetica,sans-Serif" font-size="10.00">src/main.c</text>
</a>
</g>
</g>
<!-- Node7&#45;&gt;Node20 -->
<g id="edge20_Node000007_Node000020" class="edge">
<title>Node7&#45;&gt;Node20</title>
<g id="a_edge20_Node000007_Node000020"><a xlink:title=" ">
<path fill="none" stroke="#63b8ff" d="M1562.6,-179.78C1494.13,-173.79 1381.27,-161.57 1286,-140 1279.72,-138.58 1273.05,-136.63 1266.89,-134.64"/>
<polygon fill="#63b8ff" stroke="#63b8ff" points="1562.52,-183.28 1572.79,-180.65 1563.12,-176.31 1562.52,-183.28"/>
</a>
</g>
</g>
<!-- Node21 -->
<g id="Node000021" class="node">
<title>Node21</title>
<g id="a_Node000021"><a xlink:href="menus_8c.html" target="_top" xlink:title=" ">
<polygon fill="white" stroke="#666666" points="1369.5,-134.5 1294.5,-134.5 1294.5,-115.5 1369.5,-115.5 1369.5,-134.5"/>
<text text-anchor="middle" x="1332" y="-122.5" font-family="Helvetica,sans-Serif" font-size="10.00">src/menus.c</text>
</a>
</g>
</g>
<!-- Node7&#45;&gt;Node21 -->
<g id="edge22_Node000007_Node000021" class="edge">
<title>Node7&#45;&gt;Node21</title>
<g id="a_edge22_Node000007_Node000021"><a xlink:title=" ">
<path fill="none" stroke="#63b8ff" d="M1562.82,-175.2C1512.84,-167.26 1441.01,-154.8 1379,-140 1372.37,-138.42 1365.3,-136.46 1358.7,-134.51"/>
<polygon fill="#63b8ff" stroke="#63b8ff" points="1562.4,-178.68 1572.82,-176.78 1563.49,-171.76 1562.4,-178.68"/>
</a>
</g>
</g>
<!-- Node22 -->
<g id="Node000022" class="node">
<title>Node22</title>
<g id="a_Node000022"><a xlink:href="actors__extended_8c.html" target="_top" xlink:title=" ">
<polygon fill="white" stroke="#666666" points="1544,-134.5 1388,-134.5 1388,-115.5 1544,-115.5 1544,-134.5"/>
<text text-anchor="middle" x="1466" y="-122.5" font-family="Helvetica,sans-Serif" font-size="10.00">src/racing/actors_extended.c</text>
</a>
</g>
</g>
<!-- Node7&#45;&gt;Node22 -->
<g id="edge23_Node000007_Node000022" class="edge">
<title>Node7&#45;&gt;Node22</title>
<g id="a_edge23_Node000007_Node000022"><a xlink:title=" ">
<path fill="none" stroke="#63b8ff" d="M1592.45,-172.52C1561.71,-161.21 1516.36,-144.53 1489.15,-134.52"/>
<polygon fill="#63b8ff" stroke="#63b8ff" points="1591.29,-175.83 1601.88,-175.99 1593.7,-169.26 1591.29,-175.83"/>
</a>
</g>
</g>
<!-- Node23 -->
<g id="Node000023" class="node">
<title>Node23</title>
<g id="a_Node000023"><a xlink:href="race__logic_8c.html" target="_top" xlink:title=" ">
<polygon fill="white" stroke="#666666" points="1687.5,-134.5 1562.5,-134.5 1562.5,-115.5 1687.5,-115.5 1687.5,-134.5"/>
<text text-anchor="middle" x="1625" y="-122.5" font-family="Helvetica,sans-Serif" font-size="10.00">src/racing/race_logic.c</text>
</a>
</g>
</g>
<!-- Node7&#45;&gt;Node23 -->
<g id="edge24_Node000007_Node000023" class="edge">
<title>Node7&#45;&gt;Node23</title>
<g id="a_edge24_Node000007_Node000023"><a xlink:title=" ">
<path fill="none" stroke="#63b8ff" d="M1625,-165.66C1625,-155.24 1625,-142.8 1625,-134.67"/>
<polygon fill="#63b8ff" stroke="#63b8ff" points="1621.5,-165.87 1625,-175.87 1628.5,-165.87 1621.5,-165.87"/>
</a>
</g>
</g>
<!-- Node24 -->
<g id="Node000024" class="node">
<title>Node24</title>
<g id="a_Node000024"><a xlink:href="skybox__and__splitscreen_8c.html" target="_top" xlink:title=" ">
<polygon fill="white" stroke="#666666" points="1830.5,-140 1705.5,-140 1705.5,-110 1830.5,-110 1830.5,-140"/>
<text text-anchor="start" x="1713.5" y="-128" font-family="Helvetica,sans-Serif" font-size="10.00">src/racing/skybox_and</text>
<text text-anchor="middle" x="1768" y="-117" font-family="Helvetica,sans-Serif" font-size="10.00">_splitscreen.c</text>
</a>
</g>
</g>
<!-- Node7&#45;&gt;Node24 -->
<g id="edge25_Node000007_Node000024" class="edge">
<title>Node7&#45;&gt;Node24</title>
<g id="a_edge25_Node000007_Node000024"><a xlink:title=" ">
<path fill="none" stroke="#63b8ff" d="M1655.05,-172.21C1678,-162.82 1709.66,-149.87 1733.62,-140.06"/>
<polygon fill="#63b8ff" stroke="#63b8ff" points="1653.72,-168.97 1645.79,-175.99 1656.37,-175.45 1653.72,-168.97"/>
</a>
</g>
</g>
<!-- Node25 -->
<g id="Node000025" class="node">
<title>Node25</title>
<g id="a_Node000025"><a xlink:href="render__objects_8c.html" target="_top" xlink:title=" ">
<polygon fill="white" stroke="#666666" points="1963,-134.5 1849,-134.5 1849,-115.5 1963,-115.5 1963,-134.5"/>
<text text-anchor="middle" x="1906" y="-122.5" font-family="Helvetica,sans-Serif" font-size="10.00">src/render_objects.c</text>
</a>
</g>
</g>
<!-- Node7&#45;&gt;Node25 -->
<g id="edge26_Node000007_Node000025" class="edge">
<title>Node7&#45;&gt;Node25</title>
<g id="a_edge26_Node000007_Node000025"><a xlink:title=" ">
<path fill="none" stroke="#63b8ff" d="M1676.7,-173.87C1720.26,-164.9 1784.22,-151.69 1840,-140 1848.37,-138.25 1857.33,-136.35 1865.87,-134.55"/>
<polygon fill="#63b8ff" stroke="#63b8ff" points="1675.72,-170.5 1666.63,-175.95 1677.13,-177.36 1675.72,-170.5"/>
</a>
</g>
</g>
<!-- Node26 -->
<g id="Node000026" class="node">
<title>Node26</title>
<g id="a_Node000026"><a xlink:href="save_8c.html" target="_top" xlink:title=" ">
<polygon fill="white" stroke="#666666" points="2046.5,-134.5 1981.5,-134.5 1981.5,-115.5 2046.5,-115.5 2046.5,-134.5"/>
<text text-anchor="middle" x="2014" y="-122.5" font-family="Helvetica,sans-Serif" font-size="10.00">src/save.c</text>
</a>
</g>
</g>
<!-- Node7&#45;&gt;Node26 -->
<g id="edge27_Node000007_Node000026" class="edge">
<title>Node7&#45;&gt;Node26</title>
<g id="a_edge27_Node000007_Node000026"><a xlink:title=" ">
<path fill="none" stroke="#63b8ff" d="M1687.26,-180.18C1757.21,-174.48 1873.8,-162.44 1972,-140 1978.29,-138.56 1984.98,-136.56 1991.12,-134.52"/>
<polygon fill="#63b8ff" stroke="#63b8ff" points="1686.98,-176.69 1677.29,-180.97 1687.53,-183.67 1686.98,-176.69"/>
</a>
</g>
</g>
<!-- Node27 -->
<g id="Node000027" class="node">
<title>Node27</title>
<g id="a_Node000027"><a xlink:href="spawn__players_8c.html" target="_top" xlink:title=" ">
<polygon fill="white" stroke="#666666" points="2179.5,-134.5 2064.5,-134.5 2064.5,-115.5 2179.5,-115.5 2179.5,-134.5"/>
<text text-anchor="middle" x="2122" y="-122.5" font-family="Helvetica,sans-Serif" font-size="10.00">src/spawn_players.c</text>
</a>
</g>
</g>
<!-- Node7&#45;&gt;Node27 -->
<g id="edge28_Node000007_Node000027" class="edge">
<title>Node7&#45;&gt;Node27</title>
<g id="a_edge28_Node000007_Node000027"><a xlink:title=" ">
<path fill="none" stroke="#63b8ff" d="M1687.46,-180.14C1771.54,-173.8 1925.63,-160.5 2056,-140 2065.49,-138.51 2075.67,-136.54 2085.13,-134.54"/>
<polygon fill="#63b8ff" stroke="#63b8ff" points="1687.02,-176.66 1677.31,-180.9 1687.54,-183.65 1687.02,-176.66"/>
</a>
</g>
</g>
<!-- Node28 -->
<g id="Node000028" class="node">
<title>Node28</title>
<g id="a_Node000028"><a xlink:href="staff__ghosts_8c.html" target="_top" xlink:title=" ">
<polygon fill="white" stroke="#666666" points="2298.5,-134.5 2197.5,-134.5 2197.5,-115.5 2298.5,-115.5 2298.5,-134.5"/>
<text text-anchor="middle" x="2248" y="-122.5" font-family="Helvetica,sans-Serif" font-size="10.00">src/staff_ghosts.c</text>
</a>
</g>
</g>
<!-- Node7&#45;&gt;Node28 -->
<g id="edge29_Node000007_Node000028" class="edge">
<title>Node7&#45;&gt;Node28</title>
<g id="a_edge29_Node000007_Node000028"><a xlink:title=" ">
<path fill="none" stroke="#63b8ff" d="M1687.06,-182.73C1791.32,-179.06 2008,-168.44 2189,-140 2197.84,-138.61 2207.31,-136.6 2216.03,-134.54"/>
<polygon fill="#63b8ff" stroke="#63b8ff" points="1686.9,-179.23 1677.02,-183.07 1687.14,-186.23 1686.9,-179.23"/>
</a>
</g>
</g>
<!-- Node29 -->
<g id="Node000029" class="node">
<title>Node29</title>
<g id="a_Node000029"><a xlink:href="update__objects_8c.html" target="_top" xlink:title=" ">
<polygon fill="white" stroke="#666666" points="2433,-134.5 2317,-134.5 2317,-115.5 2433,-115.5 2433,-134.5"/>
<text text-anchor="middle" x="2375" y="-122.5" font-family="Helvetica,sans-Serif" font-size="10.00">src/update_objects.c</text>
</a>
</g>
</g>
<!-- Node7&#45;&gt;Node29 -->
<g id="edge30_Node000007_Node000029" class="edge">
<title>Node7&#45;&gt;Node29</title>
<g id="a_edge30_Node000007_Node000029"><a xlink:title=" ">
<path fill="none" stroke="#63b8ff" d="M1687.22,-183.38C1807.62,-180.56 2080.62,-171.01 2308,-140 2318.01,-138.64 2328.76,-136.63 2338.65,-134.57"/>
<polygon fill="#63b8ff" stroke="#63b8ff" points="1687.01,-179.88 1677.09,-183.61 1687.16,-186.88 1687.01,-179.88"/>
</a>
</g>
</g>
</g>
</svg>

<g id="navigator" transform="translate(0 0)" fill="#404254">
  <rect fill="#f2f5e9" fill-opacity="0.5" stroke="#606060" stroke-width=".5" x="0" y="0" width="60" height="60"/>
  <use id="zoomplus" xlink:href="#zoomPlus" x="17" y="9" onmousedown="handleZoom(evt,'in')"/>
  <use id="zoomminus" xlink:href="#zoomMin" x="42" y="9" onmousedown="handleZoom(evt,'out')"/>
  <use id="reset" xlink:href="#resetDef" x="30" y="36" onmousedown="handleReset()"/>
   <use id="arrowup" xlink:href="#arrowUp" x="0" y="0" onmousedown="handlePan(0,-1)"/>
  <use id="arrowright" xlink:href="#arrowRight" x="0" y="0" onmousedown="handlePan(1,0)"/>
  <use id="arrowdown" xlink:href="#arrowDown" x="0" y="0" onmousedown="handlePan(0,1)"/>
  <use id="arrowleft" xlink:href="#arrowLeft" x="0" y="0" onmousedown="handlePan(-1,0)"/>
</g>
<svg viewBox="0 0 15 15" width="100%" height="30px" preserveAspectRatio="xMaxYMin meet">
 <g id="arrow_out" transform="scale(0.3 0.3)">
  <a xlink:href="textures_8h__dep__incl_org.svg" target="_base">
   <rect id="button" ry="5" rx="5" y="6" x="6" height="38" width="38"
        fill="#f2f5e9" fill-opacity="0.5" stroke="#606060" stroke-width="1.0"/>
   <path id="arrow"
     d="M 11.500037,31.436501 C 11.940474,20.09759 22.043105,11.32322 32.158766,21.979434 L 37.068811,17.246167 C 37.068811,17.246167 37.088388,32 37.088388,32 L 22.160133,31.978069 C 22.160133,31.978069 26.997745,27.140456 26.997745,27.140456 C 18.528582,18.264221 13.291696,25.230495 11.500037,31.436501 z"
     style="fill:#404040;"/>
  </a>
 </g>
</svg>

<style type='text/css'>
<![CDATA[
[data-mouse-over-selected='false'] { opacity: 0.7; }
[data-mouse-over-selected='true']  { opacity: 1.0; }
]]>
</style>
<script type="application/ecmascript"><![CDATA[
document.addEventListener('DOMContentLoaded', (event) => {
  highlightEdges();
  highlightAdjacentNodes();
});
]]></script>
</svg>
