<?xml version="1.0" encoding="UTF-8" standalone="no"?>
<!DOCTYPE svg PUBLIC "-//W3C//DTD SVG 1.1//EN"
 "http://www.w3.org/Graphics/SVG/1.1/DTD/svg11.dtd">
<!-- Generated by graphviz version 2.43.0 (0)
 -->
<!-- Title: src/engine/TrackBrowser.h Pages: 1 -->
<!--zoomable 423 -->

<svg id="main" version="1.1" xmlns="http://www.w3.org/2000/svg" xmlns:xlink="http://www.w3.org/1999/xlink" xml:space="preserve" onload="init(evt)">

<style type="text/css"><![CDATA[
.node, .edge {opacity: 0.7;}
.node.selected, .edge.selected {opacity: 1;}
.edge:hover path { stroke: red; }
.edge:hover polygon { stroke: red; fill: red; }
]]></style>

<defs>
  <circle id="rim" cx="0" cy="0" r="7"/>
  <circle id="rim2" cx="0" cy="0" r="3.5"/>
  <g id="zoomPlus">
    <use xlink:href="#rim" fill="#404040"><set attributeName="fill" to="#808080" begin="zoomplus.mouseover" end="zoomplus.mouseout"/></use>
    <path d="M-4,0h8M0,-4v8" fill="none" stroke="white" stroke-width="1.5" pointer-events="none"/>
  </g>
  <g id="zoomMin">
    <use xlink:href="#rim" fill="#404040"><set attributeName="fill" to="#808080" begin="zoomminus.mouseover" end="zoomminus.mouseout"/></use>
    <path d="M-4,0h8" fill="none" stroke="white" stroke-width="1.5" pointer-events="none"/>
  </g>
  <g id="arrowUp" transform="translate(30 24)">
    <use xlink:href="#rim"/>
    <path pointer-events="none" fill="none" stroke="white" stroke-width="1.5" d="M0,-3.0v7 M-2.5,-0.5L0,-3.0L2.5,-0.5"/>
  </g>
  <g id="arrowRight" transform="rotate(90) translate(36 -43)">
    <use xlink:href="#rim"/>
    <path pointer-events="none" fill="none" stroke="white" stroke-width="1.5" d="M0,-3.0v7 M-2.5,-0.5L0,-3.0L2.5,-0.5"/>
  </g>
  <g id="arrowDown" transform="rotate(180) translate(-30 -48)">
    <use xlink:href="#rim"/>
    <path pointer-events="none" fill="none" stroke="white" stroke-width="1.5" d="M0,-3.0v7 M-2.5,-0.5L0,-3.0L2.5,-0.5"/>
  </g>
  <g id="arrowLeft" transform="rotate(270) translate(-36 17)">
    <use xlink:href="#rim"/>
    <path pointer-events="none" fill="none" stroke="white" stroke-width="1.5" d="M0,-3.0v7 M-2.5,-0.5L0,-3.0L2.5,-0.5"/>
  </g>
  <g id="resetDef">
    <use xlink:href="#rim2" fill="#404040"><set attributeName="fill" to="#808080" begin="reset.mouseover" end="reset.mouseout"/></use>
  </g>
</defs>
<script type="application/ecmascript">
var viewWidth = 1304;
var viewHeight = 423;
var sectionId = 'dynsection-0';
</script>
<script type="application/ecmascript" xlink:href="svg.min.js"/>
<svg id="graph" class="graph">
<g id="viewport">
<title>src/engine/TrackBrowser.h</title>
<!-- Node1 -->
<g id="Node000001" class="node">
<title>Node1</title>
<g id="a_Node000001"><a xlink:title=" ">
<polygon fill="#999999" stroke="#666666" points="167.5,-415 24.5,-415 24.5,-396 167.5,-396 167.5,-415"/>
<text text-anchor="middle" x="96" y="-403" font-family="Helvetica,sans-Serif" font-size="10.00">src/engine/TrackBrowser.h</text>
</a>
</g>
</g>
<!-- Node2 -->
<g id="Node000002" class="node">
<title>Node2</title>
<g id="a_Node000002"><a xlink:title=" ">
<polygon fill="#e0e0e0" stroke="#999999" points="591,-19 511,-19 511,0 591,0 591,-19"/>
<text text-anchor="middle" x="551" y="-7" font-family="Helvetica,sans-Serif" font-size="10.00">libultraship.h</text>
</a>
</g>
</g>
<!-- Node1&#45;&gt;Node2 -->
<g id="edge1_Node000001_Node000002" class="edge">
<title>Node1&#45;&gt;Node2</title>
<g id="a_edge1_Node000001_Node000002"><a xlink:title=" ">
<path fill="none" stroke="#63b8ff" d="M79.71,-395.92C52.33,-380.18 0,-343.91 0,-296.5 0,-296.5 0,-296.5 0,-124 0,-82.77 25.15,-73.48 62,-55 137.95,-16.92 392.07,-11.16 500.87,-10.48"/>
<polygon fill="#63b8ff" stroke="#63b8ff" points="500.95,-13.98 510.94,-10.43 500.92,-6.98 500.95,-13.98"/>
</a>
</g>
</g>
<!-- Node3 -->
<g id="Node000003" class="node">
<title>Node3</title>
<g id="a_Node000003"><a xlink:href="Game_8h.html" target="_top" xlink:title=" ">
<polygon fill="white" stroke="#666666" points="290.5,-360 213.5,-360 213.5,-341 290.5,-341 290.5,-360"/>
<text text-anchor="middle" x="252" y="-348" font-family="Helvetica,sans-Serif" font-size="10.00">port/Game.h</text>
</a>
</g>
</g>
<!-- Node1&#45;&gt;Node3 -->
<g id="edge2_Node000001_Node000003" class="edge">
<title>Node1&#45;&gt;Node3</title>
<g id="a_edge2_Node000001_Node000003"><a xlink:title=" ">
<path fill="none" stroke="#63b8ff" d="M121.06,-395.98C147.03,-387.16 187.81,-373.31 216.96,-363.41"/>
<polygon fill="#63b8ff" stroke="#63b8ff" points="218.4,-366.61 226.74,-360.08 216.15,-359.99 218.4,-366.61"/>
</a>
</g>
</g>
<!-- Node3&#45;&gt;Node2 -->
<g id="edge3_Node000003_Node000002" class="edge">
<title>Node3&#45;&gt;Node2</title>
<g id="a_edge3_Node000003_Node000002"><a xlink:title=" ">
<path fill="none" stroke="#63b8ff" d="M290.77,-349.21C468.4,-347.37 1196,-334.19 1196,-241.5 1196,-241.5 1196,-241.5 1196,-124 1196,-107.93 1235.06,-103.64 1091,-55 1001.03,-24.62 717.07,-14.48 601.09,-11.55"/>
<polygon fill="#63b8ff" stroke="#63b8ff" points="601.14,-8.05 591.06,-11.31 600.97,-15.05 601.14,-8.05"/>
</a>
</g>
</g>
<!-- Node4 -->
<g id="Node000004" class="node">
<title>Node4</title>
<g id="a_Node000004"><a xlink:href="Track_8h.html" target="_top" xlink:title=" ">
<polygon fill="white" stroke="#666666" points="609,-305 489,-305 489,-286 609,-286 609,-305"/>
<text text-anchor="middle" x="549" y="-293" font-family="Helvetica,sans-Serif" font-size="10.00">engine/tracks/Track.h</text>
</a>
</g>
</g>
<!-- Node3&#45;&gt;Node4 -->
<g id="edge4_Node000003_Node000004" class="edge">
<title>Node3&#45;&gt;Node4</title>
<g id="a_edge4_Node000003_Node000004"><a xlink:title=" ">
<path fill="none" stroke="#63b8ff" d="M290.52,-342.63C341.56,-333.52 432.04,-317.37 491.26,-306.8"/>
<polygon fill="#63b8ff" stroke="#63b8ff" points="491.99,-310.23 501.21,-305.03 490.76,-303.34 491.99,-310.23"/>
</a>
</g>
</g>
<!-- Node8 -->
<g id="Node000008" class="node">
<title>Node8</title>
<g id="a_Node000008"><a xlink:href="camera_8h.html" target="_top" xlink:title=" ">
<polygon fill="white" stroke="#666666" points="320,-195 258,-195 258,-176 320,-176 320,-195"/>
<text text-anchor="middle" x="289" y="-183" font-family="Helvetica,sans-Serif" font-size="10.00">camera.h</text>
</a>
</g>
</g>
<!-- Node3&#45;&gt;Node8 -->
<g id="edge60_Node000003_Node000008" class="edge">
<title>Node3&#45;&gt;Node8</title>
<g id="a_edge60_Node000003_Node000008"><a xlink:title=" ">
<path fill="none" stroke="#63b8ff" d="M253.99,-340.74C259.79,-315.2 276.76,-240.43 284.75,-205.23"/>
<polygon fill="#63b8ff" stroke="#63b8ff" points="288.2,-205.83 287,-195.31 281.37,-204.28 288.2,-205.83"/>
</a>
</g>
</g>
<!-- Node24 -->
<g id="Node000024" class="node">
<title>Node24</title>
<g id="a_Node000024"><a xlink:href="code__800029B0_8h.html" target="_top" xlink:title=" ">
<polygon fill="white" stroke="#666666" points="243.5,-250 140.5,-250 140.5,-231 243.5,-231 243.5,-250"/>
<text text-anchor="middle" x="192" y="-238" font-family="Helvetica,sans-Serif" font-size="10.00">code_800029B0.h</text>
</a>
</g>
</g>
<!-- Node3&#45;&gt;Node24 -->
<g id="edge62_Node000003_Node000024" class="edge">
<title>Node3&#45;&gt;Node24</title>
<g id="a_edge62_Node000003_Node000024"><a xlink:title=" ">
<path fill="none" stroke="#63b8ff" d="M247.09,-340.66C237.2,-322.85 214.7,-282.37 201.73,-259.01"/>
<polygon fill="#63b8ff" stroke="#63b8ff" points="204.73,-257.2 196.81,-250.16 198.61,-260.6 204.73,-257.2"/>
</a>
</g>
</g>
<!-- Node25 -->
<g id="Node000025" class="node">
<title>Node25</title>
<g id="a_Node000025"><a xlink:href="macros_8h.html" target="_top" xlink:title=" ">
<polygon fill="white" stroke="#666666" points="90,-134.5 28,-134.5 28,-115.5 90,-115.5 90,-134.5"/>
<text text-anchor="middle" x="59" y="-122.5" font-family="Helvetica,sans-Serif" font-size="10.00">macros.h</text>
</a>
</g>
</g>
<!-- Node3&#45;&gt;Node25 -->
<g id="edge59_Node000003_Node000025" class="edge">
<title>Node3&#45;&gt;Node25</title>
<g id="a_edge59_Node000003_Node000025"><a xlink:title=" ">
<path fill="none" stroke="#63b8ff" d="M221.45,-340.94C200.61,-333.92 173.38,-322.29 154,-305 103.08,-259.58 74.79,-180.25 64.06,-144.45"/>
<polygon fill="#63b8ff" stroke="#63b8ff" points="67.42,-143.47 61.29,-134.83 60.7,-145.4 67.42,-143.47"/>
</a>
</g>
</g>
<!-- Node27 -->
<g id="Node000027" class="node">
<title>Node27</title>
<g id="a_Node000027"><a xlink:href="actor__types_8h.html" target="_top" xlink:title=" ">
<polygon fill="white" stroke="#666666" points="201.5,-195 118.5,-195 118.5,-176 201.5,-176 201.5,-195"/>
<text text-anchor="middle" x="160" y="-183" font-family="Helvetica,sans-Serif" font-size="10.00">actor_types.h</text>
</a>
</g>
</g>
<!-- Node3&#45;&gt;Node27 -->
<g id="edge61_Node000003_Node000027" class="edge">
<title>Node3&#45;&gt;Node27</title>
<g id="a_edge61_Node000003_Node000027"><a xlink:title=" ">
<path fill="none" stroke="#63b8ff" d="M233.28,-340.82C204.95,-326.51 152.26,-295 131,-250 123.44,-234 133.94,-215.59 144.36,-202.73"/>
<polygon fill="#63b8ff" stroke="#63b8ff" points="147.03,-204.99 151,-195.16 141.77,-200.37 147.03,-204.99"/>
</a>
</g>
</g>
<!-- Node29 -->
<g id="Node000029" class="node">
<title>Node29</title>
<g id="a_Node000029"><a xlink:href="HM__Intro_8h.html" target="_top" xlink:title=" ">
<polygon fill="white" stroke="#666666" points="920,-134.5 814,-134.5 814,-115.5 920,-115.5 920,-134.5"/>
<text text-anchor="middle" x="867" y="-122.5" font-family="Helvetica,sans-Serif" font-size="10.00">engine/HM_Intro.h</text>
</a>
</g>
</g>
<!-- Node3&#45;&gt;Node29 -->
<g id="edge54_Node000003_Node000029" class="edge">
<title>Node3&#45;&gt;Node29</title>
<g id="a_edge54_Node000003_Node000029"><a xlink:title=" ">
<path fill="none" stroke="#63b8ff" d="M290.67,-347.91C449.09,-341 1042.62,-311.16 1097,-250 1151.29,-188.94 1015.33,-152.42 929.95,-136.13"/>
<polygon fill="#63b8ff" stroke="#63b8ff" points="930.54,-132.68 920.07,-134.29 929.26,-139.56 930.54,-132.68"/>
</a>
</g>
</g>
<!-- Node5 -->
<g id="Node000005" class="node">
<title>Node5</title>
<g id="a_Node000005"><a xlink:title=" ">
<polygon fill="#e0e0e0" stroke="#999999" points="930,-250 792,-250 792,-231 930,-231 930,-250"/>
<text text-anchor="middle" x="861" y="-238" font-family="Helvetica,sans-Serif" font-size="10.00">libultraship/libultraship.h</text>
</a>
</g>
</g>
<!-- Node4&#45;&gt;Node5 -->
<g id="edge5_Node000004_Node000005" class="edge">
<title>Node4&#45;&gt;Node5</title>
<g id="a_edge5_Node000004_Node000005"><a xlink:title=" ">
<path fill="none" stroke="#63b8ff" d="M599.13,-285.98C654.09,-276.65 742.23,-261.67 800.87,-251.71"/>
<polygon fill="#63b8ff" stroke="#63b8ff" points="801.47,-255.16 810.74,-250.04 800.29,-248.26 801.47,-255.16"/>
</a>
</g>
</g>
<!-- Node6 -->
<g id="Node000006" class="node">
<title>Node6</title>
<g id="a_Node000006"><a xlink:href="CoreMath_8h.html" target="_top" xlink:title=" ">
<polygon fill="white" stroke="#666666" points="771.5,-74 662.5,-74 662.5,-55 771.5,-55 771.5,-74"/>
<text text-anchor="middle" x="717" y="-62" font-family="Helvetica,sans-Serif" font-size="10.00">engine/CoreMath.h</text>
</a>
</g>
</g>
<!-- Node4&#45;&gt;Node6 -->
<g id="edge6_Node000004_Node000006" class="edge">
<title>Node4&#45;&gt;Node6</title>
<g id="a_edge6_Node000004_Node000006"><a xlink:title=" ">
<path fill="none" stroke="#63b8ff" d="M609.11,-288.04C659.56,-281.36 726.31,-269.18 745,-250 788.96,-204.89 792.78,-167.47 767,-110 761.5,-97.74 750.77,-87.48 740.65,-79.91"/>
<polygon fill="#63b8ff" stroke="#63b8ff" points="742.64,-77.03 732.43,-74.2 738.65,-82.78 742.64,-77.03"/>
</a>
</g>
</g>
<!-- Node7 -->
<g id="Node000007" class="node">
<title>Node7</title>
<g id="a_Node000007"><a xlink:href="defines_8h.html" target="_top" xlink:title=" ">
<polygon fill="white" stroke="#666666" points="1009.5,-250 948.5,-250 948.5,-231 1009.5,-231 1009.5,-250"/>
<text text-anchor="middle" x="979" y="-238" font-family="Helvetica,sans-Serif" font-size="10.00">defines.h</text>
</a>
</g>
</g>
<!-- Node4&#45;&gt;Node7 -->
<g id="edge8_Node000004_Node000007" class="edge">
<title>Node4&#45;&gt;Node7</title>
<g id="a_edge8_Node000004_Node000007"><a xlink:title=" ">
<path fill="none" stroke="#63b8ff" d="M609.04,-289.45C683.81,-282.76 815.63,-269.64 938.52,-249.92"/>
<polygon fill="#63b8ff" stroke="#63b8ff" points="939.17,-253.36 948.48,-248.3 938.05,-246.45 939.17,-253.36"/>
</a>
</g>
</g>
<!-- Node4&#45;&gt;Node8 -->
<g id="edge9_Node000004_Node000008" class="edge">
<title>Node4&#45;&gt;Node8</title>
<g id="a_edge9_Node000004_Node000008"><a xlink:title=" ">
<path fill="none" stroke="#63b8ff" d="M488.88,-293.72C443.09,-290.51 380.26,-280.25 334,-250 316.91,-238.82 304.32,-218.71 296.86,-204.11"/>
<polygon fill="#63b8ff" stroke="#63b8ff" points="300.01,-202.57 292.54,-195.06 293.69,-205.59 300.01,-202.57"/>
</a>
</g>
</g>
<!-- Node9 -->
<g id="Node000009" class="node">
<title>Node9</title>
<g id="a_Node000009"><a xlink:href="common__structs_8h.html" target="_top" xlink:title=" ">
<polygon fill="white" stroke="#666666" points="549.5,-74 442.5,-74 442.5,-55 549.5,-55 549.5,-74"/>
<text text-anchor="middle" x="496" y="-62" font-family="Helvetica,sans-Serif" font-size="10.00">common_structs.h</text>
</a>
</g>
</g>
<!-- Node4&#45;&gt;Node9 -->
<g id="edge42_Node000004_Node000009" class="edge">
<title>Node4&#45;&gt;Node9</title>
<g id="a_edge42_Node000004_Node000009"><a xlink:title=" ">
<path fill="none" stroke="#63b8ff" d="M488.99,-288.29C458.42,-282.53 422.26,-271.42 396,-250 374.59,-232.53 373.64,-221.82 367,-195 353.28,-139.56 422.61,-98.06 465,-78.31"/>
<polygon fill="#63b8ff" stroke="#63b8ff" points="466.68,-81.39 474.36,-74.09 463.81,-75.01 466.68,-81.39"/>
</a>
</g>
</g>
<!-- Node10 -->
<g id="Node000010" class="node">
<title>Node10</title>
<g id="a_Node000010"><a xlink:href="src_2data_2some__data_8h.html" target="_top" xlink:title=" ">
<polygon fill="white" stroke="#666666" points="736,-250 632,-250 632,-231 736,-231 736,-250"/>
<text text-anchor="middle" x="684" y="-238" font-family="Helvetica,sans-Serif" font-size="10.00">data/some_data.h</text>
</a>
</g>
</g>
<!-- Node4&#45;&gt;Node10 -->
<g id="edge13_Node000004_Node000010" class="edge">
<title>Node4&#45;&gt;Node10</title>
<g id="a_edge13_Node000004_Node000010"><a xlink:title=" ">
<path fill="none" stroke="#63b8ff" d="M570.69,-285.98C592.8,-277.3 627.32,-263.75 652.45,-253.88"/>
<polygon fill="#63b8ff" stroke="#63b8ff" points="653.89,-257.08 661.92,-250.17 651.33,-250.57 653.89,-257.08"/>
</a>
</g>
</g>
<!-- Node16 -->
<g id="Node000016" class="node">
<title>Node16</title>
<g id="a_Node000016"><a xlink:href="bomb__kart_8h.html" target="_top" xlink:title=" ">
<polygon fill="white" stroke="#666666" points="585.5,-195 508.5,-195 508.5,-176 585.5,-176 585.5,-195"/>
<text text-anchor="middle" x="547" y="-183" font-family="Helvetica,sans-Serif" font-size="10.00">bomb_kart.h</text>
</a>
</g>
</g>
<!-- Node4&#45;&gt;Node16 -->
<g id="edge23_Node000004_Node000016" class="edge">
<title>Node4&#45;&gt;Node16</title>
<g id="a_edge23_Node000004_Node000016"><a xlink:title=" ">
<path fill="none" stroke="#63b8ff" d="M559.32,-285.88C572.16,-274.04 591.53,-251.84 584,-231 580.06,-220.09 572.14,-209.96 564.64,-202.14"/>
<polygon fill="#63b8ff" stroke="#63b8ff" points="567.05,-199.6 557.44,-195.13 562.16,-204.61 567.05,-199.6"/>
</a>
</g>
</g>
<!-- Node20 -->
<g id="Node000020" class="node">
<title>Node20</title>
<g id="a_Node000020"><a xlink:href="path__spawn__metadata_8h.html" target="_top" xlink:title=" ">
<polygon fill="white" stroke="#666666" points="575.5,-250 414.5,-250 414.5,-231 575.5,-231 575.5,-250"/>
<text text-anchor="middle" x="495" y="-238" font-family="Helvetica,sans-Serif" font-size="10.00">data/path_spawn_metadata.h</text>
</a>
</g>
</g>
<!-- Node4&#45;&gt;Node20 -->
<g id="edge30_Node000004_Node000020" class="edge">
<title>Node4&#45;&gt;Node20</title>
<g id="a_edge30_Node000004_Node000020"><a xlink:title=" ">
<path fill="none" stroke="#63b8ff" d="M540.08,-285.75C532.22,-278.03 520.57,-266.6 511.08,-257.28"/>
<polygon fill="#63b8ff" stroke="#63b8ff" points="513.34,-254.6 503.75,-250.09 508.44,-259.59 513.34,-254.6"/>
</a>
</g>
</g>
<!-- Node21 -->
<g id="Node000021" class="node">
<title>Node21</title>
<g id="a_Node000021"><a xlink:href="waypoints_8h.html" target="_top" xlink:title=" ">
<polygon fill="white" stroke="#666666" points="452,-195 376,-195 376,-176 452,-176 452,-195"/>
<text text-anchor="middle" x="414" y="-183" font-family="Helvetica,sans-Serif" font-size="10.00">waypoints.h</text>
</a>
</g>
</g>
<!-- Node4&#45;&gt;Node21 -->
<g id="edge40_Node000004_Node000021" class="edge">
<title>Node4&#45;&gt;Node21</title>
<g id="a_edge40_Node000004_Node000021"><a xlink:title=" ">
<path fill="none" stroke="#63b8ff" d="M488.99,-292.03C458.65,-287.37 424.26,-276.11 405,-250 395.41,-237 399.58,-218.35 404.99,-204.63"/>
<polygon fill="#63b8ff" stroke="#63b8ff" points="408.29,-205.82 409.16,-195.26 401.89,-202.97 408.29,-205.82"/>
</a>
</g>
</g>
<!-- Node23 -->
<g id="Node000023" class="node">
<title>Node23</title>
<g id="a_Node000023"><a xlink:href="sounds_8h.html" target="_top" xlink:title=" ">
<polygon fill="white" stroke="#666666" points="1088,-250 1028,-250 1028,-231 1088,-231 1088,-250"/>
<text text-anchor="middle" x="1058" y="-238" font-family="Helvetica,sans-Serif" font-size="10.00">sounds.h</text>
</a>
</g>
</g>
<!-- Node4&#45;&gt;Node23 -->
<g id="edge41_Node000004_Node000023" class="edge">
<title>Node4&#45;&gt;Node23</title>
<g id="a_edge41_Node000004_Node000023"><a xlink:title=" ">
<path fill="none" stroke="#63b8ff" d="M609.24,-291C698.77,-285.31 872.07,-272.35 1018,-250 1018.1,-249.98 1018.2,-249.97 1018.3,-249.95"/>
<polygon fill="#63b8ff" stroke="#63b8ff" points="1018.68,-253.44 1027.93,-248.28 1017.47,-246.54 1018.68,-253.44"/>
</a>
</g>
</g>
<!-- Node4&#45;&gt;Node24 -->
<g id="edge43_Node000004_Node000024" class="edge">
<title>Node4&#45;&gt;Node24</title>
<g id="a_edge43_Node000004_Node000024"><a xlink:title=" ">
<path fill="none" stroke="#63b8ff" d="M491.64,-285.98C426.49,-276.31 320.58,-260.59 253.69,-250.66"/>
<polygon fill="#63b8ff" stroke="#63b8ff" points="254.11,-247.18 243.71,-249.18 253.08,-254.11 254.11,-247.18"/>
</a>
</g>
</g>
<!-- Node6&#45;&gt;Node2 -->
<g id="edge7_Node000006_Node000002" class="edge">
<title>Node6&#45;&gt;Node2</title>
<g id="a_edge7_Node000006_Node000002"><a xlink:title=" ">
<path fill="none" stroke="#63b8ff" d="M690.33,-54.98C662.46,-46.09 618.55,-32.07 587.48,-22.15"/>
<polygon fill="#63b8ff" stroke="#63b8ff" points="588.47,-18.79 577.88,-19.08 586.34,-25.46 588.47,-18.79"/>
</a>
</g>
</g>
<!-- Node8&#45;&gt;Node2 -->
<g id="edge10_Node000008_Node000002" class="edge">
<title>Node8&#45;&gt;Node2</title>
<g id="a_edge10_Node000008_Node000002"><a xlink:title=" ">
<path fill="none" stroke="#63b8ff" d="M291.55,-175.62C296.29,-160.47 307.77,-129.37 327,-110 375.11,-61.55 450.9,-34.75 500.78,-21.49"/>
<polygon fill="#63b8ff" stroke="#63b8ff" points="501.89,-24.82 510.7,-18.94 500.15,-18.04 501.89,-24.82"/>
</a>
</g>
</g>
<!-- Node8&#45;&gt;Node9 -->
<g id="edge11_Node000008_Node000009" class="edge">
<title>Node8&#45;&gt;Node9</title>
<g id="a_edge11_Node000008_Node000009"><a xlink:title=" ">
<path fill="none" stroke="#63b8ff" d="M295.94,-175.9C308.69,-160.62 337.38,-128.58 368,-110 392.95,-94.86 423.77,-83.95 448.92,-76.72"/>
<polygon fill="#63b8ff" stroke="#63b8ff" points="449.9,-80.08 458.6,-74.03 448.03,-73.33 449.9,-80.08"/>
</a>
</g>
</g>
<!-- Node9&#45;&gt;Node2 -->
<g id="edge12_Node000009_Node000002" class="edge">
<title>Node9&#45;&gt;Node2</title>
<g id="a_edge12_Node000009_Node000002"><a xlink:title=" ">
<path fill="none" stroke="#63b8ff" d="M505.08,-54.75C513.09,-47.03 524.96,-35.6 534.62,-26.28"/>
<polygon fill="#63b8ff" stroke="#63b8ff" points="537.31,-28.55 542.09,-19.09 532.46,-23.51 537.31,-28.55"/>
</a>
</g>
</g>
<!-- Node11 -->
<g id="Node000011" class="node">
<title>Node11</title>
<g id="a_Node000011"><a xlink:title=" ">
<polygon fill="#e0e0e0" stroke="#999999" points="906,-74 828,-74 828,-55 906,-55 906,-74"/>
<text text-anchor="middle" x="867" y="-62" font-family="Helvetica,sans-Serif" font-size="10.00">libultra/gbi.h</text>
</a>
</g>
</g>
<!-- Node10&#45;&gt;Node11 -->
<g id="edge14_Node000010_Node000011" class="edge">
<title>Node10&#45;&gt;Node11</title>
<g id="a_edge14_Node000010_Node000011"><a xlink:title=" ">
<path fill="none" stroke="#63b8ff" d="M707.2,-230.88C767.03,-208.54 922.38,-149.83 929,-140 936.45,-128.94 935.09,-121.86 929,-110 922.04,-96.44 908.81,-86.07 896.35,-78.78"/>
<polygon fill="#63b8ff" stroke="#63b8ff" points="897.98,-75.68 887.52,-74 894.65,-81.84 897.98,-75.68"/>
</a>
</g>
</g>
<!-- Node12 -->
<g id="Node000012" class="node">
<title>Node12</title>
<g id="a_Node000012"><a xlink:href="spline_8h.html" target="_top" xlink:title=" ">
<polygon fill="white" stroke="#666666" points="579.5,-134.5 524.5,-134.5 524.5,-115.5 579.5,-115.5 579.5,-134.5"/>
<text text-anchor="middle" x="552" y="-122.5" font-family="Helvetica,sans-Serif" font-size="10.00">spline.h</text>
</a>
</g>
</g>
<!-- Node10&#45;&gt;Node12 -->
<g id="edge15_Node000010_Node000012" class="edge">
<title>Node10&#45;&gt;Node12</title>
<g id="a_edge15_Node000010_Node000012"><a xlink:title=" ">
<path fill="none" stroke="#63b8ff" d="M674.08,-230.97C651.91,-211.91 598.09,-165.63 569.9,-141.39"/>
<polygon fill="#63b8ff" stroke="#63b8ff" points="571.9,-138.5 562.04,-134.63 567.34,-143.8 571.9,-138.5"/>
</a>
</g>
</g>
<!-- Node13 -->
<g id="Node000013" class="node">
<title>Node13</title>
<g id="a_Node000013"><a xlink:href="other__textures_8h.html" target="_top" xlink:title=" ">
<polygon fill="white" stroke="#666666" points="1168,-140 1048,-140 1048,-110 1168,-110 1168,-140"/>
<text text-anchor="start" x="1056" y="-128" font-family="Helvetica,sans-Serif" font-size="10.00">assets/textures/other</text>
<text text-anchor="middle" x="1108" y="-117" font-family="Helvetica,sans-Serif" font-size="10.00">_textures.h</text>
</a>
</g>
</g>
<!-- Node10&#45;&gt;Node13 -->
<g id="edge17_Node000010_Node000013" class="edge">
<title>Node10&#45;&gt;Node13</title>
<g id="a_edge17_Node000010_Node000013"><a xlink:title=" ">
<path fill="none" stroke="#63b8ff" d="M715.87,-230.97C785.83,-212.24 953.91,-167.25 1045.66,-142.69"/>
<polygon fill="#63b8ff" stroke="#63b8ff" points="1046.62,-146.05 1055.38,-140.09 1044.81,-139.29 1046.62,-146.05"/>
</a>
</g>
</g>
<!-- Node15 -->
<g id="Node000015" class="node">
<title>Node15</title>
<g id="a_Node000015"><a xlink:href="objects_8h.html" target="_top" xlink:title=" ">
<polygon fill="white" stroke="#666666" points="703.5,-195 642.5,-195 642.5,-176 703.5,-176 703.5,-195"/>
<text text-anchor="middle" x="673" y="-183" font-family="Helvetica,sans-Serif" font-size="10.00">objects.h</text>
</a>
</g>
</g>
<!-- Node10&#45;&gt;Node15 -->
<g id="edge20_Node000010_Node000015" class="edge">
<title>Node10&#45;&gt;Node15</title>
<g id="a_edge20_Node000010_Node000015"><a xlink:title=" ">
<path fill="none" stroke="#63b8ff" d="M682.18,-230.75C680.74,-223.8 678.68,-213.85 676.87,-205.13"/>
<polygon fill="#63b8ff" stroke="#63b8ff" points="680.24,-204.17 674.78,-195.09 673.39,-205.59 680.24,-204.17"/>
</a>
</g>
</g>
<!-- Node12&#45;&gt;Node9 -->
<g id="edge16_Node000012_Node000009" class="edge">
<title>Node12&#45;&gt;Node9</title>
<g id="a_edge16_Node000012_Node000009"><a xlink:title=" ">
<path fill="none" stroke="#63b8ff" d="M543.74,-115.37C535.22,-106.47 521.74,-92.39 511.27,-81.45"/>
<polygon fill="#63b8ff" stroke="#63b8ff" points="513.74,-78.97 504.3,-74.17 508.68,-83.81 513.74,-78.97"/>
</a>
</g>
</g>
<!-- Node13&#45;&gt;Node2 -->
<g id="edge18_Node000013_Node000002" class="edge">
<title>Node13&#45;&gt;Node2</title>
<g id="a_edge18_Node000013_Node000002"><a xlink:title=" ">
<path fill="none" stroke="#63b8ff" d="M1103.92,-109.85C1098.43,-93.58 1086.95,-67.52 1067,-55 1028.15,-30.62 723.4,-16.83 601.32,-12.24"/>
<polygon fill="#63b8ff" stroke="#63b8ff" points="601.24,-8.74 591.12,-11.86 600.98,-15.73 601.24,-8.74"/>
</a>
</g>
</g>
<!-- Node14 -->
<g id="Node000014" class="node">
<title>Node14</title>
<g id="a_Node000014"><a xlink:href="align__asset__macro_8h.html" target="_top" xlink:title=" ">
<polygon fill="white" stroke="#666666" points="1041.5,-74 924.5,-74 924.5,-55 1041.5,-55 1041.5,-74"/>
<text text-anchor="middle" x="983" y="-62" font-family="Helvetica,sans-Serif" font-size="10.00">align_asset_macro.h</text>
</a>
</g>
</g>
<!-- Node13&#45;&gt;Node14 -->
<g id="edge19_Node000013_Node000014" class="edge">
<title>Node13&#45;&gt;Node14</title>
<g id="a_edge19_Node000013_Node000014"><a xlink:title=" ">
<path fill="none" stroke="#63b8ff" d="M1078.06,-109.99C1057.58,-100.4 1030.62,-87.79 1010.65,-78.44"/>
<polygon fill="#63b8ff" stroke="#63b8ff" points="1012,-75.21 1001.46,-74.14 1009.03,-81.55 1012,-75.21"/>
</a>
</g>
</g>
<!-- Node15&#45;&gt;Node9 -->
<g id="edge22_Node000015_Node000009" class="edge">
<title>Node15&#45;&gt;Node9</title>
<g id="a_edge22_Node000015_Node000009"><a xlink:title=" ">
<path fill="none" stroke="#63b8ff" d="M664.7,-175.84C650.18,-161 618.75,-130.37 588,-110 568.82,-97.29 545.46,-86.04 527.08,-78.03"/>
<polygon fill="#63b8ff" stroke="#63b8ff" points="528.28,-74.73 517.7,-74.03 525.53,-81.17 528.28,-74.73"/>
</a>
</g>
</g>
<!-- Node15&#45;&gt;Node12 -->
<g id="edge21_Node000015_Node000012" class="edge">
<title>Node15&#45;&gt;Node12</title>
<g id="a_edge21_Node000015_Node000012"><a xlink:title=" ">
<path fill="none" stroke="#63b8ff" d="M655.41,-175.99C635.24,-166.25 601.98,-150.16 578.64,-138.88"/>
<polygon fill="#63b8ff" stroke="#63b8ff" points="580.14,-135.72 569.62,-134.52 577.1,-142.02 580.14,-135.72"/>
</a>
</g>
</g>
<!-- Node16&#45;&gt;Node9 -->
<g id="edge24_Node000016_Node000009" class="edge">
<title>Node16&#45;&gt;Node9</title>
<g id="a_edge24_Node000016_Node000009"><a xlink:title=" ">
<path fill="none" stroke="#63b8ff" d="M539.32,-175.92C532.06,-167.38 521.36,-153.62 515,-140 506.55,-121.9 501.49,-99.5 498.74,-84.01"/>
<polygon fill="#63b8ff" stroke="#63b8ff" points="502.19,-83.43 497.13,-74.12 495.28,-84.55 502.19,-83.43"/>
</a>
</g>
</g>
<!-- Node17 -->
<g id="Node000017" class="node">
<title>Node17</title>
<g id="a_Node000017"><a xlink:href="mk64_8h.html" target="_top" xlink:title=" ">
<polygon fill="white" stroke="#666666" points="1029.5,-134.5 976.5,-134.5 976.5,-115.5 1029.5,-115.5 1029.5,-134.5"/>
<text text-anchor="middle" x="1003" y="-122.5" font-family="Helvetica,sans-Serif" font-size="10.00">mk64.h</text>
</a>
</g>
</g>
<!-- Node16&#45;&gt;Node17 -->
<g id="edge25_Node000016_Node000017" class="edge">
<title>Node16&#45;&gt;Node17</title>
<g id="a_edge25_Node000016_Node000017"><a xlink:title=" ">
<path fill="none" stroke="#63b8ff" d="M585.61,-180.35C668.93,-171.35 863.33,-150.02 929,-140 941.2,-138.14 954.46,-135.75 966.34,-133.47"/>
<polygon fill="#63b8ff" stroke="#63b8ff" points="967.22,-136.86 976.36,-131.51 965.88,-129.99 967.22,-136.86"/>
</a>
</g>
</g>
<!-- Node17&#45;&gt;Node2 -->
<g id="edge26_Node000017_Node000002" class="edge">
<title>Node17&#45;&gt;Node2</title>
<g id="a_edge26_Node000017_Node000002"><a xlink:title=" ">
<path fill="none" stroke="#63b8ff" d="M1016.33,-115.37C1035.85,-101.71 1068,-74.68 1050,-55 1020.12,-22.34 722.24,-13.48 601.46,-11.23"/>
<polygon fill="#63b8ff" stroke="#63b8ff" points="601.43,-7.72 591.37,-11.04 601.3,-14.72 601.43,-7.72"/>
</a>
</g>
</g>
<!-- Node17&#45;&gt;Node11 -->
<g id="edge29_Node000017_Node000011" class="edge">
<title>Node17&#45;&gt;Node11</title>
<g id="a_edge29_Node000017_Node000011"><a xlink:title=" ">
<path fill="none" stroke="#63b8ff" d="M983.22,-115.49C960.36,-105.66 922.51,-89.38 896.24,-78.08"/>
<polygon fill="#63b8ff" stroke="#63b8ff" points="897.37,-74.75 886.8,-74.02 894.6,-81.18 897.37,-74.75"/>
</a>
</g>
</g>
<!-- Node18 -->
<g id="Node000018" class="node">
<title>Node18</title>
<g id="a_Node000018"><a xlink:href="string_8h.html" target="_top" xlink:title=" ">
<polygon fill="white" stroke="#666666" points="1277.5,-74 1224.5,-74 1224.5,-55 1277.5,-55 1277.5,-74"/>
<text text-anchor="middle" x="1251" y="-62" font-family="Helvetica,sans-Serif" font-size="10.00">string.h</text>
</a>
</g>
</g>
<!-- Node17&#45;&gt;Node18 -->
<g id="edge27_Node000017_Node000018" class="edge">
<title>Node17&#45;&gt;Node18</title>
<g id="a_edge27_Node000017_Node000018"><a xlink:title=" ">
<path fill="none" stroke="#63b8ff" d="M1023.36,-115.41C1028.41,-113.47 1033.86,-111.53 1039,-110 1099.45,-92.03 1171.66,-78.51 1214.29,-71.32"/>
<polygon fill="#63b8ff" stroke="#63b8ff" points="1214.92,-74.76 1224.21,-69.67 1213.77,-67.86 1214.92,-74.76"/>
</a>
</g>
</g>
<!-- Node19 -->
<g id="Node000019" class="node">
<title>Node19</title>
<g id="a_Node000019"><a xlink:title=" ">
<polygon fill="#e0e0e0" stroke="#999999" points="1296,-19 1206,-19 1206,0 1296,0 1296,-19"/>
<text text-anchor="middle" x="1251" y="-7" font-family="Helvetica,sans-Serif" font-size="10.00">libultra/types.h</text>
</a>
</g>
</g>
<!-- Node18&#45;&gt;Node19 -->
<g id="edge28_Node000018_Node000019" class="edge">
<title>Node18&#45;&gt;Node19</title>
<g id="a_edge28_Node000018_Node000019"><a xlink:title=" ">
<path fill="none" stroke="#63b8ff" d="M1251,-54.75C1251,-47.8 1251,-37.85 1251,-29.13"/>
<polygon fill="#63b8ff" stroke="#63b8ff" points="1254.5,-29.09 1251,-19.09 1247.5,-29.09 1254.5,-29.09"/>
</a>
</g>
</g>
<!-- Node20&#45;&gt;Node9 -->
<g id="edge33_Node000020_Node000009" class="edge">
<title>Node20&#45;&gt;Node9</title>
<g id="a_edge33_Node000020_Node000009"><a xlink:title=" ">
<path fill="none" stroke="#63b8ff" d="M495.05,-230.63C495.21,-203.64 495.68,-122.03 495.89,-84.61"/>
<polygon fill="#63b8ff" stroke="#63b8ff" points="499.39,-84.16 495.95,-74.14 492.39,-84.12 499.39,-84.16"/>
</a>
</g>
</g>
<!-- Node20&#45;&gt;Node16 -->
<g id="edge39_Node000020_Node000016" class="edge">
<title>Node20&#45;&gt;Node16</title>
<g id="a_edge39_Node000020_Node000016"><a xlink:title=" ">
<path fill="none" stroke="#63b8ff" d="M503.59,-230.75C511.16,-223.03 522.38,-211.6 531.51,-202.28"/>
<polygon fill="#63b8ff" stroke="#63b8ff" points="534.07,-204.68 538.57,-195.09 529.07,-199.78 534.07,-204.68"/>
</a>
</g>
</g>
<!-- Node20&#45;&gt;Node21 -->
<g id="edge31_Node000020_Node000021" class="edge">
<title>Node20&#45;&gt;Node21</title>
<g id="a_edge31_Node000020_Node000021"><a xlink:title=" ">
<path fill="none" stroke="#63b8ff" d="M481.99,-230.98C469.54,-222.84 450.54,-210.41 435.79,-200.76"/>
<polygon fill="#63b8ff" stroke="#63b8ff" points="437.54,-197.72 427.25,-195.17 433.7,-203.57 437.54,-197.72"/>
</a>
</g>
</g>
<!-- Node22 -->
<g id="Node000022" class="node">
<title>Node22</title>
<g id="a_Node000022"><a xlink:href="other_2common__data_8h.html" target="_top" xlink:title=" ">
<polygon fill="white" stroke="#666666" points="758,-140 636,-140 636,-110 758,-110 758,-140"/>
<text text-anchor="start" x="644" y="-128" font-family="Helvetica,sans-Serif" font-size="10.00">assets/other/common</text>
<text text-anchor="middle" x="697" y="-117" font-family="Helvetica,sans-Serif" font-size="10.00">_data.h</text>
</a>
</g>
</g>
<!-- Node20&#45;&gt;Node22 -->
<g id="edge34_Node000020_Node000022" class="edge">
<title>Node20&#45;&gt;Node22</title>
<g id="a_edge34_Node000020_Node000022"><a xlink:title=" ">
<path fill="none" stroke="#63b8ff" d="M575.5,-233.47C629.86,-227.54 694.74,-216.16 712,-195 722.49,-182.14 717.69,-163.59 710.84,-148.96"/>
<polygon fill="#63b8ff" stroke="#63b8ff" points="713.91,-147.27 706.19,-140.02 707.7,-150.5 713.91,-147.27"/>
</a>
</g>
</g>
<!-- Node21&#45;&gt;Node9 -->
<g id="edge32_Node000021_Node000009" class="edge">
<title>Node21&#45;&gt;Node9</title>
<g id="a_edge32_Node000021_Node000009"><a xlink:title=" ">
<path fill="none" stroke="#63b8ff" d="M416.11,-175.56C419.89,-160.85 428.87,-131.06 444,-110 452.23,-98.54 464.02,-88.14 474.28,-80.28"/>
<polygon fill="#63b8ff" stroke="#63b8ff" points="476.44,-83.03 482.44,-74.3 472.31,-77.39 476.44,-83.03"/>
</a>
</g>
</g>
<!-- Node22&#45;&gt;Node2 -->
<g id="edge36_Node000022_Node000002" class="edge">
<title>Node22&#45;&gt;Node2</title>
<g id="a_edge36_Node000022_Node000002"><a xlink:title=" ">
<path fill="none" stroke="#63b8ff" d="M678.8,-109.85C651.09,-88.31 598.56,-47.47 570.24,-25.46"/>
<polygon fill="#63b8ff" stroke="#63b8ff" points="572.33,-22.64 562.28,-19.27 568.03,-28.17 572.33,-22.64"/>
</a>
</g>
</g>
<!-- Node22&#45;&gt;Node9 -->
<g id="edge37_Node000022_Node000009" class="edge">
<title>Node22&#45;&gt;Node9</title>
<g id="a_edge37_Node000022_Node000009"><a xlink:title=" ">
<path fill="none" stroke="#63b8ff" d="M648.86,-109.99C614.02,-99.85 567.53,-86.32 535.01,-76.85"/>
<polygon fill="#63b8ff" stroke="#63b8ff" points="535.97,-73.49 525.39,-74.05 534.01,-80.21 535.97,-73.49"/>
</a>
</g>
</g>
<!-- Node22&#45;&gt;Node11 -->
<g id="edge35_Node000022_Node000011" class="edge">
<title>Node22&#45;&gt;Node11</title>
<g id="a_edge35_Node000022_Node000011"><a xlink:title=" ">
<path fill="none" stroke="#63b8ff" d="M737.72,-109.99C766.59,-100.05 804.91,-86.86 832.33,-77.43"/>
<polygon fill="#63b8ff" stroke="#63b8ff" points="833.58,-80.7 841.89,-74.14 831.3,-74.08 833.58,-80.7"/>
</a>
</g>
</g>
<!-- Node22&#45;&gt;Node14 -->
<g id="edge38_Node000022_Node000014" class="edge">
<title>Node22&#45;&gt;Node14</title>
<g id="a_edge38_Node000022_Node000014"><a xlink:title=" ">
<path fill="none" stroke="#63b8ff" d="M758,-111.52C809.46,-101 882.32,-86.09 931.05,-76.13"/>
<polygon fill="#63b8ff" stroke="#63b8ff" points="931.96,-79.51 941.06,-74.08 930.56,-72.65 931.96,-79.51"/>
</a>
</g>
</g>
<!-- Node24&#45;&gt;Node2 -->
<g id="edge47_Node000024_Node000002" class="edge">
<title>Node24&#45;&gt;Node2</title>
<g id="a_edge47_Node000024_Node000002"><a xlink:title=" ">
<path fill="none" stroke="#63b8ff" d="M197.2,-230.95C216.13,-200.66 284.91,-97.96 372,-55 412.95,-34.8 463.82,-23.29 500.85,-17.07"/>
<polygon fill="#63b8ff" stroke="#63b8ff" points="501.59,-20.49 510.91,-15.45 500.48,-13.58 501.59,-20.49"/>
</a>
</g>
</g>
<!-- Node24&#45;&gt;Node8 -->
<g id="edge53_Node000024_Node000008" class="edge">
<title>Node24&#45;&gt;Node8</title>
<g id="a_edge53_Node000024_Node000008"><a xlink:title=" ">
<path fill="none" stroke="#63b8ff" d="M207.58,-230.98C222.77,-222.69 246.1,-209.94 263.9,-200.22"/>
<polygon fill="#63b8ff" stroke="#63b8ff" points="266.03,-203.04 273.13,-195.17 262.68,-196.89 266.03,-203.04"/>
</a>
</g>
</g>
<!-- Node24&#45;&gt;Node25 -->
<g id="edge44_Node000024_Node000025" class="edge">
<title>Node24&#45;&gt;Node25</title>
<g id="a_edge44_Node000024_Node000025"><a xlink:title=" ">
<path fill="none" stroke="#63b8ff" d="M169.88,-230.92C152.12,-223.3 127.23,-210.92 109,-195 92,-180.15 77.5,-158.49 68.56,-143.42"/>
<polygon fill="#63b8ff" stroke="#63b8ff" points="71.52,-141.54 63.52,-134.6 65.45,-145.01 71.52,-141.54"/>
</a>
</g>
</g>
<!-- Node24&#45;&gt;Node27 -->
<g id="edge48_Node000024_Node000027" class="edge">
<title>Node24&#45;&gt;Node27</title>
<g id="a_edge48_Node000024_Node000027"><a xlink:title=" ">
<path fill="none" stroke="#63b8ff" d="M186.72,-230.75C182.29,-223.42 175.84,-212.73 170.38,-203.7"/>
<polygon fill="#63b8ff" stroke="#63b8ff" points="173.35,-201.84 165.19,-195.09 167.36,-205.46 173.35,-201.84"/>
</a>
</g>
</g>
<!-- Node25&#45;&gt;Node2 -->
<g id="edge46_Node000025_Node000002" class="edge">
<title>Node25&#45;&gt;Node2</title>
<g id="a_edge46_Node000025_Node000002"><a xlink:title=" ">
<path fill="none" stroke="#63b8ff" d="M58.52,-115.16C58.25,-100.19 60.1,-70.01 78,-55 109.87,-28.27 385.15,-16.04 500.49,-12.05"/>
<polygon fill="#63b8ff" stroke="#63b8ff" points="500.94,-15.54 510.81,-11.7 500.7,-8.54 500.94,-15.54"/>
</a>
</g>
</g>
<!-- Node26 -->
<g id="Node000026" class="node">
<title>Node26</title>
<g id="a_Node000026"><a xlink:href="math_8h.html" target="_top" xlink:title=" ">
<polygon fill="white" stroke="#666666" points="138.5,-74 87.5,-74 87.5,-55 138.5,-55 138.5,-74"/>
<text text-anchor="middle" x="113" y="-62" font-family="Helvetica,sans-Serif" font-size="10.00">math.h</text>
</a>
</g>
</g>
<!-- Node25&#45;&gt;Node26 -->
<g id="edge45_Node000025_Node000026" class="edge">
<title>Node25&#45;&gt;Node26</title>
<g id="a_edge45_Node000025_Node000026"><a xlink:title=" ">
<path fill="none" stroke="#63b8ff" d="M66.97,-115.37C75.1,-106.55 87.93,-92.66 97.98,-81.77"/>
<polygon fill="#63b8ff" stroke="#63b8ff" points="100.79,-83.89 105,-74.17 95.64,-79.14 100.79,-83.89"/>
</a>
</g>
</g>
<!-- Node27&#45;&gt;Node2 -->
<g id="edge49_Node000027_Node000002" class="edge">
<title>Node27&#45;&gt;Node2</title>
<g id="a_edge49_Node000027_Node000002"><a xlink:title=" ">
<path fill="none" stroke="#63b8ff" d="M162.56,-175.73C170.48,-149.19 195.29,-70.66 216,-55 259.76,-21.92 418.34,-13.42 500.65,-11.25"/>
<polygon fill="#63b8ff" stroke="#63b8ff" points="500.86,-14.74 510.78,-11 500.69,-7.74 500.86,-14.74"/>
</a>
</g>
</g>
<!-- Node27&#45;&gt;Node9 -->
<g id="edge51_Node000027_Node000009" class="edge">
<title>Node27&#45;&gt;Node9</title>
<g id="a_edge51_Node000027_Node000009"><a xlink:title=" ">
<path fill="none" stroke="#63b8ff" d="M176.7,-175.96C206.35,-161.04 270.4,-129.93 327,-110 366.29,-96.17 412.05,-84.37 446.03,-76.41"/>
<polygon fill="#63b8ff" stroke="#63b8ff" points="447.23,-79.72 456.18,-74.06 445.65,-72.9 447.23,-79.72"/>
</a>
</g>
</g>
<!-- Node27&#45;&gt;Node25 -->
<g id="edge50_Node000027_Node000025" class="edge">
<title>Node27&#45;&gt;Node25</title>
<g id="a_edge50_Node000027_Node000025"><a xlink:title=" ">
<path fill="none" stroke="#63b8ff" d="M145.1,-175.87C128.69,-166.36 102.07,-150.95 82.77,-139.77"/>
<polygon fill="#63b8ff" stroke="#63b8ff" points="84.37,-136.65 73.96,-134.67 80.86,-142.71 84.37,-136.65"/>
</a>
</g>
</g>
<!-- Node28 -->
<g id="Node000028" class="node">
<title>Node28</title>
<g id="a_Node000028"><a xlink:title=" ">
<polygon fill="#e0e0e0" stroke="#999999" points="164,-134.5 108,-134.5 108,-115.5 164,-115.5 164,-134.5"/>
<text text-anchor="middle" x="136" y="-122.5" font-family="Helvetica,sans-Serif" font-size="10.00">assert.h</text>
</a>
</g>
</g>
<!-- Node27&#45;&gt;Node28 -->
<g id="edge52_Node000027_Node000028" class="edge">
<title>Node27&#45;&gt;Node28</title>
<g id="a_edge52_Node000027_Node000028"><a xlink:title=" ">
<path fill="none" stroke="#63b8ff" d="M156.46,-175.87C153.06,-167.57 147.81,-154.78 143.48,-144.22"/>
<polygon fill="#63b8ff" stroke="#63b8ff" points="146.59,-142.59 139.56,-134.67 140.11,-145.25 146.59,-142.59"/>
</a>
</g>
</g>
<!-- Node29&#45;&gt;Node2 -->
<g id="edge55_Node000029_Node000002" class="edge">
<title>Node29&#45;&gt;Node2</title>
<g id="a_edge55_Node000029_Node000002"><a xlink:title=" ">
<path fill="none" stroke="#63b8ff" d="M858.81,-115.19C844.41,-100.26 812.92,-70.15 780,-55 722.24,-28.43 649.21,-17.71 601.35,-13.4"/>
<polygon fill="#63b8ff" stroke="#63b8ff" points="601.5,-9.9 591.24,-12.55 600.91,-16.87 601.5,-9.9"/>
</a>
</g>
</g>
<!-- Node29&#45;&gt;Node6 -->
<g id="edge57_Node000029_Node000006" class="edge">
<title>Node29&#45;&gt;Node6</title>
<g id="a_edge57_Node000029_Node000006"><a xlink:title=" ">
<path fill="none" stroke="#63b8ff" d="M845.19,-115.49C819.75,-105.57 777.49,-89.09 748.49,-77.78"/>
<polygon fill="#63b8ff" stroke="#63b8ff" points="749.43,-74.39 738.84,-74.02 746.88,-80.91 749.43,-74.39"/>
</a>
</g>
</g>
<!-- Node29&#45;&gt;Node9 -->
<g id="edge58_Node000029_Node000009" class="edge">
<title>Node29&#45;&gt;Node9</title>
<g id="a_edge58_Node000029_Node000009"><a xlink:title=" ">
<path fill="none" stroke="#63b8ff" d="M813.84,-115.62C746.81,-105.05 631.68,-86.89 559.92,-75.58"/>
<polygon fill="#63b8ff" stroke="#63b8ff" points="560.08,-72.06 549.66,-73.96 558.99,-78.98 560.08,-72.06"/>
</a>
</g>
</g>
<!-- Node29&#45;&gt;Node11 -->
<g id="edge56_Node000029_Node000011" class="edge">
<title>Node29&#45;&gt;Node11</title>
<g id="a_edge56_Node000029_Node000011"><a xlink:title=" ">
<path fill="none" stroke="#63b8ff" d="M867,-115.37C867,-107.25 867,-94.81 867,-84.39"/>
<polygon fill="#63b8ff" stroke="#63b8ff" points="870.5,-84.17 867,-74.17 863.5,-84.17 870.5,-84.17"/>
</a>
</g>
</g>
</g>
</svg>

<g id="navigator" transform="translate(0 0)" fill="#404254">
  <rect fill="#f2f5e9" fill-opacity="0.5" stroke="#606060" stroke-width=".5" x="0" y="0" width="60" height="60"/>
  <use id="zoomplus" xlink:href="#zoomPlus" x="17" y="9" onmousedown="handleZoom(evt,'in')"/>
  <use id="zoomminus" xlink:href="#zoomMin" x="42" y="9" onmousedown="handleZoom(evt,'out')"/>
  <use id="reset" xlink:href="#resetDef" x="30" y="36" onmousedown="handleReset()"/>
   <use id="arrowup" xlink:href="#arrowUp" x="0" y="0" onmousedown="handlePan(0,-1)"/>
  <use id="arrowright" xlink:href="#arrowRight" x="0" y="0" onmousedown="handlePan(1,0)"/>
  <use id="arrowdown" xlink:href="#arrowDown" x="0" y="0" onmousedown="handlePan(0,1)"/>
  <use id="arrowleft" xlink:href="#arrowLeft" x="0" y="0" onmousedown="handlePan(-1,0)"/>
</g>
<svg viewBox="0 0 15 15" width="100%" height="30px" preserveAspectRatio="xMaxYMin meet">
 <g id="arrow_out" transform="scale(0.3 0.3)">
  <a xlink:href="TrackBrowser_8h__incl_org.svg" target="_base">
   <rect id="button" ry="5" rx="5" y="6" x="6" height="38" width="38"
        fill="#f2f5e9" fill-opacity="0.5" stroke="#606060" stroke-width="1.0"/>
   <path id="arrow"
     d="M 11.500037,31.436501 C 11.940474,20.09759 22.043105,11.32322 32.158766,21.979434 L 37.068811,17.246167 C 37.068811,17.246167 37.088388,32 37.088388,32 L 22.160133,31.978069 C 22.160133,31.978069 26.997745,27.140456 26.997745,27.140456 C 18.528582,18.264221 13.291696,25.230495 11.500037,31.436501 z"
     style="fill:#404040;"/>
  </a>
 </g>
</svg>

<style type='text/css'>
<![CDATA[
[data-mouse-over-selected='false'] { opacity: 0.7; }
[data-mouse-over-selected='true']  { opacity: 1.0; }
]]>
</style>
<script type="application/ecmascript"><![CDATA[
document.addEventListener('DOMContentLoaded', (event) => {
  highlightEdges();
  highlightAdjacentNodes();
});
]]></script>
</svg>
